%TF.GenerationSoftware,KiCad,Pcbnew,5.1.6-c6e7f7d~86~ubuntu18.04.1*%
%TF.CreationDate,2021-01-30T18:03:06+08:00*%
%TF.ProjectId,amiga_ocs,616d6967-615f-46f6-9373-2e6b69636164,rev?*%
%TF.SameCoordinates,Original*%
%TF.FileFunction,Copper,L2,Bot*%
%TF.FilePolarity,Positive*%
%FSLAX46Y46*%
G04 Gerber Fmt 4.6, Leading zero omitted, Abs format (unit mm)*
G04 Created by KiCad (PCBNEW 5.1.6-c6e7f7d~86~ubuntu18.04.1) date 2021-01-30 18:03:06*
%MOMM*%
%LPD*%
G01*
G04 APERTURE LIST*
%TA.AperFunction,ComponentPad*%
%ADD10O,1.700000X1.700000*%
%TD*%
%TA.AperFunction,ComponentPad*%
%ADD11R,1.700000X1.700000*%
%TD*%
%TA.AperFunction,ConnectorPad*%
%ADD12R,1.780000X7.620000*%
%TD*%
%TA.AperFunction,ViaPad*%
%ADD13C,0.800000*%
%TD*%
%TA.AperFunction,Conductor*%
%ADD14C,0.250000*%
%TD*%
G04 APERTURE END LIST*
D10*
%TO.P,J5,40*%
%TO.N,GPIO21*%
X210260000Y-45460000D03*
%TO.P,J5,39*%
%TO.N,GND*%
X210260000Y-48000000D03*
%TO.P,J5,38*%
%TO.N,GPIO20*%
X207720000Y-45460000D03*
%TO.P,J5,37*%
%TO.N,GPIO26*%
X207720000Y-48000000D03*
%TO.P,J5,36*%
%TO.N,GPIO16*%
X205180000Y-45460000D03*
%TO.P,J5,35*%
%TO.N,GPIO19*%
X205180000Y-48000000D03*
%TO.P,J5,34*%
%TO.N,GND*%
X202640000Y-45460000D03*
%TO.P,J5,33*%
%TO.N,GPIO13*%
X202640000Y-48000000D03*
%TO.P,J5,32*%
%TO.N,GPIO12*%
X200100000Y-45460000D03*
%TO.P,J5,31*%
%TO.N,GPIO6*%
X200100000Y-48000000D03*
%TO.P,J5,30*%
%TO.N,GND*%
X197560000Y-45460000D03*
%TO.P,J5,29*%
%TO.N,GPIO5*%
X197560000Y-48000000D03*
%TO.P,J5,28*%
%TO.N,GPIO1*%
X195020000Y-45460000D03*
%TO.P,J5,27*%
%TO.N,GPIO0*%
X195020000Y-48000000D03*
%TO.P,J5,26*%
%TO.N,GPIO7*%
X192480000Y-45460000D03*
%TO.P,J5,25*%
%TO.N,GND*%
X192480000Y-48000000D03*
%TO.P,J5,24*%
%TO.N,GPIO8*%
X189940000Y-45460000D03*
%TO.P,J5,23*%
%TO.N,GPIO11*%
X189940000Y-48000000D03*
%TO.P,J5,22*%
%TO.N,GPIO25*%
X187400000Y-45460000D03*
%TO.P,J5,21*%
%TO.N,GPIO9*%
X187400000Y-48000000D03*
%TO.P,J5,20*%
%TO.N,GND*%
X184860000Y-45460000D03*
%TO.P,J5,19*%
%TO.N,GPIO10*%
X184860000Y-48000000D03*
%TO.P,J5,18*%
%TO.N,GPIO24*%
X182320000Y-45460000D03*
%TO.P,J5,17*%
%TO.N,+3V3*%
X182320000Y-48000000D03*
%TO.P,J5,16*%
%TO.N,GPIO23*%
X179780000Y-45460000D03*
%TO.P,J5,15*%
%TO.N,GPIO22*%
X179780000Y-48000000D03*
%TO.P,J5,14*%
%TO.N,GND*%
X177240000Y-45460000D03*
%TO.P,J5,13*%
%TO.N,GPIO27*%
X177240000Y-48000000D03*
%TO.P,J5,12*%
%TO.N,GPIO18*%
X174700000Y-45460000D03*
%TO.P,J5,11*%
%TO.N,GPIO17*%
X174700000Y-48000000D03*
%TO.P,J5,10*%
%TO.N,GPIO15*%
X172160000Y-45460000D03*
%TO.P,J5,9*%
%TO.N,GND*%
X172160000Y-48000000D03*
%TO.P,J5,8*%
%TO.N,GPIO14*%
X169620000Y-45460000D03*
%TO.P,J5,7*%
%TO.N,GPIO4*%
X169620000Y-48000000D03*
%TO.P,J5,6*%
%TO.N,GND*%
X167080000Y-45460000D03*
%TO.P,J5,5*%
%TO.N,GPIO3*%
X167080000Y-48000000D03*
%TO.P,J5,4*%
%TO.N,+5V*%
X164540000Y-45460000D03*
%TO.P,J5,3*%
%TO.N,GPIO2*%
X164540000Y-48000000D03*
%TO.P,J5,2*%
%TO.N,+5V*%
X162000000Y-45460000D03*
D11*
%TO.P,J5,1*%
%TO.N,+3V3*%
X162000000Y-48000000D03*
%TD*%
%TO.P,C14,2*%
%TO.N,GND*%
%TA.AperFunction,SMDPad,CuDef*%
G36*
G01*
X75549999Y-127450000D02*
X76450001Y-127450000D01*
G75*
G02*
X76700000Y-127699999I0J-249999D01*
G01*
X76700000Y-128350001D01*
G75*
G02*
X76450001Y-128600000I-249999J0D01*
G01*
X75549999Y-128600000D01*
G75*
G02*
X75300000Y-128350001I0J249999D01*
G01*
X75300000Y-127699999D01*
G75*
G02*
X75549999Y-127450000I249999J0D01*
G01*
G37*
%TD.AperFunction*%
%TO.P,C14,1*%
%TO.N,+3V3*%
%TA.AperFunction,SMDPad,CuDef*%
G36*
G01*
X75549999Y-125400000D02*
X76450001Y-125400000D01*
G75*
G02*
X76700000Y-125649999I0J-249999D01*
G01*
X76700000Y-126300001D01*
G75*
G02*
X76450001Y-126550000I-249999J0D01*
G01*
X75549999Y-126550000D01*
G75*
G02*
X75300000Y-126300001I0J249999D01*
G01*
X75300000Y-125649999D01*
G75*
G02*
X75549999Y-125400000I249999J0D01*
G01*
G37*
%TD.AperFunction*%
%TD*%
%TO.P,C13,2*%
%TO.N,GND*%
%TA.AperFunction,SMDPad,CuDef*%
G36*
G01*
X108549999Y-127475000D02*
X109450001Y-127475000D01*
G75*
G02*
X109700000Y-127724999I0J-249999D01*
G01*
X109700000Y-128375001D01*
G75*
G02*
X109450001Y-128625000I-249999J0D01*
G01*
X108549999Y-128625000D01*
G75*
G02*
X108300000Y-128375001I0J249999D01*
G01*
X108300000Y-127724999D01*
G75*
G02*
X108549999Y-127475000I249999J0D01*
G01*
G37*
%TD.AperFunction*%
%TO.P,C13,1*%
%TO.N,+3V3*%
%TA.AperFunction,SMDPad,CuDef*%
G36*
G01*
X108549999Y-125425000D02*
X109450001Y-125425000D01*
G75*
G02*
X109700000Y-125674999I0J-249999D01*
G01*
X109700000Y-126325001D01*
G75*
G02*
X109450001Y-126575000I-249999J0D01*
G01*
X108549999Y-126575000D01*
G75*
G02*
X108300000Y-126325001I0J249999D01*
G01*
X108300000Y-125674999D01*
G75*
G02*
X108549999Y-125425000I249999J0D01*
G01*
G37*
%TD.AperFunction*%
%TD*%
%TO.P,C5,2*%
%TO.N,GND*%
%TA.AperFunction,SMDPad,CuDef*%
G36*
G01*
X112525000Y-131549999D02*
X112525000Y-132450001D01*
G75*
G02*
X112275001Y-132700000I-249999J0D01*
G01*
X111624999Y-132700000D01*
G75*
G02*
X111375000Y-132450001I0J249999D01*
G01*
X111375000Y-131549999D01*
G75*
G02*
X111624999Y-131300000I249999J0D01*
G01*
X112275001Y-131300000D01*
G75*
G02*
X112525000Y-131549999I0J-249999D01*
G01*
G37*
%TD.AperFunction*%
%TO.P,C5,1*%
%TO.N,+5V*%
%TA.AperFunction,SMDPad,CuDef*%
G36*
G01*
X114575000Y-131549999D02*
X114575000Y-132450001D01*
G75*
G02*
X114325001Y-132700000I-249999J0D01*
G01*
X113674999Y-132700000D01*
G75*
G02*
X113425000Y-132450001I0J249999D01*
G01*
X113425000Y-131549999D01*
G75*
G02*
X113674999Y-131300000I249999J0D01*
G01*
X114325001Y-131300000D01*
G75*
G02*
X114575000Y-131549999I0J-249999D01*
G01*
G37*
%TD.AperFunction*%
%TD*%
%TO.P,C4,2*%
%TO.N,GND*%
%TA.AperFunction,SMDPad,CuDef*%
G36*
G01*
X79525000Y-131549999D02*
X79525000Y-132450001D01*
G75*
G02*
X79275001Y-132700000I-249999J0D01*
G01*
X78624999Y-132700000D01*
G75*
G02*
X78375000Y-132450001I0J249999D01*
G01*
X78375000Y-131549999D01*
G75*
G02*
X78624999Y-131300000I249999J0D01*
G01*
X79275001Y-131300000D01*
G75*
G02*
X79525000Y-131549999I0J-249999D01*
G01*
G37*
%TD.AperFunction*%
%TO.P,C4,1*%
%TO.N,+5V*%
%TA.AperFunction,SMDPad,CuDef*%
G36*
G01*
X81575000Y-131549999D02*
X81575000Y-132450001D01*
G75*
G02*
X81325001Y-132700000I-249999J0D01*
G01*
X80674999Y-132700000D01*
G75*
G02*
X80425000Y-132450001I0J249999D01*
G01*
X80425000Y-131549999D01*
G75*
G02*
X80674999Y-131300000I249999J0D01*
G01*
X81325001Y-131300000D01*
G75*
G02*
X81575000Y-131549999I0J-249999D01*
G01*
G37*
%TD.AperFunction*%
%TD*%
D12*
%TO.P,J1,80*%
%TO.N,GND*%
X39824000Y-144000000D03*
%TO.P,J1,79*%
%TO.N,Net-(J1-Pad79)*%
X42364000Y-144000000D03*
%TO.P,J1,78*%
%TO.N,+5V*%
X44904000Y-144000000D03*
%TO.P,J1,77*%
%TO.N,Net-(J1-Pad77)*%
X47444000Y-144000000D03*
%TO.P,J1,76*%
%TO.N,Net-(J1-Pad76)*%
X49984000Y-144000000D03*
%TO.P,J1,75*%
%TO.N,Net-(J1-Pad75)*%
X52524000Y-144000000D03*
%TO.P,J1,74*%
%TO.N,Net-(J1-Pad74)*%
X55064000Y-144000000D03*
%TO.P,J1,73*%
%TO.N,Net-(J1-Pad73)*%
X57604000Y-144000000D03*
%TO.P,J1,72*%
%TO.N,Net-(J1-Pad72)*%
X60144000Y-144000000D03*
%TO.P,J1,71*%
%TO.N,WIRE1_8*%
X62684000Y-144000000D03*
%TO.P,J1,70*%
%TO.N,WIRE1_7*%
X65224000Y-144000000D03*
%TO.P,J1,69*%
%TO.N,WIRE1_6*%
X67764000Y-144000000D03*
%TO.P,J1,68*%
%TO.N,WIRE1_5*%
X70304000Y-144000000D03*
%TO.P,J1,67*%
%TO.N,WIRE1_4*%
X72844000Y-144000000D03*
%TO.P,J1,66*%
%TO.N,WIRE1_3*%
X75384000Y-144000000D03*
%TO.P,J1,65*%
%TO.N,WIRE1_2*%
X77924000Y-144000000D03*
%TO.P,J1,64*%
%TO.N,WIRE1_1*%
X80464000Y-144000000D03*
%TO.P,J1,63*%
%TO.N,Net-(J1-Pad63)*%
X83004000Y-144000000D03*
%TO.P,J1,31*%
%TO.N,GND*%
X93164000Y-144000000D03*
%TO.P,J1,30*%
%TO.N,Net-(J1-Pad30)*%
X95704000Y-144000000D03*
%TO.P,J1,29*%
%TO.N,+5V*%
X98244000Y-144000000D03*
%TO.P,J1,28*%
%TO.N,WIRE2_8*%
X100784000Y-144000000D03*
%TO.P,J1,27*%
%TO.N,WIRE2_7*%
X103324000Y-144000000D03*
%TO.P,J1,26*%
%TO.N,WIRE2_6*%
X105864000Y-144000000D03*
%TO.P,J1,25*%
%TO.N,WIRE2_5*%
X108404000Y-144000000D03*
%TO.P,J1,24*%
%TO.N,WIRE2_4*%
X110944000Y-144000000D03*
%TO.P,J1,23*%
%TO.N,WIRE2_3*%
X113484000Y-144000000D03*
%TO.P,J1,22*%
%TO.N,Net-(J1-Pad22)*%
X116024000Y-144000000D03*
%TO.P,J1,21*%
%TO.N,Net-(J1-Pad21)*%
X118564000Y-144000000D03*
%TO.P,J1,20*%
%TO.N,WIRE2_2*%
X121104000Y-144000000D03*
%TO.P,J1,19*%
%TO.N,Net-(J1-Pad19)*%
X123644000Y-144000000D03*
%TO.P,J1,18*%
%TO.N,Net-(J1-Pad18)*%
X126184000Y-144000000D03*
%TO.P,J1,17*%
%TO.N,Net-(J1-Pad17)*%
X128724000Y-144000000D03*
%TO.P,J1,16*%
%TO.N,Net-(J1-Pad16)*%
X131264000Y-144000000D03*
%TO.P,J1,15*%
%TO.N,Net-(J1-Pad15)*%
X133804000Y-144000000D03*
%TO.P,J1,14*%
%TO.N,Net-(J1-Pad14)*%
X136344000Y-144000000D03*
%TO.P,J1,13*%
%TO.N,Net-(J1-Pad13)*%
X138884000Y-144000000D03*
%TO.P,J1,12*%
%TO.N,Net-(J1-Pad12)*%
X141424000Y-144000000D03*
%TO.P,J1,11*%
%TO.N,Net-(J1-Pad11)*%
X143964000Y-144000000D03*
%TO.P,J1,10*%
%TO.N,GND*%
X146504000Y-144000000D03*
%TO.P,J1,9*%
%TO.N,Net-(J1-Pad9)*%
X149044000Y-144000000D03*
%TO.P,J1,8*%
%TO.N,Net-(J1-Pad8)*%
X151584000Y-144000000D03*
%TO.P,J1,7*%
%TO.N,Net-(J1-Pad7)*%
X154124000Y-144000000D03*
%TO.P,J1,6*%
%TO.N,Net-(J1-Pad6)*%
X156664000Y-144000000D03*
%TO.P,J1,5*%
%TO.N,Net-(J1-Pad5)*%
X159204000Y-144000000D03*
%TO.P,J1,4*%
%TO.N,Net-(J1-Pad4)*%
X161744000Y-144000000D03*
%TO.P,J1,3*%
%TO.N,+5V*%
X164284000Y-144000000D03*
%TO.P,J1,2*%
%TO.N,WIRE2_1*%
X166824000Y-144000000D03*
%TO.P,J1,1*%
%TO.N,GND*%
X169364000Y-144000000D03*
%TD*%
D10*
%TO.P,J2,64*%
%TO.N,+5V*%
X120740000Y-106460000D03*
%TO.P,J2,63*%
X120740000Y-109000000D03*
%TO.P,J2,62*%
%TO.N,GND*%
X118200000Y-106460000D03*
%TO.P,J2,61*%
X118200000Y-109000000D03*
%TO.P,J2,60*%
%TO.N,IPL2*%
X115660000Y-106460000D03*
%TO.P,J2,59*%
%TO.N,BERR*%
X115660000Y-109000000D03*
%TO.P,J2,58*%
%TO.N,IPL1*%
X113120000Y-106460000D03*
%TO.P,J2,57*%
%TO.N,VPA*%
X113120000Y-109000000D03*
%TO.P,J2,56*%
%TO.N,IPL0*%
X110580000Y-106460000D03*
%TO.P,J2,55*%
%TO.N,E*%
X110580000Y-109000000D03*
%TO.P,J2,54*%
%TO.N,AS*%
X108040000Y-106460000D03*
%TO.P,J2,53*%
%TO.N,VMA*%
X108040000Y-109000000D03*
%TO.P,J2,52*%
%TO.N,A23*%
X105500000Y-106460000D03*
%TO.P,J2,51*%
%TO.N,BGACK*%
X105500000Y-109000000D03*
%TO.P,J2,50*%
%TO.N,A22*%
X102960000Y-106460000D03*
%TO.P,J2,49*%
%TO.N,DTACK*%
X102960000Y-109000000D03*
%TO.P,J2,48*%
%TO.N,A21*%
X100420000Y-106460000D03*
%TO.P,J2,47*%
%TO.N,UDS*%
X100420000Y-109000000D03*
%TO.P,J2,46*%
%TO.N,A20*%
X97880000Y-106460000D03*
%TO.P,J2,45*%
%TO.N,LDS*%
X97880000Y-109000000D03*
%TO.P,J2,44*%
%TO.N,A19*%
X95340000Y-106460000D03*
%TO.P,J2,43*%
%TO.N,RST*%
X95340000Y-109000000D03*
%TO.P,J2,42*%
%TO.N,A18*%
X92800000Y-106460000D03*
%TO.P,J2,41*%
%TO.N,CPU_CLK*%
X92800000Y-109000000D03*
%TO.P,J2,40*%
%TO.N,A17*%
X90260000Y-106460000D03*
%TO.P,J2,39*%
%TO.N,RW*%
X90260000Y-109000000D03*
%TO.P,J2,38*%
%TO.N,A16*%
X87720000Y-106460000D03*
%TO.P,J2,37*%
%TO.N,D15*%
X87720000Y-109000000D03*
%TO.P,J2,36*%
%TO.N,A15*%
X85180000Y-106460000D03*
%TO.P,J2,35*%
%TO.N,D14*%
X85180000Y-109000000D03*
%TO.P,J2,34*%
%TO.N,A14*%
X82640000Y-106460000D03*
%TO.P,J2,33*%
%TO.N,D13*%
X82640000Y-109000000D03*
%TO.P,J2,32*%
%TO.N,A13*%
X80100000Y-106460000D03*
%TO.P,J2,31*%
%TO.N,D12*%
X80100000Y-109000000D03*
%TO.P,J2,30*%
%TO.N,A12*%
X77560000Y-106460000D03*
%TO.P,J2,29*%
%TO.N,D11*%
X77560000Y-109000000D03*
%TO.P,J2,28*%
%TO.N,A11*%
X75020000Y-106460000D03*
%TO.P,J2,27*%
%TO.N,D10*%
X75020000Y-109000000D03*
%TO.P,J2,26*%
%TO.N,A10*%
X72480000Y-106460000D03*
%TO.P,J2,25*%
%TO.N,D9*%
X72480000Y-109000000D03*
%TO.P,J2,24*%
%TO.N,A9*%
X69940000Y-106460000D03*
%TO.P,J2,23*%
%TO.N,D8*%
X69940000Y-109000000D03*
%TO.P,J2,22*%
%TO.N,A8*%
X67400000Y-106460000D03*
%TO.P,J2,21*%
%TO.N,D7*%
X67400000Y-109000000D03*
%TO.P,J2,20*%
%TO.N,A7*%
X64860000Y-106460000D03*
%TO.P,J2,19*%
%TO.N,D6*%
X64860000Y-109000000D03*
%TO.P,J2,18*%
%TO.N,A6*%
X62320000Y-106460000D03*
%TO.P,J2,17*%
%TO.N,D5*%
X62320000Y-109000000D03*
%TO.P,J2,16*%
%TO.N,A5*%
X59780000Y-106460000D03*
%TO.P,J2,15*%
%TO.N,D4*%
X59780000Y-109000000D03*
%TO.P,J2,14*%
%TO.N,A4*%
X57240000Y-106460000D03*
%TO.P,J2,13*%
%TO.N,D3*%
X57240000Y-109000000D03*
%TO.P,J2,12*%
%TO.N,A3*%
X54700000Y-106460000D03*
%TO.P,J2,11*%
%TO.N,D2*%
X54700000Y-109000000D03*
%TO.P,J2,10*%
%TO.N,A2*%
X52160000Y-106460000D03*
%TO.P,J2,9*%
%TO.N,D1*%
X52160000Y-109000000D03*
%TO.P,J2,8*%
%TO.N,A1*%
X49620000Y-106460000D03*
%TO.P,J2,7*%
%TO.N,D0*%
X49620000Y-109000000D03*
%TO.P,J2,6*%
%TO.N,GND*%
X47080000Y-106460000D03*
%TO.P,J2,5*%
X47080000Y-109000000D03*
%TO.P,J2,4*%
%TO.N,+3V3*%
X44540000Y-106460000D03*
%TO.P,J2,3*%
X44540000Y-109000000D03*
%TO.P,J2,2*%
%TO.N,GND*%
X42000000Y-106460000D03*
D11*
%TO.P,J2,1*%
X42000000Y-109000000D03*
%TD*%
D10*
%TO.P,J3,64*%
%TO.N,+5V*%
X120740000Y-45460000D03*
%TO.P,J3,63*%
X120740000Y-48000000D03*
%TO.P,J3,62*%
%TO.N,GND*%
X118200000Y-45460000D03*
%TO.P,J3,61*%
X118200000Y-48000000D03*
%TO.P,J3,60*%
%TO.N,FC2*%
X115660000Y-45460000D03*
%TO.P,J3,59*%
%TO.N,GPIO22*%
X115660000Y-48000000D03*
%TO.P,J3,58*%
%TO.N,FC1*%
X113120000Y-45460000D03*
%TO.P,J3,57*%
%TO.N,GPIO23*%
X113120000Y-48000000D03*
%TO.P,J3,56*%
%TO.N,FC0*%
X110580000Y-45460000D03*
%TO.P,J3,55*%
%TO.N,GPIO24*%
X110580000Y-48000000D03*
%TO.P,J3,54*%
%TO.N,BG*%
X108040000Y-45460000D03*
%TO.P,J3,53*%
%TO.N,GPIO25*%
X108040000Y-48000000D03*
%TO.P,J3,52*%
%TO.N,BR*%
X105500000Y-45460000D03*
%TO.P,J3,51*%
%TO.N,GPIO26*%
X105500000Y-48000000D03*
%TO.P,J3,50*%
%TO.N,GPIO48*%
X102960000Y-45460000D03*
%TO.P,J3,49*%
%TO.N,GPIO21*%
X102960000Y-48000000D03*
%TO.P,J3,48*%
%TO.N,GPIO47*%
X100420000Y-45460000D03*
%TO.P,J3,47*%
%TO.N,GPIO20*%
X100420000Y-48000000D03*
%TO.P,J3,46*%
%TO.N,GPIO46*%
X97880000Y-45460000D03*
%TO.P,J3,45*%
%TO.N,GPIO19*%
X97880000Y-48000000D03*
%TO.P,J3,44*%
%TO.N,GPIO45*%
X95340000Y-45460000D03*
%TO.P,J3,43*%
%TO.N,GPIO18*%
X95340000Y-48000000D03*
%TO.P,J3,42*%
%TO.N,GPIO44*%
X92800000Y-45460000D03*
%TO.P,J3,41*%
%TO.N,GPIO17*%
X92800000Y-48000000D03*
%TO.P,J3,40*%
%TO.N,GPIO43*%
X90260000Y-45460000D03*
%TO.P,J3,39*%
%TO.N,GPIO16*%
X90260000Y-48000000D03*
%TO.P,J3,38*%
%TO.N,GPIO42*%
X87720000Y-45460000D03*
%TO.P,J3,37*%
%TO.N,GPIO15*%
X87720000Y-48000000D03*
%TO.P,J3,36*%
%TO.N,GPIO41*%
X85180000Y-45460000D03*
%TO.P,J3,35*%
%TO.N,GPIO14*%
X85180000Y-48000000D03*
%TO.P,J3,34*%
%TO.N,GPIO40*%
X82640000Y-45460000D03*
%TO.P,J3,33*%
%TO.N,GPIO13*%
X82640000Y-48000000D03*
%TO.P,J3,32*%
%TO.N,GPIO39*%
X80100000Y-45460000D03*
%TO.P,J3,31*%
%TO.N,GPIO12*%
X80100000Y-48000000D03*
%TO.P,J3,30*%
%TO.N,GPIO38*%
X77560000Y-45460000D03*
%TO.P,J3,29*%
%TO.N,GPIO11*%
X77560000Y-48000000D03*
%TO.P,J3,28*%
%TO.N,GPIO27*%
X75020000Y-45460000D03*
%TO.P,J3,27*%
%TO.N,GPIO10*%
X75020000Y-48000000D03*
%TO.P,J3,26*%
%TO.N,GPIO28*%
X72480000Y-45460000D03*
%TO.P,J3,25*%
%TO.N,GPIO9*%
X72480000Y-48000000D03*
%TO.P,J3,24*%
%TO.N,GPIO29*%
X69940000Y-45460000D03*
%TO.P,J3,23*%
%TO.N,GPIO8*%
X69940000Y-48000000D03*
%TO.P,J3,22*%
%TO.N,GPIO30*%
X67400000Y-45460000D03*
%TO.P,J3,21*%
%TO.N,GPIO7*%
X67400000Y-48000000D03*
%TO.P,J3,20*%
%TO.N,GPIO31*%
X64860000Y-45460000D03*
%TO.P,J3,19*%
%TO.N,GPIO6*%
X64860000Y-48000000D03*
%TO.P,J3,18*%
%TO.N,GPIO32*%
X62320000Y-45460000D03*
%TO.P,J3,17*%
%TO.N,GPIO5*%
X62320000Y-48000000D03*
%TO.P,J3,16*%
%TO.N,GPIO33*%
X59780000Y-45460000D03*
%TO.P,J3,15*%
%TO.N,GPIO4*%
X59780000Y-48000000D03*
%TO.P,J3,14*%
%TO.N,GPIO34*%
X57240000Y-45460000D03*
%TO.P,J3,13*%
%TO.N,GPIO3*%
X57240000Y-48000000D03*
%TO.P,J3,12*%
%TO.N,GPIO35*%
X54700000Y-45460000D03*
%TO.P,J3,11*%
%TO.N,GPIO2*%
X54700000Y-48000000D03*
%TO.P,J3,10*%
%TO.N,GPIO36*%
X52160000Y-45460000D03*
%TO.P,J3,9*%
%TO.N,GPIO1*%
X52160000Y-48000000D03*
%TO.P,J3,8*%
%TO.N,GPIO37*%
X49620000Y-45460000D03*
%TO.P,J3,7*%
%TO.N,GPIO0*%
X49620000Y-48000000D03*
%TO.P,J3,6*%
%TO.N,GND*%
X47080000Y-45460000D03*
%TO.P,J3,5*%
X47080000Y-48000000D03*
%TO.P,J3,4*%
%TO.N,+3V3*%
X44540000Y-45460000D03*
%TO.P,J3,3*%
X44540000Y-48000000D03*
%TO.P,J3,2*%
%TO.N,GND*%
X42000000Y-45460000D03*
D11*
%TO.P,J3,1*%
X42000000Y-48000000D03*
%TD*%
D10*
%TO.P,J4,40*%
%TO.N,GND*%
X69740000Y-31460000D03*
%TO.P,J4,39*%
X69740000Y-34000000D03*
%TO.P,J4,38*%
%TO.N,+3V3*%
X72280000Y-31460000D03*
%TO.P,J4,37*%
X72280000Y-34000000D03*
%TO.P,J4,36*%
%TO.N,Net-(J4-Pad36)*%
X74820000Y-31460000D03*
%TO.P,J4,35*%
%TO.N,GPIO26*%
X74820000Y-34000000D03*
%TO.P,J4,34*%
%TO.N,Net-(J4-Pad34)*%
X77360000Y-31460000D03*
%TO.P,J4,33*%
%TO.N,GPIO25*%
X77360000Y-34000000D03*
%TO.P,J4,32*%
%TO.N,Net-(J4-Pad32)*%
X79900000Y-31460000D03*
%TO.P,J4,31*%
%TO.N,GPIO24*%
X79900000Y-34000000D03*
%TO.P,J4,30*%
%TO.N,Net-(J4-Pad30)*%
X82440000Y-31460000D03*
%TO.P,J4,29*%
%TO.N,GPIO23*%
X82440000Y-34000000D03*
%TO.P,J4,28*%
%TO.N,Net-(J4-Pad28)*%
X84980000Y-31460000D03*
%TO.P,J4,27*%
%TO.N,GPIO22*%
X84980000Y-34000000D03*
%TO.P,J4,26*%
%TO.N,GPIO38*%
X87520000Y-31460000D03*
%TO.P,J4,25*%
%TO.N,GPIO37*%
X87520000Y-34000000D03*
%TO.P,J4,24*%
%TO.N,GPIO39*%
X90060000Y-31460000D03*
%TO.P,J4,23*%
%TO.N,GPIO36*%
X90060000Y-34000000D03*
%TO.P,J4,22*%
%TO.N,GPIO40*%
X92600000Y-31460000D03*
%TO.P,J4,21*%
%TO.N,GPIO35*%
X92600000Y-34000000D03*
%TO.P,J4,20*%
%TO.N,GPIO41*%
X95140000Y-31460000D03*
%TO.P,J4,19*%
%TO.N,GPIO34*%
X95140000Y-34000000D03*
%TO.P,J4,18*%
%TO.N,GPIO42*%
X97680000Y-31460000D03*
%TO.P,J4,17*%
%TO.N,GPIO33*%
X97680000Y-34000000D03*
%TO.P,J4,16*%
%TO.N,GPIO43*%
X100220000Y-31460000D03*
%TO.P,J4,15*%
%TO.N,GPIO32*%
X100220000Y-34000000D03*
%TO.P,J4,14*%
%TO.N,GPIO44*%
X102760000Y-31460000D03*
%TO.P,J4,13*%
%TO.N,GPIO31*%
X102760000Y-34000000D03*
%TO.P,J4,12*%
%TO.N,GPIO45*%
X105300000Y-31460000D03*
%TO.P,J4,11*%
%TO.N,GPIO30*%
X105300000Y-34000000D03*
%TO.P,J4,10*%
%TO.N,GPIO46*%
X107840000Y-31460000D03*
%TO.P,J4,9*%
%TO.N,GPIO29*%
X107840000Y-34000000D03*
%TO.P,J4,8*%
%TO.N,GPIO47*%
X110380000Y-31460000D03*
%TO.P,J4,7*%
%TO.N,GPIO28*%
X110380000Y-34000000D03*
%TO.P,J4,6*%
%TO.N,GPIO48*%
X112920000Y-31460000D03*
%TO.P,J4,5*%
%TO.N,GPIO27*%
X112920000Y-34000000D03*
%TO.P,J4,4*%
%TO.N,GND*%
X115460000Y-31460000D03*
%TO.P,J4,3*%
X115460000Y-34000000D03*
%TO.P,J4,2*%
%TO.N,+3V3*%
X118000000Y-31460000D03*
D11*
%TO.P,J4,1*%
X118000000Y-34000000D03*
%TD*%
%TO.P,U3,20*%
%TO.N,WIRE3_8*%
%TA.AperFunction,SMDPad,CuDef*%
G36*
G01*
X121468000Y-129743000D02*
X121668000Y-129743000D01*
G75*
G02*
X121768000Y-129843000I0J-100000D01*
G01*
X121768000Y-131118000D01*
G75*
G02*
X121668000Y-131218000I-100000J0D01*
G01*
X121468000Y-131218000D01*
G75*
G02*
X121368000Y-131118000I0J100000D01*
G01*
X121368000Y-129843000D01*
G75*
G02*
X121468000Y-129743000I100000J0D01*
G01*
G37*
%TD.AperFunction*%
%TO.P,U3,19*%
%TO.N,+5V*%
%TA.AperFunction,SMDPad,CuDef*%
G36*
G01*
X122118000Y-129743000D02*
X122318000Y-129743000D01*
G75*
G02*
X122418000Y-129843000I0J-100000D01*
G01*
X122418000Y-131118000D01*
G75*
G02*
X122318000Y-131218000I-100000J0D01*
G01*
X122118000Y-131218000D01*
G75*
G02*
X122018000Y-131118000I0J100000D01*
G01*
X122018000Y-129843000D01*
G75*
G02*
X122118000Y-129743000I100000J0D01*
G01*
G37*
%TD.AperFunction*%
%TO.P,U3,18*%
%TO.N,WIRE3_7*%
%TA.AperFunction,SMDPad,CuDef*%
G36*
G01*
X122768000Y-129743000D02*
X122968000Y-129743000D01*
G75*
G02*
X123068000Y-129843000I0J-100000D01*
G01*
X123068000Y-131118000D01*
G75*
G02*
X122968000Y-131218000I-100000J0D01*
G01*
X122768000Y-131218000D01*
G75*
G02*
X122668000Y-131118000I0J100000D01*
G01*
X122668000Y-129843000D01*
G75*
G02*
X122768000Y-129743000I100000J0D01*
G01*
G37*
%TD.AperFunction*%
%TO.P,U3,17*%
%TO.N,WIRE3_6*%
%TA.AperFunction,SMDPad,CuDef*%
G36*
G01*
X123418000Y-129743000D02*
X123618000Y-129743000D01*
G75*
G02*
X123718000Y-129843000I0J-100000D01*
G01*
X123718000Y-131118000D01*
G75*
G02*
X123618000Y-131218000I-100000J0D01*
G01*
X123418000Y-131218000D01*
G75*
G02*
X123318000Y-131118000I0J100000D01*
G01*
X123318000Y-129843000D01*
G75*
G02*
X123418000Y-129743000I100000J0D01*
G01*
G37*
%TD.AperFunction*%
%TO.P,U3,16*%
%TO.N,WIRE3_5*%
%TA.AperFunction,SMDPad,CuDef*%
G36*
G01*
X124068000Y-129743000D02*
X124268000Y-129743000D01*
G75*
G02*
X124368000Y-129843000I0J-100000D01*
G01*
X124368000Y-131118000D01*
G75*
G02*
X124268000Y-131218000I-100000J0D01*
G01*
X124068000Y-131218000D01*
G75*
G02*
X123968000Y-131118000I0J100000D01*
G01*
X123968000Y-129843000D01*
G75*
G02*
X124068000Y-129743000I100000J0D01*
G01*
G37*
%TD.AperFunction*%
%TO.P,U3,15*%
%TO.N,WIRE3_4*%
%TA.AperFunction,SMDPad,CuDef*%
G36*
G01*
X124718000Y-129743000D02*
X124918000Y-129743000D01*
G75*
G02*
X125018000Y-129843000I0J-100000D01*
G01*
X125018000Y-131118000D01*
G75*
G02*
X124918000Y-131218000I-100000J0D01*
G01*
X124718000Y-131218000D01*
G75*
G02*
X124618000Y-131118000I0J100000D01*
G01*
X124618000Y-129843000D01*
G75*
G02*
X124718000Y-129743000I100000J0D01*
G01*
G37*
%TD.AperFunction*%
%TO.P,U3,14*%
%TO.N,WIRE3_3*%
%TA.AperFunction,SMDPad,CuDef*%
G36*
G01*
X125368000Y-129743000D02*
X125568000Y-129743000D01*
G75*
G02*
X125668000Y-129843000I0J-100000D01*
G01*
X125668000Y-131118000D01*
G75*
G02*
X125568000Y-131218000I-100000J0D01*
G01*
X125368000Y-131218000D01*
G75*
G02*
X125268000Y-131118000I0J100000D01*
G01*
X125268000Y-129843000D01*
G75*
G02*
X125368000Y-129743000I100000J0D01*
G01*
G37*
%TD.AperFunction*%
%TO.P,U3,13*%
%TO.N,WIRE3_2*%
%TA.AperFunction,SMDPad,CuDef*%
G36*
G01*
X126018000Y-129743000D02*
X126218000Y-129743000D01*
G75*
G02*
X126318000Y-129843000I0J-100000D01*
G01*
X126318000Y-131118000D01*
G75*
G02*
X126218000Y-131218000I-100000J0D01*
G01*
X126018000Y-131218000D01*
G75*
G02*
X125918000Y-131118000I0J100000D01*
G01*
X125918000Y-129843000D01*
G75*
G02*
X126018000Y-129743000I100000J0D01*
G01*
G37*
%TD.AperFunction*%
%TO.P,U3,12*%
%TO.N,WIRE3_1*%
%TA.AperFunction,SMDPad,CuDef*%
G36*
G01*
X126668000Y-129743000D02*
X126868000Y-129743000D01*
G75*
G02*
X126968000Y-129843000I0J-100000D01*
G01*
X126968000Y-131118000D01*
G75*
G02*
X126868000Y-131218000I-100000J0D01*
G01*
X126668000Y-131218000D01*
G75*
G02*
X126568000Y-131118000I0J100000D01*
G01*
X126568000Y-129843000D01*
G75*
G02*
X126668000Y-129743000I100000J0D01*
G01*
G37*
%TD.AperFunction*%
%TO.P,U3,11*%
%TO.N,GND*%
%TA.AperFunction,SMDPad,CuDef*%
G36*
G01*
X127318000Y-129743000D02*
X127518000Y-129743000D01*
G75*
G02*
X127618000Y-129843000I0J-100000D01*
G01*
X127618000Y-131118000D01*
G75*
G02*
X127518000Y-131218000I-100000J0D01*
G01*
X127318000Y-131218000D01*
G75*
G02*
X127218000Y-131118000I0J100000D01*
G01*
X127218000Y-129843000D01*
G75*
G02*
X127318000Y-129743000I100000J0D01*
G01*
G37*
%TD.AperFunction*%
%TO.P,U3,10*%
%TO.N,+3V3*%
%TA.AperFunction,SMDPad,CuDef*%
G36*
G01*
X127318000Y-124018000D02*
X127518000Y-124018000D01*
G75*
G02*
X127618000Y-124118000I0J-100000D01*
G01*
X127618000Y-125393000D01*
G75*
G02*
X127518000Y-125493000I-100000J0D01*
G01*
X127318000Y-125493000D01*
G75*
G02*
X127218000Y-125393000I0J100000D01*
G01*
X127218000Y-124118000D01*
G75*
G02*
X127318000Y-124018000I100000J0D01*
G01*
G37*
%TD.AperFunction*%
%TO.P,U3,9*%
%TO.N,D7*%
%TA.AperFunction,SMDPad,CuDef*%
G36*
G01*
X126668000Y-124018000D02*
X126868000Y-124018000D01*
G75*
G02*
X126968000Y-124118000I0J-100000D01*
G01*
X126968000Y-125393000D01*
G75*
G02*
X126868000Y-125493000I-100000J0D01*
G01*
X126668000Y-125493000D01*
G75*
G02*
X126568000Y-125393000I0J100000D01*
G01*
X126568000Y-124118000D01*
G75*
G02*
X126668000Y-124018000I100000J0D01*
G01*
G37*
%TD.AperFunction*%
%TO.P,U3,8*%
%TO.N,D6*%
%TA.AperFunction,SMDPad,CuDef*%
G36*
G01*
X126018000Y-124018000D02*
X126218000Y-124018000D01*
G75*
G02*
X126318000Y-124118000I0J-100000D01*
G01*
X126318000Y-125393000D01*
G75*
G02*
X126218000Y-125493000I-100000J0D01*
G01*
X126018000Y-125493000D01*
G75*
G02*
X125918000Y-125393000I0J100000D01*
G01*
X125918000Y-124118000D01*
G75*
G02*
X126018000Y-124018000I100000J0D01*
G01*
G37*
%TD.AperFunction*%
%TO.P,U3,7*%
%TO.N,D5*%
%TA.AperFunction,SMDPad,CuDef*%
G36*
G01*
X125368000Y-124018000D02*
X125568000Y-124018000D01*
G75*
G02*
X125668000Y-124118000I0J-100000D01*
G01*
X125668000Y-125393000D01*
G75*
G02*
X125568000Y-125493000I-100000J0D01*
G01*
X125368000Y-125493000D01*
G75*
G02*
X125268000Y-125393000I0J100000D01*
G01*
X125268000Y-124118000D01*
G75*
G02*
X125368000Y-124018000I100000J0D01*
G01*
G37*
%TD.AperFunction*%
%TO.P,U3,6*%
%TO.N,D4*%
%TA.AperFunction,SMDPad,CuDef*%
G36*
G01*
X124718000Y-124018000D02*
X124918000Y-124018000D01*
G75*
G02*
X125018000Y-124118000I0J-100000D01*
G01*
X125018000Y-125393000D01*
G75*
G02*
X124918000Y-125493000I-100000J0D01*
G01*
X124718000Y-125493000D01*
G75*
G02*
X124618000Y-125393000I0J100000D01*
G01*
X124618000Y-124118000D01*
G75*
G02*
X124718000Y-124018000I100000J0D01*
G01*
G37*
%TD.AperFunction*%
%TO.P,U3,5*%
%TO.N,D3*%
%TA.AperFunction,SMDPad,CuDef*%
G36*
G01*
X124068000Y-124018000D02*
X124268000Y-124018000D01*
G75*
G02*
X124368000Y-124118000I0J-100000D01*
G01*
X124368000Y-125393000D01*
G75*
G02*
X124268000Y-125493000I-100000J0D01*
G01*
X124068000Y-125493000D01*
G75*
G02*
X123968000Y-125393000I0J100000D01*
G01*
X123968000Y-124118000D01*
G75*
G02*
X124068000Y-124018000I100000J0D01*
G01*
G37*
%TD.AperFunction*%
%TO.P,U3,4*%
%TO.N,D2*%
%TA.AperFunction,SMDPad,CuDef*%
G36*
G01*
X123418000Y-124018000D02*
X123618000Y-124018000D01*
G75*
G02*
X123718000Y-124118000I0J-100000D01*
G01*
X123718000Y-125393000D01*
G75*
G02*
X123618000Y-125493000I-100000J0D01*
G01*
X123418000Y-125493000D01*
G75*
G02*
X123318000Y-125393000I0J100000D01*
G01*
X123318000Y-124118000D01*
G75*
G02*
X123418000Y-124018000I100000J0D01*
G01*
G37*
%TD.AperFunction*%
%TO.P,U3,3*%
%TO.N,D1*%
%TA.AperFunction,SMDPad,CuDef*%
G36*
G01*
X122768000Y-124018000D02*
X122968000Y-124018000D01*
G75*
G02*
X123068000Y-124118000I0J-100000D01*
G01*
X123068000Y-125393000D01*
G75*
G02*
X122968000Y-125493000I-100000J0D01*
G01*
X122768000Y-125493000D01*
G75*
G02*
X122668000Y-125393000I0J100000D01*
G01*
X122668000Y-124118000D01*
G75*
G02*
X122768000Y-124018000I100000J0D01*
G01*
G37*
%TD.AperFunction*%
%TO.P,U3,2*%
%TO.N,+3V3*%
%TA.AperFunction,SMDPad,CuDef*%
G36*
G01*
X122118000Y-124018000D02*
X122318000Y-124018000D01*
G75*
G02*
X122418000Y-124118000I0J-100000D01*
G01*
X122418000Y-125393000D01*
G75*
G02*
X122318000Y-125493000I-100000J0D01*
G01*
X122118000Y-125493000D01*
G75*
G02*
X122018000Y-125393000I0J100000D01*
G01*
X122018000Y-124118000D01*
G75*
G02*
X122118000Y-124018000I100000J0D01*
G01*
G37*
%TD.AperFunction*%
%TO.P,U3,1*%
%TO.N,D0*%
%TA.AperFunction,SMDPad,CuDef*%
G36*
G01*
X121468000Y-124018000D02*
X121668000Y-124018000D01*
G75*
G02*
X121768000Y-124118000I0J-100000D01*
G01*
X121768000Y-125393000D01*
G75*
G02*
X121668000Y-125493000I-100000J0D01*
G01*
X121468000Y-125493000D01*
G75*
G02*
X121368000Y-125393000I0J100000D01*
G01*
X121368000Y-124118000D01*
G75*
G02*
X121468000Y-124018000I100000J0D01*
G01*
G37*
%TD.AperFunction*%
%TD*%
%TO.P,U4,20*%
%TO.N,WIRE4_8*%
%TA.AperFunction,SMDPad,CuDef*%
G36*
G01*
X55065000Y-129362000D02*
X55265000Y-129362000D01*
G75*
G02*
X55365000Y-129462000I0J-100000D01*
G01*
X55365000Y-130737000D01*
G75*
G02*
X55265000Y-130837000I-100000J0D01*
G01*
X55065000Y-130837000D01*
G75*
G02*
X54965000Y-130737000I0J100000D01*
G01*
X54965000Y-129462000D01*
G75*
G02*
X55065000Y-129362000I100000J0D01*
G01*
G37*
%TD.AperFunction*%
%TO.P,U4,19*%
%TO.N,+5V*%
%TA.AperFunction,SMDPad,CuDef*%
G36*
G01*
X55715000Y-129362000D02*
X55915000Y-129362000D01*
G75*
G02*
X56015000Y-129462000I0J-100000D01*
G01*
X56015000Y-130737000D01*
G75*
G02*
X55915000Y-130837000I-100000J0D01*
G01*
X55715000Y-130837000D01*
G75*
G02*
X55615000Y-130737000I0J100000D01*
G01*
X55615000Y-129462000D01*
G75*
G02*
X55715000Y-129362000I100000J0D01*
G01*
G37*
%TD.AperFunction*%
%TO.P,U4,18*%
%TO.N,WIRE4_7*%
%TA.AperFunction,SMDPad,CuDef*%
G36*
G01*
X56365000Y-129362000D02*
X56565000Y-129362000D01*
G75*
G02*
X56665000Y-129462000I0J-100000D01*
G01*
X56665000Y-130737000D01*
G75*
G02*
X56565000Y-130837000I-100000J0D01*
G01*
X56365000Y-130837000D01*
G75*
G02*
X56265000Y-130737000I0J100000D01*
G01*
X56265000Y-129462000D01*
G75*
G02*
X56365000Y-129362000I100000J0D01*
G01*
G37*
%TD.AperFunction*%
%TO.P,U4,17*%
%TO.N,WIRE4_6*%
%TA.AperFunction,SMDPad,CuDef*%
G36*
G01*
X57015000Y-129362000D02*
X57215000Y-129362000D01*
G75*
G02*
X57315000Y-129462000I0J-100000D01*
G01*
X57315000Y-130737000D01*
G75*
G02*
X57215000Y-130837000I-100000J0D01*
G01*
X57015000Y-130837000D01*
G75*
G02*
X56915000Y-130737000I0J100000D01*
G01*
X56915000Y-129462000D01*
G75*
G02*
X57015000Y-129362000I100000J0D01*
G01*
G37*
%TD.AperFunction*%
%TO.P,U4,16*%
%TO.N,WIRE4_5*%
%TA.AperFunction,SMDPad,CuDef*%
G36*
G01*
X57665000Y-129362000D02*
X57865000Y-129362000D01*
G75*
G02*
X57965000Y-129462000I0J-100000D01*
G01*
X57965000Y-130737000D01*
G75*
G02*
X57865000Y-130837000I-100000J0D01*
G01*
X57665000Y-130837000D01*
G75*
G02*
X57565000Y-130737000I0J100000D01*
G01*
X57565000Y-129462000D01*
G75*
G02*
X57665000Y-129362000I100000J0D01*
G01*
G37*
%TD.AperFunction*%
%TO.P,U4,15*%
%TO.N,WIRE4_4*%
%TA.AperFunction,SMDPad,CuDef*%
G36*
G01*
X58315000Y-129362000D02*
X58515000Y-129362000D01*
G75*
G02*
X58615000Y-129462000I0J-100000D01*
G01*
X58615000Y-130737000D01*
G75*
G02*
X58515000Y-130837000I-100000J0D01*
G01*
X58315000Y-130837000D01*
G75*
G02*
X58215000Y-130737000I0J100000D01*
G01*
X58215000Y-129462000D01*
G75*
G02*
X58315000Y-129362000I100000J0D01*
G01*
G37*
%TD.AperFunction*%
%TO.P,U4,14*%
%TO.N,WIRE4_3*%
%TA.AperFunction,SMDPad,CuDef*%
G36*
G01*
X58965000Y-129362000D02*
X59165000Y-129362000D01*
G75*
G02*
X59265000Y-129462000I0J-100000D01*
G01*
X59265000Y-130737000D01*
G75*
G02*
X59165000Y-130837000I-100000J0D01*
G01*
X58965000Y-130837000D01*
G75*
G02*
X58865000Y-130737000I0J100000D01*
G01*
X58865000Y-129462000D01*
G75*
G02*
X58965000Y-129362000I100000J0D01*
G01*
G37*
%TD.AperFunction*%
%TO.P,U4,13*%
%TO.N,WIRE4_2*%
%TA.AperFunction,SMDPad,CuDef*%
G36*
G01*
X59615000Y-129362000D02*
X59815000Y-129362000D01*
G75*
G02*
X59915000Y-129462000I0J-100000D01*
G01*
X59915000Y-130737000D01*
G75*
G02*
X59815000Y-130837000I-100000J0D01*
G01*
X59615000Y-130837000D01*
G75*
G02*
X59515000Y-130737000I0J100000D01*
G01*
X59515000Y-129462000D01*
G75*
G02*
X59615000Y-129362000I100000J0D01*
G01*
G37*
%TD.AperFunction*%
%TO.P,U4,12*%
%TO.N,WIRE4_1*%
%TA.AperFunction,SMDPad,CuDef*%
G36*
G01*
X60265000Y-129362000D02*
X60465000Y-129362000D01*
G75*
G02*
X60565000Y-129462000I0J-100000D01*
G01*
X60565000Y-130737000D01*
G75*
G02*
X60465000Y-130837000I-100000J0D01*
G01*
X60265000Y-130837000D01*
G75*
G02*
X60165000Y-130737000I0J100000D01*
G01*
X60165000Y-129462000D01*
G75*
G02*
X60265000Y-129362000I100000J0D01*
G01*
G37*
%TD.AperFunction*%
%TO.P,U4,11*%
%TO.N,GND*%
%TA.AperFunction,SMDPad,CuDef*%
G36*
G01*
X60915000Y-129362000D02*
X61115000Y-129362000D01*
G75*
G02*
X61215000Y-129462000I0J-100000D01*
G01*
X61215000Y-130737000D01*
G75*
G02*
X61115000Y-130837000I-100000J0D01*
G01*
X60915000Y-130837000D01*
G75*
G02*
X60815000Y-130737000I0J100000D01*
G01*
X60815000Y-129462000D01*
G75*
G02*
X60915000Y-129362000I100000J0D01*
G01*
G37*
%TD.AperFunction*%
%TO.P,U4,10*%
%TO.N,+3V3*%
%TA.AperFunction,SMDPad,CuDef*%
G36*
G01*
X60915000Y-123637000D02*
X61115000Y-123637000D01*
G75*
G02*
X61215000Y-123737000I0J-100000D01*
G01*
X61215000Y-125012000D01*
G75*
G02*
X61115000Y-125112000I-100000J0D01*
G01*
X60915000Y-125112000D01*
G75*
G02*
X60815000Y-125012000I0J100000D01*
G01*
X60815000Y-123737000D01*
G75*
G02*
X60915000Y-123637000I100000J0D01*
G01*
G37*
%TD.AperFunction*%
%TO.P,U4,9*%
%TO.N,D15*%
%TA.AperFunction,SMDPad,CuDef*%
G36*
G01*
X60265000Y-123637000D02*
X60465000Y-123637000D01*
G75*
G02*
X60565000Y-123737000I0J-100000D01*
G01*
X60565000Y-125012000D01*
G75*
G02*
X60465000Y-125112000I-100000J0D01*
G01*
X60265000Y-125112000D01*
G75*
G02*
X60165000Y-125012000I0J100000D01*
G01*
X60165000Y-123737000D01*
G75*
G02*
X60265000Y-123637000I100000J0D01*
G01*
G37*
%TD.AperFunction*%
%TO.P,U4,8*%
%TO.N,D14*%
%TA.AperFunction,SMDPad,CuDef*%
G36*
G01*
X59615000Y-123637000D02*
X59815000Y-123637000D01*
G75*
G02*
X59915000Y-123737000I0J-100000D01*
G01*
X59915000Y-125012000D01*
G75*
G02*
X59815000Y-125112000I-100000J0D01*
G01*
X59615000Y-125112000D01*
G75*
G02*
X59515000Y-125012000I0J100000D01*
G01*
X59515000Y-123737000D01*
G75*
G02*
X59615000Y-123637000I100000J0D01*
G01*
G37*
%TD.AperFunction*%
%TO.P,U4,7*%
%TO.N,D13*%
%TA.AperFunction,SMDPad,CuDef*%
G36*
G01*
X58965000Y-123637000D02*
X59165000Y-123637000D01*
G75*
G02*
X59265000Y-123737000I0J-100000D01*
G01*
X59265000Y-125012000D01*
G75*
G02*
X59165000Y-125112000I-100000J0D01*
G01*
X58965000Y-125112000D01*
G75*
G02*
X58865000Y-125012000I0J100000D01*
G01*
X58865000Y-123737000D01*
G75*
G02*
X58965000Y-123637000I100000J0D01*
G01*
G37*
%TD.AperFunction*%
%TO.P,U4,6*%
%TO.N,D12*%
%TA.AperFunction,SMDPad,CuDef*%
G36*
G01*
X58315000Y-123637000D02*
X58515000Y-123637000D01*
G75*
G02*
X58615000Y-123737000I0J-100000D01*
G01*
X58615000Y-125012000D01*
G75*
G02*
X58515000Y-125112000I-100000J0D01*
G01*
X58315000Y-125112000D01*
G75*
G02*
X58215000Y-125012000I0J100000D01*
G01*
X58215000Y-123737000D01*
G75*
G02*
X58315000Y-123637000I100000J0D01*
G01*
G37*
%TD.AperFunction*%
%TO.P,U4,5*%
%TO.N,D11*%
%TA.AperFunction,SMDPad,CuDef*%
G36*
G01*
X57665000Y-123637000D02*
X57865000Y-123637000D01*
G75*
G02*
X57965000Y-123737000I0J-100000D01*
G01*
X57965000Y-125012000D01*
G75*
G02*
X57865000Y-125112000I-100000J0D01*
G01*
X57665000Y-125112000D01*
G75*
G02*
X57565000Y-125012000I0J100000D01*
G01*
X57565000Y-123737000D01*
G75*
G02*
X57665000Y-123637000I100000J0D01*
G01*
G37*
%TD.AperFunction*%
%TO.P,U4,4*%
%TO.N,D10*%
%TA.AperFunction,SMDPad,CuDef*%
G36*
G01*
X57015000Y-123637000D02*
X57215000Y-123637000D01*
G75*
G02*
X57315000Y-123737000I0J-100000D01*
G01*
X57315000Y-125012000D01*
G75*
G02*
X57215000Y-125112000I-100000J0D01*
G01*
X57015000Y-125112000D01*
G75*
G02*
X56915000Y-125012000I0J100000D01*
G01*
X56915000Y-123737000D01*
G75*
G02*
X57015000Y-123637000I100000J0D01*
G01*
G37*
%TD.AperFunction*%
%TO.P,U4,3*%
%TO.N,D9*%
%TA.AperFunction,SMDPad,CuDef*%
G36*
G01*
X56365000Y-123637000D02*
X56565000Y-123637000D01*
G75*
G02*
X56665000Y-123737000I0J-100000D01*
G01*
X56665000Y-125012000D01*
G75*
G02*
X56565000Y-125112000I-100000J0D01*
G01*
X56365000Y-125112000D01*
G75*
G02*
X56265000Y-125012000I0J100000D01*
G01*
X56265000Y-123737000D01*
G75*
G02*
X56365000Y-123637000I100000J0D01*
G01*
G37*
%TD.AperFunction*%
%TO.P,U4,2*%
%TO.N,+3V3*%
%TA.AperFunction,SMDPad,CuDef*%
G36*
G01*
X55715000Y-123637000D02*
X55915000Y-123637000D01*
G75*
G02*
X56015000Y-123737000I0J-100000D01*
G01*
X56015000Y-125012000D01*
G75*
G02*
X55915000Y-125112000I-100000J0D01*
G01*
X55715000Y-125112000D01*
G75*
G02*
X55615000Y-125012000I0J100000D01*
G01*
X55615000Y-123737000D01*
G75*
G02*
X55715000Y-123637000I100000J0D01*
G01*
G37*
%TD.AperFunction*%
%TO.P,U4,1*%
%TO.N,D8*%
%TA.AperFunction,SMDPad,CuDef*%
G36*
G01*
X55065000Y-123637000D02*
X55265000Y-123637000D01*
G75*
G02*
X55365000Y-123737000I0J-100000D01*
G01*
X55365000Y-125012000D01*
G75*
G02*
X55265000Y-125112000I-100000J0D01*
G01*
X55065000Y-125112000D01*
G75*
G02*
X54965000Y-125012000I0J100000D01*
G01*
X54965000Y-123737000D01*
G75*
G02*
X55065000Y-123637000I100000J0D01*
G01*
G37*
%TD.AperFunction*%
%TD*%
%TO.P,U5,20*%
%TO.N,WIRE5_8*%
%TA.AperFunction,SMDPad,CuDef*%
G36*
G01*
X88266400Y-129743000D02*
X88466400Y-129743000D01*
G75*
G02*
X88566400Y-129843000I0J-100000D01*
G01*
X88566400Y-131118000D01*
G75*
G02*
X88466400Y-131218000I-100000J0D01*
G01*
X88266400Y-131218000D01*
G75*
G02*
X88166400Y-131118000I0J100000D01*
G01*
X88166400Y-129843000D01*
G75*
G02*
X88266400Y-129743000I100000J0D01*
G01*
G37*
%TD.AperFunction*%
%TO.P,U5,19*%
%TO.N,+5V*%
%TA.AperFunction,SMDPad,CuDef*%
G36*
G01*
X88916400Y-129743000D02*
X89116400Y-129743000D01*
G75*
G02*
X89216400Y-129843000I0J-100000D01*
G01*
X89216400Y-131118000D01*
G75*
G02*
X89116400Y-131218000I-100000J0D01*
G01*
X88916400Y-131218000D01*
G75*
G02*
X88816400Y-131118000I0J100000D01*
G01*
X88816400Y-129843000D01*
G75*
G02*
X88916400Y-129743000I100000J0D01*
G01*
G37*
%TD.AperFunction*%
%TO.P,U5,18*%
%TO.N,WIRE5_7*%
%TA.AperFunction,SMDPad,CuDef*%
G36*
G01*
X89566400Y-129743000D02*
X89766400Y-129743000D01*
G75*
G02*
X89866400Y-129843000I0J-100000D01*
G01*
X89866400Y-131118000D01*
G75*
G02*
X89766400Y-131218000I-100000J0D01*
G01*
X89566400Y-131218000D01*
G75*
G02*
X89466400Y-131118000I0J100000D01*
G01*
X89466400Y-129843000D01*
G75*
G02*
X89566400Y-129743000I100000J0D01*
G01*
G37*
%TD.AperFunction*%
%TO.P,U5,17*%
%TO.N,WIRE5_6*%
%TA.AperFunction,SMDPad,CuDef*%
G36*
G01*
X90216400Y-129743000D02*
X90416400Y-129743000D01*
G75*
G02*
X90516400Y-129843000I0J-100000D01*
G01*
X90516400Y-131118000D01*
G75*
G02*
X90416400Y-131218000I-100000J0D01*
G01*
X90216400Y-131218000D01*
G75*
G02*
X90116400Y-131118000I0J100000D01*
G01*
X90116400Y-129843000D01*
G75*
G02*
X90216400Y-129743000I100000J0D01*
G01*
G37*
%TD.AperFunction*%
%TO.P,U5,16*%
%TO.N,WIRE5_5*%
%TA.AperFunction,SMDPad,CuDef*%
G36*
G01*
X90866400Y-129743000D02*
X91066400Y-129743000D01*
G75*
G02*
X91166400Y-129843000I0J-100000D01*
G01*
X91166400Y-131118000D01*
G75*
G02*
X91066400Y-131218000I-100000J0D01*
G01*
X90866400Y-131218000D01*
G75*
G02*
X90766400Y-131118000I0J100000D01*
G01*
X90766400Y-129843000D01*
G75*
G02*
X90866400Y-129743000I100000J0D01*
G01*
G37*
%TD.AperFunction*%
%TO.P,U5,15*%
%TO.N,WIRE5_4*%
%TA.AperFunction,SMDPad,CuDef*%
G36*
G01*
X91516400Y-129743000D02*
X91716400Y-129743000D01*
G75*
G02*
X91816400Y-129843000I0J-100000D01*
G01*
X91816400Y-131118000D01*
G75*
G02*
X91716400Y-131218000I-100000J0D01*
G01*
X91516400Y-131218000D01*
G75*
G02*
X91416400Y-131118000I0J100000D01*
G01*
X91416400Y-129843000D01*
G75*
G02*
X91516400Y-129743000I100000J0D01*
G01*
G37*
%TD.AperFunction*%
%TO.P,U5,14*%
%TO.N,WIRE5_3*%
%TA.AperFunction,SMDPad,CuDef*%
G36*
G01*
X92166400Y-129743000D02*
X92366400Y-129743000D01*
G75*
G02*
X92466400Y-129843000I0J-100000D01*
G01*
X92466400Y-131118000D01*
G75*
G02*
X92366400Y-131218000I-100000J0D01*
G01*
X92166400Y-131218000D01*
G75*
G02*
X92066400Y-131118000I0J100000D01*
G01*
X92066400Y-129843000D01*
G75*
G02*
X92166400Y-129743000I100000J0D01*
G01*
G37*
%TD.AperFunction*%
%TO.P,U5,13*%
%TO.N,WIRE5_2*%
%TA.AperFunction,SMDPad,CuDef*%
G36*
G01*
X92816400Y-129743000D02*
X93016400Y-129743000D01*
G75*
G02*
X93116400Y-129843000I0J-100000D01*
G01*
X93116400Y-131118000D01*
G75*
G02*
X93016400Y-131218000I-100000J0D01*
G01*
X92816400Y-131218000D01*
G75*
G02*
X92716400Y-131118000I0J100000D01*
G01*
X92716400Y-129843000D01*
G75*
G02*
X92816400Y-129743000I100000J0D01*
G01*
G37*
%TD.AperFunction*%
%TO.P,U5,12*%
%TO.N,WIRE5_1*%
%TA.AperFunction,SMDPad,CuDef*%
G36*
G01*
X93466400Y-129743000D02*
X93666400Y-129743000D01*
G75*
G02*
X93766400Y-129843000I0J-100000D01*
G01*
X93766400Y-131118000D01*
G75*
G02*
X93666400Y-131218000I-100000J0D01*
G01*
X93466400Y-131218000D01*
G75*
G02*
X93366400Y-131118000I0J100000D01*
G01*
X93366400Y-129843000D01*
G75*
G02*
X93466400Y-129743000I100000J0D01*
G01*
G37*
%TD.AperFunction*%
%TO.P,U5,11*%
%TO.N,GND*%
%TA.AperFunction,SMDPad,CuDef*%
G36*
G01*
X94116400Y-129743000D02*
X94316400Y-129743000D01*
G75*
G02*
X94416400Y-129843000I0J-100000D01*
G01*
X94416400Y-131118000D01*
G75*
G02*
X94316400Y-131218000I-100000J0D01*
G01*
X94116400Y-131218000D01*
G75*
G02*
X94016400Y-131118000I0J100000D01*
G01*
X94016400Y-129843000D01*
G75*
G02*
X94116400Y-129743000I100000J0D01*
G01*
G37*
%TD.AperFunction*%
%TO.P,U5,10*%
%TO.N,+3V3*%
%TA.AperFunction,SMDPad,CuDef*%
G36*
G01*
X94116400Y-124018000D02*
X94316400Y-124018000D01*
G75*
G02*
X94416400Y-124118000I0J-100000D01*
G01*
X94416400Y-125393000D01*
G75*
G02*
X94316400Y-125493000I-100000J0D01*
G01*
X94116400Y-125493000D01*
G75*
G02*
X94016400Y-125393000I0J100000D01*
G01*
X94016400Y-124118000D01*
G75*
G02*
X94116400Y-124018000I100000J0D01*
G01*
G37*
%TD.AperFunction*%
%TO.P,U5,9*%
%TO.N,A9*%
%TA.AperFunction,SMDPad,CuDef*%
G36*
G01*
X93466400Y-124018000D02*
X93666400Y-124018000D01*
G75*
G02*
X93766400Y-124118000I0J-100000D01*
G01*
X93766400Y-125393000D01*
G75*
G02*
X93666400Y-125493000I-100000J0D01*
G01*
X93466400Y-125493000D01*
G75*
G02*
X93366400Y-125393000I0J100000D01*
G01*
X93366400Y-124118000D01*
G75*
G02*
X93466400Y-124018000I100000J0D01*
G01*
G37*
%TD.AperFunction*%
%TO.P,U5,8*%
%TO.N,A8*%
%TA.AperFunction,SMDPad,CuDef*%
G36*
G01*
X92816400Y-124018000D02*
X93016400Y-124018000D01*
G75*
G02*
X93116400Y-124118000I0J-100000D01*
G01*
X93116400Y-125393000D01*
G75*
G02*
X93016400Y-125493000I-100000J0D01*
G01*
X92816400Y-125493000D01*
G75*
G02*
X92716400Y-125393000I0J100000D01*
G01*
X92716400Y-124118000D01*
G75*
G02*
X92816400Y-124018000I100000J0D01*
G01*
G37*
%TD.AperFunction*%
%TO.P,U5,7*%
%TO.N,A7*%
%TA.AperFunction,SMDPad,CuDef*%
G36*
G01*
X92166400Y-124018000D02*
X92366400Y-124018000D01*
G75*
G02*
X92466400Y-124118000I0J-100000D01*
G01*
X92466400Y-125393000D01*
G75*
G02*
X92366400Y-125493000I-100000J0D01*
G01*
X92166400Y-125493000D01*
G75*
G02*
X92066400Y-125393000I0J100000D01*
G01*
X92066400Y-124118000D01*
G75*
G02*
X92166400Y-124018000I100000J0D01*
G01*
G37*
%TD.AperFunction*%
%TO.P,U5,6*%
%TO.N,A6*%
%TA.AperFunction,SMDPad,CuDef*%
G36*
G01*
X91516400Y-124018000D02*
X91716400Y-124018000D01*
G75*
G02*
X91816400Y-124118000I0J-100000D01*
G01*
X91816400Y-125393000D01*
G75*
G02*
X91716400Y-125493000I-100000J0D01*
G01*
X91516400Y-125493000D01*
G75*
G02*
X91416400Y-125393000I0J100000D01*
G01*
X91416400Y-124118000D01*
G75*
G02*
X91516400Y-124018000I100000J0D01*
G01*
G37*
%TD.AperFunction*%
%TO.P,U5,5*%
%TO.N,A5*%
%TA.AperFunction,SMDPad,CuDef*%
G36*
G01*
X90866400Y-124018000D02*
X91066400Y-124018000D01*
G75*
G02*
X91166400Y-124118000I0J-100000D01*
G01*
X91166400Y-125393000D01*
G75*
G02*
X91066400Y-125493000I-100000J0D01*
G01*
X90866400Y-125493000D01*
G75*
G02*
X90766400Y-125393000I0J100000D01*
G01*
X90766400Y-124118000D01*
G75*
G02*
X90866400Y-124018000I100000J0D01*
G01*
G37*
%TD.AperFunction*%
%TO.P,U5,4*%
%TO.N,A4*%
%TA.AperFunction,SMDPad,CuDef*%
G36*
G01*
X90216400Y-124018000D02*
X90416400Y-124018000D01*
G75*
G02*
X90516400Y-124118000I0J-100000D01*
G01*
X90516400Y-125393000D01*
G75*
G02*
X90416400Y-125493000I-100000J0D01*
G01*
X90216400Y-125493000D01*
G75*
G02*
X90116400Y-125393000I0J100000D01*
G01*
X90116400Y-124118000D01*
G75*
G02*
X90216400Y-124018000I100000J0D01*
G01*
G37*
%TD.AperFunction*%
%TO.P,U5,3*%
%TO.N,A3*%
%TA.AperFunction,SMDPad,CuDef*%
G36*
G01*
X89566400Y-124018000D02*
X89766400Y-124018000D01*
G75*
G02*
X89866400Y-124118000I0J-100000D01*
G01*
X89866400Y-125393000D01*
G75*
G02*
X89766400Y-125493000I-100000J0D01*
G01*
X89566400Y-125493000D01*
G75*
G02*
X89466400Y-125393000I0J100000D01*
G01*
X89466400Y-124118000D01*
G75*
G02*
X89566400Y-124018000I100000J0D01*
G01*
G37*
%TD.AperFunction*%
%TO.P,U5,2*%
%TO.N,+3V3*%
%TA.AperFunction,SMDPad,CuDef*%
G36*
G01*
X88916400Y-124018000D02*
X89116400Y-124018000D01*
G75*
G02*
X89216400Y-124118000I0J-100000D01*
G01*
X89216400Y-125393000D01*
G75*
G02*
X89116400Y-125493000I-100000J0D01*
G01*
X88916400Y-125493000D01*
G75*
G02*
X88816400Y-125393000I0J100000D01*
G01*
X88816400Y-124118000D01*
G75*
G02*
X88916400Y-124018000I100000J0D01*
G01*
G37*
%TD.AperFunction*%
%TO.P,U5,1*%
%TO.N,A2*%
%TA.AperFunction,SMDPad,CuDef*%
G36*
G01*
X88266400Y-124018000D02*
X88466400Y-124018000D01*
G75*
G02*
X88566400Y-124118000I0J-100000D01*
G01*
X88566400Y-125393000D01*
G75*
G02*
X88466400Y-125493000I-100000J0D01*
G01*
X88266400Y-125493000D01*
G75*
G02*
X88166400Y-125393000I0J100000D01*
G01*
X88166400Y-124118000D01*
G75*
G02*
X88266400Y-124018000I100000J0D01*
G01*
G37*
%TD.AperFunction*%
%TD*%
%TO.P,U6,20*%
%TO.N,WIRE6_3*%
%TA.AperFunction,SMDPad,CuDef*%
G36*
G01*
X99334000Y-129743000D02*
X99534000Y-129743000D01*
G75*
G02*
X99634000Y-129843000I0J-100000D01*
G01*
X99634000Y-131118000D01*
G75*
G02*
X99534000Y-131218000I-100000J0D01*
G01*
X99334000Y-131218000D01*
G75*
G02*
X99234000Y-131118000I0J100000D01*
G01*
X99234000Y-129843000D01*
G75*
G02*
X99334000Y-129743000I100000J0D01*
G01*
G37*
%TD.AperFunction*%
%TO.P,U6,19*%
%TO.N,+5V*%
%TA.AperFunction,SMDPad,CuDef*%
G36*
G01*
X99984000Y-129743000D02*
X100184000Y-129743000D01*
G75*
G02*
X100284000Y-129843000I0J-100000D01*
G01*
X100284000Y-131118000D01*
G75*
G02*
X100184000Y-131218000I-100000J0D01*
G01*
X99984000Y-131218000D01*
G75*
G02*
X99884000Y-131118000I0J100000D01*
G01*
X99884000Y-129843000D01*
G75*
G02*
X99984000Y-129743000I100000J0D01*
G01*
G37*
%TD.AperFunction*%
%TO.P,U6,18*%
%TO.N,WIRE6_2*%
%TA.AperFunction,SMDPad,CuDef*%
G36*
G01*
X100634000Y-129743000D02*
X100834000Y-129743000D01*
G75*
G02*
X100934000Y-129843000I0J-100000D01*
G01*
X100934000Y-131118000D01*
G75*
G02*
X100834000Y-131218000I-100000J0D01*
G01*
X100634000Y-131218000D01*
G75*
G02*
X100534000Y-131118000I0J100000D01*
G01*
X100534000Y-129843000D01*
G75*
G02*
X100634000Y-129743000I100000J0D01*
G01*
G37*
%TD.AperFunction*%
%TO.P,U6,17*%
%TO.N,WIRE6_1*%
%TA.AperFunction,SMDPad,CuDef*%
G36*
G01*
X101284000Y-129743000D02*
X101484000Y-129743000D01*
G75*
G02*
X101584000Y-129843000I0J-100000D01*
G01*
X101584000Y-131118000D01*
G75*
G02*
X101484000Y-131218000I-100000J0D01*
G01*
X101284000Y-131218000D01*
G75*
G02*
X101184000Y-131118000I0J100000D01*
G01*
X101184000Y-129843000D01*
G75*
G02*
X101284000Y-129743000I100000J0D01*
G01*
G37*
%TD.AperFunction*%
%TO.P,U6,16*%
%TO.N,Net-(U6-Pad16)*%
%TA.AperFunction,SMDPad,CuDef*%
G36*
G01*
X101934000Y-129743000D02*
X102134000Y-129743000D01*
G75*
G02*
X102234000Y-129843000I0J-100000D01*
G01*
X102234000Y-131118000D01*
G75*
G02*
X102134000Y-131218000I-100000J0D01*
G01*
X101934000Y-131218000D01*
G75*
G02*
X101834000Y-131118000I0J100000D01*
G01*
X101834000Y-129843000D01*
G75*
G02*
X101934000Y-129743000I100000J0D01*
G01*
G37*
%TD.AperFunction*%
%TO.P,U6,15*%
%TO.N,Net-(U6-Pad15)*%
%TA.AperFunction,SMDPad,CuDef*%
G36*
G01*
X102584000Y-129743000D02*
X102784000Y-129743000D01*
G75*
G02*
X102884000Y-129843000I0J-100000D01*
G01*
X102884000Y-131118000D01*
G75*
G02*
X102784000Y-131218000I-100000J0D01*
G01*
X102584000Y-131218000D01*
G75*
G02*
X102484000Y-131118000I0J100000D01*
G01*
X102484000Y-129843000D01*
G75*
G02*
X102584000Y-129743000I100000J0D01*
G01*
G37*
%TD.AperFunction*%
%TO.P,U6,14*%
%TO.N,Net-(U6-Pad14)*%
%TA.AperFunction,SMDPad,CuDef*%
G36*
G01*
X103234000Y-129743000D02*
X103434000Y-129743000D01*
G75*
G02*
X103534000Y-129843000I0J-100000D01*
G01*
X103534000Y-131118000D01*
G75*
G02*
X103434000Y-131218000I-100000J0D01*
G01*
X103234000Y-131218000D01*
G75*
G02*
X103134000Y-131118000I0J100000D01*
G01*
X103134000Y-129843000D01*
G75*
G02*
X103234000Y-129743000I100000J0D01*
G01*
G37*
%TD.AperFunction*%
%TO.P,U6,13*%
%TO.N,Net-(U6-Pad13)*%
%TA.AperFunction,SMDPad,CuDef*%
G36*
G01*
X103884000Y-129743000D02*
X104084000Y-129743000D01*
G75*
G02*
X104184000Y-129843000I0J-100000D01*
G01*
X104184000Y-131118000D01*
G75*
G02*
X104084000Y-131218000I-100000J0D01*
G01*
X103884000Y-131218000D01*
G75*
G02*
X103784000Y-131118000I0J100000D01*
G01*
X103784000Y-129843000D01*
G75*
G02*
X103884000Y-129743000I100000J0D01*
G01*
G37*
%TD.AperFunction*%
%TO.P,U6,12*%
%TO.N,Net-(U6-Pad12)*%
%TA.AperFunction,SMDPad,CuDef*%
G36*
G01*
X104534000Y-129743000D02*
X104734000Y-129743000D01*
G75*
G02*
X104834000Y-129843000I0J-100000D01*
G01*
X104834000Y-131118000D01*
G75*
G02*
X104734000Y-131218000I-100000J0D01*
G01*
X104534000Y-131218000D01*
G75*
G02*
X104434000Y-131118000I0J100000D01*
G01*
X104434000Y-129843000D01*
G75*
G02*
X104534000Y-129743000I100000J0D01*
G01*
G37*
%TD.AperFunction*%
%TO.P,U6,11*%
%TO.N,GND*%
%TA.AperFunction,SMDPad,CuDef*%
G36*
G01*
X105184000Y-129743000D02*
X105384000Y-129743000D01*
G75*
G02*
X105484000Y-129843000I0J-100000D01*
G01*
X105484000Y-131118000D01*
G75*
G02*
X105384000Y-131218000I-100000J0D01*
G01*
X105184000Y-131218000D01*
G75*
G02*
X105084000Y-131118000I0J100000D01*
G01*
X105084000Y-129843000D01*
G75*
G02*
X105184000Y-129743000I100000J0D01*
G01*
G37*
%TD.AperFunction*%
%TO.P,U6,10*%
%TO.N,+3V3*%
%TA.AperFunction,SMDPad,CuDef*%
G36*
G01*
X105184000Y-124018000D02*
X105384000Y-124018000D01*
G75*
G02*
X105484000Y-124118000I0J-100000D01*
G01*
X105484000Y-125393000D01*
G75*
G02*
X105384000Y-125493000I-100000J0D01*
G01*
X105184000Y-125493000D01*
G75*
G02*
X105084000Y-125393000I0J100000D01*
G01*
X105084000Y-124118000D01*
G75*
G02*
X105184000Y-124018000I100000J0D01*
G01*
G37*
%TD.AperFunction*%
%TO.P,U6,9*%
%TO.N,Net-(U6-Pad9)*%
%TA.AperFunction,SMDPad,CuDef*%
G36*
G01*
X104534000Y-124018000D02*
X104734000Y-124018000D01*
G75*
G02*
X104834000Y-124118000I0J-100000D01*
G01*
X104834000Y-125393000D01*
G75*
G02*
X104734000Y-125493000I-100000J0D01*
G01*
X104534000Y-125493000D01*
G75*
G02*
X104434000Y-125393000I0J100000D01*
G01*
X104434000Y-124118000D01*
G75*
G02*
X104534000Y-124018000I100000J0D01*
G01*
G37*
%TD.AperFunction*%
%TO.P,U6,8*%
%TO.N,Net-(U6-Pad8)*%
%TA.AperFunction,SMDPad,CuDef*%
G36*
G01*
X103884000Y-124018000D02*
X104084000Y-124018000D01*
G75*
G02*
X104184000Y-124118000I0J-100000D01*
G01*
X104184000Y-125393000D01*
G75*
G02*
X104084000Y-125493000I-100000J0D01*
G01*
X103884000Y-125493000D01*
G75*
G02*
X103784000Y-125393000I0J100000D01*
G01*
X103784000Y-124118000D01*
G75*
G02*
X103884000Y-124018000I100000J0D01*
G01*
G37*
%TD.AperFunction*%
%TO.P,U6,7*%
%TO.N,Net-(U6-Pad7)*%
%TA.AperFunction,SMDPad,CuDef*%
G36*
G01*
X103234000Y-124018000D02*
X103434000Y-124018000D01*
G75*
G02*
X103534000Y-124118000I0J-100000D01*
G01*
X103534000Y-125393000D01*
G75*
G02*
X103434000Y-125493000I-100000J0D01*
G01*
X103234000Y-125493000D01*
G75*
G02*
X103134000Y-125393000I0J100000D01*
G01*
X103134000Y-124118000D01*
G75*
G02*
X103234000Y-124018000I100000J0D01*
G01*
G37*
%TD.AperFunction*%
%TO.P,U6,6*%
%TO.N,Net-(U6-Pad6)*%
%TA.AperFunction,SMDPad,CuDef*%
G36*
G01*
X102584000Y-124018000D02*
X102784000Y-124018000D01*
G75*
G02*
X102884000Y-124118000I0J-100000D01*
G01*
X102884000Y-125393000D01*
G75*
G02*
X102784000Y-125493000I-100000J0D01*
G01*
X102584000Y-125493000D01*
G75*
G02*
X102484000Y-125393000I0J100000D01*
G01*
X102484000Y-124118000D01*
G75*
G02*
X102584000Y-124018000I100000J0D01*
G01*
G37*
%TD.AperFunction*%
%TO.P,U6,5*%
%TO.N,Net-(U6-Pad5)*%
%TA.AperFunction,SMDPad,CuDef*%
G36*
G01*
X101934000Y-124018000D02*
X102134000Y-124018000D01*
G75*
G02*
X102234000Y-124118000I0J-100000D01*
G01*
X102234000Y-125393000D01*
G75*
G02*
X102134000Y-125493000I-100000J0D01*
G01*
X101934000Y-125493000D01*
G75*
G02*
X101834000Y-125393000I0J100000D01*
G01*
X101834000Y-124118000D01*
G75*
G02*
X101934000Y-124018000I100000J0D01*
G01*
G37*
%TD.AperFunction*%
%TO.P,U6,4*%
%TO.N,A17*%
%TA.AperFunction,SMDPad,CuDef*%
G36*
G01*
X101284000Y-124018000D02*
X101484000Y-124018000D01*
G75*
G02*
X101584000Y-124118000I0J-100000D01*
G01*
X101584000Y-125393000D01*
G75*
G02*
X101484000Y-125493000I-100000J0D01*
G01*
X101284000Y-125493000D01*
G75*
G02*
X101184000Y-125393000I0J100000D01*
G01*
X101184000Y-124118000D01*
G75*
G02*
X101284000Y-124018000I100000J0D01*
G01*
G37*
%TD.AperFunction*%
%TO.P,U6,3*%
%TO.N,UDS*%
%TA.AperFunction,SMDPad,CuDef*%
G36*
G01*
X100634000Y-124018000D02*
X100834000Y-124018000D01*
G75*
G02*
X100934000Y-124118000I0J-100000D01*
G01*
X100934000Y-125393000D01*
G75*
G02*
X100834000Y-125493000I-100000J0D01*
G01*
X100634000Y-125493000D01*
G75*
G02*
X100534000Y-125393000I0J100000D01*
G01*
X100534000Y-124118000D01*
G75*
G02*
X100634000Y-124018000I100000J0D01*
G01*
G37*
%TD.AperFunction*%
%TO.P,U6,2*%
%TO.N,+3V3*%
%TA.AperFunction,SMDPad,CuDef*%
G36*
G01*
X99984000Y-124018000D02*
X100184000Y-124018000D01*
G75*
G02*
X100284000Y-124118000I0J-100000D01*
G01*
X100284000Y-125393000D01*
G75*
G02*
X100184000Y-125493000I-100000J0D01*
G01*
X99984000Y-125493000D01*
G75*
G02*
X99884000Y-125393000I0J100000D01*
G01*
X99884000Y-124118000D01*
G75*
G02*
X99984000Y-124018000I100000J0D01*
G01*
G37*
%TD.AperFunction*%
%TO.P,U6,1*%
%TO.N,LDS*%
%TA.AperFunction,SMDPad,CuDef*%
G36*
G01*
X99334000Y-124018000D02*
X99534000Y-124018000D01*
G75*
G02*
X99634000Y-124118000I0J-100000D01*
G01*
X99634000Y-125393000D01*
G75*
G02*
X99534000Y-125493000I-100000J0D01*
G01*
X99334000Y-125493000D01*
G75*
G02*
X99234000Y-125393000I0J100000D01*
G01*
X99234000Y-124118000D01*
G75*
G02*
X99334000Y-124018000I100000J0D01*
G01*
G37*
%TD.AperFunction*%
%TD*%
%TO.P,U7,20*%
%TO.N,WIRE7_8*%
%TA.AperFunction,SMDPad,CuDef*%
G36*
G01*
X132535000Y-129743000D02*
X132735000Y-129743000D01*
G75*
G02*
X132835000Y-129843000I0J-100000D01*
G01*
X132835000Y-131118000D01*
G75*
G02*
X132735000Y-131218000I-100000J0D01*
G01*
X132535000Y-131218000D01*
G75*
G02*
X132435000Y-131118000I0J100000D01*
G01*
X132435000Y-129843000D01*
G75*
G02*
X132535000Y-129743000I100000J0D01*
G01*
G37*
%TD.AperFunction*%
%TO.P,U7,19*%
%TO.N,+5V*%
%TA.AperFunction,SMDPad,CuDef*%
G36*
G01*
X133185000Y-129743000D02*
X133385000Y-129743000D01*
G75*
G02*
X133485000Y-129843000I0J-100000D01*
G01*
X133485000Y-131118000D01*
G75*
G02*
X133385000Y-131218000I-100000J0D01*
G01*
X133185000Y-131218000D01*
G75*
G02*
X133085000Y-131118000I0J100000D01*
G01*
X133085000Y-129843000D01*
G75*
G02*
X133185000Y-129743000I100000J0D01*
G01*
G37*
%TD.AperFunction*%
%TO.P,U7,18*%
%TO.N,WIRE7_7*%
%TA.AperFunction,SMDPad,CuDef*%
G36*
G01*
X133835000Y-129743000D02*
X134035000Y-129743000D01*
G75*
G02*
X134135000Y-129843000I0J-100000D01*
G01*
X134135000Y-131118000D01*
G75*
G02*
X134035000Y-131218000I-100000J0D01*
G01*
X133835000Y-131218000D01*
G75*
G02*
X133735000Y-131118000I0J100000D01*
G01*
X133735000Y-129843000D01*
G75*
G02*
X133835000Y-129743000I100000J0D01*
G01*
G37*
%TD.AperFunction*%
%TO.P,U7,17*%
%TO.N,WIRE7_6*%
%TA.AperFunction,SMDPad,CuDef*%
G36*
G01*
X134485000Y-129743000D02*
X134685000Y-129743000D01*
G75*
G02*
X134785000Y-129843000I0J-100000D01*
G01*
X134785000Y-131118000D01*
G75*
G02*
X134685000Y-131218000I-100000J0D01*
G01*
X134485000Y-131218000D01*
G75*
G02*
X134385000Y-131118000I0J100000D01*
G01*
X134385000Y-129843000D01*
G75*
G02*
X134485000Y-129743000I100000J0D01*
G01*
G37*
%TD.AperFunction*%
%TO.P,U7,16*%
%TO.N,WIRE7_5*%
%TA.AperFunction,SMDPad,CuDef*%
G36*
G01*
X135135000Y-129743000D02*
X135335000Y-129743000D01*
G75*
G02*
X135435000Y-129843000I0J-100000D01*
G01*
X135435000Y-131118000D01*
G75*
G02*
X135335000Y-131218000I-100000J0D01*
G01*
X135135000Y-131218000D01*
G75*
G02*
X135035000Y-131118000I0J100000D01*
G01*
X135035000Y-129843000D01*
G75*
G02*
X135135000Y-129743000I100000J0D01*
G01*
G37*
%TD.AperFunction*%
%TO.P,U7,15*%
%TO.N,WIRE7_4*%
%TA.AperFunction,SMDPad,CuDef*%
G36*
G01*
X135785000Y-129743000D02*
X135985000Y-129743000D01*
G75*
G02*
X136085000Y-129843000I0J-100000D01*
G01*
X136085000Y-131118000D01*
G75*
G02*
X135985000Y-131218000I-100000J0D01*
G01*
X135785000Y-131218000D01*
G75*
G02*
X135685000Y-131118000I0J100000D01*
G01*
X135685000Y-129843000D01*
G75*
G02*
X135785000Y-129743000I100000J0D01*
G01*
G37*
%TD.AperFunction*%
%TO.P,U7,14*%
%TO.N,WIRE7_3*%
%TA.AperFunction,SMDPad,CuDef*%
G36*
G01*
X136435000Y-129743000D02*
X136635000Y-129743000D01*
G75*
G02*
X136735000Y-129843000I0J-100000D01*
G01*
X136735000Y-131118000D01*
G75*
G02*
X136635000Y-131218000I-100000J0D01*
G01*
X136435000Y-131218000D01*
G75*
G02*
X136335000Y-131118000I0J100000D01*
G01*
X136335000Y-129843000D01*
G75*
G02*
X136435000Y-129743000I100000J0D01*
G01*
G37*
%TD.AperFunction*%
%TO.P,U7,13*%
%TO.N,WIRE7_2*%
%TA.AperFunction,SMDPad,CuDef*%
G36*
G01*
X137085000Y-129743000D02*
X137285000Y-129743000D01*
G75*
G02*
X137385000Y-129843000I0J-100000D01*
G01*
X137385000Y-131118000D01*
G75*
G02*
X137285000Y-131218000I-100000J0D01*
G01*
X137085000Y-131218000D01*
G75*
G02*
X136985000Y-131118000I0J100000D01*
G01*
X136985000Y-129843000D01*
G75*
G02*
X137085000Y-129743000I100000J0D01*
G01*
G37*
%TD.AperFunction*%
%TO.P,U7,12*%
%TO.N,WIRE7_1*%
%TA.AperFunction,SMDPad,CuDef*%
G36*
G01*
X137735000Y-129743000D02*
X137935000Y-129743000D01*
G75*
G02*
X138035000Y-129843000I0J-100000D01*
G01*
X138035000Y-131118000D01*
G75*
G02*
X137935000Y-131218000I-100000J0D01*
G01*
X137735000Y-131218000D01*
G75*
G02*
X137635000Y-131118000I0J100000D01*
G01*
X137635000Y-129843000D01*
G75*
G02*
X137735000Y-129743000I100000J0D01*
G01*
G37*
%TD.AperFunction*%
%TO.P,U7,11*%
%TO.N,GND*%
%TA.AperFunction,SMDPad,CuDef*%
G36*
G01*
X138385000Y-129743000D02*
X138585000Y-129743000D01*
G75*
G02*
X138685000Y-129843000I0J-100000D01*
G01*
X138685000Y-131118000D01*
G75*
G02*
X138585000Y-131218000I-100000J0D01*
G01*
X138385000Y-131218000D01*
G75*
G02*
X138285000Y-131118000I0J100000D01*
G01*
X138285000Y-129843000D01*
G75*
G02*
X138385000Y-129743000I100000J0D01*
G01*
G37*
%TD.AperFunction*%
%TO.P,U7,10*%
%TO.N,+3V3*%
%TA.AperFunction,SMDPad,CuDef*%
G36*
G01*
X138385000Y-124018000D02*
X138585000Y-124018000D01*
G75*
G02*
X138685000Y-124118000I0J-100000D01*
G01*
X138685000Y-125393000D01*
G75*
G02*
X138585000Y-125493000I-100000J0D01*
G01*
X138385000Y-125493000D01*
G75*
G02*
X138285000Y-125393000I0J100000D01*
G01*
X138285000Y-124118000D01*
G75*
G02*
X138385000Y-124018000I100000J0D01*
G01*
G37*
%TD.AperFunction*%
%TO.P,U7,9*%
%TO.N,AS*%
%TA.AperFunction,SMDPad,CuDef*%
G36*
G01*
X137735000Y-124018000D02*
X137935000Y-124018000D01*
G75*
G02*
X138035000Y-124118000I0J-100000D01*
G01*
X138035000Y-125393000D01*
G75*
G02*
X137935000Y-125493000I-100000J0D01*
G01*
X137735000Y-125493000D01*
G75*
G02*
X137635000Y-125393000I0J100000D01*
G01*
X137635000Y-124118000D01*
G75*
G02*
X137735000Y-124018000I100000J0D01*
G01*
G37*
%TD.AperFunction*%
%TO.P,U7,8*%
%TO.N,A16*%
%TA.AperFunction,SMDPad,CuDef*%
G36*
G01*
X137085000Y-124018000D02*
X137285000Y-124018000D01*
G75*
G02*
X137385000Y-124118000I0J-100000D01*
G01*
X137385000Y-125393000D01*
G75*
G02*
X137285000Y-125493000I-100000J0D01*
G01*
X137085000Y-125493000D01*
G75*
G02*
X136985000Y-125393000I0J100000D01*
G01*
X136985000Y-124118000D01*
G75*
G02*
X137085000Y-124018000I100000J0D01*
G01*
G37*
%TD.AperFunction*%
%TO.P,U7,7*%
%TO.N,A15*%
%TA.AperFunction,SMDPad,CuDef*%
G36*
G01*
X136435000Y-124018000D02*
X136635000Y-124018000D01*
G75*
G02*
X136735000Y-124118000I0J-100000D01*
G01*
X136735000Y-125393000D01*
G75*
G02*
X136635000Y-125493000I-100000J0D01*
G01*
X136435000Y-125493000D01*
G75*
G02*
X136335000Y-125393000I0J100000D01*
G01*
X136335000Y-124118000D01*
G75*
G02*
X136435000Y-124018000I100000J0D01*
G01*
G37*
%TD.AperFunction*%
%TO.P,U7,6*%
%TO.N,A14*%
%TA.AperFunction,SMDPad,CuDef*%
G36*
G01*
X135785000Y-124018000D02*
X135985000Y-124018000D01*
G75*
G02*
X136085000Y-124118000I0J-100000D01*
G01*
X136085000Y-125393000D01*
G75*
G02*
X135985000Y-125493000I-100000J0D01*
G01*
X135785000Y-125493000D01*
G75*
G02*
X135685000Y-125393000I0J100000D01*
G01*
X135685000Y-124118000D01*
G75*
G02*
X135785000Y-124018000I100000J0D01*
G01*
G37*
%TD.AperFunction*%
%TO.P,U7,5*%
%TO.N,A13*%
%TA.AperFunction,SMDPad,CuDef*%
G36*
G01*
X135135000Y-124018000D02*
X135335000Y-124018000D01*
G75*
G02*
X135435000Y-124118000I0J-100000D01*
G01*
X135435000Y-125393000D01*
G75*
G02*
X135335000Y-125493000I-100000J0D01*
G01*
X135135000Y-125493000D01*
G75*
G02*
X135035000Y-125393000I0J100000D01*
G01*
X135035000Y-124118000D01*
G75*
G02*
X135135000Y-124018000I100000J0D01*
G01*
G37*
%TD.AperFunction*%
%TO.P,U7,4*%
%TO.N,A12*%
%TA.AperFunction,SMDPad,CuDef*%
G36*
G01*
X134485000Y-124018000D02*
X134685000Y-124018000D01*
G75*
G02*
X134785000Y-124118000I0J-100000D01*
G01*
X134785000Y-125393000D01*
G75*
G02*
X134685000Y-125493000I-100000J0D01*
G01*
X134485000Y-125493000D01*
G75*
G02*
X134385000Y-125393000I0J100000D01*
G01*
X134385000Y-124118000D01*
G75*
G02*
X134485000Y-124018000I100000J0D01*
G01*
G37*
%TD.AperFunction*%
%TO.P,U7,3*%
%TO.N,A11*%
%TA.AperFunction,SMDPad,CuDef*%
G36*
G01*
X133835000Y-124018000D02*
X134035000Y-124018000D01*
G75*
G02*
X134135000Y-124118000I0J-100000D01*
G01*
X134135000Y-125393000D01*
G75*
G02*
X134035000Y-125493000I-100000J0D01*
G01*
X133835000Y-125493000D01*
G75*
G02*
X133735000Y-125393000I0J100000D01*
G01*
X133735000Y-124118000D01*
G75*
G02*
X133835000Y-124018000I100000J0D01*
G01*
G37*
%TD.AperFunction*%
%TO.P,U7,2*%
%TO.N,+3V3*%
%TA.AperFunction,SMDPad,CuDef*%
G36*
G01*
X133185000Y-124018000D02*
X133385000Y-124018000D01*
G75*
G02*
X133485000Y-124118000I0J-100000D01*
G01*
X133485000Y-125393000D01*
G75*
G02*
X133385000Y-125493000I-100000J0D01*
G01*
X133185000Y-125493000D01*
G75*
G02*
X133085000Y-125393000I0J100000D01*
G01*
X133085000Y-124118000D01*
G75*
G02*
X133185000Y-124018000I100000J0D01*
G01*
G37*
%TD.AperFunction*%
%TO.P,U7,1*%
%TO.N,A10*%
%TA.AperFunction,SMDPad,CuDef*%
G36*
G01*
X132535000Y-124018000D02*
X132735000Y-124018000D01*
G75*
G02*
X132835000Y-124118000I0J-100000D01*
G01*
X132835000Y-125393000D01*
G75*
G02*
X132735000Y-125493000I-100000J0D01*
G01*
X132535000Y-125493000D01*
G75*
G02*
X132435000Y-125393000I0J100000D01*
G01*
X132435000Y-124118000D01*
G75*
G02*
X132535000Y-124018000I100000J0D01*
G01*
G37*
%TD.AperFunction*%
%TD*%
%TO.P,U8,20*%
%TO.N,WIRE8_8*%
%TA.AperFunction,SMDPad,CuDef*%
G36*
G01*
X66132100Y-129489000D02*
X66332100Y-129489000D01*
G75*
G02*
X66432100Y-129589000I0J-100000D01*
G01*
X66432100Y-130864000D01*
G75*
G02*
X66332100Y-130964000I-100000J0D01*
G01*
X66132100Y-130964000D01*
G75*
G02*
X66032100Y-130864000I0J100000D01*
G01*
X66032100Y-129589000D01*
G75*
G02*
X66132100Y-129489000I100000J0D01*
G01*
G37*
%TD.AperFunction*%
%TO.P,U8,19*%
%TO.N,+5V*%
%TA.AperFunction,SMDPad,CuDef*%
G36*
G01*
X66782100Y-129489000D02*
X66982100Y-129489000D01*
G75*
G02*
X67082100Y-129589000I0J-100000D01*
G01*
X67082100Y-130864000D01*
G75*
G02*
X66982100Y-130964000I-100000J0D01*
G01*
X66782100Y-130964000D01*
G75*
G02*
X66682100Y-130864000I0J100000D01*
G01*
X66682100Y-129589000D01*
G75*
G02*
X66782100Y-129489000I100000J0D01*
G01*
G37*
%TD.AperFunction*%
%TO.P,U8,18*%
%TO.N,WIRE8_7*%
%TA.AperFunction,SMDPad,CuDef*%
G36*
G01*
X67432100Y-129489000D02*
X67632100Y-129489000D01*
G75*
G02*
X67732100Y-129589000I0J-100000D01*
G01*
X67732100Y-130864000D01*
G75*
G02*
X67632100Y-130964000I-100000J0D01*
G01*
X67432100Y-130964000D01*
G75*
G02*
X67332100Y-130864000I0J100000D01*
G01*
X67332100Y-129589000D01*
G75*
G02*
X67432100Y-129489000I100000J0D01*
G01*
G37*
%TD.AperFunction*%
%TO.P,U8,17*%
%TO.N,WIRE8_6*%
%TA.AperFunction,SMDPad,CuDef*%
G36*
G01*
X68082100Y-129489000D02*
X68282100Y-129489000D01*
G75*
G02*
X68382100Y-129589000I0J-100000D01*
G01*
X68382100Y-130864000D01*
G75*
G02*
X68282100Y-130964000I-100000J0D01*
G01*
X68082100Y-130964000D01*
G75*
G02*
X67982100Y-130864000I0J100000D01*
G01*
X67982100Y-129589000D01*
G75*
G02*
X68082100Y-129489000I100000J0D01*
G01*
G37*
%TD.AperFunction*%
%TO.P,U8,16*%
%TO.N,WIRE8_5*%
%TA.AperFunction,SMDPad,CuDef*%
G36*
G01*
X68732100Y-129489000D02*
X68932100Y-129489000D01*
G75*
G02*
X69032100Y-129589000I0J-100000D01*
G01*
X69032100Y-130864000D01*
G75*
G02*
X68932100Y-130964000I-100000J0D01*
G01*
X68732100Y-130964000D01*
G75*
G02*
X68632100Y-130864000I0J100000D01*
G01*
X68632100Y-129589000D01*
G75*
G02*
X68732100Y-129489000I100000J0D01*
G01*
G37*
%TD.AperFunction*%
%TO.P,U8,15*%
%TO.N,WIRE8_4*%
%TA.AperFunction,SMDPad,CuDef*%
G36*
G01*
X69382100Y-129489000D02*
X69582100Y-129489000D01*
G75*
G02*
X69682100Y-129589000I0J-100000D01*
G01*
X69682100Y-130864000D01*
G75*
G02*
X69582100Y-130964000I-100000J0D01*
G01*
X69382100Y-130964000D01*
G75*
G02*
X69282100Y-130864000I0J100000D01*
G01*
X69282100Y-129589000D01*
G75*
G02*
X69382100Y-129489000I100000J0D01*
G01*
G37*
%TD.AperFunction*%
%TO.P,U8,14*%
%TO.N,WIRE8_3*%
%TA.AperFunction,SMDPad,CuDef*%
G36*
G01*
X70032100Y-129489000D02*
X70232100Y-129489000D01*
G75*
G02*
X70332100Y-129589000I0J-100000D01*
G01*
X70332100Y-130864000D01*
G75*
G02*
X70232100Y-130964000I-100000J0D01*
G01*
X70032100Y-130964000D01*
G75*
G02*
X69932100Y-130864000I0J100000D01*
G01*
X69932100Y-129589000D01*
G75*
G02*
X70032100Y-129489000I100000J0D01*
G01*
G37*
%TD.AperFunction*%
%TO.P,U8,13*%
%TO.N,WIRE8_2*%
%TA.AperFunction,SMDPad,CuDef*%
G36*
G01*
X70682100Y-129489000D02*
X70882100Y-129489000D01*
G75*
G02*
X70982100Y-129589000I0J-100000D01*
G01*
X70982100Y-130864000D01*
G75*
G02*
X70882100Y-130964000I-100000J0D01*
G01*
X70682100Y-130964000D01*
G75*
G02*
X70582100Y-130864000I0J100000D01*
G01*
X70582100Y-129589000D01*
G75*
G02*
X70682100Y-129489000I100000J0D01*
G01*
G37*
%TD.AperFunction*%
%TO.P,U8,12*%
%TO.N,WIRE8_1*%
%TA.AperFunction,SMDPad,CuDef*%
G36*
G01*
X71332100Y-129489000D02*
X71532100Y-129489000D01*
G75*
G02*
X71632100Y-129589000I0J-100000D01*
G01*
X71632100Y-130864000D01*
G75*
G02*
X71532100Y-130964000I-100000J0D01*
G01*
X71332100Y-130964000D01*
G75*
G02*
X71232100Y-130864000I0J100000D01*
G01*
X71232100Y-129589000D01*
G75*
G02*
X71332100Y-129489000I100000J0D01*
G01*
G37*
%TD.AperFunction*%
%TO.P,U8,11*%
%TO.N,GND*%
%TA.AperFunction,SMDPad,CuDef*%
G36*
G01*
X71982100Y-129489000D02*
X72182100Y-129489000D01*
G75*
G02*
X72282100Y-129589000I0J-100000D01*
G01*
X72282100Y-130864000D01*
G75*
G02*
X72182100Y-130964000I-100000J0D01*
G01*
X71982100Y-130964000D01*
G75*
G02*
X71882100Y-130864000I0J100000D01*
G01*
X71882100Y-129589000D01*
G75*
G02*
X71982100Y-129489000I100000J0D01*
G01*
G37*
%TD.AperFunction*%
%TO.P,U8,10*%
%TO.N,+3V3*%
%TA.AperFunction,SMDPad,CuDef*%
G36*
G01*
X71982100Y-123764000D02*
X72182100Y-123764000D01*
G75*
G02*
X72282100Y-123864000I0J-100000D01*
G01*
X72282100Y-125139000D01*
G75*
G02*
X72182100Y-125239000I-100000J0D01*
G01*
X71982100Y-125239000D01*
G75*
G02*
X71882100Y-125139000I0J100000D01*
G01*
X71882100Y-123864000D01*
G75*
G02*
X71982100Y-123764000I100000J0D01*
G01*
G37*
%TD.AperFunction*%
%TO.P,U8,9*%
%TO.N,A1*%
%TA.AperFunction,SMDPad,CuDef*%
G36*
G01*
X71332100Y-123764000D02*
X71532100Y-123764000D01*
G75*
G02*
X71632100Y-123864000I0J-100000D01*
G01*
X71632100Y-125139000D01*
G75*
G02*
X71532100Y-125239000I-100000J0D01*
G01*
X71332100Y-125239000D01*
G75*
G02*
X71232100Y-125139000I0J100000D01*
G01*
X71232100Y-123864000D01*
G75*
G02*
X71332100Y-123764000I100000J0D01*
G01*
G37*
%TD.AperFunction*%
%TO.P,U8,8*%
%TO.N,RW*%
%TA.AperFunction,SMDPad,CuDef*%
G36*
G01*
X70682100Y-123764000D02*
X70882100Y-123764000D01*
G75*
G02*
X70982100Y-123864000I0J-100000D01*
G01*
X70982100Y-125139000D01*
G75*
G02*
X70882100Y-125239000I-100000J0D01*
G01*
X70682100Y-125239000D01*
G75*
G02*
X70582100Y-125139000I0J100000D01*
G01*
X70582100Y-123864000D01*
G75*
G02*
X70682100Y-123764000I100000J0D01*
G01*
G37*
%TD.AperFunction*%
%TO.P,U8,7*%
%TO.N,A23*%
%TA.AperFunction,SMDPad,CuDef*%
G36*
G01*
X70032100Y-123764000D02*
X70232100Y-123764000D01*
G75*
G02*
X70332100Y-123864000I0J-100000D01*
G01*
X70332100Y-125139000D01*
G75*
G02*
X70232100Y-125239000I-100000J0D01*
G01*
X70032100Y-125239000D01*
G75*
G02*
X69932100Y-125139000I0J100000D01*
G01*
X69932100Y-123864000D01*
G75*
G02*
X70032100Y-123764000I100000J0D01*
G01*
G37*
%TD.AperFunction*%
%TO.P,U8,6*%
%TO.N,A22*%
%TA.AperFunction,SMDPad,CuDef*%
G36*
G01*
X69382100Y-123764000D02*
X69582100Y-123764000D01*
G75*
G02*
X69682100Y-123864000I0J-100000D01*
G01*
X69682100Y-125139000D01*
G75*
G02*
X69582100Y-125239000I-100000J0D01*
G01*
X69382100Y-125239000D01*
G75*
G02*
X69282100Y-125139000I0J100000D01*
G01*
X69282100Y-123864000D01*
G75*
G02*
X69382100Y-123764000I100000J0D01*
G01*
G37*
%TD.AperFunction*%
%TO.P,U8,5*%
%TO.N,A21*%
%TA.AperFunction,SMDPad,CuDef*%
G36*
G01*
X68732100Y-123764000D02*
X68932100Y-123764000D01*
G75*
G02*
X69032100Y-123864000I0J-100000D01*
G01*
X69032100Y-125139000D01*
G75*
G02*
X68932100Y-125239000I-100000J0D01*
G01*
X68732100Y-125239000D01*
G75*
G02*
X68632100Y-125139000I0J100000D01*
G01*
X68632100Y-123864000D01*
G75*
G02*
X68732100Y-123764000I100000J0D01*
G01*
G37*
%TD.AperFunction*%
%TO.P,U8,4*%
%TO.N,A20*%
%TA.AperFunction,SMDPad,CuDef*%
G36*
G01*
X68082100Y-123764000D02*
X68282100Y-123764000D01*
G75*
G02*
X68382100Y-123864000I0J-100000D01*
G01*
X68382100Y-125139000D01*
G75*
G02*
X68282100Y-125239000I-100000J0D01*
G01*
X68082100Y-125239000D01*
G75*
G02*
X67982100Y-125139000I0J100000D01*
G01*
X67982100Y-123864000D01*
G75*
G02*
X68082100Y-123764000I100000J0D01*
G01*
G37*
%TD.AperFunction*%
%TO.P,U8,3*%
%TO.N,A19*%
%TA.AperFunction,SMDPad,CuDef*%
G36*
G01*
X67432100Y-123764000D02*
X67632100Y-123764000D01*
G75*
G02*
X67732100Y-123864000I0J-100000D01*
G01*
X67732100Y-125139000D01*
G75*
G02*
X67632100Y-125239000I-100000J0D01*
G01*
X67432100Y-125239000D01*
G75*
G02*
X67332100Y-125139000I0J100000D01*
G01*
X67332100Y-123864000D01*
G75*
G02*
X67432100Y-123764000I100000J0D01*
G01*
G37*
%TD.AperFunction*%
%TO.P,U8,2*%
%TO.N,+3V3*%
%TA.AperFunction,SMDPad,CuDef*%
G36*
G01*
X66782100Y-123764000D02*
X66982100Y-123764000D01*
G75*
G02*
X67082100Y-123864000I0J-100000D01*
G01*
X67082100Y-125139000D01*
G75*
G02*
X66982100Y-125239000I-100000J0D01*
G01*
X66782100Y-125239000D01*
G75*
G02*
X66682100Y-125139000I0J100000D01*
G01*
X66682100Y-123864000D01*
G75*
G02*
X66782100Y-123764000I100000J0D01*
G01*
G37*
%TD.AperFunction*%
%TO.P,U8,1*%
%TO.N,A18*%
%TA.AperFunction,SMDPad,CuDef*%
G36*
G01*
X66132100Y-123764000D02*
X66332100Y-123764000D01*
G75*
G02*
X66432100Y-123864000I0J-100000D01*
G01*
X66432100Y-125139000D01*
G75*
G02*
X66332100Y-125239000I-100000J0D01*
G01*
X66132100Y-125239000D01*
G75*
G02*
X66032100Y-125139000I0J100000D01*
G01*
X66032100Y-123864000D01*
G75*
G02*
X66132100Y-123764000I100000J0D01*
G01*
G37*
%TD.AperFunction*%
%TD*%
D13*
%TO.N,+5V*%
X55001800Y-133668500D03*
X150372600Y-133507800D03*
X140414300Y-114312500D03*
X118475900Y-131580800D03*
X88775600Y-132298200D03*
X66792300Y-132000000D03*
X55055400Y-131657500D03*
X106262300Y-133856200D03*
X122704500Y-133382700D03*
%TO.N,+3V3*%
X115768800Y-126101700D03*
X99612900Y-126468000D03*
X87224000Y-124487800D03*
X84610900Y-122499400D03*
%TO.N,WIRE2_1*%
X159099700Y-132777400D03*
%TO.N,WIRE2_2*%
X115155100Y-132918500D03*
%TO.N,WIRE2_3*%
X114401000Y-139377100D03*
%TO.N,WIRE2_4*%
X111333800Y-138691400D03*
%TO.N,WIRE2_5*%
X110174200Y-137542100D03*
%TO.N,WIRE2_6*%
X107412700Y-137807400D03*
%TO.N,WIRE2_7*%
X103908500Y-138775600D03*
%TO.N,WIRE2_8*%
X102634800Y-138993700D03*
%TO.N,WIRE3_1*%
X127336000Y-133095500D03*
%TO.N,WIRE3_2*%
X126255800Y-134181200D03*
%TO.N,WIRE3_3*%
X148997800Y-135331200D03*
%TO.N,WIRE3_4*%
X150655400Y-136955000D03*
%TO.N,WIRE3_5*%
X125121600Y-134235200D03*
%TO.N,WIRE3_6*%
X153688000Y-139552600D03*
%TO.N,WIRE3_7*%
X124971000Y-135235600D03*
%TO.N,WIRE3_8*%
X123970600Y-135285800D03*
%TO.N,WIRE7_1*%
X143964000Y-139585900D03*
%TO.N,WIRE7_2*%
X136826700Y-138176900D03*
%TO.N,WIRE7_3*%
X132516200Y-139666900D03*
%TO.N,WIRE7_4*%
X129337200Y-139557000D03*
%TO.N,WIRE7_5*%
X127752500Y-139555800D03*
%TO.N,WIRE7_6*%
X125458600Y-139572600D03*
%TO.N,WIRE7_7*%
X121834400Y-139418300D03*
%TO.N,WIRE7_8*%
X121349000Y-138042700D03*
%TO.N,WIRE5_1*%
X115632400Y-139577200D03*
%TO.N,WIRE5_2*%
X113185300Y-139566000D03*
%TO.N,WIRE5_3*%
X108557000Y-138418300D03*
%TO.N,WIRE5_4*%
X106412300Y-138078300D03*
%TO.N,WIRE5_5*%
X105564300Y-139129400D03*
%TO.N,WIRE5_6*%
X101567300Y-139028000D03*
%TO.N,WIRE5_7*%
X99216900Y-139568400D03*
%TO.N,WIRE5_8*%
X91825700Y-137222500D03*
%TO.N,WIRE8_1*%
X78920400Y-136910900D03*
%TO.N,WIRE1_1*%
X83263400Y-131705500D03*
%TO.N,WIRE1_2*%
X81849300Y-133766300D03*
%TO.N,WIRE1_3*%
X79848600Y-133548100D03*
%TO.N,WIRE1_4*%
X73986000Y-136430200D03*
%TO.N,WIRE1_5*%
X71512900Y-136236000D03*
%TO.N,WIRE1_6*%
X70144900Y-136070100D03*
%TO.N,WIRE1_7*%
X65902200Y-136517300D03*
%TO.N,WIRE1_8*%
X66073700Y-134932400D03*
%TO.N,WIRE8_2*%
X77861300Y-138081200D03*
%TO.N,WIRE8_3*%
X76623600Y-138821800D03*
%TO.N,WIRE8_4*%
X75273800Y-139104400D03*
%TO.N,WIRE8_5*%
X73051300Y-138995100D03*
%TO.N,WIRE8_6*%
X68707800Y-138546700D03*
%TO.N,WIRE8_7*%
X68504100Y-139572300D03*
%TO.N,WIRE8_8*%
X67256700Y-139583500D03*
%TO.N,WIRE6_1*%
X98336900Y-134325400D03*
%TO.N,WIRE6_2*%
X97558600Y-133618000D03*
%TO.N,WIRE6_3*%
X96851200Y-132910600D03*
%TO.N,WIRE4_1*%
X58330200Y-139570000D03*
%TO.N,WIRE4_2*%
X56248300Y-139623300D03*
%TO.N,WIRE4_3*%
X58949900Y-134072600D03*
%TO.N,WIRE4_4*%
X55290900Y-137513100D03*
%TO.N,WIRE4_5*%
X49241800Y-139554000D03*
%TO.N,WIRE4_6*%
X44904000Y-139113000D03*
%TO.N,WIRE4_7*%
X54022200Y-135048400D03*
%TO.N,WIRE4_8*%
X49825400Y-136439400D03*
%TO.N,IPL2*%
X88890200Y-104763100D03*
X87594500Y-117032700D03*
%TO.N,IPL1*%
X96799000Y-115568800D03*
X89300900Y-117819600D03*
%TO.N,AS*%
X109174200Y-100759600D03*
X129985500Y-102210200D03*
%TO.N,A23*%
X81340700Y-107635400D03*
X80459600Y-111597500D03*
X72027600Y-115495700D03*
%TO.N,BGACK*%
X105608800Y-117715200D03*
%TO.N,A22*%
X82676300Y-112620800D03*
X70715000Y-116954600D03*
%TO.N,A21*%
X69576000Y-122318100D03*
%TO.N,A20*%
X68817800Y-121618000D03*
%TO.N,A19*%
X67817400Y-121515800D03*
%TO.N,RST*%
X98825700Y-115934100D03*
%TO.N,A18*%
X68076600Y-120307600D03*
%TO.N,CPU_CLK*%
X98825700Y-116987800D03*
%TO.N,RW*%
X71927300Y-119377300D03*
%TO.N,A16*%
X92788500Y-100774400D03*
X130682400Y-102957700D03*
%TO.N,D15*%
X66429100Y-117609400D03*
%TO.N,A15*%
X86916900Y-103587500D03*
X136564700Y-111338500D03*
%TO.N,D14*%
X62995800Y-116229300D03*
%TO.N,A14*%
X83308500Y-103163200D03*
X133870000Y-107083400D03*
%TO.N,D13*%
X63747700Y-114698700D03*
%TO.N,A13*%
X124531700Y-108188600D03*
%TO.N,D12*%
X62806000Y-114192900D03*
%TO.N,A12*%
X130134800Y-105595200D03*
%TO.N,D11*%
X61935300Y-113447500D03*
%TO.N,A11*%
X128547400Y-104749500D03*
%TO.N,D10*%
X61755700Y-111885100D03*
%TO.N,A10*%
X126462600Y-104023000D03*
%TO.N,D9*%
X59461900Y-112441200D03*
%TO.N,D8*%
X57107600Y-112441200D03*
%TO.N,D7*%
X126039100Y-106351500D03*
%TO.N,D6*%
X122721500Y-100631800D03*
%TO.N,A6*%
X78376500Y-111587400D03*
X74281000Y-115239700D03*
%TO.N,D5*%
X123513500Y-101454100D03*
%TO.N,D4*%
X121894300Y-98922900D03*
%TO.N,D3*%
X54265900Y-111236200D03*
X121127900Y-97021900D03*
%TO.N,D2*%
X119195800Y-97747200D03*
%TO.N,A2*%
X67255900Y-112823700D03*
%TO.N,A1*%
X71930500Y-118354700D03*
%TO.N,GPIO0*%
X67856400Y-51671100D03*
%TO.N,GPIO27*%
X125242000Y-48972700D03*
%TO.N,GPIO2*%
X153764300Y-57049300D03*
%TO.N,GPIO3*%
X156570300Y-56627300D03*
%TO.N,GPIO4*%
X162200200Y-54614400D03*
%TO.N,GPIO8*%
X184425200Y-39007100D03*
%TO.N,GPIO13*%
X87079200Y-53614500D03*
%TO.N,GPIO14*%
X101928400Y-46672900D03*
%TO.N,GPIO16*%
X108939800Y-39381700D03*
%TO.N,GPIO19*%
X97880000Y-54028800D03*
%TO.N,GPIO20*%
X181554100Y-49725200D03*
%TO.N,GPIO21*%
X101625600Y-54479100D03*
%TO.N,GPIO22*%
X113109700Y-40036600D03*
X85064800Y-40625900D03*
%TO.N,BR*%
X111088500Y-123051500D03*
%TO.N,GPIO23*%
X110467800Y-40764200D03*
X84385800Y-41415300D03*
%TO.N,BG*%
X110468200Y-122257000D03*
%TO.N,GPIO24*%
X177357500Y-38281700D03*
X111472200Y-37234900D03*
%TO.N,FC0*%
X112989500Y-122515900D03*
%TO.N,GPIO25*%
X160585300Y-44579800D03*
%TO.N,FC1*%
X113989900Y-122515900D03*
%TO.N,GPIO26*%
X180045700Y-50343500D03*
X108354500Y-49710000D03*
%TO.N,FC2*%
X120522900Y-43515800D03*
X122543100Y-128758600D03*
%TO.N,GND*%
X76492300Y-130474600D03*
X167864800Y-131840800D03*
%TD*%
D14*
%TO.N,+5V*%
X55001800Y-133668500D02*
X55001800Y-131711100D01*
X55001800Y-131711100D02*
X55055400Y-131657500D01*
X164284000Y-144000000D02*
X164284000Y-139864700D01*
X150372600Y-133507800D02*
X150372600Y-124270800D01*
X150372600Y-124270800D02*
X140414300Y-114312500D01*
X164284000Y-139864700D02*
X156729500Y-139864700D01*
X156729500Y-139864700D02*
X150372600Y-133507800D01*
X133285000Y-130480500D02*
X133285000Y-129724400D01*
X133285000Y-129724400D02*
X132928000Y-129367400D01*
X132928000Y-129367400D02*
X132367900Y-129367400D01*
X132367900Y-129367400D02*
X128833500Y-132901800D01*
X128833500Y-132901800D02*
X128833500Y-133324900D01*
X128833500Y-133324900D02*
X125624600Y-136533800D01*
X125624600Y-136533800D02*
X123428900Y-136533800D01*
X123428900Y-136533800D02*
X118475900Y-131580800D01*
X114000000Y-132000000D02*
X118056700Y-132000000D01*
X118056700Y-132000000D02*
X118475900Y-131580800D01*
X106262300Y-133856200D02*
X112143800Y-133856200D01*
X112143800Y-133856200D02*
X114000000Y-132000000D01*
X106262300Y-133856200D02*
X105062900Y-135055600D01*
X105062900Y-135055600D02*
X97970200Y-135055600D01*
X97970200Y-135055600D02*
X96078000Y-133163400D01*
X96078000Y-133163400D02*
X96078000Y-132424800D01*
X96078000Y-132424800D02*
X99133300Y-129369500D01*
X99133300Y-129369500D02*
X99727500Y-129369500D01*
X99727500Y-129369500D02*
X100084000Y-129726000D01*
X100084000Y-129726000D02*
X100084000Y-130480500D01*
X122704500Y-133382700D02*
X122218000Y-132896200D01*
X122218000Y-132896200D02*
X122218000Y-130480500D01*
X89016400Y-130480500D02*
X89016400Y-129782700D01*
X89016400Y-129782700D02*
X88650900Y-129417200D01*
X88650900Y-129417200D02*
X83582800Y-129417200D01*
X83582800Y-129417200D02*
X81000000Y-132000000D01*
X88775600Y-132298200D02*
X89016400Y-132057400D01*
X89016400Y-132057400D02*
X89016400Y-130480500D01*
X98244000Y-144000000D02*
X98244000Y-139864700D01*
X98244000Y-139864700D02*
X96342100Y-139864700D01*
X96342100Y-139864700D02*
X88775600Y-132298200D01*
X55815000Y-130099500D02*
X55815000Y-130897900D01*
X55815000Y-130897900D02*
X55055400Y-131657500D01*
X66882100Y-130226500D02*
X66882100Y-131910200D01*
X66882100Y-131910200D02*
X66792300Y-132000000D01*
X44904000Y-144000000D02*
X44904000Y-139864700D01*
X55815000Y-130099500D02*
X55815000Y-129385300D01*
X55815000Y-129385300D02*
X55465900Y-129036200D01*
X55465900Y-129036200D02*
X54883900Y-129036200D01*
X54883900Y-129036200D02*
X48724900Y-135195200D01*
X48724900Y-135195200D02*
X48724900Y-136347600D01*
X48724900Y-136347600D02*
X45207800Y-139864700D01*
X45207800Y-139864700D02*
X44904000Y-139864700D01*
X120740000Y-48000000D02*
X120740000Y-49175300D01*
X120740000Y-106460000D02*
X120740000Y-105284700D01*
X120740000Y-49175300D02*
X120402300Y-49513000D01*
X120402300Y-49513000D02*
X120402300Y-104947000D01*
X120402300Y-104947000D02*
X120740000Y-105284700D01*
X120740000Y-45460000D02*
X120740000Y-48000000D01*
X120740000Y-109000000D02*
X120740000Y-106460000D01*
%TO.N,+3V3*%
X66882100Y-125199300D02*
X66490800Y-125590600D01*
X66490800Y-125590600D02*
X62231200Y-125590600D01*
X62231200Y-125590600D02*
X62042100Y-125401500D01*
X62042100Y-125401500D02*
X62042000Y-125401500D01*
X62042000Y-125401500D02*
X61368100Y-124727500D01*
X61368100Y-124727500D02*
X61015000Y-124374500D01*
X61368100Y-124727500D02*
X60617600Y-125478000D01*
X60617600Y-125478000D02*
X56168800Y-125478000D01*
X56168800Y-125478000D02*
X55815000Y-125124200D01*
X55815000Y-125124200D02*
X55815000Y-124374500D01*
X66882100Y-125199300D02*
X67290600Y-125607800D01*
X67290600Y-125607800D02*
X71669900Y-125607800D01*
X71669900Y-125607800D02*
X72082100Y-125195600D01*
X66882100Y-124501500D02*
X66882100Y-125199300D01*
X155433400Y-56516100D02*
X156269900Y-57352600D01*
X156269900Y-57352600D02*
X172010900Y-57352600D01*
X172010900Y-57352600D02*
X179784200Y-49579300D01*
X179784200Y-49579300D02*
X179923800Y-49579300D01*
X179923800Y-49579300D02*
X181144700Y-48358400D01*
X181144700Y-48358400D02*
X181144700Y-48000000D01*
X119175300Y-34000000D02*
X142949900Y-57774600D01*
X142949900Y-57774600D02*
X154174900Y-57774600D01*
X154174900Y-57774600D02*
X155433400Y-56516100D01*
X155433400Y-56516100D02*
X155433400Y-55741900D01*
X155433400Y-55741900D02*
X162000000Y-49175300D01*
X182320000Y-48000000D02*
X181144700Y-48000000D01*
X133285000Y-125462400D02*
X132928600Y-125818800D01*
X132928600Y-125818800D02*
X127753000Y-125818800D01*
X127753000Y-125818800D02*
X127418000Y-125483800D01*
X133285000Y-124755500D02*
X133285000Y-125462400D01*
X138485000Y-124755500D02*
X138485000Y-125492600D01*
X138485000Y-125492600D02*
X138109500Y-125868100D01*
X138109500Y-125868100D02*
X133690700Y-125868100D01*
X133690700Y-125868100D02*
X133285000Y-125462400D01*
X127418000Y-125483800D02*
X127418000Y-124755500D01*
X122218000Y-125453100D02*
X122623600Y-125858700D01*
X122623600Y-125858700D02*
X127043100Y-125858700D01*
X127043100Y-125858700D02*
X127418000Y-125483800D01*
X122218000Y-125453100D02*
X122218000Y-124755500D01*
X115768800Y-126000000D02*
X121671100Y-126000000D01*
X121671100Y-126000000D02*
X122218000Y-125453100D01*
X109000000Y-126000000D02*
X115768800Y-126000000D01*
X115768800Y-126000000D02*
X115768800Y-126101700D01*
X105284000Y-125469300D02*
X105284000Y-124755500D01*
X100084000Y-125511000D02*
X100391800Y-125818800D01*
X100391800Y-125818800D02*
X104934500Y-125818800D01*
X104934500Y-125818800D02*
X105284000Y-125469300D01*
X109000000Y-126000000D02*
X105814700Y-126000000D01*
X105814700Y-126000000D02*
X105284000Y-125469300D01*
X100084000Y-125511000D02*
X100084000Y-124755500D01*
X99612900Y-125829100D02*
X99765900Y-125829100D01*
X99765900Y-125829100D02*
X100084000Y-125511000D01*
X99612900Y-125829100D02*
X99612900Y-126468000D01*
X94216400Y-125469300D02*
X94576200Y-125829100D01*
X94576200Y-125829100D02*
X99612900Y-125829100D01*
X94216400Y-125469300D02*
X94216400Y-124755500D01*
X76000000Y-125975000D02*
X76803600Y-126778600D01*
X76803600Y-126778600D02*
X92907100Y-126778600D01*
X92907100Y-126778600D02*
X94216400Y-125469300D01*
X72082100Y-125195600D02*
X75220600Y-125195600D01*
X75220600Y-125195600D02*
X76000000Y-125975000D01*
X72082100Y-125195600D02*
X72082100Y-124501500D01*
X87224000Y-124487800D02*
X85235600Y-122499400D01*
X85235600Y-122499400D02*
X84610900Y-122499400D01*
X89016400Y-124755500D02*
X89016400Y-124025500D01*
X89016400Y-124025500D02*
X88652700Y-123661800D01*
X88652700Y-123661800D02*
X88050000Y-123661800D01*
X88050000Y-123661800D02*
X87224000Y-124487800D01*
X162000000Y-48000000D02*
X162000000Y-49175300D01*
X118000000Y-34000000D02*
X119175300Y-34000000D01*
X118000000Y-31460000D02*
X118000000Y-34000000D01*
%TO.N,WIRE2_1*%
X159099700Y-132777400D02*
X166187000Y-139864700D01*
X166187000Y-139864700D02*
X166824000Y-139864700D01*
X166824000Y-144000000D02*
X166824000Y-139864700D01*
%TO.N,WIRE2_2*%
X121104000Y-144000000D02*
X121104000Y-138867400D01*
X121104000Y-138867400D02*
X115155100Y-132918500D01*
%TO.N,WIRE2_3*%
X113484000Y-144000000D02*
X113484000Y-140294100D01*
X113484000Y-140294100D02*
X114401000Y-139377100D01*
%TO.N,WIRE2_4*%
X110944000Y-144000000D02*
X110944000Y-139081200D01*
X110944000Y-139081200D02*
X111333800Y-138691400D01*
%TO.N,WIRE2_5*%
X108404000Y-144000000D02*
X108404000Y-139864700D01*
X110174200Y-137542100D02*
X110174200Y-138094500D01*
X110174200Y-138094500D02*
X108404000Y-139864700D01*
%TO.N,WIRE2_6*%
X107412700Y-137807400D02*
X107412700Y-138316000D01*
X107412700Y-138316000D02*
X105864000Y-139864700D01*
X105864000Y-144000000D02*
X105864000Y-139864700D01*
%TO.N,WIRE2_7*%
X103324000Y-144000000D02*
X103324000Y-139864700D01*
X103908500Y-138775600D02*
X103908500Y-139280200D01*
X103908500Y-139280200D02*
X103324000Y-139864700D01*
%TO.N,WIRE2_8*%
X100784000Y-139864700D02*
X101763800Y-139864700D01*
X101763800Y-139864700D02*
X102634800Y-138993700D01*
X100784000Y-144000000D02*
X100784000Y-139864700D01*
%TO.N,WIRE3_1*%
X126768000Y-130480500D02*
X126768000Y-132527500D01*
X126768000Y-132527500D02*
X127336000Y-133095500D01*
%TO.N,WIRE3_2*%
X126118000Y-130480500D02*
X126118000Y-134043400D01*
X126118000Y-134043400D02*
X126255800Y-134181200D01*
%TO.N,WIRE3_3*%
X125468000Y-130480500D02*
X125468000Y-129770300D01*
X125468000Y-129770300D02*
X126816100Y-128422200D01*
X126816100Y-128422200D02*
X142088800Y-128422200D01*
X142088800Y-128422200D02*
X148997800Y-135331200D01*
%TO.N,WIRE3_4*%
X124818000Y-130480500D02*
X124818000Y-129777500D01*
X124818000Y-129777500D02*
X126663300Y-127932200D01*
X126663300Y-127932200D02*
X142630900Y-127932200D01*
X142630900Y-127932200D02*
X150655400Y-135956700D01*
X150655400Y-135956700D02*
X150655400Y-136955000D01*
%TO.N,WIRE3_5*%
X124168000Y-130480500D02*
X124168000Y-133281600D01*
X124168000Y-133281600D02*
X125121600Y-134235200D01*
%TO.N,WIRE3_6*%
X123518000Y-130480500D02*
X123518000Y-129763200D01*
X123518000Y-129763200D02*
X125799400Y-127481800D01*
X125799400Y-127481800D02*
X142848700Y-127481800D01*
X142848700Y-127481800D02*
X153688000Y-138321100D01*
X153688000Y-138321100D02*
X153688000Y-139552600D01*
%TO.N,WIRE3_7*%
X124971000Y-135235600D02*
X123429800Y-133694400D01*
X123429800Y-133694400D02*
X123429800Y-133082200D01*
X123429800Y-133082200D02*
X122868100Y-132520500D01*
X122868100Y-132520500D02*
X122868000Y-132520500D01*
X122868000Y-132520500D02*
X122868000Y-130480500D01*
%TO.N,WIRE3_8*%
X123970600Y-135285800D02*
X123581600Y-135285800D01*
X123581600Y-135285800D02*
X121568100Y-133272300D01*
X121568100Y-133272300D02*
X121568100Y-130480500D01*
X121568100Y-130480500D02*
X121568000Y-130480500D01*
%TO.N,WIRE7_1*%
X137835000Y-130480500D02*
X137835000Y-133456900D01*
X137835000Y-133456900D02*
X143964000Y-139585900D01*
%TO.N,WIRE7_2*%
X137185000Y-130480500D02*
X137185000Y-137818600D01*
X137185000Y-137818600D02*
X136826700Y-138176900D01*
%TO.N,WIRE7_3*%
X136535000Y-130480500D02*
X136535000Y-135648100D01*
X136535000Y-135648100D02*
X132516200Y-139666900D01*
%TO.N,WIRE7_4*%
X135885000Y-130480500D02*
X135885000Y-133009200D01*
X135885000Y-133009200D02*
X129337200Y-139557000D01*
%TO.N,WIRE7_5*%
X135235000Y-130480500D02*
X135235000Y-132073300D01*
X135235000Y-132073300D02*
X127752500Y-139555800D01*
%TO.N,WIRE7_6*%
X125458600Y-139572600D02*
X126215000Y-139572600D01*
X126215000Y-139572600D02*
X134585000Y-131202600D01*
X134585000Y-131202600D02*
X134585000Y-130480500D01*
%TO.N,WIRE7_7*%
X133935000Y-130480500D02*
X133935000Y-131178300D01*
X133935000Y-131178300D02*
X127457400Y-137655900D01*
X127457400Y-137655900D02*
X123596800Y-137655900D01*
X123596800Y-137655900D02*
X121834400Y-139418300D01*
%TO.N,WIRE7_8*%
X132635000Y-130480500D02*
X125910000Y-137205500D01*
X125910000Y-137205500D02*
X122186200Y-137205500D01*
X122186200Y-137205500D02*
X121349000Y-138042700D01*
%TO.N,WIRE5_1*%
X115632400Y-139577200D02*
X111561100Y-135505900D01*
X111561100Y-135505900D02*
X97783600Y-135505900D01*
X97783600Y-135505900D02*
X93566400Y-131288700D01*
X93566400Y-131288700D02*
X93566400Y-130480500D01*
%TO.N,WIRE5_2*%
X92916400Y-130480500D02*
X92916400Y-131275600D01*
X92916400Y-131275600D02*
X97597000Y-135956200D01*
X97597000Y-135956200D02*
X109648300Y-135956200D01*
X109648300Y-135956200D02*
X113185300Y-139493200D01*
X113185300Y-139493200D02*
X113185300Y-139566000D01*
%TO.N,WIRE5_3*%
X92266400Y-130480500D02*
X92266400Y-131262500D01*
X92266400Y-131262500D02*
X98085900Y-137082000D01*
X98085900Y-137082000D02*
X107730500Y-137082000D01*
X107730500Y-137082000D02*
X108557000Y-137908500D01*
X108557000Y-137908500D02*
X108557000Y-138418300D01*
%TO.N,WIRE5_4*%
X91616400Y-130480500D02*
X91616400Y-131249500D01*
X91616400Y-131249500D02*
X97899200Y-137532300D01*
X97899200Y-137532300D02*
X105866300Y-137532300D01*
X105866300Y-137532300D02*
X106412300Y-138078300D01*
%TO.N,WIRE5_5*%
X90966400Y-130480500D02*
X90966400Y-131286100D01*
X90966400Y-131286100D02*
X97662900Y-137982600D01*
X97662900Y-137982600D02*
X104417500Y-137982600D01*
X104417500Y-137982600D02*
X105564300Y-139129400D01*
%TO.N,WIRE5_6*%
X90316400Y-130480500D02*
X90316400Y-131326700D01*
X90316400Y-131326700D02*
X97626900Y-138637200D01*
X97626900Y-138637200D02*
X101176500Y-138637200D01*
X101176500Y-138637200D02*
X101567300Y-139028000D01*
%TO.N,WIRE5_7*%
X99216900Y-139568400D02*
X98766600Y-139118100D01*
X98766600Y-139118100D02*
X97445500Y-139118100D01*
X97445500Y-139118100D02*
X89666400Y-131339000D01*
X89666400Y-131339000D02*
X89666400Y-130480500D01*
%TO.N,WIRE5_8*%
X88366400Y-130480500D02*
X88050200Y-130796700D01*
X88050200Y-130796700D02*
X88050200Y-133447000D01*
X88050200Y-133447000D02*
X91825700Y-137222500D01*
%TO.N,WIRE8_1*%
X71432100Y-130226500D02*
X71432100Y-130915500D01*
X71432100Y-130915500D02*
X77427500Y-136910900D01*
X77427500Y-136910900D02*
X78920400Y-136910900D01*
%TO.N,WIRE1_1*%
X80464000Y-144000000D02*
X80464000Y-139864700D01*
X80464000Y-139864700D02*
X83263400Y-137065300D01*
X83263400Y-137065300D02*
X83263400Y-131705500D01*
%TO.N,WIRE1_2*%
X77924000Y-139864700D02*
X78031700Y-139864700D01*
X78031700Y-139864700D02*
X81849300Y-136047100D01*
X81849300Y-136047100D02*
X81849300Y-133766300D01*
X77924000Y-144000000D02*
X77924000Y-139864700D01*
%TO.N,WIRE1_3*%
X75384000Y-139864700D02*
X77103600Y-139864700D01*
X77103600Y-139864700D02*
X78795400Y-138172900D01*
X78795400Y-138172900D02*
X79036500Y-138172900D01*
X79036500Y-138172900D02*
X79848600Y-137360800D01*
X79848600Y-137360800D02*
X79848600Y-133548100D01*
X75384000Y-144000000D02*
X75384000Y-139864700D01*
%TO.N,WIRE1_4*%
X72844000Y-144000000D02*
X72844000Y-139864700D01*
X73986000Y-136430200D02*
X73986000Y-139151000D01*
X73986000Y-139151000D02*
X73272300Y-139864700D01*
X73272300Y-139864700D02*
X72844000Y-139864700D01*
%TO.N,WIRE1_5*%
X70304000Y-144000000D02*
X70304000Y-139864700D01*
X71512900Y-136236000D02*
X71512900Y-138655800D01*
X71512900Y-138655800D02*
X70304000Y-139864700D01*
%TO.N,WIRE1_6*%
X67764000Y-144000000D02*
X67764000Y-141338400D01*
X67764000Y-141338400D02*
X70144900Y-138957500D01*
X70144900Y-138957500D02*
X70144900Y-136070100D01*
%TO.N,WIRE1_7*%
X65224000Y-144000000D02*
X65224000Y-139864700D01*
X65902200Y-136517300D02*
X65902200Y-139186500D01*
X65902200Y-139186500D02*
X65224000Y-139864700D01*
%TO.N,WIRE1_8*%
X62684000Y-144000000D02*
X62684000Y-138322100D01*
X62684000Y-138322100D02*
X66073700Y-134932400D01*
%TO.N,WIRE8_2*%
X77861300Y-138081200D02*
X77861300Y-138005900D01*
X77861300Y-138005900D02*
X70782100Y-130926700D01*
X70782100Y-130926700D02*
X70782100Y-130226500D01*
%TO.N,WIRE8_3*%
X76623600Y-138821800D02*
X76623600Y-137405100D01*
X76623600Y-137405100D02*
X74473100Y-135254600D01*
X74473100Y-135254600D02*
X74401800Y-135254600D01*
X74401800Y-135254600D02*
X70132100Y-130984900D01*
X70132100Y-130984900D02*
X70132100Y-130226500D01*
%TO.N,WIRE8_4*%
X75273800Y-139104400D02*
X75273800Y-136692200D01*
X75273800Y-136692200D02*
X74286500Y-135704900D01*
X74286500Y-135704900D02*
X74215200Y-135704900D01*
X74215200Y-135704900D02*
X69482100Y-130971800D01*
X69482100Y-130971800D02*
X69482100Y-130226500D01*
%TO.N,WIRE8_5*%
X68832100Y-130226500D02*
X68832100Y-132511200D01*
X68832100Y-132511200D02*
X73051300Y-136730400D01*
X73051300Y-136730400D02*
X73051300Y-138995100D01*
%TO.N,WIRE8_6*%
X68707800Y-138546700D02*
X68182100Y-138021000D01*
X68182100Y-138021000D02*
X68182100Y-130226500D01*
%TO.N,WIRE8_7*%
X68504100Y-139572300D02*
X67532100Y-138600300D01*
X67532100Y-138600300D02*
X67532100Y-130226500D01*
%TO.N,WIRE8_8*%
X67256700Y-139583500D02*
X67081700Y-139408500D01*
X67081700Y-139408500D02*
X67081700Y-133940600D01*
X67081700Y-133940600D02*
X66023500Y-132882400D01*
X66023500Y-132882400D02*
X66023500Y-130435100D01*
X66023500Y-130435100D02*
X66232100Y-130226500D01*
%TO.N,WIRE6_1*%
X101384000Y-130480500D02*
X101384000Y-131278300D01*
X101384000Y-131278300D02*
X98336900Y-134325400D01*
%TO.N,WIRE6_2*%
X100734000Y-130480500D02*
X100734000Y-131241000D01*
X100734000Y-131241000D02*
X98374900Y-133600100D01*
X98374900Y-133600100D02*
X97576500Y-133600100D01*
X97576500Y-133600100D02*
X97558600Y-133618000D01*
%TO.N,WIRE6_3*%
X99434000Y-130480500D02*
X97003900Y-132910600D01*
X97003900Y-132910600D02*
X96851200Y-132910600D01*
%TO.N,WIRE4_1*%
X60365000Y-130099500D02*
X60365000Y-137535200D01*
X60365000Y-137535200D02*
X58330200Y-139570000D01*
%TO.N,WIRE4_2*%
X56248300Y-139623300D02*
X59715000Y-136156600D01*
X59715000Y-136156600D02*
X59715000Y-130099500D01*
%TO.N,WIRE4_3*%
X59065000Y-130099500D02*
X59065000Y-133957500D01*
X59065000Y-133957500D02*
X58949900Y-134072600D01*
%TO.N,WIRE4_4*%
X58415000Y-130099500D02*
X58415000Y-133581800D01*
X58415000Y-133581800D02*
X55290900Y-136705900D01*
X55290900Y-136705900D02*
X55290900Y-137513100D01*
%TO.N,WIRE4_5*%
X49241800Y-139554000D02*
X50868900Y-139554000D01*
X50868900Y-139554000D02*
X57765000Y-132657900D01*
X57765000Y-132657900D02*
X57765000Y-130099500D01*
%TO.N,WIRE4_6*%
X57115000Y-130099500D02*
X57115000Y-129394900D01*
X57115000Y-129394900D02*
X56306000Y-128585900D01*
X56306000Y-128585900D02*
X54697300Y-128585900D01*
X54697300Y-128585900D02*
X44904000Y-138379200D01*
X44904000Y-138379200D02*
X44904000Y-139113000D01*
%TO.N,WIRE4_7*%
X54022200Y-135048400D02*
X54648200Y-135048400D01*
X54648200Y-135048400D02*
X56465000Y-133231600D01*
X56465000Y-133231600D02*
X56465000Y-130099500D01*
%TO.N,WIRE4_8*%
X55165000Y-130099500D02*
X49825400Y-135439100D01*
X49825400Y-135439100D02*
X49825400Y-136439400D01*
%TO.N,IPL2*%
X88890200Y-104763100D02*
X87539800Y-104763100D01*
X87539800Y-104763100D02*
X86544600Y-105758300D01*
X86544600Y-105758300D02*
X86544600Y-115982800D01*
X86544600Y-115982800D02*
X87594500Y-117032700D01*
%TO.N,IPL1*%
X89300900Y-117819600D02*
X94548200Y-117819600D01*
X94548200Y-117819600D02*
X96799000Y-115568800D01*
%TO.N,AS*%
X137835000Y-124755500D02*
X137835000Y-109050600D01*
X137835000Y-109050600D02*
X130994600Y-102210200D01*
X130994600Y-102210200D02*
X129985500Y-102210200D01*
X109174200Y-100759600D02*
X108040000Y-101893800D01*
X108040000Y-101893800D02*
X108040000Y-106460000D01*
%TO.N,A23*%
X70132100Y-124501500D02*
X70132100Y-123424700D01*
X70132100Y-123424700D02*
X71201900Y-122354900D01*
X71201900Y-122354900D02*
X71201900Y-117493500D01*
X71201900Y-117493500D02*
X72027600Y-116667800D01*
X72027600Y-116667800D02*
X72027600Y-115495700D01*
X81340700Y-107635400D02*
X81340700Y-110716400D01*
X81340700Y-110716400D02*
X80459600Y-111597500D01*
%TO.N,BGACK*%
X105500000Y-109000000D02*
X105500000Y-117606400D01*
X105500000Y-117606400D02*
X105608800Y-117715200D01*
%TO.N,A22*%
X101784700Y-106460000D02*
X101784700Y-106092700D01*
X101784700Y-106092700D02*
X95741100Y-100049100D01*
X95741100Y-100049100D02*
X92488100Y-100049100D01*
X92488100Y-100049100D02*
X92037900Y-100499300D01*
X92037900Y-100499300D02*
X92037900Y-100499400D01*
X92037900Y-100499400D02*
X88935200Y-100499400D01*
X88935200Y-100499400D02*
X83830200Y-105604400D01*
X83830200Y-105604400D02*
X83830200Y-111466900D01*
X83830200Y-111466900D02*
X82676300Y-112620800D01*
X102960000Y-106460000D02*
X101784700Y-106460000D01*
X69482100Y-124501500D02*
X69482100Y-123437800D01*
X69482100Y-123437800D02*
X70715000Y-122204900D01*
X70715000Y-122204900D02*
X70715000Y-116954600D01*
%TO.N,A21*%
X68832100Y-124501500D02*
X68832100Y-123062000D01*
X68832100Y-123062000D02*
X69576000Y-122318100D01*
%TO.N,UDS*%
X100734000Y-124755500D02*
X100734000Y-110489300D01*
X100734000Y-110489300D02*
X100420000Y-110175300D01*
X100420000Y-109000000D02*
X100420000Y-110175300D01*
%TO.N,A20*%
X68182100Y-124501500D02*
X68182100Y-122253700D01*
X68182100Y-122253700D02*
X68817800Y-121618000D01*
%TO.N,LDS*%
X97880000Y-109000000D02*
X97880000Y-110175300D01*
X99434000Y-124755500D02*
X99551100Y-124638400D01*
X99551100Y-124638400D02*
X99551100Y-111846400D01*
X99551100Y-111846400D02*
X97880000Y-110175300D01*
%TO.N,A19*%
X67532100Y-124501500D02*
X67532100Y-121801100D01*
X67532100Y-121801100D02*
X67817400Y-121515800D01*
%TO.N,RST*%
X98825700Y-115934100D02*
X98825700Y-113661000D01*
X98825700Y-113661000D02*
X95340000Y-110175300D01*
X95340000Y-109000000D02*
X95340000Y-110175300D01*
%TO.N,A18*%
X66232100Y-124501500D02*
X66232100Y-122075400D01*
X66232100Y-122075400D02*
X67999800Y-120307700D01*
X67999800Y-120307700D02*
X68076600Y-120307700D01*
X68076600Y-120307700D02*
X68076600Y-120307600D01*
%TO.N,CPU_CLK*%
X98825700Y-116987800D02*
X97524300Y-115686400D01*
X97524300Y-115686400D02*
X97524300Y-114899600D01*
X97524300Y-114899600D02*
X92800000Y-110175300D01*
X92800000Y-109000000D02*
X92800000Y-110175300D01*
%TO.N,A17*%
X101384000Y-124755500D02*
X101384000Y-111219200D01*
X101384000Y-111219200D02*
X101596200Y-111007000D01*
X101596200Y-111007000D02*
X101596200Y-108487400D01*
X101596200Y-108487400D02*
X100744100Y-107635300D01*
X100744100Y-107635300D02*
X92243200Y-107635300D01*
X92243200Y-107635300D02*
X91435300Y-106827400D01*
X91435300Y-106827400D02*
X91435300Y-106460000D01*
X90260000Y-106460000D02*
X91435300Y-106460000D01*
%TO.N,RW*%
X70782100Y-124501500D02*
X70782100Y-123411700D01*
X70782100Y-123411700D02*
X71927300Y-122266500D01*
X71927300Y-122266500D02*
X71927300Y-119377300D01*
%TO.N,A16*%
X137185000Y-124755500D02*
X137290000Y-124650500D01*
X137290000Y-124650500D02*
X137290000Y-109408000D01*
X137290000Y-109408000D02*
X130839700Y-102957700D01*
X130839700Y-102957700D02*
X130682400Y-102957700D01*
X87720000Y-105284700D02*
X88386100Y-105284700D01*
X88386100Y-105284700D02*
X88589800Y-105488400D01*
X88589800Y-105488400D02*
X89190700Y-105488400D01*
X89190700Y-105488400D02*
X92788500Y-101890600D01*
X92788500Y-101890600D02*
X92788500Y-100774400D01*
X87720000Y-106460000D02*
X87720000Y-105284700D01*
%TO.N,D15*%
X60365000Y-124374500D02*
X60365000Y-123673500D01*
X60365000Y-123673500D02*
X66429100Y-117609400D01*
%TO.N,A15*%
X85180000Y-106460000D02*
X85180000Y-105284700D01*
X85180000Y-105284700D02*
X85219700Y-105284700D01*
X85219700Y-105284700D02*
X86916900Y-103587500D01*
X136535000Y-124755500D02*
X136535000Y-111368200D01*
X136535000Y-111368200D02*
X136564700Y-111338500D01*
%TO.N,D14*%
X59715000Y-124374500D02*
X59715000Y-119510100D01*
X59715000Y-119510100D02*
X62995800Y-116229300D01*
%TO.N,A14*%
X82640000Y-106460000D02*
X82640000Y-103831700D01*
X82640000Y-103831700D02*
X83308500Y-103163200D01*
X135885000Y-124755500D02*
X135839400Y-124709900D01*
X135839400Y-124709900D02*
X135839400Y-109052800D01*
X135839400Y-109052800D02*
X133870000Y-107083400D01*
%TO.N,D13*%
X59065000Y-124374500D02*
X59065000Y-119109800D01*
X59065000Y-119109800D02*
X63476100Y-114698700D01*
X63476100Y-114698700D02*
X63747700Y-114698700D01*
%TO.N,A13*%
X135235000Y-124755500D02*
X135235000Y-109634300D01*
X135235000Y-109634300D02*
X128893700Y-103293000D01*
X128893700Y-103293000D02*
X126123700Y-103293000D01*
X126123700Y-103293000D02*
X124531700Y-104885000D01*
X124531700Y-104885000D02*
X124531700Y-108188600D01*
%TO.N,D12*%
X58415000Y-124374500D02*
X58415000Y-118583900D01*
X58415000Y-118583900D02*
X62806000Y-114192900D01*
%TO.N,A12*%
X134585000Y-124755500D02*
X134585000Y-110045400D01*
X134585000Y-110045400D02*
X130134800Y-105595200D01*
%TO.N,D11*%
X57765000Y-124374500D02*
X57765000Y-117617800D01*
X57765000Y-117617800D02*
X61935300Y-113447500D01*
%TO.N,A11*%
X133935000Y-124755500D02*
X133935000Y-110552000D01*
X133935000Y-110552000D02*
X128547400Y-105164400D01*
X128547400Y-105164400D02*
X128547400Y-104749500D01*
%TO.N,D10*%
X57115000Y-124374500D02*
X57115000Y-116525800D01*
X57115000Y-116525800D02*
X61755700Y-111885100D01*
%TO.N,A10*%
X132635000Y-124755500D02*
X132635000Y-110195400D01*
X132635000Y-110195400D02*
X126462600Y-104023000D01*
%TO.N,D9*%
X56465000Y-124374500D02*
X56465000Y-115438100D01*
X56465000Y-115438100D02*
X59461900Y-112441200D01*
%TO.N,A9*%
X71115300Y-106460000D02*
X71115300Y-106827400D01*
X71115300Y-106827400D02*
X71923200Y-107635300D01*
X71923200Y-107635300D02*
X72816300Y-107635300D01*
X72816300Y-107635300D02*
X73750000Y-108569000D01*
X73750000Y-108569000D02*
X73750000Y-109472700D01*
X73750000Y-109472700D02*
X76617100Y-112339800D01*
X76617100Y-112339800D02*
X81362900Y-112339800D01*
X81362900Y-112339800D02*
X84223900Y-115200800D01*
X84223900Y-115200800D02*
X84701700Y-115200800D01*
X84701700Y-115200800D02*
X93566400Y-124065500D01*
X93566400Y-124065500D02*
X93566400Y-124755500D01*
X69940000Y-106460000D02*
X71115300Y-106460000D01*
%TO.N,D8*%
X55165000Y-124374500D02*
X55165000Y-114383800D01*
X55165000Y-114383800D02*
X57107600Y-112441200D01*
%TO.N,A8*%
X67400000Y-107635300D02*
X67767400Y-107635300D01*
X67767400Y-107635300D02*
X68575300Y-108443200D01*
X68575300Y-108443200D02*
X68575300Y-109359100D01*
X68575300Y-109359100D02*
X69612300Y-110396100D01*
X69612300Y-110396100D02*
X74007000Y-110396100D01*
X74007000Y-110396100D02*
X76401000Y-112790100D01*
X76401000Y-112790100D02*
X81176300Y-112790100D01*
X81176300Y-112790100D02*
X84037300Y-115651100D01*
X84037300Y-115651100D02*
X84503900Y-115651100D01*
X84503900Y-115651100D02*
X92916400Y-124063600D01*
X92916400Y-124063600D02*
X92916400Y-124755500D01*
X67400000Y-106460000D02*
X67400000Y-107635300D01*
%TO.N,D7*%
X126768000Y-124755500D02*
X126768000Y-107080400D01*
X126768000Y-107080400D02*
X126039100Y-106351500D01*
%TO.N,A7*%
X64860000Y-107635300D02*
X65227400Y-107635300D01*
X65227400Y-107635300D02*
X66035300Y-108443200D01*
X66035300Y-108443200D02*
X66035300Y-109362400D01*
X66035300Y-109362400D02*
X67519300Y-110846400D01*
X67519300Y-110846400D02*
X73820400Y-110846400D01*
X73820400Y-110846400D02*
X76214400Y-113240400D01*
X76214400Y-113240400D02*
X80989700Y-113240400D01*
X80989700Y-113240400D02*
X83850700Y-116101400D01*
X83850700Y-116101400D02*
X84314500Y-116101400D01*
X84314500Y-116101400D02*
X92266400Y-124053300D01*
X92266400Y-124053300D02*
X92266400Y-124755500D01*
X64860000Y-106460000D02*
X64860000Y-107635300D01*
%TO.N,D6*%
X126118000Y-124755500D02*
X126118000Y-110869500D01*
X126118000Y-110869500D02*
X123806400Y-108557900D01*
X123806400Y-108557900D02*
X123806400Y-102187000D01*
X123806400Y-102187000D02*
X124238800Y-101754600D01*
X124238800Y-101754600D02*
X124238800Y-101153600D01*
X124238800Y-101153600D02*
X123717100Y-100631900D01*
X123717100Y-100631900D02*
X122721500Y-100631900D01*
X122721500Y-100631900D02*
X122721500Y-100631800D01*
%TO.N,A6*%
X91616400Y-124755500D02*
X91616400Y-125469300D01*
X91616400Y-125469300D02*
X90766700Y-126319000D01*
X90766700Y-126319000D02*
X85360300Y-126319000D01*
X85360300Y-126319000D02*
X74281000Y-115239700D01*
X62320000Y-106460000D02*
X63495300Y-106460000D01*
X63495300Y-106460000D02*
X63495300Y-106092700D01*
X63495300Y-106092700D02*
X64372400Y-105215600D01*
X64372400Y-105215600D02*
X72982200Y-105215600D01*
X72982200Y-105215600D02*
X73750000Y-105983400D01*
X73750000Y-105983400D02*
X73750000Y-106881900D01*
X73750000Y-106881900D02*
X74580200Y-107712100D01*
X74580200Y-107712100D02*
X75433100Y-107712100D01*
X75433100Y-107712100D02*
X76195400Y-108474400D01*
X76195400Y-108474400D02*
X76195400Y-109406300D01*
X76195400Y-109406300D02*
X78376500Y-111587400D01*
%TO.N,D5*%
X125468000Y-124755500D02*
X125468000Y-114018500D01*
X125468000Y-114018500D02*
X123354200Y-111904700D01*
X123354200Y-111904700D02*
X123354200Y-101613400D01*
X123354200Y-101613400D02*
X123513500Y-101454100D01*
%TO.N,A5*%
X90966400Y-124755500D02*
X90966400Y-124021600D01*
X90966400Y-124021600D02*
X80635500Y-113690700D01*
X80635500Y-113690700D02*
X76027800Y-113690700D01*
X76027800Y-113690700D02*
X73633800Y-111296700D01*
X73633800Y-111296700D02*
X65478200Y-111296700D01*
X65478200Y-111296700D02*
X63590000Y-109408500D01*
X63590000Y-109408500D02*
X63590000Y-108569000D01*
X63590000Y-108569000D02*
X62656300Y-107635300D01*
X62656300Y-107635300D02*
X61763200Y-107635300D01*
X61763200Y-107635300D02*
X60955300Y-106827400D01*
X60955300Y-106827400D02*
X60955300Y-106460000D01*
X59780000Y-106460000D02*
X60955300Y-106460000D01*
%TO.N,D4*%
X124818000Y-124755500D02*
X124818000Y-115090900D01*
X124818000Y-115090900D02*
X122469500Y-112742400D01*
X122469500Y-112742400D02*
X122469500Y-103434600D01*
X122469500Y-103434600D02*
X121894300Y-102859400D01*
X121894300Y-102859400D02*
X121894300Y-98922900D01*
%TO.N,A4*%
X90316400Y-124755500D02*
X90316400Y-124039700D01*
X90316400Y-124039700D02*
X80417700Y-114141000D01*
X80417700Y-114141000D02*
X75492400Y-114141000D01*
X75492400Y-114141000D02*
X73098500Y-111747100D01*
X73098500Y-111747100D02*
X63437300Y-111747100D01*
X63437300Y-111747100D02*
X61987400Y-110297200D01*
X61987400Y-110297200D02*
X61872100Y-110297200D01*
X61872100Y-110297200D02*
X61050000Y-109475100D01*
X61050000Y-109475100D02*
X61050000Y-108599000D01*
X61050000Y-108599000D02*
X60086300Y-107635300D01*
X60086300Y-107635300D02*
X59223200Y-107635300D01*
X59223200Y-107635300D02*
X58415300Y-106827400D01*
X58415300Y-106827400D02*
X58415300Y-106460000D01*
X57240000Y-106460000D02*
X58415300Y-106460000D01*
%TO.N,D3*%
X124168000Y-124755500D02*
X124168000Y-115526800D01*
X124168000Y-115526800D02*
X121999000Y-113357800D01*
X121999000Y-113357800D02*
X121999000Y-104621300D01*
X121999000Y-104621300D02*
X121127900Y-103750200D01*
X121127900Y-103750200D02*
X121127900Y-97021900D01*
X57240000Y-109000000D02*
X56064700Y-109000000D01*
X54265900Y-111236200D02*
X56064700Y-109437400D01*
X56064700Y-109437400D02*
X56064700Y-109000000D01*
%TO.N,A3*%
X55875300Y-106460000D02*
X55875300Y-106827400D01*
X55875300Y-106827400D02*
X56683200Y-107635300D01*
X56683200Y-107635300D02*
X57599200Y-107635300D01*
X57599200Y-107635300D02*
X58415400Y-108451500D01*
X58415400Y-108451500D02*
X58415400Y-109297700D01*
X58415400Y-109297700D02*
X59865200Y-110747500D01*
X59865200Y-110747500D02*
X61800700Y-110747500D01*
X61800700Y-110747500D02*
X64698900Y-113645700D01*
X64698900Y-113645700D02*
X73723200Y-113645700D01*
X73723200Y-113645700D02*
X85939500Y-125862000D01*
X85939500Y-125862000D02*
X89251600Y-125862000D01*
X89251600Y-125862000D02*
X89666400Y-125447200D01*
X89666400Y-125447200D02*
X89666400Y-124755500D01*
X54700000Y-106460000D02*
X55875300Y-106460000D01*
%TO.N,D2*%
X123518000Y-124755500D02*
X123518000Y-115518400D01*
X123518000Y-115518400D02*
X119470000Y-111470400D01*
X119470000Y-111470400D02*
X119470000Y-98021400D01*
X119470000Y-98021400D02*
X119195800Y-97747200D01*
%TO.N,A2*%
X67255900Y-112823700D02*
X73538200Y-112823700D01*
X73538200Y-112823700D02*
X85972000Y-125257500D01*
X85972000Y-125257500D02*
X87864400Y-125257500D01*
X87864400Y-125257500D02*
X88366400Y-124755500D01*
%TO.N,D1*%
X122868000Y-124755500D02*
X122868000Y-124057700D01*
X122868000Y-124057700D02*
X122502400Y-123692100D01*
X122502400Y-123692100D02*
X121292300Y-123692100D01*
X121292300Y-123692100D02*
X121135200Y-123849200D01*
X121135200Y-123849200D02*
X110821300Y-123849200D01*
X110821300Y-123849200D02*
X106770000Y-119797900D01*
X106770000Y-119797900D02*
X106770000Y-106061500D01*
X106770000Y-106061500D02*
X99857000Y-99148500D01*
X99857000Y-99148500D02*
X55267300Y-99148500D01*
X55267300Y-99148500D02*
X48407100Y-106008700D01*
X48407100Y-106008700D02*
X48407100Y-109476700D01*
X48407100Y-109476700D02*
X49129700Y-110199300D01*
X49129700Y-110199300D02*
X50960700Y-110199300D01*
X50960700Y-110199300D02*
X52160000Y-109000000D01*
%TO.N,A1*%
X71432100Y-124501500D02*
X71432100Y-123812000D01*
X71432100Y-123812000D02*
X72652600Y-122591500D01*
X72652600Y-122591500D02*
X72652600Y-119076800D01*
X72652600Y-119076800D02*
X71930500Y-118354700D01*
%TO.N,D0*%
X121568000Y-124755500D02*
X111090700Y-124755500D01*
X111090700Y-124755500D02*
X104230000Y-117894800D01*
X104230000Y-117894800D02*
X104230000Y-106018400D01*
X104230000Y-106018400D02*
X97810400Y-99598800D01*
X97810400Y-99598800D02*
X59860500Y-99598800D01*
X59860500Y-99598800D02*
X53335400Y-106123900D01*
X53335400Y-106123900D02*
X53335400Y-106985600D01*
X53335400Y-106985600D02*
X52496300Y-107824700D01*
X52496300Y-107824700D02*
X51603200Y-107824700D01*
X51603200Y-107824700D02*
X50795300Y-108632600D01*
X50795300Y-108632600D02*
X50795300Y-109000000D01*
X49620000Y-109000000D02*
X50795300Y-109000000D01*
%TO.N,GPIO0*%
X50795300Y-48000000D02*
X50795300Y-48367300D01*
X50795300Y-48367300D02*
X54099100Y-51671100D01*
X54099100Y-51671100D02*
X67856400Y-51671100D01*
X49620000Y-48000000D02*
X50795300Y-48000000D01*
%TO.N,GPIO27*%
X112920000Y-34000000D02*
X111734600Y-32814600D01*
X111734600Y-32814600D02*
X111734600Y-30978600D01*
X111734600Y-30978600D02*
X112481900Y-30231300D01*
X112481900Y-30231300D02*
X115959100Y-30231300D01*
X115959100Y-30231300D02*
X116824700Y-31096900D01*
X116824700Y-31096900D02*
X116824700Y-38623600D01*
X116824700Y-38623600D02*
X125242000Y-47040900D01*
X125242000Y-47040900D02*
X125242000Y-48972700D01*
%TO.N,GPIO1*%
X195020000Y-45460000D02*
X193844700Y-45460000D01*
X52160000Y-48000000D02*
X52160000Y-46824700D01*
X52160000Y-46824700D02*
X52527400Y-46824700D01*
X52527400Y-46824700D02*
X53335300Y-46016800D01*
X53335300Y-46016800D02*
X53335300Y-45097400D01*
X53335300Y-45097400D02*
X68698900Y-29733800D01*
X68698900Y-29733800D02*
X178485800Y-29733800D01*
X178485800Y-29733800D02*
X193844700Y-45092700D01*
X193844700Y-45092700D02*
X193844700Y-45460000D01*
%TO.N,GPIO28*%
X72480000Y-45460000D02*
X72480000Y-44284700D01*
X110380000Y-34000000D02*
X109110000Y-32730000D01*
X109110000Y-32730000D02*
X109110000Y-31048700D01*
X109110000Y-31048700D02*
X108323400Y-30262100D01*
X108323400Y-30262100D02*
X81937300Y-30262100D01*
X81937300Y-30262100D02*
X81152100Y-31047300D01*
X81152100Y-31047300D02*
X81152100Y-31940600D01*
X81152100Y-31940600D02*
X80268100Y-32824600D01*
X80268100Y-32824600D02*
X76870600Y-32824600D01*
X76870600Y-32824600D02*
X76184600Y-33510600D01*
X76184600Y-33510600D02*
X76184600Y-40580100D01*
X76184600Y-40580100D02*
X72480000Y-44284700D01*
%TO.N,GPIO2*%
X163364700Y-48000000D02*
X163364700Y-47191900D01*
X163364700Y-47191900D02*
X162997500Y-46824700D01*
X162997500Y-46824700D02*
X161015200Y-46824700D01*
X161015200Y-46824700D02*
X153764300Y-54075600D01*
X153764300Y-54075600D02*
X153764300Y-57049300D01*
X164540000Y-48000000D02*
X163364700Y-48000000D01*
%TO.N,GPIO3*%
X165904700Y-48000000D02*
X165904700Y-48367400D01*
X165904700Y-48367400D02*
X157644800Y-56627300D01*
X157644800Y-56627300D02*
X156570300Y-56627300D01*
X167080000Y-48000000D02*
X165904700Y-48000000D01*
%TO.N,GPIO4*%
X168444700Y-48000000D02*
X168444700Y-48369900D01*
X168444700Y-48369900D02*
X162200200Y-54614400D01*
X169620000Y-48000000D02*
X168444700Y-48000000D01*
%TO.N,GPIO8*%
X189940000Y-45460000D02*
X189940000Y-44284700D01*
X189940000Y-44284700D02*
X189702800Y-44284700D01*
X189702800Y-44284700D02*
X184425200Y-39007100D01*
%TO.N,GPIO38*%
X77560000Y-45460000D02*
X77560000Y-44284700D01*
X87520000Y-31460000D02*
X86344700Y-31460000D01*
X86344700Y-31460000D02*
X86344700Y-31827400D01*
X86344700Y-31827400D02*
X85536800Y-32635300D01*
X85536800Y-32635300D02*
X82103700Y-32635300D01*
X82103700Y-32635300D02*
X81170000Y-33569000D01*
X81170000Y-33569000D02*
X81170000Y-40674700D01*
X81170000Y-40674700D02*
X77560000Y-44284700D01*
%TO.N,GPIO39*%
X81275300Y-45460000D02*
X81275300Y-44945800D01*
X81275300Y-44945800D02*
X84080500Y-42140600D01*
X84080500Y-42140600D02*
X84686300Y-42140600D01*
X84686300Y-42140600D02*
X88884700Y-37942200D01*
X88884700Y-37942200D02*
X88884700Y-33443200D01*
X88884700Y-33443200D02*
X89692600Y-32635300D01*
X89692600Y-32635300D02*
X90060000Y-32635300D01*
X80100000Y-45460000D02*
X81275300Y-45460000D01*
X90060000Y-31460000D02*
X90060000Y-32635300D01*
%TO.N,GPIO13*%
X82640000Y-49175300D02*
X87079200Y-53614500D01*
X82640000Y-48000000D02*
X82640000Y-49175300D01*
%TO.N,GPIO40*%
X82640000Y-44284700D02*
X83179100Y-44284700D01*
X83179100Y-44284700D02*
X91424700Y-36039100D01*
X91424700Y-36039100D02*
X91424700Y-33443200D01*
X91424700Y-33443200D02*
X92232600Y-32635300D01*
X92232600Y-32635300D02*
X92600000Y-32635300D01*
X82640000Y-45460000D02*
X82640000Y-44284700D01*
X92600000Y-31460000D02*
X92600000Y-32635300D01*
%TO.N,GPIO14*%
X85180000Y-48000000D02*
X86355300Y-48000000D01*
X86355300Y-48000000D02*
X86355300Y-47632700D01*
X86355300Y-47632700D02*
X87315100Y-46672900D01*
X87315100Y-46672900D02*
X101928400Y-46672900D01*
%TO.N,GPIO41*%
X85180000Y-45460000D02*
X85180000Y-44284700D01*
X95140000Y-31460000D02*
X95140000Y-32635300D01*
X95140000Y-32635300D02*
X94772600Y-32635300D01*
X94772600Y-32635300D02*
X93964700Y-33443200D01*
X93964700Y-33443200D02*
X93964700Y-35500000D01*
X93964700Y-35500000D02*
X85180000Y-44284700D01*
%TO.N,GPIO42*%
X87720000Y-45460000D02*
X88895300Y-45460000D01*
X97680000Y-31460000D02*
X97680000Y-32635300D01*
X97680000Y-32635300D02*
X98047300Y-32635300D01*
X98047300Y-32635300D02*
X98893800Y-33481800D01*
X98893800Y-33481800D02*
X98893800Y-34461400D01*
X98893800Y-34461400D02*
X88895300Y-44459900D01*
X88895300Y-44459900D02*
X88895300Y-45460000D01*
%TO.N,GPIO16*%
X91435300Y-48000000D02*
X91435300Y-48609800D01*
X91435300Y-48609800D02*
X98029900Y-55204400D01*
X98029900Y-55204400D02*
X101926100Y-55204400D01*
X101926100Y-55204400D02*
X103120200Y-54010300D01*
X103120200Y-54010300D02*
X103120200Y-52884400D01*
X103120200Y-52884400D02*
X106770000Y-49234600D01*
X106770000Y-49234600D02*
X106770000Y-41551500D01*
X106770000Y-41551500D02*
X108939800Y-39381700D01*
X90260000Y-48000000D02*
X91435300Y-48000000D01*
%TO.N,GPIO43*%
X90260000Y-45460000D02*
X91435300Y-45460000D01*
X100220000Y-31460000D02*
X100220000Y-32635300D01*
X100220000Y-32635300D02*
X100587300Y-32635300D01*
X100587300Y-32635300D02*
X101437200Y-33485200D01*
X101437200Y-33485200D02*
X101437200Y-34446100D01*
X101437200Y-34446100D02*
X91435300Y-44448000D01*
X91435300Y-44448000D02*
X91435300Y-45460000D01*
%TO.N,GPIO44*%
X92800000Y-45460000D02*
X93975300Y-45460000D01*
X102760000Y-31460000D02*
X102760000Y-32635300D01*
X102760000Y-32635300D02*
X103127300Y-32635300D01*
X103127300Y-32635300D02*
X103975100Y-33483100D01*
X103975100Y-33483100D02*
X103975100Y-34458300D01*
X103975100Y-34458300D02*
X93975300Y-44458100D01*
X93975300Y-44458100D02*
X93975300Y-45460000D01*
%TO.N,GPIO45*%
X95340000Y-45460000D02*
X96515300Y-45460000D01*
X105300000Y-31460000D02*
X105300000Y-32635300D01*
X105300000Y-32635300D02*
X105667300Y-32635300D01*
X105667300Y-32635300D02*
X106517200Y-33485200D01*
X106517200Y-33485200D02*
X106517200Y-34508600D01*
X106517200Y-34508600D02*
X96515300Y-44510500D01*
X96515300Y-44510500D02*
X96515300Y-45460000D01*
%TO.N,GPIO19*%
X97880000Y-48000000D02*
X97880000Y-54028800D01*
%TO.N,GPIO46*%
X97880000Y-45460000D02*
X99055300Y-45460000D01*
X107840000Y-31460000D02*
X107840000Y-32635300D01*
X107840000Y-32635300D02*
X108142900Y-32635300D01*
X108142900Y-32635300D02*
X109057200Y-33549600D01*
X109057200Y-33549600D02*
X109057200Y-34521700D01*
X109057200Y-34521700D02*
X99055300Y-44523600D01*
X99055300Y-44523600D02*
X99055300Y-45460000D01*
%TO.N,GPIO20*%
X206544700Y-45460000D02*
X206544700Y-45827400D01*
X206544700Y-45827400D02*
X205736800Y-46635300D01*
X205736800Y-46635300D02*
X204843700Y-46635300D01*
X204843700Y-46635300D02*
X203910000Y-47569000D01*
X203910000Y-47569000D02*
X203910000Y-48472700D01*
X203910000Y-48472700D02*
X202657500Y-49725200D01*
X202657500Y-49725200D02*
X181554100Y-49725200D01*
X207720000Y-45460000D02*
X206544700Y-45460000D01*
%TO.N,GPIO47*%
X110380000Y-32635300D02*
X110682900Y-32635300D01*
X110682900Y-32635300D02*
X111597200Y-33549600D01*
X111597200Y-33549600D02*
X111597200Y-34445600D01*
X111597200Y-34445600D02*
X108287000Y-37755800D01*
X108287000Y-37755800D02*
X108266200Y-37755800D01*
X108266200Y-37755800D02*
X101595300Y-44426700D01*
X101595300Y-44426700D02*
X101595300Y-45460000D01*
X100420000Y-45460000D02*
X101595300Y-45460000D01*
X110380000Y-31460000D02*
X110380000Y-32635300D01*
%TO.N,GPIO21*%
X102960000Y-49175300D02*
X101625600Y-50509700D01*
X101625600Y-50509700D02*
X101625600Y-54479100D01*
X102960000Y-48000000D02*
X102960000Y-49175300D01*
%TO.N,GPIO48*%
X112920000Y-32635300D02*
X113287300Y-32635300D01*
X113287300Y-32635300D02*
X114135100Y-33483100D01*
X114135100Y-33483100D02*
X114135100Y-34473100D01*
X114135100Y-34473100D02*
X112548900Y-36059300D01*
X112548900Y-36059300D02*
X110985200Y-36059300D01*
X110985200Y-36059300D02*
X108838500Y-38206000D01*
X108838500Y-38206000D02*
X108838500Y-38206100D01*
X108838500Y-38206100D02*
X108452800Y-38206100D01*
X108452800Y-38206100D02*
X102960000Y-43698900D01*
X102960000Y-43698900D02*
X102960000Y-44284700D01*
X102960000Y-45460000D02*
X102960000Y-44284700D01*
X112920000Y-31460000D02*
X112920000Y-32635300D01*
%TO.N,GPIO22*%
X115660000Y-46824700D02*
X115346500Y-46824700D01*
X115346500Y-46824700D02*
X114390000Y-45868200D01*
X114390000Y-45868200D02*
X114390000Y-41316900D01*
X114390000Y-41316900D02*
X113109700Y-40036600D01*
X84980000Y-34000000D02*
X84980000Y-40541100D01*
X84980000Y-40541100D02*
X85064800Y-40625900D01*
X115660000Y-48000000D02*
X115660000Y-46824700D01*
%TO.N,BR*%
X111088500Y-123051500D02*
X111278300Y-123241300D01*
X111278300Y-123241300D02*
X114348600Y-123241300D01*
X114348600Y-123241300D02*
X116840100Y-120749800D01*
X116840100Y-120749800D02*
X116840100Y-44176500D01*
X116840100Y-44176500D02*
X115009600Y-42346000D01*
X115009600Y-42346000D02*
X115009600Y-39746500D01*
X115009600Y-39746500D02*
X111772700Y-36509600D01*
X111772700Y-36509600D02*
X111171800Y-36509600D01*
X111171800Y-36509600D02*
X110746900Y-36934500D01*
X110746900Y-36934500D02*
X110746900Y-37042200D01*
X110746900Y-37042200D02*
X109132700Y-38656400D01*
X109132700Y-38656400D02*
X108639400Y-38656400D01*
X108639400Y-38656400D02*
X105500000Y-41795800D01*
X105500000Y-41795800D02*
X105500000Y-45460000D01*
%TO.N,GPIO23*%
X113120000Y-48000000D02*
X113120000Y-46824700D01*
X113120000Y-46824700D02*
X112752600Y-46824700D01*
X112752600Y-46824700D02*
X111944700Y-46016800D01*
X111944700Y-46016800D02*
X111944700Y-42241100D01*
X111944700Y-42241100D02*
X110467800Y-40764200D01*
X82440000Y-34000000D02*
X82440000Y-39469500D01*
X82440000Y-39469500D02*
X84385800Y-41415300D01*
%TO.N,BG*%
X110468200Y-122257000D02*
X109400700Y-121189500D01*
X109400700Y-121189500D02*
X109400700Y-101558900D01*
X109400700Y-101558900D02*
X109899500Y-101060100D01*
X109899500Y-101060100D02*
X109899500Y-100418500D01*
X109899500Y-100418500D02*
X109310000Y-99829000D01*
X109310000Y-99829000D02*
X109310000Y-47591800D01*
X109310000Y-47591800D02*
X108353500Y-46635300D01*
X108353500Y-46635300D02*
X108040000Y-46635300D01*
X108040000Y-45460000D02*
X108040000Y-46635300D01*
%TO.N,GPIO24*%
X177357500Y-38281700D02*
X182320000Y-43244200D01*
X182320000Y-43244200D02*
X182320000Y-45460000D01*
X110580000Y-48000000D02*
X109374600Y-46794600D01*
X109374600Y-46794600D02*
X109374600Y-39972700D01*
X109374600Y-39972700D02*
X111472200Y-37875100D01*
X111472200Y-37875100D02*
X111472200Y-37234900D01*
%TO.N,FC0*%
X110580000Y-46635300D02*
X110947400Y-46635300D01*
X110947400Y-46635300D02*
X111755300Y-47443200D01*
X111755300Y-47443200D02*
X111755300Y-121281700D01*
X111755300Y-121281700D02*
X112989500Y-122515900D01*
X110580000Y-45460000D02*
X110580000Y-46635300D01*
%TO.N,GPIO25*%
X77360000Y-34000000D02*
X77360000Y-43847800D01*
X77360000Y-43847800D02*
X76349500Y-44858300D01*
X76349500Y-44858300D02*
X76349500Y-45914300D01*
X76349500Y-45914300D02*
X77165200Y-46730000D01*
X77165200Y-46730000D02*
X83124700Y-46730000D01*
X83124700Y-46730000D02*
X83815400Y-47420700D01*
X83815400Y-47420700D02*
X83815400Y-48308900D01*
X83815400Y-48308900D02*
X91161200Y-55654700D01*
X91161200Y-55654700D02*
X102112700Y-55654700D01*
X102112700Y-55654700D02*
X103729800Y-54037600D01*
X103729800Y-54037600D02*
X103729800Y-53303500D01*
X103729800Y-53303500D02*
X108040000Y-48993300D01*
X108040000Y-48993300D02*
X108040000Y-48000000D01*
X187400000Y-45460000D02*
X187400000Y-44284700D01*
X187400000Y-44284700D02*
X180658300Y-37543000D01*
X180658300Y-37543000D02*
X167622100Y-37543000D01*
X167622100Y-37543000D02*
X160585300Y-44579800D01*
%TO.N,FC1*%
X113120000Y-45460000D02*
X114305800Y-46645800D01*
X114305800Y-46645800D02*
X114305800Y-122200000D01*
X114305800Y-122200000D02*
X113989900Y-122515900D01*
%TO.N,GPIO26*%
X206544700Y-48000000D02*
X206544700Y-48367300D01*
X206544700Y-48367300D02*
X204451900Y-50460100D01*
X204451900Y-50460100D02*
X180162300Y-50460100D01*
X180162300Y-50460100D02*
X180045700Y-50343500D01*
X74820000Y-35175300D02*
X71304600Y-38690700D01*
X71304600Y-38690700D02*
X71304600Y-46019600D01*
X71304600Y-46019600D02*
X71920400Y-46635400D01*
X71920400Y-46635400D02*
X75319600Y-46635400D01*
X75319600Y-46635400D02*
X76290000Y-47605800D01*
X76290000Y-47605800D02*
X76290000Y-48461000D01*
X76290000Y-48461000D02*
X83934000Y-56105000D01*
X83934000Y-56105000D02*
X102299300Y-56105000D01*
X102299300Y-56105000D02*
X108354500Y-50049800D01*
X108354500Y-50049800D02*
X108354500Y-49710000D01*
X207720000Y-48000000D02*
X206544700Y-48000000D01*
X74820000Y-34000000D02*
X74820000Y-35175300D01*
%TO.N,FC2*%
X120522900Y-43515800D02*
X122648000Y-45640900D01*
X122648000Y-45640900D02*
X122648000Y-48564300D01*
X122648000Y-48564300D02*
X139048100Y-64964400D01*
X139048100Y-64964400D02*
X139048100Y-125566400D01*
X139048100Y-125566400D02*
X138119200Y-126495300D01*
X138119200Y-126495300D02*
X124806400Y-126495300D01*
X124806400Y-126495300D02*
X122543100Y-128758600D01*
%TO.N,GND*%
X75899200Y-128949200D02*
X76492300Y-129542300D01*
X76492300Y-129542300D02*
X76492300Y-130474600D01*
X78950000Y-132000000D02*
X77424600Y-130474600D01*
X77424600Y-130474600D02*
X76492300Y-130474600D01*
X72435300Y-129873300D02*
X72435300Y-129873400D01*
X72435300Y-129873400D02*
X74151600Y-129873400D01*
X74151600Y-129873400D02*
X75075800Y-128949200D01*
X75075800Y-128949200D02*
X75899200Y-128949200D01*
X76000000Y-128025000D02*
X75899200Y-128125800D01*
X75899200Y-128125800D02*
X75899200Y-128949200D01*
X39824000Y-144000000D02*
X39824000Y-139864700D01*
X53875000Y-126356900D02*
X46786200Y-119268100D01*
X46786200Y-119268100D02*
X46786200Y-109000000D01*
X61015000Y-129353900D02*
X58018000Y-126356900D01*
X58018000Y-126356900D02*
X53875000Y-126356900D01*
X39824000Y-139864700D02*
X40367200Y-139864700D01*
X40367200Y-139864700D02*
X53875000Y-126356900D01*
X45904700Y-45827400D02*
X45904700Y-45460000D01*
X43175300Y-46241900D02*
X43568700Y-46635300D01*
X43568700Y-46635300D02*
X45096800Y-46635300D01*
X45096800Y-46635300D02*
X45904700Y-45827400D01*
X45904700Y-45827400D02*
X46902000Y-46824700D01*
X46902000Y-46824700D02*
X47080000Y-46824700D01*
X47080000Y-48000000D02*
X47080000Y-46824700D01*
X43175300Y-46241900D02*
X42592500Y-46824700D01*
X42592500Y-46824700D02*
X42000000Y-46824700D01*
X43175300Y-45460000D02*
X43175300Y-46241900D01*
X47080000Y-45460000D02*
X45904700Y-45460000D01*
X42000000Y-106460000D02*
X42000000Y-48000000D01*
X42000000Y-107790700D02*
X42000000Y-106460000D01*
X42000000Y-48000000D02*
X42000000Y-46824700D01*
X42000000Y-45460000D02*
X43175300Y-45460000D01*
X47080000Y-106460000D02*
X47080000Y-107635300D01*
X46492400Y-107790700D02*
X46647800Y-107635300D01*
X46647800Y-107635300D02*
X47080000Y-107635300D01*
X42000000Y-107790700D02*
X46492400Y-107790700D01*
X46492400Y-109000000D02*
X46492400Y-107790700D01*
X42000000Y-107790700D02*
X42000000Y-109000000D01*
X202640000Y-45460000D02*
X201464700Y-45460000D01*
X196972400Y-45460000D02*
X198147700Y-46635300D01*
X198147700Y-46635300D02*
X200656800Y-46635300D01*
X200656800Y-46635300D02*
X201464700Y-45827400D01*
X201464700Y-45827400D02*
X201464700Y-45460000D01*
X196972400Y-45460000D02*
X196384700Y-45460000D01*
X197560000Y-45460000D02*
X196972400Y-45460000D01*
X192480000Y-47412300D02*
X191703000Y-46635300D01*
X191703000Y-46635300D02*
X186843200Y-46635300D01*
X186843200Y-46635300D02*
X186035300Y-45827400D01*
X186035300Y-45827400D02*
X186035300Y-45460000D01*
X192480000Y-48000000D02*
X192480000Y-47412300D01*
X192480000Y-47412300D02*
X193257000Y-46635300D01*
X193257000Y-46635300D02*
X195576800Y-46635300D01*
X195576800Y-46635300D02*
X196384700Y-45827400D01*
X196384700Y-45827400D02*
X196384700Y-45460000D01*
X128140300Y-130480500D02*
X128140300Y-133344600D01*
X128140300Y-133344600D02*
X125401400Y-136083500D01*
X125401400Y-136083500D02*
X123742300Y-136083500D01*
X123742300Y-136083500D02*
X119615900Y-131957100D01*
X119615900Y-131957100D02*
X119615900Y-131632000D01*
X119615900Y-131632000D02*
X118789900Y-130806000D01*
X118789900Y-130806000D02*
X112144000Y-130806000D01*
X112144000Y-130806000D02*
X111950000Y-131000000D01*
X115460000Y-34000000D02*
X115460000Y-41544700D01*
X115460000Y-41544700D02*
X118200000Y-44284700D01*
X138485000Y-130480500D02*
X138485000Y-129738800D01*
X138485000Y-129738800D02*
X137663200Y-128917000D01*
X137663200Y-128917000D02*
X129703800Y-128917000D01*
X129703800Y-128917000D02*
X128140300Y-130480500D01*
X118200000Y-45460000D02*
X118200000Y-44284700D01*
X118200000Y-48000000D02*
X118200000Y-45460000D01*
X127418000Y-130480500D02*
X128140300Y-130480500D01*
X111950000Y-131000000D02*
X111950000Y-132000000D01*
X109000000Y-128050000D02*
X111950000Y-131000000D01*
X105284000Y-129787000D02*
X104866500Y-129369500D01*
X104866500Y-129369500D02*
X100720900Y-129369500D01*
X100720900Y-129369500D02*
X100270600Y-128919200D01*
X100270600Y-128919200D02*
X98946700Y-128919200D01*
X98946700Y-128919200D02*
X98496400Y-129369500D01*
X98496400Y-129369500D02*
X95327400Y-129369500D01*
X95327400Y-129369500D02*
X94581900Y-130115000D01*
X105284000Y-130480500D02*
X105284000Y-129787000D01*
X105284000Y-129787000D02*
X107263000Y-129787000D01*
X107263000Y-129787000D02*
X109000000Y-128050000D01*
X93164000Y-144000000D02*
X93164000Y-139864700D01*
X79354600Y-131985600D02*
X78964400Y-131985600D01*
X78964400Y-131985600D02*
X78950000Y-132000000D01*
X93164000Y-139864700D02*
X84252900Y-130953600D01*
X84252900Y-130953600D02*
X82989500Y-130953600D01*
X82989500Y-130953600D02*
X82346500Y-131596600D01*
X82346500Y-131596600D02*
X82346500Y-132282500D01*
X82346500Y-132282500D02*
X81589800Y-133039200D01*
X81589800Y-133039200D02*
X80408200Y-133039200D01*
X80408200Y-133039200D02*
X79354600Y-131985600D01*
X94581900Y-130115000D02*
X93874400Y-129407600D01*
X93874400Y-129407600D02*
X91603300Y-129407600D01*
X91603300Y-129407600D02*
X91153000Y-128957300D01*
X91153000Y-128957300D02*
X82382900Y-128957300D01*
X82382900Y-128957300D02*
X79354600Y-131985600D01*
X72435300Y-129873300D02*
X71694900Y-129133000D01*
X71694900Y-129133000D02*
X61235900Y-129133000D01*
X61235900Y-129133000D02*
X61015000Y-129353900D01*
X72082100Y-130226500D02*
X72435300Y-129873300D01*
X61015000Y-130099500D02*
X61015000Y-129353900D01*
X169364000Y-144000000D02*
X169364000Y-133340000D01*
X169364000Y-133340000D02*
X167864800Y-131840800D01*
X146504000Y-144000000D02*
X146504000Y-138499500D01*
X146504000Y-138499500D02*
X138485000Y-130480500D01*
X118200000Y-48000000D02*
X118200000Y-106460000D01*
X184860000Y-45460000D02*
X186035300Y-45460000D01*
X177240000Y-45460000D02*
X178415300Y-45460000D01*
X184860000Y-45460000D02*
X183684700Y-45460000D01*
X183684700Y-45460000D02*
X183684700Y-45827300D01*
X183684700Y-45827300D02*
X182876700Y-46635300D01*
X182876700Y-46635300D02*
X179223200Y-46635300D01*
X179223200Y-46635300D02*
X178415300Y-45827400D01*
X178415300Y-45827400D02*
X178415300Y-45460000D01*
X177240000Y-45460000D02*
X176064700Y-45460000D01*
X171572400Y-48000000D02*
X172937100Y-46635300D01*
X172937100Y-46635300D02*
X175256800Y-46635300D01*
X175256800Y-46635300D02*
X176064700Y-45827400D01*
X176064700Y-45827400D02*
X176064700Y-45460000D01*
X171572400Y-48000000D02*
X170984700Y-48000000D01*
X172160000Y-48000000D02*
X171572400Y-48000000D01*
X167080000Y-45460000D02*
X168255300Y-45460000D01*
X168255300Y-45460000D02*
X168255300Y-45827400D01*
X168255300Y-45827400D02*
X169252600Y-46824700D01*
X169252600Y-46824700D02*
X170176800Y-46824700D01*
X170176800Y-46824700D02*
X170984700Y-47632600D01*
X170984700Y-47632600D02*
X170984700Y-48000000D01*
X94216400Y-130480500D02*
X94581900Y-130115000D01*
X46786200Y-109000000D02*
X46492400Y-109000000D01*
X47080000Y-109000000D02*
X46786200Y-109000000D01*
X118200000Y-109000000D02*
X118200000Y-106460000D01*
X115460000Y-31460000D02*
X115460000Y-34000000D01*
X69740000Y-31460000D02*
X69740000Y-34000000D01*
%TD*%
M02*
