%TF.GenerationSoftware,KiCad,Pcbnew,5.1.6-c6e7f7d~86~ubuntu18.04.1*%
%TF.CreationDate,2021-01-30T18:03:06+08:00*%
%TF.ProjectId,amiga_ocs,616d6967-615f-46f6-9373-2e6b69636164,rev?*%
%TF.SameCoordinates,Original*%
%TF.FileFunction,Copper,L1,Top*%
%TF.FilePolarity,Positive*%
%FSLAX46Y46*%
G04 Gerber Fmt 4.6, Leading zero omitted, Abs format (unit mm)*
G04 Created by KiCad (PCBNEW 5.1.6-c6e7f7d~86~ubuntu18.04.1) date 2021-01-30 18:03:06*
%MOMM*%
%LPD*%
G01*
G04 APERTURE LIST*
%TA.AperFunction,ComponentPad*%
%ADD10O,1.700000X1.700000*%
%TD*%
%TA.AperFunction,ComponentPad*%
%ADD11R,1.700000X1.700000*%
%TD*%
%TA.AperFunction,ConnectorPad*%
%ADD12R,1.780000X7.620000*%
%TD*%
%TA.AperFunction,ViaPad*%
%ADD13C,0.800000*%
%TD*%
%TA.AperFunction,Conductor*%
%ADD14C,0.250000*%
%TD*%
G04 APERTURE END LIST*
D10*
%TO.P,J5,40*%
%TO.N,GPIO21*%
X210260000Y-45460000D03*
%TO.P,J5,39*%
%TO.N,GND*%
X210260000Y-48000000D03*
%TO.P,J5,38*%
%TO.N,GPIO20*%
X207720000Y-45460000D03*
%TO.P,J5,37*%
%TO.N,GPIO26*%
X207720000Y-48000000D03*
%TO.P,J5,36*%
%TO.N,GPIO16*%
X205180000Y-45460000D03*
%TO.P,J5,35*%
%TO.N,GPIO19*%
X205180000Y-48000000D03*
%TO.P,J5,34*%
%TO.N,GND*%
X202640000Y-45460000D03*
%TO.P,J5,33*%
%TO.N,GPIO13*%
X202640000Y-48000000D03*
%TO.P,J5,32*%
%TO.N,GPIO12*%
X200100000Y-45460000D03*
%TO.P,J5,31*%
%TO.N,GPIO6*%
X200100000Y-48000000D03*
%TO.P,J5,30*%
%TO.N,GND*%
X197560000Y-45460000D03*
%TO.P,J5,29*%
%TO.N,GPIO5*%
X197560000Y-48000000D03*
%TO.P,J5,28*%
%TO.N,GPIO1*%
X195020000Y-45460000D03*
%TO.P,J5,27*%
%TO.N,GPIO0*%
X195020000Y-48000000D03*
%TO.P,J5,26*%
%TO.N,GPIO7*%
X192480000Y-45460000D03*
%TO.P,J5,25*%
%TO.N,GND*%
X192480000Y-48000000D03*
%TO.P,J5,24*%
%TO.N,GPIO8*%
X189940000Y-45460000D03*
%TO.P,J5,23*%
%TO.N,GPIO11*%
X189940000Y-48000000D03*
%TO.P,J5,22*%
%TO.N,GPIO25*%
X187400000Y-45460000D03*
%TO.P,J5,21*%
%TO.N,GPIO9*%
X187400000Y-48000000D03*
%TO.P,J5,20*%
%TO.N,GND*%
X184860000Y-45460000D03*
%TO.P,J5,19*%
%TO.N,GPIO10*%
X184860000Y-48000000D03*
%TO.P,J5,18*%
%TO.N,GPIO24*%
X182320000Y-45460000D03*
%TO.P,J5,17*%
%TO.N,+3V3*%
X182320000Y-48000000D03*
%TO.P,J5,16*%
%TO.N,GPIO23*%
X179780000Y-45460000D03*
%TO.P,J5,15*%
%TO.N,GPIO22*%
X179780000Y-48000000D03*
%TO.P,J5,14*%
%TO.N,GND*%
X177240000Y-45460000D03*
%TO.P,J5,13*%
%TO.N,GPIO27*%
X177240000Y-48000000D03*
%TO.P,J5,12*%
%TO.N,GPIO18*%
X174700000Y-45460000D03*
%TO.P,J5,11*%
%TO.N,GPIO17*%
X174700000Y-48000000D03*
%TO.P,J5,10*%
%TO.N,GPIO15*%
X172160000Y-45460000D03*
%TO.P,J5,9*%
%TO.N,GND*%
X172160000Y-48000000D03*
%TO.P,J5,8*%
%TO.N,GPIO14*%
X169620000Y-45460000D03*
%TO.P,J5,7*%
%TO.N,GPIO4*%
X169620000Y-48000000D03*
%TO.P,J5,6*%
%TO.N,GND*%
X167080000Y-45460000D03*
%TO.P,J5,5*%
%TO.N,GPIO3*%
X167080000Y-48000000D03*
%TO.P,J5,4*%
%TO.N,+5V*%
X164540000Y-45460000D03*
%TO.P,J5,3*%
%TO.N,GPIO2*%
X164540000Y-48000000D03*
%TO.P,J5,2*%
%TO.N,+5V*%
X162000000Y-45460000D03*
D11*
%TO.P,J5,1*%
%TO.N,+3V3*%
X162000000Y-48000000D03*
%TD*%
%TO.P,C18,2*%
%TO.N,GND*%
%TA.AperFunction,SMDPad,CuDef*%
G36*
G01*
X87450001Y-126550000D02*
X86549999Y-126550000D01*
G75*
G02*
X86300000Y-126300001I0J249999D01*
G01*
X86300000Y-125649999D01*
G75*
G02*
X86549999Y-125400000I249999J0D01*
G01*
X87450001Y-125400000D01*
G75*
G02*
X87700000Y-125649999I0J-249999D01*
G01*
X87700000Y-126300001D01*
G75*
G02*
X87450001Y-126550000I-249999J0D01*
G01*
G37*
%TD.AperFunction*%
%TO.P,C18,1*%
%TO.N,+3V3*%
%TA.AperFunction,SMDPad,CuDef*%
G36*
G01*
X87450001Y-128600000D02*
X86549999Y-128600000D01*
G75*
G02*
X86300000Y-128350001I0J249999D01*
G01*
X86300000Y-127699999D01*
G75*
G02*
X86549999Y-127450000I249999J0D01*
G01*
X87450001Y-127450000D01*
G75*
G02*
X87700000Y-127699999I0J-249999D01*
G01*
X87700000Y-128350001D01*
G75*
G02*
X87450001Y-128600000I-249999J0D01*
G01*
G37*
%TD.AperFunction*%
%TD*%
%TO.P,C17,2*%
%TO.N,GND*%
%TA.AperFunction,SMDPad,CuDef*%
G36*
G01*
X98450001Y-126550000D02*
X97549999Y-126550000D01*
G75*
G02*
X97300000Y-126300001I0J249999D01*
G01*
X97300000Y-125649999D01*
G75*
G02*
X97549999Y-125400000I249999J0D01*
G01*
X98450001Y-125400000D01*
G75*
G02*
X98700000Y-125649999I0J-249999D01*
G01*
X98700000Y-126300001D01*
G75*
G02*
X98450001Y-126550000I-249999J0D01*
G01*
G37*
%TD.AperFunction*%
%TO.P,C17,1*%
%TO.N,+3V3*%
%TA.AperFunction,SMDPad,CuDef*%
G36*
G01*
X98450001Y-128600000D02*
X97549999Y-128600000D01*
G75*
G02*
X97300000Y-128350001I0J249999D01*
G01*
X97300000Y-127699999D01*
G75*
G02*
X97549999Y-127450000I249999J0D01*
G01*
X98450001Y-127450000D01*
G75*
G02*
X98700000Y-127699999I0J-249999D01*
G01*
X98700000Y-128350001D01*
G75*
G02*
X98450001Y-128600000I-249999J0D01*
G01*
G37*
%TD.AperFunction*%
%TD*%
%TO.P,C16,2*%
%TO.N,GND*%
%TA.AperFunction,SMDPad,CuDef*%
G36*
G01*
X120450001Y-126550000D02*
X119549999Y-126550000D01*
G75*
G02*
X119300000Y-126300001I0J249999D01*
G01*
X119300000Y-125649999D01*
G75*
G02*
X119549999Y-125400000I249999J0D01*
G01*
X120450001Y-125400000D01*
G75*
G02*
X120700000Y-125649999I0J-249999D01*
G01*
X120700000Y-126300001D01*
G75*
G02*
X120450001Y-126550000I-249999J0D01*
G01*
G37*
%TD.AperFunction*%
%TO.P,C16,1*%
%TO.N,+3V3*%
%TA.AperFunction,SMDPad,CuDef*%
G36*
G01*
X120450001Y-128600000D02*
X119549999Y-128600000D01*
G75*
G02*
X119300000Y-128350001I0J249999D01*
G01*
X119300000Y-127699999D01*
G75*
G02*
X119549999Y-127450000I249999J0D01*
G01*
X120450001Y-127450000D01*
G75*
G02*
X120700000Y-127699999I0J-249999D01*
G01*
X120700000Y-128350001D01*
G75*
G02*
X120450001Y-128600000I-249999J0D01*
G01*
G37*
%TD.AperFunction*%
%TD*%
%TO.P,C15,2*%
%TO.N,GND*%
%TA.AperFunction,SMDPad,CuDef*%
G36*
G01*
X131450001Y-126550000D02*
X130549999Y-126550000D01*
G75*
G02*
X130300000Y-126300001I0J249999D01*
G01*
X130300000Y-125649999D01*
G75*
G02*
X130549999Y-125400000I249999J0D01*
G01*
X131450001Y-125400000D01*
G75*
G02*
X131700000Y-125649999I0J-249999D01*
G01*
X131700000Y-126300001D01*
G75*
G02*
X131450001Y-126550000I-249999J0D01*
G01*
G37*
%TD.AperFunction*%
%TO.P,C15,1*%
%TO.N,+3V3*%
%TA.AperFunction,SMDPad,CuDef*%
G36*
G01*
X131450001Y-128600000D02*
X130549999Y-128600000D01*
G75*
G02*
X130300000Y-128350001I0J249999D01*
G01*
X130300000Y-127699999D01*
G75*
G02*
X130549999Y-127450000I249999J0D01*
G01*
X131450001Y-127450000D01*
G75*
G02*
X131700000Y-127699999I0J-249999D01*
G01*
X131700000Y-128350001D01*
G75*
G02*
X131450001Y-128600000I-249999J0D01*
G01*
G37*
%TD.AperFunction*%
%TD*%
%TO.P,C12,2*%
%TO.N,GND*%
%TA.AperFunction,SMDPad,CuDef*%
G36*
G01*
X65450001Y-126550000D02*
X64549999Y-126550000D01*
G75*
G02*
X64300000Y-126300001I0J249999D01*
G01*
X64300000Y-125649999D01*
G75*
G02*
X64549999Y-125400000I249999J0D01*
G01*
X65450001Y-125400000D01*
G75*
G02*
X65700000Y-125649999I0J-249999D01*
G01*
X65700000Y-126300001D01*
G75*
G02*
X65450001Y-126550000I-249999J0D01*
G01*
G37*
%TD.AperFunction*%
%TO.P,C12,1*%
%TO.N,+3V3*%
%TA.AperFunction,SMDPad,CuDef*%
G36*
G01*
X65450001Y-128600000D02*
X64549999Y-128600000D01*
G75*
G02*
X64300000Y-128350001I0J249999D01*
G01*
X64300000Y-127699999D01*
G75*
G02*
X64549999Y-127450000I249999J0D01*
G01*
X65450001Y-127450000D01*
G75*
G02*
X65700000Y-127699999I0J-249999D01*
G01*
X65700000Y-128350001D01*
G75*
G02*
X65450001Y-128600000I-249999J0D01*
G01*
G37*
%TD.AperFunction*%
%TD*%
%TO.P,C11,2*%
%TO.N,GND*%
%TA.AperFunction,SMDPad,CuDef*%
G36*
G01*
X53549999Y-127450000D02*
X54450001Y-127450000D01*
G75*
G02*
X54700000Y-127699999I0J-249999D01*
G01*
X54700000Y-128350001D01*
G75*
G02*
X54450001Y-128600000I-249999J0D01*
G01*
X53549999Y-128600000D01*
G75*
G02*
X53300000Y-128350001I0J249999D01*
G01*
X53300000Y-127699999D01*
G75*
G02*
X53549999Y-127450000I249999J0D01*
G01*
G37*
%TD.AperFunction*%
%TO.P,C11,1*%
%TO.N,+3V3*%
%TA.AperFunction,SMDPad,CuDef*%
G36*
G01*
X53549999Y-125400000D02*
X54450001Y-125400000D01*
G75*
G02*
X54700000Y-125649999I0J-249999D01*
G01*
X54700000Y-126300001D01*
G75*
G02*
X54450001Y-126550000I-249999J0D01*
G01*
X53549999Y-126550000D01*
G75*
G02*
X53300000Y-126300001I0J249999D01*
G01*
X53300000Y-125649999D01*
G75*
G02*
X53549999Y-125400000I249999J0D01*
G01*
G37*
%TD.AperFunction*%
%TD*%
%TO.P,C10,2*%
%TO.N,GND*%
%TA.AperFunction,SMDPad,CuDef*%
G36*
G01*
X43450000Y-34950000D02*
X44550000Y-34950000D01*
G75*
G02*
X44800000Y-35200000I0J-250000D01*
G01*
X44800000Y-38200000D01*
G75*
G02*
X44550000Y-38450000I-250000J0D01*
G01*
X43450000Y-38450000D01*
G75*
G02*
X43200000Y-38200000I0J250000D01*
G01*
X43200000Y-35200000D01*
G75*
G02*
X43450000Y-34950000I250000J0D01*
G01*
G37*
%TD.AperFunction*%
%TO.P,C10,1*%
%TO.N,+3V3*%
%TA.AperFunction,SMDPad,CuDef*%
G36*
G01*
X43450000Y-29550000D02*
X44550000Y-29550000D01*
G75*
G02*
X44800000Y-29800000I0J-250000D01*
G01*
X44800000Y-32800000D01*
G75*
G02*
X44550000Y-33050000I-250000J0D01*
G01*
X43450000Y-33050000D01*
G75*
G02*
X43200000Y-32800000I0J250000D01*
G01*
X43200000Y-29800000D01*
G75*
G02*
X43450000Y-29550000I250000J0D01*
G01*
G37*
%TD.AperFunction*%
%TD*%
%TO.P,C9,2*%
%TO.N,GND*%
%TA.AperFunction,SMDPad,CuDef*%
G36*
G01*
X135450000Y-132450001D02*
X135450000Y-131549999D01*
G75*
G02*
X135699999Y-131300000I249999J0D01*
G01*
X136350001Y-131300000D01*
G75*
G02*
X136600000Y-131549999I0J-249999D01*
G01*
X136600000Y-132450001D01*
G75*
G02*
X136350001Y-132700000I-249999J0D01*
G01*
X135699999Y-132700000D01*
G75*
G02*
X135450000Y-132450001I0J249999D01*
G01*
G37*
%TD.AperFunction*%
%TO.P,C9,1*%
%TO.N,+5V*%
%TA.AperFunction,SMDPad,CuDef*%
G36*
G01*
X133400000Y-132450001D02*
X133400000Y-131549999D01*
G75*
G02*
X133649999Y-131300000I249999J0D01*
G01*
X134300001Y-131300000D01*
G75*
G02*
X134550000Y-131549999I0J-249999D01*
G01*
X134550000Y-132450001D01*
G75*
G02*
X134300001Y-132700000I-249999J0D01*
G01*
X133649999Y-132700000D01*
G75*
G02*
X133400000Y-132450001I0J249999D01*
G01*
G37*
%TD.AperFunction*%
%TD*%
%TO.P,C8,2*%
%TO.N,GND*%
%TA.AperFunction,SMDPad,CuDef*%
G36*
G01*
X124450000Y-132450001D02*
X124450000Y-131549999D01*
G75*
G02*
X124699999Y-131300000I249999J0D01*
G01*
X125350001Y-131300000D01*
G75*
G02*
X125600000Y-131549999I0J-249999D01*
G01*
X125600000Y-132450001D01*
G75*
G02*
X125350001Y-132700000I-249999J0D01*
G01*
X124699999Y-132700000D01*
G75*
G02*
X124450000Y-132450001I0J249999D01*
G01*
G37*
%TD.AperFunction*%
%TO.P,C8,1*%
%TO.N,+5V*%
%TA.AperFunction,SMDPad,CuDef*%
G36*
G01*
X122400000Y-132450001D02*
X122400000Y-131549999D01*
G75*
G02*
X122649999Y-131300000I249999J0D01*
G01*
X123300001Y-131300000D01*
G75*
G02*
X123550000Y-131549999I0J-249999D01*
G01*
X123550000Y-132450001D01*
G75*
G02*
X123300001Y-132700000I-249999J0D01*
G01*
X122649999Y-132700000D01*
G75*
G02*
X122400000Y-132450001I0J249999D01*
G01*
G37*
%TD.AperFunction*%
%TD*%
%TO.P,C7,2*%
%TO.N,GND*%
%TA.AperFunction,SMDPad,CuDef*%
G36*
G01*
X102450000Y-132450001D02*
X102450000Y-131549999D01*
G75*
G02*
X102699999Y-131300000I249999J0D01*
G01*
X103350001Y-131300000D01*
G75*
G02*
X103600000Y-131549999I0J-249999D01*
G01*
X103600000Y-132450001D01*
G75*
G02*
X103350001Y-132700000I-249999J0D01*
G01*
X102699999Y-132700000D01*
G75*
G02*
X102450000Y-132450001I0J249999D01*
G01*
G37*
%TD.AperFunction*%
%TO.P,C7,1*%
%TO.N,+5V*%
%TA.AperFunction,SMDPad,CuDef*%
G36*
G01*
X100400000Y-132450001D02*
X100400000Y-131549999D01*
G75*
G02*
X100649999Y-131300000I249999J0D01*
G01*
X101300001Y-131300000D01*
G75*
G02*
X101550000Y-131549999I0J-249999D01*
G01*
X101550000Y-132450001D01*
G75*
G02*
X101300001Y-132700000I-249999J0D01*
G01*
X100649999Y-132700000D01*
G75*
G02*
X100400000Y-132450001I0J249999D01*
G01*
G37*
%TD.AperFunction*%
%TD*%
%TO.P,C6,2*%
%TO.N,GND*%
%TA.AperFunction,SMDPad,CuDef*%
G36*
G01*
X91450000Y-132450001D02*
X91450000Y-131549999D01*
G75*
G02*
X91699999Y-131300000I249999J0D01*
G01*
X92350001Y-131300000D01*
G75*
G02*
X92600000Y-131549999I0J-249999D01*
G01*
X92600000Y-132450001D01*
G75*
G02*
X92350001Y-132700000I-249999J0D01*
G01*
X91699999Y-132700000D01*
G75*
G02*
X91450000Y-132450001I0J249999D01*
G01*
G37*
%TD.AperFunction*%
%TO.P,C6,1*%
%TO.N,+5V*%
%TA.AperFunction,SMDPad,CuDef*%
G36*
G01*
X89400000Y-132450001D02*
X89400000Y-131549999D01*
G75*
G02*
X89649999Y-131300000I249999J0D01*
G01*
X90300001Y-131300000D01*
G75*
G02*
X90550000Y-131549999I0J-249999D01*
G01*
X90550000Y-132450001D01*
G75*
G02*
X90300001Y-132700000I-249999J0D01*
G01*
X89649999Y-132700000D01*
G75*
G02*
X89400000Y-132450001I0J249999D01*
G01*
G37*
%TD.AperFunction*%
%TD*%
%TO.P,C3,2*%
%TO.N,GND*%
%TA.AperFunction,SMDPad,CuDef*%
G36*
G01*
X69450000Y-132450001D02*
X69450000Y-131549999D01*
G75*
G02*
X69699999Y-131300000I249999J0D01*
G01*
X70350001Y-131300000D01*
G75*
G02*
X70600000Y-131549999I0J-249999D01*
G01*
X70600000Y-132450001D01*
G75*
G02*
X70350001Y-132700000I-249999J0D01*
G01*
X69699999Y-132700000D01*
G75*
G02*
X69450000Y-132450001I0J249999D01*
G01*
G37*
%TD.AperFunction*%
%TO.P,C3,1*%
%TO.N,+5V*%
%TA.AperFunction,SMDPad,CuDef*%
G36*
G01*
X67400000Y-132450001D02*
X67400000Y-131549999D01*
G75*
G02*
X67649999Y-131300000I249999J0D01*
G01*
X68300001Y-131300000D01*
G75*
G02*
X68550000Y-131549999I0J-249999D01*
G01*
X68550000Y-132450001D01*
G75*
G02*
X68300001Y-132700000I-249999J0D01*
G01*
X67649999Y-132700000D01*
G75*
G02*
X67400000Y-132450001I0J249999D01*
G01*
G37*
%TD.AperFunction*%
%TD*%
%TO.P,C2,2*%
%TO.N,GND*%
%TA.AperFunction,SMDPad,CuDef*%
G36*
G01*
X58450000Y-132450001D02*
X58450000Y-131549999D01*
G75*
G02*
X58699999Y-131300000I249999J0D01*
G01*
X59350001Y-131300000D01*
G75*
G02*
X59600000Y-131549999I0J-249999D01*
G01*
X59600000Y-132450001D01*
G75*
G02*
X59350001Y-132700000I-249999J0D01*
G01*
X58699999Y-132700000D01*
G75*
G02*
X58450000Y-132450001I0J249999D01*
G01*
G37*
%TD.AperFunction*%
%TO.P,C2,1*%
%TO.N,+5V*%
%TA.AperFunction,SMDPad,CuDef*%
G36*
G01*
X56400000Y-132450001D02*
X56400000Y-131549999D01*
G75*
G02*
X56649999Y-131300000I249999J0D01*
G01*
X57300001Y-131300000D01*
G75*
G02*
X57550000Y-131549999I0J-249999D01*
G01*
X57550000Y-132450001D01*
G75*
G02*
X57300001Y-132700000I-249999J0D01*
G01*
X56649999Y-132700000D01*
G75*
G02*
X56400000Y-132450001I0J249999D01*
G01*
G37*
%TD.AperFunction*%
%TD*%
%TO.P,C1,2*%
%TO.N,GND*%
%TA.AperFunction,SMDPad,CuDef*%
G36*
G01*
X40395000Y-128949000D02*
X41495000Y-128949000D01*
G75*
G02*
X41745000Y-129199000I0J-250000D01*
G01*
X41745000Y-132199000D01*
G75*
G02*
X41495000Y-132449000I-250000J0D01*
G01*
X40395000Y-132449000D01*
G75*
G02*
X40145000Y-132199000I0J250000D01*
G01*
X40145000Y-129199000D01*
G75*
G02*
X40395000Y-128949000I250000J0D01*
G01*
G37*
%TD.AperFunction*%
%TO.P,C1,1*%
%TO.N,+5V*%
%TA.AperFunction,SMDPad,CuDef*%
G36*
G01*
X40395000Y-123549000D02*
X41495000Y-123549000D01*
G75*
G02*
X41745000Y-123799000I0J-250000D01*
G01*
X41745000Y-126799000D01*
G75*
G02*
X41495000Y-127049000I-250000J0D01*
G01*
X40395000Y-127049000D01*
G75*
G02*
X40145000Y-126799000I0J250000D01*
G01*
X40145000Y-123799000D01*
G75*
G02*
X40395000Y-123549000I250000J0D01*
G01*
G37*
%TD.AperFunction*%
%TD*%
D12*
%TO.P,J1,98*%
%TO.N,WIRE4_8*%
X39824000Y-144000000D03*
%TO.P,J1,97*%
%TO.N,WIRE4_7*%
X42364000Y-144000000D03*
%TO.P,J1,96*%
%TO.N,WIRE4_6*%
X44904000Y-144000000D03*
%TO.P,J1,95*%
%TO.N,WIRE4_5*%
X47444000Y-144000000D03*
%TO.P,J1,94*%
%TO.N,WIRE4_4*%
X49984000Y-144000000D03*
%TO.P,J1,93*%
%TO.N,WIRE4_3*%
X52524000Y-144000000D03*
%TO.P,J1,92*%
%TO.N,WIRE4_2*%
X55064000Y-144000000D03*
%TO.P,J1,91*%
%TO.N,WIRE4_1*%
X57604000Y-144000000D03*
%TO.P,J1,90*%
%TO.N,WIRE6_3*%
X60144000Y-144000000D03*
%TO.P,J1,89*%
%TO.N,WIRE6_2*%
X62684000Y-144000000D03*
%TO.P,J1,88*%
%TO.N,WIRE6_1*%
X65224000Y-144000000D03*
%TO.P,J1,87*%
%TO.N,WIRE8_8*%
X67764000Y-144000000D03*
%TO.P,J1,86*%
%TO.N,WIRE8_7*%
X70304000Y-144000000D03*
%TO.P,J1,85*%
%TO.N,WIRE8_6*%
X72844000Y-144000000D03*
%TO.P,J1,84*%
%TO.N,WIRE8_5*%
X75384000Y-144000000D03*
%TO.P,J1,83*%
%TO.N,WIRE8_4*%
X77924000Y-144000000D03*
%TO.P,J1,82*%
%TO.N,WIRE8_3*%
X80464000Y-144000000D03*
%TO.P,J1,81*%
%TO.N,WIRE8_2*%
X83004000Y-144000000D03*
%TO.P,J1,62*%
%TO.N,Net-(J1-Pad62)*%
X93164000Y-144000000D03*
%TO.P,J1,61*%
%TO.N,WIRE8_1*%
X95704000Y-144000000D03*
%TO.P,J1,60*%
%TO.N,WIRE5_8*%
X98244000Y-144000000D03*
%TO.P,J1,59*%
%TO.N,WIRE5_7*%
X100784000Y-144000000D03*
%TO.P,J1,58*%
%TO.N,WIRE5_6*%
X103324000Y-144000000D03*
%TO.P,J1,57*%
%TO.N,WIRE5_5*%
X105864000Y-144000000D03*
%TO.P,J1,56*%
%TO.N,WIRE5_4*%
X108404000Y-144000000D03*
%TO.P,J1,55*%
%TO.N,WIRE5_3*%
X110944000Y-144000000D03*
%TO.P,J1,54*%
%TO.N,WIRE5_2*%
X113484000Y-144000000D03*
%TO.P,J1,53*%
%TO.N,WIRE5_1*%
X116024000Y-144000000D03*
%TO.P,J1,52*%
%TO.N,WIRE7_8*%
X118564000Y-144000000D03*
%TO.P,J1,51*%
%TO.N,WIRE7_7*%
X121104000Y-144000000D03*
%TO.P,J1,50*%
%TO.N,WIRE7_6*%
X123644000Y-144000000D03*
%TO.P,J1,49*%
%TO.N,WIRE7_5*%
X126184000Y-144000000D03*
%TO.P,J1,48*%
%TO.N,WIRE7_4*%
X128724000Y-144000000D03*
%TO.P,J1,47*%
%TO.N,WIRE7_3*%
X131264000Y-144000000D03*
%TO.P,J1,46*%
%TO.N,WIRE7_2*%
X133804000Y-144000000D03*
%TO.P,J1,45*%
%TO.N,Net-(J1-Pad45)*%
X136344000Y-144000000D03*
%TO.P,J1,44*%
%TO.N,Net-(J1-Pad44)*%
X138884000Y-144000000D03*
%TO.P,J1,43*%
%TO.N,Net-(J1-Pad43)*%
X141424000Y-144000000D03*
%TO.P,J1,42*%
%TO.N,WIRE7_1*%
X143964000Y-144000000D03*
%TO.P,J1,41*%
%TO.N,Net-(J1-Pad41)*%
X146504000Y-144000000D03*
%TO.P,J1,40*%
%TO.N,WIRE3_8*%
X149044000Y-144000000D03*
%TO.P,J1,39*%
%TO.N,WIRE3_7*%
X151584000Y-144000000D03*
%TO.P,J1,38*%
%TO.N,WIRE3_6*%
X154124000Y-144000000D03*
%TO.P,J1,37*%
%TO.N,WIRE3_5*%
X156664000Y-144000000D03*
%TO.P,J1,36*%
%TO.N,WIRE3_4*%
X159204000Y-144000000D03*
%TO.P,J1,35*%
%TO.N,WIRE3_3*%
X161744000Y-144000000D03*
%TO.P,J1,34*%
%TO.N,WIRE3_2*%
X164284000Y-144000000D03*
%TO.P,J1,33*%
%TO.N,WIRE3_1*%
X166824000Y-144000000D03*
%TO.P,J1,32*%
%TO.N,Net-(J1-Pad32)*%
X169364000Y-144000000D03*
%TD*%
D10*
%TO.P,J2,64*%
%TO.N,+5V*%
X120740000Y-106460000D03*
%TO.P,J2,63*%
X120740000Y-109000000D03*
%TO.P,J2,62*%
%TO.N,GND*%
X118200000Y-106460000D03*
%TO.P,J2,61*%
X118200000Y-109000000D03*
%TO.P,J2,60*%
%TO.N,IPL2*%
X115660000Y-106460000D03*
%TO.P,J2,59*%
%TO.N,BERR*%
X115660000Y-109000000D03*
%TO.P,J2,58*%
%TO.N,IPL1*%
X113120000Y-106460000D03*
%TO.P,J2,57*%
%TO.N,VPA*%
X113120000Y-109000000D03*
%TO.P,J2,56*%
%TO.N,IPL0*%
X110580000Y-106460000D03*
%TO.P,J2,55*%
%TO.N,E*%
X110580000Y-109000000D03*
%TO.P,J2,54*%
%TO.N,AS*%
X108040000Y-106460000D03*
%TO.P,J2,53*%
%TO.N,VMA*%
X108040000Y-109000000D03*
%TO.P,J2,52*%
%TO.N,A23*%
X105500000Y-106460000D03*
%TO.P,J2,51*%
%TO.N,BGACK*%
X105500000Y-109000000D03*
%TO.P,J2,50*%
%TO.N,A22*%
X102960000Y-106460000D03*
%TO.P,J2,49*%
%TO.N,DTACK*%
X102960000Y-109000000D03*
%TO.P,J2,48*%
%TO.N,A21*%
X100420000Y-106460000D03*
%TO.P,J2,47*%
%TO.N,UDS*%
X100420000Y-109000000D03*
%TO.P,J2,46*%
%TO.N,A20*%
X97880000Y-106460000D03*
%TO.P,J2,45*%
%TO.N,LDS*%
X97880000Y-109000000D03*
%TO.P,J2,44*%
%TO.N,A19*%
X95340000Y-106460000D03*
%TO.P,J2,43*%
%TO.N,RST*%
X95340000Y-109000000D03*
%TO.P,J2,42*%
%TO.N,A18*%
X92800000Y-106460000D03*
%TO.P,J2,41*%
%TO.N,CPU_CLK*%
X92800000Y-109000000D03*
%TO.P,J2,40*%
%TO.N,A17*%
X90260000Y-106460000D03*
%TO.P,J2,39*%
%TO.N,RW*%
X90260000Y-109000000D03*
%TO.P,J2,38*%
%TO.N,A16*%
X87720000Y-106460000D03*
%TO.P,J2,37*%
%TO.N,D15*%
X87720000Y-109000000D03*
%TO.P,J2,36*%
%TO.N,A15*%
X85180000Y-106460000D03*
%TO.P,J2,35*%
%TO.N,D14*%
X85180000Y-109000000D03*
%TO.P,J2,34*%
%TO.N,A14*%
X82640000Y-106460000D03*
%TO.P,J2,33*%
%TO.N,D13*%
X82640000Y-109000000D03*
%TO.P,J2,32*%
%TO.N,A13*%
X80100000Y-106460000D03*
%TO.P,J2,31*%
%TO.N,D12*%
X80100000Y-109000000D03*
%TO.P,J2,30*%
%TO.N,A12*%
X77560000Y-106460000D03*
%TO.P,J2,29*%
%TO.N,D11*%
X77560000Y-109000000D03*
%TO.P,J2,28*%
%TO.N,A11*%
X75020000Y-106460000D03*
%TO.P,J2,27*%
%TO.N,D10*%
X75020000Y-109000000D03*
%TO.P,J2,26*%
%TO.N,A10*%
X72480000Y-106460000D03*
%TO.P,J2,25*%
%TO.N,D9*%
X72480000Y-109000000D03*
%TO.P,J2,24*%
%TO.N,A9*%
X69940000Y-106460000D03*
%TO.P,J2,23*%
%TO.N,D8*%
X69940000Y-109000000D03*
%TO.P,J2,22*%
%TO.N,A8*%
X67400000Y-106460000D03*
%TO.P,J2,21*%
%TO.N,D7*%
X67400000Y-109000000D03*
%TO.P,J2,20*%
%TO.N,A7*%
X64860000Y-106460000D03*
%TO.P,J2,19*%
%TO.N,D6*%
X64860000Y-109000000D03*
%TO.P,J2,18*%
%TO.N,A6*%
X62320000Y-106460000D03*
%TO.P,J2,17*%
%TO.N,D5*%
X62320000Y-109000000D03*
%TO.P,J2,16*%
%TO.N,A5*%
X59780000Y-106460000D03*
%TO.P,J2,15*%
%TO.N,D4*%
X59780000Y-109000000D03*
%TO.P,J2,14*%
%TO.N,A4*%
X57240000Y-106460000D03*
%TO.P,J2,13*%
%TO.N,D3*%
X57240000Y-109000000D03*
%TO.P,J2,12*%
%TO.N,A3*%
X54700000Y-106460000D03*
%TO.P,J2,11*%
%TO.N,D2*%
X54700000Y-109000000D03*
%TO.P,J2,10*%
%TO.N,A2*%
X52160000Y-106460000D03*
%TO.P,J2,9*%
%TO.N,D1*%
X52160000Y-109000000D03*
%TO.P,J2,8*%
%TO.N,A1*%
X49620000Y-106460000D03*
%TO.P,J2,7*%
%TO.N,D0*%
X49620000Y-109000000D03*
%TO.P,J2,6*%
%TO.N,GND*%
X47080000Y-106460000D03*
%TO.P,J2,5*%
X47080000Y-109000000D03*
%TO.P,J2,4*%
%TO.N,+3V3*%
X44540000Y-106460000D03*
%TO.P,J2,3*%
X44540000Y-109000000D03*
%TO.P,J2,2*%
%TO.N,GND*%
X42000000Y-106460000D03*
D11*
%TO.P,J2,1*%
X42000000Y-109000000D03*
%TD*%
D10*
%TO.P,J3,64*%
%TO.N,+5V*%
X120740000Y-45460000D03*
%TO.P,J3,63*%
X120740000Y-48000000D03*
%TO.P,J3,62*%
%TO.N,GND*%
X118200000Y-45460000D03*
%TO.P,J3,61*%
X118200000Y-48000000D03*
%TO.P,J3,60*%
%TO.N,FC2*%
X115660000Y-45460000D03*
%TO.P,J3,59*%
%TO.N,GPIO22*%
X115660000Y-48000000D03*
%TO.P,J3,58*%
%TO.N,FC1*%
X113120000Y-45460000D03*
%TO.P,J3,57*%
%TO.N,GPIO23*%
X113120000Y-48000000D03*
%TO.P,J3,56*%
%TO.N,FC0*%
X110580000Y-45460000D03*
%TO.P,J3,55*%
%TO.N,GPIO24*%
X110580000Y-48000000D03*
%TO.P,J3,54*%
%TO.N,BG*%
X108040000Y-45460000D03*
%TO.P,J3,53*%
%TO.N,GPIO25*%
X108040000Y-48000000D03*
%TO.P,J3,52*%
%TO.N,BR*%
X105500000Y-45460000D03*
%TO.P,J3,51*%
%TO.N,GPIO26*%
X105500000Y-48000000D03*
%TO.P,J3,50*%
%TO.N,GPIO48*%
X102960000Y-45460000D03*
%TO.P,J3,49*%
%TO.N,GPIO21*%
X102960000Y-48000000D03*
%TO.P,J3,48*%
%TO.N,GPIO47*%
X100420000Y-45460000D03*
%TO.P,J3,47*%
%TO.N,GPIO20*%
X100420000Y-48000000D03*
%TO.P,J3,46*%
%TO.N,GPIO46*%
X97880000Y-45460000D03*
%TO.P,J3,45*%
%TO.N,GPIO19*%
X97880000Y-48000000D03*
%TO.P,J3,44*%
%TO.N,GPIO45*%
X95340000Y-45460000D03*
%TO.P,J3,43*%
%TO.N,GPIO18*%
X95340000Y-48000000D03*
%TO.P,J3,42*%
%TO.N,GPIO44*%
X92800000Y-45460000D03*
%TO.P,J3,41*%
%TO.N,GPIO17*%
X92800000Y-48000000D03*
%TO.P,J3,40*%
%TO.N,GPIO43*%
X90260000Y-45460000D03*
%TO.P,J3,39*%
%TO.N,GPIO16*%
X90260000Y-48000000D03*
%TO.P,J3,38*%
%TO.N,GPIO42*%
X87720000Y-45460000D03*
%TO.P,J3,37*%
%TO.N,GPIO15*%
X87720000Y-48000000D03*
%TO.P,J3,36*%
%TO.N,GPIO41*%
X85180000Y-45460000D03*
%TO.P,J3,35*%
%TO.N,GPIO14*%
X85180000Y-48000000D03*
%TO.P,J3,34*%
%TO.N,GPIO40*%
X82640000Y-45460000D03*
%TO.P,J3,33*%
%TO.N,GPIO13*%
X82640000Y-48000000D03*
%TO.P,J3,32*%
%TO.N,GPIO39*%
X80100000Y-45460000D03*
%TO.P,J3,31*%
%TO.N,GPIO12*%
X80100000Y-48000000D03*
%TO.P,J3,30*%
%TO.N,GPIO38*%
X77560000Y-45460000D03*
%TO.P,J3,29*%
%TO.N,GPIO11*%
X77560000Y-48000000D03*
%TO.P,J3,28*%
%TO.N,GPIO27*%
X75020000Y-45460000D03*
%TO.P,J3,27*%
%TO.N,GPIO10*%
X75020000Y-48000000D03*
%TO.P,J3,26*%
%TO.N,GPIO28*%
X72480000Y-45460000D03*
%TO.P,J3,25*%
%TO.N,GPIO9*%
X72480000Y-48000000D03*
%TO.P,J3,24*%
%TO.N,GPIO29*%
X69940000Y-45460000D03*
%TO.P,J3,23*%
%TO.N,GPIO8*%
X69940000Y-48000000D03*
%TO.P,J3,22*%
%TO.N,GPIO30*%
X67400000Y-45460000D03*
%TO.P,J3,21*%
%TO.N,GPIO7*%
X67400000Y-48000000D03*
%TO.P,J3,20*%
%TO.N,GPIO31*%
X64860000Y-45460000D03*
%TO.P,J3,19*%
%TO.N,GPIO6*%
X64860000Y-48000000D03*
%TO.P,J3,18*%
%TO.N,GPIO32*%
X62320000Y-45460000D03*
%TO.P,J3,17*%
%TO.N,GPIO5*%
X62320000Y-48000000D03*
%TO.P,J3,16*%
%TO.N,GPIO33*%
X59780000Y-45460000D03*
%TO.P,J3,15*%
%TO.N,GPIO4*%
X59780000Y-48000000D03*
%TO.P,J3,14*%
%TO.N,GPIO34*%
X57240000Y-45460000D03*
%TO.P,J3,13*%
%TO.N,GPIO3*%
X57240000Y-48000000D03*
%TO.P,J3,12*%
%TO.N,GPIO35*%
X54700000Y-45460000D03*
%TO.P,J3,11*%
%TO.N,GPIO2*%
X54700000Y-48000000D03*
%TO.P,J3,10*%
%TO.N,GPIO36*%
X52160000Y-45460000D03*
%TO.P,J3,9*%
%TO.N,GPIO1*%
X52160000Y-48000000D03*
%TO.P,J3,8*%
%TO.N,GPIO37*%
X49620000Y-45460000D03*
%TO.P,J3,7*%
%TO.N,GPIO0*%
X49620000Y-48000000D03*
%TO.P,J3,6*%
%TO.N,GND*%
X47080000Y-45460000D03*
%TO.P,J3,5*%
X47080000Y-48000000D03*
%TO.P,J3,4*%
%TO.N,+3V3*%
X44540000Y-45460000D03*
%TO.P,J3,3*%
X44540000Y-48000000D03*
%TO.P,J3,2*%
%TO.N,GND*%
X42000000Y-45460000D03*
D11*
%TO.P,J3,1*%
X42000000Y-48000000D03*
%TD*%
D10*
%TO.P,J4,40*%
%TO.N,GND*%
X69740000Y-31460000D03*
%TO.P,J4,39*%
X69740000Y-34000000D03*
%TO.P,J4,38*%
%TO.N,+3V3*%
X72280000Y-31460000D03*
%TO.P,J4,37*%
X72280000Y-34000000D03*
%TO.P,J4,36*%
%TO.N,Net-(J4-Pad36)*%
X74820000Y-31460000D03*
%TO.P,J4,35*%
%TO.N,GPIO26*%
X74820000Y-34000000D03*
%TO.P,J4,34*%
%TO.N,Net-(J4-Pad34)*%
X77360000Y-31460000D03*
%TO.P,J4,33*%
%TO.N,GPIO25*%
X77360000Y-34000000D03*
%TO.P,J4,32*%
%TO.N,Net-(J4-Pad32)*%
X79900000Y-31460000D03*
%TO.P,J4,31*%
%TO.N,GPIO24*%
X79900000Y-34000000D03*
%TO.P,J4,30*%
%TO.N,Net-(J4-Pad30)*%
X82440000Y-31460000D03*
%TO.P,J4,29*%
%TO.N,GPIO23*%
X82440000Y-34000000D03*
%TO.P,J4,28*%
%TO.N,Net-(J4-Pad28)*%
X84980000Y-31460000D03*
%TO.P,J4,27*%
%TO.N,GPIO22*%
X84980000Y-34000000D03*
%TO.P,J4,26*%
%TO.N,GPIO38*%
X87520000Y-31460000D03*
%TO.P,J4,25*%
%TO.N,GPIO37*%
X87520000Y-34000000D03*
%TO.P,J4,24*%
%TO.N,GPIO39*%
X90060000Y-31460000D03*
%TO.P,J4,23*%
%TO.N,GPIO36*%
X90060000Y-34000000D03*
%TO.P,J4,22*%
%TO.N,GPIO40*%
X92600000Y-31460000D03*
%TO.P,J4,21*%
%TO.N,GPIO35*%
X92600000Y-34000000D03*
%TO.P,J4,20*%
%TO.N,GPIO41*%
X95140000Y-31460000D03*
%TO.P,J4,19*%
%TO.N,GPIO34*%
X95140000Y-34000000D03*
%TO.P,J4,18*%
%TO.N,GPIO42*%
X97680000Y-31460000D03*
%TO.P,J4,17*%
%TO.N,GPIO33*%
X97680000Y-34000000D03*
%TO.P,J4,16*%
%TO.N,GPIO43*%
X100220000Y-31460000D03*
%TO.P,J4,15*%
%TO.N,GPIO32*%
X100220000Y-34000000D03*
%TO.P,J4,14*%
%TO.N,GPIO44*%
X102760000Y-31460000D03*
%TO.P,J4,13*%
%TO.N,GPIO31*%
X102760000Y-34000000D03*
%TO.P,J4,12*%
%TO.N,GPIO45*%
X105300000Y-31460000D03*
%TO.P,J4,11*%
%TO.N,GPIO30*%
X105300000Y-34000000D03*
%TO.P,J4,10*%
%TO.N,GPIO46*%
X107840000Y-31460000D03*
%TO.P,J4,9*%
%TO.N,GPIO29*%
X107840000Y-34000000D03*
%TO.P,J4,8*%
%TO.N,GPIO47*%
X110380000Y-31460000D03*
%TO.P,J4,7*%
%TO.N,GPIO28*%
X110380000Y-34000000D03*
%TO.P,J4,6*%
%TO.N,GPIO48*%
X112920000Y-31460000D03*
%TO.P,J4,5*%
%TO.N,GPIO27*%
X112920000Y-34000000D03*
%TO.P,J4,4*%
%TO.N,GND*%
X115460000Y-31460000D03*
%TO.P,J4,3*%
X115460000Y-34000000D03*
%TO.P,J4,2*%
%TO.N,+3V3*%
X118000000Y-31460000D03*
D11*
%TO.P,J4,1*%
X118000000Y-34000000D03*
%TD*%
%TO.P,U1,20*%
%TO.N,WIRE1_1*%
%TA.AperFunction,SMDPad,CuDef*%
G36*
G01*
X83049300Y-129616000D02*
X83249300Y-129616000D01*
G75*
G02*
X83349300Y-129716000I0J-100000D01*
G01*
X83349300Y-130991000D01*
G75*
G02*
X83249300Y-131091000I-100000J0D01*
G01*
X83049300Y-131091000D01*
G75*
G02*
X82949300Y-130991000I0J100000D01*
G01*
X82949300Y-129716000D01*
G75*
G02*
X83049300Y-129616000I100000J0D01*
G01*
G37*
%TD.AperFunction*%
%TO.P,U1,19*%
%TO.N,+5V*%
%TA.AperFunction,SMDPad,CuDef*%
G36*
G01*
X82399300Y-129616000D02*
X82599300Y-129616000D01*
G75*
G02*
X82699300Y-129716000I0J-100000D01*
G01*
X82699300Y-130991000D01*
G75*
G02*
X82599300Y-131091000I-100000J0D01*
G01*
X82399300Y-131091000D01*
G75*
G02*
X82299300Y-130991000I0J100000D01*
G01*
X82299300Y-129716000D01*
G75*
G02*
X82399300Y-129616000I100000J0D01*
G01*
G37*
%TD.AperFunction*%
%TO.P,U1,18*%
%TO.N,WIRE1_2*%
%TA.AperFunction,SMDPad,CuDef*%
G36*
G01*
X81749300Y-129616000D02*
X81949300Y-129616000D01*
G75*
G02*
X82049300Y-129716000I0J-100000D01*
G01*
X82049300Y-130991000D01*
G75*
G02*
X81949300Y-131091000I-100000J0D01*
G01*
X81749300Y-131091000D01*
G75*
G02*
X81649300Y-130991000I0J100000D01*
G01*
X81649300Y-129716000D01*
G75*
G02*
X81749300Y-129616000I100000J0D01*
G01*
G37*
%TD.AperFunction*%
%TO.P,U1,17*%
%TO.N,WIRE1_3*%
%TA.AperFunction,SMDPad,CuDef*%
G36*
G01*
X81099300Y-129616000D02*
X81299300Y-129616000D01*
G75*
G02*
X81399300Y-129716000I0J-100000D01*
G01*
X81399300Y-130991000D01*
G75*
G02*
X81299300Y-131091000I-100000J0D01*
G01*
X81099300Y-131091000D01*
G75*
G02*
X80999300Y-130991000I0J100000D01*
G01*
X80999300Y-129716000D01*
G75*
G02*
X81099300Y-129616000I100000J0D01*
G01*
G37*
%TD.AperFunction*%
%TO.P,U1,16*%
%TO.N,WIRE1_4*%
%TA.AperFunction,SMDPad,CuDef*%
G36*
G01*
X80449300Y-129616000D02*
X80649300Y-129616000D01*
G75*
G02*
X80749300Y-129716000I0J-100000D01*
G01*
X80749300Y-130991000D01*
G75*
G02*
X80649300Y-131091000I-100000J0D01*
G01*
X80449300Y-131091000D01*
G75*
G02*
X80349300Y-130991000I0J100000D01*
G01*
X80349300Y-129716000D01*
G75*
G02*
X80449300Y-129616000I100000J0D01*
G01*
G37*
%TD.AperFunction*%
%TO.P,U1,15*%
%TO.N,WIRE1_5*%
%TA.AperFunction,SMDPad,CuDef*%
G36*
G01*
X79799300Y-129616000D02*
X79999300Y-129616000D01*
G75*
G02*
X80099300Y-129716000I0J-100000D01*
G01*
X80099300Y-130991000D01*
G75*
G02*
X79999300Y-131091000I-100000J0D01*
G01*
X79799300Y-131091000D01*
G75*
G02*
X79699300Y-130991000I0J100000D01*
G01*
X79699300Y-129716000D01*
G75*
G02*
X79799300Y-129616000I100000J0D01*
G01*
G37*
%TD.AperFunction*%
%TO.P,U1,14*%
%TO.N,WIRE1_6*%
%TA.AperFunction,SMDPad,CuDef*%
G36*
G01*
X79149300Y-129616000D02*
X79349300Y-129616000D01*
G75*
G02*
X79449300Y-129716000I0J-100000D01*
G01*
X79449300Y-130991000D01*
G75*
G02*
X79349300Y-131091000I-100000J0D01*
G01*
X79149300Y-131091000D01*
G75*
G02*
X79049300Y-130991000I0J100000D01*
G01*
X79049300Y-129716000D01*
G75*
G02*
X79149300Y-129616000I100000J0D01*
G01*
G37*
%TD.AperFunction*%
%TO.P,U1,13*%
%TO.N,WIRE1_7*%
%TA.AperFunction,SMDPad,CuDef*%
G36*
G01*
X78499300Y-129616000D02*
X78699300Y-129616000D01*
G75*
G02*
X78799300Y-129716000I0J-100000D01*
G01*
X78799300Y-130991000D01*
G75*
G02*
X78699300Y-131091000I-100000J0D01*
G01*
X78499300Y-131091000D01*
G75*
G02*
X78399300Y-130991000I0J100000D01*
G01*
X78399300Y-129716000D01*
G75*
G02*
X78499300Y-129616000I100000J0D01*
G01*
G37*
%TD.AperFunction*%
%TO.P,U1,12*%
%TO.N,WIRE1_8*%
%TA.AperFunction,SMDPad,CuDef*%
G36*
G01*
X77849300Y-129616000D02*
X78049300Y-129616000D01*
G75*
G02*
X78149300Y-129716000I0J-100000D01*
G01*
X78149300Y-130991000D01*
G75*
G02*
X78049300Y-131091000I-100000J0D01*
G01*
X77849300Y-131091000D01*
G75*
G02*
X77749300Y-130991000I0J100000D01*
G01*
X77749300Y-129716000D01*
G75*
G02*
X77849300Y-129616000I100000J0D01*
G01*
G37*
%TD.AperFunction*%
%TO.P,U1,11*%
%TO.N,GND*%
%TA.AperFunction,SMDPad,CuDef*%
G36*
G01*
X77199300Y-129616000D02*
X77399300Y-129616000D01*
G75*
G02*
X77499300Y-129716000I0J-100000D01*
G01*
X77499300Y-130991000D01*
G75*
G02*
X77399300Y-131091000I-100000J0D01*
G01*
X77199300Y-131091000D01*
G75*
G02*
X77099300Y-130991000I0J100000D01*
G01*
X77099300Y-129716000D01*
G75*
G02*
X77199300Y-129616000I100000J0D01*
G01*
G37*
%TD.AperFunction*%
%TO.P,U1,10*%
%TO.N,+3V3*%
%TA.AperFunction,SMDPad,CuDef*%
G36*
G01*
X77199300Y-123891000D02*
X77399300Y-123891000D01*
G75*
G02*
X77499300Y-123991000I0J-100000D01*
G01*
X77499300Y-125266000D01*
G75*
G02*
X77399300Y-125366000I-100000J0D01*
G01*
X77199300Y-125366000D01*
G75*
G02*
X77099300Y-125266000I0J100000D01*
G01*
X77099300Y-123991000D01*
G75*
G02*
X77199300Y-123891000I100000J0D01*
G01*
G37*
%TD.AperFunction*%
%TO.P,U1,9*%
%TO.N,BERR*%
%TA.AperFunction,SMDPad,CuDef*%
G36*
G01*
X77849300Y-123891000D02*
X78049300Y-123891000D01*
G75*
G02*
X78149300Y-123991000I0J-100000D01*
G01*
X78149300Y-125266000D01*
G75*
G02*
X78049300Y-125366000I-100000J0D01*
G01*
X77849300Y-125366000D01*
G75*
G02*
X77749300Y-125266000I0J100000D01*
G01*
X77749300Y-123991000D01*
G75*
G02*
X77849300Y-123891000I100000J0D01*
G01*
G37*
%TD.AperFunction*%
%TO.P,U1,8*%
%TO.N,DTACK*%
%TA.AperFunction,SMDPad,CuDef*%
G36*
G01*
X78499300Y-123891000D02*
X78699300Y-123891000D01*
G75*
G02*
X78799300Y-123991000I0J-100000D01*
G01*
X78799300Y-125266000D01*
G75*
G02*
X78699300Y-125366000I-100000J0D01*
G01*
X78499300Y-125366000D01*
G75*
G02*
X78399300Y-125266000I0J100000D01*
G01*
X78399300Y-123991000D01*
G75*
G02*
X78499300Y-123891000I100000J0D01*
G01*
G37*
%TD.AperFunction*%
%TO.P,U1,7*%
%TO.N,IPL2*%
%TA.AperFunction,SMDPad,CuDef*%
G36*
G01*
X79149300Y-123891000D02*
X79349300Y-123891000D01*
G75*
G02*
X79449300Y-123991000I0J-100000D01*
G01*
X79449300Y-125266000D01*
G75*
G02*
X79349300Y-125366000I-100000J0D01*
G01*
X79149300Y-125366000D01*
G75*
G02*
X79049300Y-125266000I0J100000D01*
G01*
X79049300Y-123991000D01*
G75*
G02*
X79149300Y-123891000I100000J0D01*
G01*
G37*
%TD.AperFunction*%
%TO.P,U1,6*%
%TO.N,IPL1*%
%TA.AperFunction,SMDPad,CuDef*%
G36*
G01*
X79799300Y-123891000D02*
X79999300Y-123891000D01*
G75*
G02*
X80099300Y-123991000I0J-100000D01*
G01*
X80099300Y-125266000D01*
G75*
G02*
X79999300Y-125366000I-100000J0D01*
G01*
X79799300Y-125366000D01*
G75*
G02*
X79699300Y-125266000I0J100000D01*
G01*
X79699300Y-123991000D01*
G75*
G02*
X79799300Y-123891000I100000J0D01*
G01*
G37*
%TD.AperFunction*%
%TO.P,U1,5*%
%TO.N,IPL0*%
%TA.AperFunction,SMDPad,CuDef*%
G36*
G01*
X80449300Y-123891000D02*
X80649300Y-123891000D01*
G75*
G02*
X80749300Y-123991000I0J-100000D01*
G01*
X80749300Y-125266000D01*
G75*
G02*
X80649300Y-125366000I-100000J0D01*
G01*
X80449300Y-125366000D01*
G75*
G02*
X80349300Y-125266000I0J100000D01*
G01*
X80349300Y-123991000D01*
G75*
G02*
X80449300Y-123891000I100000J0D01*
G01*
G37*
%TD.AperFunction*%
%TO.P,U1,4*%
%TO.N,VPA*%
%TA.AperFunction,SMDPad,CuDef*%
G36*
G01*
X81099300Y-123891000D02*
X81299300Y-123891000D01*
G75*
G02*
X81399300Y-123991000I0J-100000D01*
G01*
X81399300Y-125266000D01*
G75*
G02*
X81299300Y-125366000I-100000J0D01*
G01*
X81099300Y-125366000D01*
G75*
G02*
X80999300Y-125266000I0J100000D01*
G01*
X80999300Y-123991000D01*
G75*
G02*
X81099300Y-123891000I100000J0D01*
G01*
G37*
%TD.AperFunction*%
%TO.P,U1,3*%
%TO.N,E*%
%TA.AperFunction,SMDPad,CuDef*%
G36*
G01*
X81749300Y-123891000D02*
X81949300Y-123891000D01*
G75*
G02*
X82049300Y-123991000I0J-100000D01*
G01*
X82049300Y-125266000D01*
G75*
G02*
X81949300Y-125366000I-100000J0D01*
G01*
X81749300Y-125366000D01*
G75*
G02*
X81649300Y-125266000I0J100000D01*
G01*
X81649300Y-123991000D01*
G75*
G02*
X81749300Y-123891000I100000J0D01*
G01*
G37*
%TD.AperFunction*%
%TO.P,U1,2*%
%TO.N,+3V3*%
%TA.AperFunction,SMDPad,CuDef*%
G36*
G01*
X82399300Y-123891000D02*
X82599300Y-123891000D01*
G75*
G02*
X82699300Y-123991000I0J-100000D01*
G01*
X82699300Y-125266000D01*
G75*
G02*
X82599300Y-125366000I-100000J0D01*
G01*
X82399300Y-125366000D01*
G75*
G02*
X82299300Y-125266000I0J100000D01*
G01*
X82299300Y-123991000D01*
G75*
G02*
X82399300Y-123891000I100000J0D01*
G01*
G37*
%TD.AperFunction*%
%TO.P,U1,1*%
%TO.N,VMA*%
%TA.AperFunction,SMDPad,CuDef*%
G36*
G01*
X83049300Y-123891000D02*
X83249300Y-123891000D01*
G75*
G02*
X83349300Y-123991000I0J-100000D01*
G01*
X83349300Y-125266000D01*
G75*
G02*
X83249300Y-125366000I-100000J0D01*
G01*
X83049300Y-125366000D01*
G75*
G02*
X82949300Y-125266000I0J100000D01*
G01*
X82949300Y-123991000D01*
G75*
G02*
X83049300Y-123891000I100000J0D01*
G01*
G37*
%TD.AperFunction*%
%TD*%
%TO.P,U2,20*%
%TO.N,WIRE2_1*%
%TA.AperFunction,SMDPad,CuDef*%
G36*
G01*
X116251000Y-129743000D02*
X116451000Y-129743000D01*
G75*
G02*
X116551000Y-129843000I0J-100000D01*
G01*
X116551000Y-131118000D01*
G75*
G02*
X116451000Y-131218000I-100000J0D01*
G01*
X116251000Y-131218000D01*
G75*
G02*
X116151000Y-131118000I0J100000D01*
G01*
X116151000Y-129843000D01*
G75*
G02*
X116251000Y-129743000I100000J0D01*
G01*
G37*
%TD.AperFunction*%
%TO.P,U2,19*%
%TO.N,+5V*%
%TA.AperFunction,SMDPad,CuDef*%
G36*
G01*
X115601000Y-129743000D02*
X115801000Y-129743000D01*
G75*
G02*
X115901000Y-129843000I0J-100000D01*
G01*
X115901000Y-131118000D01*
G75*
G02*
X115801000Y-131218000I-100000J0D01*
G01*
X115601000Y-131218000D01*
G75*
G02*
X115501000Y-131118000I0J100000D01*
G01*
X115501000Y-129843000D01*
G75*
G02*
X115601000Y-129743000I100000J0D01*
G01*
G37*
%TD.AperFunction*%
%TO.P,U2,18*%
%TO.N,WIRE2_2*%
%TA.AperFunction,SMDPad,CuDef*%
G36*
G01*
X114951000Y-129743000D02*
X115151000Y-129743000D01*
G75*
G02*
X115251000Y-129843000I0J-100000D01*
G01*
X115251000Y-131118000D01*
G75*
G02*
X115151000Y-131218000I-100000J0D01*
G01*
X114951000Y-131218000D01*
G75*
G02*
X114851000Y-131118000I0J100000D01*
G01*
X114851000Y-129843000D01*
G75*
G02*
X114951000Y-129743000I100000J0D01*
G01*
G37*
%TD.AperFunction*%
%TO.P,U2,17*%
%TO.N,WIRE2_3*%
%TA.AperFunction,SMDPad,CuDef*%
G36*
G01*
X114301000Y-129743000D02*
X114501000Y-129743000D01*
G75*
G02*
X114601000Y-129843000I0J-100000D01*
G01*
X114601000Y-131118000D01*
G75*
G02*
X114501000Y-131218000I-100000J0D01*
G01*
X114301000Y-131218000D01*
G75*
G02*
X114201000Y-131118000I0J100000D01*
G01*
X114201000Y-129843000D01*
G75*
G02*
X114301000Y-129743000I100000J0D01*
G01*
G37*
%TD.AperFunction*%
%TO.P,U2,16*%
%TO.N,WIRE2_4*%
%TA.AperFunction,SMDPad,CuDef*%
G36*
G01*
X113651000Y-129743000D02*
X113851000Y-129743000D01*
G75*
G02*
X113951000Y-129843000I0J-100000D01*
G01*
X113951000Y-131118000D01*
G75*
G02*
X113851000Y-131218000I-100000J0D01*
G01*
X113651000Y-131218000D01*
G75*
G02*
X113551000Y-131118000I0J100000D01*
G01*
X113551000Y-129843000D01*
G75*
G02*
X113651000Y-129743000I100000J0D01*
G01*
G37*
%TD.AperFunction*%
%TO.P,U2,15*%
%TO.N,WIRE2_5*%
%TA.AperFunction,SMDPad,CuDef*%
G36*
G01*
X113001000Y-129743000D02*
X113201000Y-129743000D01*
G75*
G02*
X113301000Y-129843000I0J-100000D01*
G01*
X113301000Y-131118000D01*
G75*
G02*
X113201000Y-131218000I-100000J0D01*
G01*
X113001000Y-131218000D01*
G75*
G02*
X112901000Y-131118000I0J100000D01*
G01*
X112901000Y-129843000D01*
G75*
G02*
X113001000Y-129743000I100000J0D01*
G01*
G37*
%TD.AperFunction*%
%TO.P,U2,14*%
%TO.N,WIRE2_6*%
%TA.AperFunction,SMDPad,CuDef*%
G36*
G01*
X112351000Y-129743000D02*
X112551000Y-129743000D01*
G75*
G02*
X112651000Y-129843000I0J-100000D01*
G01*
X112651000Y-131118000D01*
G75*
G02*
X112551000Y-131218000I-100000J0D01*
G01*
X112351000Y-131218000D01*
G75*
G02*
X112251000Y-131118000I0J100000D01*
G01*
X112251000Y-129843000D01*
G75*
G02*
X112351000Y-129743000I100000J0D01*
G01*
G37*
%TD.AperFunction*%
%TO.P,U2,13*%
%TO.N,WIRE2_7*%
%TA.AperFunction,SMDPad,CuDef*%
G36*
G01*
X111701000Y-129743000D02*
X111901000Y-129743000D01*
G75*
G02*
X112001000Y-129843000I0J-100000D01*
G01*
X112001000Y-131118000D01*
G75*
G02*
X111901000Y-131218000I-100000J0D01*
G01*
X111701000Y-131218000D01*
G75*
G02*
X111601000Y-131118000I0J100000D01*
G01*
X111601000Y-129843000D01*
G75*
G02*
X111701000Y-129743000I100000J0D01*
G01*
G37*
%TD.AperFunction*%
%TO.P,U2,12*%
%TO.N,WIRE2_8*%
%TA.AperFunction,SMDPad,CuDef*%
G36*
G01*
X111051000Y-129743000D02*
X111251000Y-129743000D01*
G75*
G02*
X111351000Y-129843000I0J-100000D01*
G01*
X111351000Y-131118000D01*
G75*
G02*
X111251000Y-131218000I-100000J0D01*
G01*
X111051000Y-131218000D01*
G75*
G02*
X110951000Y-131118000I0J100000D01*
G01*
X110951000Y-129843000D01*
G75*
G02*
X111051000Y-129743000I100000J0D01*
G01*
G37*
%TD.AperFunction*%
%TO.P,U2,11*%
%TO.N,GND*%
%TA.AperFunction,SMDPad,CuDef*%
G36*
G01*
X110401000Y-129743000D02*
X110601000Y-129743000D01*
G75*
G02*
X110701000Y-129843000I0J-100000D01*
G01*
X110701000Y-131118000D01*
G75*
G02*
X110601000Y-131218000I-100000J0D01*
G01*
X110401000Y-131218000D01*
G75*
G02*
X110301000Y-131118000I0J100000D01*
G01*
X110301000Y-129843000D01*
G75*
G02*
X110401000Y-129743000I100000J0D01*
G01*
G37*
%TD.AperFunction*%
%TO.P,U2,10*%
%TO.N,+3V3*%
%TA.AperFunction,SMDPad,CuDef*%
G36*
G01*
X110401000Y-124018000D02*
X110601000Y-124018000D01*
G75*
G02*
X110701000Y-124118000I0J-100000D01*
G01*
X110701000Y-125393000D01*
G75*
G02*
X110601000Y-125493000I-100000J0D01*
G01*
X110401000Y-125493000D01*
G75*
G02*
X110301000Y-125393000I0J100000D01*
G01*
X110301000Y-124118000D01*
G75*
G02*
X110401000Y-124018000I100000J0D01*
G01*
G37*
%TD.AperFunction*%
%TO.P,U2,9*%
%TO.N,BR*%
%TA.AperFunction,SMDPad,CuDef*%
G36*
G01*
X111051000Y-124018000D02*
X111251000Y-124018000D01*
G75*
G02*
X111351000Y-124118000I0J-100000D01*
G01*
X111351000Y-125393000D01*
G75*
G02*
X111251000Y-125493000I-100000J0D01*
G01*
X111051000Y-125493000D01*
G75*
G02*
X110951000Y-125393000I0J100000D01*
G01*
X110951000Y-124118000D01*
G75*
G02*
X111051000Y-124018000I100000J0D01*
G01*
G37*
%TD.AperFunction*%
%TO.P,U2,8*%
%TO.N,BG*%
%TA.AperFunction,SMDPad,CuDef*%
G36*
G01*
X111701000Y-124018000D02*
X111901000Y-124018000D01*
G75*
G02*
X112001000Y-124118000I0J-100000D01*
G01*
X112001000Y-125393000D01*
G75*
G02*
X111901000Y-125493000I-100000J0D01*
G01*
X111701000Y-125493000D01*
G75*
G02*
X111601000Y-125393000I0J100000D01*
G01*
X111601000Y-124118000D01*
G75*
G02*
X111701000Y-124018000I100000J0D01*
G01*
G37*
%TD.AperFunction*%
%TO.P,U2,7*%
%TO.N,BGACK*%
%TA.AperFunction,SMDPad,CuDef*%
G36*
G01*
X112351000Y-124018000D02*
X112551000Y-124018000D01*
G75*
G02*
X112651000Y-124118000I0J-100000D01*
G01*
X112651000Y-125393000D01*
G75*
G02*
X112551000Y-125493000I-100000J0D01*
G01*
X112351000Y-125493000D01*
G75*
G02*
X112251000Y-125393000I0J100000D01*
G01*
X112251000Y-124118000D01*
G75*
G02*
X112351000Y-124018000I100000J0D01*
G01*
G37*
%TD.AperFunction*%
%TO.P,U2,6*%
%TO.N,FC0*%
%TA.AperFunction,SMDPad,CuDef*%
G36*
G01*
X113001000Y-124018000D02*
X113201000Y-124018000D01*
G75*
G02*
X113301000Y-124118000I0J-100000D01*
G01*
X113301000Y-125393000D01*
G75*
G02*
X113201000Y-125493000I-100000J0D01*
G01*
X113001000Y-125493000D01*
G75*
G02*
X112901000Y-125393000I0J100000D01*
G01*
X112901000Y-124118000D01*
G75*
G02*
X113001000Y-124018000I100000J0D01*
G01*
G37*
%TD.AperFunction*%
%TO.P,U2,5*%
%TO.N,FC1*%
%TA.AperFunction,SMDPad,CuDef*%
G36*
G01*
X113651000Y-124018000D02*
X113851000Y-124018000D01*
G75*
G02*
X113951000Y-124118000I0J-100000D01*
G01*
X113951000Y-125393000D01*
G75*
G02*
X113851000Y-125493000I-100000J0D01*
G01*
X113651000Y-125493000D01*
G75*
G02*
X113551000Y-125393000I0J100000D01*
G01*
X113551000Y-124118000D01*
G75*
G02*
X113651000Y-124018000I100000J0D01*
G01*
G37*
%TD.AperFunction*%
%TO.P,U2,4*%
%TO.N,FC2*%
%TA.AperFunction,SMDPad,CuDef*%
G36*
G01*
X114301000Y-124018000D02*
X114501000Y-124018000D01*
G75*
G02*
X114601000Y-124118000I0J-100000D01*
G01*
X114601000Y-125393000D01*
G75*
G02*
X114501000Y-125493000I-100000J0D01*
G01*
X114301000Y-125493000D01*
G75*
G02*
X114201000Y-125393000I0J100000D01*
G01*
X114201000Y-124118000D01*
G75*
G02*
X114301000Y-124018000I100000J0D01*
G01*
G37*
%TD.AperFunction*%
%TO.P,U2,3*%
%TO.N,CPU_CLK*%
%TA.AperFunction,SMDPad,CuDef*%
G36*
G01*
X114951000Y-124018000D02*
X115151000Y-124018000D01*
G75*
G02*
X115251000Y-124118000I0J-100000D01*
G01*
X115251000Y-125393000D01*
G75*
G02*
X115151000Y-125493000I-100000J0D01*
G01*
X114951000Y-125493000D01*
G75*
G02*
X114851000Y-125393000I0J100000D01*
G01*
X114851000Y-124118000D01*
G75*
G02*
X114951000Y-124018000I100000J0D01*
G01*
G37*
%TD.AperFunction*%
%TO.P,U2,2*%
%TO.N,+3V3*%
%TA.AperFunction,SMDPad,CuDef*%
G36*
G01*
X115601000Y-124018000D02*
X115801000Y-124018000D01*
G75*
G02*
X115901000Y-124118000I0J-100000D01*
G01*
X115901000Y-125393000D01*
G75*
G02*
X115801000Y-125493000I-100000J0D01*
G01*
X115601000Y-125493000D01*
G75*
G02*
X115501000Y-125393000I0J100000D01*
G01*
X115501000Y-124118000D01*
G75*
G02*
X115601000Y-124018000I100000J0D01*
G01*
G37*
%TD.AperFunction*%
%TO.P,U2,1*%
%TO.N,RST*%
%TA.AperFunction,SMDPad,CuDef*%
G36*
G01*
X116251000Y-124018000D02*
X116451000Y-124018000D01*
G75*
G02*
X116551000Y-124118000I0J-100000D01*
G01*
X116551000Y-125393000D01*
G75*
G02*
X116451000Y-125493000I-100000J0D01*
G01*
X116251000Y-125493000D01*
G75*
G02*
X116151000Y-125393000I0J100000D01*
G01*
X116151000Y-124118000D01*
G75*
G02*
X116251000Y-124018000I100000J0D01*
G01*
G37*
%TD.AperFunction*%
%TD*%
D13*
%TO.N,+5V*%
X55001800Y-133668500D03*
X150372600Y-133507800D03*
X140414300Y-114312500D03*
X118475900Y-131580800D03*
X88775600Y-132298200D03*
X66792300Y-132000000D03*
X55055400Y-131657500D03*
X106262300Y-133856200D03*
X122704500Y-133382700D03*
%TO.N,+3V3*%
X115768800Y-126101700D03*
X99612900Y-126468000D03*
X87224000Y-124487800D03*
X84610900Y-122499400D03*
%TO.N,WIRE2_1*%
X159099700Y-132777400D03*
%TO.N,WIRE2_2*%
X115155100Y-132918500D03*
%TO.N,WIRE2_3*%
X114401000Y-139377100D03*
%TO.N,WIRE2_4*%
X111333800Y-138691400D03*
%TO.N,WIRE2_5*%
X110174200Y-137542100D03*
%TO.N,WIRE2_6*%
X107412700Y-137807400D03*
%TO.N,WIRE2_7*%
X103908500Y-138775600D03*
%TO.N,WIRE2_8*%
X102634800Y-138993700D03*
%TO.N,WIRE3_1*%
X127336000Y-133095500D03*
%TO.N,WIRE3_2*%
X126255800Y-134181200D03*
%TO.N,WIRE3_3*%
X148997800Y-135331200D03*
%TO.N,WIRE3_4*%
X150655400Y-136955000D03*
%TO.N,WIRE3_5*%
X125121600Y-134235200D03*
%TO.N,WIRE3_6*%
X153688000Y-139552600D03*
%TO.N,WIRE3_7*%
X124971000Y-135235600D03*
%TO.N,WIRE3_8*%
X123970600Y-135285800D03*
%TO.N,WIRE7_1*%
X143964000Y-139585900D03*
%TO.N,WIRE7_2*%
X136826700Y-138176900D03*
%TO.N,WIRE7_3*%
X132516200Y-139666900D03*
%TO.N,WIRE7_4*%
X129337200Y-139557000D03*
%TO.N,WIRE7_5*%
X127752500Y-139555800D03*
%TO.N,WIRE7_6*%
X125458600Y-139572600D03*
%TO.N,WIRE7_7*%
X121834400Y-139418300D03*
%TO.N,WIRE7_8*%
X121349000Y-138042700D03*
%TO.N,WIRE5_1*%
X115632400Y-139577200D03*
%TO.N,WIRE5_2*%
X113185300Y-139566000D03*
%TO.N,WIRE5_3*%
X108557000Y-138418300D03*
%TO.N,WIRE5_4*%
X106412300Y-138078300D03*
%TO.N,WIRE5_5*%
X105564300Y-139129400D03*
%TO.N,WIRE5_6*%
X101567300Y-139028000D03*
%TO.N,WIRE5_7*%
X99216900Y-139568400D03*
%TO.N,WIRE5_8*%
X91825700Y-137222500D03*
%TO.N,WIRE8_1*%
X78920400Y-136910900D03*
%TO.N,WIRE1_1*%
X83263400Y-131705500D03*
%TO.N,WIRE1_2*%
X81849300Y-133766300D03*
%TO.N,WIRE1_3*%
X79848600Y-133548100D03*
%TO.N,WIRE1_4*%
X73986000Y-136430200D03*
%TO.N,WIRE1_5*%
X71512900Y-136236000D03*
%TO.N,WIRE1_6*%
X70144900Y-136070100D03*
%TO.N,WIRE1_7*%
X65902200Y-136517300D03*
%TO.N,WIRE1_8*%
X66073700Y-134932400D03*
%TO.N,WIRE8_2*%
X77861300Y-138081200D03*
%TO.N,WIRE8_3*%
X76623600Y-138821800D03*
%TO.N,WIRE8_4*%
X75273800Y-139104400D03*
%TO.N,WIRE8_5*%
X73051300Y-138995100D03*
%TO.N,WIRE8_6*%
X68707800Y-138546700D03*
%TO.N,WIRE8_7*%
X68504100Y-139572300D03*
%TO.N,WIRE8_8*%
X67256700Y-139583500D03*
%TO.N,WIRE6_1*%
X98336900Y-134325400D03*
%TO.N,WIRE6_2*%
X97558600Y-133618000D03*
%TO.N,WIRE6_3*%
X96851200Y-132910600D03*
%TO.N,WIRE4_1*%
X58330200Y-139570000D03*
%TO.N,WIRE4_2*%
X56248300Y-139623300D03*
%TO.N,WIRE4_3*%
X58949900Y-134072600D03*
%TO.N,WIRE4_4*%
X55290900Y-137513100D03*
%TO.N,WIRE4_5*%
X49241800Y-139554000D03*
%TO.N,WIRE4_6*%
X44904000Y-139113000D03*
%TO.N,WIRE4_7*%
X54022200Y-135048400D03*
%TO.N,WIRE4_8*%
X49825400Y-136439400D03*
%TO.N,IPL2*%
X88890200Y-104763100D03*
X87594500Y-117032700D03*
%TO.N,IPL1*%
X96799000Y-115568800D03*
X89300900Y-117819600D03*
%TO.N,AS*%
X109174200Y-100759600D03*
X129985500Y-102210200D03*
%TO.N,A23*%
X81340700Y-107635400D03*
X80459600Y-111597500D03*
X72027600Y-115495700D03*
%TO.N,BGACK*%
X105608800Y-117715200D03*
%TO.N,A22*%
X82676300Y-112620800D03*
X70715000Y-116954600D03*
%TO.N,A21*%
X69576000Y-122318100D03*
%TO.N,A20*%
X68817800Y-121618000D03*
%TO.N,A19*%
X67817400Y-121515800D03*
%TO.N,RST*%
X98825700Y-115934100D03*
%TO.N,A18*%
X68076600Y-120307600D03*
%TO.N,CPU_CLK*%
X98825700Y-116987800D03*
%TO.N,RW*%
X71927300Y-119377300D03*
%TO.N,A16*%
X92788500Y-100774400D03*
X130682400Y-102957700D03*
%TO.N,D15*%
X66429100Y-117609400D03*
%TO.N,A15*%
X86916900Y-103587500D03*
X136564700Y-111338500D03*
%TO.N,D14*%
X62995800Y-116229300D03*
%TO.N,A14*%
X83308500Y-103163200D03*
X133870000Y-107083400D03*
%TO.N,D13*%
X63747700Y-114698700D03*
%TO.N,A13*%
X124531700Y-108188600D03*
%TO.N,D12*%
X62806000Y-114192900D03*
%TO.N,A12*%
X130134800Y-105595200D03*
%TO.N,D11*%
X61935300Y-113447500D03*
%TO.N,A11*%
X128547400Y-104749500D03*
%TO.N,D10*%
X61755700Y-111885100D03*
%TO.N,A10*%
X126462600Y-104023000D03*
%TO.N,D9*%
X59461900Y-112441200D03*
%TO.N,D8*%
X57107600Y-112441200D03*
%TO.N,D7*%
X126039100Y-106351500D03*
%TO.N,D6*%
X122721500Y-100631800D03*
%TO.N,A6*%
X78376500Y-111587400D03*
X74281000Y-115239700D03*
%TO.N,D5*%
X123513500Y-101454100D03*
%TO.N,D4*%
X121894300Y-98922900D03*
%TO.N,D3*%
X54265900Y-111236200D03*
X121127900Y-97021900D03*
%TO.N,D2*%
X119195800Y-97747200D03*
%TO.N,A2*%
X67255900Y-112823700D03*
%TO.N,A1*%
X71930500Y-118354700D03*
%TO.N,GPIO0*%
X67856400Y-51671100D03*
%TO.N,GPIO27*%
X125242000Y-48972700D03*
%TO.N,GPIO2*%
X153764300Y-57049300D03*
%TO.N,GPIO3*%
X156570300Y-56627300D03*
%TO.N,GPIO4*%
X162200200Y-54614400D03*
%TO.N,GPIO8*%
X184425200Y-39007100D03*
%TO.N,GPIO13*%
X87079200Y-53614500D03*
%TO.N,GPIO14*%
X101928400Y-46672900D03*
%TO.N,GPIO16*%
X108939800Y-39381700D03*
%TO.N,GPIO19*%
X97880000Y-54028800D03*
%TO.N,GPIO20*%
X181554100Y-49725200D03*
%TO.N,GPIO21*%
X101625600Y-54479100D03*
%TO.N,GPIO22*%
X113109700Y-40036600D03*
X85064800Y-40625900D03*
%TO.N,BR*%
X111088500Y-123051500D03*
%TO.N,GPIO23*%
X110467800Y-40764200D03*
X84385800Y-41415300D03*
%TO.N,BG*%
X110468200Y-122257000D03*
%TO.N,GPIO24*%
X177357500Y-38281700D03*
X111472200Y-37234900D03*
%TO.N,FC0*%
X112989500Y-122515900D03*
%TO.N,GPIO25*%
X160585300Y-44579800D03*
%TO.N,FC1*%
X113989900Y-122515900D03*
%TO.N,GPIO26*%
X180045700Y-50343500D03*
X108354500Y-49710000D03*
%TO.N,FC2*%
X120522900Y-43515800D03*
X122543100Y-128758600D03*
%TO.N,GND*%
X76492300Y-130474600D03*
X167864800Y-131840800D03*
%TD*%
D14*
%TO.N,+5V*%
X71003300Y-130992800D02*
X71003300Y-132623900D01*
X71003300Y-132623900D02*
X70123100Y-133504100D01*
X70123100Y-133504100D02*
X59560000Y-133504100D01*
X59560000Y-133504100D02*
X59365500Y-133309600D01*
X59365500Y-133309600D02*
X58687200Y-133309600D01*
X58687200Y-133309600D02*
X58328300Y-133668500D01*
X58328300Y-133668500D02*
X55001800Y-133668500D01*
X67975000Y-132000000D02*
X69059300Y-130915700D01*
X69059300Y-130915700D02*
X70926200Y-130915700D01*
X70926200Y-130915700D02*
X71003300Y-130992800D01*
X71003300Y-130992800D02*
X72716500Y-129279600D01*
X72716500Y-129279600D02*
X82143300Y-129279600D01*
X82143300Y-129279600D02*
X82499300Y-129635600D01*
X82499300Y-129635600D02*
X82499300Y-130353500D01*
X133066800Y-132359800D02*
X133066800Y-132722300D01*
X133066800Y-132722300D02*
X133864000Y-133519500D01*
X133864000Y-133519500D02*
X150360900Y-133519500D01*
X150360900Y-133519500D02*
X150372600Y-133507800D01*
X133975000Y-132000000D02*
X133426600Y-132000000D01*
X133426600Y-132000000D02*
X133066800Y-132359800D01*
X133066800Y-132359800D02*
X126992700Y-132359800D01*
X126992700Y-132359800D02*
X125842700Y-133509800D01*
X125842700Y-133509800D02*
X124246000Y-133509800D01*
X124246000Y-133509800D02*
X123411700Y-132675500D01*
X121915300Y-109000000D02*
X127227800Y-114312500D01*
X127227800Y-114312500D02*
X140414300Y-114312500D01*
X120740000Y-109000000D02*
X121915300Y-109000000D01*
X118475900Y-131580800D02*
X116026100Y-131580800D01*
X116026100Y-131580800D02*
X115701000Y-131255700D01*
X115701000Y-131255700D02*
X115701000Y-130480500D01*
X122975000Y-132000000D02*
X122555800Y-131580800D01*
X122555800Y-131580800D02*
X118475900Y-131580800D01*
X123411700Y-132675500D02*
X122704500Y-133382700D01*
X121915300Y-48000000D02*
X124455300Y-45460000D01*
X124455300Y-45460000D02*
X160824700Y-45460000D01*
X100975000Y-132000000D02*
X94204700Y-132000000D01*
X94204700Y-132000000D02*
X93134300Y-133070400D01*
X93134300Y-133070400D02*
X91045400Y-133070400D01*
X91045400Y-133070400D02*
X89975000Y-132000000D01*
X106262300Y-133856200D02*
X102831200Y-133856200D01*
X102831200Y-133856200D02*
X100975000Y-132000000D01*
X88775600Y-132298200D02*
X89676800Y-132298200D01*
X89676800Y-132298200D02*
X89975000Y-132000000D01*
X82499300Y-130353500D02*
X82499300Y-132030700D01*
X82499300Y-132030700D02*
X82916700Y-132448100D01*
X82916700Y-132448100D02*
X88625700Y-132448100D01*
X88625700Y-132448100D02*
X88775600Y-132298200D01*
X66792300Y-132000000D02*
X67975000Y-132000000D01*
X40945000Y-125299000D02*
X48696900Y-125299000D01*
X48696900Y-125299000D02*
X55055400Y-131657500D01*
X55055400Y-131657500D02*
X56632500Y-131657500D01*
X56632500Y-131657500D02*
X56975000Y-132000000D01*
X120740000Y-48000000D02*
X121915300Y-48000000D01*
X122975000Y-132000000D02*
X122975000Y-132238800D01*
X122975000Y-132238800D02*
X123411700Y-132675500D01*
X162000000Y-45460000D02*
X164540000Y-45460000D01*
X161412400Y-45460000D02*
X162000000Y-45460000D01*
X161412400Y-45460000D02*
X160824700Y-45460000D01*
%TO.N,+3V3*%
X71104700Y-33632600D02*
X70296800Y-32824700D01*
X70296800Y-32824700D02*
X45524700Y-32824700D01*
X45524700Y-32824700D02*
X45265600Y-32565500D01*
X71104700Y-34000000D02*
X71104700Y-33632600D01*
X71104700Y-33632600D02*
X72102000Y-32635300D01*
X72102000Y-32635300D02*
X72280000Y-32635300D01*
X72280000Y-31460000D02*
X72280000Y-32635300D01*
X65000000Y-127830000D02*
X55855000Y-127830000D01*
X55855000Y-127830000D02*
X54000000Y-125975000D01*
X66241700Y-125555400D02*
X66241700Y-126588300D01*
X66241700Y-126588300D02*
X65000000Y-127830000D01*
X65000000Y-127830000D02*
X65000000Y-128025000D01*
X44540000Y-106460000D02*
X44540000Y-48000000D01*
X44540000Y-109000000D02*
X44540000Y-106460000D01*
X120000000Y-128025000D02*
X131000000Y-128025000D01*
X116054200Y-125816300D02*
X118262800Y-128025000D01*
X118262800Y-128025000D02*
X120000000Y-128025000D01*
X116054200Y-125816300D02*
X115701000Y-125463200D01*
X115701000Y-125463200D02*
X115701000Y-124755500D01*
X116054200Y-125816300D02*
X115768800Y-126101700D01*
X99612900Y-126468000D02*
X99612900Y-125972800D01*
X99612900Y-125972800D02*
X98127900Y-124487800D01*
X98127900Y-124487800D02*
X87224000Y-124487800D01*
X99612900Y-126468000D02*
X108788500Y-126468000D01*
X108788500Y-126468000D02*
X110501000Y-124755500D01*
X98000000Y-128025000D02*
X99557000Y-126468000D01*
X99557000Y-126468000D02*
X99612900Y-126468000D01*
X85915000Y-126940000D02*
X85915000Y-125442400D01*
X85915000Y-125442400D02*
X86869600Y-124487800D01*
X86869600Y-124487800D02*
X87224000Y-124487800D01*
X77299300Y-125512800D02*
X77256700Y-125555400D01*
X77256700Y-125555400D02*
X66241700Y-125555400D01*
X77299300Y-124628500D02*
X77299300Y-125512800D01*
X77299300Y-125512800D02*
X78911400Y-127124900D01*
X78911400Y-127124900D02*
X85730100Y-127124900D01*
X85730100Y-127124900D02*
X85915000Y-126940000D01*
X85915000Y-126940000D02*
X87000000Y-128025000D01*
X45715300Y-109000000D02*
X45715300Y-109367300D01*
X45715300Y-109367300D02*
X60108900Y-123760900D01*
X60108900Y-123760900D02*
X64447200Y-123760900D01*
X64447200Y-123760900D02*
X66241700Y-125555400D01*
X44540000Y-109000000D02*
X45715300Y-109000000D01*
X82499300Y-124628500D02*
X82499300Y-123932400D01*
X82499300Y-123932400D02*
X83932300Y-122499400D01*
X83932300Y-122499400D02*
X84610900Y-122499400D01*
X45265600Y-32565500D02*
X44000000Y-31300000D01*
X44540000Y-44284700D02*
X42870200Y-42614900D01*
X42870200Y-42614900D02*
X42870200Y-34960900D01*
X42870200Y-34960900D02*
X45265600Y-32565500D01*
X44540000Y-45460000D02*
X44540000Y-44284700D01*
X44540000Y-48000000D02*
X44540000Y-45460000D01*
X72280000Y-31460000D02*
X73455300Y-31460000D01*
X118000000Y-31460000D02*
X116824700Y-31460000D01*
X116824700Y-31460000D02*
X116824700Y-31092700D01*
X116824700Y-31092700D02*
X116016700Y-30284700D01*
X116016700Y-30284700D02*
X74263200Y-30284700D01*
X74263200Y-30284700D02*
X73455300Y-31092600D01*
X73455300Y-31092600D02*
X73455300Y-31460000D01*
X72280000Y-34000000D02*
X71104700Y-34000000D01*
%TO.N,WIRE2_1*%
X159099700Y-132777400D02*
X150077300Y-132777400D01*
X150077300Y-132777400D02*
X149785600Y-133069100D01*
X149785600Y-133069100D02*
X135487200Y-133069100D01*
X135487200Y-133069100D02*
X135000000Y-132581900D01*
X135000000Y-132581900D02*
X135000000Y-131372900D01*
X135000000Y-131372900D02*
X134550200Y-130923100D01*
X134550200Y-130923100D02*
X127735000Y-130923100D01*
X127735000Y-130923100D02*
X125598600Y-133059500D01*
X125598600Y-133059500D02*
X124435400Y-133059500D01*
X124435400Y-133059500D02*
X124034500Y-132658600D01*
X124034500Y-132658600D02*
X124034500Y-131455800D01*
X124034500Y-131455800D02*
X123059200Y-130480500D01*
X123059200Y-130480500D02*
X116351000Y-130480500D01*
%TO.N,WIRE2_2*%
X115051000Y-130480500D02*
X115051000Y-132814400D01*
X115051000Y-132814400D02*
X115155100Y-132918500D01*
%TO.N,WIRE2_3*%
X114401000Y-130480500D02*
X114401000Y-139377100D01*
%TO.N,WIRE2_4*%
X111333800Y-138691400D02*
X113751000Y-136274200D01*
X113751000Y-136274200D02*
X113751000Y-130480500D01*
%TO.N,WIRE2_5*%
X113101000Y-130480500D02*
X113101000Y-134615300D01*
X113101000Y-134615300D02*
X110174200Y-137542100D01*
%TO.N,WIRE2_6*%
X112451000Y-130480500D02*
X112451000Y-132769100D01*
X112451000Y-132769100D02*
X107412700Y-137807400D01*
%TO.N,WIRE2_7*%
X111801000Y-130480500D02*
X111801000Y-131188800D01*
X111801000Y-131188800D02*
X104214200Y-138775600D01*
X104214200Y-138775600D02*
X103908500Y-138775600D01*
%TO.N,WIRE2_8*%
X111151000Y-130480500D02*
X111151000Y-131188500D01*
X111151000Y-131188500D02*
X104289200Y-138050300D01*
X104289200Y-138050300D02*
X103608100Y-138050300D01*
X103608100Y-138050300D02*
X102664800Y-138993600D01*
X102664800Y-138993600D02*
X102664800Y-138993700D01*
X102664800Y-138993700D02*
X102634800Y-138993700D01*
%TO.N,WIRE3_1*%
X127336000Y-133095500D02*
X128396100Y-134155600D01*
X128396100Y-134155600D02*
X149994700Y-134155600D01*
X149994700Y-134155600D02*
X150072200Y-134233100D01*
X150072200Y-134233100D02*
X161192400Y-134233100D01*
X161192400Y-134233100D02*
X166824000Y-139864700D01*
X166824000Y-144000000D02*
X166824000Y-139864700D01*
%TO.N,WIRE3_2*%
X126255800Y-134181200D02*
X126680500Y-134605900D01*
X126680500Y-134605900D02*
X149808100Y-134605900D01*
X149808100Y-134605900D02*
X149885600Y-134683400D01*
X149885600Y-134683400D02*
X159102700Y-134683400D01*
X159102700Y-134683400D02*
X164284000Y-139864700D01*
X164284000Y-144000000D02*
X164284000Y-139864700D01*
%TO.N,WIRE3_3*%
X161744000Y-144000000D02*
X161744000Y-139864700D01*
X148997800Y-135331200D02*
X157210500Y-135331200D01*
X157210500Y-135331200D02*
X161744000Y-139864700D01*
%TO.N,WIRE3_4*%
X159204000Y-144000000D02*
X159204000Y-139864700D01*
X150655400Y-136955000D02*
X156294300Y-136955000D01*
X156294300Y-136955000D02*
X159204000Y-139864700D01*
%TO.N,WIRE3_5*%
X156664000Y-139864700D02*
X155626600Y-138827300D01*
X155626600Y-138827300D02*
X151468100Y-138827300D01*
X151468100Y-138827300D02*
X147736300Y-135095500D01*
X147736300Y-135095500D02*
X125981900Y-135095500D01*
X125981900Y-135095500D02*
X125121600Y-134235200D01*
X156664000Y-144000000D02*
X156664000Y-139864700D01*
%TO.N,WIRE3_6*%
X154124000Y-144000000D02*
X154124000Y-139864700D01*
X153688000Y-139552600D02*
X154000100Y-139864700D01*
X154000100Y-139864700D02*
X154124000Y-139864700D01*
%TO.N,WIRE3_7*%
X124971000Y-135235600D02*
X125281200Y-135545800D01*
X125281200Y-135545800D02*
X147265100Y-135545800D01*
X147265100Y-135545800D02*
X151584000Y-139864700D01*
X151584000Y-144000000D02*
X151584000Y-139864700D01*
%TO.N,WIRE3_8*%
X123970600Y-135285800D02*
X124680900Y-135996100D01*
X124680900Y-135996100D02*
X145175400Y-135996100D01*
X145175400Y-135996100D02*
X149044000Y-139864700D01*
X149044000Y-144000000D02*
X149044000Y-139864700D01*
%TO.N,WIRE7_1*%
X143964000Y-139585900D02*
X143964000Y-144000000D01*
%TO.N,WIRE7_2*%
X136826700Y-138176900D02*
X135491800Y-138176900D01*
X135491800Y-138176900D02*
X133804000Y-139864700D01*
X133804000Y-144000000D02*
X133804000Y-139864700D01*
%TO.N,WIRE7_3*%
X132516200Y-139666900D02*
X132318400Y-139864700D01*
X132318400Y-139864700D02*
X131264000Y-139864700D01*
X131264000Y-144000000D02*
X131264000Y-139864700D01*
%TO.N,WIRE7_4*%
X128724000Y-144000000D02*
X128724000Y-139864700D01*
X129337200Y-139557000D02*
X129029500Y-139864700D01*
X129029500Y-139864700D02*
X128724000Y-139864700D01*
%TO.N,WIRE7_5*%
X126184000Y-139864700D02*
X127443600Y-139864700D01*
X127443600Y-139864700D02*
X127752500Y-139555800D01*
X126184000Y-144000000D02*
X126184000Y-139864700D01*
%TO.N,WIRE7_6*%
X123644000Y-139864700D02*
X125166500Y-139864700D01*
X125166500Y-139864700D02*
X125458600Y-139572600D01*
X123644000Y-144000000D02*
X123644000Y-139864700D01*
%TO.N,WIRE7_7*%
X121834400Y-139418300D02*
X121388000Y-139864700D01*
X121388000Y-139864700D02*
X121104000Y-139864700D01*
X121104000Y-144000000D02*
X121104000Y-139864700D01*
%TO.N,WIRE7_8*%
X121349000Y-138042700D02*
X119527000Y-139864700D01*
X119527000Y-139864700D02*
X118564000Y-139864700D01*
X118564000Y-144000000D02*
X118564000Y-139864700D01*
%TO.N,WIRE5_1*%
X115632400Y-139577200D02*
X115919900Y-139864700D01*
X115919900Y-139864700D02*
X116024000Y-139864700D01*
X116024000Y-144000000D02*
X116024000Y-139864700D01*
%TO.N,WIRE5_2*%
X113185300Y-139566000D02*
X113484000Y-139864700D01*
X113484000Y-144000000D02*
X113484000Y-139864700D01*
%TO.N,WIRE5_3*%
X110944000Y-139864700D02*
X109497600Y-138418300D01*
X109497600Y-138418300D02*
X108557000Y-138418300D01*
X110944000Y-144000000D02*
X110944000Y-139864700D01*
%TO.N,WIRE5_4*%
X108404000Y-139864700D02*
X108198700Y-139864700D01*
X108198700Y-139864700D02*
X106412300Y-138078300D01*
X108404000Y-144000000D02*
X108404000Y-139864700D01*
%TO.N,WIRE5_5*%
X105564300Y-139129400D02*
X105864000Y-139429100D01*
X105864000Y-139429100D02*
X105864000Y-144000000D01*
%TO.N,WIRE5_6*%
X101567300Y-139028000D02*
X102404000Y-139864700D01*
X102404000Y-139864700D02*
X103324000Y-139864700D01*
X103324000Y-144000000D02*
X103324000Y-139864700D01*
%TO.N,WIRE5_7*%
X100784000Y-139864700D02*
X99513200Y-139864700D01*
X99513200Y-139864700D02*
X99216900Y-139568400D01*
X100784000Y-144000000D02*
X100784000Y-139864700D01*
%TO.N,WIRE5_8*%
X91825700Y-137222500D02*
X95601800Y-137222500D01*
X95601800Y-137222500D02*
X98244000Y-139864700D01*
X98244000Y-144000000D02*
X98244000Y-139864700D01*
%TO.N,WIRE8_1*%
X95704000Y-144000000D02*
X95704000Y-139864700D01*
X78920400Y-136910900D02*
X89507600Y-136910900D01*
X89507600Y-136910900D02*
X92461400Y-139864700D01*
X92461400Y-139864700D02*
X95704000Y-139864700D01*
%TO.N,WIRE1_1*%
X83149300Y-130353500D02*
X83263400Y-130467600D01*
X83263400Y-130467600D02*
X83263400Y-131705500D01*
%TO.N,WIRE1_2*%
X81849300Y-130353500D02*
X81849300Y-133766300D01*
%TO.N,WIRE1_3*%
X79848600Y-133548100D02*
X81199300Y-132197400D01*
X81199300Y-132197400D02*
X81199300Y-130353500D01*
%TO.N,WIRE1_4*%
X80549300Y-130353500D02*
X80549300Y-131072100D01*
X80549300Y-131072100D02*
X75191200Y-136430200D01*
X75191200Y-136430200D02*
X73986000Y-136430200D01*
%TO.N,WIRE1_5*%
X79899300Y-130353500D02*
X79899300Y-131079300D01*
X79899300Y-131079300D02*
X75463300Y-135515300D01*
X75463300Y-135515300D02*
X72233500Y-135515300D01*
X72233500Y-135515300D02*
X72233500Y-135515400D01*
X72233500Y-135515400D02*
X71512900Y-136236000D01*
%TO.N,WIRE1_6*%
X79249300Y-130353500D02*
X79249300Y-131092400D01*
X79249300Y-131092400D02*
X75348300Y-134993400D01*
X75348300Y-134993400D02*
X71221600Y-134993400D01*
X71221600Y-134993400D02*
X70144900Y-136070100D01*
%TO.N,WIRE1_7*%
X78599300Y-130353500D02*
X78599300Y-131105500D01*
X78599300Y-131105500D02*
X75260700Y-134444100D01*
X75260700Y-134444100D02*
X67975400Y-134444100D01*
X67975400Y-134444100D02*
X65902200Y-136517300D01*
%TO.N,WIRE1_8*%
X77949300Y-130353500D02*
X77949300Y-131118600D01*
X77949300Y-131118600D02*
X75074100Y-133993800D01*
X75074100Y-133993800D02*
X67012300Y-133993800D01*
X67012300Y-133993800D02*
X66073700Y-134932400D01*
%TO.N,WIRE8_2*%
X83004000Y-144000000D02*
X83004000Y-139864700D01*
X77861300Y-138081200D02*
X81220500Y-138081200D01*
X81220500Y-138081200D02*
X83004000Y-139864700D01*
%TO.N,WIRE8_3*%
X76623600Y-138821800D02*
X79421100Y-138821800D01*
X79421100Y-138821800D02*
X80464000Y-139864700D01*
X80464000Y-144000000D02*
X80464000Y-139864700D01*
%TO.N,WIRE8_4*%
X77924000Y-139864700D02*
X76034100Y-139864700D01*
X76034100Y-139864700D02*
X75273800Y-139104400D01*
X77924000Y-144000000D02*
X77924000Y-139864700D01*
%TO.N,WIRE8_5*%
X75384000Y-144000000D02*
X75384000Y-139864700D01*
X73051300Y-138995100D02*
X73920900Y-139864700D01*
X73920900Y-139864700D02*
X75384000Y-139864700D01*
%TO.N,WIRE8_6*%
X68707800Y-138546700D02*
X71526000Y-138546700D01*
X71526000Y-138546700D02*
X72844000Y-139864700D01*
X72844000Y-144000000D02*
X72844000Y-139864700D01*
%TO.N,WIRE8_7*%
X70304000Y-144000000D02*
X70304000Y-139864700D01*
X70304000Y-139864700D02*
X68796500Y-139864700D01*
X68796500Y-139864700D02*
X68504100Y-139572300D01*
%TO.N,WIRE8_8*%
X67256700Y-139583500D02*
X67537900Y-139864700D01*
X67537900Y-139864700D02*
X67764000Y-139864700D01*
X67764000Y-144000000D02*
X67764000Y-139864700D01*
%TO.N,WIRE6_1*%
X98336900Y-134325400D02*
X96476700Y-136185600D01*
X96476700Y-136185600D02*
X78620000Y-136185600D01*
X78620000Y-136185600D02*
X76730500Y-138075100D01*
X76730500Y-138075100D02*
X76730500Y-138075200D01*
X76730500Y-138075200D02*
X71052600Y-138075200D01*
X71052600Y-138075200D02*
X70762700Y-137785300D01*
X70762700Y-137785300D02*
X67572200Y-137785300D01*
X67572200Y-137785300D02*
X65492800Y-139864700D01*
X65492800Y-139864700D02*
X65224000Y-139864700D01*
X65224000Y-144000000D02*
X65224000Y-139864700D01*
%TO.N,WIRE6_2*%
X97558600Y-133618000D02*
X95441300Y-135735300D01*
X95441300Y-135735300D02*
X78433400Y-135735300D01*
X78433400Y-135735300D02*
X76543800Y-137624900D01*
X76543800Y-137624900D02*
X71239200Y-137624900D01*
X71239200Y-137624900D02*
X70909500Y-137295200D01*
X70909500Y-137295200D02*
X67425400Y-137295200D01*
X67425400Y-137295200D02*
X67027700Y-137692900D01*
X67027700Y-137692900D02*
X64855800Y-137692900D01*
X64855800Y-137692900D02*
X62684000Y-139864700D01*
X62684000Y-144000000D02*
X62684000Y-139864700D01*
%TO.N,WIRE6_3*%
X96851200Y-132910600D02*
X94476800Y-135285000D01*
X94476800Y-135285000D02*
X78150400Y-135285000D01*
X78150400Y-135285000D02*
X76279900Y-137155500D01*
X76279900Y-137155500D02*
X71406700Y-137155500D01*
X71406700Y-137155500D02*
X71048600Y-136797400D01*
X71048600Y-136797400D02*
X67286300Y-136797400D01*
X67286300Y-136797400D02*
X66841100Y-137242600D01*
X66841100Y-137242600D02*
X62766100Y-137242600D01*
X62766100Y-137242600D02*
X60144000Y-139864700D01*
X60144000Y-144000000D02*
X60144000Y-139864700D01*
%TO.N,WIRE4_1*%
X58330200Y-139570000D02*
X58035500Y-139864700D01*
X58035500Y-139864700D02*
X57604000Y-139864700D01*
X57604000Y-144000000D02*
X57604000Y-139864700D01*
%TO.N,WIRE4_2*%
X55064000Y-144000000D02*
X55064000Y-139864700D01*
X56248300Y-139623300D02*
X56006900Y-139864700D01*
X56006900Y-139864700D02*
X55064000Y-139864700D01*
%TO.N,WIRE4_3*%
X52524000Y-144000000D02*
X52524000Y-139864700D01*
X58949900Y-134072600D02*
X58949900Y-134903700D01*
X58949900Y-134903700D02*
X53988900Y-139864700D01*
X53988900Y-139864700D02*
X52524000Y-139864700D01*
%TO.N,WIRE4_4*%
X49984000Y-144000000D02*
X49984000Y-139864700D01*
X55290900Y-137513100D02*
X52335600Y-137513100D01*
X52335600Y-137513100D02*
X49984000Y-139864700D01*
%TO.N,WIRE4_5*%
X47444000Y-139864700D02*
X48931100Y-139864700D01*
X48931100Y-139864700D02*
X49241800Y-139554000D01*
X47444000Y-144000000D02*
X47444000Y-139864700D01*
%TO.N,WIRE4_6*%
X44904000Y-139113000D02*
X44904000Y-144000000D01*
%TO.N,WIRE4_7*%
X42364000Y-144000000D02*
X42364000Y-139864700D01*
X54022200Y-135048400D02*
X50693400Y-138377200D01*
X50693400Y-138377200D02*
X43851500Y-138377200D01*
X43851500Y-138377200D02*
X42364000Y-139864700D01*
%TO.N,WIRE4_8*%
X39824000Y-144000000D02*
X39824000Y-139864700D01*
X39824000Y-139864700D02*
X43249300Y-136439400D01*
X43249300Y-136439400D02*
X49825400Y-136439400D01*
%TO.N,IPL2*%
X88890200Y-104763100D02*
X88922600Y-104795500D01*
X88922600Y-104795500D02*
X107089200Y-104795500D01*
X107089200Y-104795500D02*
X107381000Y-105087300D01*
X107381000Y-105087300D02*
X113479400Y-105087300D01*
X113479400Y-105087300D02*
X114484700Y-106092600D01*
X114484700Y-106092600D02*
X114484700Y-106460000D01*
X87594500Y-117032700D02*
X87205500Y-117032700D01*
X87205500Y-117032700D02*
X82928800Y-121309400D01*
X82928800Y-121309400D02*
X81854800Y-121309400D01*
X81854800Y-121309400D02*
X79249300Y-123914900D01*
X79249300Y-123914900D02*
X79249300Y-124628500D01*
X115660000Y-106460000D02*
X114484700Y-106460000D01*
%TO.N,BERR*%
X77949300Y-124628500D02*
X77949300Y-125342300D01*
X77949300Y-125342300D02*
X79277600Y-126670600D01*
X79277600Y-126670600D02*
X83837300Y-126670600D01*
X83837300Y-126670600D02*
X88780200Y-121727700D01*
X88780200Y-121727700D02*
X89614100Y-121727700D01*
X89614100Y-121727700D02*
X96899200Y-114442600D01*
X96899200Y-114442600D02*
X109409400Y-114442600D01*
X109409400Y-114442600D02*
X114484700Y-109367300D01*
X114484700Y-109367300D02*
X114484700Y-109000000D01*
X115660000Y-109000000D02*
X114484700Y-109000000D01*
%TO.N,IPL1*%
X113120000Y-106460000D02*
X114484600Y-107824600D01*
X114484600Y-107824600D02*
X116149400Y-107824600D01*
X116149400Y-107824600D02*
X116835400Y-108510600D01*
X116835400Y-108510600D02*
X116835400Y-109492200D01*
X116835400Y-109492200D02*
X111271900Y-115055700D01*
X111271900Y-115055700D02*
X97312100Y-115055700D01*
X97312100Y-115055700D02*
X96799000Y-115568800D01*
X79899300Y-124628500D02*
X79899300Y-123937000D01*
X79899300Y-123937000D02*
X81102100Y-122734200D01*
X81102100Y-122734200D02*
X82211900Y-122734200D01*
X82211900Y-122734200D02*
X87126500Y-117819600D01*
X87126500Y-117819600D02*
X89300900Y-117819600D01*
%TO.N,VPA*%
X113120000Y-109000000D02*
X111944700Y-109000000D01*
X81199300Y-124628500D02*
X81199300Y-125390700D01*
X81199300Y-125390700D02*
X81977000Y-126168400D01*
X81977000Y-126168400D02*
X83685500Y-126168400D01*
X83685500Y-126168400D02*
X88735600Y-121118300D01*
X88735600Y-121118300D02*
X89493600Y-121118300D01*
X89493600Y-121118300D02*
X97070000Y-113541900D01*
X97070000Y-113541900D02*
X107770100Y-113541900D01*
X107770100Y-113541900D02*
X111944700Y-109367300D01*
X111944700Y-109367300D02*
X111944700Y-109000000D01*
%TO.N,IPL0*%
X110580000Y-106460000D02*
X109404700Y-106460000D01*
X80549300Y-124628500D02*
X80549300Y-123923900D01*
X80549300Y-123923900D02*
X81194800Y-123278400D01*
X81194800Y-123278400D02*
X82304600Y-123278400D01*
X82304600Y-123278400D02*
X86265800Y-119317200D01*
X86265800Y-119317200D02*
X88839900Y-119317200D01*
X88839900Y-119317200D02*
X96300200Y-111856900D01*
X96300200Y-111856900D02*
X101766200Y-111856900D01*
X101766200Y-111856900D02*
X104324600Y-109298500D01*
X104324600Y-109298500D02*
X104324600Y-108416200D01*
X104324600Y-108416200D02*
X105105500Y-107635300D01*
X105105500Y-107635300D02*
X108596800Y-107635300D01*
X108596800Y-107635300D02*
X109404700Y-106827400D01*
X109404700Y-106827400D02*
X109404700Y-106460000D01*
%TO.N,E*%
X109404700Y-109000000D02*
X109404700Y-109367400D01*
X109404700Y-109367400D02*
X105905600Y-112866500D01*
X105905600Y-112866500D02*
X96564400Y-112866500D01*
X96564400Y-112866500D02*
X89054100Y-120376800D01*
X89054100Y-120376800D02*
X88823000Y-120376800D01*
X88823000Y-120376800D02*
X83497500Y-125702300D01*
X83497500Y-125702300D02*
X82225300Y-125702300D01*
X82225300Y-125702300D02*
X81849300Y-125326300D01*
X81849300Y-125326300D02*
X81849300Y-124628500D01*
X110580000Y-109000000D02*
X109404700Y-109000000D01*
%TO.N,AS*%
X109174200Y-100759600D02*
X109331800Y-100917200D01*
X109331800Y-100917200D02*
X121950700Y-100917200D01*
X121950700Y-100917200D02*
X123243700Y-102210200D01*
X123243700Y-102210200D02*
X129985500Y-102210200D01*
%TO.N,VMA*%
X83149300Y-124628500D02*
X83528600Y-124628500D01*
X83528600Y-124628500D02*
X88230600Y-119926500D01*
X88230600Y-119926500D02*
X88867500Y-119926500D01*
X88867500Y-119926500D02*
X96486700Y-112307300D01*
X96486700Y-112307300D02*
X103858700Y-112307300D01*
X103858700Y-112307300D02*
X106864700Y-109301300D01*
X106864700Y-109301300D02*
X106864700Y-109000000D01*
X108040000Y-109000000D02*
X106864700Y-109000000D01*
%TO.N,A23*%
X72027600Y-115495700D02*
X72884700Y-115495700D01*
X72884700Y-115495700D02*
X73354000Y-115965000D01*
X73354000Y-115965000D02*
X76092100Y-115965000D01*
X76092100Y-115965000D02*
X80459600Y-111597500D01*
X104324700Y-106460000D02*
X104324700Y-106092600D01*
X104324700Y-106092600D02*
X103516800Y-105284700D01*
X103516800Y-105284700D02*
X89770100Y-105284700D01*
X89770100Y-105284700D02*
X88990000Y-106064800D01*
X88990000Y-106064800D02*
X88990000Y-106891000D01*
X88990000Y-106891000D02*
X88245600Y-107635400D01*
X88245600Y-107635400D02*
X81340700Y-107635400D01*
X105500000Y-106460000D02*
X104324700Y-106460000D01*
%TO.N,BGACK*%
X112451000Y-124755500D02*
X112451000Y-123671600D01*
X112451000Y-123671600D02*
X112264100Y-123484700D01*
X112264100Y-123484700D02*
X112264100Y-122564400D01*
X112264100Y-122564400D02*
X107414900Y-117715200D01*
X107414900Y-117715200D02*
X105608800Y-117715200D01*
%TO.N,A22*%
X70715000Y-116954600D02*
X78342500Y-116954600D01*
X78342500Y-116954600D02*
X82676300Y-112620800D01*
%TO.N,DTACK*%
X101784700Y-109000000D02*
X101784700Y-109367400D01*
X101784700Y-109367400D02*
X99885900Y-111266200D01*
X99885900Y-111266200D02*
X96254000Y-111266200D01*
X96254000Y-111266200D02*
X95093500Y-112426700D01*
X95093500Y-112426700D02*
X91174600Y-112426700D01*
X91174600Y-112426700D02*
X84566800Y-119034500D01*
X84566800Y-119034500D02*
X83483700Y-119034500D01*
X83483700Y-119034500D02*
X78599300Y-123918900D01*
X78599300Y-123918900D02*
X78599300Y-124628500D01*
X102960000Y-109000000D02*
X101784700Y-109000000D01*
%TO.N,A21*%
X100420000Y-107635300D02*
X100052600Y-107635300D01*
X100052600Y-107635300D02*
X99244700Y-108443200D01*
X99244700Y-108443200D02*
X99244700Y-109309100D01*
X99244700Y-109309100D02*
X97993500Y-110560300D01*
X97993500Y-110560300D02*
X96078900Y-110560300D01*
X96078900Y-110560300D02*
X94662900Y-111976300D01*
X94662900Y-111976300D02*
X90988000Y-111976300D01*
X90988000Y-111976300D02*
X84380100Y-118584200D01*
X84380100Y-118584200D02*
X82891400Y-118584200D01*
X82891400Y-118584200D02*
X79157500Y-122318100D01*
X79157500Y-122318100D02*
X69576000Y-122318100D01*
X100420000Y-106460000D02*
X100420000Y-107635300D01*
%TO.N,A20*%
X97880000Y-107635300D02*
X97512600Y-107635300D01*
X97512600Y-107635300D02*
X96704700Y-108443200D01*
X96704700Y-108443200D02*
X96704700Y-109297600D01*
X96704700Y-109297600D02*
X95318500Y-110683800D01*
X95318500Y-110683800D02*
X91643600Y-110683800D01*
X91643600Y-110683800D02*
X84193500Y-118133900D01*
X84193500Y-118133900D02*
X82479900Y-118133900D01*
X82479900Y-118133900D02*
X79021000Y-121592800D01*
X79021000Y-121592800D02*
X68843000Y-121592800D01*
X68843000Y-121592800D02*
X68817800Y-121618000D01*
X97880000Y-106460000D02*
X97880000Y-107635300D01*
%TO.N,A19*%
X95340000Y-107635300D02*
X94972600Y-107635300D01*
X94972600Y-107635300D02*
X94164700Y-108443200D01*
X94164700Y-108443200D02*
X94164700Y-109316500D01*
X94164700Y-109316500D02*
X93305900Y-110175300D01*
X93305900Y-110175300D02*
X91515200Y-110175300D01*
X91515200Y-110175300D02*
X84006900Y-117683600D01*
X84006900Y-117683600D02*
X81442000Y-117683600D01*
X81442000Y-117683600D02*
X78232900Y-120892700D01*
X78232900Y-120892700D02*
X68517400Y-120892700D01*
X68517400Y-120892700D02*
X67894400Y-121515700D01*
X67894400Y-121515700D02*
X67894400Y-121515800D01*
X67894400Y-121515800D02*
X67817400Y-121515800D01*
X95340000Y-106460000D02*
X95340000Y-107635300D01*
%TO.N,RST*%
X116351000Y-124755500D02*
X116351000Y-123214300D01*
X116351000Y-123214300D02*
X109070800Y-115934100D01*
X109070800Y-115934100D02*
X98825700Y-115934100D01*
%TO.N,A18*%
X92800000Y-107635300D02*
X92432600Y-107635300D01*
X92432600Y-107635300D02*
X91624700Y-108443200D01*
X91624700Y-108443200D02*
X91624700Y-109301300D01*
X91624700Y-109301300D02*
X85476000Y-115450000D01*
X85476000Y-115450000D02*
X83038600Y-115450000D01*
X83038600Y-115450000D02*
X78181000Y-120307600D01*
X78181000Y-120307600D02*
X68076600Y-120307600D01*
X92800000Y-106460000D02*
X92800000Y-107635300D01*
%TO.N,CPU_CLK*%
X115051000Y-124755500D02*
X115051000Y-122551200D01*
X115051000Y-122551200D02*
X109487600Y-116987800D01*
X109487600Y-116987800D02*
X98825700Y-116987800D01*
%TO.N,RW*%
X71927300Y-119377300D02*
X77582500Y-119377300D01*
X77582500Y-119377300D02*
X86784500Y-110175300D01*
X86784500Y-110175300D02*
X88276800Y-110175300D01*
X88276800Y-110175300D02*
X89084700Y-109367400D01*
X89084700Y-109367400D02*
X89084700Y-109000000D01*
X90260000Y-109000000D02*
X89084700Y-109000000D01*
%TO.N,A16*%
X92788500Y-100774400D02*
X108163300Y-100774400D01*
X108163300Y-100774400D02*
X108873800Y-101484900D01*
X108873800Y-101484900D02*
X121881400Y-101484900D01*
X121881400Y-101484900D02*
X123354200Y-102957700D01*
X123354200Y-102957700D02*
X130682400Y-102957700D01*
%TO.N,D15*%
X66429100Y-117609400D02*
X66565100Y-117745400D01*
X66565100Y-117745400D02*
X70950000Y-117745400D01*
X70950000Y-117745400D02*
X71176600Y-117518800D01*
X71176600Y-117518800D02*
X78804100Y-117518800D01*
X78804100Y-117518800D02*
X86544700Y-109778200D01*
X86544700Y-109778200D02*
X86544700Y-109000000D01*
X87720000Y-109000000D02*
X86544700Y-109000000D01*
%TO.N,A15*%
X136564700Y-111338500D02*
X128715500Y-111338500D01*
X128715500Y-111338500D02*
X124629200Y-107252200D01*
X124629200Y-107252200D02*
X123509000Y-107252200D01*
X123509000Y-107252200D02*
X120443500Y-104186700D01*
X120443500Y-104186700D02*
X107754200Y-104186700D01*
X107754200Y-104186700D02*
X107318800Y-103751300D01*
X107318800Y-103751300D02*
X89541100Y-103751300D01*
X89541100Y-103751300D02*
X89377300Y-103587500D01*
X89377300Y-103587500D02*
X86916900Y-103587500D01*
%TO.N,D14*%
X62995800Y-116229300D02*
X72981400Y-116229300D01*
X72981400Y-116229300D02*
X73167400Y-116415300D01*
X73167400Y-116415300D02*
X76945800Y-116415300D01*
X76945800Y-116415300D02*
X84004700Y-109356400D01*
X84004700Y-109356400D02*
X84004700Y-109000000D01*
X85180000Y-109000000D02*
X84004700Y-109000000D01*
%TO.N,A14*%
X83308500Y-103163200D02*
X83609500Y-102862200D01*
X83609500Y-102862200D02*
X89382300Y-102862200D01*
X89382300Y-102862200D02*
X89821100Y-103301000D01*
X89821100Y-103301000D02*
X107505400Y-103301000D01*
X107505400Y-103301000D02*
X107940800Y-103736400D01*
X107940800Y-103736400D02*
X120948400Y-103736400D01*
X120948400Y-103736400D02*
X123563500Y-106351500D01*
X123563500Y-106351500D02*
X124739200Y-106351500D01*
X124739200Y-106351500D02*
X125471100Y-107083400D01*
X125471100Y-107083400D02*
X133870000Y-107083400D01*
%TO.N,D13*%
X81464700Y-109000000D02*
X81464700Y-109367400D01*
X81464700Y-109367400D02*
X80656800Y-110175300D01*
X80656800Y-110175300D02*
X78728300Y-110175300D01*
X78728300Y-110175300D02*
X74686700Y-114216900D01*
X74686700Y-114216900D02*
X73507100Y-114216900D01*
X73507100Y-114216900D02*
X73025300Y-114698700D01*
X73025300Y-114698700D02*
X63747700Y-114698700D01*
X82640000Y-109000000D02*
X81464700Y-109000000D01*
%TO.N,A13*%
X81275300Y-106460000D02*
X81275300Y-106092700D01*
X81275300Y-106092700D02*
X82190000Y-105178000D01*
X82190000Y-105178000D02*
X86352200Y-105178000D01*
X86352200Y-105178000D02*
X87492400Y-104037800D01*
X87492400Y-104037800D02*
X89190700Y-104037800D01*
X89190700Y-104037800D02*
X89498000Y-104345100D01*
X89498000Y-104345100D02*
X107275700Y-104345100D01*
X107275700Y-104345100D02*
X107567600Y-104637000D01*
X107567600Y-104637000D02*
X118123600Y-104637000D01*
X118123600Y-104637000D02*
X119470000Y-105983400D01*
X119470000Y-105983400D02*
X119470000Y-106881900D01*
X119470000Y-106881900D02*
X120300200Y-107712100D01*
X120300200Y-107712100D02*
X124055200Y-107712100D01*
X124055200Y-107712100D02*
X124531700Y-108188600D01*
X80100000Y-106460000D02*
X81275300Y-106460000D01*
%TO.N,D12*%
X62806000Y-114192900D02*
X63031100Y-113967800D01*
X63031100Y-113967800D02*
X66737400Y-113967800D01*
X66737400Y-113967800D02*
X66768900Y-113999300D01*
X66768900Y-113999300D02*
X73087800Y-113999300D01*
X73087800Y-113999300D02*
X73320500Y-113766600D01*
X73320500Y-113766600D02*
X74500100Y-113766600D01*
X74500100Y-113766600D02*
X78924700Y-109342000D01*
X78924700Y-109342000D02*
X78924700Y-109000000D01*
X80100000Y-109000000D02*
X78924700Y-109000000D01*
%TO.N,A12*%
X77560000Y-106460000D02*
X82058400Y-101961600D01*
X82058400Y-101961600D02*
X89755500Y-101961600D01*
X89755500Y-101961600D02*
X90194300Y-102400400D01*
X90194300Y-102400400D02*
X107878600Y-102400400D01*
X107878600Y-102400400D02*
X108314000Y-102835800D01*
X108314000Y-102835800D02*
X121321600Y-102835800D01*
X121321600Y-102835800D02*
X123936700Y-105450900D01*
X123936700Y-105450900D02*
X125337400Y-105450900D01*
X125337400Y-105450900D02*
X125481700Y-105595200D01*
X125481700Y-105595200D02*
X130134800Y-105595200D01*
%TO.N,D11*%
X61935300Y-113447500D02*
X66854000Y-113447500D01*
X66854000Y-113447500D02*
X66955500Y-113549000D01*
X66955500Y-113549000D02*
X72203100Y-113549000D01*
X72203100Y-113549000D02*
X76384700Y-109367400D01*
X76384700Y-109367400D02*
X76384700Y-109000000D01*
X77560000Y-109000000D02*
X76384700Y-109000000D01*
%TO.N,A11*%
X76195300Y-106460000D02*
X76195300Y-106147700D01*
X76195300Y-106147700D02*
X80831700Y-101511300D01*
X80831700Y-101511300D02*
X89942100Y-101511300D01*
X89942100Y-101511300D02*
X90380900Y-101950100D01*
X90380900Y-101950100D02*
X108065200Y-101950100D01*
X108065200Y-101950100D02*
X108500600Y-102385500D01*
X108500600Y-102385500D02*
X121508200Y-102385500D01*
X121508200Y-102385500D02*
X123872200Y-104749500D01*
X123872200Y-104749500D02*
X128547400Y-104749500D01*
X75020000Y-106460000D02*
X76195300Y-106460000D01*
%TO.N,D10*%
X73844700Y-109000000D02*
X73844700Y-109367300D01*
X73844700Y-109367300D02*
X71326900Y-111885100D01*
X71326900Y-111885100D02*
X61755700Y-111885100D01*
X75020000Y-109000000D02*
X73844700Y-109000000D01*
%TO.N,A10*%
X73655300Y-106460000D02*
X73655300Y-106092700D01*
X73655300Y-106092700D02*
X78687000Y-101061000D01*
X78687000Y-101061000D02*
X90128700Y-101061000D01*
X90128700Y-101061000D02*
X90567500Y-101499800D01*
X90567500Y-101499800D02*
X108251800Y-101499800D01*
X108251800Y-101499800D02*
X108687200Y-101935200D01*
X108687200Y-101935200D02*
X121694800Y-101935200D01*
X121694800Y-101935200D02*
X123782600Y-104023000D01*
X123782600Y-104023000D02*
X126462600Y-104023000D01*
X72480000Y-106460000D02*
X73655300Y-106460000D01*
%TO.N,D9*%
X72480000Y-109000000D02*
X71304700Y-109000000D01*
X59461900Y-112441200D02*
X60822700Y-111080400D01*
X60822700Y-111080400D02*
X69591600Y-111080400D01*
X69591600Y-111080400D02*
X71304700Y-109367300D01*
X71304700Y-109367300D02*
X71304700Y-109000000D01*
%TO.N,D8*%
X57107600Y-112441200D02*
X59273200Y-110275600D01*
X59273200Y-110275600D02*
X68664400Y-110275600D01*
X68664400Y-110275600D02*
X69940000Y-109000000D01*
%TO.N,D7*%
X68575300Y-109000000D02*
X68575300Y-108632600D01*
X68575300Y-108632600D02*
X69383200Y-107824700D01*
X69383200Y-107824700D02*
X77953100Y-107824700D01*
X77953100Y-107824700D02*
X78735400Y-107042400D01*
X78735400Y-107042400D02*
X78735400Y-106158200D01*
X78735400Y-106158200D02*
X80241700Y-104651900D01*
X80241700Y-104651900D02*
X80794200Y-104651900D01*
X80794200Y-104651900D02*
X80794200Y-104651800D01*
X80794200Y-104651800D02*
X83034100Y-102411900D01*
X83034100Y-102411900D02*
X89568900Y-102411900D01*
X89568900Y-102411900D02*
X90007700Y-102850700D01*
X90007700Y-102850700D02*
X107692000Y-102850700D01*
X107692000Y-102850700D02*
X108127400Y-103286100D01*
X108127400Y-103286100D02*
X121135000Y-103286100D01*
X121135000Y-103286100D02*
X123750100Y-105901200D01*
X123750100Y-105901200D02*
X125150800Y-105901200D01*
X125150800Y-105901200D02*
X125601100Y-106351500D01*
X125601100Y-106351500D02*
X126039100Y-106351500D01*
X67400000Y-109000000D02*
X68575300Y-109000000D01*
%TO.N,D6*%
X66035300Y-109000000D02*
X66035300Y-108632600D01*
X66035300Y-108632600D02*
X66843200Y-107824700D01*
X66843200Y-107824700D02*
X67763500Y-107824700D01*
X67763500Y-107824700D02*
X68636600Y-106951600D01*
X68636600Y-106951600D02*
X68636600Y-106100300D01*
X68636600Y-106100300D02*
X74709600Y-100027300D01*
X74709600Y-100027300D02*
X109508200Y-100027300D01*
X109508200Y-100027300D02*
X109848100Y-100367200D01*
X109848100Y-100367200D02*
X122456900Y-100367200D01*
X122456900Y-100367200D02*
X122721500Y-100631800D01*
X64860000Y-109000000D02*
X66035300Y-109000000D01*
%TO.N,A6*%
X78376500Y-111587400D02*
X74724200Y-115239700D01*
X74724200Y-115239700D02*
X74281000Y-115239700D01*
%TO.N,D5*%
X123513500Y-101454100D02*
X123513500Y-100398000D01*
X123513500Y-100398000D02*
X123021900Y-99906400D01*
X123021900Y-99906400D02*
X110024300Y-99906400D01*
X110024300Y-99906400D02*
X109691000Y-99573100D01*
X109691000Y-99573100D02*
X72621000Y-99573100D01*
X72621000Y-99573100D02*
X66130000Y-106064100D01*
X66130000Y-106064100D02*
X66130000Y-106891000D01*
X66130000Y-106891000D02*
X65196300Y-107824700D01*
X65196300Y-107824700D02*
X64303200Y-107824700D01*
X64303200Y-107824700D02*
X63495300Y-108632600D01*
X63495300Y-108632600D02*
X63495300Y-109000000D01*
X62320000Y-109000000D02*
X63495300Y-109000000D01*
%TO.N,D4*%
X60955300Y-109000000D02*
X60955300Y-108632600D01*
X60955300Y-108632600D02*
X61763200Y-107824700D01*
X61763200Y-107824700D02*
X62639500Y-107824700D01*
X62639500Y-107824700D02*
X63556600Y-106907600D01*
X63556600Y-106907600D02*
X63556600Y-106059300D01*
X63556600Y-106059300D02*
X70693000Y-98922900D01*
X70693000Y-98922900D02*
X121894300Y-98922900D01*
X59780000Y-109000000D02*
X60955300Y-109000000D01*
%TO.N,D3*%
X54265900Y-111236200D02*
X52674200Y-111236200D01*
X52674200Y-111236200D02*
X50980400Y-109542400D01*
X50980400Y-109542400D02*
X50980400Y-105975400D01*
X50980400Y-105975400D02*
X59933900Y-97021900D01*
X59933900Y-97021900D02*
X121127900Y-97021900D01*
%TO.N,D2*%
X119195800Y-97747200D02*
X66796500Y-97747200D01*
X66796500Y-97747200D02*
X58415400Y-106128300D01*
X58415400Y-106128300D02*
X58415400Y-106985600D01*
X58415400Y-106985600D02*
X57576300Y-107824700D01*
X57576300Y-107824700D02*
X56683200Y-107824700D01*
X56683200Y-107824700D02*
X55875300Y-108632600D01*
X55875300Y-108632600D02*
X55875300Y-109000000D01*
X54700000Y-109000000D02*
X55875300Y-109000000D01*
%TO.N,A2*%
X52160000Y-106460000D02*
X52160000Y-107635300D01*
X52160000Y-107635300D02*
X52527400Y-107635300D01*
X52527400Y-107635300D02*
X53335300Y-108443200D01*
X53335300Y-108443200D02*
X53335300Y-109363300D01*
X53335300Y-109363300D02*
X54247800Y-110275800D01*
X54247800Y-110275800D02*
X54340900Y-110275800D01*
X54340900Y-110275800D02*
X56150400Y-112085300D01*
X56150400Y-112085300D02*
X56150400Y-112608700D01*
X56150400Y-112608700D02*
X56714400Y-113172700D01*
X56714400Y-113172700D02*
X59849200Y-113172700D01*
X59849200Y-113172700D02*
X60355600Y-112666300D01*
X60355600Y-112666300D02*
X67098500Y-112666300D01*
X67098500Y-112666300D02*
X67255900Y-112823700D01*
%TO.N,A1*%
X49620000Y-107635300D02*
X49252600Y-107635300D01*
X49252600Y-107635300D02*
X48444700Y-108443200D01*
X48444700Y-108443200D02*
X48444700Y-109492400D01*
X48444700Y-109492400D02*
X57307000Y-118354700D01*
X57307000Y-118354700D02*
X71930500Y-118354700D01*
X49620000Y-106460000D02*
X49620000Y-107635300D01*
%TO.N,GPIO0*%
X67856400Y-51671100D02*
X68137800Y-51952500D01*
X68137800Y-51952500D02*
X103704900Y-51952500D01*
X103704900Y-51952500D02*
X105165800Y-53413400D01*
X105165800Y-53413400D02*
X189606600Y-53413400D01*
X189606600Y-53413400D02*
X195020000Y-48000000D01*
%TO.N,GPIO27*%
X176064700Y-48000000D02*
X176064700Y-48367300D01*
X176064700Y-48367300D02*
X175247000Y-49185000D01*
X175247000Y-49185000D02*
X125454300Y-49185000D01*
X125454300Y-49185000D02*
X125242000Y-48972700D01*
X177240000Y-48000000D02*
X176064700Y-48000000D01*
X112920000Y-34000000D02*
X112920000Y-36901900D01*
X112920000Y-36901900D02*
X111861600Y-37960300D01*
X111861600Y-37960300D02*
X105221100Y-37960300D01*
X105221100Y-37960300D02*
X103746500Y-39434900D01*
X103746500Y-39434900D02*
X81917300Y-39434900D01*
X81917300Y-39434900D02*
X76195300Y-45156900D01*
X76195300Y-45156900D02*
X76195300Y-45460000D01*
X75020000Y-45460000D02*
X76195300Y-45460000D01*
%TO.N,GPIO2*%
X53524700Y-48000000D02*
X53524700Y-47632700D01*
X53524700Y-47632700D02*
X52716600Y-46824600D01*
X52716600Y-46824600D02*
X51634400Y-46824600D01*
X51634400Y-46824600D02*
X50977800Y-47481200D01*
X50977800Y-47481200D02*
X50977800Y-48560500D01*
X50977800Y-48560500D02*
X59466600Y-57049300D01*
X59466600Y-57049300D02*
X153764300Y-57049300D01*
X54700000Y-48000000D02*
X53524700Y-48000000D01*
%TO.N,GPIO29*%
X71115300Y-45460000D02*
X71115300Y-45092700D01*
X71115300Y-45092700D02*
X77223400Y-38984600D01*
X77223400Y-38984600D02*
X102047400Y-38984600D01*
X102047400Y-38984600D02*
X106664700Y-34367300D01*
X106664700Y-34367300D02*
X106664700Y-34000000D01*
X107840000Y-34000000D02*
X106664700Y-34000000D01*
X69940000Y-45460000D02*
X71115300Y-45460000D01*
%TO.N,GPIO3*%
X58415300Y-48000000D02*
X58415300Y-48367300D01*
X58415300Y-48367300D02*
X66371900Y-56323900D01*
X66371900Y-56323900D02*
X156266900Y-56323900D01*
X156266900Y-56323900D02*
X156570300Y-56627300D01*
X57240000Y-48000000D02*
X58415300Y-48000000D01*
%TO.N,GPIO30*%
X67400000Y-45460000D02*
X68575300Y-45460000D01*
X105300000Y-34000000D02*
X104124700Y-34000000D01*
X104124700Y-34000000D02*
X104124700Y-34367300D01*
X104124700Y-34367300D02*
X100117300Y-38374700D01*
X100117300Y-38374700D02*
X75363100Y-38374700D01*
X75363100Y-38374700D02*
X68575300Y-45162500D01*
X68575300Y-45162500D02*
X68575300Y-45460000D01*
%TO.N,GPIO4*%
X60955300Y-48000000D02*
X60955300Y-48367300D01*
X60955300Y-48367300D02*
X65441100Y-52853100D01*
X65441100Y-52853100D02*
X103331700Y-52853100D01*
X103331700Y-52853100D02*
X105001300Y-54522700D01*
X105001300Y-54522700D02*
X162108500Y-54522700D01*
X162108500Y-54522700D02*
X162200200Y-54614400D01*
X59780000Y-48000000D02*
X60955300Y-48000000D01*
%TO.N,GPIO31*%
X101584700Y-34000000D02*
X101584700Y-34367300D01*
X101584700Y-34367300D02*
X98027700Y-37924300D01*
X98027700Y-37924300D02*
X74978400Y-37924300D01*
X74978400Y-37924300D02*
X68618000Y-44284700D01*
X68618000Y-44284700D02*
X66843200Y-44284700D01*
X66843200Y-44284700D02*
X66035300Y-45092600D01*
X66035300Y-45092600D02*
X66035300Y-45460000D01*
X64860000Y-45460000D02*
X66035300Y-45460000D01*
X102760000Y-34000000D02*
X101584700Y-34000000D01*
%TO.N,GPIO5*%
X63495300Y-48000000D02*
X63495300Y-48367300D01*
X63495300Y-48367300D02*
X67530800Y-52402800D01*
X67530800Y-52402800D02*
X103518300Y-52402800D01*
X103518300Y-52402800D02*
X104979200Y-53863700D01*
X104979200Y-53863700D02*
X190888300Y-53863700D01*
X190888300Y-53863700D02*
X196384700Y-48367300D01*
X196384700Y-48367300D02*
X196384700Y-48000000D01*
X62320000Y-48000000D02*
X63495300Y-48000000D01*
X197560000Y-48000000D02*
X196384700Y-48000000D01*
%TO.N,GPIO32*%
X99044700Y-34000000D02*
X99044700Y-34367400D01*
X99044700Y-34367400D02*
X95938200Y-37473900D01*
X95938200Y-37473900D02*
X74212900Y-37473900D01*
X74212900Y-37473900D02*
X69707600Y-41979200D01*
X69707600Y-41979200D02*
X66608800Y-41979200D01*
X66608800Y-41979200D02*
X63495300Y-45092700D01*
X63495300Y-45092700D02*
X63495300Y-45460000D01*
X62320000Y-45460000D02*
X63495300Y-45460000D01*
X100220000Y-34000000D02*
X99044700Y-34000000D01*
%TO.N,GPIO6*%
X66035300Y-48000000D02*
X66035300Y-48367300D01*
X66035300Y-48367300D02*
X69170200Y-51502200D01*
X69170200Y-51502200D02*
X104528400Y-51502200D01*
X104528400Y-51502200D02*
X105972800Y-52946600D01*
X105972800Y-52946600D02*
X189257500Y-52946600D01*
X189257500Y-52946600D02*
X193750000Y-48454100D01*
X193750000Y-48454100D02*
X193750000Y-47569000D01*
X193750000Y-47569000D02*
X194494400Y-46824600D01*
X194494400Y-46824600D02*
X198116600Y-46824600D01*
X198116600Y-46824600D02*
X198924700Y-47632700D01*
X198924700Y-47632700D02*
X198924700Y-48000000D01*
X64860000Y-48000000D02*
X66035300Y-48000000D01*
X200100000Y-48000000D02*
X198924700Y-48000000D01*
%TO.N,GPIO33*%
X96504700Y-34000000D02*
X96504700Y-34367300D01*
X96504700Y-34367300D02*
X93848400Y-37023600D01*
X93848400Y-37023600D02*
X74026300Y-37023600D01*
X74026300Y-37023600D02*
X69521000Y-41528900D01*
X69521000Y-41528900D02*
X64585100Y-41528900D01*
X64585100Y-41528900D02*
X60955300Y-45158700D01*
X60955300Y-45158700D02*
X60955300Y-45460000D01*
X59780000Y-45460000D02*
X60955300Y-45460000D01*
X97680000Y-34000000D02*
X96504700Y-34000000D01*
%TO.N,GPIO7*%
X68575300Y-48000000D02*
X68575300Y-48367300D01*
X68575300Y-48367300D02*
X71259900Y-51051900D01*
X71259900Y-51051900D02*
X104715000Y-51051900D01*
X104715000Y-51051900D02*
X106159400Y-52496300D01*
X106159400Y-52496300D02*
X187168900Y-52496300D01*
X187168900Y-52496300D02*
X191304700Y-48360500D01*
X191304700Y-48360500D02*
X191304700Y-47443200D01*
X191304700Y-47443200D02*
X192112600Y-46635300D01*
X192112600Y-46635300D02*
X192480000Y-46635300D01*
X67400000Y-48000000D02*
X68575300Y-48000000D01*
X192480000Y-45460000D02*
X192480000Y-46635300D01*
%TO.N,GPIO34*%
X93964700Y-34000000D02*
X93964700Y-34367300D01*
X93964700Y-34367300D02*
X91758700Y-36573300D01*
X91758700Y-36573300D02*
X73839700Y-36573300D01*
X73839700Y-36573300D02*
X69334400Y-41078600D01*
X69334400Y-41078600D02*
X62429300Y-41078600D01*
X62429300Y-41078600D02*
X58415300Y-45092600D01*
X58415300Y-45092600D02*
X58415300Y-45460000D01*
X57240000Y-45460000D02*
X58415300Y-45460000D01*
X95140000Y-34000000D02*
X93964700Y-34000000D01*
%TO.N,GPIO8*%
X69940000Y-48000000D02*
X71115300Y-48000000D01*
X71115300Y-48000000D02*
X71115300Y-47632600D01*
X71115300Y-47632600D02*
X71923200Y-46824700D01*
X71923200Y-46824700D02*
X77896300Y-46824700D01*
X77896300Y-46824700D02*
X78830000Y-45891000D01*
X78830000Y-45891000D02*
X78830000Y-44998700D01*
X78830000Y-44998700D02*
X83943300Y-39885400D01*
X83943300Y-39885400D02*
X105866100Y-39885400D01*
X105866100Y-39885400D02*
X107115700Y-38635800D01*
X107115700Y-38635800D02*
X176486100Y-38635800D01*
X176486100Y-38635800D02*
X176857400Y-39007100D01*
X176857400Y-39007100D02*
X184425200Y-39007100D01*
%TO.N,GPIO35*%
X91424700Y-34000000D02*
X91424700Y-34367400D01*
X91424700Y-34367400D02*
X89669100Y-36123000D01*
X89669100Y-36123000D02*
X73653100Y-36123000D01*
X73653100Y-36123000D02*
X69147800Y-40628300D01*
X69147800Y-40628300D02*
X60342500Y-40628300D01*
X60342500Y-40628300D02*
X55875300Y-45095500D01*
X55875300Y-45095500D02*
X55875300Y-45460000D01*
X92600000Y-34000000D02*
X91424700Y-34000000D01*
X54700000Y-45460000D02*
X55875300Y-45460000D01*
%TO.N,GPIO9*%
X72480000Y-48000000D02*
X73655300Y-48000000D01*
X187400000Y-48000000D02*
X186224700Y-48000000D01*
X186224700Y-48000000D02*
X186224700Y-48367300D01*
X186224700Y-48367300D02*
X182546000Y-52046000D01*
X182546000Y-52046000D02*
X107544300Y-52046000D01*
X107544300Y-52046000D02*
X105874800Y-50376500D01*
X105874800Y-50376500D02*
X75664400Y-50376500D01*
X75664400Y-50376500D02*
X73655300Y-48367400D01*
X73655300Y-48367400D02*
X73655300Y-48000000D01*
%TO.N,GPIO36*%
X90060000Y-34000000D02*
X88387300Y-35672700D01*
X88387300Y-35672700D02*
X73466500Y-35672700D01*
X73466500Y-35672700D02*
X68961200Y-40178000D01*
X68961200Y-40178000D02*
X58250000Y-40178000D01*
X58250000Y-40178000D02*
X53335300Y-45092700D01*
X53335300Y-45092700D02*
X53335300Y-45460000D01*
X52160000Y-45460000D02*
X53335300Y-45460000D01*
%TO.N,GPIO10*%
X183684700Y-48000000D02*
X183684700Y-48647900D01*
X183684700Y-48647900D02*
X180785800Y-51546800D01*
X180785800Y-51546800D02*
X107682000Y-51546800D01*
X107682000Y-51546800D02*
X105836200Y-49701000D01*
X105836200Y-49701000D02*
X77528900Y-49701000D01*
X77528900Y-49701000D02*
X76195300Y-48367400D01*
X76195300Y-48367400D02*
X76195300Y-48000000D01*
X184860000Y-48000000D02*
X183684700Y-48000000D01*
X75020000Y-48000000D02*
X76195300Y-48000000D01*
%TO.N,GPIO37*%
X86344700Y-34000000D02*
X86344700Y-33632700D01*
X86344700Y-33632700D02*
X85536600Y-32824600D01*
X85536600Y-32824600D02*
X74294400Y-32824600D01*
X74294400Y-32824600D02*
X73550000Y-33569000D01*
X73550000Y-33569000D02*
X73550000Y-34395800D01*
X73550000Y-34395800D02*
X68218100Y-39727700D01*
X68218100Y-39727700D02*
X56216000Y-39727700D01*
X56216000Y-39727700D02*
X50795300Y-45148400D01*
X50795300Y-45148400D02*
X50795300Y-45460000D01*
X87520000Y-34000000D02*
X86344700Y-34000000D01*
X49620000Y-45460000D02*
X50795300Y-45460000D01*
%TO.N,GPIO11*%
X78735300Y-48000000D02*
X78735300Y-48367300D01*
X78735300Y-48367300D02*
X79598000Y-49230000D01*
X79598000Y-49230000D02*
X83152300Y-49230000D01*
X83152300Y-49230000D02*
X83927900Y-48454400D01*
X83927900Y-48454400D02*
X83927900Y-47560200D01*
X83927900Y-47560200D02*
X84852800Y-46635300D01*
X84852800Y-46635300D02*
X88206900Y-46635300D01*
X88206900Y-46635300D02*
X88895300Y-45946900D01*
X88895300Y-45946900D02*
X88895300Y-45094600D01*
X88895300Y-45094600D02*
X92013000Y-41976900D01*
X92013000Y-41976900D02*
X115170700Y-41976900D01*
X115170700Y-41976900D02*
X116164200Y-40983400D01*
X116164200Y-40983400D02*
X179565800Y-40983400D01*
X179565800Y-40983400D02*
X183684600Y-45102200D01*
X183684600Y-45102200D02*
X183684600Y-46017900D01*
X183684600Y-46017900D02*
X184491400Y-46824700D01*
X184491400Y-46824700D02*
X187956800Y-46824700D01*
X187956800Y-46824700D02*
X188764700Y-47632600D01*
X188764700Y-47632600D02*
X188764700Y-48000000D01*
X189940000Y-48000000D02*
X188764700Y-48000000D01*
X77560000Y-48000000D02*
X78735300Y-48000000D01*
%TO.N,GPIO12*%
X80100000Y-46824700D02*
X80467400Y-46824700D01*
X80467400Y-46824700D02*
X81275300Y-46016800D01*
X81275300Y-46016800D02*
X81275300Y-45094700D01*
X81275300Y-45094700D02*
X84160200Y-42209800D01*
X84160200Y-42209800D02*
X85835900Y-42209800D01*
X85835900Y-42209800D02*
X86519100Y-41526600D01*
X86519100Y-41526600D02*
X114984100Y-41526600D01*
X114984100Y-41526600D02*
X115988100Y-40522600D01*
X115988100Y-40522600D02*
X194354600Y-40522600D01*
X194354600Y-40522600D02*
X198924700Y-45092700D01*
X198924700Y-45092700D02*
X198924700Y-45460000D01*
X200100000Y-45460000D02*
X198924700Y-45460000D01*
X80100000Y-48000000D02*
X80100000Y-46824700D01*
%TO.N,GPIO13*%
X201464700Y-48000000D02*
X201464700Y-48367400D01*
X201464700Y-48367400D02*
X194480800Y-55351300D01*
X194480800Y-55351300D02*
X157594000Y-55351300D01*
X157594000Y-55351300D02*
X157215700Y-54973000D01*
X157215700Y-54973000D02*
X104814700Y-54973000D01*
X104814700Y-54973000D02*
X103145100Y-53303400D01*
X103145100Y-53303400D02*
X87390300Y-53303400D01*
X87390300Y-53303400D02*
X87079200Y-53614500D01*
X202640000Y-48000000D02*
X201464700Y-48000000D01*
%TO.N,GPIO14*%
X168444700Y-45460000D02*
X168444700Y-45092600D01*
X168444700Y-45092600D02*
X166142600Y-42790500D01*
X166142600Y-42790500D02*
X117541600Y-42790500D01*
X117541600Y-42790500D02*
X116075600Y-44256500D01*
X116075600Y-44256500D02*
X105033100Y-44256500D01*
X105033100Y-44256500D02*
X104230000Y-45059600D01*
X104230000Y-45059600D02*
X104230000Y-45891000D01*
X104230000Y-45891000D02*
X103448100Y-46672900D01*
X103448100Y-46672900D02*
X101928400Y-46672900D01*
X169620000Y-45460000D02*
X168444700Y-45460000D01*
%TO.N,GPIO15*%
X170984700Y-45460000D02*
X170984700Y-45092700D01*
X170984700Y-45092700D02*
X168232200Y-42340200D01*
X168232200Y-42340200D02*
X117355000Y-42340200D01*
X117355000Y-42340200D02*
X115917000Y-43778200D01*
X115917000Y-43778200D02*
X102902300Y-43778200D01*
X102902300Y-43778200D02*
X101690000Y-44990500D01*
X101690000Y-44990500D02*
X101690000Y-45864700D01*
X101690000Y-45864700D02*
X100824700Y-46730000D01*
X100824700Y-46730000D02*
X99959300Y-46730000D01*
X99959300Y-46730000D02*
X99191400Y-47497900D01*
X99191400Y-47497900D02*
X99191400Y-48363600D01*
X99191400Y-48363600D02*
X98349900Y-49205100D01*
X98349900Y-49205100D02*
X89733100Y-49205100D01*
X89733100Y-49205100D02*
X88895300Y-48367300D01*
X88895300Y-48367300D02*
X88895300Y-48000000D01*
X172160000Y-45460000D02*
X170984700Y-45460000D01*
X87720000Y-48000000D02*
X88895300Y-48000000D01*
%TO.N,GPIO16*%
X108939800Y-39381700D02*
X109010400Y-39311100D01*
X109010400Y-39311100D02*
X113947400Y-39311100D01*
X113947400Y-39311100D02*
X114382100Y-39745800D01*
X114382100Y-39745800D02*
X199465800Y-39745800D01*
X199465800Y-39745800D02*
X205180000Y-45460000D01*
%TO.N,GPIO17*%
X174700000Y-46824700D02*
X175067400Y-46824700D01*
X175067400Y-46824700D02*
X175875300Y-46016800D01*
X175875300Y-46016800D02*
X175875300Y-44897900D01*
X175875300Y-44897900D02*
X172417000Y-41439600D01*
X172417000Y-41439600D02*
X116981800Y-41439600D01*
X116981800Y-41439600D02*
X115543900Y-42877500D01*
X115543900Y-42877500D02*
X96164900Y-42877500D01*
X96164900Y-42877500D02*
X93975300Y-45067100D01*
X93975300Y-45067100D02*
X93975300Y-46016800D01*
X93975300Y-46016800D02*
X93167400Y-46824700D01*
X93167400Y-46824700D02*
X92800000Y-46824700D01*
X174700000Y-48000000D02*
X174700000Y-46824700D01*
X92800000Y-48000000D02*
X92800000Y-46824700D01*
%TO.N,GPIO18*%
X173524700Y-45460000D02*
X173524700Y-45092700D01*
X173524700Y-45092700D02*
X170321900Y-41889900D01*
X170321900Y-41889900D02*
X117168400Y-41889900D01*
X117168400Y-41889900D02*
X115730500Y-43327800D01*
X115730500Y-43327800D02*
X100884200Y-43327800D01*
X100884200Y-43327800D02*
X99150000Y-45062000D01*
X99150000Y-45062000D02*
X99150000Y-45938100D01*
X99150000Y-45938100D02*
X98263400Y-46824700D01*
X98263400Y-46824700D02*
X95340000Y-46824700D01*
X174700000Y-45460000D02*
X173524700Y-45460000D01*
X95340000Y-48000000D02*
X95340000Y-46824700D01*
%TO.N,GPIO19*%
X97880000Y-54028800D02*
X98155100Y-53753700D01*
X98155100Y-53753700D02*
X102958500Y-53753700D01*
X102958500Y-53753700D02*
X104628100Y-55423300D01*
X104628100Y-55423300D02*
X157029100Y-55423300D01*
X157029100Y-55423300D02*
X157407400Y-55801600D01*
X157407400Y-55801600D02*
X196570500Y-55801600D01*
X196570500Y-55801600D02*
X204004700Y-48367400D01*
X204004700Y-48367400D02*
X204004700Y-48000000D01*
X205180000Y-48000000D02*
X204004700Y-48000000D01*
%TO.N,GPIO20*%
X181554100Y-49725200D02*
X181554100Y-49877100D01*
X181554100Y-49877100D02*
X180342100Y-51089100D01*
X180342100Y-51089100D02*
X107861200Y-51089100D01*
X107861200Y-51089100D02*
X105947400Y-49175300D01*
X105947400Y-49175300D02*
X100420000Y-49175300D01*
X100420000Y-48000000D02*
X100420000Y-49175300D01*
%TO.N,GPIO21*%
X210260000Y-46635300D02*
X210627400Y-46635300D01*
X210627400Y-46635300D02*
X211435300Y-47443200D01*
X211435300Y-47443200D02*
X211435300Y-48488700D01*
X211435300Y-48488700D02*
X203672100Y-56251900D01*
X203672100Y-56251900D02*
X157220800Y-56251900D01*
X157220800Y-56251900D02*
X156842500Y-55873600D01*
X156842500Y-55873600D02*
X103020100Y-55873600D01*
X103020100Y-55873600D02*
X101625600Y-54479100D01*
X210260000Y-45460000D02*
X210260000Y-46635300D01*
%TO.N,GPIO22*%
X85064800Y-40625900D02*
X109580400Y-40625900D01*
X109580400Y-40625900D02*
X110169700Y-40036600D01*
X110169700Y-40036600D02*
X113109700Y-40036600D01*
X178604700Y-48000000D02*
X178604700Y-48367300D01*
X178604700Y-48367300D02*
X177257200Y-49714800D01*
X177257200Y-49714800D02*
X118182800Y-49714800D01*
X118182800Y-49714800D02*
X116835300Y-48367300D01*
X116835300Y-48367300D02*
X116835300Y-48000000D01*
X179780000Y-48000000D02*
X178604700Y-48000000D01*
X115660000Y-48000000D02*
X116835300Y-48000000D01*
%TO.N,BR*%
X111151000Y-124755500D02*
X111151000Y-123114000D01*
X111151000Y-123114000D02*
X111088500Y-123051500D01*
%TO.N,GPIO23*%
X179780000Y-46635300D02*
X180147400Y-46635300D01*
X180147400Y-46635300D02*
X180955300Y-47443200D01*
X180955300Y-47443200D02*
X180955300Y-48487000D01*
X180955300Y-48487000D02*
X179863000Y-49579300D01*
X179863000Y-49579300D02*
X179784200Y-49579300D01*
X179784200Y-49579300D02*
X179198300Y-50165200D01*
X179198300Y-50165200D02*
X116093100Y-50165200D01*
X116093100Y-50165200D02*
X114295300Y-48367400D01*
X114295300Y-48367400D02*
X114295300Y-48000000D01*
X179780000Y-45460000D02*
X179780000Y-46635300D01*
X113120000Y-48000000D02*
X114295300Y-48000000D01*
X84385800Y-41415300D02*
X85603600Y-41415300D01*
X85603600Y-41415300D02*
X85942700Y-41076200D01*
X85942700Y-41076200D02*
X110155800Y-41076200D01*
X110155800Y-41076200D02*
X110467800Y-40764200D01*
%TO.N,BG*%
X111801000Y-124755500D02*
X111813800Y-124742700D01*
X111813800Y-124742700D02*
X111813800Y-122751000D01*
X111813800Y-122751000D02*
X111319800Y-122257000D01*
X111319800Y-122257000D02*
X110468200Y-122257000D01*
%TO.N,GPIO24*%
X109110000Y-33574000D02*
X108346300Y-32810300D01*
X108346300Y-32810300D02*
X89491000Y-32810300D01*
X89491000Y-32810300D02*
X88790000Y-33511300D01*
X88790000Y-33511300D02*
X88790000Y-34394300D01*
X88790000Y-34394300D02*
X88009000Y-35175300D01*
X88009000Y-35175300D02*
X81883200Y-35175300D01*
X81883200Y-35175300D02*
X81075300Y-34367400D01*
X81075300Y-34367400D02*
X81075300Y-34000000D01*
X111472200Y-37234900D02*
X109110000Y-34872700D01*
X109110000Y-34872700D02*
X109110000Y-33574000D01*
X109110000Y-33574000D02*
X109859400Y-32824600D01*
X109859400Y-32824600D02*
X171900400Y-32824600D01*
X171900400Y-32824600D02*
X177357500Y-38281700D01*
X79900000Y-34000000D02*
X81075300Y-34000000D01*
%TO.N,FC0*%
X113101000Y-124755500D02*
X113101000Y-122627400D01*
X113101000Y-122627400D02*
X112989500Y-122515900D01*
%TO.N,GPIO25*%
X108040000Y-48000000D02*
X109215300Y-48000000D01*
X160585300Y-44579800D02*
X160430000Y-44735100D01*
X160430000Y-44735100D02*
X124060600Y-44735100D01*
X124060600Y-44735100D02*
X121971000Y-46824700D01*
X121971000Y-46824700D02*
X110023200Y-46824700D01*
X110023200Y-46824700D02*
X109215300Y-47632600D01*
X109215300Y-47632600D02*
X109215300Y-48000000D01*
%TO.N,FC1*%
X113751000Y-124755500D02*
X113751000Y-122754800D01*
X113751000Y-122754800D02*
X113989900Y-122515900D01*
%TO.N,GPIO26*%
X180045700Y-50343500D02*
X179773600Y-50615600D01*
X179773600Y-50615600D02*
X109260100Y-50615600D01*
X109260100Y-50615600D02*
X108354500Y-49710000D01*
X106675300Y-48000000D02*
X106675300Y-48367300D01*
X106675300Y-48367300D02*
X108018000Y-49710000D01*
X108018000Y-49710000D02*
X108354500Y-49710000D01*
X105500000Y-48000000D02*
X106675300Y-48000000D01*
%TO.N,FC2*%
X116835300Y-45460000D02*
X116835300Y-45108400D01*
X116835300Y-45108400D02*
X118427900Y-43515800D01*
X118427900Y-43515800D02*
X120522900Y-43515800D01*
X115660000Y-45460000D02*
X116835300Y-45460000D01*
X114401000Y-124755500D02*
X114401000Y-125784600D01*
X114401000Y-125784600D02*
X117583200Y-128966800D01*
X117583200Y-128966800D02*
X122334900Y-128966800D01*
X122334900Y-128966800D02*
X122543100Y-128758600D01*
%TO.N,GND*%
X77299300Y-130353500D02*
X77178200Y-130474600D01*
X77178200Y-130474600D02*
X76492300Y-130474600D01*
X58633100Y-132001900D02*
X57595000Y-133040000D01*
X57595000Y-133040000D02*
X55412100Y-133040000D01*
X55412100Y-133040000D02*
X53071100Y-130699000D01*
X53071100Y-130699000D02*
X40945000Y-130699000D01*
X59025000Y-132000000D02*
X58635000Y-132000000D01*
X58635000Y-132000000D02*
X58633100Y-132001900D01*
X58633100Y-132001900D02*
X54656200Y-128025000D01*
X54656200Y-128025000D02*
X54000000Y-128025000D01*
X65759700Y-132000000D02*
X68950600Y-128809100D01*
X68950600Y-128809100D02*
X85954100Y-128809100D01*
X85954100Y-128809100D02*
X86102300Y-128957300D01*
X86102300Y-128957300D02*
X88053200Y-128957300D01*
X70025000Y-132000000D02*
X68995000Y-133030000D01*
X68995000Y-133030000D02*
X66789700Y-133030000D01*
X66789700Y-133030000D02*
X65759700Y-132000000D01*
X65759700Y-132000000D02*
X59025000Y-132000000D01*
X42000000Y-109000000D02*
X42000000Y-110175300D01*
X53198900Y-125072700D02*
X52949800Y-125321800D01*
X52949800Y-125321800D02*
X52949800Y-126974800D01*
X52949800Y-126974800D02*
X54000000Y-128025000D01*
X42000000Y-110175300D02*
X53198900Y-121374200D01*
X53198900Y-121374200D02*
X53198900Y-125072700D01*
X53198900Y-125072700D02*
X64097700Y-125072700D01*
X64097700Y-125072700D02*
X65000000Y-125975000D01*
X110501000Y-130480500D02*
X110501000Y-129780800D01*
X110501000Y-129780800D02*
X110864600Y-129417200D01*
X110864600Y-129417200D02*
X122176000Y-129417200D01*
X122176000Y-129417200D02*
X122242700Y-129483900D01*
X122242700Y-129483900D02*
X122699800Y-129483900D01*
X122699800Y-129483900D02*
X125120500Y-131904500D01*
X132041900Y-130472800D02*
X126552200Y-130472800D01*
X126552200Y-130472800D02*
X125120500Y-131904500D01*
X136025000Y-131840800D02*
X136025000Y-131681600D01*
X136025000Y-131681600D02*
X134816200Y-130472800D01*
X134816200Y-130472800D02*
X132041900Y-130472800D01*
X132041900Y-130472800D02*
X132041900Y-127016900D01*
X132041900Y-127016900D02*
X131000000Y-125975000D01*
X119375300Y-45460000D02*
X119375300Y-45092700D01*
X119375300Y-45092700D02*
X120183300Y-44284700D01*
X120183300Y-44284700D02*
X159854800Y-44284700D01*
X159854800Y-44284700D02*
X159854800Y-44284600D01*
X159854800Y-44284600D02*
X160284900Y-43854500D01*
X160284900Y-43854500D02*
X164666600Y-43854500D01*
X164666600Y-43854500D02*
X165904700Y-45092600D01*
X165904700Y-45092600D02*
X165904700Y-45460000D01*
X92025000Y-132000000D02*
X93101800Y-130923200D01*
X93101800Y-130923200D02*
X101948200Y-130923200D01*
X101948200Y-130923200D02*
X103025000Y-132000000D01*
X88053200Y-128957300D02*
X88982300Y-128957300D01*
X88982300Y-128957300D02*
X92025000Y-132000000D01*
X110501000Y-130480500D02*
X104544500Y-130480500D01*
X104544500Y-130480500D02*
X103025000Y-132000000D01*
X88053200Y-128957300D02*
X88053200Y-127028200D01*
X88053200Y-127028200D02*
X87000000Y-125975000D01*
X98000000Y-125975000D02*
X89106400Y-125975000D01*
X89106400Y-125975000D02*
X88053200Y-127028200D01*
X47080000Y-38101300D02*
X64463400Y-38101300D01*
X64463400Y-38101300D02*
X68564700Y-34000000D01*
X44000000Y-36700000D02*
X45401300Y-38101300D01*
X45401300Y-38101300D02*
X47080000Y-38101300D01*
X47080000Y-44284700D02*
X47080000Y-38101300D01*
X69740000Y-34000000D02*
X68564700Y-34000000D01*
X47080000Y-45460000D02*
X47080000Y-44284700D01*
X131000000Y-125975000D02*
X120000000Y-125975000D01*
X136025000Y-131840800D02*
X167864800Y-131840800D01*
X136025000Y-132000000D02*
X136025000Y-131840800D01*
X125120500Y-131904500D02*
X125025000Y-132000000D01*
X210260000Y-48000000D02*
X209084700Y-48000000D01*
X202640000Y-45460000D02*
X203815300Y-45460000D01*
X203815300Y-45460000D02*
X203815300Y-45827400D01*
X203815300Y-45827400D02*
X204812600Y-46824700D01*
X204812600Y-46824700D02*
X208276800Y-46824700D01*
X208276800Y-46824700D02*
X209084700Y-47632600D01*
X209084700Y-47632600D02*
X209084700Y-48000000D01*
X118200000Y-110175300D02*
X131000000Y-122975300D01*
X131000000Y-122975300D02*
X131000000Y-125975000D01*
X118200000Y-109000000D02*
X118200000Y-110175300D01*
X167080000Y-45460000D02*
X165904700Y-45460000D01*
X118200000Y-45460000D02*
X119375300Y-45460000D01*
%TD*%
M02*
