%TF.GenerationSoftware,KiCad,Pcbnew,5.1.6-c6e7f7d~86~ubuntu18.04.1*%
%TF.CreationDate,2021-01-30T18:03:06+08:00*%
%TF.ProjectId,amiga_ocs,616d6967-615f-46f6-9373-2e6b69636164,rev?*%
%TF.SameCoordinates,Original*%
%TF.FileFunction,Soldermask,Top*%
%TF.FilePolarity,Negative*%
%FSLAX46Y46*%
G04 Gerber Fmt 4.6, Leading zero omitted, Abs format (unit mm)*
G04 Created by KiCad (PCBNEW 5.1.6-c6e7f7d~86~ubuntu18.04.1) date 2021-01-30 18:03:06*
%MOMM*%
%LPD*%
G01*
G04 APERTURE LIST*
%ADD10O,1.800000X1.800000*%
%ADD11R,1.800000X1.800000*%
%ADD12R,1.880000X7.720000*%
G04 APERTURE END LIST*
D10*
%TO.C,J5*%
X210260000Y-45460000D03*
X210260000Y-48000000D03*
X207720000Y-45460000D03*
X207720000Y-48000000D03*
X205180000Y-45460000D03*
X205180000Y-48000000D03*
X202640000Y-45460000D03*
X202640000Y-48000000D03*
X200100000Y-45460000D03*
X200100000Y-48000000D03*
X197560000Y-45460000D03*
X197560000Y-48000000D03*
X195020000Y-45460000D03*
X195020000Y-48000000D03*
X192480000Y-45460000D03*
X192480000Y-48000000D03*
X189940000Y-45460000D03*
X189940000Y-48000000D03*
X187400000Y-45460000D03*
X187400000Y-48000000D03*
X184860000Y-45460000D03*
X184860000Y-48000000D03*
X182320000Y-45460000D03*
X182320000Y-48000000D03*
X179780000Y-45460000D03*
X179780000Y-48000000D03*
X177240000Y-45460000D03*
X177240000Y-48000000D03*
X174700000Y-45460000D03*
X174700000Y-48000000D03*
X172160000Y-45460000D03*
X172160000Y-48000000D03*
X169620000Y-45460000D03*
X169620000Y-48000000D03*
X167080000Y-45460000D03*
X167080000Y-48000000D03*
X164540000Y-45460000D03*
X164540000Y-48000000D03*
X162000000Y-45460000D03*
D11*
X162000000Y-48000000D03*
%TD*%
%TO.C,C18*%
G36*
G01*
X87478262Y-126600000D02*
X86521738Y-126600000D01*
G75*
G02*
X86250000Y-126328262I0J271738D01*
G01*
X86250000Y-125621738D01*
G75*
G02*
X86521738Y-125350000I271738J0D01*
G01*
X87478262Y-125350000D01*
G75*
G02*
X87750000Y-125621738I0J-271738D01*
G01*
X87750000Y-126328262D01*
G75*
G02*
X87478262Y-126600000I-271738J0D01*
G01*
G37*
G36*
G01*
X87478262Y-128650000D02*
X86521738Y-128650000D01*
G75*
G02*
X86250000Y-128378262I0J271738D01*
G01*
X86250000Y-127671738D01*
G75*
G02*
X86521738Y-127400000I271738J0D01*
G01*
X87478262Y-127400000D01*
G75*
G02*
X87750000Y-127671738I0J-271738D01*
G01*
X87750000Y-128378262D01*
G75*
G02*
X87478262Y-128650000I-271738J0D01*
G01*
G37*
%TD*%
%TO.C,C17*%
G36*
G01*
X98478262Y-126600000D02*
X97521738Y-126600000D01*
G75*
G02*
X97250000Y-126328262I0J271738D01*
G01*
X97250000Y-125621738D01*
G75*
G02*
X97521738Y-125350000I271738J0D01*
G01*
X98478262Y-125350000D01*
G75*
G02*
X98750000Y-125621738I0J-271738D01*
G01*
X98750000Y-126328262D01*
G75*
G02*
X98478262Y-126600000I-271738J0D01*
G01*
G37*
G36*
G01*
X98478262Y-128650000D02*
X97521738Y-128650000D01*
G75*
G02*
X97250000Y-128378262I0J271738D01*
G01*
X97250000Y-127671738D01*
G75*
G02*
X97521738Y-127400000I271738J0D01*
G01*
X98478262Y-127400000D01*
G75*
G02*
X98750000Y-127671738I0J-271738D01*
G01*
X98750000Y-128378262D01*
G75*
G02*
X98478262Y-128650000I-271738J0D01*
G01*
G37*
%TD*%
%TO.C,C16*%
G36*
G01*
X120478262Y-126600000D02*
X119521738Y-126600000D01*
G75*
G02*
X119250000Y-126328262I0J271738D01*
G01*
X119250000Y-125621738D01*
G75*
G02*
X119521738Y-125350000I271738J0D01*
G01*
X120478262Y-125350000D01*
G75*
G02*
X120750000Y-125621738I0J-271738D01*
G01*
X120750000Y-126328262D01*
G75*
G02*
X120478262Y-126600000I-271738J0D01*
G01*
G37*
G36*
G01*
X120478262Y-128650000D02*
X119521738Y-128650000D01*
G75*
G02*
X119250000Y-128378262I0J271738D01*
G01*
X119250000Y-127671738D01*
G75*
G02*
X119521738Y-127400000I271738J0D01*
G01*
X120478262Y-127400000D01*
G75*
G02*
X120750000Y-127671738I0J-271738D01*
G01*
X120750000Y-128378262D01*
G75*
G02*
X120478262Y-128650000I-271738J0D01*
G01*
G37*
%TD*%
%TO.C,C15*%
G36*
G01*
X131478262Y-126600000D02*
X130521738Y-126600000D01*
G75*
G02*
X130250000Y-126328262I0J271738D01*
G01*
X130250000Y-125621738D01*
G75*
G02*
X130521738Y-125350000I271738J0D01*
G01*
X131478262Y-125350000D01*
G75*
G02*
X131750000Y-125621738I0J-271738D01*
G01*
X131750000Y-126328262D01*
G75*
G02*
X131478262Y-126600000I-271738J0D01*
G01*
G37*
G36*
G01*
X131478262Y-128650000D02*
X130521738Y-128650000D01*
G75*
G02*
X130250000Y-128378262I0J271738D01*
G01*
X130250000Y-127671738D01*
G75*
G02*
X130521738Y-127400000I271738J0D01*
G01*
X131478262Y-127400000D01*
G75*
G02*
X131750000Y-127671738I0J-271738D01*
G01*
X131750000Y-128378262D01*
G75*
G02*
X131478262Y-128650000I-271738J0D01*
G01*
G37*
%TD*%
%TO.C,C12*%
G36*
G01*
X65478262Y-126600000D02*
X64521738Y-126600000D01*
G75*
G02*
X64250000Y-126328262I0J271738D01*
G01*
X64250000Y-125621738D01*
G75*
G02*
X64521738Y-125350000I271738J0D01*
G01*
X65478262Y-125350000D01*
G75*
G02*
X65750000Y-125621738I0J-271738D01*
G01*
X65750000Y-126328262D01*
G75*
G02*
X65478262Y-126600000I-271738J0D01*
G01*
G37*
G36*
G01*
X65478262Y-128650000D02*
X64521738Y-128650000D01*
G75*
G02*
X64250000Y-128378262I0J271738D01*
G01*
X64250000Y-127671738D01*
G75*
G02*
X64521738Y-127400000I271738J0D01*
G01*
X65478262Y-127400000D01*
G75*
G02*
X65750000Y-127671738I0J-271738D01*
G01*
X65750000Y-128378262D01*
G75*
G02*
X65478262Y-128650000I-271738J0D01*
G01*
G37*
%TD*%
%TO.C,C11*%
G36*
G01*
X53521738Y-127400000D02*
X54478262Y-127400000D01*
G75*
G02*
X54750000Y-127671738I0J-271738D01*
G01*
X54750000Y-128378262D01*
G75*
G02*
X54478262Y-128650000I-271738J0D01*
G01*
X53521738Y-128650000D01*
G75*
G02*
X53250000Y-128378262I0J271738D01*
G01*
X53250000Y-127671738D01*
G75*
G02*
X53521738Y-127400000I271738J0D01*
G01*
G37*
G36*
G01*
X53521738Y-125350000D02*
X54478262Y-125350000D01*
G75*
G02*
X54750000Y-125621738I0J-271738D01*
G01*
X54750000Y-126328262D01*
G75*
G02*
X54478262Y-126600000I-271738J0D01*
G01*
X53521738Y-126600000D01*
G75*
G02*
X53250000Y-126328262I0J271738D01*
G01*
X53250000Y-125621738D01*
G75*
G02*
X53521738Y-125350000I271738J0D01*
G01*
G37*
%TD*%
%TO.C,C10*%
G36*
G01*
X43415625Y-34900000D02*
X44584375Y-34900000D01*
G75*
G02*
X44850000Y-35165625I0J-265625D01*
G01*
X44850000Y-38234375D01*
G75*
G02*
X44584375Y-38500000I-265625J0D01*
G01*
X43415625Y-38500000D01*
G75*
G02*
X43150000Y-38234375I0J265625D01*
G01*
X43150000Y-35165625D01*
G75*
G02*
X43415625Y-34900000I265625J0D01*
G01*
G37*
G36*
G01*
X43415625Y-29500000D02*
X44584375Y-29500000D01*
G75*
G02*
X44850000Y-29765625I0J-265625D01*
G01*
X44850000Y-32834375D01*
G75*
G02*
X44584375Y-33100000I-265625J0D01*
G01*
X43415625Y-33100000D01*
G75*
G02*
X43150000Y-32834375I0J265625D01*
G01*
X43150000Y-29765625D01*
G75*
G02*
X43415625Y-29500000I265625J0D01*
G01*
G37*
%TD*%
%TO.C,C9*%
G36*
G01*
X135400000Y-132478262D02*
X135400000Y-131521738D01*
G75*
G02*
X135671738Y-131250000I271738J0D01*
G01*
X136378262Y-131250000D01*
G75*
G02*
X136650000Y-131521738I0J-271738D01*
G01*
X136650000Y-132478262D01*
G75*
G02*
X136378262Y-132750000I-271738J0D01*
G01*
X135671738Y-132750000D01*
G75*
G02*
X135400000Y-132478262I0J271738D01*
G01*
G37*
G36*
G01*
X133350000Y-132478262D02*
X133350000Y-131521738D01*
G75*
G02*
X133621738Y-131250000I271738J0D01*
G01*
X134328262Y-131250000D01*
G75*
G02*
X134600000Y-131521738I0J-271738D01*
G01*
X134600000Y-132478262D01*
G75*
G02*
X134328262Y-132750000I-271738J0D01*
G01*
X133621738Y-132750000D01*
G75*
G02*
X133350000Y-132478262I0J271738D01*
G01*
G37*
%TD*%
%TO.C,C8*%
G36*
G01*
X124400000Y-132478262D02*
X124400000Y-131521738D01*
G75*
G02*
X124671738Y-131250000I271738J0D01*
G01*
X125378262Y-131250000D01*
G75*
G02*
X125650000Y-131521738I0J-271738D01*
G01*
X125650000Y-132478262D01*
G75*
G02*
X125378262Y-132750000I-271738J0D01*
G01*
X124671738Y-132750000D01*
G75*
G02*
X124400000Y-132478262I0J271738D01*
G01*
G37*
G36*
G01*
X122350000Y-132478262D02*
X122350000Y-131521738D01*
G75*
G02*
X122621738Y-131250000I271738J0D01*
G01*
X123328262Y-131250000D01*
G75*
G02*
X123600000Y-131521738I0J-271738D01*
G01*
X123600000Y-132478262D01*
G75*
G02*
X123328262Y-132750000I-271738J0D01*
G01*
X122621738Y-132750000D01*
G75*
G02*
X122350000Y-132478262I0J271738D01*
G01*
G37*
%TD*%
%TO.C,C7*%
G36*
G01*
X102400000Y-132478262D02*
X102400000Y-131521738D01*
G75*
G02*
X102671738Y-131250000I271738J0D01*
G01*
X103378262Y-131250000D01*
G75*
G02*
X103650000Y-131521738I0J-271738D01*
G01*
X103650000Y-132478262D01*
G75*
G02*
X103378262Y-132750000I-271738J0D01*
G01*
X102671738Y-132750000D01*
G75*
G02*
X102400000Y-132478262I0J271738D01*
G01*
G37*
G36*
G01*
X100350000Y-132478262D02*
X100350000Y-131521738D01*
G75*
G02*
X100621738Y-131250000I271738J0D01*
G01*
X101328262Y-131250000D01*
G75*
G02*
X101600000Y-131521738I0J-271738D01*
G01*
X101600000Y-132478262D01*
G75*
G02*
X101328262Y-132750000I-271738J0D01*
G01*
X100621738Y-132750000D01*
G75*
G02*
X100350000Y-132478262I0J271738D01*
G01*
G37*
%TD*%
%TO.C,C6*%
G36*
G01*
X91400000Y-132478262D02*
X91400000Y-131521738D01*
G75*
G02*
X91671738Y-131250000I271738J0D01*
G01*
X92378262Y-131250000D01*
G75*
G02*
X92650000Y-131521738I0J-271738D01*
G01*
X92650000Y-132478262D01*
G75*
G02*
X92378262Y-132750000I-271738J0D01*
G01*
X91671738Y-132750000D01*
G75*
G02*
X91400000Y-132478262I0J271738D01*
G01*
G37*
G36*
G01*
X89350000Y-132478262D02*
X89350000Y-131521738D01*
G75*
G02*
X89621738Y-131250000I271738J0D01*
G01*
X90328262Y-131250000D01*
G75*
G02*
X90600000Y-131521738I0J-271738D01*
G01*
X90600000Y-132478262D01*
G75*
G02*
X90328262Y-132750000I-271738J0D01*
G01*
X89621738Y-132750000D01*
G75*
G02*
X89350000Y-132478262I0J271738D01*
G01*
G37*
%TD*%
%TO.C,C3*%
G36*
G01*
X69400000Y-132478262D02*
X69400000Y-131521738D01*
G75*
G02*
X69671738Y-131250000I271738J0D01*
G01*
X70378262Y-131250000D01*
G75*
G02*
X70650000Y-131521738I0J-271738D01*
G01*
X70650000Y-132478262D01*
G75*
G02*
X70378262Y-132750000I-271738J0D01*
G01*
X69671738Y-132750000D01*
G75*
G02*
X69400000Y-132478262I0J271738D01*
G01*
G37*
G36*
G01*
X67350000Y-132478262D02*
X67350000Y-131521738D01*
G75*
G02*
X67621738Y-131250000I271738J0D01*
G01*
X68328262Y-131250000D01*
G75*
G02*
X68600000Y-131521738I0J-271738D01*
G01*
X68600000Y-132478262D01*
G75*
G02*
X68328262Y-132750000I-271738J0D01*
G01*
X67621738Y-132750000D01*
G75*
G02*
X67350000Y-132478262I0J271738D01*
G01*
G37*
%TD*%
%TO.C,C2*%
G36*
G01*
X58400000Y-132478262D02*
X58400000Y-131521738D01*
G75*
G02*
X58671738Y-131250000I271738J0D01*
G01*
X59378262Y-131250000D01*
G75*
G02*
X59650000Y-131521738I0J-271738D01*
G01*
X59650000Y-132478262D01*
G75*
G02*
X59378262Y-132750000I-271738J0D01*
G01*
X58671738Y-132750000D01*
G75*
G02*
X58400000Y-132478262I0J271738D01*
G01*
G37*
G36*
G01*
X56350000Y-132478262D02*
X56350000Y-131521738D01*
G75*
G02*
X56621738Y-131250000I271738J0D01*
G01*
X57328262Y-131250000D01*
G75*
G02*
X57600000Y-131521738I0J-271738D01*
G01*
X57600000Y-132478262D01*
G75*
G02*
X57328262Y-132750000I-271738J0D01*
G01*
X56621738Y-132750000D01*
G75*
G02*
X56350000Y-132478262I0J271738D01*
G01*
G37*
%TD*%
%TO.C,C1*%
G36*
G01*
X40360625Y-128899000D02*
X41529375Y-128899000D01*
G75*
G02*
X41795000Y-129164625I0J-265625D01*
G01*
X41795000Y-132233375D01*
G75*
G02*
X41529375Y-132499000I-265625J0D01*
G01*
X40360625Y-132499000D01*
G75*
G02*
X40095000Y-132233375I0J265625D01*
G01*
X40095000Y-129164625D01*
G75*
G02*
X40360625Y-128899000I265625J0D01*
G01*
G37*
G36*
G01*
X40360625Y-123499000D02*
X41529375Y-123499000D01*
G75*
G02*
X41795000Y-123764625I0J-265625D01*
G01*
X41795000Y-126833375D01*
G75*
G02*
X41529375Y-127099000I-265625J0D01*
G01*
X40360625Y-127099000D01*
G75*
G02*
X40095000Y-126833375I0J265625D01*
G01*
X40095000Y-123764625D01*
G75*
G02*
X40360625Y-123499000I265625J0D01*
G01*
G37*
%TD*%
D12*
%TO.C,J1*%
X39824000Y-144000000D03*
X42364000Y-144000000D03*
X44904000Y-144000000D03*
X47444000Y-144000000D03*
X49984000Y-144000000D03*
X52524000Y-144000000D03*
X55064000Y-144000000D03*
X57604000Y-144000000D03*
X60144000Y-144000000D03*
X62684000Y-144000000D03*
X65224000Y-144000000D03*
X67764000Y-144000000D03*
X70304000Y-144000000D03*
X72844000Y-144000000D03*
X75384000Y-144000000D03*
X77924000Y-144000000D03*
X80464000Y-144000000D03*
X83004000Y-144000000D03*
X93164000Y-144000000D03*
X95704000Y-144000000D03*
X98244000Y-144000000D03*
X100784000Y-144000000D03*
X103324000Y-144000000D03*
X105864000Y-144000000D03*
X108404000Y-144000000D03*
X110944000Y-144000000D03*
X113484000Y-144000000D03*
X116024000Y-144000000D03*
X118564000Y-144000000D03*
X121104000Y-144000000D03*
X123644000Y-144000000D03*
X126184000Y-144000000D03*
X128724000Y-144000000D03*
X131264000Y-144000000D03*
X133804000Y-144000000D03*
X136344000Y-144000000D03*
X138884000Y-144000000D03*
X141424000Y-144000000D03*
X143964000Y-144000000D03*
X146504000Y-144000000D03*
X149044000Y-144000000D03*
X151584000Y-144000000D03*
X154124000Y-144000000D03*
X156664000Y-144000000D03*
X159204000Y-144000000D03*
X161744000Y-144000000D03*
X164284000Y-144000000D03*
X166824000Y-144000000D03*
X169364000Y-144000000D03*
%TD*%
D10*
%TO.C,J2*%
X120740000Y-106460000D03*
X120740000Y-109000000D03*
X118200000Y-106460000D03*
X118200000Y-109000000D03*
X115660000Y-106460000D03*
X115660000Y-109000000D03*
X113120000Y-106460000D03*
X113120000Y-109000000D03*
X110580000Y-106460000D03*
X110580000Y-109000000D03*
X108040000Y-106460000D03*
X108040000Y-109000000D03*
X105500000Y-106460000D03*
X105500000Y-109000000D03*
X102960000Y-106460000D03*
X102960000Y-109000000D03*
X100420000Y-106460000D03*
X100420000Y-109000000D03*
X97880000Y-106460000D03*
X97880000Y-109000000D03*
X95340000Y-106460000D03*
X95340000Y-109000000D03*
X92800000Y-106460000D03*
X92800000Y-109000000D03*
X90260000Y-106460000D03*
X90260000Y-109000000D03*
X87720000Y-106460000D03*
X87720000Y-109000000D03*
X85180000Y-106460000D03*
X85180000Y-109000000D03*
X82640000Y-106460000D03*
X82640000Y-109000000D03*
X80100000Y-106460000D03*
X80100000Y-109000000D03*
X77560000Y-106460000D03*
X77560000Y-109000000D03*
X75020000Y-106460000D03*
X75020000Y-109000000D03*
X72480000Y-106460000D03*
X72480000Y-109000000D03*
X69940000Y-106460000D03*
X69940000Y-109000000D03*
X67400000Y-106460000D03*
X67400000Y-109000000D03*
X64860000Y-106460000D03*
X64860000Y-109000000D03*
X62320000Y-106460000D03*
X62320000Y-109000000D03*
X59780000Y-106460000D03*
X59780000Y-109000000D03*
X57240000Y-106460000D03*
X57240000Y-109000000D03*
X54700000Y-106460000D03*
X54700000Y-109000000D03*
X52160000Y-106460000D03*
X52160000Y-109000000D03*
X49620000Y-106460000D03*
X49620000Y-109000000D03*
X47080000Y-106460000D03*
X47080000Y-109000000D03*
X44540000Y-106460000D03*
X44540000Y-109000000D03*
X42000000Y-106460000D03*
D11*
X42000000Y-109000000D03*
%TD*%
D10*
%TO.C,J3*%
X120740000Y-45460000D03*
X120740000Y-48000000D03*
X118200000Y-45460000D03*
X118200000Y-48000000D03*
X115660000Y-45460000D03*
X115660000Y-48000000D03*
X113120000Y-45460000D03*
X113120000Y-48000000D03*
X110580000Y-45460000D03*
X110580000Y-48000000D03*
X108040000Y-45460000D03*
X108040000Y-48000000D03*
X105500000Y-45460000D03*
X105500000Y-48000000D03*
X102960000Y-45460000D03*
X102960000Y-48000000D03*
X100420000Y-45460000D03*
X100420000Y-48000000D03*
X97880000Y-45460000D03*
X97880000Y-48000000D03*
X95340000Y-45460000D03*
X95340000Y-48000000D03*
X92800000Y-45460000D03*
X92800000Y-48000000D03*
X90260000Y-45460000D03*
X90260000Y-48000000D03*
X87720000Y-45460000D03*
X87720000Y-48000000D03*
X85180000Y-45460000D03*
X85180000Y-48000000D03*
X82640000Y-45460000D03*
X82640000Y-48000000D03*
X80100000Y-45460000D03*
X80100000Y-48000000D03*
X77560000Y-45460000D03*
X77560000Y-48000000D03*
X75020000Y-45460000D03*
X75020000Y-48000000D03*
X72480000Y-45460000D03*
X72480000Y-48000000D03*
X69940000Y-45460000D03*
X69940000Y-48000000D03*
X67400000Y-45460000D03*
X67400000Y-48000000D03*
X64860000Y-45460000D03*
X64860000Y-48000000D03*
X62320000Y-45460000D03*
X62320000Y-48000000D03*
X59780000Y-45460000D03*
X59780000Y-48000000D03*
X57240000Y-45460000D03*
X57240000Y-48000000D03*
X54700000Y-45460000D03*
X54700000Y-48000000D03*
X52160000Y-45460000D03*
X52160000Y-48000000D03*
X49620000Y-45460000D03*
X49620000Y-48000000D03*
X47080000Y-45460000D03*
X47080000Y-48000000D03*
X44540000Y-45460000D03*
X44540000Y-48000000D03*
X42000000Y-45460000D03*
D11*
X42000000Y-48000000D03*
%TD*%
D10*
%TO.C,J4*%
X69740000Y-31460000D03*
X69740000Y-34000000D03*
X72280000Y-31460000D03*
X72280000Y-34000000D03*
X74820000Y-31460000D03*
X74820000Y-34000000D03*
X77360000Y-31460000D03*
X77360000Y-34000000D03*
X79900000Y-31460000D03*
X79900000Y-34000000D03*
X82440000Y-31460000D03*
X82440000Y-34000000D03*
X84980000Y-31460000D03*
X84980000Y-34000000D03*
X87520000Y-31460000D03*
X87520000Y-34000000D03*
X90060000Y-31460000D03*
X90060000Y-34000000D03*
X92600000Y-31460000D03*
X92600000Y-34000000D03*
X95140000Y-31460000D03*
X95140000Y-34000000D03*
X97680000Y-31460000D03*
X97680000Y-34000000D03*
X100220000Y-31460000D03*
X100220000Y-34000000D03*
X102760000Y-31460000D03*
X102760000Y-34000000D03*
X105300000Y-31460000D03*
X105300000Y-34000000D03*
X107840000Y-31460000D03*
X107840000Y-34000000D03*
X110380000Y-31460000D03*
X110380000Y-34000000D03*
X112920000Y-31460000D03*
X112920000Y-34000000D03*
X115460000Y-31460000D03*
X115460000Y-34000000D03*
X118000000Y-31460000D03*
D11*
X118000000Y-34000000D03*
%TD*%
%TO.C,U1*%
G36*
G01*
X83024300Y-129566000D02*
X83274300Y-129566000D01*
G75*
G02*
X83399300Y-129691000I0J-125000D01*
G01*
X83399300Y-131016000D01*
G75*
G02*
X83274300Y-131141000I-125000J0D01*
G01*
X83024300Y-131141000D01*
G75*
G02*
X82899300Y-131016000I0J125000D01*
G01*
X82899300Y-129691000D01*
G75*
G02*
X83024300Y-129566000I125000J0D01*
G01*
G37*
G36*
G01*
X82374300Y-129566000D02*
X82624300Y-129566000D01*
G75*
G02*
X82749300Y-129691000I0J-125000D01*
G01*
X82749300Y-131016000D01*
G75*
G02*
X82624300Y-131141000I-125000J0D01*
G01*
X82374300Y-131141000D01*
G75*
G02*
X82249300Y-131016000I0J125000D01*
G01*
X82249300Y-129691000D01*
G75*
G02*
X82374300Y-129566000I125000J0D01*
G01*
G37*
G36*
G01*
X81724300Y-129566000D02*
X81974300Y-129566000D01*
G75*
G02*
X82099300Y-129691000I0J-125000D01*
G01*
X82099300Y-131016000D01*
G75*
G02*
X81974300Y-131141000I-125000J0D01*
G01*
X81724300Y-131141000D01*
G75*
G02*
X81599300Y-131016000I0J125000D01*
G01*
X81599300Y-129691000D01*
G75*
G02*
X81724300Y-129566000I125000J0D01*
G01*
G37*
G36*
G01*
X81074300Y-129566000D02*
X81324300Y-129566000D01*
G75*
G02*
X81449300Y-129691000I0J-125000D01*
G01*
X81449300Y-131016000D01*
G75*
G02*
X81324300Y-131141000I-125000J0D01*
G01*
X81074300Y-131141000D01*
G75*
G02*
X80949300Y-131016000I0J125000D01*
G01*
X80949300Y-129691000D01*
G75*
G02*
X81074300Y-129566000I125000J0D01*
G01*
G37*
G36*
G01*
X80424300Y-129566000D02*
X80674300Y-129566000D01*
G75*
G02*
X80799300Y-129691000I0J-125000D01*
G01*
X80799300Y-131016000D01*
G75*
G02*
X80674300Y-131141000I-125000J0D01*
G01*
X80424300Y-131141000D01*
G75*
G02*
X80299300Y-131016000I0J125000D01*
G01*
X80299300Y-129691000D01*
G75*
G02*
X80424300Y-129566000I125000J0D01*
G01*
G37*
G36*
G01*
X79774300Y-129566000D02*
X80024300Y-129566000D01*
G75*
G02*
X80149300Y-129691000I0J-125000D01*
G01*
X80149300Y-131016000D01*
G75*
G02*
X80024300Y-131141000I-125000J0D01*
G01*
X79774300Y-131141000D01*
G75*
G02*
X79649300Y-131016000I0J125000D01*
G01*
X79649300Y-129691000D01*
G75*
G02*
X79774300Y-129566000I125000J0D01*
G01*
G37*
G36*
G01*
X79124300Y-129566000D02*
X79374300Y-129566000D01*
G75*
G02*
X79499300Y-129691000I0J-125000D01*
G01*
X79499300Y-131016000D01*
G75*
G02*
X79374300Y-131141000I-125000J0D01*
G01*
X79124300Y-131141000D01*
G75*
G02*
X78999300Y-131016000I0J125000D01*
G01*
X78999300Y-129691000D01*
G75*
G02*
X79124300Y-129566000I125000J0D01*
G01*
G37*
G36*
G01*
X78474300Y-129566000D02*
X78724300Y-129566000D01*
G75*
G02*
X78849300Y-129691000I0J-125000D01*
G01*
X78849300Y-131016000D01*
G75*
G02*
X78724300Y-131141000I-125000J0D01*
G01*
X78474300Y-131141000D01*
G75*
G02*
X78349300Y-131016000I0J125000D01*
G01*
X78349300Y-129691000D01*
G75*
G02*
X78474300Y-129566000I125000J0D01*
G01*
G37*
G36*
G01*
X77824300Y-129566000D02*
X78074300Y-129566000D01*
G75*
G02*
X78199300Y-129691000I0J-125000D01*
G01*
X78199300Y-131016000D01*
G75*
G02*
X78074300Y-131141000I-125000J0D01*
G01*
X77824300Y-131141000D01*
G75*
G02*
X77699300Y-131016000I0J125000D01*
G01*
X77699300Y-129691000D01*
G75*
G02*
X77824300Y-129566000I125000J0D01*
G01*
G37*
G36*
G01*
X77174300Y-129566000D02*
X77424300Y-129566000D01*
G75*
G02*
X77549300Y-129691000I0J-125000D01*
G01*
X77549300Y-131016000D01*
G75*
G02*
X77424300Y-131141000I-125000J0D01*
G01*
X77174300Y-131141000D01*
G75*
G02*
X77049300Y-131016000I0J125000D01*
G01*
X77049300Y-129691000D01*
G75*
G02*
X77174300Y-129566000I125000J0D01*
G01*
G37*
G36*
G01*
X77174300Y-123841000D02*
X77424300Y-123841000D01*
G75*
G02*
X77549300Y-123966000I0J-125000D01*
G01*
X77549300Y-125291000D01*
G75*
G02*
X77424300Y-125416000I-125000J0D01*
G01*
X77174300Y-125416000D01*
G75*
G02*
X77049300Y-125291000I0J125000D01*
G01*
X77049300Y-123966000D01*
G75*
G02*
X77174300Y-123841000I125000J0D01*
G01*
G37*
G36*
G01*
X77824300Y-123841000D02*
X78074300Y-123841000D01*
G75*
G02*
X78199300Y-123966000I0J-125000D01*
G01*
X78199300Y-125291000D01*
G75*
G02*
X78074300Y-125416000I-125000J0D01*
G01*
X77824300Y-125416000D01*
G75*
G02*
X77699300Y-125291000I0J125000D01*
G01*
X77699300Y-123966000D01*
G75*
G02*
X77824300Y-123841000I125000J0D01*
G01*
G37*
G36*
G01*
X78474300Y-123841000D02*
X78724300Y-123841000D01*
G75*
G02*
X78849300Y-123966000I0J-125000D01*
G01*
X78849300Y-125291000D01*
G75*
G02*
X78724300Y-125416000I-125000J0D01*
G01*
X78474300Y-125416000D01*
G75*
G02*
X78349300Y-125291000I0J125000D01*
G01*
X78349300Y-123966000D01*
G75*
G02*
X78474300Y-123841000I125000J0D01*
G01*
G37*
G36*
G01*
X79124300Y-123841000D02*
X79374300Y-123841000D01*
G75*
G02*
X79499300Y-123966000I0J-125000D01*
G01*
X79499300Y-125291000D01*
G75*
G02*
X79374300Y-125416000I-125000J0D01*
G01*
X79124300Y-125416000D01*
G75*
G02*
X78999300Y-125291000I0J125000D01*
G01*
X78999300Y-123966000D01*
G75*
G02*
X79124300Y-123841000I125000J0D01*
G01*
G37*
G36*
G01*
X79774300Y-123841000D02*
X80024300Y-123841000D01*
G75*
G02*
X80149300Y-123966000I0J-125000D01*
G01*
X80149300Y-125291000D01*
G75*
G02*
X80024300Y-125416000I-125000J0D01*
G01*
X79774300Y-125416000D01*
G75*
G02*
X79649300Y-125291000I0J125000D01*
G01*
X79649300Y-123966000D01*
G75*
G02*
X79774300Y-123841000I125000J0D01*
G01*
G37*
G36*
G01*
X80424300Y-123841000D02*
X80674300Y-123841000D01*
G75*
G02*
X80799300Y-123966000I0J-125000D01*
G01*
X80799300Y-125291000D01*
G75*
G02*
X80674300Y-125416000I-125000J0D01*
G01*
X80424300Y-125416000D01*
G75*
G02*
X80299300Y-125291000I0J125000D01*
G01*
X80299300Y-123966000D01*
G75*
G02*
X80424300Y-123841000I125000J0D01*
G01*
G37*
G36*
G01*
X81074300Y-123841000D02*
X81324300Y-123841000D01*
G75*
G02*
X81449300Y-123966000I0J-125000D01*
G01*
X81449300Y-125291000D01*
G75*
G02*
X81324300Y-125416000I-125000J0D01*
G01*
X81074300Y-125416000D01*
G75*
G02*
X80949300Y-125291000I0J125000D01*
G01*
X80949300Y-123966000D01*
G75*
G02*
X81074300Y-123841000I125000J0D01*
G01*
G37*
G36*
G01*
X81724300Y-123841000D02*
X81974300Y-123841000D01*
G75*
G02*
X82099300Y-123966000I0J-125000D01*
G01*
X82099300Y-125291000D01*
G75*
G02*
X81974300Y-125416000I-125000J0D01*
G01*
X81724300Y-125416000D01*
G75*
G02*
X81599300Y-125291000I0J125000D01*
G01*
X81599300Y-123966000D01*
G75*
G02*
X81724300Y-123841000I125000J0D01*
G01*
G37*
G36*
G01*
X82374300Y-123841000D02*
X82624300Y-123841000D01*
G75*
G02*
X82749300Y-123966000I0J-125000D01*
G01*
X82749300Y-125291000D01*
G75*
G02*
X82624300Y-125416000I-125000J0D01*
G01*
X82374300Y-125416000D01*
G75*
G02*
X82249300Y-125291000I0J125000D01*
G01*
X82249300Y-123966000D01*
G75*
G02*
X82374300Y-123841000I125000J0D01*
G01*
G37*
G36*
G01*
X83024300Y-123841000D02*
X83274300Y-123841000D01*
G75*
G02*
X83399300Y-123966000I0J-125000D01*
G01*
X83399300Y-125291000D01*
G75*
G02*
X83274300Y-125416000I-125000J0D01*
G01*
X83024300Y-125416000D01*
G75*
G02*
X82899300Y-125291000I0J125000D01*
G01*
X82899300Y-123966000D01*
G75*
G02*
X83024300Y-123841000I125000J0D01*
G01*
G37*
%TD*%
%TO.C,U2*%
G36*
G01*
X116226000Y-129693000D02*
X116476000Y-129693000D01*
G75*
G02*
X116601000Y-129818000I0J-125000D01*
G01*
X116601000Y-131143000D01*
G75*
G02*
X116476000Y-131268000I-125000J0D01*
G01*
X116226000Y-131268000D01*
G75*
G02*
X116101000Y-131143000I0J125000D01*
G01*
X116101000Y-129818000D01*
G75*
G02*
X116226000Y-129693000I125000J0D01*
G01*
G37*
G36*
G01*
X115576000Y-129693000D02*
X115826000Y-129693000D01*
G75*
G02*
X115951000Y-129818000I0J-125000D01*
G01*
X115951000Y-131143000D01*
G75*
G02*
X115826000Y-131268000I-125000J0D01*
G01*
X115576000Y-131268000D01*
G75*
G02*
X115451000Y-131143000I0J125000D01*
G01*
X115451000Y-129818000D01*
G75*
G02*
X115576000Y-129693000I125000J0D01*
G01*
G37*
G36*
G01*
X114926000Y-129693000D02*
X115176000Y-129693000D01*
G75*
G02*
X115301000Y-129818000I0J-125000D01*
G01*
X115301000Y-131143000D01*
G75*
G02*
X115176000Y-131268000I-125000J0D01*
G01*
X114926000Y-131268000D01*
G75*
G02*
X114801000Y-131143000I0J125000D01*
G01*
X114801000Y-129818000D01*
G75*
G02*
X114926000Y-129693000I125000J0D01*
G01*
G37*
G36*
G01*
X114276000Y-129693000D02*
X114526000Y-129693000D01*
G75*
G02*
X114651000Y-129818000I0J-125000D01*
G01*
X114651000Y-131143000D01*
G75*
G02*
X114526000Y-131268000I-125000J0D01*
G01*
X114276000Y-131268000D01*
G75*
G02*
X114151000Y-131143000I0J125000D01*
G01*
X114151000Y-129818000D01*
G75*
G02*
X114276000Y-129693000I125000J0D01*
G01*
G37*
G36*
G01*
X113626000Y-129693000D02*
X113876000Y-129693000D01*
G75*
G02*
X114001000Y-129818000I0J-125000D01*
G01*
X114001000Y-131143000D01*
G75*
G02*
X113876000Y-131268000I-125000J0D01*
G01*
X113626000Y-131268000D01*
G75*
G02*
X113501000Y-131143000I0J125000D01*
G01*
X113501000Y-129818000D01*
G75*
G02*
X113626000Y-129693000I125000J0D01*
G01*
G37*
G36*
G01*
X112976000Y-129693000D02*
X113226000Y-129693000D01*
G75*
G02*
X113351000Y-129818000I0J-125000D01*
G01*
X113351000Y-131143000D01*
G75*
G02*
X113226000Y-131268000I-125000J0D01*
G01*
X112976000Y-131268000D01*
G75*
G02*
X112851000Y-131143000I0J125000D01*
G01*
X112851000Y-129818000D01*
G75*
G02*
X112976000Y-129693000I125000J0D01*
G01*
G37*
G36*
G01*
X112326000Y-129693000D02*
X112576000Y-129693000D01*
G75*
G02*
X112701000Y-129818000I0J-125000D01*
G01*
X112701000Y-131143000D01*
G75*
G02*
X112576000Y-131268000I-125000J0D01*
G01*
X112326000Y-131268000D01*
G75*
G02*
X112201000Y-131143000I0J125000D01*
G01*
X112201000Y-129818000D01*
G75*
G02*
X112326000Y-129693000I125000J0D01*
G01*
G37*
G36*
G01*
X111676000Y-129693000D02*
X111926000Y-129693000D01*
G75*
G02*
X112051000Y-129818000I0J-125000D01*
G01*
X112051000Y-131143000D01*
G75*
G02*
X111926000Y-131268000I-125000J0D01*
G01*
X111676000Y-131268000D01*
G75*
G02*
X111551000Y-131143000I0J125000D01*
G01*
X111551000Y-129818000D01*
G75*
G02*
X111676000Y-129693000I125000J0D01*
G01*
G37*
G36*
G01*
X111026000Y-129693000D02*
X111276000Y-129693000D01*
G75*
G02*
X111401000Y-129818000I0J-125000D01*
G01*
X111401000Y-131143000D01*
G75*
G02*
X111276000Y-131268000I-125000J0D01*
G01*
X111026000Y-131268000D01*
G75*
G02*
X110901000Y-131143000I0J125000D01*
G01*
X110901000Y-129818000D01*
G75*
G02*
X111026000Y-129693000I125000J0D01*
G01*
G37*
G36*
G01*
X110376000Y-129693000D02*
X110626000Y-129693000D01*
G75*
G02*
X110751000Y-129818000I0J-125000D01*
G01*
X110751000Y-131143000D01*
G75*
G02*
X110626000Y-131268000I-125000J0D01*
G01*
X110376000Y-131268000D01*
G75*
G02*
X110251000Y-131143000I0J125000D01*
G01*
X110251000Y-129818000D01*
G75*
G02*
X110376000Y-129693000I125000J0D01*
G01*
G37*
G36*
G01*
X110376000Y-123968000D02*
X110626000Y-123968000D01*
G75*
G02*
X110751000Y-124093000I0J-125000D01*
G01*
X110751000Y-125418000D01*
G75*
G02*
X110626000Y-125543000I-125000J0D01*
G01*
X110376000Y-125543000D01*
G75*
G02*
X110251000Y-125418000I0J125000D01*
G01*
X110251000Y-124093000D01*
G75*
G02*
X110376000Y-123968000I125000J0D01*
G01*
G37*
G36*
G01*
X111026000Y-123968000D02*
X111276000Y-123968000D01*
G75*
G02*
X111401000Y-124093000I0J-125000D01*
G01*
X111401000Y-125418000D01*
G75*
G02*
X111276000Y-125543000I-125000J0D01*
G01*
X111026000Y-125543000D01*
G75*
G02*
X110901000Y-125418000I0J125000D01*
G01*
X110901000Y-124093000D01*
G75*
G02*
X111026000Y-123968000I125000J0D01*
G01*
G37*
G36*
G01*
X111676000Y-123968000D02*
X111926000Y-123968000D01*
G75*
G02*
X112051000Y-124093000I0J-125000D01*
G01*
X112051000Y-125418000D01*
G75*
G02*
X111926000Y-125543000I-125000J0D01*
G01*
X111676000Y-125543000D01*
G75*
G02*
X111551000Y-125418000I0J125000D01*
G01*
X111551000Y-124093000D01*
G75*
G02*
X111676000Y-123968000I125000J0D01*
G01*
G37*
G36*
G01*
X112326000Y-123968000D02*
X112576000Y-123968000D01*
G75*
G02*
X112701000Y-124093000I0J-125000D01*
G01*
X112701000Y-125418000D01*
G75*
G02*
X112576000Y-125543000I-125000J0D01*
G01*
X112326000Y-125543000D01*
G75*
G02*
X112201000Y-125418000I0J125000D01*
G01*
X112201000Y-124093000D01*
G75*
G02*
X112326000Y-123968000I125000J0D01*
G01*
G37*
G36*
G01*
X112976000Y-123968000D02*
X113226000Y-123968000D01*
G75*
G02*
X113351000Y-124093000I0J-125000D01*
G01*
X113351000Y-125418000D01*
G75*
G02*
X113226000Y-125543000I-125000J0D01*
G01*
X112976000Y-125543000D01*
G75*
G02*
X112851000Y-125418000I0J125000D01*
G01*
X112851000Y-124093000D01*
G75*
G02*
X112976000Y-123968000I125000J0D01*
G01*
G37*
G36*
G01*
X113626000Y-123968000D02*
X113876000Y-123968000D01*
G75*
G02*
X114001000Y-124093000I0J-125000D01*
G01*
X114001000Y-125418000D01*
G75*
G02*
X113876000Y-125543000I-125000J0D01*
G01*
X113626000Y-125543000D01*
G75*
G02*
X113501000Y-125418000I0J125000D01*
G01*
X113501000Y-124093000D01*
G75*
G02*
X113626000Y-123968000I125000J0D01*
G01*
G37*
G36*
G01*
X114276000Y-123968000D02*
X114526000Y-123968000D01*
G75*
G02*
X114651000Y-124093000I0J-125000D01*
G01*
X114651000Y-125418000D01*
G75*
G02*
X114526000Y-125543000I-125000J0D01*
G01*
X114276000Y-125543000D01*
G75*
G02*
X114151000Y-125418000I0J125000D01*
G01*
X114151000Y-124093000D01*
G75*
G02*
X114276000Y-123968000I125000J0D01*
G01*
G37*
G36*
G01*
X114926000Y-123968000D02*
X115176000Y-123968000D01*
G75*
G02*
X115301000Y-124093000I0J-125000D01*
G01*
X115301000Y-125418000D01*
G75*
G02*
X115176000Y-125543000I-125000J0D01*
G01*
X114926000Y-125543000D01*
G75*
G02*
X114801000Y-125418000I0J125000D01*
G01*
X114801000Y-124093000D01*
G75*
G02*
X114926000Y-123968000I125000J0D01*
G01*
G37*
G36*
G01*
X115576000Y-123968000D02*
X115826000Y-123968000D01*
G75*
G02*
X115951000Y-124093000I0J-125000D01*
G01*
X115951000Y-125418000D01*
G75*
G02*
X115826000Y-125543000I-125000J0D01*
G01*
X115576000Y-125543000D01*
G75*
G02*
X115451000Y-125418000I0J125000D01*
G01*
X115451000Y-124093000D01*
G75*
G02*
X115576000Y-123968000I125000J0D01*
G01*
G37*
G36*
G01*
X116226000Y-123968000D02*
X116476000Y-123968000D01*
G75*
G02*
X116601000Y-124093000I0J-125000D01*
G01*
X116601000Y-125418000D01*
G75*
G02*
X116476000Y-125543000I-125000J0D01*
G01*
X116226000Y-125543000D01*
G75*
G02*
X116101000Y-125418000I0J125000D01*
G01*
X116101000Y-124093000D01*
G75*
G02*
X116226000Y-123968000I125000J0D01*
G01*
G37*
%TD*%
M02*
