M48
; DRILL file {KiCad 5.1.6-c6e7f7d~86~ubuntu18.04.1} date Sat Jan 30 18:03:33 2021
; FORMAT={-:-/ absolute / inch / decimal}
; #@! TF.CreationDate,2021-01-30T18:03:33+08:00
; #@! TF.GenerationSoftware,Kicad,Pcbnew,5.1.6-c6e7f7d~86~ubuntu18.04.1
; #@! TF.FileFunction,Plated,1,2,PTH
FMAT,2
INCH
T1C0.0157
T2C0.0394
%
G90
G05
T1
X1.7679Y-5.4769
X1.9387Y-5.4943
X1.9616Y-5.3716
X2.1269Y-5.3169
X2.1365Y-4.3794
X2.1654Y-5.2625
X2.1675Y-5.1834
X2.1768Y-5.4139
X2.2145Y-5.497
X2.2483Y-4.4268
X2.2965Y-5.4949
X2.3209Y-5.2784
X2.341Y-4.4268
X2.4313Y-4.4049
X2.4384Y-4.4664
X2.4727Y-4.4958
X2.4801Y-4.576
X2.5098Y-4.5157
X2.5946Y-5.3747
X2.6013Y-5.3123
X2.6153Y-4.6303
X2.6296Y-5.1969
X2.6479Y-4.4419
X2.6479Y-5.4954
X2.67Y-4.7841
X2.6715Y-2.0343
X2.6802Y-4.7365
X2.697Y-5.495
X2.705Y-5.4546
X2.7094Y-4.7881
X2.7392Y-4.8157
X2.7616Y-5.3571
X2.7841Y-4.6045
X2.8155Y-5.3636
X2.8318Y-4.6999
X2.8319Y-4.6596
X2.8357Y-4.5471
X2.876Y-5.4722
X2.9128Y-5.3713
X2.9244Y-4.537
X2.9635Y-5.4766
X3.0115Y-5.1368
X3.0167Y-5.4654
X3.0654Y-5.4363
X3.0857Y-4.3932
X3.1071Y-5.3902
X3.1436Y-5.2578
X3.1677Y-4.3936
X3.2024Y-4.2376
X3.2224Y-5.2664
X3.255Y-4.4339
X3.2781Y-5.1853
X3.2799Y-4.0615
X3.3223Y-1.6305
X3.3311Y-4.8228
X3.349Y-1.5994
X3.4219Y-4.0782
X3.4283Y-2.1108
X3.434Y-4.9011
X3.4486Y-4.6076
X3.4951Y-5.2086
X3.4996Y-4.1245
X3.5158Y-4.6386
X3.6152Y-5.4025
X3.6531Y-3.9675
X3.811Y-4.55
X3.813Y-5.2327
X3.8409Y-5.2606
X3.8535Y-2.1271
X3.8715Y-5.2884
X3.8908Y-4.5643
X3.8908Y-4.6058
X3.9062Y-5.4948
X3.9218Y-4.9791
X3.9987Y-5.4735
X4.001Y-2.1448
X4.0129Y-1.8375
X4.0407Y-5.4722
X4.0909Y-5.4636
X4.1561Y-5.4775
X4.1578Y-4.6345
X4.1836Y-5.2699
X4.1895Y-5.4362
X4.2288Y-5.4255
X4.2659Y-1.9571
X4.2739Y-5.4495
X4.289Y-1.5505
X4.2982Y-3.9669
X4.3376Y-5.415
X4.3491Y-1.6049
X4.3491Y-4.8133
X4.3736Y-4.8445
X4.3832Y-5.4603
X4.3887Y-1.4659
X4.4484Y-4.8235
X4.4531Y-1.5762
X4.4561Y-5.4947
X4.4878Y-4.8235
X4.504Y-5.4873
X4.5337Y-5.233
X4.5525Y-5.4952
X4.5578Y-4.9646
X4.6644Y-5.1803
X4.6927Y-3.8483
X4.745Y-1.7132
X4.7688Y-3.8198
X4.7775Y-5.4348
X4.7966Y-5.4889
X4.799Y-3.8946
X4.8245Y-5.0692
X4.8309Y-5.2513
X4.8316Y-3.9619
X4.8627Y-3.9943
X4.8807Y-5.3262
X4.9028Y-4.2594
X4.9201Y-5.3242
X4.926Y-5.2849
X4.9308Y-1.9281
X4.9393Y-5.495
X4.9622Y-4.1871
X4.9707Y-5.2827
X4.9788Y-4.0954
X5.0132Y-5.24
X5.0296Y-5.4943
X5.0609Y-4.124
X5.092Y-5.4944
X5.1175Y-4.024
X5.1234Y-4.1573
X5.145Y-4.0535
X5.2172Y-5.4987
X5.2705Y-4.2159
X5.3766Y-4.3834
X5.3869Y-5.44
X5.5281Y-4.5005
X5.6679Y-5.4955
X5.8661Y-5.328
X5.9202Y-5.2562
X5.9313Y-5.3919
X6.0507Y-5.4942
X6.0537Y-2.246
X6.1642Y-2.2294
X6.2638Y-5.2275
X6.3223Y-1.7551
X6.3858Y-2.1502
X6.6089Y-5.1906
X6.9826Y-1.5072
X7.0884Y-1.982
X7.1478Y-1.9577
X7.2608Y-1.5357
T2
X2.7457Y-1.2386
X2.7457Y-1.3386
X2.8457Y-1.2386
X2.8457Y-1.3386
X2.9457Y-1.2386
X2.9457Y-1.3386
X3.0457Y-1.2386
X3.0457Y-1.3386
X3.1457Y-1.2386
X3.1457Y-1.3386
X3.2457Y-1.2386
X3.2457Y-1.3386
X3.3457Y-1.2386
X3.3457Y-1.3386
X3.4457Y-1.2386
X3.4457Y-1.3386
X3.5457Y-1.2386
X3.5457Y-1.3386
X3.6457Y-1.2386
X3.6457Y-1.3386
X3.7457Y-1.2386
X3.7457Y-1.3386
X3.8457Y-1.2386
X3.8457Y-1.3386
X3.9457Y-1.2386
X3.9457Y-1.3386
X4.0457Y-1.2386
X4.0457Y-1.3386
X4.1457Y-1.2386
X4.1457Y-1.3386
X4.2457Y-1.2386
X4.2457Y-1.3386
X4.3457Y-1.2386
X4.3457Y-1.3386
X4.4457Y-1.2386
X4.4457Y-1.3386
X4.5457Y-1.2386
X4.5457Y-1.3386
X4.6457Y-1.2386
X4.6457Y-1.3386
X1.6535Y-1.7898
X1.6535Y-1.8898
X1.7535Y-1.7898
X1.7535Y-1.8898
X1.8535Y-1.7898
X1.8535Y-1.8898
X1.9535Y-1.7898
X1.9535Y-1.8898
X2.0535Y-1.7898
X2.0535Y-1.8898
X2.1535Y-1.7898
X2.1535Y-1.8898
X2.2535Y-1.7898
X2.2535Y-1.8898
X2.3535Y-1.7898
X2.3535Y-1.8898
X2.4535Y-1.7898
X2.4535Y-1.8898
X2.5535Y-1.7898
X2.5535Y-1.8898
X2.6535Y-1.7898
X2.6535Y-1.8898
X2.7535Y-1.7898
X2.7535Y-1.8898
X2.8535Y-1.7898
X2.8535Y-1.8898
X2.9535Y-1.7898
X2.9535Y-1.8898
X3.0535Y-1.7898
X3.0535Y-1.8898
X3.1535Y-1.7898
X3.1535Y-1.8898
X3.2535Y-1.7898
X3.2535Y-1.8898
X3.3535Y-1.7898
X3.3535Y-1.8898
X3.4535Y-1.7898
X3.4535Y-1.8898
X3.5535Y-1.7898
X3.5535Y-1.8898
X3.6535Y-1.7898
X3.6535Y-1.8898
X3.7535Y-1.7898
X3.7535Y-1.8898
X3.8535Y-1.7898
X3.8535Y-1.8898
X3.9535Y-1.7898
X3.9535Y-1.8898
X4.0535Y-1.7898
X4.0535Y-1.8898
X4.1535Y-1.7898
X4.1535Y-1.8898
X4.2535Y-1.7898
X4.2535Y-1.8898
X4.3535Y-1.7898
X4.3535Y-1.8898
X4.4535Y-1.7898
X4.4535Y-1.8898
X4.5535Y-1.7898
X4.5535Y-1.8898
X4.6535Y-1.7898
X4.6535Y-1.8898
X4.7535Y-1.7898
X4.7535Y-1.8898
X1.6535Y-4.1913
X1.6535Y-4.2913
X1.7535Y-4.1913
X1.7535Y-4.2913
X1.8535Y-4.1913
X1.8535Y-4.2913
X1.9535Y-4.1913
X1.9535Y-4.2913
X2.0535Y-4.1913
X2.0535Y-4.2913
X2.1535Y-4.1913
X2.1535Y-4.2913
X2.2535Y-4.1913
X2.2535Y-4.2913
X2.3535Y-4.1913
X2.3535Y-4.2913
X2.4535Y-4.1913
X2.4535Y-4.2913
X2.5535Y-4.1913
X2.5535Y-4.2913
X2.6535Y-4.1913
X2.6535Y-4.2913
X2.7535Y-4.1913
X2.7535Y-4.2913
X2.8535Y-4.1913
X2.8535Y-4.2913
X2.9535Y-4.1913
X2.9535Y-4.2913
X3.0535Y-4.1913
X3.0535Y-4.2913
X3.1535Y-4.1913
X3.1535Y-4.2913
X3.2535Y-4.1913
X3.2535Y-4.2913
X3.3535Y-4.1913
X3.3535Y-4.2913
X3.4535Y-4.1913
X3.4535Y-4.2913
X3.5535Y-4.1913
X3.5535Y-4.2913
X3.6535Y-4.1913
X3.6535Y-4.2913
X3.7535Y-4.1913
X3.7535Y-4.2913
X3.8535Y-4.1913
X3.8535Y-4.2913
X3.9535Y-4.1913
X3.9535Y-4.2913
X4.0535Y-4.1913
X4.0535Y-4.2913
X4.1535Y-4.1913
X4.1535Y-4.2913
X4.2535Y-4.1913
X4.2535Y-4.2913
X4.3535Y-4.1913
X4.3535Y-4.2913
X4.4535Y-4.1913
X4.4535Y-4.2913
X4.5535Y-4.1913
X4.5535Y-4.2913
X4.6535Y-4.1913
X4.6535Y-4.2913
X4.7535Y-4.1913
X4.7535Y-4.2913
X6.378Y-1.7898
X6.378Y-1.8898
X6.478Y-1.7898
X6.478Y-1.8898
X6.578Y-1.7898
X6.578Y-1.8898
X6.678Y-1.7898
X6.678Y-1.8898
X6.778Y-1.7898
X6.778Y-1.8898
X6.878Y-1.7898
X6.878Y-1.8898
X6.978Y-1.7898
X6.978Y-1.8898
X7.078Y-1.7898
X7.078Y-1.8898
X7.178Y-1.7898
X7.178Y-1.8898
X7.278Y-1.7898
X7.278Y-1.8898
X7.378Y-1.7898
X7.378Y-1.8898
X7.478Y-1.7898
X7.478Y-1.8898
X7.578Y-1.7898
X7.578Y-1.8898
X7.678Y-1.7898
X7.678Y-1.8898
X7.778Y-1.7898
X7.778Y-1.8898
X7.878Y-1.7898
X7.878Y-1.8898
X7.978Y-1.7898
X7.978Y-1.8898
X8.078Y-1.7898
X8.078Y-1.8898
X8.178Y-1.7898
X8.178Y-1.8898
X8.278Y-1.7898
X8.278Y-1.8898
T0
M30
