M48
; DRILL file {KiCad 5.1.6-c6e7f7d~86~ubuntu18.04.1} date Sat Feb 20 22:43:25 2021
; FORMAT={-:-/ absolute / inch / decimal}
; #@! TF.CreationDate,2021-02-20T22:43:25+08:00
; #@! TF.GenerationSoftware,Kicad,Pcbnew,5.1.6-c6e7f7d~86~ubuntu18.04.1
; #@! TF.FileFunction,Plated,1,2,PTH
FMAT,2
INCH
T1C0.0157
T2C0.0295
T3C0.0315
T4C0.0394
T5C0.0433
T6C0.0472
%
G90
G05
T1
X4.03Y-0.63
X4.2068Y-2.8205
X4.39Y-0.63
X4.4887Y-5.0286
X4.5936Y-1.2185
X4.6523Y-2.9684
X4.7673Y-1.8892
X4.935Y-5.27
X4.9464Y-4.4423
X4.97Y-4.5506
X5.2361Y-5.0352
X5.2374Y-5.1597
X5.2448Y-5.492
X5.2486Y-5.1008
X5.2692Y-0.5032
X5.2961Y-2.035
X5.2971Y-4.1369
X5.324Y-5.2708
X5.325Y-4.885
X5.3647Y-5.2854
X5.3918Y-4.0269
X5.4257Y-5.1212
X5.4263Y-1.4108
X5.4392Y-4.808
X5.454Y-3.6845
X5.5051Y-1.8934
X5.5064Y-2.1254
X5.5089Y-5.201
X5.533Y-0.8254
X5.5337Y-5.1688
X5.5454Y-3.3226
X5.5747Y-3.8941
X5.5847Y-4.9134
X5.5892Y-2.4419
X5.5938Y-5.9596
X5.6089Y-5.2634
X5.6289Y-5.5275
X5.639Y-5.2141
X5.6398Y-1.7009
X5.6585Y-5.4984
X5.6694Y-3.8112
X5.6704Y-4.8665
X5.6715Y-3.0938
X5.6761Y-1.1757
X5.6849Y-5.8346
X5.7287Y-3.3578
X5.7301Y-3.2791
X5.7347Y-5.1724
X5.7361Y-4.3328
X5.7401Y-3.7516
X5.7428Y-5.4794
X5.7509Y-5.4105
X5.7634Y-5.2048
X5.8016Y-5.1872
X5.8079Y-5.4737
X5.829Y-3.7935
X5.8355Y-2.345
X5.8442Y-3.4475
X5.8462Y-4.6524
X5.8532Y-3.9139
X5.9402Y-5.1676
X5.9431Y-1.4544
X5.9584Y-4.5175
X5.967Y-2.2834
X5.9782Y-2.2431
X5.9793Y-1.7418
X6.0001Y-2.7059
X6.0305Y-2.7885
X6.0648Y-4.5642
X6.0725Y-2.7809
X6.085Y-1.9455
X6.1109Y-1.6982
X6.1274Y-1.9861
X6.1274Y-2.1228
X6.1393Y-2.8012
X6.1433Y-1.0442
X6.1734Y-4.916
X6.2128Y-4.9174
X6.2143Y-4.5954
X6.2177Y-1.0168
X6.2453Y-5.1401
X6.2457Y-5.1811
X6.2526Y-2.2902
X6.2557Y-1.6028
X6.2768Y-1.6799
X6.2794Y-4.1563
X6.296Y-2.1762
X6.307Y-1.6139
X6.3141Y-2.5402
X6.3166Y-1.8938
X6.3188Y-1.0965
X6.3216Y-4.8058
X6.3777Y-2.0805
X6.3815Y-5.1269
X6.4003Y-2.3076
X6.4052Y-4.651
X6.4085Y-5.2145
X6.4097Y-2.9686
X6.4441Y-1.7239
X6.445Y-4.905
X6.5312Y-1.8078
X6.5492Y-2.2781
X6.55Y-4.2537
X6.5662Y-4.9368
X6.569Y-2.1301
X6.6236Y-1.7507
X6.6804Y-2.3595
X6.6931Y-2.7472
X6.6938Y-2.706
X6.7273Y-2.663
X6.7834Y-2.3562
X6.7971Y-2.2068
X6.8011Y-4.33
X6.8056Y-0.5903
X6.8129Y-1.9802
X6.8243Y-3.8447
X6.8305Y-1.6636
X6.8365Y-2.1879
X6.8403Y-3.7333
X6.8462Y-4.935
X6.8625Y-3.0216
X6.8963Y-4.3163
X6.9111Y-3.6224
X7.0484Y-3.863
X7.0727Y-4.626
X7.0747Y-4.7524
X7.1024Y-2.4616
X7.1336Y-5.0345
X7.17Y-3.5294
X7.23Y-4.875
X7.2715Y-3.4747
X7.2952Y-5.1262
X7.2962Y-5.1656
X7.3293Y-4.9622
X7.3493Y-1.5647
X7.3864Y-4.9686
X7.4458Y-4.72
X7.4567Y-2.2516
X7.4596Y-3.4468
X7.5309Y-1.4796
X7.569Y-3.3249
X7.5922Y-5.224
X7.5935Y-4.8722
X7.6352Y-4.79
X7.6475Y-1.5089
X7.6582Y-5.0898
X7.663Y-5.0408
X7.6645Y-1.4491
X7.675Y-4.7733
X7.68Y-6.2957
X7.6915Y-2.9778
X7.6988Y-1.5147
X7.7013Y-2.7537
X7.8054Y-4.9612
X7.87Y-4.88
X7.9662Y-3.1243
X8.0001Y-2.4539
X8.0151Y-3.1253
X8.0731Y-2.4622
X8.0737Y-4.8409
X8.1057Y-2.2301
X8.1077Y-2.491
X8.126Y-3.1721
X8.142Y-2.4272
X8.1569Y-2.0908
X8.1722Y-2.3618
X8.1739Y-1.7696
X8.1946Y-3.0313
X8.1946Y-3.1788
X8.203Y-2.1945
X8.2217Y-4.0699
X8.224Y-2.7674
X8.2459Y-2.7257
X8.2626Y-2.6573
X8.2628Y-4.2143
X8.2791Y-1.2272
X8.2871Y-3.4371
X8.2888Y-3.2076
X8.3024Y-2.5292
X8.3312Y-3.0144
X8.3684Y-3.049
X8.374Y-5.5732
X8.3887Y-2.0514
X8.3952Y-2.3199
X8.4003Y-2.9828
X8.4193Y-2.5191
X8.4223Y-4.572
X8.4287Y-1.657
X8.4386Y-3.3936
X8.4413Y-4.094
X8.444Y-3.0667
X8.4541Y-1.3601
X8.4702Y-2.7659
X8.4829Y-4.579
X8.4901Y-3.5052
X8.4905Y-2.5381
X8.4941Y-3.2125
X8.4984Y-4.1054
X8.5052Y-1.473
X8.5259Y-5.2676
X8.5343Y-3.0845
X8.5432Y-4.5392
X8.5449Y-3.3948
X8.5478Y-2.5459
X8.5499Y-3.7346
X8.5555Y-2.1395
X8.5555Y-4.1069
X8.5684Y-5.1509
X8.5842Y-2.3154
X8.5934Y-3.6956
X8.5944Y-2.0694
X8.5947Y-4.3728
X8.6065Y-5.4289
X8.6373Y-2.3739
X8.6389Y-3.0881
X8.6445Y-3.4614
X8.6462Y-4.8228
X8.6506Y-2.4844
X8.6586Y-5.0574
X8.6591Y-4.4504
X8.6701Y-1.4757
X8.6708Y-2.7891
X8.6809Y-2.1413
X8.6943Y-2.5516
X8.696Y-4.7854
X8.6973Y-1.7824
X8.6973Y-3.0629
X8.6994Y-3.5055
X8.6995Y-4.4083
X8.711Y-0.9532
X8.7172Y-2.0229
X8.735Y-2.545
X8.735Y-4.58
X8.74Y-1.865
X8.74Y-3.9
X8.74Y-5.26
X8.742Y-6.1871
X8.7559Y-1.1341
X8.7738Y-6.2373
X8.7743Y-2.3736
X8.7934Y-3.7311
X8.795Y-1.62
X8.795Y-2.31
X8.795Y-2.99
X8.795Y-3.67
X8.795Y-4.345
X8.795Y-5.025
X8.7951Y-4.5448
X8.799Y-1.431
X8.8105Y-5.1035
X8.8237Y-1.8786
X8.8287Y-1.8148
X8.8475Y-4.816
X8.8481Y-4.1798
X8.8484Y-5.5419
X8.8524Y-4.5333
X8.8572Y-2.7426
X8.8729Y-2.4797
X8.8866Y-2.7974
X8.8875Y-3.3941
X8.8898Y-6.248
X8.8934Y-3.7251
X8.8971Y-3.4444
X8.8982Y-3.1999
X8.9018Y-2.359
X8.9178Y-1.8763
X8.9192Y-5.5385
X8.9194Y-5.4848
X8.9307Y-2.0763
X8.935Y-5.975
X8.9429Y-4.1691
X8.945Y-2.7179
X8.945Y-4.4055
X8.9475Y-2.1431
X8.9517Y-5.4193
X8.9542Y-3.3869
X8.9618Y-1.7611
X8.9739Y-1.6823
X8.9763Y-1.7217
X8.9772Y-4.0738
X8.9955Y-1.8257
X9.0013Y-5.8055
X9.0162Y-4.3604
X9.0191Y-1.6882
X9.022Y-3.0474
X9.038Y-4.1229
X9.0391Y-4.1651
X9.0436Y-2.3043
X9.0461Y-3.9045
X9.0471Y-3.5042
X9.0479Y-2.8127
X9.0575Y-2.3736
X9.0891Y-1.6427
X9.0932Y-2.7772
X9.0954Y-1.6917
X9.1059Y-3.7978
X9.1073Y-4.8131
X9.1102Y-1.8374
X9.1187Y-2.553
X9.1275Y-1.7646
X9.1352Y-3.4628
X9.1483Y-2.8077
X9.1499Y-0.4815
X9.1546Y-4.168
X9.2097Y-1.3947
X9.2224Y-1.7162
X9.2253Y-2.3066
X9.2341Y-2.7919
X9.2484Y-2.6674
X9.2602Y-2.4239
X9.269Y-4.273
X9.2735Y-1.5916
X9.2878Y-1.4728
X9.3235Y-1.9979
X9.3237Y-5.7671
X9.3568Y-1.5208
X9.3685Y-1.9754
X9.3774Y-4.4977
X9.3864Y-4.297
X9.3954Y-4.3541
X9.4044Y-1.4973
X9.41Y-2.8589
X9.4194Y-4.1949
X9.4258Y-1.6859
X9.4596Y-1.3832
X9.4674Y-2.7929
X9.4732Y-3.018
X9.496Y-2.8282
X9.4961Y-4.1509
X9.497Y-2.5359
X9.5005Y-3.5094
X9.5207Y-2.3896
X9.5421Y-4.7793
X9.5458Y-5.0351
X9.5597Y-2.5444
X9.5714Y-3.2378
X9.5786Y-2.7046
X9.5896Y-4.3372
X9.5898Y-4.0596
X9.6003Y-2.7682
X9.6139Y-3.4055
X9.6181Y-2.3571
X9.6326Y-1.354
X9.6335Y-4.174
X9.6402Y-3.4665
X9.6431Y-4.3656
X9.6458Y-2.3071
X9.6664Y-3.8821
X9.6711Y-3.3763
X9.6958Y-3.509
X9.6995Y-4.7921
X9.6998Y-3.1804
X9.702Y-4.1882
X9.7381Y-5.2605
X9.7394Y-4.3374
X9.7472Y-3.9082
X9.7488Y-2.8221
X9.7495Y-4.8445
X9.7496Y-3.3956
X9.7499Y-2.4816
X9.7534Y-2.0431
X9.7708Y-4.1329
X9.7728Y-1.7559
X9.7747Y-1.4021
X9.7785Y-1.8735
X9.78Y-0.8247
X9.7889Y-1.354
X9.7958Y-2.7046
X9.8046Y-3.8346
X9.8348Y-0.9272
X9.84Y-5.255
X9.8409Y-1.4095
X9.845Y-2.54
X9.845Y-3.22
X9.845Y-3.9
X9.845Y-4.58
X9.85Y-1.865
X9.8669Y-4.8695
X9.8839Y-1.7893
X9.8859Y-3.897
X9.895Y-2.31
X9.895Y-2.99
X9.895Y-3.665
X9.895Y-4.345
X9.895Y-5.025
X9.8981Y-1.194
X9.9Y-1.63
X9.9007Y-4.5461
X9.9039Y-2.3687
X9.9039Y-3.2278
X9.9075Y-1.8749
X9.9458Y-4.0637
X9.9473Y-1.6402
X9.9526Y-3.4728
X9.9529Y-2.817
X9.9654Y-2.1466
X9.9877Y-1.4625
X9.9929Y-4.5223
X9.9996Y-3.8794
X9.9997Y-3.3836
X10.0001Y-4.1827
X10.0213Y-1.366
X10.0383Y-2.0952
X10.0446Y-2.7046
X10.0446Y-3.2278
X10.0458Y-3.6925
X10.0488Y-4.3399
X10.0558Y-2.0258
X10.0601Y-2.7929
X10.1025Y-4.0588
X10.1068Y-3.4471
X10.1082Y-4.3877
X10.1225Y-4.5793
X10.1227Y-3.2305
X10.1301Y-1.4446
X10.1428Y-2.981
X10.15Y-4.1198
X10.1501Y-3.4937
X10.1526Y-2.0238
X10.1609Y-2.1498
X10.1918Y-1.8714
X10.1918Y-4.8584
X10.1991Y-3.2278
X10.1998Y-2.7754
X10.1999Y-4.5804
X10.2Y-4.1647
X10.2309Y-5.2605
X10.2456Y-2.3358
X10.2458Y-4.7828
X10.2547Y-2.8301
X10.2894Y-0.9198
X10.3524Y-1.7581
T2
X3.4Y-3.98
X3.4Y-4.03
X3.4Y-4.08
T3
X5.79Y-1.49
X5.79Y-1.59
X5.79Y-1.69
X5.79Y-1.79
X5.79Y-1.89
X5.79Y-1.99
X5.79Y-2.09
X5.79Y-2.19
X5.79Y-2.29
X5.79Y-2.39
X5.79Y-2.49
X5.89Y-1.39
X5.89Y-1.49
X5.89Y-1.59
X5.89Y-1.69
X5.89Y-1.79
X5.89Y-1.89
X5.89Y-1.99
X5.89Y-2.09
X5.89Y-2.19
X5.89Y-2.29
X5.89Y-2.39
X5.89Y-2.49
X5.89Y-2.59
X5.99Y-1.39
X5.99Y-1.49
X5.99Y-2.49
X5.99Y-2.59
X6.09Y-1.39
X6.09Y-1.49
X6.09Y-2.49
X6.09Y-2.59
X6.19Y-1.39
X6.19Y-1.49
X6.19Y-2.49
X6.19Y-2.59
X6.29Y-1.39
X6.29Y-1.49
X6.29Y-2.49
X6.29Y-2.59
X6.39Y-1.39
X6.39Y-1.49
X6.39Y-2.49
X6.39Y-2.59
X6.49Y-1.39
X6.49Y-1.49
X6.49Y-2.49
X6.49Y-2.59
X6.59Y-1.39
X6.59Y-1.49
X6.59Y-2.49
X6.59Y-2.59
X6.69Y-1.39
X6.69Y-1.49
X6.69Y-2.49
X6.69Y-2.59
X6.79Y-1.39
X6.79Y-1.49
X6.79Y-2.49
X6.79Y-2.59
X6.89Y-1.39
X6.89Y-1.49
X6.89Y-1.59
X6.89Y-1.69
X6.89Y-1.79
X6.89Y-1.89
X6.89Y-1.99
X6.89Y-2.09
X6.89Y-2.19
X6.89Y-2.29
X6.89Y-2.39
X6.89Y-2.49
X6.89Y-2.59
X6.99Y-1.49
X6.99Y-1.59
X6.99Y-1.69
X6.99Y-1.79
X6.99Y-1.89
X6.99Y-1.99
X6.99Y-2.09
X6.99Y-2.19
X6.99Y-2.29
X6.99Y-2.39
X6.99Y-2.49
X8.38Y-0.665
X8.38Y-1.265
X8.48Y-0.665
X8.48Y-1.265
X8.58Y-0.665
X8.58Y-1.265
X8.68Y-0.665
X8.68Y-1.265
X8.78Y-0.665
X8.78Y-1.265
X8.88Y-0.665
X8.88Y-1.265
X8.98Y-0.665
X8.98Y-1.265
X9.08Y-0.665
X9.08Y-1.265
X9.18Y-0.665
X9.18Y-1.265
X9.28Y-0.665
X9.28Y-1.265
X9.38Y-0.665
X9.38Y-1.265
X9.48Y-0.665
X9.48Y-1.265
X9.58Y-0.665
X9.58Y-1.265
X9.68Y-0.665
X9.68Y-1.265
X9.78Y-0.665
X9.78Y-1.265
X9.88Y-0.665
X9.88Y-1.265
X9.98Y-0.665
X9.98Y-1.265
X10.08Y-0.665
X10.08Y-1.265
X10.18Y-0.665
X10.18Y-1.265
X10.28Y-0.665
X10.28Y-1.265
X4.64Y-0.885
X4.64Y-0.985
X4.64Y-1.085
X4.64Y-1.185
X4.64Y-1.285
X4.64Y-1.385
X4.64Y-1.485
X4.64Y-1.585
X4.64Y-1.685
X4.64Y-1.785
X4.64Y-1.885
X4.64Y-1.985
X4.64Y-2.085
X4.64Y-2.185
X4.64Y-2.285
X4.64Y-2.385
X4.64Y-2.485
X4.64Y-2.585
X4.64Y-2.685
X4.64Y-2.785
X5.24Y-0.885
X5.24Y-0.985
X5.24Y-1.085
X5.24Y-1.185
X5.24Y-1.285
X5.24Y-1.385
X5.24Y-1.485
X5.24Y-1.585
X5.24Y-1.685
X5.24Y-1.785
X5.24Y-1.885
X5.24Y-1.985
X5.24Y-2.085
X5.24Y-2.185
X5.24Y-2.285
X5.24Y-2.385
X5.24Y-2.485
X5.24Y-2.585
X5.24Y-2.685
X5.24Y-2.785
X4.55Y-3.19
X4.55Y-4.09
X4.65Y-3.19
X4.65Y-4.09
X4.75Y-3.19
X4.75Y-4.09
X4.85Y-3.19
X4.85Y-4.09
X4.95Y-3.19
X4.95Y-4.09
X5.05Y-3.19
X5.05Y-4.09
X5.15Y-3.19
X5.15Y-4.09
X5.25Y-3.19
X5.25Y-4.09
X5.35Y-3.19
X5.35Y-4.09
X5.45Y-3.19
X5.45Y-4.09
X5.55Y-3.19
X5.55Y-4.09
X5.65Y-3.19
X5.65Y-4.09
X5.75Y-3.19
X5.75Y-4.09
X5.85Y-3.19
X5.85Y-4.09
X5.95Y-3.19
X5.95Y-4.09
X6.05Y-3.19
X6.05Y-4.09
X6.15Y-3.19
X6.15Y-4.09
X6.25Y-3.19
X6.25Y-4.09
X6.35Y-3.19
X6.35Y-4.09
X6.45Y-3.19
X6.45Y-4.09
X6.55Y-3.19
X6.55Y-4.09
X6.65Y-3.19
X6.65Y-4.09
X6.75Y-3.19
X6.75Y-4.09
X6.85Y-3.19
X6.85Y-4.09
X6.95Y-3.19
X6.95Y-4.09
X7.05Y-3.19
X7.05Y-4.09
X7.15Y-3.19
X7.15Y-4.09
X7.25Y-3.19
X7.25Y-4.09
X7.35Y-3.19
X7.35Y-4.09
X7.45Y-3.19
X7.45Y-4.09
X7.55Y-3.19
X7.55Y-4.09
X7.65Y-3.19
X7.65Y-4.09
X3.805Y-3.985
X3.805Y-4.085
T4
X3.575Y-0.775
X3.575Y-0.875
X3.575Y-0.975
X3.575Y-1.075
X3.575Y-1.175
X3.575Y-1.275
X3.575Y-1.375
X3.575Y-1.475
X3.575Y-1.575
X3.575Y-1.675
X3.575Y-1.775
X3.575Y-1.875
X3.575Y-1.975
X3.575Y-2.075
X3.575Y-2.175
X3.575Y-2.275
X3.575Y-2.375
X3.575Y-2.475
X3.575Y-2.575
X3.575Y-2.675
X3.675Y-0.775
X3.675Y-0.875
X3.675Y-0.975
X3.675Y-1.075
X3.675Y-1.175
X3.675Y-1.275
X3.675Y-1.375
X3.675Y-1.475
X3.675Y-1.575
X3.675Y-1.675
X3.675Y-1.775
X3.675Y-1.875
X3.675Y-1.975
X3.675Y-2.075
X3.675Y-2.175
X3.675Y-2.275
X3.675Y-2.375
X3.675Y-2.475
X3.675Y-2.575
X3.675Y-2.675
X6.975Y-0.565
X6.975Y-0.665
X7.075Y-0.565
X7.075Y-0.665
X7.175Y-0.565
X7.175Y-0.665
X7.275Y-0.565
X7.275Y-0.665
X7.375Y-0.565
X7.375Y-0.665
X7.54Y-2.015
X7.54Y-2.615
X7.84Y-2.015
X7.84Y-2.615
T5
X7.725Y-0.56
X7.825Y-0.56
X7.925Y-0.56
T6
X3.225Y-4.885
X3.225Y-5.0622
X3.4809Y-4.885
X3.4809Y-5.0622
T4
G00X3.4588Y-5.5406
M15
G01X3.4588Y-5.6194
M16
G05
G00X3.5375Y-5.765
M15
G01X3.6163Y-5.765
M16
G05
G00X3.695Y-5.5406
M15
G01X3.695Y-5.6194
M16
G05
T0
M30
