%TF.GenerationSoftware,KiCad,Pcbnew,5.1.6-c6e7f7d~86~ubuntu18.04.1*%
%TF.CreationDate,2021-02-20T22:43:29+08:00*%
%TF.ProjectId,68k_dev,36386b5f-6465-4762-9e6b-696361645f70,rev?*%
%TF.SameCoordinates,Original*%
%TF.FileFunction,Soldermask,Top*%
%TF.FilePolarity,Negative*%
%FSLAX46Y46*%
G04 Gerber Fmt 4.6, Leading zero omitted, Abs format (unit mm)*
G04 Created by KiCad (PCBNEW 5.1.6-c6e7f7d~86~ubuntu18.04.1) date 2021-02-20 22:43:29*
%MOMM*%
%LPD*%
G01*
G04 APERTURE LIST*
%TA.AperFunction,Profile*%
%ADD10C,0.050000*%
%TD*%
%ADD11R,0.700000X2.150000*%
%ADD12C,1.500000*%
%ADD13O,1.800000X1.800000*%
%ADD14R,1.800000X1.800000*%
%ADD15O,1.700000X2.500000*%
%ADD16R,1.700000X2.500000*%
%ADD17C,2.300000*%
%ADD18R,2.300000X2.300000*%
%ADD19C,2.200000*%
%ADD20R,1.880000X7.720000*%
%ADD21R,3.600000X3.600000*%
%ADD22R,0.600000X0.900000*%
%ADD23R,0.500000X0.900000*%
%ADD24R,2.100000X1.600000*%
%ADD25R,2.100000X3.900000*%
%ADD26O,1.700000X1.700000*%
%ADD27R,1.700000X1.700000*%
%ADD28C,2.600000*%
%ADD29R,2.600000X2.600000*%
%ADD30R,1.600000X1.150000*%
%ADD31C,1.522400*%
%ADD32R,1.522400X1.522400*%
G04 APERTURE END LIST*
D10*
X97663000Y-159512000D02*
X79883000Y-159512000D01*
X97663000Y-168402000D02*
X97663000Y-159512000D01*
X145923000Y-168402000D02*
X97663000Y-168402000D01*
X145923000Y-160782000D02*
X145923000Y-168402000D01*
X151003000Y-160782000D02*
X145923000Y-160782000D01*
X151003000Y-168402000D02*
X151003000Y-160782000D01*
X232283000Y-168402000D02*
X151003000Y-168402000D01*
X232283000Y-159512000D02*
X232283000Y-168402000D01*
X233553000Y-159512000D02*
X232283000Y-159512000D01*
X79883000Y-10000000D02*
X79883000Y-159512000D01*
X270383000Y-10000000D02*
X79883000Y-10000000D01*
X270383000Y-159512000D02*
X270383000Y-10000000D01*
X233553000Y-159512000D02*
X270383000Y-159512000D01*
%TO.C,U4*%
G36*
G01*
X261465000Y-48179000D02*
X261815000Y-48179000D01*
G75*
G02*
X261990000Y-48354000I0J-175000D01*
G01*
X261990000Y-50654000D01*
G75*
G02*
X261815000Y-50829000I-175000J0D01*
G01*
X261465000Y-50829000D01*
G75*
G02*
X261290000Y-50654000I0J175000D01*
G01*
X261290000Y-48354000D01*
G75*
G02*
X261465000Y-48179000I175000J0D01*
G01*
G37*
G36*
G01*
X260195000Y-48179000D02*
X260545000Y-48179000D01*
G75*
G02*
X260720000Y-48354000I0J-175000D01*
G01*
X260720000Y-50654000D01*
G75*
G02*
X260545000Y-50829000I-175000J0D01*
G01*
X260195000Y-50829000D01*
G75*
G02*
X260020000Y-50654000I0J175000D01*
G01*
X260020000Y-48354000D01*
G75*
G02*
X260195000Y-48179000I175000J0D01*
G01*
G37*
G36*
G01*
X258925000Y-48179000D02*
X259275000Y-48179000D01*
G75*
G02*
X259450000Y-48354000I0J-175000D01*
G01*
X259450000Y-50654000D01*
G75*
G02*
X259275000Y-50829000I-175000J0D01*
G01*
X258925000Y-50829000D01*
G75*
G02*
X258750000Y-50654000I0J175000D01*
G01*
X258750000Y-48354000D01*
G75*
G02*
X258925000Y-48179000I175000J0D01*
G01*
G37*
G36*
G01*
X257655000Y-48179000D02*
X258005000Y-48179000D01*
G75*
G02*
X258180000Y-48354000I0J-175000D01*
G01*
X258180000Y-50654000D01*
G75*
G02*
X258005000Y-50829000I-175000J0D01*
G01*
X257655000Y-50829000D01*
G75*
G02*
X257480000Y-50654000I0J175000D01*
G01*
X257480000Y-48354000D01*
G75*
G02*
X257655000Y-48179000I175000J0D01*
G01*
G37*
G36*
G01*
X256385000Y-48179000D02*
X256735000Y-48179000D01*
G75*
G02*
X256910000Y-48354000I0J-175000D01*
G01*
X256910000Y-50654000D01*
G75*
G02*
X256735000Y-50829000I-175000J0D01*
G01*
X256385000Y-50829000D01*
G75*
G02*
X256210000Y-50654000I0J175000D01*
G01*
X256210000Y-48354000D01*
G75*
G02*
X256385000Y-48179000I175000J0D01*
G01*
G37*
G36*
G01*
X255115000Y-48179000D02*
X255465000Y-48179000D01*
G75*
G02*
X255640000Y-48354000I0J-175000D01*
G01*
X255640000Y-50654000D01*
G75*
G02*
X255465000Y-50829000I-175000J0D01*
G01*
X255115000Y-50829000D01*
G75*
G02*
X254940000Y-50654000I0J175000D01*
G01*
X254940000Y-48354000D01*
G75*
G02*
X255115000Y-48179000I175000J0D01*
G01*
G37*
G36*
G01*
X253845000Y-48179000D02*
X254195000Y-48179000D01*
G75*
G02*
X254370000Y-48354000I0J-175000D01*
G01*
X254370000Y-50654000D01*
G75*
G02*
X254195000Y-50829000I-175000J0D01*
G01*
X253845000Y-50829000D01*
G75*
G02*
X253670000Y-50654000I0J175000D01*
G01*
X253670000Y-48354000D01*
G75*
G02*
X253845000Y-48179000I175000J0D01*
G01*
G37*
G36*
G01*
X252575000Y-48179000D02*
X252925000Y-48179000D01*
G75*
G02*
X253100000Y-48354000I0J-175000D01*
G01*
X253100000Y-50654000D01*
G75*
G02*
X252925000Y-50829000I-175000J0D01*
G01*
X252575000Y-50829000D01*
G75*
G02*
X252400000Y-50654000I0J175000D01*
G01*
X252400000Y-48354000D01*
G75*
G02*
X252575000Y-48179000I175000J0D01*
G01*
G37*
G36*
G01*
X251305000Y-48179000D02*
X251655000Y-48179000D01*
G75*
G02*
X251830000Y-48354000I0J-175000D01*
G01*
X251830000Y-50654000D01*
G75*
G02*
X251655000Y-50829000I-175000J0D01*
G01*
X251305000Y-50829000D01*
G75*
G02*
X251130000Y-50654000I0J175000D01*
G01*
X251130000Y-48354000D01*
G75*
G02*
X251305000Y-48179000I175000J0D01*
G01*
G37*
G36*
G01*
X250035000Y-48179000D02*
X250385000Y-48179000D01*
G75*
G02*
X250560000Y-48354000I0J-175000D01*
G01*
X250560000Y-50654000D01*
G75*
G02*
X250385000Y-50829000I-175000J0D01*
G01*
X250035000Y-50829000D01*
G75*
G02*
X249860000Y-50654000I0J175000D01*
G01*
X249860000Y-48354000D01*
G75*
G02*
X250035000Y-48179000I175000J0D01*
G01*
G37*
G36*
G01*
X248765000Y-48179000D02*
X249115000Y-48179000D01*
G75*
G02*
X249290000Y-48354000I0J-175000D01*
G01*
X249290000Y-50654000D01*
G75*
G02*
X249115000Y-50829000I-175000J0D01*
G01*
X248765000Y-50829000D01*
G75*
G02*
X248590000Y-50654000I0J175000D01*
G01*
X248590000Y-48354000D01*
G75*
G02*
X248765000Y-48179000I175000J0D01*
G01*
G37*
G36*
G01*
X247495000Y-48179000D02*
X247845000Y-48179000D01*
G75*
G02*
X248020000Y-48354000I0J-175000D01*
G01*
X248020000Y-50654000D01*
G75*
G02*
X247845000Y-50829000I-175000J0D01*
G01*
X247495000Y-50829000D01*
G75*
G02*
X247320000Y-50654000I0J175000D01*
G01*
X247320000Y-48354000D01*
G75*
G02*
X247495000Y-48179000I175000J0D01*
G01*
G37*
G36*
G01*
X246225000Y-48179000D02*
X246575000Y-48179000D01*
G75*
G02*
X246750000Y-48354000I0J-175000D01*
G01*
X246750000Y-50654000D01*
G75*
G02*
X246575000Y-50829000I-175000J0D01*
G01*
X246225000Y-50829000D01*
G75*
G02*
X246050000Y-50654000I0J175000D01*
G01*
X246050000Y-48354000D01*
G75*
G02*
X246225000Y-48179000I175000J0D01*
G01*
G37*
G36*
G01*
X244955000Y-48179000D02*
X245305000Y-48179000D01*
G75*
G02*
X245480000Y-48354000I0J-175000D01*
G01*
X245480000Y-50654000D01*
G75*
G02*
X245305000Y-50829000I-175000J0D01*
G01*
X244955000Y-50829000D01*
G75*
G02*
X244780000Y-50654000I0J175000D01*
G01*
X244780000Y-48354000D01*
G75*
G02*
X244955000Y-48179000I175000J0D01*
G01*
G37*
G36*
G01*
X243685000Y-48179000D02*
X244035000Y-48179000D01*
G75*
G02*
X244210000Y-48354000I0J-175000D01*
G01*
X244210000Y-50654000D01*
G75*
G02*
X244035000Y-50829000I-175000J0D01*
G01*
X243685000Y-50829000D01*
G75*
G02*
X243510000Y-50654000I0J175000D01*
G01*
X243510000Y-48354000D01*
G75*
G02*
X243685000Y-48179000I175000J0D01*
G01*
G37*
G36*
G01*
X242415000Y-48179000D02*
X242765000Y-48179000D01*
G75*
G02*
X242940000Y-48354000I0J-175000D01*
G01*
X242940000Y-50654000D01*
G75*
G02*
X242765000Y-50829000I-175000J0D01*
G01*
X242415000Y-50829000D01*
G75*
G02*
X242240000Y-50654000I0J175000D01*
G01*
X242240000Y-48354000D01*
G75*
G02*
X242415000Y-48179000I175000J0D01*
G01*
G37*
G36*
G01*
X241145000Y-48179000D02*
X241495000Y-48179000D01*
G75*
G02*
X241670000Y-48354000I0J-175000D01*
G01*
X241670000Y-50654000D01*
G75*
G02*
X241495000Y-50829000I-175000J0D01*
G01*
X241145000Y-50829000D01*
G75*
G02*
X240970000Y-50654000I0J175000D01*
G01*
X240970000Y-48354000D01*
G75*
G02*
X241145000Y-48179000I175000J0D01*
G01*
G37*
G36*
G01*
X239875000Y-48179000D02*
X240225000Y-48179000D01*
G75*
G02*
X240400000Y-48354000I0J-175000D01*
G01*
X240400000Y-50654000D01*
G75*
G02*
X240225000Y-50829000I-175000J0D01*
G01*
X239875000Y-50829000D01*
G75*
G02*
X239700000Y-50654000I0J175000D01*
G01*
X239700000Y-48354000D01*
G75*
G02*
X239875000Y-48179000I175000J0D01*
G01*
G37*
G36*
G01*
X239875000Y-37979000D02*
X240225000Y-37979000D01*
G75*
G02*
X240400000Y-38154000I0J-175000D01*
G01*
X240400000Y-40454000D01*
G75*
G02*
X240225000Y-40629000I-175000J0D01*
G01*
X239875000Y-40629000D01*
G75*
G02*
X239700000Y-40454000I0J175000D01*
G01*
X239700000Y-38154000D01*
G75*
G02*
X239875000Y-37979000I175000J0D01*
G01*
G37*
G36*
G01*
X241145000Y-37979000D02*
X241495000Y-37979000D01*
G75*
G02*
X241670000Y-38154000I0J-175000D01*
G01*
X241670000Y-40454000D01*
G75*
G02*
X241495000Y-40629000I-175000J0D01*
G01*
X241145000Y-40629000D01*
G75*
G02*
X240970000Y-40454000I0J175000D01*
G01*
X240970000Y-38154000D01*
G75*
G02*
X241145000Y-37979000I175000J0D01*
G01*
G37*
G36*
G01*
X242415000Y-37979000D02*
X242765000Y-37979000D01*
G75*
G02*
X242940000Y-38154000I0J-175000D01*
G01*
X242940000Y-40454000D01*
G75*
G02*
X242765000Y-40629000I-175000J0D01*
G01*
X242415000Y-40629000D01*
G75*
G02*
X242240000Y-40454000I0J175000D01*
G01*
X242240000Y-38154000D01*
G75*
G02*
X242415000Y-37979000I175000J0D01*
G01*
G37*
G36*
G01*
X243685000Y-37979000D02*
X244035000Y-37979000D01*
G75*
G02*
X244210000Y-38154000I0J-175000D01*
G01*
X244210000Y-40454000D01*
G75*
G02*
X244035000Y-40629000I-175000J0D01*
G01*
X243685000Y-40629000D01*
G75*
G02*
X243510000Y-40454000I0J175000D01*
G01*
X243510000Y-38154000D01*
G75*
G02*
X243685000Y-37979000I175000J0D01*
G01*
G37*
G36*
G01*
X244955000Y-37979000D02*
X245305000Y-37979000D01*
G75*
G02*
X245480000Y-38154000I0J-175000D01*
G01*
X245480000Y-40454000D01*
G75*
G02*
X245305000Y-40629000I-175000J0D01*
G01*
X244955000Y-40629000D01*
G75*
G02*
X244780000Y-40454000I0J175000D01*
G01*
X244780000Y-38154000D01*
G75*
G02*
X244955000Y-37979000I175000J0D01*
G01*
G37*
G36*
G01*
X246225000Y-37979000D02*
X246575000Y-37979000D01*
G75*
G02*
X246750000Y-38154000I0J-175000D01*
G01*
X246750000Y-40454000D01*
G75*
G02*
X246575000Y-40629000I-175000J0D01*
G01*
X246225000Y-40629000D01*
G75*
G02*
X246050000Y-40454000I0J175000D01*
G01*
X246050000Y-38154000D01*
G75*
G02*
X246225000Y-37979000I175000J0D01*
G01*
G37*
G36*
G01*
X247495000Y-37979000D02*
X247845000Y-37979000D01*
G75*
G02*
X248020000Y-38154000I0J-175000D01*
G01*
X248020000Y-40454000D01*
G75*
G02*
X247845000Y-40629000I-175000J0D01*
G01*
X247495000Y-40629000D01*
G75*
G02*
X247320000Y-40454000I0J175000D01*
G01*
X247320000Y-38154000D01*
G75*
G02*
X247495000Y-37979000I175000J0D01*
G01*
G37*
G36*
G01*
X248765000Y-37979000D02*
X249115000Y-37979000D01*
G75*
G02*
X249290000Y-38154000I0J-175000D01*
G01*
X249290000Y-40454000D01*
G75*
G02*
X249115000Y-40629000I-175000J0D01*
G01*
X248765000Y-40629000D01*
G75*
G02*
X248590000Y-40454000I0J175000D01*
G01*
X248590000Y-38154000D01*
G75*
G02*
X248765000Y-37979000I175000J0D01*
G01*
G37*
G36*
G01*
X250035000Y-37979000D02*
X250385000Y-37979000D01*
G75*
G02*
X250560000Y-38154000I0J-175000D01*
G01*
X250560000Y-40454000D01*
G75*
G02*
X250385000Y-40629000I-175000J0D01*
G01*
X250035000Y-40629000D01*
G75*
G02*
X249860000Y-40454000I0J175000D01*
G01*
X249860000Y-38154000D01*
G75*
G02*
X250035000Y-37979000I175000J0D01*
G01*
G37*
G36*
G01*
X251305000Y-37979000D02*
X251655000Y-37979000D01*
G75*
G02*
X251830000Y-38154000I0J-175000D01*
G01*
X251830000Y-40454000D01*
G75*
G02*
X251655000Y-40629000I-175000J0D01*
G01*
X251305000Y-40629000D01*
G75*
G02*
X251130000Y-40454000I0J175000D01*
G01*
X251130000Y-38154000D01*
G75*
G02*
X251305000Y-37979000I175000J0D01*
G01*
G37*
G36*
G01*
X252575000Y-37979000D02*
X252925000Y-37979000D01*
G75*
G02*
X253100000Y-38154000I0J-175000D01*
G01*
X253100000Y-40454000D01*
G75*
G02*
X252925000Y-40629000I-175000J0D01*
G01*
X252575000Y-40629000D01*
G75*
G02*
X252400000Y-40454000I0J175000D01*
G01*
X252400000Y-38154000D01*
G75*
G02*
X252575000Y-37979000I175000J0D01*
G01*
G37*
G36*
G01*
X253845000Y-37979000D02*
X254195000Y-37979000D01*
G75*
G02*
X254370000Y-38154000I0J-175000D01*
G01*
X254370000Y-40454000D01*
G75*
G02*
X254195000Y-40629000I-175000J0D01*
G01*
X253845000Y-40629000D01*
G75*
G02*
X253670000Y-40454000I0J175000D01*
G01*
X253670000Y-38154000D01*
G75*
G02*
X253845000Y-37979000I175000J0D01*
G01*
G37*
G36*
G01*
X255115000Y-37979000D02*
X255465000Y-37979000D01*
G75*
G02*
X255640000Y-38154000I0J-175000D01*
G01*
X255640000Y-40454000D01*
G75*
G02*
X255465000Y-40629000I-175000J0D01*
G01*
X255115000Y-40629000D01*
G75*
G02*
X254940000Y-40454000I0J175000D01*
G01*
X254940000Y-38154000D01*
G75*
G02*
X255115000Y-37979000I175000J0D01*
G01*
G37*
G36*
G01*
X256385000Y-37979000D02*
X256735000Y-37979000D01*
G75*
G02*
X256910000Y-38154000I0J-175000D01*
G01*
X256910000Y-40454000D01*
G75*
G02*
X256735000Y-40629000I-175000J0D01*
G01*
X256385000Y-40629000D01*
G75*
G02*
X256210000Y-40454000I0J175000D01*
G01*
X256210000Y-38154000D01*
G75*
G02*
X256385000Y-37979000I175000J0D01*
G01*
G37*
G36*
G01*
X257655000Y-37979000D02*
X258005000Y-37979000D01*
G75*
G02*
X258180000Y-38154000I0J-175000D01*
G01*
X258180000Y-40454000D01*
G75*
G02*
X258005000Y-40629000I-175000J0D01*
G01*
X257655000Y-40629000D01*
G75*
G02*
X257480000Y-40454000I0J175000D01*
G01*
X257480000Y-38154000D01*
G75*
G02*
X257655000Y-37979000I175000J0D01*
G01*
G37*
G36*
G01*
X258925000Y-37979000D02*
X259275000Y-37979000D01*
G75*
G02*
X259450000Y-38154000I0J-175000D01*
G01*
X259450000Y-40454000D01*
G75*
G02*
X259275000Y-40629000I-175000J0D01*
G01*
X258925000Y-40629000D01*
G75*
G02*
X258750000Y-40454000I0J175000D01*
G01*
X258750000Y-38154000D01*
G75*
G02*
X258925000Y-37979000I175000J0D01*
G01*
G37*
G36*
G01*
X260195000Y-37979000D02*
X260545000Y-37979000D01*
G75*
G02*
X260720000Y-38154000I0J-175000D01*
G01*
X260720000Y-40454000D01*
G75*
G02*
X260545000Y-40629000I-175000J0D01*
G01*
X260195000Y-40629000D01*
G75*
G02*
X260020000Y-40454000I0J175000D01*
G01*
X260020000Y-38154000D01*
G75*
G02*
X260195000Y-37979000I175000J0D01*
G01*
G37*
G36*
G01*
X261465000Y-37979000D02*
X261815000Y-37979000D01*
G75*
G02*
X261990000Y-38154000I0J-175000D01*
G01*
X261990000Y-40454000D01*
G75*
G02*
X261815000Y-40629000I-175000J0D01*
G01*
X261465000Y-40629000D01*
G75*
G02*
X261290000Y-40454000I0J175000D01*
G01*
X261290000Y-38154000D01*
G75*
G02*
X261465000Y-37979000I175000J0D01*
G01*
G37*
%TD*%
%TO.C,U25*%
G36*
G01*
X109017000Y-15482000D02*
X109017000Y-15232000D01*
G75*
G02*
X109142000Y-15107000I125000J0D01*
G01*
X110467000Y-15107000D01*
G75*
G02*
X110592000Y-15232000I0J-125000D01*
G01*
X110592000Y-15482000D01*
G75*
G02*
X110467000Y-15607000I-125000J0D01*
G01*
X109142000Y-15607000D01*
G75*
G02*
X109017000Y-15482000I0J125000D01*
G01*
G37*
G36*
G01*
X109017000Y-16132000D02*
X109017000Y-15882000D01*
G75*
G02*
X109142000Y-15757000I125000J0D01*
G01*
X110467000Y-15757000D01*
G75*
G02*
X110592000Y-15882000I0J-125000D01*
G01*
X110592000Y-16132000D01*
G75*
G02*
X110467000Y-16257000I-125000J0D01*
G01*
X109142000Y-16257000D01*
G75*
G02*
X109017000Y-16132000I0J125000D01*
G01*
G37*
G36*
G01*
X109017000Y-16782000D02*
X109017000Y-16532000D01*
G75*
G02*
X109142000Y-16407000I125000J0D01*
G01*
X110467000Y-16407000D01*
G75*
G02*
X110592000Y-16532000I0J-125000D01*
G01*
X110592000Y-16782000D01*
G75*
G02*
X110467000Y-16907000I-125000J0D01*
G01*
X109142000Y-16907000D01*
G75*
G02*
X109017000Y-16782000I0J125000D01*
G01*
G37*
G36*
G01*
X109017000Y-17432000D02*
X109017000Y-17182000D01*
G75*
G02*
X109142000Y-17057000I125000J0D01*
G01*
X110467000Y-17057000D01*
G75*
G02*
X110592000Y-17182000I0J-125000D01*
G01*
X110592000Y-17432000D01*
G75*
G02*
X110467000Y-17557000I-125000J0D01*
G01*
X109142000Y-17557000D01*
G75*
G02*
X109017000Y-17432000I0J125000D01*
G01*
G37*
G36*
G01*
X109017000Y-18082000D02*
X109017000Y-17832000D01*
G75*
G02*
X109142000Y-17707000I125000J0D01*
G01*
X110467000Y-17707000D01*
G75*
G02*
X110592000Y-17832000I0J-125000D01*
G01*
X110592000Y-18082000D01*
G75*
G02*
X110467000Y-18207000I-125000J0D01*
G01*
X109142000Y-18207000D01*
G75*
G02*
X109017000Y-18082000I0J125000D01*
G01*
G37*
G36*
G01*
X109017000Y-18732000D02*
X109017000Y-18482000D01*
G75*
G02*
X109142000Y-18357000I125000J0D01*
G01*
X110467000Y-18357000D01*
G75*
G02*
X110592000Y-18482000I0J-125000D01*
G01*
X110592000Y-18732000D01*
G75*
G02*
X110467000Y-18857000I-125000J0D01*
G01*
X109142000Y-18857000D01*
G75*
G02*
X109017000Y-18732000I0J125000D01*
G01*
G37*
G36*
G01*
X109017000Y-19382000D02*
X109017000Y-19132000D01*
G75*
G02*
X109142000Y-19007000I125000J0D01*
G01*
X110467000Y-19007000D01*
G75*
G02*
X110592000Y-19132000I0J-125000D01*
G01*
X110592000Y-19382000D01*
G75*
G02*
X110467000Y-19507000I-125000J0D01*
G01*
X109142000Y-19507000D01*
G75*
G02*
X109017000Y-19382000I0J125000D01*
G01*
G37*
G36*
G01*
X109017000Y-20032000D02*
X109017000Y-19782000D01*
G75*
G02*
X109142000Y-19657000I125000J0D01*
G01*
X110467000Y-19657000D01*
G75*
G02*
X110592000Y-19782000I0J-125000D01*
G01*
X110592000Y-20032000D01*
G75*
G02*
X110467000Y-20157000I-125000J0D01*
G01*
X109142000Y-20157000D01*
G75*
G02*
X109017000Y-20032000I0J125000D01*
G01*
G37*
G36*
G01*
X109017000Y-20682000D02*
X109017000Y-20432000D01*
G75*
G02*
X109142000Y-20307000I125000J0D01*
G01*
X110467000Y-20307000D01*
G75*
G02*
X110592000Y-20432000I0J-125000D01*
G01*
X110592000Y-20682000D01*
G75*
G02*
X110467000Y-20807000I-125000J0D01*
G01*
X109142000Y-20807000D01*
G75*
G02*
X109017000Y-20682000I0J125000D01*
G01*
G37*
G36*
G01*
X109017000Y-21332000D02*
X109017000Y-21082000D01*
G75*
G02*
X109142000Y-20957000I125000J0D01*
G01*
X110467000Y-20957000D01*
G75*
G02*
X110592000Y-21082000I0J-125000D01*
G01*
X110592000Y-21332000D01*
G75*
G02*
X110467000Y-21457000I-125000J0D01*
G01*
X109142000Y-21457000D01*
G75*
G02*
X109017000Y-21332000I0J125000D01*
G01*
G37*
G36*
G01*
X103292000Y-21332000D02*
X103292000Y-21082000D01*
G75*
G02*
X103417000Y-20957000I125000J0D01*
G01*
X104742000Y-20957000D01*
G75*
G02*
X104867000Y-21082000I0J-125000D01*
G01*
X104867000Y-21332000D01*
G75*
G02*
X104742000Y-21457000I-125000J0D01*
G01*
X103417000Y-21457000D01*
G75*
G02*
X103292000Y-21332000I0J125000D01*
G01*
G37*
G36*
G01*
X103292000Y-20682000D02*
X103292000Y-20432000D01*
G75*
G02*
X103417000Y-20307000I125000J0D01*
G01*
X104742000Y-20307000D01*
G75*
G02*
X104867000Y-20432000I0J-125000D01*
G01*
X104867000Y-20682000D01*
G75*
G02*
X104742000Y-20807000I-125000J0D01*
G01*
X103417000Y-20807000D01*
G75*
G02*
X103292000Y-20682000I0J125000D01*
G01*
G37*
G36*
G01*
X103292000Y-20032000D02*
X103292000Y-19782000D01*
G75*
G02*
X103417000Y-19657000I125000J0D01*
G01*
X104742000Y-19657000D01*
G75*
G02*
X104867000Y-19782000I0J-125000D01*
G01*
X104867000Y-20032000D01*
G75*
G02*
X104742000Y-20157000I-125000J0D01*
G01*
X103417000Y-20157000D01*
G75*
G02*
X103292000Y-20032000I0J125000D01*
G01*
G37*
G36*
G01*
X103292000Y-19382000D02*
X103292000Y-19132000D01*
G75*
G02*
X103417000Y-19007000I125000J0D01*
G01*
X104742000Y-19007000D01*
G75*
G02*
X104867000Y-19132000I0J-125000D01*
G01*
X104867000Y-19382000D01*
G75*
G02*
X104742000Y-19507000I-125000J0D01*
G01*
X103417000Y-19507000D01*
G75*
G02*
X103292000Y-19382000I0J125000D01*
G01*
G37*
G36*
G01*
X103292000Y-18732000D02*
X103292000Y-18482000D01*
G75*
G02*
X103417000Y-18357000I125000J0D01*
G01*
X104742000Y-18357000D01*
G75*
G02*
X104867000Y-18482000I0J-125000D01*
G01*
X104867000Y-18732000D01*
G75*
G02*
X104742000Y-18857000I-125000J0D01*
G01*
X103417000Y-18857000D01*
G75*
G02*
X103292000Y-18732000I0J125000D01*
G01*
G37*
G36*
G01*
X103292000Y-18082000D02*
X103292000Y-17832000D01*
G75*
G02*
X103417000Y-17707000I125000J0D01*
G01*
X104742000Y-17707000D01*
G75*
G02*
X104867000Y-17832000I0J-125000D01*
G01*
X104867000Y-18082000D01*
G75*
G02*
X104742000Y-18207000I-125000J0D01*
G01*
X103417000Y-18207000D01*
G75*
G02*
X103292000Y-18082000I0J125000D01*
G01*
G37*
G36*
G01*
X103292000Y-17432000D02*
X103292000Y-17182000D01*
G75*
G02*
X103417000Y-17057000I125000J0D01*
G01*
X104742000Y-17057000D01*
G75*
G02*
X104867000Y-17182000I0J-125000D01*
G01*
X104867000Y-17432000D01*
G75*
G02*
X104742000Y-17557000I-125000J0D01*
G01*
X103417000Y-17557000D01*
G75*
G02*
X103292000Y-17432000I0J125000D01*
G01*
G37*
G36*
G01*
X103292000Y-16782000D02*
X103292000Y-16532000D01*
G75*
G02*
X103417000Y-16407000I125000J0D01*
G01*
X104742000Y-16407000D01*
G75*
G02*
X104867000Y-16532000I0J-125000D01*
G01*
X104867000Y-16782000D01*
G75*
G02*
X104742000Y-16907000I-125000J0D01*
G01*
X103417000Y-16907000D01*
G75*
G02*
X103292000Y-16782000I0J125000D01*
G01*
G37*
G36*
G01*
X103292000Y-16132000D02*
X103292000Y-15882000D01*
G75*
G02*
X103417000Y-15757000I125000J0D01*
G01*
X104742000Y-15757000D01*
G75*
G02*
X104867000Y-15882000I0J-125000D01*
G01*
X104867000Y-16132000D01*
G75*
G02*
X104742000Y-16257000I-125000J0D01*
G01*
X103417000Y-16257000D01*
G75*
G02*
X103292000Y-16132000I0J125000D01*
G01*
G37*
G36*
G01*
X103292000Y-15482000D02*
X103292000Y-15232000D01*
G75*
G02*
X103417000Y-15107000I125000J0D01*
G01*
X104742000Y-15107000D01*
G75*
G02*
X104867000Y-15232000I0J-125000D01*
G01*
X104867000Y-15482000D01*
G75*
G02*
X104742000Y-15607000I-125000J0D01*
G01*
X103417000Y-15607000D01*
G75*
G02*
X103292000Y-15482000I0J125000D01*
G01*
G37*
%TD*%
D11*
%TO.C,U24*%
X123698000Y-133941000D03*
X122428000Y-133941000D03*
X121158000Y-133941000D03*
X119888000Y-133941000D03*
X118618000Y-133941000D03*
X117348000Y-133941000D03*
X116078000Y-133941000D03*
X114808000Y-133941000D03*
X113538000Y-133941000D03*
X112268000Y-133941000D03*
X112268000Y-124631000D03*
X113538000Y-124631000D03*
X114808000Y-124631000D03*
X116078000Y-124631000D03*
X117348000Y-124631000D03*
X118618000Y-124631000D03*
X119888000Y-124631000D03*
X121158000Y-124631000D03*
X122428000Y-124631000D03*
X123698000Y-124631000D03*
%TD*%
%TO.C,U23*%
X225171000Y-151721000D03*
X223901000Y-151721000D03*
X222631000Y-151721000D03*
X221361000Y-151721000D03*
X220091000Y-151721000D03*
X218821000Y-151721000D03*
X217551000Y-151721000D03*
X216281000Y-151721000D03*
X215011000Y-151721000D03*
X213741000Y-151721000D03*
X213741000Y-142411000D03*
X215011000Y-142411000D03*
X216281000Y-142411000D03*
X217551000Y-142411000D03*
X218821000Y-142411000D03*
X220091000Y-142411000D03*
X221361000Y-142411000D03*
X222631000Y-142411000D03*
X223901000Y-142411000D03*
X225171000Y-142411000D03*
%TD*%
%TO.C,U22*%
G36*
G01*
X198842000Y-126130000D02*
X198842000Y-125830000D01*
G75*
G02*
X198992000Y-125680000I150000J0D01*
G01*
X200692000Y-125680000D01*
G75*
G02*
X200842000Y-125830000I0J-150000D01*
G01*
X200842000Y-126130000D01*
G75*
G02*
X200692000Y-126280000I-150000J0D01*
G01*
X198992000Y-126280000D01*
G75*
G02*
X198842000Y-126130000I0J150000D01*
G01*
G37*
G36*
G01*
X198842000Y-126780000D02*
X198842000Y-126480000D01*
G75*
G02*
X198992000Y-126330000I150000J0D01*
G01*
X200692000Y-126330000D01*
G75*
G02*
X200842000Y-126480000I0J-150000D01*
G01*
X200842000Y-126780000D01*
G75*
G02*
X200692000Y-126930000I-150000J0D01*
G01*
X198992000Y-126930000D01*
G75*
G02*
X198842000Y-126780000I0J150000D01*
G01*
G37*
G36*
G01*
X198842000Y-127430000D02*
X198842000Y-127130000D01*
G75*
G02*
X198992000Y-126980000I150000J0D01*
G01*
X200692000Y-126980000D01*
G75*
G02*
X200842000Y-127130000I0J-150000D01*
G01*
X200842000Y-127430000D01*
G75*
G02*
X200692000Y-127580000I-150000J0D01*
G01*
X198992000Y-127580000D01*
G75*
G02*
X198842000Y-127430000I0J150000D01*
G01*
G37*
G36*
G01*
X198842000Y-128080000D02*
X198842000Y-127780000D01*
G75*
G02*
X198992000Y-127630000I150000J0D01*
G01*
X200692000Y-127630000D01*
G75*
G02*
X200842000Y-127780000I0J-150000D01*
G01*
X200842000Y-128080000D01*
G75*
G02*
X200692000Y-128230000I-150000J0D01*
G01*
X198992000Y-128230000D01*
G75*
G02*
X198842000Y-128080000I0J150000D01*
G01*
G37*
G36*
G01*
X198842000Y-128730000D02*
X198842000Y-128430000D01*
G75*
G02*
X198992000Y-128280000I150000J0D01*
G01*
X200692000Y-128280000D01*
G75*
G02*
X200842000Y-128430000I0J-150000D01*
G01*
X200842000Y-128730000D01*
G75*
G02*
X200692000Y-128880000I-150000J0D01*
G01*
X198992000Y-128880000D01*
G75*
G02*
X198842000Y-128730000I0J150000D01*
G01*
G37*
G36*
G01*
X198842000Y-129380000D02*
X198842000Y-129080000D01*
G75*
G02*
X198992000Y-128930000I150000J0D01*
G01*
X200692000Y-128930000D01*
G75*
G02*
X200842000Y-129080000I0J-150000D01*
G01*
X200842000Y-129380000D01*
G75*
G02*
X200692000Y-129530000I-150000J0D01*
G01*
X198992000Y-129530000D01*
G75*
G02*
X198842000Y-129380000I0J150000D01*
G01*
G37*
G36*
G01*
X198842000Y-130030000D02*
X198842000Y-129730000D01*
G75*
G02*
X198992000Y-129580000I150000J0D01*
G01*
X200692000Y-129580000D01*
G75*
G02*
X200842000Y-129730000I0J-150000D01*
G01*
X200842000Y-130030000D01*
G75*
G02*
X200692000Y-130180000I-150000J0D01*
G01*
X198992000Y-130180000D01*
G75*
G02*
X198842000Y-130030000I0J150000D01*
G01*
G37*
G36*
G01*
X198842000Y-130680000D02*
X198842000Y-130380000D01*
G75*
G02*
X198992000Y-130230000I150000J0D01*
G01*
X200692000Y-130230000D01*
G75*
G02*
X200842000Y-130380000I0J-150000D01*
G01*
X200842000Y-130680000D01*
G75*
G02*
X200692000Y-130830000I-150000J0D01*
G01*
X198992000Y-130830000D01*
G75*
G02*
X198842000Y-130680000I0J150000D01*
G01*
G37*
G36*
G01*
X198842000Y-131330000D02*
X198842000Y-131030000D01*
G75*
G02*
X198992000Y-130880000I150000J0D01*
G01*
X200692000Y-130880000D01*
G75*
G02*
X200842000Y-131030000I0J-150000D01*
G01*
X200842000Y-131330000D01*
G75*
G02*
X200692000Y-131480000I-150000J0D01*
G01*
X198992000Y-131480000D01*
G75*
G02*
X198842000Y-131330000I0J150000D01*
G01*
G37*
G36*
G01*
X198842000Y-131980000D02*
X198842000Y-131680000D01*
G75*
G02*
X198992000Y-131530000I150000J0D01*
G01*
X200692000Y-131530000D01*
G75*
G02*
X200842000Y-131680000I0J-150000D01*
G01*
X200842000Y-131980000D01*
G75*
G02*
X200692000Y-132130000I-150000J0D01*
G01*
X198992000Y-132130000D01*
G75*
G02*
X198842000Y-131980000I0J150000D01*
G01*
G37*
G36*
G01*
X191842000Y-131980000D02*
X191842000Y-131680000D01*
G75*
G02*
X191992000Y-131530000I150000J0D01*
G01*
X193692000Y-131530000D01*
G75*
G02*
X193842000Y-131680000I0J-150000D01*
G01*
X193842000Y-131980000D01*
G75*
G02*
X193692000Y-132130000I-150000J0D01*
G01*
X191992000Y-132130000D01*
G75*
G02*
X191842000Y-131980000I0J150000D01*
G01*
G37*
G36*
G01*
X191842000Y-131330000D02*
X191842000Y-131030000D01*
G75*
G02*
X191992000Y-130880000I150000J0D01*
G01*
X193692000Y-130880000D01*
G75*
G02*
X193842000Y-131030000I0J-150000D01*
G01*
X193842000Y-131330000D01*
G75*
G02*
X193692000Y-131480000I-150000J0D01*
G01*
X191992000Y-131480000D01*
G75*
G02*
X191842000Y-131330000I0J150000D01*
G01*
G37*
G36*
G01*
X191842000Y-130680000D02*
X191842000Y-130380000D01*
G75*
G02*
X191992000Y-130230000I150000J0D01*
G01*
X193692000Y-130230000D01*
G75*
G02*
X193842000Y-130380000I0J-150000D01*
G01*
X193842000Y-130680000D01*
G75*
G02*
X193692000Y-130830000I-150000J0D01*
G01*
X191992000Y-130830000D01*
G75*
G02*
X191842000Y-130680000I0J150000D01*
G01*
G37*
G36*
G01*
X191842000Y-130030000D02*
X191842000Y-129730000D01*
G75*
G02*
X191992000Y-129580000I150000J0D01*
G01*
X193692000Y-129580000D01*
G75*
G02*
X193842000Y-129730000I0J-150000D01*
G01*
X193842000Y-130030000D01*
G75*
G02*
X193692000Y-130180000I-150000J0D01*
G01*
X191992000Y-130180000D01*
G75*
G02*
X191842000Y-130030000I0J150000D01*
G01*
G37*
G36*
G01*
X191842000Y-129380000D02*
X191842000Y-129080000D01*
G75*
G02*
X191992000Y-128930000I150000J0D01*
G01*
X193692000Y-128930000D01*
G75*
G02*
X193842000Y-129080000I0J-150000D01*
G01*
X193842000Y-129380000D01*
G75*
G02*
X193692000Y-129530000I-150000J0D01*
G01*
X191992000Y-129530000D01*
G75*
G02*
X191842000Y-129380000I0J150000D01*
G01*
G37*
G36*
G01*
X191842000Y-128730000D02*
X191842000Y-128430000D01*
G75*
G02*
X191992000Y-128280000I150000J0D01*
G01*
X193692000Y-128280000D01*
G75*
G02*
X193842000Y-128430000I0J-150000D01*
G01*
X193842000Y-128730000D01*
G75*
G02*
X193692000Y-128880000I-150000J0D01*
G01*
X191992000Y-128880000D01*
G75*
G02*
X191842000Y-128730000I0J150000D01*
G01*
G37*
G36*
G01*
X191842000Y-128080000D02*
X191842000Y-127780000D01*
G75*
G02*
X191992000Y-127630000I150000J0D01*
G01*
X193692000Y-127630000D01*
G75*
G02*
X193842000Y-127780000I0J-150000D01*
G01*
X193842000Y-128080000D01*
G75*
G02*
X193692000Y-128230000I-150000J0D01*
G01*
X191992000Y-128230000D01*
G75*
G02*
X191842000Y-128080000I0J150000D01*
G01*
G37*
G36*
G01*
X191842000Y-127430000D02*
X191842000Y-127130000D01*
G75*
G02*
X191992000Y-126980000I150000J0D01*
G01*
X193692000Y-126980000D01*
G75*
G02*
X193842000Y-127130000I0J-150000D01*
G01*
X193842000Y-127430000D01*
G75*
G02*
X193692000Y-127580000I-150000J0D01*
G01*
X191992000Y-127580000D01*
G75*
G02*
X191842000Y-127430000I0J150000D01*
G01*
G37*
G36*
G01*
X191842000Y-126780000D02*
X191842000Y-126480000D01*
G75*
G02*
X191992000Y-126330000I150000J0D01*
G01*
X193692000Y-126330000D01*
G75*
G02*
X193842000Y-126480000I0J-150000D01*
G01*
X193842000Y-126780000D01*
G75*
G02*
X193692000Y-126930000I-150000J0D01*
G01*
X191992000Y-126930000D01*
G75*
G02*
X191842000Y-126780000I0J150000D01*
G01*
G37*
G36*
G01*
X191842000Y-126130000D02*
X191842000Y-125830000D01*
G75*
G02*
X191992000Y-125680000I150000J0D01*
G01*
X193692000Y-125680000D01*
G75*
G02*
X193842000Y-125830000I0J-150000D01*
G01*
X193842000Y-126130000D01*
G75*
G02*
X193692000Y-126280000I-150000J0D01*
G01*
X191992000Y-126280000D01*
G75*
G02*
X191842000Y-126130000I0J150000D01*
G01*
G37*
%TD*%
%TO.C,U20*%
G36*
G01*
X182713000Y-126003000D02*
X182713000Y-125703000D01*
G75*
G02*
X182863000Y-125553000I150000J0D01*
G01*
X184563000Y-125553000D01*
G75*
G02*
X184713000Y-125703000I0J-150000D01*
G01*
X184713000Y-126003000D01*
G75*
G02*
X184563000Y-126153000I-150000J0D01*
G01*
X182863000Y-126153000D01*
G75*
G02*
X182713000Y-126003000I0J150000D01*
G01*
G37*
G36*
G01*
X182713000Y-126653000D02*
X182713000Y-126353000D01*
G75*
G02*
X182863000Y-126203000I150000J0D01*
G01*
X184563000Y-126203000D01*
G75*
G02*
X184713000Y-126353000I0J-150000D01*
G01*
X184713000Y-126653000D01*
G75*
G02*
X184563000Y-126803000I-150000J0D01*
G01*
X182863000Y-126803000D01*
G75*
G02*
X182713000Y-126653000I0J150000D01*
G01*
G37*
G36*
G01*
X182713000Y-127303000D02*
X182713000Y-127003000D01*
G75*
G02*
X182863000Y-126853000I150000J0D01*
G01*
X184563000Y-126853000D01*
G75*
G02*
X184713000Y-127003000I0J-150000D01*
G01*
X184713000Y-127303000D01*
G75*
G02*
X184563000Y-127453000I-150000J0D01*
G01*
X182863000Y-127453000D01*
G75*
G02*
X182713000Y-127303000I0J150000D01*
G01*
G37*
G36*
G01*
X182713000Y-127953000D02*
X182713000Y-127653000D01*
G75*
G02*
X182863000Y-127503000I150000J0D01*
G01*
X184563000Y-127503000D01*
G75*
G02*
X184713000Y-127653000I0J-150000D01*
G01*
X184713000Y-127953000D01*
G75*
G02*
X184563000Y-128103000I-150000J0D01*
G01*
X182863000Y-128103000D01*
G75*
G02*
X182713000Y-127953000I0J150000D01*
G01*
G37*
G36*
G01*
X182713000Y-128603000D02*
X182713000Y-128303000D01*
G75*
G02*
X182863000Y-128153000I150000J0D01*
G01*
X184563000Y-128153000D01*
G75*
G02*
X184713000Y-128303000I0J-150000D01*
G01*
X184713000Y-128603000D01*
G75*
G02*
X184563000Y-128753000I-150000J0D01*
G01*
X182863000Y-128753000D01*
G75*
G02*
X182713000Y-128603000I0J150000D01*
G01*
G37*
G36*
G01*
X182713000Y-129253000D02*
X182713000Y-128953000D01*
G75*
G02*
X182863000Y-128803000I150000J0D01*
G01*
X184563000Y-128803000D01*
G75*
G02*
X184713000Y-128953000I0J-150000D01*
G01*
X184713000Y-129253000D01*
G75*
G02*
X184563000Y-129403000I-150000J0D01*
G01*
X182863000Y-129403000D01*
G75*
G02*
X182713000Y-129253000I0J150000D01*
G01*
G37*
G36*
G01*
X182713000Y-129903000D02*
X182713000Y-129603000D01*
G75*
G02*
X182863000Y-129453000I150000J0D01*
G01*
X184563000Y-129453000D01*
G75*
G02*
X184713000Y-129603000I0J-150000D01*
G01*
X184713000Y-129903000D01*
G75*
G02*
X184563000Y-130053000I-150000J0D01*
G01*
X182863000Y-130053000D01*
G75*
G02*
X182713000Y-129903000I0J150000D01*
G01*
G37*
G36*
G01*
X182713000Y-130553000D02*
X182713000Y-130253000D01*
G75*
G02*
X182863000Y-130103000I150000J0D01*
G01*
X184563000Y-130103000D01*
G75*
G02*
X184713000Y-130253000I0J-150000D01*
G01*
X184713000Y-130553000D01*
G75*
G02*
X184563000Y-130703000I-150000J0D01*
G01*
X182863000Y-130703000D01*
G75*
G02*
X182713000Y-130553000I0J150000D01*
G01*
G37*
G36*
G01*
X182713000Y-131203000D02*
X182713000Y-130903000D01*
G75*
G02*
X182863000Y-130753000I150000J0D01*
G01*
X184563000Y-130753000D01*
G75*
G02*
X184713000Y-130903000I0J-150000D01*
G01*
X184713000Y-131203000D01*
G75*
G02*
X184563000Y-131353000I-150000J0D01*
G01*
X182863000Y-131353000D01*
G75*
G02*
X182713000Y-131203000I0J150000D01*
G01*
G37*
G36*
G01*
X182713000Y-131853000D02*
X182713000Y-131553000D01*
G75*
G02*
X182863000Y-131403000I150000J0D01*
G01*
X184563000Y-131403000D01*
G75*
G02*
X184713000Y-131553000I0J-150000D01*
G01*
X184713000Y-131853000D01*
G75*
G02*
X184563000Y-132003000I-150000J0D01*
G01*
X182863000Y-132003000D01*
G75*
G02*
X182713000Y-131853000I0J150000D01*
G01*
G37*
G36*
G01*
X175713000Y-131853000D02*
X175713000Y-131553000D01*
G75*
G02*
X175863000Y-131403000I150000J0D01*
G01*
X177563000Y-131403000D01*
G75*
G02*
X177713000Y-131553000I0J-150000D01*
G01*
X177713000Y-131853000D01*
G75*
G02*
X177563000Y-132003000I-150000J0D01*
G01*
X175863000Y-132003000D01*
G75*
G02*
X175713000Y-131853000I0J150000D01*
G01*
G37*
G36*
G01*
X175713000Y-131203000D02*
X175713000Y-130903000D01*
G75*
G02*
X175863000Y-130753000I150000J0D01*
G01*
X177563000Y-130753000D01*
G75*
G02*
X177713000Y-130903000I0J-150000D01*
G01*
X177713000Y-131203000D01*
G75*
G02*
X177563000Y-131353000I-150000J0D01*
G01*
X175863000Y-131353000D01*
G75*
G02*
X175713000Y-131203000I0J150000D01*
G01*
G37*
G36*
G01*
X175713000Y-130553000D02*
X175713000Y-130253000D01*
G75*
G02*
X175863000Y-130103000I150000J0D01*
G01*
X177563000Y-130103000D01*
G75*
G02*
X177713000Y-130253000I0J-150000D01*
G01*
X177713000Y-130553000D01*
G75*
G02*
X177563000Y-130703000I-150000J0D01*
G01*
X175863000Y-130703000D01*
G75*
G02*
X175713000Y-130553000I0J150000D01*
G01*
G37*
G36*
G01*
X175713000Y-129903000D02*
X175713000Y-129603000D01*
G75*
G02*
X175863000Y-129453000I150000J0D01*
G01*
X177563000Y-129453000D01*
G75*
G02*
X177713000Y-129603000I0J-150000D01*
G01*
X177713000Y-129903000D01*
G75*
G02*
X177563000Y-130053000I-150000J0D01*
G01*
X175863000Y-130053000D01*
G75*
G02*
X175713000Y-129903000I0J150000D01*
G01*
G37*
G36*
G01*
X175713000Y-129253000D02*
X175713000Y-128953000D01*
G75*
G02*
X175863000Y-128803000I150000J0D01*
G01*
X177563000Y-128803000D01*
G75*
G02*
X177713000Y-128953000I0J-150000D01*
G01*
X177713000Y-129253000D01*
G75*
G02*
X177563000Y-129403000I-150000J0D01*
G01*
X175863000Y-129403000D01*
G75*
G02*
X175713000Y-129253000I0J150000D01*
G01*
G37*
G36*
G01*
X175713000Y-128603000D02*
X175713000Y-128303000D01*
G75*
G02*
X175863000Y-128153000I150000J0D01*
G01*
X177563000Y-128153000D01*
G75*
G02*
X177713000Y-128303000I0J-150000D01*
G01*
X177713000Y-128603000D01*
G75*
G02*
X177563000Y-128753000I-150000J0D01*
G01*
X175863000Y-128753000D01*
G75*
G02*
X175713000Y-128603000I0J150000D01*
G01*
G37*
G36*
G01*
X175713000Y-127953000D02*
X175713000Y-127653000D01*
G75*
G02*
X175863000Y-127503000I150000J0D01*
G01*
X177563000Y-127503000D01*
G75*
G02*
X177713000Y-127653000I0J-150000D01*
G01*
X177713000Y-127953000D01*
G75*
G02*
X177563000Y-128103000I-150000J0D01*
G01*
X175863000Y-128103000D01*
G75*
G02*
X175713000Y-127953000I0J150000D01*
G01*
G37*
G36*
G01*
X175713000Y-127303000D02*
X175713000Y-127003000D01*
G75*
G02*
X175863000Y-126853000I150000J0D01*
G01*
X177563000Y-126853000D01*
G75*
G02*
X177713000Y-127003000I0J-150000D01*
G01*
X177713000Y-127303000D01*
G75*
G02*
X177563000Y-127453000I-150000J0D01*
G01*
X175863000Y-127453000D01*
G75*
G02*
X175713000Y-127303000I0J150000D01*
G01*
G37*
G36*
G01*
X175713000Y-126653000D02*
X175713000Y-126353000D01*
G75*
G02*
X175863000Y-126203000I150000J0D01*
G01*
X177563000Y-126203000D01*
G75*
G02*
X177713000Y-126353000I0J-150000D01*
G01*
X177713000Y-126653000D01*
G75*
G02*
X177563000Y-126803000I-150000J0D01*
G01*
X175863000Y-126803000D01*
G75*
G02*
X175713000Y-126653000I0J150000D01*
G01*
G37*
G36*
G01*
X175713000Y-126003000D02*
X175713000Y-125703000D01*
G75*
G02*
X175863000Y-125553000I150000J0D01*
G01*
X177563000Y-125553000D01*
G75*
G02*
X177713000Y-125703000I0J-150000D01*
G01*
X177713000Y-126003000D01*
G75*
G02*
X177563000Y-126153000I-150000J0D01*
G01*
X175863000Y-126153000D01*
G75*
G02*
X175713000Y-126003000I0J150000D01*
G01*
G37*
%TD*%
%TO.C,U15*%
G36*
G01*
X162647000Y-125876000D02*
X162647000Y-125576000D01*
G75*
G02*
X162797000Y-125426000I150000J0D01*
G01*
X164497000Y-125426000D01*
G75*
G02*
X164647000Y-125576000I0J-150000D01*
G01*
X164647000Y-125876000D01*
G75*
G02*
X164497000Y-126026000I-150000J0D01*
G01*
X162797000Y-126026000D01*
G75*
G02*
X162647000Y-125876000I0J150000D01*
G01*
G37*
G36*
G01*
X162647000Y-126526000D02*
X162647000Y-126226000D01*
G75*
G02*
X162797000Y-126076000I150000J0D01*
G01*
X164497000Y-126076000D01*
G75*
G02*
X164647000Y-126226000I0J-150000D01*
G01*
X164647000Y-126526000D01*
G75*
G02*
X164497000Y-126676000I-150000J0D01*
G01*
X162797000Y-126676000D01*
G75*
G02*
X162647000Y-126526000I0J150000D01*
G01*
G37*
G36*
G01*
X162647000Y-127176000D02*
X162647000Y-126876000D01*
G75*
G02*
X162797000Y-126726000I150000J0D01*
G01*
X164497000Y-126726000D01*
G75*
G02*
X164647000Y-126876000I0J-150000D01*
G01*
X164647000Y-127176000D01*
G75*
G02*
X164497000Y-127326000I-150000J0D01*
G01*
X162797000Y-127326000D01*
G75*
G02*
X162647000Y-127176000I0J150000D01*
G01*
G37*
G36*
G01*
X162647000Y-127826000D02*
X162647000Y-127526000D01*
G75*
G02*
X162797000Y-127376000I150000J0D01*
G01*
X164497000Y-127376000D01*
G75*
G02*
X164647000Y-127526000I0J-150000D01*
G01*
X164647000Y-127826000D01*
G75*
G02*
X164497000Y-127976000I-150000J0D01*
G01*
X162797000Y-127976000D01*
G75*
G02*
X162647000Y-127826000I0J150000D01*
G01*
G37*
G36*
G01*
X162647000Y-128476000D02*
X162647000Y-128176000D01*
G75*
G02*
X162797000Y-128026000I150000J0D01*
G01*
X164497000Y-128026000D01*
G75*
G02*
X164647000Y-128176000I0J-150000D01*
G01*
X164647000Y-128476000D01*
G75*
G02*
X164497000Y-128626000I-150000J0D01*
G01*
X162797000Y-128626000D01*
G75*
G02*
X162647000Y-128476000I0J150000D01*
G01*
G37*
G36*
G01*
X162647000Y-129126000D02*
X162647000Y-128826000D01*
G75*
G02*
X162797000Y-128676000I150000J0D01*
G01*
X164497000Y-128676000D01*
G75*
G02*
X164647000Y-128826000I0J-150000D01*
G01*
X164647000Y-129126000D01*
G75*
G02*
X164497000Y-129276000I-150000J0D01*
G01*
X162797000Y-129276000D01*
G75*
G02*
X162647000Y-129126000I0J150000D01*
G01*
G37*
G36*
G01*
X162647000Y-129776000D02*
X162647000Y-129476000D01*
G75*
G02*
X162797000Y-129326000I150000J0D01*
G01*
X164497000Y-129326000D01*
G75*
G02*
X164647000Y-129476000I0J-150000D01*
G01*
X164647000Y-129776000D01*
G75*
G02*
X164497000Y-129926000I-150000J0D01*
G01*
X162797000Y-129926000D01*
G75*
G02*
X162647000Y-129776000I0J150000D01*
G01*
G37*
G36*
G01*
X162647000Y-130426000D02*
X162647000Y-130126000D01*
G75*
G02*
X162797000Y-129976000I150000J0D01*
G01*
X164497000Y-129976000D01*
G75*
G02*
X164647000Y-130126000I0J-150000D01*
G01*
X164647000Y-130426000D01*
G75*
G02*
X164497000Y-130576000I-150000J0D01*
G01*
X162797000Y-130576000D01*
G75*
G02*
X162647000Y-130426000I0J150000D01*
G01*
G37*
G36*
G01*
X162647000Y-131076000D02*
X162647000Y-130776000D01*
G75*
G02*
X162797000Y-130626000I150000J0D01*
G01*
X164497000Y-130626000D01*
G75*
G02*
X164647000Y-130776000I0J-150000D01*
G01*
X164647000Y-131076000D01*
G75*
G02*
X164497000Y-131226000I-150000J0D01*
G01*
X162797000Y-131226000D01*
G75*
G02*
X162647000Y-131076000I0J150000D01*
G01*
G37*
G36*
G01*
X162647000Y-131726000D02*
X162647000Y-131426000D01*
G75*
G02*
X162797000Y-131276000I150000J0D01*
G01*
X164497000Y-131276000D01*
G75*
G02*
X164647000Y-131426000I0J-150000D01*
G01*
X164647000Y-131726000D01*
G75*
G02*
X164497000Y-131876000I-150000J0D01*
G01*
X162797000Y-131876000D01*
G75*
G02*
X162647000Y-131726000I0J150000D01*
G01*
G37*
G36*
G01*
X155647000Y-131726000D02*
X155647000Y-131426000D01*
G75*
G02*
X155797000Y-131276000I150000J0D01*
G01*
X157497000Y-131276000D01*
G75*
G02*
X157647000Y-131426000I0J-150000D01*
G01*
X157647000Y-131726000D01*
G75*
G02*
X157497000Y-131876000I-150000J0D01*
G01*
X155797000Y-131876000D01*
G75*
G02*
X155647000Y-131726000I0J150000D01*
G01*
G37*
G36*
G01*
X155647000Y-131076000D02*
X155647000Y-130776000D01*
G75*
G02*
X155797000Y-130626000I150000J0D01*
G01*
X157497000Y-130626000D01*
G75*
G02*
X157647000Y-130776000I0J-150000D01*
G01*
X157647000Y-131076000D01*
G75*
G02*
X157497000Y-131226000I-150000J0D01*
G01*
X155797000Y-131226000D01*
G75*
G02*
X155647000Y-131076000I0J150000D01*
G01*
G37*
G36*
G01*
X155647000Y-130426000D02*
X155647000Y-130126000D01*
G75*
G02*
X155797000Y-129976000I150000J0D01*
G01*
X157497000Y-129976000D01*
G75*
G02*
X157647000Y-130126000I0J-150000D01*
G01*
X157647000Y-130426000D01*
G75*
G02*
X157497000Y-130576000I-150000J0D01*
G01*
X155797000Y-130576000D01*
G75*
G02*
X155647000Y-130426000I0J150000D01*
G01*
G37*
G36*
G01*
X155647000Y-129776000D02*
X155647000Y-129476000D01*
G75*
G02*
X155797000Y-129326000I150000J0D01*
G01*
X157497000Y-129326000D01*
G75*
G02*
X157647000Y-129476000I0J-150000D01*
G01*
X157647000Y-129776000D01*
G75*
G02*
X157497000Y-129926000I-150000J0D01*
G01*
X155797000Y-129926000D01*
G75*
G02*
X155647000Y-129776000I0J150000D01*
G01*
G37*
G36*
G01*
X155647000Y-129126000D02*
X155647000Y-128826000D01*
G75*
G02*
X155797000Y-128676000I150000J0D01*
G01*
X157497000Y-128676000D01*
G75*
G02*
X157647000Y-128826000I0J-150000D01*
G01*
X157647000Y-129126000D01*
G75*
G02*
X157497000Y-129276000I-150000J0D01*
G01*
X155797000Y-129276000D01*
G75*
G02*
X155647000Y-129126000I0J150000D01*
G01*
G37*
G36*
G01*
X155647000Y-128476000D02*
X155647000Y-128176000D01*
G75*
G02*
X155797000Y-128026000I150000J0D01*
G01*
X157497000Y-128026000D01*
G75*
G02*
X157647000Y-128176000I0J-150000D01*
G01*
X157647000Y-128476000D01*
G75*
G02*
X157497000Y-128626000I-150000J0D01*
G01*
X155797000Y-128626000D01*
G75*
G02*
X155647000Y-128476000I0J150000D01*
G01*
G37*
G36*
G01*
X155647000Y-127826000D02*
X155647000Y-127526000D01*
G75*
G02*
X155797000Y-127376000I150000J0D01*
G01*
X157497000Y-127376000D01*
G75*
G02*
X157647000Y-127526000I0J-150000D01*
G01*
X157647000Y-127826000D01*
G75*
G02*
X157497000Y-127976000I-150000J0D01*
G01*
X155797000Y-127976000D01*
G75*
G02*
X155647000Y-127826000I0J150000D01*
G01*
G37*
G36*
G01*
X155647000Y-127176000D02*
X155647000Y-126876000D01*
G75*
G02*
X155797000Y-126726000I150000J0D01*
G01*
X157497000Y-126726000D01*
G75*
G02*
X157647000Y-126876000I0J-150000D01*
G01*
X157647000Y-127176000D01*
G75*
G02*
X157497000Y-127326000I-150000J0D01*
G01*
X155797000Y-127326000D01*
G75*
G02*
X155647000Y-127176000I0J150000D01*
G01*
G37*
G36*
G01*
X155647000Y-126526000D02*
X155647000Y-126226000D01*
G75*
G02*
X155797000Y-126076000I150000J0D01*
G01*
X157497000Y-126076000D01*
G75*
G02*
X157647000Y-126226000I0J-150000D01*
G01*
X157647000Y-126526000D01*
G75*
G02*
X157497000Y-126676000I-150000J0D01*
G01*
X155797000Y-126676000D01*
G75*
G02*
X155647000Y-126526000I0J150000D01*
G01*
G37*
G36*
G01*
X155647000Y-125876000D02*
X155647000Y-125576000D01*
G75*
G02*
X155797000Y-125426000I150000J0D01*
G01*
X157497000Y-125426000D01*
G75*
G02*
X157647000Y-125576000I0J-150000D01*
G01*
X157647000Y-125876000D01*
G75*
G02*
X157497000Y-126026000I-150000J0D01*
G01*
X155797000Y-126026000D01*
G75*
G02*
X155647000Y-125876000I0J150000D01*
G01*
G37*
%TD*%
D12*
%TO.C,JP1*%
X96647000Y-101219000D03*
X96647000Y-103759000D03*
%TD*%
D13*
%TO.C,J3*%
X90805000Y-67945000D03*
X93345000Y-67945000D03*
X90805000Y-65405000D03*
X93345000Y-65405000D03*
X90805000Y-62865000D03*
X93345000Y-62865000D03*
X90805000Y-60325000D03*
X93345000Y-60325000D03*
X90805000Y-57785000D03*
X93345000Y-57785000D03*
X90805000Y-55245000D03*
X93345000Y-55245000D03*
X90805000Y-52705000D03*
X93345000Y-52705000D03*
X90805000Y-50165000D03*
X93345000Y-50165000D03*
X90805000Y-47625000D03*
X93345000Y-47625000D03*
X90805000Y-45085000D03*
X93345000Y-45085000D03*
X90805000Y-42545000D03*
X93345000Y-42545000D03*
X90805000Y-40005000D03*
X93345000Y-40005000D03*
X90805000Y-37465000D03*
X93345000Y-37465000D03*
X90805000Y-34925000D03*
X93345000Y-34925000D03*
X90805000Y-32385000D03*
X93345000Y-32385000D03*
X90805000Y-29845000D03*
X93345000Y-29845000D03*
X90805000Y-27305000D03*
X93345000Y-27305000D03*
X90805000Y-24765000D03*
X93345000Y-24765000D03*
X90805000Y-22225000D03*
X93345000Y-22225000D03*
X90805000Y-19685000D03*
D14*
X93345000Y-19685000D03*
%TD*%
%TO.C,C32*%
G36*
G01*
X139084000Y-124049262D02*
X139084000Y-123092738D01*
G75*
G02*
X139355738Y-122821000I271738J0D01*
G01*
X140062262Y-122821000D01*
G75*
G02*
X140334000Y-123092738I0J-271738D01*
G01*
X140334000Y-124049262D01*
G75*
G02*
X140062262Y-124321000I-271738J0D01*
G01*
X139355738Y-124321000D01*
G75*
G02*
X139084000Y-124049262I0J271738D01*
G01*
G37*
G36*
G01*
X137034000Y-124049262D02*
X137034000Y-123092738D01*
G75*
G02*
X137305738Y-122821000I271738J0D01*
G01*
X138012262Y-122821000D01*
G75*
G02*
X138284000Y-123092738I0J-271738D01*
G01*
X138284000Y-124049262D01*
G75*
G02*
X138012262Y-124321000I-271738J0D01*
G01*
X137305738Y-124321000D01*
G75*
G02*
X137034000Y-124049262I0J271738D01*
G01*
G37*
%TD*%
D15*
%TO.C,U1*%
X115570000Y-81026000D03*
X194310000Y-103886000D03*
X118110000Y-81026000D03*
X191770000Y-103886000D03*
X120650000Y-81026000D03*
X189230000Y-103886000D03*
X123190000Y-81026000D03*
X186690000Y-103886000D03*
X125730000Y-81026000D03*
X184150000Y-103886000D03*
X128270000Y-81026000D03*
X181610000Y-103886000D03*
X130810000Y-81026000D03*
X179070000Y-103886000D03*
X133350000Y-81026000D03*
X176530000Y-103886000D03*
X135890000Y-81026000D03*
X173990000Y-103886000D03*
X138430000Y-81026000D03*
X171450000Y-103886000D03*
X140970000Y-81026000D03*
X168910000Y-103886000D03*
X143510000Y-81026000D03*
X166370000Y-103886000D03*
X146050000Y-81026000D03*
X163830000Y-103886000D03*
X148590000Y-81026000D03*
X161290000Y-103886000D03*
X151130000Y-81026000D03*
X158750000Y-103886000D03*
X153670000Y-81026000D03*
X156210000Y-103886000D03*
X156210000Y-81026000D03*
X153670000Y-103886000D03*
X158750000Y-81026000D03*
X151130000Y-103886000D03*
X161290000Y-81026000D03*
X148590000Y-103886000D03*
X163830000Y-81026000D03*
X146050000Y-103886000D03*
X166370000Y-81026000D03*
X143510000Y-103886000D03*
X168910000Y-81026000D03*
X140970000Y-103886000D03*
X171450000Y-81026000D03*
X138430000Y-103886000D03*
X173990000Y-81026000D03*
X135890000Y-103886000D03*
X176530000Y-81026000D03*
X133350000Y-103886000D03*
X179070000Y-81026000D03*
X130810000Y-103886000D03*
X181610000Y-81026000D03*
X128270000Y-103886000D03*
X184150000Y-81026000D03*
X125730000Y-103886000D03*
X186690000Y-81026000D03*
X123190000Y-103886000D03*
X189230000Y-81026000D03*
X120650000Y-103886000D03*
X191770000Y-81026000D03*
X118110000Y-103886000D03*
X194310000Y-81026000D03*
D16*
X115570000Y-103886000D03*
%TD*%
%TO.C,U18*%
G36*
G01*
X233338000Y-65417000D02*
X233688000Y-65417000D01*
G75*
G02*
X233863000Y-65592000I0J-175000D01*
G01*
X233863000Y-67892000D01*
G75*
G02*
X233688000Y-68067000I-175000J0D01*
G01*
X233338000Y-68067000D01*
G75*
G02*
X233163000Y-67892000I0J175000D01*
G01*
X233163000Y-65592000D01*
G75*
G02*
X233338000Y-65417000I175000J0D01*
G01*
G37*
G36*
G01*
X232068000Y-65417000D02*
X232418000Y-65417000D01*
G75*
G02*
X232593000Y-65592000I0J-175000D01*
G01*
X232593000Y-67892000D01*
G75*
G02*
X232418000Y-68067000I-175000J0D01*
G01*
X232068000Y-68067000D01*
G75*
G02*
X231893000Y-67892000I0J175000D01*
G01*
X231893000Y-65592000D01*
G75*
G02*
X232068000Y-65417000I175000J0D01*
G01*
G37*
G36*
G01*
X230798000Y-65417000D02*
X231148000Y-65417000D01*
G75*
G02*
X231323000Y-65592000I0J-175000D01*
G01*
X231323000Y-67892000D01*
G75*
G02*
X231148000Y-68067000I-175000J0D01*
G01*
X230798000Y-68067000D01*
G75*
G02*
X230623000Y-67892000I0J175000D01*
G01*
X230623000Y-65592000D01*
G75*
G02*
X230798000Y-65417000I175000J0D01*
G01*
G37*
G36*
G01*
X229528000Y-65417000D02*
X229878000Y-65417000D01*
G75*
G02*
X230053000Y-65592000I0J-175000D01*
G01*
X230053000Y-67892000D01*
G75*
G02*
X229878000Y-68067000I-175000J0D01*
G01*
X229528000Y-68067000D01*
G75*
G02*
X229353000Y-67892000I0J175000D01*
G01*
X229353000Y-65592000D01*
G75*
G02*
X229528000Y-65417000I175000J0D01*
G01*
G37*
G36*
G01*
X228258000Y-65417000D02*
X228608000Y-65417000D01*
G75*
G02*
X228783000Y-65592000I0J-175000D01*
G01*
X228783000Y-67892000D01*
G75*
G02*
X228608000Y-68067000I-175000J0D01*
G01*
X228258000Y-68067000D01*
G75*
G02*
X228083000Y-67892000I0J175000D01*
G01*
X228083000Y-65592000D01*
G75*
G02*
X228258000Y-65417000I175000J0D01*
G01*
G37*
G36*
G01*
X226988000Y-65417000D02*
X227338000Y-65417000D01*
G75*
G02*
X227513000Y-65592000I0J-175000D01*
G01*
X227513000Y-67892000D01*
G75*
G02*
X227338000Y-68067000I-175000J0D01*
G01*
X226988000Y-68067000D01*
G75*
G02*
X226813000Y-67892000I0J175000D01*
G01*
X226813000Y-65592000D01*
G75*
G02*
X226988000Y-65417000I175000J0D01*
G01*
G37*
G36*
G01*
X225718000Y-65417000D02*
X226068000Y-65417000D01*
G75*
G02*
X226243000Y-65592000I0J-175000D01*
G01*
X226243000Y-67892000D01*
G75*
G02*
X226068000Y-68067000I-175000J0D01*
G01*
X225718000Y-68067000D01*
G75*
G02*
X225543000Y-67892000I0J175000D01*
G01*
X225543000Y-65592000D01*
G75*
G02*
X225718000Y-65417000I175000J0D01*
G01*
G37*
G36*
G01*
X224448000Y-65417000D02*
X224798000Y-65417000D01*
G75*
G02*
X224973000Y-65592000I0J-175000D01*
G01*
X224973000Y-67892000D01*
G75*
G02*
X224798000Y-68067000I-175000J0D01*
G01*
X224448000Y-68067000D01*
G75*
G02*
X224273000Y-67892000I0J175000D01*
G01*
X224273000Y-65592000D01*
G75*
G02*
X224448000Y-65417000I175000J0D01*
G01*
G37*
G36*
G01*
X223178000Y-65417000D02*
X223528000Y-65417000D01*
G75*
G02*
X223703000Y-65592000I0J-175000D01*
G01*
X223703000Y-67892000D01*
G75*
G02*
X223528000Y-68067000I-175000J0D01*
G01*
X223178000Y-68067000D01*
G75*
G02*
X223003000Y-67892000I0J175000D01*
G01*
X223003000Y-65592000D01*
G75*
G02*
X223178000Y-65417000I175000J0D01*
G01*
G37*
G36*
G01*
X221908000Y-65417000D02*
X222258000Y-65417000D01*
G75*
G02*
X222433000Y-65592000I0J-175000D01*
G01*
X222433000Y-67892000D01*
G75*
G02*
X222258000Y-68067000I-175000J0D01*
G01*
X221908000Y-68067000D01*
G75*
G02*
X221733000Y-67892000I0J175000D01*
G01*
X221733000Y-65592000D01*
G75*
G02*
X221908000Y-65417000I175000J0D01*
G01*
G37*
G36*
G01*
X220638000Y-65417000D02*
X220988000Y-65417000D01*
G75*
G02*
X221163000Y-65592000I0J-175000D01*
G01*
X221163000Y-67892000D01*
G75*
G02*
X220988000Y-68067000I-175000J0D01*
G01*
X220638000Y-68067000D01*
G75*
G02*
X220463000Y-67892000I0J175000D01*
G01*
X220463000Y-65592000D01*
G75*
G02*
X220638000Y-65417000I175000J0D01*
G01*
G37*
G36*
G01*
X219368000Y-65417000D02*
X219718000Y-65417000D01*
G75*
G02*
X219893000Y-65592000I0J-175000D01*
G01*
X219893000Y-67892000D01*
G75*
G02*
X219718000Y-68067000I-175000J0D01*
G01*
X219368000Y-68067000D01*
G75*
G02*
X219193000Y-67892000I0J175000D01*
G01*
X219193000Y-65592000D01*
G75*
G02*
X219368000Y-65417000I175000J0D01*
G01*
G37*
G36*
G01*
X218098000Y-65417000D02*
X218448000Y-65417000D01*
G75*
G02*
X218623000Y-65592000I0J-175000D01*
G01*
X218623000Y-67892000D01*
G75*
G02*
X218448000Y-68067000I-175000J0D01*
G01*
X218098000Y-68067000D01*
G75*
G02*
X217923000Y-67892000I0J175000D01*
G01*
X217923000Y-65592000D01*
G75*
G02*
X218098000Y-65417000I175000J0D01*
G01*
G37*
G36*
G01*
X216828000Y-65417000D02*
X217178000Y-65417000D01*
G75*
G02*
X217353000Y-65592000I0J-175000D01*
G01*
X217353000Y-67892000D01*
G75*
G02*
X217178000Y-68067000I-175000J0D01*
G01*
X216828000Y-68067000D01*
G75*
G02*
X216653000Y-67892000I0J175000D01*
G01*
X216653000Y-65592000D01*
G75*
G02*
X216828000Y-65417000I175000J0D01*
G01*
G37*
G36*
G01*
X215558000Y-65417000D02*
X215908000Y-65417000D01*
G75*
G02*
X216083000Y-65592000I0J-175000D01*
G01*
X216083000Y-67892000D01*
G75*
G02*
X215908000Y-68067000I-175000J0D01*
G01*
X215558000Y-68067000D01*
G75*
G02*
X215383000Y-67892000I0J175000D01*
G01*
X215383000Y-65592000D01*
G75*
G02*
X215558000Y-65417000I175000J0D01*
G01*
G37*
G36*
G01*
X214288000Y-65417000D02*
X214638000Y-65417000D01*
G75*
G02*
X214813000Y-65592000I0J-175000D01*
G01*
X214813000Y-67892000D01*
G75*
G02*
X214638000Y-68067000I-175000J0D01*
G01*
X214288000Y-68067000D01*
G75*
G02*
X214113000Y-67892000I0J175000D01*
G01*
X214113000Y-65592000D01*
G75*
G02*
X214288000Y-65417000I175000J0D01*
G01*
G37*
G36*
G01*
X213018000Y-65417000D02*
X213368000Y-65417000D01*
G75*
G02*
X213543000Y-65592000I0J-175000D01*
G01*
X213543000Y-67892000D01*
G75*
G02*
X213368000Y-68067000I-175000J0D01*
G01*
X213018000Y-68067000D01*
G75*
G02*
X212843000Y-67892000I0J175000D01*
G01*
X212843000Y-65592000D01*
G75*
G02*
X213018000Y-65417000I175000J0D01*
G01*
G37*
G36*
G01*
X211748000Y-65417000D02*
X212098000Y-65417000D01*
G75*
G02*
X212273000Y-65592000I0J-175000D01*
G01*
X212273000Y-67892000D01*
G75*
G02*
X212098000Y-68067000I-175000J0D01*
G01*
X211748000Y-68067000D01*
G75*
G02*
X211573000Y-67892000I0J175000D01*
G01*
X211573000Y-65592000D01*
G75*
G02*
X211748000Y-65417000I175000J0D01*
G01*
G37*
G36*
G01*
X211748000Y-55217000D02*
X212098000Y-55217000D01*
G75*
G02*
X212273000Y-55392000I0J-175000D01*
G01*
X212273000Y-57692000D01*
G75*
G02*
X212098000Y-57867000I-175000J0D01*
G01*
X211748000Y-57867000D01*
G75*
G02*
X211573000Y-57692000I0J175000D01*
G01*
X211573000Y-55392000D01*
G75*
G02*
X211748000Y-55217000I175000J0D01*
G01*
G37*
G36*
G01*
X213018000Y-55217000D02*
X213368000Y-55217000D01*
G75*
G02*
X213543000Y-55392000I0J-175000D01*
G01*
X213543000Y-57692000D01*
G75*
G02*
X213368000Y-57867000I-175000J0D01*
G01*
X213018000Y-57867000D01*
G75*
G02*
X212843000Y-57692000I0J175000D01*
G01*
X212843000Y-55392000D01*
G75*
G02*
X213018000Y-55217000I175000J0D01*
G01*
G37*
G36*
G01*
X214288000Y-55217000D02*
X214638000Y-55217000D01*
G75*
G02*
X214813000Y-55392000I0J-175000D01*
G01*
X214813000Y-57692000D01*
G75*
G02*
X214638000Y-57867000I-175000J0D01*
G01*
X214288000Y-57867000D01*
G75*
G02*
X214113000Y-57692000I0J175000D01*
G01*
X214113000Y-55392000D01*
G75*
G02*
X214288000Y-55217000I175000J0D01*
G01*
G37*
G36*
G01*
X215558000Y-55217000D02*
X215908000Y-55217000D01*
G75*
G02*
X216083000Y-55392000I0J-175000D01*
G01*
X216083000Y-57692000D01*
G75*
G02*
X215908000Y-57867000I-175000J0D01*
G01*
X215558000Y-57867000D01*
G75*
G02*
X215383000Y-57692000I0J175000D01*
G01*
X215383000Y-55392000D01*
G75*
G02*
X215558000Y-55217000I175000J0D01*
G01*
G37*
G36*
G01*
X216828000Y-55217000D02*
X217178000Y-55217000D01*
G75*
G02*
X217353000Y-55392000I0J-175000D01*
G01*
X217353000Y-57692000D01*
G75*
G02*
X217178000Y-57867000I-175000J0D01*
G01*
X216828000Y-57867000D01*
G75*
G02*
X216653000Y-57692000I0J175000D01*
G01*
X216653000Y-55392000D01*
G75*
G02*
X216828000Y-55217000I175000J0D01*
G01*
G37*
G36*
G01*
X218098000Y-55217000D02*
X218448000Y-55217000D01*
G75*
G02*
X218623000Y-55392000I0J-175000D01*
G01*
X218623000Y-57692000D01*
G75*
G02*
X218448000Y-57867000I-175000J0D01*
G01*
X218098000Y-57867000D01*
G75*
G02*
X217923000Y-57692000I0J175000D01*
G01*
X217923000Y-55392000D01*
G75*
G02*
X218098000Y-55217000I175000J0D01*
G01*
G37*
G36*
G01*
X219368000Y-55217000D02*
X219718000Y-55217000D01*
G75*
G02*
X219893000Y-55392000I0J-175000D01*
G01*
X219893000Y-57692000D01*
G75*
G02*
X219718000Y-57867000I-175000J0D01*
G01*
X219368000Y-57867000D01*
G75*
G02*
X219193000Y-57692000I0J175000D01*
G01*
X219193000Y-55392000D01*
G75*
G02*
X219368000Y-55217000I175000J0D01*
G01*
G37*
G36*
G01*
X220638000Y-55217000D02*
X220988000Y-55217000D01*
G75*
G02*
X221163000Y-55392000I0J-175000D01*
G01*
X221163000Y-57692000D01*
G75*
G02*
X220988000Y-57867000I-175000J0D01*
G01*
X220638000Y-57867000D01*
G75*
G02*
X220463000Y-57692000I0J175000D01*
G01*
X220463000Y-55392000D01*
G75*
G02*
X220638000Y-55217000I175000J0D01*
G01*
G37*
G36*
G01*
X221908000Y-55217000D02*
X222258000Y-55217000D01*
G75*
G02*
X222433000Y-55392000I0J-175000D01*
G01*
X222433000Y-57692000D01*
G75*
G02*
X222258000Y-57867000I-175000J0D01*
G01*
X221908000Y-57867000D01*
G75*
G02*
X221733000Y-57692000I0J175000D01*
G01*
X221733000Y-55392000D01*
G75*
G02*
X221908000Y-55217000I175000J0D01*
G01*
G37*
G36*
G01*
X223178000Y-55217000D02*
X223528000Y-55217000D01*
G75*
G02*
X223703000Y-55392000I0J-175000D01*
G01*
X223703000Y-57692000D01*
G75*
G02*
X223528000Y-57867000I-175000J0D01*
G01*
X223178000Y-57867000D01*
G75*
G02*
X223003000Y-57692000I0J175000D01*
G01*
X223003000Y-55392000D01*
G75*
G02*
X223178000Y-55217000I175000J0D01*
G01*
G37*
G36*
G01*
X224448000Y-55217000D02*
X224798000Y-55217000D01*
G75*
G02*
X224973000Y-55392000I0J-175000D01*
G01*
X224973000Y-57692000D01*
G75*
G02*
X224798000Y-57867000I-175000J0D01*
G01*
X224448000Y-57867000D01*
G75*
G02*
X224273000Y-57692000I0J175000D01*
G01*
X224273000Y-55392000D01*
G75*
G02*
X224448000Y-55217000I175000J0D01*
G01*
G37*
G36*
G01*
X225718000Y-55217000D02*
X226068000Y-55217000D01*
G75*
G02*
X226243000Y-55392000I0J-175000D01*
G01*
X226243000Y-57692000D01*
G75*
G02*
X226068000Y-57867000I-175000J0D01*
G01*
X225718000Y-57867000D01*
G75*
G02*
X225543000Y-57692000I0J175000D01*
G01*
X225543000Y-55392000D01*
G75*
G02*
X225718000Y-55217000I175000J0D01*
G01*
G37*
G36*
G01*
X226988000Y-55217000D02*
X227338000Y-55217000D01*
G75*
G02*
X227513000Y-55392000I0J-175000D01*
G01*
X227513000Y-57692000D01*
G75*
G02*
X227338000Y-57867000I-175000J0D01*
G01*
X226988000Y-57867000D01*
G75*
G02*
X226813000Y-57692000I0J175000D01*
G01*
X226813000Y-55392000D01*
G75*
G02*
X226988000Y-55217000I175000J0D01*
G01*
G37*
G36*
G01*
X228258000Y-55217000D02*
X228608000Y-55217000D01*
G75*
G02*
X228783000Y-55392000I0J-175000D01*
G01*
X228783000Y-57692000D01*
G75*
G02*
X228608000Y-57867000I-175000J0D01*
G01*
X228258000Y-57867000D01*
G75*
G02*
X228083000Y-57692000I0J175000D01*
G01*
X228083000Y-55392000D01*
G75*
G02*
X228258000Y-55217000I175000J0D01*
G01*
G37*
G36*
G01*
X229528000Y-55217000D02*
X229878000Y-55217000D01*
G75*
G02*
X230053000Y-55392000I0J-175000D01*
G01*
X230053000Y-57692000D01*
G75*
G02*
X229878000Y-57867000I-175000J0D01*
G01*
X229528000Y-57867000D01*
G75*
G02*
X229353000Y-57692000I0J175000D01*
G01*
X229353000Y-55392000D01*
G75*
G02*
X229528000Y-55217000I175000J0D01*
G01*
G37*
G36*
G01*
X230798000Y-55217000D02*
X231148000Y-55217000D01*
G75*
G02*
X231323000Y-55392000I0J-175000D01*
G01*
X231323000Y-57692000D01*
G75*
G02*
X231148000Y-57867000I-175000J0D01*
G01*
X230798000Y-57867000D01*
G75*
G02*
X230623000Y-57692000I0J175000D01*
G01*
X230623000Y-55392000D01*
G75*
G02*
X230798000Y-55217000I175000J0D01*
G01*
G37*
G36*
G01*
X232068000Y-55217000D02*
X232418000Y-55217000D01*
G75*
G02*
X232593000Y-55392000I0J-175000D01*
G01*
X232593000Y-57692000D01*
G75*
G02*
X232418000Y-57867000I-175000J0D01*
G01*
X232068000Y-57867000D01*
G75*
G02*
X231893000Y-57692000I0J175000D01*
G01*
X231893000Y-55392000D01*
G75*
G02*
X232068000Y-55217000I175000J0D01*
G01*
G37*
G36*
G01*
X233338000Y-55217000D02*
X233688000Y-55217000D01*
G75*
G02*
X233863000Y-55392000I0J-175000D01*
G01*
X233863000Y-57692000D01*
G75*
G02*
X233688000Y-57867000I-175000J0D01*
G01*
X233338000Y-57867000D01*
G75*
G02*
X233163000Y-57692000I0J175000D01*
G01*
X233163000Y-55392000D01*
G75*
G02*
X233338000Y-55217000I175000J0D01*
G01*
G37*
%TD*%
%TO.C,U17*%
G36*
G01*
X261338000Y-65417000D02*
X261688000Y-65417000D01*
G75*
G02*
X261863000Y-65592000I0J-175000D01*
G01*
X261863000Y-67892000D01*
G75*
G02*
X261688000Y-68067000I-175000J0D01*
G01*
X261338000Y-68067000D01*
G75*
G02*
X261163000Y-67892000I0J175000D01*
G01*
X261163000Y-65592000D01*
G75*
G02*
X261338000Y-65417000I175000J0D01*
G01*
G37*
G36*
G01*
X260068000Y-65417000D02*
X260418000Y-65417000D01*
G75*
G02*
X260593000Y-65592000I0J-175000D01*
G01*
X260593000Y-67892000D01*
G75*
G02*
X260418000Y-68067000I-175000J0D01*
G01*
X260068000Y-68067000D01*
G75*
G02*
X259893000Y-67892000I0J175000D01*
G01*
X259893000Y-65592000D01*
G75*
G02*
X260068000Y-65417000I175000J0D01*
G01*
G37*
G36*
G01*
X258798000Y-65417000D02*
X259148000Y-65417000D01*
G75*
G02*
X259323000Y-65592000I0J-175000D01*
G01*
X259323000Y-67892000D01*
G75*
G02*
X259148000Y-68067000I-175000J0D01*
G01*
X258798000Y-68067000D01*
G75*
G02*
X258623000Y-67892000I0J175000D01*
G01*
X258623000Y-65592000D01*
G75*
G02*
X258798000Y-65417000I175000J0D01*
G01*
G37*
G36*
G01*
X257528000Y-65417000D02*
X257878000Y-65417000D01*
G75*
G02*
X258053000Y-65592000I0J-175000D01*
G01*
X258053000Y-67892000D01*
G75*
G02*
X257878000Y-68067000I-175000J0D01*
G01*
X257528000Y-68067000D01*
G75*
G02*
X257353000Y-67892000I0J175000D01*
G01*
X257353000Y-65592000D01*
G75*
G02*
X257528000Y-65417000I175000J0D01*
G01*
G37*
G36*
G01*
X256258000Y-65417000D02*
X256608000Y-65417000D01*
G75*
G02*
X256783000Y-65592000I0J-175000D01*
G01*
X256783000Y-67892000D01*
G75*
G02*
X256608000Y-68067000I-175000J0D01*
G01*
X256258000Y-68067000D01*
G75*
G02*
X256083000Y-67892000I0J175000D01*
G01*
X256083000Y-65592000D01*
G75*
G02*
X256258000Y-65417000I175000J0D01*
G01*
G37*
G36*
G01*
X254988000Y-65417000D02*
X255338000Y-65417000D01*
G75*
G02*
X255513000Y-65592000I0J-175000D01*
G01*
X255513000Y-67892000D01*
G75*
G02*
X255338000Y-68067000I-175000J0D01*
G01*
X254988000Y-68067000D01*
G75*
G02*
X254813000Y-67892000I0J175000D01*
G01*
X254813000Y-65592000D01*
G75*
G02*
X254988000Y-65417000I175000J0D01*
G01*
G37*
G36*
G01*
X253718000Y-65417000D02*
X254068000Y-65417000D01*
G75*
G02*
X254243000Y-65592000I0J-175000D01*
G01*
X254243000Y-67892000D01*
G75*
G02*
X254068000Y-68067000I-175000J0D01*
G01*
X253718000Y-68067000D01*
G75*
G02*
X253543000Y-67892000I0J175000D01*
G01*
X253543000Y-65592000D01*
G75*
G02*
X253718000Y-65417000I175000J0D01*
G01*
G37*
G36*
G01*
X252448000Y-65417000D02*
X252798000Y-65417000D01*
G75*
G02*
X252973000Y-65592000I0J-175000D01*
G01*
X252973000Y-67892000D01*
G75*
G02*
X252798000Y-68067000I-175000J0D01*
G01*
X252448000Y-68067000D01*
G75*
G02*
X252273000Y-67892000I0J175000D01*
G01*
X252273000Y-65592000D01*
G75*
G02*
X252448000Y-65417000I175000J0D01*
G01*
G37*
G36*
G01*
X251178000Y-65417000D02*
X251528000Y-65417000D01*
G75*
G02*
X251703000Y-65592000I0J-175000D01*
G01*
X251703000Y-67892000D01*
G75*
G02*
X251528000Y-68067000I-175000J0D01*
G01*
X251178000Y-68067000D01*
G75*
G02*
X251003000Y-67892000I0J175000D01*
G01*
X251003000Y-65592000D01*
G75*
G02*
X251178000Y-65417000I175000J0D01*
G01*
G37*
G36*
G01*
X249908000Y-65417000D02*
X250258000Y-65417000D01*
G75*
G02*
X250433000Y-65592000I0J-175000D01*
G01*
X250433000Y-67892000D01*
G75*
G02*
X250258000Y-68067000I-175000J0D01*
G01*
X249908000Y-68067000D01*
G75*
G02*
X249733000Y-67892000I0J175000D01*
G01*
X249733000Y-65592000D01*
G75*
G02*
X249908000Y-65417000I175000J0D01*
G01*
G37*
G36*
G01*
X248638000Y-65417000D02*
X248988000Y-65417000D01*
G75*
G02*
X249163000Y-65592000I0J-175000D01*
G01*
X249163000Y-67892000D01*
G75*
G02*
X248988000Y-68067000I-175000J0D01*
G01*
X248638000Y-68067000D01*
G75*
G02*
X248463000Y-67892000I0J175000D01*
G01*
X248463000Y-65592000D01*
G75*
G02*
X248638000Y-65417000I175000J0D01*
G01*
G37*
G36*
G01*
X247368000Y-65417000D02*
X247718000Y-65417000D01*
G75*
G02*
X247893000Y-65592000I0J-175000D01*
G01*
X247893000Y-67892000D01*
G75*
G02*
X247718000Y-68067000I-175000J0D01*
G01*
X247368000Y-68067000D01*
G75*
G02*
X247193000Y-67892000I0J175000D01*
G01*
X247193000Y-65592000D01*
G75*
G02*
X247368000Y-65417000I175000J0D01*
G01*
G37*
G36*
G01*
X246098000Y-65417000D02*
X246448000Y-65417000D01*
G75*
G02*
X246623000Y-65592000I0J-175000D01*
G01*
X246623000Y-67892000D01*
G75*
G02*
X246448000Y-68067000I-175000J0D01*
G01*
X246098000Y-68067000D01*
G75*
G02*
X245923000Y-67892000I0J175000D01*
G01*
X245923000Y-65592000D01*
G75*
G02*
X246098000Y-65417000I175000J0D01*
G01*
G37*
G36*
G01*
X244828000Y-65417000D02*
X245178000Y-65417000D01*
G75*
G02*
X245353000Y-65592000I0J-175000D01*
G01*
X245353000Y-67892000D01*
G75*
G02*
X245178000Y-68067000I-175000J0D01*
G01*
X244828000Y-68067000D01*
G75*
G02*
X244653000Y-67892000I0J175000D01*
G01*
X244653000Y-65592000D01*
G75*
G02*
X244828000Y-65417000I175000J0D01*
G01*
G37*
G36*
G01*
X243558000Y-65417000D02*
X243908000Y-65417000D01*
G75*
G02*
X244083000Y-65592000I0J-175000D01*
G01*
X244083000Y-67892000D01*
G75*
G02*
X243908000Y-68067000I-175000J0D01*
G01*
X243558000Y-68067000D01*
G75*
G02*
X243383000Y-67892000I0J175000D01*
G01*
X243383000Y-65592000D01*
G75*
G02*
X243558000Y-65417000I175000J0D01*
G01*
G37*
G36*
G01*
X242288000Y-65417000D02*
X242638000Y-65417000D01*
G75*
G02*
X242813000Y-65592000I0J-175000D01*
G01*
X242813000Y-67892000D01*
G75*
G02*
X242638000Y-68067000I-175000J0D01*
G01*
X242288000Y-68067000D01*
G75*
G02*
X242113000Y-67892000I0J175000D01*
G01*
X242113000Y-65592000D01*
G75*
G02*
X242288000Y-65417000I175000J0D01*
G01*
G37*
G36*
G01*
X241018000Y-65417000D02*
X241368000Y-65417000D01*
G75*
G02*
X241543000Y-65592000I0J-175000D01*
G01*
X241543000Y-67892000D01*
G75*
G02*
X241368000Y-68067000I-175000J0D01*
G01*
X241018000Y-68067000D01*
G75*
G02*
X240843000Y-67892000I0J175000D01*
G01*
X240843000Y-65592000D01*
G75*
G02*
X241018000Y-65417000I175000J0D01*
G01*
G37*
G36*
G01*
X239748000Y-65417000D02*
X240098000Y-65417000D01*
G75*
G02*
X240273000Y-65592000I0J-175000D01*
G01*
X240273000Y-67892000D01*
G75*
G02*
X240098000Y-68067000I-175000J0D01*
G01*
X239748000Y-68067000D01*
G75*
G02*
X239573000Y-67892000I0J175000D01*
G01*
X239573000Y-65592000D01*
G75*
G02*
X239748000Y-65417000I175000J0D01*
G01*
G37*
G36*
G01*
X239748000Y-55217000D02*
X240098000Y-55217000D01*
G75*
G02*
X240273000Y-55392000I0J-175000D01*
G01*
X240273000Y-57692000D01*
G75*
G02*
X240098000Y-57867000I-175000J0D01*
G01*
X239748000Y-57867000D01*
G75*
G02*
X239573000Y-57692000I0J175000D01*
G01*
X239573000Y-55392000D01*
G75*
G02*
X239748000Y-55217000I175000J0D01*
G01*
G37*
G36*
G01*
X241018000Y-55217000D02*
X241368000Y-55217000D01*
G75*
G02*
X241543000Y-55392000I0J-175000D01*
G01*
X241543000Y-57692000D01*
G75*
G02*
X241368000Y-57867000I-175000J0D01*
G01*
X241018000Y-57867000D01*
G75*
G02*
X240843000Y-57692000I0J175000D01*
G01*
X240843000Y-55392000D01*
G75*
G02*
X241018000Y-55217000I175000J0D01*
G01*
G37*
G36*
G01*
X242288000Y-55217000D02*
X242638000Y-55217000D01*
G75*
G02*
X242813000Y-55392000I0J-175000D01*
G01*
X242813000Y-57692000D01*
G75*
G02*
X242638000Y-57867000I-175000J0D01*
G01*
X242288000Y-57867000D01*
G75*
G02*
X242113000Y-57692000I0J175000D01*
G01*
X242113000Y-55392000D01*
G75*
G02*
X242288000Y-55217000I175000J0D01*
G01*
G37*
G36*
G01*
X243558000Y-55217000D02*
X243908000Y-55217000D01*
G75*
G02*
X244083000Y-55392000I0J-175000D01*
G01*
X244083000Y-57692000D01*
G75*
G02*
X243908000Y-57867000I-175000J0D01*
G01*
X243558000Y-57867000D01*
G75*
G02*
X243383000Y-57692000I0J175000D01*
G01*
X243383000Y-55392000D01*
G75*
G02*
X243558000Y-55217000I175000J0D01*
G01*
G37*
G36*
G01*
X244828000Y-55217000D02*
X245178000Y-55217000D01*
G75*
G02*
X245353000Y-55392000I0J-175000D01*
G01*
X245353000Y-57692000D01*
G75*
G02*
X245178000Y-57867000I-175000J0D01*
G01*
X244828000Y-57867000D01*
G75*
G02*
X244653000Y-57692000I0J175000D01*
G01*
X244653000Y-55392000D01*
G75*
G02*
X244828000Y-55217000I175000J0D01*
G01*
G37*
G36*
G01*
X246098000Y-55217000D02*
X246448000Y-55217000D01*
G75*
G02*
X246623000Y-55392000I0J-175000D01*
G01*
X246623000Y-57692000D01*
G75*
G02*
X246448000Y-57867000I-175000J0D01*
G01*
X246098000Y-57867000D01*
G75*
G02*
X245923000Y-57692000I0J175000D01*
G01*
X245923000Y-55392000D01*
G75*
G02*
X246098000Y-55217000I175000J0D01*
G01*
G37*
G36*
G01*
X247368000Y-55217000D02*
X247718000Y-55217000D01*
G75*
G02*
X247893000Y-55392000I0J-175000D01*
G01*
X247893000Y-57692000D01*
G75*
G02*
X247718000Y-57867000I-175000J0D01*
G01*
X247368000Y-57867000D01*
G75*
G02*
X247193000Y-57692000I0J175000D01*
G01*
X247193000Y-55392000D01*
G75*
G02*
X247368000Y-55217000I175000J0D01*
G01*
G37*
G36*
G01*
X248638000Y-55217000D02*
X248988000Y-55217000D01*
G75*
G02*
X249163000Y-55392000I0J-175000D01*
G01*
X249163000Y-57692000D01*
G75*
G02*
X248988000Y-57867000I-175000J0D01*
G01*
X248638000Y-57867000D01*
G75*
G02*
X248463000Y-57692000I0J175000D01*
G01*
X248463000Y-55392000D01*
G75*
G02*
X248638000Y-55217000I175000J0D01*
G01*
G37*
G36*
G01*
X249908000Y-55217000D02*
X250258000Y-55217000D01*
G75*
G02*
X250433000Y-55392000I0J-175000D01*
G01*
X250433000Y-57692000D01*
G75*
G02*
X250258000Y-57867000I-175000J0D01*
G01*
X249908000Y-57867000D01*
G75*
G02*
X249733000Y-57692000I0J175000D01*
G01*
X249733000Y-55392000D01*
G75*
G02*
X249908000Y-55217000I175000J0D01*
G01*
G37*
G36*
G01*
X251178000Y-55217000D02*
X251528000Y-55217000D01*
G75*
G02*
X251703000Y-55392000I0J-175000D01*
G01*
X251703000Y-57692000D01*
G75*
G02*
X251528000Y-57867000I-175000J0D01*
G01*
X251178000Y-57867000D01*
G75*
G02*
X251003000Y-57692000I0J175000D01*
G01*
X251003000Y-55392000D01*
G75*
G02*
X251178000Y-55217000I175000J0D01*
G01*
G37*
G36*
G01*
X252448000Y-55217000D02*
X252798000Y-55217000D01*
G75*
G02*
X252973000Y-55392000I0J-175000D01*
G01*
X252973000Y-57692000D01*
G75*
G02*
X252798000Y-57867000I-175000J0D01*
G01*
X252448000Y-57867000D01*
G75*
G02*
X252273000Y-57692000I0J175000D01*
G01*
X252273000Y-55392000D01*
G75*
G02*
X252448000Y-55217000I175000J0D01*
G01*
G37*
G36*
G01*
X253718000Y-55217000D02*
X254068000Y-55217000D01*
G75*
G02*
X254243000Y-55392000I0J-175000D01*
G01*
X254243000Y-57692000D01*
G75*
G02*
X254068000Y-57867000I-175000J0D01*
G01*
X253718000Y-57867000D01*
G75*
G02*
X253543000Y-57692000I0J175000D01*
G01*
X253543000Y-55392000D01*
G75*
G02*
X253718000Y-55217000I175000J0D01*
G01*
G37*
G36*
G01*
X254988000Y-55217000D02*
X255338000Y-55217000D01*
G75*
G02*
X255513000Y-55392000I0J-175000D01*
G01*
X255513000Y-57692000D01*
G75*
G02*
X255338000Y-57867000I-175000J0D01*
G01*
X254988000Y-57867000D01*
G75*
G02*
X254813000Y-57692000I0J175000D01*
G01*
X254813000Y-55392000D01*
G75*
G02*
X254988000Y-55217000I175000J0D01*
G01*
G37*
G36*
G01*
X256258000Y-55217000D02*
X256608000Y-55217000D01*
G75*
G02*
X256783000Y-55392000I0J-175000D01*
G01*
X256783000Y-57692000D01*
G75*
G02*
X256608000Y-57867000I-175000J0D01*
G01*
X256258000Y-57867000D01*
G75*
G02*
X256083000Y-57692000I0J175000D01*
G01*
X256083000Y-55392000D01*
G75*
G02*
X256258000Y-55217000I175000J0D01*
G01*
G37*
G36*
G01*
X257528000Y-55217000D02*
X257878000Y-55217000D01*
G75*
G02*
X258053000Y-55392000I0J-175000D01*
G01*
X258053000Y-57692000D01*
G75*
G02*
X257878000Y-57867000I-175000J0D01*
G01*
X257528000Y-57867000D01*
G75*
G02*
X257353000Y-57692000I0J175000D01*
G01*
X257353000Y-55392000D01*
G75*
G02*
X257528000Y-55217000I175000J0D01*
G01*
G37*
G36*
G01*
X258798000Y-55217000D02*
X259148000Y-55217000D01*
G75*
G02*
X259323000Y-55392000I0J-175000D01*
G01*
X259323000Y-57692000D01*
G75*
G02*
X259148000Y-57867000I-175000J0D01*
G01*
X258798000Y-57867000D01*
G75*
G02*
X258623000Y-57692000I0J175000D01*
G01*
X258623000Y-55392000D01*
G75*
G02*
X258798000Y-55217000I175000J0D01*
G01*
G37*
G36*
G01*
X260068000Y-55217000D02*
X260418000Y-55217000D01*
G75*
G02*
X260593000Y-55392000I0J-175000D01*
G01*
X260593000Y-57692000D01*
G75*
G02*
X260418000Y-57867000I-175000J0D01*
G01*
X260068000Y-57867000D01*
G75*
G02*
X259893000Y-57692000I0J175000D01*
G01*
X259893000Y-55392000D01*
G75*
G02*
X260068000Y-55217000I175000J0D01*
G01*
G37*
G36*
G01*
X261338000Y-55217000D02*
X261688000Y-55217000D01*
G75*
G02*
X261863000Y-55392000I0J-175000D01*
G01*
X261863000Y-57692000D01*
G75*
G02*
X261688000Y-57867000I-175000J0D01*
G01*
X261338000Y-57867000D01*
G75*
G02*
X261163000Y-57692000I0J175000D01*
G01*
X261163000Y-55392000D01*
G75*
G02*
X261338000Y-55217000I175000J0D01*
G01*
G37*
%TD*%
%TO.C,U16*%
G36*
G01*
X233465000Y-48179000D02*
X233815000Y-48179000D01*
G75*
G02*
X233990000Y-48354000I0J-175000D01*
G01*
X233990000Y-50654000D01*
G75*
G02*
X233815000Y-50829000I-175000J0D01*
G01*
X233465000Y-50829000D01*
G75*
G02*
X233290000Y-50654000I0J175000D01*
G01*
X233290000Y-48354000D01*
G75*
G02*
X233465000Y-48179000I175000J0D01*
G01*
G37*
G36*
G01*
X232195000Y-48179000D02*
X232545000Y-48179000D01*
G75*
G02*
X232720000Y-48354000I0J-175000D01*
G01*
X232720000Y-50654000D01*
G75*
G02*
X232545000Y-50829000I-175000J0D01*
G01*
X232195000Y-50829000D01*
G75*
G02*
X232020000Y-50654000I0J175000D01*
G01*
X232020000Y-48354000D01*
G75*
G02*
X232195000Y-48179000I175000J0D01*
G01*
G37*
G36*
G01*
X230925000Y-48179000D02*
X231275000Y-48179000D01*
G75*
G02*
X231450000Y-48354000I0J-175000D01*
G01*
X231450000Y-50654000D01*
G75*
G02*
X231275000Y-50829000I-175000J0D01*
G01*
X230925000Y-50829000D01*
G75*
G02*
X230750000Y-50654000I0J175000D01*
G01*
X230750000Y-48354000D01*
G75*
G02*
X230925000Y-48179000I175000J0D01*
G01*
G37*
G36*
G01*
X229655000Y-48179000D02*
X230005000Y-48179000D01*
G75*
G02*
X230180000Y-48354000I0J-175000D01*
G01*
X230180000Y-50654000D01*
G75*
G02*
X230005000Y-50829000I-175000J0D01*
G01*
X229655000Y-50829000D01*
G75*
G02*
X229480000Y-50654000I0J175000D01*
G01*
X229480000Y-48354000D01*
G75*
G02*
X229655000Y-48179000I175000J0D01*
G01*
G37*
G36*
G01*
X228385000Y-48179000D02*
X228735000Y-48179000D01*
G75*
G02*
X228910000Y-48354000I0J-175000D01*
G01*
X228910000Y-50654000D01*
G75*
G02*
X228735000Y-50829000I-175000J0D01*
G01*
X228385000Y-50829000D01*
G75*
G02*
X228210000Y-50654000I0J175000D01*
G01*
X228210000Y-48354000D01*
G75*
G02*
X228385000Y-48179000I175000J0D01*
G01*
G37*
G36*
G01*
X227115000Y-48179000D02*
X227465000Y-48179000D01*
G75*
G02*
X227640000Y-48354000I0J-175000D01*
G01*
X227640000Y-50654000D01*
G75*
G02*
X227465000Y-50829000I-175000J0D01*
G01*
X227115000Y-50829000D01*
G75*
G02*
X226940000Y-50654000I0J175000D01*
G01*
X226940000Y-48354000D01*
G75*
G02*
X227115000Y-48179000I175000J0D01*
G01*
G37*
G36*
G01*
X225845000Y-48179000D02*
X226195000Y-48179000D01*
G75*
G02*
X226370000Y-48354000I0J-175000D01*
G01*
X226370000Y-50654000D01*
G75*
G02*
X226195000Y-50829000I-175000J0D01*
G01*
X225845000Y-50829000D01*
G75*
G02*
X225670000Y-50654000I0J175000D01*
G01*
X225670000Y-48354000D01*
G75*
G02*
X225845000Y-48179000I175000J0D01*
G01*
G37*
G36*
G01*
X224575000Y-48179000D02*
X224925000Y-48179000D01*
G75*
G02*
X225100000Y-48354000I0J-175000D01*
G01*
X225100000Y-50654000D01*
G75*
G02*
X224925000Y-50829000I-175000J0D01*
G01*
X224575000Y-50829000D01*
G75*
G02*
X224400000Y-50654000I0J175000D01*
G01*
X224400000Y-48354000D01*
G75*
G02*
X224575000Y-48179000I175000J0D01*
G01*
G37*
G36*
G01*
X223305000Y-48179000D02*
X223655000Y-48179000D01*
G75*
G02*
X223830000Y-48354000I0J-175000D01*
G01*
X223830000Y-50654000D01*
G75*
G02*
X223655000Y-50829000I-175000J0D01*
G01*
X223305000Y-50829000D01*
G75*
G02*
X223130000Y-50654000I0J175000D01*
G01*
X223130000Y-48354000D01*
G75*
G02*
X223305000Y-48179000I175000J0D01*
G01*
G37*
G36*
G01*
X222035000Y-48179000D02*
X222385000Y-48179000D01*
G75*
G02*
X222560000Y-48354000I0J-175000D01*
G01*
X222560000Y-50654000D01*
G75*
G02*
X222385000Y-50829000I-175000J0D01*
G01*
X222035000Y-50829000D01*
G75*
G02*
X221860000Y-50654000I0J175000D01*
G01*
X221860000Y-48354000D01*
G75*
G02*
X222035000Y-48179000I175000J0D01*
G01*
G37*
G36*
G01*
X220765000Y-48179000D02*
X221115000Y-48179000D01*
G75*
G02*
X221290000Y-48354000I0J-175000D01*
G01*
X221290000Y-50654000D01*
G75*
G02*
X221115000Y-50829000I-175000J0D01*
G01*
X220765000Y-50829000D01*
G75*
G02*
X220590000Y-50654000I0J175000D01*
G01*
X220590000Y-48354000D01*
G75*
G02*
X220765000Y-48179000I175000J0D01*
G01*
G37*
G36*
G01*
X219495000Y-48179000D02*
X219845000Y-48179000D01*
G75*
G02*
X220020000Y-48354000I0J-175000D01*
G01*
X220020000Y-50654000D01*
G75*
G02*
X219845000Y-50829000I-175000J0D01*
G01*
X219495000Y-50829000D01*
G75*
G02*
X219320000Y-50654000I0J175000D01*
G01*
X219320000Y-48354000D01*
G75*
G02*
X219495000Y-48179000I175000J0D01*
G01*
G37*
G36*
G01*
X218225000Y-48179000D02*
X218575000Y-48179000D01*
G75*
G02*
X218750000Y-48354000I0J-175000D01*
G01*
X218750000Y-50654000D01*
G75*
G02*
X218575000Y-50829000I-175000J0D01*
G01*
X218225000Y-50829000D01*
G75*
G02*
X218050000Y-50654000I0J175000D01*
G01*
X218050000Y-48354000D01*
G75*
G02*
X218225000Y-48179000I175000J0D01*
G01*
G37*
G36*
G01*
X216955000Y-48179000D02*
X217305000Y-48179000D01*
G75*
G02*
X217480000Y-48354000I0J-175000D01*
G01*
X217480000Y-50654000D01*
G75*
G02*
X217305000Y-50829000I-175000J0D01*
G01*
X216955000Y-50829000D01*
G75*
G02*
X216780000Y-50654000I0J175000D01*
G01*
X216780000Y-48354000D01*
G75*
G02*
X216955000Y-48179000I175000J0D01*
G01*
G37*
G36*
G01*
X215685000Y-48179000D02*
X216035000Y-48179000D01*
G75*
G02*
X216210000Y-48354000I0J-175000D01*
G01*
X216210000Y-50654000D01*
G75*
G02*
X216035000Y-50829000I-175000J0D01*
G01*
X215685000Y-50829000D01*
G75*
G02*
X215510000Y-50654000I0J175000D01*
G01*
X215510000Y-48354000D01*
G75*
G02*
X215685000Y-48179000I175000J0D01*
G01*
G37*
G36*
G01*
X214415000Y-48179000D02*
X214765000Y-48179000D01*
G75*
G02*
X214940000Y-48354000I0J-175000D01*
G01*
X214940000Y-50654000D01*
G75*
G02*
X214765000Y-50829000I-175000J0D01*
G01*
X214415000Y-50829000D01*
G75*
G02*
X214240000Y-50654000I0J175000D01*
G01*
X214240000Y-48354000D01*
G75*
G02*
X214415000Y-48179000I175000J0D01*
G01*
G37*
G36*
G01*
X213145000Y-48179000D02*
X213495000Y-48179000D01*
G75*
G02*
X213670000Y-48354000I0J-175000D01*
G01*
X213670000Y-50654000D01*
G75*
G02*
X213495000Y-50829000I-175000J0D01*
G01*
X213145000Y-50829000D01*
G75*
G02*
X212970000Y-50654000I0J175000D01*
G01*
X212970000Y-48354000D01*
G75*
G02*
X213145000Y-48179000I175000J0D01*
G01*
G37*
G36*
G01*
X211875000Y-48179000D02*
X212225000Y-48179000D01*
G75*
G02*
X212400000Y-48354000I0J-175000D01*
G01*
X212400000Y-50654000D01*
G75*
G02*
X212225000Y-50829000I-175000J0D01*
G01*
X211875000Y-50829000D01*
G75*
G02*
X211700000Y-50654000I0J175000D01*
G01*
X211700000Y-48354000D01*
G75*
G02*
X211875000Y-48179000I175000J0D01*
G01*
G37*
G36*
G01*
X211875000Y-37979000D02*
X212225000Y-37979000D01*
G75*
G02*
X212400000Y-38154000I0J-175000D01*
G01*
X212400000Y-40454000D01*
G75*
G02*
X212225000Y-40629000I-175000J0D01*
G01*
X211875000Y-40629000D01*
G75*
G02*
X211700000Y-40454000I0J175000D01*
G01*
X211700000Y-38154000D01*
G75*
G02*
X211875000Y-37979000I175000J0D01*
G01*
G37*
G36*
G01*
X213145000Y-37979000D02*
X213495000Y-37979000D01*
G75*
G02*
X213670000Y-38154000I0J-175000D01*
G01*
X213670000Y-40454000D01*
G75*
G02*
X213495000Y-40629000I-175000J0D01*
G01*
X213145000Y-40629000D01*
G75*
G02*
X212970000Y-40454000I0J175000D01*
G01*
X212970000Y-38154000D01*
G75*
G02*
X213145000Y-37979000I175000J0D01*
G01*
G37*
G36*
G01*
X214415000Y-37979000D02*
X214765000Y-37979000D01*
G75*
G02*
X214940000Y-38154000I0J-175000D01*
G01*
X214940000Y-40454000D01*
G75*
G02*
X214765000Y-40629000I-175000J0D01*
G01*
X214415000Y-40629000D01*
G75*
G02*
X214240000Y-40454000I0J175000D01*
G01*
X214240000Y-38154000D01*
G75*
G02*
X214415000Y-37979000I175000J0D01*
G01*
G37*
G36*
G01*
X215685000Y-37979000D02*
X216035000Y-37979000D01*
G75*
G02*
X216210000Y-38154000I0J-175000D01*
G01*
X216210000Y-40454000D01*
G75*
G02*
X216035000Y-40629000I-175000J0D01*
G01*
X215685000Y-40629000D01*
G75*
G02*
X215510000Y-40454000I0J175000D01*
G01*
X215510000Y-38154000D01*
G75*
G02*
X215685000Y-37979000I175000J0D01*
G01*
G37*
G36*
G01*
X216955000Y-37979000D02*
X217305000Y-37979000D01*
G75*
G02*
X217480000Y-38154000I0J-175000D01*
G01*
X217480000Y-40454000D01*
G75*
G02*
X217305000Y-40629000I-175000J0D01*
G01*
X216955000Y-40629000D01*
G75*
G02*
X216780000Y-40454000I0J175000D01*
G01*
X216780000Y-38154000D01*
G75*
G02*
X216955000Y-37979000I175000J0D01*
G01*
G37*
G36*
G01*
X218225000Y-37979000D02*
X218575000Y-37979000D01*
G75*
G02*
X218750000Y-38154000I0J-175000D01*
G01*
X218750000Y-40454000D01*
G75*
G02*
X218575000Y-40629000I-175000J0D01*
G01*
X218225000Y-40629000D01*
G75*
G02*
X218050000Y-40454000I0J175000D01*
G01*
X218050000Y-38154000D01*
G75*
G02*
X218225000Y-37979000I175000J0D01*
G01*
G37*
G36*
G01*
X219495000Y-37979000D02*
X219845000Y-37979000D01*
G75*
G02*
X220020000Y-38154000I0J-175000D01*
G01*
X220020000Y-40454000D01*
G75*
G02*
X219845000Y-40629000I-175000J0D01*
G01*
X219495000Y-40629000D01*
G75*
G02*
X219320000Y-40454000I0J175000D01*
G01*
X219320000Y-38154000D01*
G75*
G02*
X219495000Y-37979000I175000J0D01*
G01*
G37*
G36*
G01*
X220765000Y-37979000D02*
X221115000Y-37979000D01*
G75*
G02*
X221290000Y-38154000I0J-175000D01*
G01*
X221290000Y-40454000D01*
G75*
G02*
X221115000Y-40629000I-175000J0D01*
G01*
X220765000Y-40629000D01*
G75*
G02*
X220590000Y-40454000I0J175000D01*
G01*
X220590000Y-38154000D01*
G75*
G02*
X220765000Y-37979000I175000J0D01*
G01*
G37*
G36*
G01*
X222035000Y-37979000D02*
X222385000Y-37979000D01*
G75*
G02*
X222560000Y-38154000I0J-175000D01*
G01*
X222560000Y-40454000D01*
G75*
G02*
X222385000Y-40629000I-175000J0D01*
G01*
X222035000Y-40629000D01*
G75*
G02*
X221860000Y-40454000I0J175000D01*
G01*
X221860000Y-38154000D01*
G75*
G02*
X222035000Y-37979000I175000J0D01*
G01*
G37*
G36*
G01*
X223305000Y-37979000D02*
X223655000Y-37979000D01*
G75*
G02*
X223830000Y-38154000I0J-175000D01*
G01*
X223830000Y-40454000D01*
G75*
G02*
X223655000Y-40629000I-175000J0D01*
G01*
X223305000Y-40629000D01*
G75*
G02*
X223130000Y-40454000I0J175000D01*
G01*
X223130000Y-38154000D01*
G75*
G02*
X223305000Y-37979000I175000J0D01*
G01*
G37*
G36*
G01*
X224575000Y-37979000D02*
X224925000Y-37979000D01*
G75*
G02*
X225100000Y-38154000I0J-175000D01*
G01*
X225100000Y-40454000D01*
G75*
G02*
X224925000Y-40629000I-175000J0D01*
G01*
X224575000Y-40629000D01*
G75*
G02*
X224400000Y-40454000I0J175000D01*
G01*
X224400000Y-38154000D01*
G75*
G02*
X224575000Y-37979000I175000J0D01*
G01*
G37*
G36*
G01*
X225845000Y-37979000D02*
X226195000Y-37979000D01*
G75*
G02*
X226370000Y-38154000I0J-175000D01*
G01*
X226370000Y-40454000D01*
G75*
G02*
X226195000Y-40629000I-175000J0D01*
G01*
X225845000Y-40629000D01*
G75*
G02*
X225670000Y-40454000I0J175000D01*
G01*
X225670000Y-38154000D01*
G75*
G02*
X225845000Y-37979000I175000J0D01*
G01*
G37*
G36*
G01*
X227115000Y-37979000D02*
X227465000Y-37979000D01*
G75*
G02*
X227640000Y-38154000I0J-175000D01*
G01*
X227640000Y-40454000D01*
G75*
G02*
X227465000Y-40629000I-175000J0D01*
G01*
X227115000Y-40629000D01*
G75*
G02*
X226940000Y-40454000I0J175000D01*
G01*
X226940000Y-38154000D01*
G75*
G02*
X227115000Y-37979000I175000J0D01*
G01*
G37*
G36*
G01*
X228385000Y-37979000D02*
X228735000Y-37979000D01*
G75*
G02*
X228910000Y-38154000I0J-175000D01*
G01*
X228910000Y-40454000D01*
G75*
G02*
X228735000Y-40629000I-175000J0D01*
G01*
X228385000Y-40629000D01*
G75*
G02*
X228210000Y-40454000I0J175000D01*
G01*
X228210000Y-38154000D01*
G75*
G02*
X228385000Y-37979000I175000J0D01*
G01*
G37*
G36*
G01*
X229655000Y-37979000D02*
X230005000Y-37979000D01*
G75*
G02*
X230180000Y-38154000I0J-175000D01*
G01*
X230180000Y-40454000D01*
G75*
G02*
X230005000Y-40629000I-175000J0D01*
G01*
X229655000Y-40629000D01*
G75*
G02*
X229480000Y-40454000I0J175000D01*
G01*
X229480000Y-38154000D01*
G75*
G02*
X229655000Y-37979000I175000J0D01*
G01*
G37*
G36*
G01*
X230925000Y-37979000D02*
X231275000Y-37979000D01*
G75*
G02*
X231450000Y-38154000I0J-175000D01*
G01*
X231450000Y-40454000D01*
G75*
G02*
X231275000Y-40629000I-175000J0D01*
G01*
X230925000Y-40629000D01*
G75*
G02*
X230750000Y-40454000I0J175000D01*
G01*
X230750000Y-38154000D01*
G75*
G02*
X230925000Y-37979000I175000J0D01*
G01*
G37*
G36*
G01*
X232195000Y-37979000D02*
X232545000Y-37979000D01*
G75*
G02*
X232720000Y-38154000I0J-175000D01*
G01*
X232720000Y-40454000D01*
G75*
G02*
X232545000Y-40629000I-175000J0D01*
G01*
X232195000Y-40629000D01*
G75*
G02*
X232020000Y-40454000I0J175000D01*
G01*
X232020000Y-38154000D01*
G75*
G02*
X232195000Y-37979000I175000J0D01*
G01*
G37*
G36*
G01*
X233465000Y-37979000D02*
X233815000Y-37979000D01*
G75*
G02*
X233990000Y-38154000I0J-175000D01*
G01*
X233990000Y-40454000D01*
G75*
G02*
X233815000Y-40629000I-175000J0D01*
G01*
X233465000Y-40629000D01*
G75*
G02*
X233290000Y-40454000I0J175000D01*
G01*
X233290000Y-38154000D01*
G75*
G02*
X233465000Y-37979000I175000J0D01*
G01*
G37*
%TD*%
%TO.C,D7*%
G36*
G01*
X136798000Y-14324250D02*
X136798000Y-13361750D01*
G75*
G02*
X137066750Y-13093000I268750J0D01*
G01*
X137604250Y-13093000D01*
G75*
G02*
X137873000Y-13361750I0J-268750D01*
G01*
X137873000Y-14324250D01*
G75*
G02*
X137604250Y-14593000I-268750J0D01*
G01*
X137066750Y-14593000D01*
G75*
G02*
X136798000Y-14324250I0J268750D01*
G01*
G37*
G36*
G01*
X134923000Y-14324250D02*
X134923000Y-13361750D01*
G75*
G02*
X135191750Y-13093000I268750J0D01*
G01*
X135729250Y-13093000D01*
G75*
G02*
X135998000Y-13361750I0J-268750D01*
G01*
X135998000Y-14324250D01*
G75*
G02*
X135729250Y-14593000I-268750J0D01*
G01*
X135191750Y-14593000D01*
G75*
G02*
X134923000Y-14324250I0J268750D01*
G01*
G37*
%TD*%
D17*
%TO.C,S1*%
X81915000Y-128579000D03*
X88415000Y-128579000D03*
X88415000Y-124079000D03*
D18*
X81915000Y-124079000D03*
%TD*%
%TO.C,C13*%
G36*
G01*
X96382000Y-115366625D02*
X96382000Y-116535375D01*
G75*
G02*
X96116375Y-116801000I-265625J0D01*
G01*
X93047625Y-116801000D01*
G75*
G02*
X92782000Y-116535375I0J265625D01*
G01*
X92782000Y-115366625D01*
G75*
G02*
X93047625Y-115101000I265625J0D01*
G01*
X96116375Y-115101000D01*
G75*
G02*
X96382000Y-115366625I0J-265625D01*
G01*
G37*
G36*
G01*
X101782000Y-115366625D02*
X101782000Y-116535375D01*
G75*
G02*
X101516375Y-116801000I-265625J0D01*
G01*
X98447625Y-116801000D01*
G75*
G02*
X98182000Y-116535375I0J265625D01*
G01*
X98182000Y-115366625D01*
G75*
G02*
X98447625Y-115101000I265625J0D01*
G01*
X101516375Y-115101000D01*
G75*
G02*
X101782000Y-115366625I0J-265625D01*
G01*
G37*
%TD*%
%TO.C,C12*%
G36*
G01*
X102285625Y-143013000D02*
X103454375Y-143013000D01*
G75*
G02*
X103720000Y-143278625I0J-265625D01*
G01*
X103720000Y-146347375D01*
G75*
G02*
X103454375Y-146613000I-265625J0D01*
G01*
X102285625Y-146613000D01*
G75*
G02*
X102020000Y-146347375I0J265625D01*
G01*
X102020000Y-143278625D01*
G75*
G02*
X102285625Y-143013000I265625J0D01*
G01*
G37*
G36*
G01*
X102285625Y-137613000D02*
X103454375Y-137613000D01*
G75*
G02*
X103720000Y-137878625I0J-265625D01*
G01*
X103720000Y-140947375D01*
G75*
G02*
X103454375Y-141213000I-265625J0D01*
G01*
X102285625Y-141213000D01*
G75*
G02*
X102020000Y-140947375I0J265625D01*
G01*
X102020000Y-137878625D01*
G75*
G02*
X102285625Y-137613000I265625J0D01*
G01*
G37*
%TD*%
%TO.C,U13*%
G36*
G01*
X233338000Y-82655000D02*
X233688000Y-82655000D01*
G75*
G02*
X233863000Y-82830000I0J-175000D01*
G01*
X233863000Y-85130000D01*
G75*
G02*
X233688000Y-85305000I-175000J0D01*
G01*
X233338000Y-85305000D01*
G75*
G02*
X233163000Y-85130000I0J175000D01*
G01*
X233163000Y-82830000D01*
G75*
G02*
X233338000Y-82655000I175000J0D01*
G01*
G37*
G36*
G01*
X232068000Y-82655000D02*
X232418000Y-82655000D01*
G75*
G02*
X232593000Y-82830000I0J-175000D01*
G01*
X232593000Y-85130000D01*
G75*
G02*
X232418000Y-85305000I-175000J0D01*
G01*
X232068000Y-85305000D01*
G75*
G02*
X231893000Y-85130000I0J175000D01*
G01*
X231893000Y-82830000D01*
G75*
G02*
X232068000Y-82655000I175000J0D01*
G01*
G37*
G36*
G01*
X230798000Y-82655000D02*
X231148000Y-82655000D01*
G75*
G02*
X231323000Y-82830000I0J-175000D01*
G01*
X231323000Y-85130000D01*
G75*
G02*
X231148000Y-85305000I-175000J0D01*
G01*
X230798000Y-85305000D01*
G75*
G02*
X230623000Y-85130000I0J175000D01*
G01*
X230623000Y-82830000D01*
G75*
G02*
X230798000Y-82655000I175000J0D01*
G01*
G37*
G36*
G01*
X229528000Y-82655000D02*
X229878000Y-82655000D01*
G75*
G02*
X230053000Y-82830000I0J-175000D01*
G01*
X230053000Y-85130000D01*
G75*
G02*
X229878000Y-85305000I-175000J0D01*
G01*
X229528000Y-85305000D01*
G75*
G02*
X229353000Y-85130000I0J175000D01*
G01*
X229353000Y-82830000D01*
G75*
G02*
X229528000Y-82655000I175000J0D01*
G01*
G37*
G36*
G01*
X228258000Y-82655000D02*
X228608000Y-82655000D01*
G75*
G02*
X228783000Y-82830000I0J-175000D01*
G01*
X228783000Y-85130000D01*
G75*
G02*
X228608000Y-85305000I-175000J0D01*
G01*
X228258000Y-85305000D01*
G75*
G02*
X228083000Y-85130000I0J175000D01*
G01*
X228083000Y-82830000D01*
G75*
G02*
X228258000Y-82655000I175000J0D01*
G01*
G37*
G36*
G01*
X226988000Y-82655000D02*
X227338000Y-82655000D01*
G75*
G02*
X227513000Y-82830000I0J-175000D01*
G01*
X227513000Y-85130000D01*
G75*
G02*
X227338000Y-85305000I-175000J0D01*
G01*
X226988000Y-85305000D01*
G75*
G02*
X226813000Y-85130000I0J175000D01*
G01*
X226813000Y-82830000D01*
G75*
G02*
X226988000Y-82655000I175000J0D01*
G01*
G37*
G36*
G01*
X225718000Y-82655000D02*
X226068000Y-82655000D01*
G75*
G02*
X226243000Y-82830000I0J-175000D01*
G01*
X226243000Y-85130000D01*
G75*
G02*
X226068000Y-85305000I-175000J0D01*
G01*
X225718000Y-85305000D01*
G75*
G02*
X225543000Y-85130000I0J175000D01*
G01*
X225543000Y-82830000D01*
G75*
G02*
X225718000Y-82655000I175000J0D01*
G01*
G37*
G36*
G01*
X224448000Y-82655000D02*
X224798000Y-82655000D01*
G75*
G02*
X224973000Y-82830000I0J-175000D01*
G01*
X224973000Y-85130000D01*
G75*
G02*
X224798000Y-85305000I-175000J0D01*
G01*
X224448000Y-85305000D01*
G75*
G02*
X224273000Y-85130000I0J175000D01*
G01*
X224273000Y-82830000D01*
G75*
G02*
X224448000Y-82655000I175000J0D01*
G01*
G37*
G36*
G01*
X223178000Y-82655000D02*
X223528000Y-82655000D01*
G75*
G02*
X223703000Y-82830000I0J-175000D01*
G01*
X223703000Y-85130000D01*
G75*
G02*
X223528000Y-85305000I-175000J0D01*
G01*
X223178000Y-85305000D01*
G75*
G02*
X223003000Y-85130000I0J175000D01*
G01*
X223003000Y-82830000D01*
G75*
G02*
X223178000Y-82655000I175000J0D01*
G01*
G37*
G36*
G01*
X221908000Y-82655000D02*
X222258000Y-82655000D01*
G75*
G02*
X222433000Y-82830000I0J-175000D01*
G01*
X222433000Y-85130000D01*
G75*
G02*
X222258000Y-85305000I-175000J0D01*
G01*
X221908000Y-85305000D01*
G75*
G02*
X221733000Y-85130000I0J175000D01*
G01*
X221733000Y-82830000D01*
G75*
G02*
X221908000Y-82655000I175000J0D01*
G01*
G37*
G36*
G01*
X220638000Y-82655000D02*
X220988000Y-82655000D01*
G75*
G02*
X221163000Y-82830000I0J-175000D01*
G01*
X221163000Y-85130000D01*
G75*
G02*
X220988000Y-85305000I-175000J0D01*
G01*
X220638000Y-85305000D01*
G75*
G02*
X220463000Y-85130000I0J175000D01*
G01*
X220463000Y-82830000D01*
G75*
G02*
X220638000Y-82655000I175000J0D01*
G01*
G37*
G36*
G01*
X219368000Y-82655000D02*
X219718000Y-82655000D01*
G75*
G02*
X219893000Y-82830000I0J-175000D01*
G01*
X219893000Y-85130000D01*
G75*
G02*
X219718000Y-85305000I-175000J0D01*
G01*
X219368000Y-85305000D01*
G75*
G02*
X219193000Y-85130000I0J175000D01*
G01*
X219193000Y-82830000D01*
G75*
G02*
X219368000Y-82655000I175000J0D01*
G01*
G37*
G36*
G01*
X218098000Y-82655000D02*
X218448000Y-82655000D01*
G75*
G02*
X218623000Y-82830000I0J-175000D01*
G01*
X218623000Y-85130000D01*
G75*
G02*
X218448000Y-85305000I-175000J0D01*
G01*
X218098000Y-85305000D01*
G75*
G02*
X217923000Y-85130000I0J175000D01*
G01*
X217923000Y-82830000D01*
G75*
G02*
X218098000Y-82655000I175000J0D01*
G01*
G37*
G36*
G01*
X216828000Y-82655000D02*
X217178000Y-82655000D01*
G75*
G02*
X217353000Y-82830000I0J-175000D01*
G01*
X217353000Y-85130000D01*
G75*
G02*
X217178000Y-85305000I-175000J0D01*
G01*
X216828000Y-85305000D01*
G75*
G02*
X216653000Y-85130000I0J175000D01*
G01*
X216653000Y-82830000D01*
G75*
G02*
X216828000Y-82655000I175000J0D01*
G01*
G37*
G36*
G01*
X215558000Y-82655000D02*
X215908000Y-82655000D01*
G75*
G02*
X216083000Y-82830000I0J-175000D01*
G01*
X216083000Y-85130000D01*
G75*
G02*
X215908000Y-85305000I-175000J0D01*
G01*
X215558000Y-85305000D01*
G75*
G02*
X215383000Y-85130000I0J175000D01*
G01*
X215383000Y-82830000D01*
G75*
G02*
X215558000Y-82655000I175000J0D01*
G01*
G37*
G36*
G01*
X214288000Y-82655000D02*
X214638000Y-82655000D01*
G75*
G02*
X214813000Y-82830000I0J-175000D01*
G01*
X214813000Y-85130000D01*
G75*
G02*
X214638000Y-85305000I-175000J0D01*
G01*
X214288000Y-85305000D01*
G75*
G02*
X214113000Y-85130000I0J175000D01*
G01*
X214113000Y-82830000D01*
G75*
G02*
X214288000Y-82655000I175000J0D01*
G01*
G37*
G36*
G01*
X213018000Y-82655000D02*
X213368000Y-82655000D01*
G75*
G02*
X213543000Y-82830000I0J-175000D01*
G01*
X213543000Y-85130000D01*
G75*
G02*
X213368000Y-85305000I-175000J0D01*
G01*
X213018000Y-85305000D01*
G75*
G02*
X212843000Y-85130000I0J175000D01*
G01*
X212843000Y-82830000D01*
G75*
G02*
X213018000Y-82655000I175000J0D01*
G01*
G37*
G36*
G01*
X211748000Y-82655000D02*
X212098000Y-82655000D01*
G75*
G02*
X212273000Y-82830000I0J-175000D01*
G01*
X212273000Y-85130000D01*
G75*
G02*
X212098000Y-85305000I-175000J0D01*
G01*
X211748000Y-85305000D01*
G75*
G02*
X211573000Y-85130000I0J175000D01*
G01*
X211573000Y-82830000D01*
G75*
G02*
X211748000Y-82655000I175000J0D01*
G01*
G37*
G36*
G01*
X211748000Y-72455000D02*
X212098000Y-72455000D01*
G75*
G02*
X212273000Y-72630000I0J-175000D01*
G01*
X212273000Y-74930000D01*
G75*
G02*
X212098000Y-75105000I-175000J0D01*
G01*
X211748000Y-75105000D01*
G75*
G02*
X211573000Y-74930000I0J175000D01*
G01*
X211573000Y-72630000D01*
G75*
G02*
X211748000Y-72455000I175000J0D01*
G01*
G37*
G36*
G01*
X213018000Y-72455000D02*
X213368000Y-72455000D01*
G75*
G02*
X213543000Y-72630000I0J-175000D01*
G01*
X213543000Y-74930000D01*
G75*
G02*
X213368000Y-75105000I-175000J0D01*
G01*
X213018000Y-75105000D01*
G75*
G02*
X212843000Y-74930000I0J175000D01*
G01*
X212843000Y-72630000D01*
G75*
G02*
X213018000Y-72455000I175000J0D01*
G01*
G37*
G36*
G01*
X214288000Y-72455000D02*
X214638000Y-72455000D01*
G75*
G02*
X214813000Y-72630000I0J-175000D01*
G01*
X214813000Y-74930000D01*
G75*
G02*
X214638000Y-75105000I-175000J0D01*
G01*
X214288000Y-75105000D01*
G75*
G02*
X214113000Y-74930000I0J175000D01*
G01*
X214113000Y-72630000D01*
G75*
G02*
X214288000Y-72455000I175000J0D01*
G01*
G37*
G36*
G01*
X215558000Y-72455000D02*
X215908000Y-72455000D01*
G75*
G02*
X216083000Y-72630000I0J-175000D01*
G01*
X216083000Y-74930000D01*
G75*
G02*
X215908000Y-75105000I-175000J0D01*
G01*
X215558000Y-75105000D01*
G75*
G02*
X215383000Y-74930000I0J175000D01*
G01*
X215383000Y-72630000D01*
G75*
G02*
X215558000Y-72455000I175000J0D01*
G01*
G37*
G36*
G01*
X216828000Y-72455000D02*
X217178000Y-72455000D01*
G75*
G02*
X217353000Y-72630000I0J-175000D01*
G01*
X217353000Y-74930000D01*
G75*
G02*
X217178000Y-75105000I-175000J0D01*
G01*
X216828000Y-75105000D01*
G75*
G02*
X216653000Y-74930000I0J175000D01*
G01*
X216653000Y-72630000D01*
G75*
G02*
X216828000Y-72455000I175000J0D01*
G01*
G37*
G36*
G01*
X218098000Y-72455000D02*
X218448000Y-72455000D01*
G75*
G02*
X218623000Y-72630000I0J-175000D01*
G01*
X218623000Y-74930000D01*
G75*
G02*
X218448000Y-75105000I-175000J0D01*
G01*
X218098000Y-75105000D01*
G75*
G02*
X217923000Y-74930000I0J175000D01*
G01*
X217923000Y-72630000D01*
G75*
G02*
X218098000Y-72455000I175000J0D01*
G01*
G37*
G36*
G01*
X219368000Y-72455000D02*
X219718000Y-72455000D01*
G75*
G02*
X219893000Y-72630000I0J-175000D01*
G01*
X219893000Y-74930000D01*
G75*
G02*
X219718000Y-75105000I-175000J0D01*
G01*
X219368000Y-75105000D01*
G75*
G02*
X219193000Y-74930000I0J175000D01*
G01*
X219193000Y-72630000D01*
G75*
G02*
X219368000Y-72455000I175000J0D01*
G01*
G37*
G36*
G01*
X220638000Y-72455000D02*
X220988000Y-72455000D01*
G75*
G02*
X221163000Y-72630000I0J-175000D01*
G01*
X221163000Y-74930000D01*
G75*
G02*
X220988000Y-75105000I-175000J0D01*
G01*
X220638000Y-75105000D01*
G75*
G02*
X220463000Y-74930000I0J175000D01*
G01*
X220463000Y-72630000D01*
G75*
G02*
X220638000Y-72455000I175000J0D01*
G01*
G37*
G36*
G01*
X221908000Y-72455000D02*
X222258000Y-72455000D01*
G75*
G02*
X222433000Y-72630000I0J-175000D01*
G01*
X222433000Y-74930000D01*
G75*
G02*
X222258000Y-75105000I-175000J0D01*
G01*
X221908000Y-75105000D01*
G75*
G02*
X221733000Y-74930000I0J175000D01*
G01*
X221733000Y-72630000D01*
G75*
G02*
X221908000Y-72455000I175000J0D01*
G01*
G37*
G36*
G01*
X223178000Y-72455000D02*
X223528000Y-72455000D01*
G75*
G02*
X223703000Y-72630000I0J-175000D01*
G01*
X223703000Y-74930000D01*
G75*
G02*
X223528000Y-75105000I-175000J0D01*
G01*
X223178000Y-75105000D01*
G75*
G02*
X223003000Y-74930000I0J175000D01*
G01*
X223003000Y-72630000D01*
G75*
G02*
X223178000Y-72455000I175000J0D01*
G01*
G37*
G36*
G01*
X224448000Y-72455000D02*
X224798000Y-72455000D01*
G75*
G02*
X224973000Y-72630000I0J-175000D01*
G01*
X224973000Y-74930000D01*
G75*
G02*
X224798000Y-75105000I-175000J0D01*
G01*
X224448000Y-75105000D01*
G75*
G02*
X224273000Y-74930000I0J175000D01*
G01*
X224273000Y-72630000D01*
G75*
G02*
X224448000Y-72455000I175000J0D01*
G01*
G37*
G36*
G01*
X225718000Y-72455000D02*
X226068000Y-72455000D01*
G75*
G02*
X226243000Y-72630000I0J-175000D01*
G01*
X226243000Y-74930000D01*
G75*
G02*
X226068000Y-75105000I-175000J0D01*
G01*
X225718000Y-75105000D01*
G75*
G02*
X225543000Y-74930000I0J175000D01*
G01*
X225543000Y-72630000D01*
G75*
G02*
X225718000Y-72455000I175000J0D01*
G01*
G37*
G36*
G01*
X226988000Y-72455000D02*
X227338000Y-72455000D01*
G75*
G02*
X227513000Y-72630000I0J-175000D01*
G01*
X227513000Y-74930000D01*
G75*
G02*
X227338000Y-75105000I-175000J0D01*
G01*
X226988000Y-75105000D01*
G75*
G02*
X226813000Y-74930000I0J175000D01*
G01*
X226813000Y-72630000D01*
G75*
G02*
X226988000Y-72455000I175000J0D01*
G01*
G37*
G36*
G01*
X228258000Y-72455000D02*
X228608000Y-72455000D01*
G75*
G02*
X228783000Y-72630000I0J-175000D01*
G01*
X228783000Y-74930000D01*
G75*
G02*
X228608000Y-75105000I-175000J0D01*
G01*
X228258000Y-75105000D01*
G75*
G02*
X228083000Y-74930000I0J175000D01*
G01*
X228083000Y-72630000D01*
G75*
G02*
X228258000Y-72455000I175000J0D01*
G01*
G37*
G36*
G01*
X229528000Y-72455000D02*
X229878000Y-72455000D01*
G75*
G02*
X230053000Y-72630000I0J-175000D01*
G01*
X230053000Y-74930000D01*
G75*
G02*
X229878000Y-75105000I-175000J0D01*
G01*
X229528000Y-75105000D01*
G75*
G02*
X229353000Y-74930000I0J175000D01*
G01*
X229353000Y-72630000D01*
G75*
G02*
X229528000Y-72455000I175000J0D01*
G01*
G37*
G36*
G01*
X230798000Y-72455000D02*
X231148000Y-72455000D01*
G75*
G02*
X231323000Y-72630000I0J-175000D01*
G01*
X231323000Y-74930000D01*
G75*
G02*
X231148000Y-75105000I-175000J0D01*
G01*
X230798000Y-75105000D01*
G75*
G02*
X230623000Y-74930000I0J175000D01*
G01*
X230623000Y-72630000D01*
G75*
G02*
X230798000Y-72455000I175000J0D01*
G01*
G37*
G36*
G01*
X232068000Y-72455000D02*
X232418000Y-72455000D01*
G75*
G02*
X232593000Y-72630000I0J-175000D01*
G01*
X232593000Y-74930000D01*
G75*
G02*
X232418000Y-75105000I-175000J0D01*
G01*
X232068000Y-75105000D01*
G75*
G02*
X231893000Y-74930000I0J175000D01*
G01*
X231893000Y-72630000D01*
G75*
G02*
X232068000Y-72455000I175000J0D01*
G01*
G37*
G36*
G01*
X233338000Y-72455000D02*
X233688000Y-72455000D01*
G75*
G02*
X233863000Y-72630000I0J-175000D01*
G01*
X233863000Y-74930000D01*
G75*
G02*
X233688000Y-75105000I-175000J0D01*
G01*
X233338000Y-75105000D01*
G75*
G02*
X233163000Y-74930000I0J175000D01*
G01*
X233163000Y-72630000D01*
G75*
G02*
X233338000Y-72455000I175000J0D01*
G01*
G37*
%TD*%
%TO.C,U12*%
G36*
G01*
X261338000Y-82655000D02*
X261688000Y-82655000D01*
G75*
G02*
X261863000Y-82830000I0J-175000D01*
G01*
X261863000Y-85130000D01*
G75*
G02*
X261688000Y-85305000I-175000J0D01*
G01*
X261338000Y-85305000D01*
G75*
G02*
X261163000Y-85130000I0J175000D01*
G01*
X261163000Y-82830000D01*
G75*
G02*
X261338000Y-82655000I175000J0D01*
G01*
G37*
G36*
G01*
X260068000Y-82655000D02*
X260418000Y-82655000D01*
G75*
G02*
X260593000Y-82830000I0J-175000D01*
G01*
X260593000Y-85130000D01*
G75*
G02*
X260418000Y-85305000I-175000J0D01*
G01*
X260068000Y-85305000D01*
G75*
G02*
X259893000Y-85130000I0J175000D01*
G01*
X259893000Y-82830000D01*
G75*
G02*
X260068000Y-82655000I175000J0D01*
G01*
G37*
G36*
G01*
X258798000Y-82655000D02*
X259148000Y-82655000D01*
G75*
G02*
X259323000Y-82830000I0J-175000D01*
G01*
X259323000Y-85130000D01*
G75*
G02*
X259148000Y-85305000I-175000J0D01*
G01*
X258798000Y-85305000D01*
G75*
G02*
X258623000Y-85130000I0J175000D01*
G01*
X258623000Y-82830000D01*
G75*
G02*
X258798000Y-82655000I175000J0D01*
G01*
G37*
G36*
G01*
X257528000Y-82655000D02*
X257878000Y-82655000D01*
G75*
G02*
X258053000Y-82830000I0J-175000D01*
G01*
X258053000Y-85130000D01*
G75*
G02*
X257878000Y-85305000I-175000J0D01*
G01*
X257528000Y-85305000D01*
G75*
G02*
X257353000Y-85130000I0J175000D01*
G01*
X257353000Y-82830000D01*
G75*
G02*
X257528000Y-82655000I175000J0D01*
G01*
G37*
G36*
G01*
X256258000Y-82655000D02*
X256608000Y-82655000D01*
G75*
G02*
X256783000Y-82830000I0J-175000D01*
G01*
X256783000Y-85130000D01*
G75*
G02*
X256608000Y-85305000I-175000J0D01*
G01*
X256258000Y-85305000D01*
G75*
G02*
X256083000Y-85130000I0J175000D01*
G01*
X256083000Y-82830000D01*
G75*
G02*
X256258000Y-82655000I175000J0D01*
G01*
G37*
G36*
G01*
X254988000Y-82655000D02*
X255338000Y-82655000D01*
G75*
G02*
X255513000Y-82830000I0J-175000D01*
G01*
X255513000Y-85130000D01*
G75*
G02*
X255338000Y-85305000I-175000J0D01*
G01*
X254988000Y-85305000D01*
G75*
G02*
X254813000Y-85130000I0J175000D01*
G01*
X254813000Y-82830000D01*
G75*
G02*
X254988000Y-82655000I175000J0D01*
G01*
G37*
G36*
G01*
X253718000Y-82655000D02*
X254068000Y-82655000D01*
G75*
G02*
X254243000Y-82830000I0J-175000D01*
G01*
X254243000Y-85130000D01*
G75*
G02*
X254068000Y-85305000I-175000J0D01*
G01*
X253718000Y-85305000D01*
G75*
G02*
X253543000Y-85130000I0J175000D01*
G01*
X253543000Y-82830000D01*
G75*
G02*
X253718000Y-82655000I175000J0D01*
G01*
G37*
G36*
G01*
X252448000Y-82655000D02*
X252798000Y-82655000D01*
G75*
G02*
X252973000Y-82830000I0J-175000D01*
G01*
X252973000Y-85130000D01*
G75*
G02*
X252798000Y-85305000I-175000J0D01*
G01*
X252448000Y-85305000D01*
G75*
G02*
X252273000Y-85130000I0J175000D01*
G01*
X252273000Y-82830000D01*
G75*
G02*
X252448000Y-82655000I175000J0D01*
G01*
G37*
G36*
G01*
X251178000Y-82655000D02*
X251528000Y-82655000D01*
G75*
G02*
X251703000Y-82830000I0J-175000D01*
G01*
X251703000Y-85130000D01*
G75*
G02*
X251528000Y-85305000I-175000J0D01*
G01*
X251178000Y-85305000D01*
G75*
G02*
X251003000Y-85130000I0J175000D01*
G01*
X251003000Y-82830000D01*
G75*
G02*
X251178000Y-82655000I175000J0D01*
G01*
G37*
G36*
G01*
X249908000Y-82655000D02*
X250258000Y-82655000D01*
G75*
G02*
X250433000Y-82830000I0J-175000D01*
G01*
X250433000Y-85130000D01*
G75*
G02*
X250258000Y-85305000I-175000J0D01*
G01*
X249908000Y-85305000D01*
G75*
G02*
X249733000Y-85130000I0J175000D01*
G01*
X249733000Y-82830000D01*
G75*
G02*
X249908000Y-82655000I175000J0D01*
G01*
G37*
G36*
G01*
X248638000Y-82655000D02*
X248988000Y-82655000D01*
G75*
G02*
X249163000Y-82830000I0J-175000D01*
G01*
X249163000Y-85130000D01*
G75*
G02*
X248988000Y-85305000I-175000J0D01*
G01*
X248638000Y-85305000D01*
G75*
G02*
X248463000Y-85130000I0J175000D01*
G01*
X248463000Y-82830000D01*
G75*
G02*
X248638000Y-82655000I175000J0D01*
G01*
G37*
G36*
G01*
X247368000Y-82655000D02*
X247718000Y-82655000D01*
G75*
G02*
X247893000Y-82830000I0J-175000D01*
G01*
X247893000Y-85130000D01*
G75*
G02*
X247718000Y-85305000I-175000J0D01*
G01*
X247368000Y-85305000D01*
G75*
G02*
X247193000Y-85130000I0J175000D01*
G01*
X247193000Y-82830000D01*
G75*
G02*
X247368000Y-82655000I175000J0D01*
G01*
G37*
G36*
G01*
X246098000Y-82655000D02*
X246448000Y-82655000D01*
G75*
G02*
X246623000Y-82830000I0J-175000D01*
G01*
X246623000Y-85130000D01*
G75*
G02*
X246448000Y-85305000I-175000J0D01*
G01*
X246098000Y-85305000D01*
G75*
G02*
X245923000Y-85130000I0J175000D01*
G01*
X245923000Y-82830000D01*
G75*
G02*
X246098000Y-82655000I175000J0D01*
G01*
G37*
G36*
G01*
X244828000Y-82655000D02*
X245178000Y-82655000D01*
G75*
G02*
X245353000Y-82830000I0J-175000D01*
G01*
X245353000Y-85130000D01*
G75*
G02*
X245178000Y-85305000I-175000J0D01*
G01*
X244828000Y-85305000D01*
G75*
G02*
X244653000Y-85130000I0J175000D01*
G01*
X244653000Y-82830000D01*
G75*
G02*
X244828000Y-82655000I175000J0D01*
G01*
G37*
G36*
G01*
X243558000Y-82655000D02*
X243908000Y-82655000D01*
G75*
G02*
X244083000Y-82830000I0J-175000D01*
G01*
X244083000Y-85130000D01*
G75*
G02*
X243908000Y-85305000I-175000J0D01*
G01*
X243558000Y-85305000D01*
G75*
G02*
X243383000Y-85130000I0J175000D01*
G01*
X243383000Y-82830000D01*
G75*
G02*
X243558000Y-82655000I175000J0D01*
G01*
G37*
G36*
G01*
X242288000Y-82655000D02*
X242638000Y-82655000D01*
G75*
G02*
X242813000Y-82830000I0J-175000D01*
G01*
X242813000Y-85130000D01*
G75*
G02*
X242638000Y-85305000I-175000J0D01*
G01*
X242288000Y-85305000D01*
G75*
G02*
X242113000Y-85130000I0J175000D01*
G01*
X242113000Y-82830000D01*
G75*
G02*
X242288000Y-82655000I175000J0D01*
G01*
G37*
G36*
G01*
X241018000Y-82655000D02*
X241368000Y-82655000D01*
G75*
G02*
X241543000Y-82830000I0J-175000D01*
G01*
X241543000Y-85130000D01*
G75*
G02*
X241368000Y-85305000I-175000J0D01*
G01*
X241018000Y-85305000D01*
G75*
G02*
X240843000Y-85130000I0J175000D01*
G01*
X240843000Y-82830000D01*
G75*
G02*
X241018000Y-82655000I175000J0D01*
G01*
G37*
G36*
G01*
X239748000Y-82655000D02*
X240098000Y-82655000D01*
G75*
G02*
X240273000Y-82830000I0J-175000D01*
G01*
X240273000Y-85130000D01*
G75*
G02*
X240098000Y-85305000I-175000J0D01*
G01*
X239748000Y-85305000D01*
G75*
G02*
X239573000Y-85130000I0J175000D01*
G01*
X239573000Y-82830000D01*
G75*
G02*
X239748000Y-82655000I175000J0D01*
G01*
G37*
G36*
G01*
X239748000Y-72455000D02*
X240098000Y-72455000D01*
G75*
G02*
X240273000Y-72630000I0J-175000D01*
G01*
X240273000Y-74930000D01*
G75*
G02*
X240098000Y-75105000I-175000J0D01*
G01*
X239748000Y-75105000D01*
G75*
G02*
X239573000Y-74930000I0J175000D01*
G01*
X239573000Y-72630000D01*
G75*
G02*
X239748000Y-72455000I175000J0D01*
G01*
G37*
G36*
G01*
X241018000Y-72455000D02*
X241368000Y-72455000D01*
G75*
G02*
X241543000Y-72630000I0J-175000D01*
G01*
X241543000Y-74930000D01*
G75*
G02*
X241368000Y-75105000I-175000J0D01*
G01*
X241018000Y-75105000D01*
G75*
G02*
X240843000Y-74930000I0J175000D01*
G01*
X240843000Y-72630000D01*
G75*
G02*
X241018000Y-72455000I175000J0D01*
G01*
G37*
G36*
G01*
X242288000Y-72455000D02*
X242638000Y-72455000D01*
G75*
G02*
X242813000Y-72630000I0J-175000D01*
G01*
X242813000Y-74930000D01*
G75*
G02*
X242638000Y-75105000I-175000J0D01*
G01*
X242288000Y-75105000D01*
G75*
G02*
X242113000Y-74930000I0J175000D01*
G01*
X242113000Y-72630000D01*
G75*
G02*
X242288000Y-72455000I175000J0D01*
G01*
G37*
G36*
G01*
X243558000Y-72455000D02*
X243908000Y-72455000D01*
G75*
G02*
X244083000Y-72630000I0J-175000D01*
G01*
X244083000Y-74930000D01*
G75*
G02*
X243908000Y-75105000I-175000J0D01*
G01*
X243558000Y-75105000D01*
G75*
G02*
X243383000Y-74930000I0J175000D01*
G01*
X243383000Y-72630000D01*
G75*
G02*
X243558000Y-72455000I175000J0D01*
G01*
G37*
G36*
G01*
X244828000Y-72455000D02*
X245178000Y-72455000D01*
G75*
G02*
X245353000Y-72630000I0J-175000D01*
G01*
X245353000Y-74930000D01*
G75*
G02*
X245178000Y-75105000I-175000J0D01*
G01*
X244828000Y-75105000D01*
G75*
G02*
X244653000Y-74930000I0J175000D01*
G01*
X244653000Y-72630000D01*
G75*
G02*
X244828000Y-72455000I175000J0D01*
G01*
G37*
G36*
G01*
X246098000Y-72455000D02*
X246448000Y-72455000D01*
G75*
G02*
X246623000Y-72630000I0J-175000D01*
G01*
X246623000Y-74930000D01*
G75*
G02*
X246448000Y-75105000I-175000J0D01*
G01*
X246098000Y-75105000D01*
G75*
G02*
X245923000Y-74930000I0J175000D01*
G01*
X245923000Y-72630000D01*
G75*
G02*
X246098000Y-72455000I175000J0D01*
G01*
G37*
G36*
G01*
X247368000Y-72455000D02*
X247718000Y-72455000D01*
G75*
G02*
X247893000Y-72630000I0J-175000D01*
G01*
X247893000Y-74930000D01*
G75*
G02*
X247718000Y-75105000I-175000J0D01*
G01*
X247368000Y-75105000D01*
G75*
G02*
X247193000Y-74930000I0J175000D01*
G01*
X247193000Y-72630000D01*
G75*
G02*
X247368000Y-72455000I175000J0D01*
G01*
G37*
G36*
G01*
X248638000Y-72455000D02*
X248988000Y-72455000D01*
G75*
G02*
X249163000Y-72630000I0J-175000D01*
G01*
X249163000Y-74930000D01*
G75*
G02*
X248988000Y-75105000I-175000J0D01*
G01*
X248638000Y-75105000D01*
G75*
G02*
X248463000Y-74930000I0J175000D01*
G01*
X248463000Y-72630000D01*
G75*
G02*
X248638000Y-72455000I175000J0D01*
G01*
G37*
G36*
G01*
X249908000Y-72455000D02*
X250258000Y-72455000D01*
G75*
G02*
X250433000Y-72630000I0J-175000D01*
G01*
X250433000Y-74930000D01*
G75*
G02*
X250258000Y-75105000I-175000J0D01*
G01*
X249908000Y-75105000D01*
G75*
G02*
X249733000Y-74930000I0J175000D01*
G01*
X249733000Y-72630000D01*
G75*
G02*
X249908000Y-72455000I175000J0D01*
G01*
G37*
G36*
G01*
X251178000Y-72455000D02*
X251528000Y-72455000D01*
G75*
G02*
X251703000Y-72630000I0J-175000D01*
G01*
X251703000Y-74930000D01*
G75*
G02*
X251528000Y-75105000I-175000J0D01*
G01*
X251178000Y-75105000D01*
G75*
G02*
X251003000Y-74930000I0J175000D01*
G01*
X251003000Y-72630000D01*
G75*
G02*
X251178000Y-72455000I175000J0D01*
G01*
G37*
G36*
G01*
X252448000Y-72455000D02*
X252798000Y-72455000D01*
G75*
G02*
X252973000Y-72630000I0J-175000D01*
G01*
X252973000Y-74930000D01*
G75*
G02*
X252798000Y-75105000I-175000J0D01*
G01*
X252448000Y-75105000D01*
G75*
G02*
X252273000Y-74930000I0J175000D01*
G01*
X252273000Y-72630000D01*
G75*
G02*
X252448000Y-72455000I175000J0D01*
G01*
G37*
G36*
G01*
X253718000Y-72455000D02*
X254068000Y-72455000D01*
G75*
G02*
X254243000Y-72630000I0J-175000D01*
G01*
X254243000Y-74930000D01*
G75*
G02*
X254068000Y-75105000I-175000J0D01*
G01*
X253718000Y-75105000D01*
G75*
G02*
X253543000Y-74930000I0J175000D01*
G01*
X253543000Y-72630000D01*
G75*
G02*
X253718000Y-72455000I175000J0D01*
G01*
G37*
G36*
G01*
X254988000Y-72455000D02*
X255338000Y-72455000D01*
G75*
G02*
X255513000Y-72630000I0J-175000D01*
G01*
X255513000Y-74930000D01*
G75*
G02*
X255338000Y-75105000I-175000J0D01*
G01*
X254988000Y-75105000D01*
G75*
G02*
X254813000Y-74930000I0J175000D01*
G01*
X254813000Y-72630000D01*
G75*
G02*
X254988000Y-72455000I175000J0D01*
G01*
G37*
G36*
G01*
X256258000Y-72455000D02*
X256608000Y-72455000D01*
G75*
G02*
X256783000Y-72630000I0J-175000D01*
G01*
X256783000Y-74930000D01*
G75*
G02*
X256608000Y-75105000I-175000J0D01*
G01*
X256258000Y-75105000D01*
G75*
G02*
X256083000Y-74930000I0J175000D01*
G01*
X256083000Y-72630000D01*
G75*
G02*
X256258000Y-72455000I175000J0D01*
G01*
G37*
G36*
G01*
X257528000Y-72455000D02*
X257878000Y-72455000D01*
G75*
G02*
X258053000Y-72630000I0J-175000D01*
G01*
X258053000Y-74930000D01*
G75*
G02*
X257878000Y-75105000I-175000J0D01*
G01*
X257528000Y-75105000D01*
G75*
G02*
X257353000Y-74930000I0J175000D01*
G01*
X257353000Y-72630000D01*
G75*
G02*
X257528000Y-72455000I175000J0D01*
G01*
G37*
G36*
G01*
X258798000Y-72455000D02*
X259148000Y-72455000D01*
G75*
G02*
X259323000Y-72630000I0J-175000D01*
G01*
X259323000Y-74930000D01*
G75*
G02*
X259148000Y-75105000I-175000J0D01*
G01*
X258798000Y-75105000D01*
G75*
G02*
X258623000Y-74930000I0J175000D01*
G01*
X258623000Y-72630000D01*
G75*
G02*
X258798000Y-72455000I175000J0D01*
G01*
G37*
G36*
G01*
X260068000Y-72455000D02*
X260418000Y-72455000D01*
G75*
G02*
X260593000Y-72630000I0J-175000D01*
G01*
X260593000Y-74930000D01*
G75*
G02*
X260418000Y-75105000I-175000J0D01*
G01*
X260068000Y-75105000D01*
G75*
G02*
X259893000Y-74930000I0J175000D01*
G01*
X259893000Y-72630000D01*
G75*
G02*
X260068000Y-72455000I175000J0D01*
G01*
G37*
G36*
G01*
X261338000Y-72455000D02*
X261688000Y-72455000D01*
G75*
G02*
X261863000Y-72630000I0J-175000D01*
G01*
X261863000Y-74930000D01*
G75*
G02*
X261688000Y-75105000I-175000J0D01*
G01*
X261338000Y-75105000D01*
G75*
G02*
X261163000Y-74930000I0J175000D01*
G01*
X261163000Y-72630000D01*
G75*
G02*
X261338000Y-72455000I175000J0D01*
G01*
G37*
%TD*%
%TO.C,U11*%
G36*
G01*
X233338000Y-99893000D02*
X233688000Y-99893000D01*
G75*
G02*
X233863000Y-100068000I0J-175000D01*
G01*
X233863000Y-102368000D01*
G75*
G02*
X233688000Y-102543000I-175000J0D01*
G01*
X233338000Y-102543000D01*
G75*
G02*
X233163000Y-102368000I0J175000D01*
G01*
X233163000Y-100068000D01*
G75*
G02*
X233338000Y-99893000I175000J0D01*
G01*
G37*
G36*
G01*
X232068000Y-99893000D02*
X232418000Y-99893000D01*
G75*
G02*
X232593000Y-100068000I0J-175000D01*
G01*
X232593000Y-102368000D01*
G75*
G02*
X232418000Y-102543000I-175000J0D01*
G01*
X232068000Y-102543000D01*
G75*
G02*
X231893000Y-102368000I0J175000D01*
G01*
X231893000Y-100068000D01*
G75*
G02*
X232068000Y-99893000I175000J0D01*
G01*
G37*
G36*
G01*
X230798000Y-99893000D02*
X231148000Y-99893000D01*
G75*
G02*
X231323000Y-100068000I0J-175000D01*
G01*
X231323000Y-102368000D01*
G75*
G02*
X231148000Y-102543000I-175000J0D01*
G01*
X230798000Y-102543000D01*
G75*
G02*
X230623000Y-102368000I0J175000D01*
G01*
X230623000Y-100068000D01*
G75*
G02*
X230798000Y-99893000I175000J0D01*
G01*
G37*
G36*
G01*
X229528000Y-99893000D02*
X229878000Y-99893000D01*
G75*
G02*
X230053000Y-100068000I0J-175000D01*
G01*
X230053000Y-102368000D01*
G75*
G02*
X229878000Y-102543000I-175000J0D01*
G01*
X229528000Y-102543000D01*
G75*
G02*
X229353000Y-102368000I0J175000D01*
G01*
X229353000Y-100068000D01*
G75*
G02*
X229528000Y-99893000I175000J0D01*
G01*
G37*
G36*
G01*
X228258000Y-99893000D02*
X228608000Y-99893000D01*
G75*
G02*
X228783000Y-100068000I0J-175000D01*
G01*
X228783000Y-102368000D01*
G75*
G02*
X228608000Y-102543000I-175000J0D01*
G01*
X228258000Y-102543000D01*
G75*
G02*
X228083000Y-102368000I0J175000D01*
G01*
X228083000Y-100068000D01*
G75*
G02*
X228258000Y-99893000I175000J0D01*
G01*
G37*
G36*
G01*
X226988000Y-99893000D02*
X227338000Y-99893000D01*
G75*
G02*
X227513000Y-100068000I0J-175000D01*
G01*
X227513000Y-102368000D01*
G75*
G02*
X227338000Y-102543000I-175000J0D01*
G01*
X226988000Y-102543000D01*
G75*
G02*
X226813000Y-102368000I0J175000D01*
G01*
X226813000Y-100068000D01*
G75*
G02*
X226988000Y-99893000I175000J0D01*
G01*
G37*
G36*
G01*
X225718000Y-99893000D02*
X226068000Y-99893000D01*
G75*
G02*
X226243000Y-100068000I0J-175000D01*
G01*
X226243000Y-102368000D01*
G75*
G02*
X226068000Y-102543000I-175000J0D01*
G01*
X225718000Y-102543000D01*
G75*
G02*
X225543000Y-102368000I0J175000D01*
G01*
X225543000Y-100068000D01*
G75*
G02*
X225718000Y-99893000I175000J0D01*
G01*
G37*
G36*
G01*
X224448000Y-99893000D02*
X224798000Y-99893000D01*
G75*
G02*
X224973000Y-100068000I0J-175000D01*
G01*
X224973000Y-102368000D01*
G75*
G02*
X224798000Y-102543000I-175000J0D01*
G01*
X224448000Y-102543000D01*
G75*
G02*
X224273000Y-102368000I0J175000D01*
G01*
X224273000Y-100068000D01*
G75*
G02*
X224448000Y-99893000I175000J0D01*
G01*
G37*
G36*
G01*
X223178000Y-99893000D02*
X223528000Y-99893000D01*
G75*
G02*
X223703000Y-100068000I0J-175000D01*
G01*
X223703000Y-102368000D01*
G75*
G02*
X223528000Y-102543000I-175000J0D01*
G01*
X223178000Y-102543000D01*
G75*
G02*
X223003000Y-102368000I0J175000D01*
G01*
X223003000Y-100068000D01*
G75*
G02*
X223178000Y-99893000I175000J0D01*
G01*
G37*
G36*
G01*
X221908000Y-99893000D02*
X222258000Y-99893000D01*
G75*
G02*
X222433000Y-100068000I0J-175000D01*
G01*
X222433000Y-102368000D01*
G75*
G02*
X222258000Y-102543000I-175000J0D01*
G01*
X221908000Y-102543000D01*
G75*
G02*
X221733000Y-102368000I0J175000D01*
G01*
X221733000Y-100068000D01*
G75*
G02*
X221908000Y-99893000I175000J0D01*
G01*
G37*
G36*
G01*
X220638000Y-99893000D02*
X220988000Y-99893000D01*
G75*
G02*
X221163000Y-100068000I0J-175000D01*
G01*
X221163000Y-102368000D01*
G75*
G02*
X220988000Y-102543000I-175000J0D01*
G01*
X220638000Y-102543000D01*
G75*
G02*
X220463000Y-102368000I0J175000D01*
G01*
X220463000Y-100068000D01*
G75*
G02*
X220638000Y-99893000I175000J0D01*
G01*
G37*
G36*
G01*
X219368000Y-99893000D02*
X219718000Y-99893000D01*
G75*
G02*
X219893000Y-100068000I0J-175000D01*
G01*
X219893000Y-102368000D01*
G75*
G02*
X219718000Y-102543000I-175000J0D01*
G01*
X219368000Y-102543000D01*
G75*
G02*
X219193000Y-102368000I0J175000D01*
G01*
X219193000Y-100068000D01*
G75*
G02*
X219368000Y-99893000I175000J0D01*
G01*
G37*
G36*
G01*
X218098000Y-99893000D02*
X218448000Y-99893000D01*
G75*
G02*
X218623000Y-100068000I0J-175000D01*
G01*
X218623000Y-102368000D01*
G75*
G02*
X218448000Y-102543000I-175000J0D01*
G01*
X218098000Y-102543000D01*
G75*
G02*
X217923000Y-102368000I0J175000D01*
G01*
X217923000Y-100068000D01*
G75*
G02*
X218098000Y-99893000I175000J0D01*
G01*
G37*
G36*
G01*
X216828000Y-99893000D02*
X217178000Y-99893000D01*
G75*
G02*
X217353000Y-100068000I0J-175000D01*
G01*
X217353000Y-102368000D01*
G75*
G02*
X217178000Y-102543000I-175000J0D01*
G01*
X216828000Y-102543000D01*
G75*
G02*
X216653000Y-102368000I0J175000D01*
G01*
X216653000Y-100068000D01*
G75*
G02*
X216828000Y-99893000I175000J0D01*
G01*
G37*
G36*
G01*
X215558000Y-99893000D02*
X215908000Y-99893000D01*
G75*
G02*
X216083000Y-100068000I0J-175000D01*
G01*
X216083000Y-102368000D01*
G75*
G02*
X215908000Y-102543000I-175000J0D01*
G01*
X215558000Y-102543000D01*
G75*
G02*
X215383000Y-102368000I0J175000D01*
G01*
X215383000Y-100068000D01*
G75*
G02*
X215558000Y-99893000I175000J0D01*
G01*
G37*
G36*
G01*
X214288000Y-99893000D02*
X214638000Y-99893000D01*
G75*
G02*
X214813000Y-100068000I0J-175000D01*
G01*
X214813000Y-102368000D01*
G75*
G02*
X214638000Y-102543000I-175000J0D01*
G01*
X214288000Y-102543000D01*
G75*
G02*
X214113000Y-102368000I0J175000D01*
G01*
X214113000Y-100068000D01*
G75*
G02*
X214288000Y-99893000I175000J0D01*
G01*
G37*
G36*
G01*
X213018000Y-99893000D02*
X213368000Y-99893000D01*
G75*
G02*
X213543000Y-100068000I0J-175000D01*
G01*
X213543000Y-102368000D01*
G75*
G02*
X213368000Y-102543000I-175000J0D01*
G01*
X213018000Y-102543000D01*
G75*
G02*
X212843000Y-102368000I0J175000D01*
G01*
X212843000Y-100068000D01*
G75*
G02*
X213018000Y-99893000I175000J0D01*
G01*
G37*
G36*
G01*
X211748000Y-99893000D02*
X212098000Y-99893000D01*
G75*
G02*
X212273000Y-100068000I0J-175000D01*
G01*
X212273000Y-102368000D01*
G75*
G02*
X212098000Y-102543000I-175000J0D01*
G01*
X211748000Y-102543000D01*
G75*
G02*
X211573000Y-102368000I0J175000D01*
G01*
X211573000Y-100068000D01*
G75*
G02*
X211748000Y-99893000I175000J0D01*
G01*
G37*
G36*
G01*
X211748000Y-89693000D02*
X212098000Y-89693000D01*
G75*
G02*
X212273000Y-89868000I0J-175000D01*
G01*
X212273000Y-92168000D01*
G75*
G02*
X212098000Y-92343000I-175000J0D01*
G01*
X211748000Y-92343000D01*
G75*
G02*
X211573000Y-92168000I0J175000D01*
G01*
X211573000Y-89868000D01*
G75*
G02*
X211748000Y-89693000I175000J0D01*
G01*
G37*
G36*
G01*
X213018000Y-89693000D02*
X213368000Y-89693000D01*
G75*
G02*
X213543000Y-89868000I0J-175000D01*
G01*
X213543000Y-92168000D01*
G75*
G02*
X213368000Y-92343000I-175000J0D01*
G01*
X213018000Y-92343000D01*
G75*
G02*
X212843000Y-92168000I0J175000D01*
G01*
X212843000Y-89868000D01*
G75*
G02*
X213018000Y-89693000I175000J0D01*
G01*
G37*
G36*
G01*
X214288000Y-89693000D02*
X214638000Y-89693000D01*
G75*
G02*
X214813000Y-89868000I0J-175000D01*
G01*
X214813000Y-92168000D01*
G75*
G02*
X214638000Y-92343000I-175000J0D01*
G01*
X214288000Y-92343000D01*
G75*
G02*
X214113000Y-92168000I0J175000D01*
G01*
X214113000Y-89868000D01*
G75*
G02*
X214288000Y-89693000I175000J0D01*
G01*
G37*
G36*
G01*
X215558000Y-89693000D02*
X215908000Y-89693000D01*
G75*
G02*
X216083000Y-89868000I0J-175000D01*
G01*
X216083000Y-92168000D01*
G75*
G02*
X215908000Y-92343000I-175000J0D01*
G01*
X215558000Y-92343000D01*
G75*
G02*
X215383000Y-92168000I0J175000D01*
G01*
X215383000Y-89868000D01*
G75*
G02*
X215558000Y-89693000I175000J0D01*
G01*
G37*
G36*
G01*
X216828000Y-89693000D02*
X217178000Y-89693000D01*
G75*
G02*
X217353000Y-89868000I0J-175000D01*
G01*
X217353000Y-92168000D01*
G75*
G02*
X217178000Y-92343000I-175000J0D01*
G01*
X216828000Y-92343000D01*
G75*
G02*
X216653000Y-92168000I0J175000D01*
G01*
X216653000Y-89868000D01*
G75*
G02*
X216828000Y-89693000I175000J0D01*
G01*
G37*
G36*
G01*
X218098000Y-89693000D02*
X218448000Y-89693000D01*
G75*
G02*
X218623000Y-89868000I0J-175000D01*
G01*
X218623000Y-92168000D01*
G75*
G02*
X218448000Y-92343000I-175000J0D01*
G01*
X218098000Y-92343000D01*
G75*
G02*
X217923000Y-92168000I0J175000D01*
G01*
X217923000Y-89868000D01*
G75*
G02*
X218098000Y-89693000I175000J0D01*
G01*
G37*
G36*
G01*
X219368000Y-89693000D02*
X219718000Y-89693000D01*
G75*
G02*
X219893000Y-89868000I0J-175000D01*
G01*
X219893000Y-92168000D01*
G75*
G02*
X219718000Y-92343000I-175000J0D01*
G01*
X219368000Y-92343000D01*
G75*
G02*
X219193000Y-92168000I0J175000D01*
G01*
X219193000Y-89868000D01*
G75*
G02*
X219368000Y-89693000I175000J0D01*
G01*
G37*
G36*
G01*
X220638000Y-89693000D02*
X220988000Y-89693000D01*
G75*
G02*
X221163000Y-89868000I0J-175000D01*
G01*
X221163000Y-92168000D01*
G75*
G02*
X220988000Y-92343000I-175000J0D01*
G01*
X220638000Y-92343000D01*
G75*
G02*
X220463000Y-92168000I0J175000D01*
G01*
X220463000Y-89868000D01*
G75*
G02*
X220638000Y-89693000I175000J0D01*
G01*
G37*
G36*
G01*
X221908000Y-89693000D02*
X222258000Y-89693000D01*
G75*
G02*
X222433000Y-89868000I0J-175000D01*
G01*
X222433000Y-92168000D01*
G75*
G02*
X222258000Y-92343000I-175000J0D01*
G01*
X221908000Y-92343000D01*
G75*
G02*
X221733000Y-92168000I0J175000D01*
G01*
X221733000Y-89868000D01*
G75*
G02*
X221908000Y-89693000I175000J0D01*
G01*
G37*
G36*
G01*
X223178000Y-89693000D02*
X223528000Y-89693000D01*
G75*
G02*
X223703000Y-89868000I0J-175000D01*
G01*
X223703000Y-92168000D01*
G75*
G02*
X223528000Y-92343000I-175000J0D01*
G01*
X223178000Y-92343000D01*
G75*
G02*
X223003000Y-92168000I0J175000D01*
G01*
X223003000Y-89868000D01*
G75*
G02*
X223178000Y-89693000I175000J0D01*
G01*
G37*
G36*
G01*
X224448000Y-89693000D02*
X224798000Y-89693000D01*
G75*
G02*
X224973000Y-89868000I0J-175000D01*
G01*
X224973000Y-92168000D01*
G75*
G02*
X224798000Y-92343000I-175000J0D01*
G01*
X224448000Y-92343000D01*
G75*
G02*
X224273000Y-92168000I0J175000D01*
G01*
X224273000Y-89868000D01*
G75*
G02*
X224448000Y-89693000I175000J0D01*
G01*
G37*
G36*
G01*
X225718000Y-89693000D02*
X226068000Y-89693000D01*
G75*
G02*
X226243000Y-89868000I0J-175000D01*
G01*
X226243000Y-92168000D01*
G75*
G02*
X226068000Y-92343000I-175000J0D01*
G01*
X225718000Y-92343000D01*
G75*
G02*
X225543000Y-92168000I0J175000D01*
G01*
X225543000Y-89868000D01*
G75*
G02*
X225718000Y-89693000I175000J0D01*
G01*
G37*
G36*
G01*
X226988000Y-89693000D02*
X227338000Y-89693000D01*
G75*
G02*
X227513000Y-89868000I0J-175000D01*
G01*
X227513000Y-92168000D01*
G75*
G02*
X227338000Y-92343000I-175000J0D01*
G01*
X226988000Y-92343000D01*
G75*
G02*
X226813000Y-92168000I0J175000D01*
G01*
X226813000Y-89868000D01*
G75*
G02*
X226988000Y-89693000I175000J0D01*
G01*
G37*
G36*
G01*
X228258000Y-89693000D02*
X228608000Y-89693000D01*
G75*
G02*
X228783000Y-89868000I0J-175000D01*
G01*
X228783000Y-92168000D01*
G75*
G02*
X228608000Y-92343000I-175000J0D01*
G01*
X228258000Y-92343000D01*
G75*
G02*
X228083000Y-92168000I0J175000D01*
G01*
X228083000Y-89868000D01*
G75*
G02*
X228258000Y-89693000I175000J0D01*
G01*
G37*
G36*
G01*
X229528000Y-89693000D02*
X229878000Y-89693000D01*
G75*
G02*
X230053000Y-89868000I0J-175000D01*
G01*
X230053000Y-92168000D01*
G75*
G02*
X229878000Y-92343000I-175000J0D01*
G01*
X229528000Y-92343000D01*
G75*
G02*
X229353000Y-92168000I0J175000D01*
G01*
X229353000Y-89868000D01*
G75*
G02*
X229528000Y-89693000I175000J0D01*
G01*
G37*
G36*
G01*
X230798000Y-89693000D02*
X231148000Y-89693000D01*
G75*
G02*
X231323000Y-89868000I0J-175000D01*
G01*
X231323000Y-92168000D01*
G75*
G02*
X231148000Y-92343000I-175000J0D01*
G01*
X230798000Y-92343000D01*
G75*
G02*
X230623000Y-92168000I0J175000D01*
G01*
X230623000Y-89868000D01*
G75*
G02*
X230798000Y-89693000I175000J0D01*
G01*
G37*
G36*
G01*
X232068000Y-89693000D02*
X232418000Y-89693000D01*
G75*
G02*
X232593000Y-89868000I0J-175000D01*
G01*
X232593000Y-92168000D01*
G75*
G02*
X232418000Y-92343000I-175000J0D01*
G01*
X232068000Y-92343000D01*
G75*
G02*
X231893000Y-92168000I0J175000D01*
G01*
X231893000Y-89868000D01*
G75*
G02*
X232068000Y-89693000I175000J0D01*
G01*
G37*
G36*
G01*
X233338000Y-89693000D02*
X233688000Y-89693000D01*
G75*
G02*
X233863000Y-89868000I0J-175000D01*
G01*
X233863000Y-92168000D01*
G75*
G02*
X233688000Y-92343000I-175000J0D01*
G01*
X233338000Y-92343000D01*
G75*
G02*
X233163000Y-92168000I0J175000D01*
G01*
X233163000Y-89868000D01*
G75*
G02*
X233338000Y-89693000I175000J0D01*
G01*
G37*
%TD*%
%TO.C,U10*%
G36*
G01*
X261338000Y-99893000D02*
X261688000Y-99893000D01*
G75*
G02*
X261863000Y-100068000I0J-175000D01*
G01*
X261863000Y-102368000D01*
G75*
G02*
X261688000Y-102543000I-175000J0D01*
G01*
X261338000Y-102543000D01*
G75*
G02*
X261163000Y-102368000I0J175000D01*
G01*
X261163000Y-100068000D01*
G75*
G02*
X261338000Y-99893000I175000J0D01*
G01*
G37*
G36*
G01*
X260068000Y-99893000D02*
X260418000Y-99893000D01*
G75*
G02*
X260593000Y-100068000I0J-175000D01*
G01*
X260593000Y-102368000D01*
G75*
G02*
X260418000Y-102543000I-175000J0D01*
G01*
X260068000Y-102543000D01*
G75*
G02*
X259893000Y-102368000I0J175000D01*
G01*
X259893000Y-100068000D01*
G75*
G02*
X260068000Y-99893000I175000J0D01*
G01*
G37*
G36*
G01*
X258798000Y-99893000D02*
X259148000Y-99893000D01*
G75*
G02*
X259323000Y-100068000I0J-175000D01*
G01*
X259323000Y-102368000D01*
G75*
G02*
X259148000Y-102543000I-175000J0D01*
G01*
X258798000Y-102543000D01*
G75*
G02*
X258623000Y-102368000I0J175000D01*
G01*
X258623000Y-100068000D01*
G75*
G02*
X258798000Y-99893000I175000J0D01*
G01*
G37*
G36*
G01*
X257528000Y-99893000D02*
X257878000Y-99893000D01*
G75*
G02*
X258053000Y-100068000I0J-175000D01*
G01*
X258053000Y-102368000D01*
G75*
G02*
X257878000Y-102543000I-175000J0D01*
G01*
X257528000Y-102543000D01*
G75*
G02*
X257353000Y-102368000I0J175000D01*
G01*
X257353000Y-100068000D01*
G75*
G02*
X257528000Y-99893000I175000J0D01*
G01*
G37*
G36*
G01*
X256258000Y-99893000D02*
X256608000Y-99893000D01*
G75*
G02*
X256783000Y-100068000I0J-175000D01*
G01*
X256783000Y-102368000D01*
G75*
G02*
X256608000Y-102543000I-175000J0D01*
G01*
X256258000Y-102543000D01*
G75*
G02*
X256083000Y-102368000I0J175000D01*
G01*
X256083000Y-100068000D01*
G75*
G02*
X256258000Y-99893000I175000J0D01*
G01*
G37*
G36*
G01*
X254988000Y-99893000D02*
X255338000Y-99893000D01*
G75*
G02*
X255513000Y-100068000I0J-175000D01*
G01*
X255513000Y-102368000D01*
G75*
G02*
X255338000Y-102543000I-175000J0D01*
G01*
X254988000Y-102543000D01*
G75*
G02*
X254813000Y-102368000I0J175000D01*
G01*
X254813000Y-100068000D01*
G75*
G02*
X254988000Y-99893000I175000J0D01*
G01*
G37*
G36*
G01*
X253718000Y-99893000D02*
X254068000Y-99893000D01*
G75*
G02*
X254243000Y-100068000I0J-175000D01*
G01*
X254243000Y-102368000D01*
G75*
G02*
X254068000Y-102543000I-175000J0D01*
G01*
X253718000Y-102543000D01*
G75*
G02*
X253543000Y-102368000I0J175000D01*
G01*
X253543000Y-100068000D01*
G75*
G02*
X253718000Y-99893000I175000J0D01*
G01*
G37*
G36*
G01*
X252448000Y-99893000D02*
X252798000Y-99893000D01*
G75*
G02*
X252973000Y-100068000I0J-175000D01*
G01*
X252973000Y-102368000D01*
G75*
G02*
X252798000Y-102543000I-175000J0D01*
G01*
X252448000Y-102543000D01*
G75*
G02*
X252273000Y-102368000I0J175000D01*
G01*
X252273000Y-100068000D01*
G75*
G02*
X252448000Y-99893000I175000J0D01*
G01*
G37*
G36*
G01*
X251178000Y-99893000D02*
X251528000Y-99893000D01*
G75*
G02*
X251703000Y-100068000I0J-175000D01*
G01*
X251703000Y-102368000D01*
G75*
G02*
X251528000Y-102543000I-175000J0D01*
G01*
X251178000Y-102543000D01*
G75*
G02*
X251003000Y-102368000I0J175000D01*
G01*
X251003000Y-100068000D01*
G75*
G02*
X251178000Y-99893000I175000J0D01*
G01*
G37*
G36*
G01*
X249908000Y-99893000D02*
X250258000Y-99893000D01*
G75*
G02*
X250433000Y-100068000I0J-175000D01*
G01*
X250433000Y-102368000D01*
G75*
G02*
X250258000Y-102543000I-175000J0D01*
G01*
X249908000Y-102543000D01*
G75*
G02*
X249733000Y-102368000I0J175000D01*
G01*
X249733000Y-100068000D01*
G75*
G02*
X249908000Y-99893000I175000J0D01*
G01*
G37*
G36*
G01*
X248638000Y-99893000D02*
X248988000Y-99893000D01*
G75*
G02*
X249163000Y-100068000I0J-175000D01*
G01*
X249163000Y-102368000D01*
G75*
G02*
X248988000Y-102543000I-175000J0D01*
G01*
X248638000Y-102543000D01*
G75*
G02*
X248463000Y-102368000I0J175000D01*
G01*
X248463000Y-100068000D01*
G75*
G02*
X248638000Y-99893000I175000J0D01*
G01*
G37*
G36*
G01*
X247368000Y-99893000D02*
X247718000Y-99893000D01*
G75*
G02*
X247893000Y-100068000I0J-175000D01*
G01*
X247893000Y-102368000D01*
G75*
G02*
X247718000Y-102543000I-175000J0D01*
G01*
X247368000Y-102543000D01*
G75*
G02*
X247193000Y-102368000I0J175000D01*
G01*
X247193000Y-100068000D01*
G75*
G02*
X247368000Y-99893000I175000J0D01*
G01*
G37*
G36*
G01*
X246098000Y-99893000D02*
X246448000Y-99893000D01*
G75*
G02*
X246623000Y-100068000I0J-175000D01*
G01*
X246623000Y-102368000D01*
G75*
G02*
X246448000Y-102543000I-175000J0D01*
G01*
X246098000Y-102543000D01*
G75*
G02*
X245923000Y-102368000I0J175000D01*
G01*
X245923000Y-100068000D01*
G75*
G02*
X246098000Y-99893000I175000J0D01*
G01*
G37*
G36*
G01*
X244828000Y-99893000D02*
X245178000Y-99893000D01*
G75*
G02*
X245353000Y-100068000I0J-175000D01*
G01*
X245353000Y-102368000D01*
G75*
G02*
X245178000Y-102543000I-175000J0D01*
G01*
X244828000Y-102543000D01*
G75*
G02*
X244653000Y-102368000I0J175000D01*
G01*
X244653000Y-100068000D01*
G75*
G02*
X244828000Y-99893000I175000J0D01*
G01*
G37*
G36*
G01*
X243558000Y-99893000D02*
X243908000Y-99893000D01*
G75*
G02*
X244083000Y-100068000I0J-175000D01*
G01*
X244083000Y-102368000D01*
G75*
G02*
X243908000Y-102543000I-175000J0D01*
G01*
X243558000Y-102543000D01*
G75*
G02*
X243383000Y-102368000I0J175000D01*
G01*
X243383000Y-100068000D01*
G75*
G02*
X243558000Y-99893000I175000J0D01*
G01*
G37*
G36*
G01*
X242288000Y-99893000D02*
X242638000Y-99893000D01*
G75*
G02*
X242813000Y-100068000I0J-175000D01*
G01*
X242813000Y-102368000D01*
G75*
G02*
X242638000Y-102543000I-175000J0D01*
G01*
X242288000Y-102543000D01*
G75*
G02*
X242113000Y-102368000I0J175000D01*
G01*
X242113000Y-100068000D01*
G75*
G02*
X242288000Y-99893000I175000J0D01*
G01*
G37*
G36*
G01*
X241018000Y-99893000D02*
X241368000Y-99893000D01*
G75*
G02*
X241543000Y-100068000I0J-175000D01*
G01*
X241543000Y-102368000D01*
G75*
G02*
X241368000Y-102543000I-175000J0D01*
G01*
X241018000Y-102543000D01*
G75*
G02*
X240843000Y-102368000I0J175000D01*
G01*
X240843000Y-100068000D01*
G75*
G02*
X241018000Y-99893000I175000J0D01*
G01*
G37*
G36*
G01*
X239748000Y-99893000D02*
X240098000Y-99893000D01*
G75*
G02*
X240273000Y-100068000I0J-175000D01*
G01*
X240273000Y-102368000D01*
G75*
G02*
X240098000Y-102543000I-175000J0D01*
G01*
X239748000Y-102543000D01*
G75*
G02*
X239573000Y-102368000I0J175000D01*
G01*
X239573000Y-100068000D01*
G75*
G02*
X239748000Y-99893000I175000J0D01*
G01*
G37*
G36*
G01*
X239748000Y-89693000D02*
X240098000Y-89693000D01*
G75*
G02*
X240273000Y-89868000I0J-175000D01*
G01*
X240273000Y-92168000D01*
G75*
G02*
X240098000Y-92343000I-175000J0D01*
G01*
X239748000Y-92343000D01*
G75*
G02*
X239573000Y-92168000I0J175000D01*
G01*
X239573000Y-89868000D01*
G75*
G02*
X239748000Y-89693000I175000J0D01*
G01*
G37*
G36*
G01*
X241018000Y-89693000D02*
X241368000Y-89693000D01*
G75*
G02*
X241543000Y-89868000I0J-175000D01*
G01*
X241543000Y-92168000D01*
G75*
G02*
X241368000Y-92343000I-175000J0D01*
G01*
X241018000Y-92343000D01*
G75*
G02*
X240843000Y-92168000I0J175000D01*
G01*
X240843000Y-89868000D01*
G75*
G02*
X241018000Y-89693000I175000J0D01*
G01*
G37*
G36*
G01*
X242288000Y-89693000D02*
X242638000Y-89693000D01*
G75*
G02*
X242813000Y-89868000I0J-175000D01*
G01*
X242813000Y-92168000D01*
G75*
G02*
X242638000Y-92343000I-175000J0D01*
G01*
X242288000Y-92343000D01*
G75*
G02*
X242113000Y-92168000I0J175000D01*
G01*
X242113000Y-89868000D01*
G75*
G02*
X242288000Y-89693000I175000J0D01*
G01*
G37*
G36*
G01*
X243558000Y-89693000D02*
X243908000Y-89693000D01*
G75*
G02*
X244083000Y-89868000I0J-175000D01*
G01*
X244083000Y-92168000D01*
G75*
G02*
X243908000Y-92343000I-175000J0D01*
G01*
X243558000Y-92343000D01*
G75*
G02*
X243383000Y-92168000I0J175000D01*
G01*
X243383000Y-89868000D01*
G75*
G02*
X243558000Y-89693000I175000J0D01*
G01*
G37*
G36*
G01*
X244828000Y-89693000D02*
X245178000Y-89693000D01*
G75*
G02*
X245353000Y-89868000I0J-175000D01*
G01*
X245353000Y-92168000D01*
G75*
G02*
X245178000Y-92343000I-175000J0D01*
G01*
X244828000Y-92343000D01*
G75*
G02*
X244653000Y-92168000I0J175000D01*
G01*
X244653000Y-89868000D01*
G75*
G02*
X244828000Y-89693000I175000J0D01*
G01*
G37*
G36*
G01*
X246098000Y-89693000D02*
X246448000Y-89693000D01*
G75*
G02*
X246623000Y-89868000I0J-175000D01*
G01*
X246623000Y-92168000D01*
G75*
G02*
X246448000Y-92343000I-175000J0D01*
G01*
X246098000Y-92343000D01*
G75*
G02*
X245923000Y-92168000I0J175000D01*
G01*
X245923000Y-89868000D01*
G75*
G02*
X246098000Y-89693000I175000J0D01*
G01*
G37*
G36*
G01*
X247368000Y-89693000D02*
X247718000Y-89693000D01*
G75*
G02*
X247893000Y-89868000I0J-175000D01*
G01*
X247893000Y-92168000D01*
G75*
G02*
X247718000Y-92343000I-175000J0D01*
G01*
X247368000Y-92343000D01*
G75*
G02*
X247193000Y-92168000I0J175000D01*
G01*
X247193000Y-89868000D01*
G75*
G02*
X247368000Y-89693000I175000J0D01*
G01*
G37*
G36*
G01*
X248638000Y-89693000D02*
X248988000Y-89693000D01*
G75*
G02*
X249163000Y-89868000I0J-175000D01*
G01*
X249163000Y-92168000D01*
G75*
G02*
X248988000Y-92343000I-175000J0D01*
G01*
X248638000Y-92343000D01*
G75*
G02*
X248463000Y-92168000I0J175000D01*
G01*
X248463000Y-89868000D01*
G75*
G02*
X248638000Y-89693000I175000J0D01*
G01*
G37*
G36*
G01*
X249908000Y-89693000D02*
X250258000Y-89693000D01*
G75*
G02*
X250433000Y-89868000I0J-175000D01*
G01*
X250433000Y-92168000D01*
G75*
G02*
X250258000Y-92343000I-175000J0D01*
G01*
X249908000Y-92343000D01*
G75*
G02*
X249733000Y-92168000I0J175000D01*
G01*
X249733000Y-89868000D01*
G75*
G02*
X249908000Y-89693000I175000J0D01*
G01*
G37*
G36*
G01*
X251178000Y-89693000D02*
X251528000Y-89693000D01*
G75*
G02*
X251703000Y-89868000I0J-175000D01*
G01*
X251703000Y-92168000D01*
G75*
G02*
X251528000Y-92343000I-175000J0D01*
G01*
X251178000Y-92343000D01*
G75*
G02*
X251003000Y-92168000I0J175000D01*
G01*
X251003000Y-89868000D01*
G75*
G02*
X251178000Y-89693000I175000J0D01*
G01*
G37*
G36*
G01*
X252448000Y-89693000D02*
X252798000Y-89693000D01*
G75*
G02*
X252973000Y-89868000I0J-175000D01*
G01*
X252973000Y-92168000D01*
G75*
G02*
X252798000Y-92343000I-175000J0D01*
G01*
X252448000Y-92343000D01*
G75*
G02*
X252273000Y-92168000I0J175000D01*
G01*
X252273000Y-89868000D01*
G75*
G02*
X252448000Y-89693000I175000J0D01*
G01*
G37*
G36*
G01*
X253718000Y-89693000D02*
X254068000Y-89693000D01*
G75*
G02*
X254243000Y-89868000I0J-175000D01*
G01*
X254243000Y-92168000D01*
G75*
G02*
X254068000Y-92343000I-175000J0D01*
G01*
X253718000Y-92343000D01*
G75*
G02*
X253543000Y-92168000I0J175000D01*
G01*
X253543000Y-89868000D01*
G75*
G02*
X253718000Y-89693000I175000J0D01*
G01*
G37*
G36*
G01*
X254988000Y-89693000D02*
X255338000Y-89693000D01*
G75*
G02*
X255513000Y-89868000I0J-175000D01*
G01*
X255513000Y-92168000D01*
G75*
G02*
X255338000Y-92343000I-175000J0D01*
G01*
X254988000Y-92343000D01*
G75*
G02*
X254813000Y-92168000I0J175000D01*
G01*
X254813000Y-89868000D01*
G75*
G02*
X254988000Y-89693000I175000J0D01*
G01*
G37*
G36*
G01*
X256258000Y-89693000D02*
X256608000Y-89693000D01*
G75*
G02*
X256783000Y-89868000I0J-175000D01*
G01*
X256783000Y-92168000D01*
G75*
G02*
X256608000Y-92343000I-175000J0D01*
G01*
X256258000Y-92343000D01*
G75*
G02*
X256083000Y-92168000I0J175000D01*
G01*
X256083000Y-89868000D01*
G75*
G02*
X256258000Y-89693000I175000J0D01*
G01*
G37*
G36*
G01*
X257528000Y-89693000D02*
X257878000Y-89693000D01*
G75*
G02*
X258053000Y-89868000I0J-175000D01*
G01*
X258053000Y-92168000D01*
G75*
G02*
X257878000Y-92343000I-175000J0D01*
G01*
X257528000Y-92343000D01*
G75*
G02*
X257353000Y-92168000I0J175000D01*
G01*
X257353000Y-89868000D01*
G75*
G02*
X257528000Y-89693000I175000J0D01*
G01*
G37*
G36*
G01*
X258798000Y-89693000D02*
X259148000Y-89693000D01*
G75*
G02*
X259323000Y-89868000I0J-175000D01*
G01*
X259323000Y-92168000D01*
G75*
G02*
X259148000Y-92343000I-175000J0D01*
G01*
X258798000Y-92343000D01*
G75*
G02*
X258623000Y-92168000I0J175000D01*
G01*
X258623000Y-89868000D01*
G75*
G02*
X258798000Y-89693000I175000J0D01*
G01*
G37*
G36*
G01*
X260068000Y-89693000D02*
X260418000Y-89693000D01*
G75*
G02*
X260593000Y-89868000I0J-175000D01*
G01*
X260593000Y-92168000D01*
G75*
G02*
X260418000Y-92343000I-175000J0D01*
G01*
X260068000Y-92343000D01*
G75*
G02*
X259893000Y-92168000I0J175000D01*
G01*
X259893000Y-89868000D01*
G75*
G02*
X260068000Y-89693000I175000J0D01*
G01*
G37*
G36*
G01*
X261338000Y-89693000D02*
X261688000Y-89693000D01*
G75*
G02*
X261863000Y-89868000I0J-175000D01*
G01*
X261863000Y-92168000D01*
G75*
G02*
X261688000Y-92343000I-175000J0D01*
G01*
X261338000Y-92343000D01*
G75*
G02*
X261163000Y-92168000I0J175000D01*
G01*
X261163000Y-89868000D01*
G75*
G02*
X261338000Y-89693000I175000J0D01*
G01*
G37*
%TD*%
%TO.C,U9*%
G36*
G01*
X233338000Y-117131000D02*
X233688000Y-117131000D01*
G75*
G02*
X233863000Y-117306000I0J-175000D01*
G01*
X233863000Y-119606000D01*
G75*
G02*
X233688000Y-119781000I-175000J0D01*
G01*
X233338000Y-119781000D01*
G75*
G02*
X233163000Y-119606000I0J175000D01*
G01*
X233163000Y-117306000D01*
G75*
G02*
X233338000Y-117131000I175000J0D01*
G01*
G37*
G36*
G01*
X232068000Y-117131000D02*
X232418000Y-117131000D01*
G75*
G02*
X232593000Y-117306000I0J-175000D01*
G01*
X232593000Y-119606000D01*
G75*
G02*
X232418000Y-119781000I-175000J0D01*
G01*
X232068000Y-119781000D01*
G75*
G02*
X231893000Y-119606000I0J175000D01*
G01*
X231893000Y-117306000D01*
G75*
G02*
X232068000Y-117131000I175000J0D01*
G01*
G37*
G36*
G01*
X230798000Y-117131000D02*
X231148000Y-117131000D01*
G75*
G02*
X231323000Y-117306000I0J-175000D01*
G01*
X231323000Y-119606000D01*
G75*
G02*
X231148000Y-119781000I-175000J0D01*
G01*
X230798000Y-119781000D01*
G75*
G02*
X230623000Y-119606000I0J175000D01*
G01*
X230623000Y-117306000D01*
G75*
G02*
X230798000Y-117131000I175000J0D01*
G01*
G37*
G36*
G01*
X229528000Y-117131000D02*
X229878000Y-117131000D01*
G75*
G02*
X230053000Y-117306000I0J-175000D01*
G01*
X230053000Y-119606000D01*
G75*
G02*
X229878000Y-119781000I-175000J0D01*
G01*
X229528000Y-119781000D01*
G75*
G02*
X229353000Y-119606000I0J175000D01*
G01*
X229353000Y-117306000D01*
G75*
G02*
X229528000Y-117131000I175000J0D01*
G01*
G37*
G36*
G01*
X228258000Y-117131000D02*
X228608000Y-117131000D01*
G75*
G02*
X228783000Y-117306000I0J-175000D01*
G01*
X228783000Y-119606000D01*
G75*
G02*
X228608000Y-119781000I-175000J0D01*
G01*
X228258000Y-119781000D01*
G75*
G02*
X228083000Y-119606000I0J175000D01*
G01*
X228083000Y-117306000D01*
G75*
G02*
X228258000Y-117131000I175000J0D01*
G01*
G37*
G36*
G01*
X226988000Y-117131000D02*
X227338000Y-117131000D01*
G75*
G02*
X227513000Y-117306000I0J-175000D01*
G01*
X227513000Y-119606000D01*
G75*
G02*
X227338000Y-119781000I-175000J0D01*
G01*
X226988000Y-119781000D01*
G75*
G02*
X226813000Y-119606000I0J175000D01*
G01*
X226813000Y-117306000D01*
G75*
G02*
X226988000Y-117131000I175000J0D01*
G01*
G37*
G36*
G01*
X225718000Y-117131000D02*
X226068000Y-117131000D01*
G75*
G02*
X226243000Y-117306000I0J-175000D01*
G01*
X226243000Y-119606000D01*
G75*
G02*
X226068000Y-119781000I-175000J0D01*
G01*
X225718000Y-119781000D01*
G75*
G02*
X225543000Y-119606000I0J175000D01*
G01*
X225543000Y-117306000D01*
G75*
G02*
X225718000Y-117131000I175000J0D01*
G01*
G37*
G36*
G01*
X224448000Y-117131000D02*
X224798000Y-117131000D01*
G75*
G02*
X224973000Y-117306000I0J-175000D01*
G01*
X224973000Y-119606000D01*
G75*
G02*
X224798000Y-119781000I-175000J0D01*
G01*
X224448000Y-119781000D01*
G75*
G02*
X224273000Y-119606000I0J175000D01*
G01*
X224273000Y-117306000D01*
G75*
G02*
X224448000Y-117131000I175000J0D01*
G01*
G37*
G36*
G01*
X223178000Y-117131000D02*
X223528000Y-117131000D01*
G75*
G02*
X223703000Y-117306000I0J-175000D01*
G01*
X223703000Y-119606000D01*
G75*
G02*
X223528000Y-119781000I-175000J0D01*
G01*
X223178000Y-119781000D01*
G75*
G02*
X223003000Y-119606000I0J175000D01*
G01*
X223003000Y-117306000D01*
G75*
G02*
X223178000Y-117131000I175000J0D01*
G01*
G37*
G36*
G01*
X221908000Y-117131000D02*
X222258000Y-117131000D01*
G75*
G02*
X222433000Y-117306000I0J-175000D01*
G01*
X222433000Y-119606000D01*
G75*
G02*
X222258000Y-119781000I-175000J0D01*
G01*
X221908000Y-119781000D01*
G75*
G02*
X221733000Y-119606000I0J175000D01*
G01*
X221733000Y-117306000D01*
G75*
G02*
X221908000Y-117131000I175000J0D01*
G01*
G37*
G36*
G01*
X220638000Y-117131000D02*
X220988000Y-117131000D01*
G75*
G02*
X221163000Y-117306000I0J-175000D01*
G01*
X221163000Y-119606000D01*
G75*
G02*
X220988000Y-119781000I-175000J0D01*
G01*
X220638000Y-119781000D01*
G75*
G02*
X220463000Y-119606000I0J175000D01*
G01*
X220463000Y-117306000D01*
G75*
G02*
X220638000Y-117131000I175000J0D01*
G01*
G37*
G36*
G01*
X219368000Y-117131000D02*
X219718000Y-117131000D01*
G75*
G02*
X219893000Y-117306000I0J-175000D01*
G01*
X219893000Y-119606000D01*
G75*
G02*
X219718000Y-119781000I-175000J0D01*
G01*
X219368000Y-119781000D01*
G75*
G02*
X219193000Y-119606000I0J175000D01*
G01*
X219193000Y-117306000D01*
G75*
G02*
X219368000Y-117131000I175000J0D01*
G01*
G37*
G36*
G01*
X218098000Y-117131000D02*
X218448000Y-117131000D01*
G75*
G02*
X218623000Y-117306000I0J-175000D01*
G01*
X218623000Y-119606000D01*
G75*
G02*
X218448000Y-119781000I-175000J0D01*
G01*
X218098000Y-119781000D01*
G75*
G02*
X217923000Y-119606000I0J175000D01*
G01*
X217923000Y-117306000D01*
G75*
G02*
X218098000Y-117131000I175000J0D01*
G01*
G37*
G36*
G01*
X216828000Y-117131000D02*
X217178000Y-117131000D01*
G75*
G02*
X217353000Y-117306000I0J-175000D01*
G01*
X217353000Y-119606000D01*
G75*
G02*
X217178000Y-119781000I-175000J0D01*
G01*
X216828000Y-119781000D01*
G75*
G02*
X216653000Y-119606000I0J175000D01*
G01*
X216653000Y-117306000D01*
G75*
G02*
X216828000Y-117131000I175000J0D01*
G01*
G37*
G36*
G01*
X215558000Y-117131000D02*
X215908000Y-117131000D01*
G75*
G02*
X216083000Y-117306000I0J-175000D01*
G01*
X216083000Y-119606000D01*
G75*
G02*
X215908000Y-119781000I-175000J0D01*
G01*
X215558000Y-119781000D01*
G75*
G02*
X215383000Y-119606000I0J175000D01*
G01*
X215383000Y-117306000D01*
G75*
G02*
X215558000Y-117131000I175000J0D01*
G01*
G37*
G36*
G01*
X214288000Y-117131000D02*
X214638000Y-117131000D01*
G75*
G02*
X214813000Y-117306000I0J-175000D01*
G01*
X214813000Y-119606000D01*
G75*
G02*
X214638000Y-119781000I-175000J0D01*
G01*
X214288000Y-119781000D01*
G75*
G02*
X214113000Y-119606000I0J175000D01*
G01*
X214113000Y-117306000D01*
G75*
G02*
X214288000Y-117131000I175000J0D01*
G01*
G37*
G36*
G01*
X213018000Y-117131000D02*
X213368000Y-117131000D01*
G75*
G02*
X213543000Y-117306000I0J-175000D01*
G01*
X213543000Y-119606000D01*
G75*
G02*
X213368000Y-119781000I-175000J0D01*
G01*
X213018000Y-119781000D01*
G75*
G02*
X212843000Y-119606000I0J175000D01*
G01*
X212843000Y-117306000D01*
G75*
G02*
X213018000Y-117131000I175000J0D01*
G01*
G37*
G36*
G01*
X211748000Y-117131000D02*
X212098000Y-117131000D01*
G75*
G02*
X212273000Y-117306000I0J-175000D01*
G01*
X212273000Y-119606000D01*
G75*
G02*
X212098000Y-119781000I-175000J0D01*
G01*
X211748000Y-119781000D01*
G75*
G02*
X211573000Y-119606000I0J175000D01*
G01*
X211573000Y-117306000D01*
G75*
G02*
X211748000Y-117131000I175000J0D01*
G01*
G37*
G36*
G01*
X211748000Y-106931000D02*
X212098000Y-106931000D01*
G75*
G02*
X212273000Y-107106000I0J-175000D01*
G01*
X212273000Y-109406000D01*
G75*
G02*
X212098000Y-109581000I-175000J0D01*
G01*
X211748000Y-109581000D01*
G75*
G02*
X211573000Y-109406000I0J175000D01*
G01*
X211573000Y-107106000D01*
G75*
G02*
X211748000Y-106931000I175000J0D01*
G01*
G37*
G36*
G01*
X213018000Y-106931000D02*
X213368000Y-106931000D01*
G75*
G02*
X213543000Y-107106000I0J-175000D01*
G01*
X213543000Y-109406000D01*
G75*
G02*
X213368000Y-109581000I-175000J0D01*
G01*
X213018000Y-109581000D01*
G75*
G02*
X212843000Y-109406000I0J175000D01*
G01*
X212843000Y-107106000D01*
G75*
G02*
X213018000Y-106931000I175000J0D01*
G01*
G37*
G36*
G01*
X214288000Y-106931000D02*
X214638000Y-106931000D01*
G75*
G02*
X214813000Y-107106000I0J-175000D01*
G01*
X214813000Y-109406000D01*
G75*
G02*
X214638000Y-109581000I-175000J0D01*
G01*
X214288000Y-109581000D01*
G75*
G02*
X214113000Y-109406000I0J175000D01*
G01*
X214113000Y-107106000D01*
G75*
G02*
X214288000Y-106931000I175000J0D01*
G01*
G37*
G36*
G01*
X215558000Y-106931000D02*
X215908000Y-106931000D01*
G75*
G02*
X216083000Y-107106000I0J-175000D01*
G01*
X216083000Y-109406000D01*
G75*
G02*
X215908000Y-109581000I-175000J0D01*
G01*
X215558000Y-109581000D01*
G75*
G02*
X215383000Y-109406000I0J175000D01*
G01*
X215383000Y-107106000D01*
G75*
G02*
X215558000Y-106931000I175000J0D01*
G01*
G37*
G36*
G01*
X216828000Y-106931000D02*
X217178000Y-106931000D01*
G75*
G02*
X217353000Y-107106000I0J-175000D01*
G01*
X217353000Y-109406000D01*
G75*
G02*
X217178000Y-109581000I-175000J0D01*
G01*
X216828000Y-109581000D01*
G75*
G02*
X216653000Y-109406000I0J175000D01*
G01*
X216653000Y-107106000D01*
G75*
G02*
X216828000Y-106931000I175000J0D01*
G01*
G37*
G36*
G01*
X218098000Y-106931000D02*
X218448000Y-106931000D01*
G75*
G02*
X218623000Y-107106000I0J-175000D01*
G01*
X218623000Y-109406000D01*
G75*
G02*
X218448000Y-109581000I-175000J0D01*
G01*
X218098000Y-109581000D01*
G75*
G02*
X217923000Y-109406000I0J175000D01*
G01*
X217923000Y-107106000D01*
G75*
G02*
X218098000Y-106931000I175000J0D01*
G01*
G37*
G36*
G01*
X219368000Y-106931000D02*
X219718000Y-106931000D01*
G75*
G02*
X219893000Y-107106000I0J-175000D01*
G01*
X219893000Y-109406000D01*
G75*
G02*
X219718000Y-109581000I-175000J0D01*
G01*
X219368000Y-109581000D01*
G75*
G02*
X219193000Y-109406000I0J175000D01*
G01*
X219193000Y-107106000D01*
G75*
G02*
X219368000Y-106931000I175000J0D01*
G01*
G37*
G36*
G01*
X220638000Y-106931000D02*
X220988000Y-106931000D01*
G75*
G02*
X221163000Y-107106000I0J-175000D01*
G01*
X221163000Y-109406000D01*
G75*
G02*
X220988000Y-109581000I-175000J0D01*
G01*
X220638000Y-109581000D01*
G75*
G02*
X220463000Y-109406000I0J175000D01*
G01*
X220463000Y-107106000D01*
G75*
G02*
X220638000Y-106931000I175000J0D01*
G01*
G37*
G36*
G01*
X221908000Y-106931000D02*
X222258000Y-106931000D01*
G75*
G02*
X222433000Y-107106000I0J-175000D01*
G01*
X222433000Y-109406000D01*
G75*
G02*
X222258000Y-109581000I-175000J0D01*
G01*
X221908000Y-109581000D01*
G75*
G02*
X221733000Y-109406000I0J175000D01*
G01*
X221733000Y-107106000D01*
G75*
G02*
X221908000Y-106931000I175000J0D01*
G01*
G37*
G36*
G01*
X223178000Y-106931000D02*
X223528000Y-106931000D01*
G75*
G02*
X223703000Y-107106000I0J-175000D01*
G01*
X223703000Y-109406000D01*
G75*
G02*
X223528000Y-109581000I-175000J0D01*
G01*
X223178000Y-109581000D01*
G75*
G02*
X223003000Y-109406000I0J175000D01*
G01*
X223003000Y-107106000D01*
G75*
G02*
X223178000Y-106931000I175000J0D01*
G01*
G37*
G36*
G01*
X224448000Y-106931000D02*
X224798000Y-106931000D01*
G75*
G02*
X224973000Y-107106000I0J-175000D01*
G01*
X224973000Y-109406000D01*
G75*
G02*
X224798000Y-109581000I-175000J0D01*
G01*
X224448000Y-109581000D01*
G75*
G02*
X224273000Y-109406000I0J175000D01*
G01*
X224273000Y-107106000D01*
G75*
G02*
X224448000Y-106931000I175000J0D01*
G01*
G37*
G36*
G01*
X225718000Y-106931000D02*
X226068000Y-106931000D01*
G75*
G02*
X226243000Y-107106000I0J-175000D01*
G01*
X226243000Y-109406000D01*
G75*
G02*
X226068000Y-109581000I-175000J0D01*
G01*
X225718000Y-109581000D01*
G75*
G02*
X225543000Y-109406000I0J175000D01*
G01*
X225543000Y-107106000D01*
G75*
G02*
X225718000Y-106931000I175000J0D01*
G01*
G37*
G36*
G01*
X226988000Y-106931000D02*
X227338000Y-106931000D01*
G75*
G02*
X227513000Y-107106000I0J-175000D01*
G01*
X227513000Y-109406000D01*
G75*
G02*
X227338000Y-109581000I-175000J0D01*
G01*
X226988000Y-109581000D01*
G75*
G02*
X226813000Y-109406000I0J175000D01*
G01*
X226813000Y-107106000D01*
G75*
G02*
X226988000Y-106931000I175000J0D01*
G01*
G37*
G36*
G01*
X228258000Y-106931000D02*
X228608000Y-106931000D01*
G75*
G02*
X228783000Y-107106000I0J-175000D01*
G01*
X228783000Y-109406000D01*
G75*
G02*
X228608000Y-109581000I-175000J0D01*
G01*
X228258000Y-109581000D01*
G75*
G02*
X228083000Y-109406000I0J175000D01*
G01*
X228083000Y-107106000D01*
G75*
G02*
X228258000Y-106931000I175000J0D01*
G01*
G37*
G36*
G01*
X229528000Y-106931000D02*
X229878000Y-106931000D01*
G75*
G02*
X230053000Y-107106000I0J-175000D01*
G01*
X230053000Y-109406000D01*
G75*
G02*
X229878000Y-109581000I-175000J0D01*
G01*
X229528000Y-109581000D01*
G75*
G02*
X229353000Y-109406000I0J175000D01*
G01*
X229353000Y-107106000D01*
G75*
G02*
X229528000Y-106931000I175000J0D01*
G01*
G37*
G36*
G01*
X230798000Y-106931000D02*
X231148000Y-106931000D01*
G75*
G02*
X231323000Y-107106000I0J-175000D01*
G01*
X231323000Y-109406000D01*
G75*
G02*
X231148000Y-109581000I-175000J0D01*
G01*
X230798000Y-109581000D01*
G75*
G02*
X230623000Y-109406000I0J175000D01*
G01*
X230623000Y-107106000D01*
G75*
G02*
X230798000Y-106931000I175000J0D01*
G01*
G37*
G36*
G01*
X232068000Y-106931000D02*
X232418000Y-106931000D01*
G75*
G02*
X232593000Y-107106000I0J-175000D01*
G01*
X232593000Y-109406000D01*
G75*
G02*
X232418000Y-109581000I-175000J0D01*
G01*
X232068000Y-109581000D01*
G75*
G02*
X231893000Y-109406000I0J175000D01*
G01*
X231893000Y-107106000D01*
G75*
G02*
X232068000Y-106931000I175000J0D01*
G01*
G37*
G36*
G01*
X233338000Y-106931000D02*
X233688000Y-106931000D01*
G75*
G02*
X233863000Y-107106000I0J-175000D01*
G01*
X233863000Y-109406000D01*
G75*
G02*
X233688000Y-109581000I-175000J0D01*
G01*
X233338000Y-109581000D01*
G75*
G02*
X233163000Y-109406000I0J175000D01*
G01*
X233163000Y-107106000D01*
G75*
G02*
X233338000Y-106931000I175000J0D01*
G01*
G37*
%TD*%
%TO.C,U8*%
G36*
G01*
X261338000Y-117131000D02*
X261688000Y-117131000D01*
G75*
G02*
X261863000Y-117306000I0J-175000D01*
G01*
X261863000Y-119606000D01*
G75*
G02*
X261688000Y-119781000I-175000J0D01*
G01*
X261338000Y-119781000D01*
G75*
G02*
X261163000Y-119606000I0J175000D01*
G01*
X261163000Y-117306000D01*
G75*
G02*
X261338000Y-117131000I175000J0D01*
G01*
G37*
G36*
G01*
X260068000Y-117131000D02*
X260418000Y-117131000D01*
G75*
G02*
X260593000Y-117306000I0J-175000D01*
G01*
X260593000Y-119606000D01*
G75*
G02*
X260418000Y-119781000I-175000J0D01*
G01*
X260068000Y-119781000D01*
G75*
G02*
X259893000Y-119606000I0J175000D01*
G01*
X259893000Y-117306000D01*
G75*
G02*
X260068000Y-117131000I175000J0D01*
G01*
G37*
G36*
G01*
X258798000Y-117131000D02*
X259148000Y-117131000D01*
G75*
G02*
X259323000Y-117306000I0J-175000D01*
G01*
X259323000Y-119606000D01*
G75*
G02*
X259148000Y-119781000I-175000J0D01*
G01*
X258798000Y-119781000D01*
G75*
G02*
X258623000Y-119606000I0J175000D01*
G01*
X258623000Y-117306000D01*
G75*
G02*
X258798000Y-117131000I175000J0D01*
G01*
G37*
G36*
G01*
X257528000Y-117131000D02*
X257878000Y-117131000D01*
G75*
G02*
X258053000Y-117306000I0J-175000D01*
G01*
X258053000Y-119606000D01*
G75*
G02*
X257878000Y-119781000I-175000J0D01*
G01*
X257528000Y-119781000D01*
G75*
G02*
X257353000Y-119606000I0J175000D01*
G01*
X257353000Y-117306000D01*
G75*
G02*
X257528000Y-117131000I175000J0D01*
G01*
G37*
G36*
G01*
X256258000Y-117131000D02*
X256608000Y-117131000D01*
G75*
G02*
X256783000Y-117306000I0J-175000D01*
G01*
X256783000Y-119606000D01*
G75*
G02*
X256608000Y-119781000I-175000J0D01*
G01*
X256258000Y-119781000D01*
G75*
G02*
X256083000Y-119606000I0J175000D01*
G01*
X256083000Y-117306000D01*
G75*
G02*
X256258000Y-117131000I175000J0D01*
G01*
G37*
G36*
G01*
X254988000Y-117131000D02*
X255338000Y-117131000D01*
G75*
G02*
X255513000Y-117306000I0J-175000D01*
G01*
X255513000Y-119606000D01*
G75*
G02*
X255338000Y-119781000I-175000J0D01*
G01*
X254988000Y-119781000D01*
G75*
G02*
X254813000Y-119606000I0J175000D01*
G01*
X254813000Y-117306000D01*
G75*
G02*
X254988000Y-117131000I175000J0D01*
G01*
G37*
G36*
G01*
X253718000Y-117131000D02*
X254068000Y-117131000D01*
G75*
G02*
X254243000Y-117306000I0J-175000D01*
G01*
X254243000Y-119606000D01*
G75*
G02*
X254068000Y-119781000I-175000J0D01*
G01*
X253718000Y-119781000D01*
G75*
G02*
X253543000Y-119606000I0J175000D01*
G01*
X253543000Y-117306000D01*
G75*
G02*
X253718000Y-117131000I175000J0D01*
G01*
G37*
G36*
G01*
X252448000Y-117131000D02*
X252798000Y-117131000D01*
G75*
G02*
X252973000Y-117306000I0J-175000D01*
G01*
X252973000Y-119606000D01*
G75*
G02*
X252798000Y-119781000I-175000J0D01*
G01*
X252448000Y-119781000D01*
G75*
G02*
X252273000Y-119606000I0J175000D01*
G01*
X252273000Y-117306000D01*
G75*
G02*
X252448000Y-117131000I175000J0D01*
G01*
G37*
G36*
G01*
X251178000Y-117131000D02*
X251528000Y-117131000D01*
G75*
G02*
X251703000Y-117306000I0J-175000D01*
G01*
X251703000Y-119606000D01*
G75*
G02*
X251528000Y-119781000I-175000J0D01*
G01*
X251178000Y-119781000D01*
G75*
G02*
X251003000Y-119606000I0J175000D01*
G01*
X251003000Y-117306000D01*
G75*
G02*
X251178000Y-117131000I175000J0D01*
G01*
G37*
G36*
G01*
X249908000Y-117131000D02*
X250258000Y-117131000D01*
G75*
G02*
X250433000Y-117306000I0J-175000D01*
G01*
X250433000Y-119606000D01*
G75*
G02*
X250258000Y-119781000I-175000J0D01*
G01*
X249908000Y-119781000D01*
G75*
G02*
X249733000Y-119606000I0J175000D01*
G01*
X249733000Y-117306000D01*
G75*
G02*
X249908000Y-117131000I175000J0D01*
G01*
G37*
G36*
G01*
X248638000Y-117131000D02*
X248988000Y-117131000D01*
G75*
G02*
X249163000Y-117306000I0J-175000D01*
G01*
X249163000Y-119606000D01*
G75*
G02*
X248988000Y-119781000I-175000J0D01*
G01*
X248638000Y-119781000D01*
G75*
G02*
X248463000Y-119606000I0J175000D01*
G01*
X248463000Y-117306000D01*
G75*
G02*
X248638000Y-117131000I175000J0D01*
G01*
G37*
G36*
G01*
X247368000Y-117131000D02*
X247718000Y-117131000D01*
G75*
G02*
X247893000Y-117306000I0J-175000D01*
G01*
X247893000Y-119606000D01*
G75*
G02*
X247718000Y-119781000I-175000J0D01*
G01*
X247368000Y-119781000D01*
G75*
G02*
X247193000Y-119606000I0J175000D01*
G01*
X247193000Y-117306000D01*
G75*
G02*
X247368000Y-117131000I175000J0D01*
G01*
G37*
G36*
G01*
X246098000Y-117131000D02*
X246448000Y-117131000D01*
G75*
G02*
X246623000Y-117306000I0J-175000D01*
G01*
X246623000Y-119606000D01*
G75*
G02*
X246448000Y-119781000I-175000J0D01*
G01*
X246098000Y-119781000D01*
G75*
G02*
X245923000Y-119606000I0J175000D01*
G01*
X245923000Y-117306000D01*
G75*
G02*
X246098000Y-117131000I175000J0D01*
G01*
G37*
G36*
G01*
X244828000Y-117131000D02*
X245178000Y-117131000D01*
G75*
G02*
X245353000Y-117306000I0J-175000D01*
G01*
X245353000Y-119606000D01*
G75*
G02*
X245178000Y-119781000I-175000J0D01*
G01*
X244828000Y-119781000D01*
G75*
G02*
X244653000Y-119606000I0J175000D01*
G01*
X244653000Y-117306000D01*
G75*
G02*
X244828000Y-117131000I175000J0D01*
G01*
G37*
G36*
G01*
X243558000Y-117131000D02*
X243908000Y-117131000D01*
G75*
G02*
X244083000Y-117306000I0J-175000D01*
G01*
X244083000Y-119606000D01*
G75*
G02*
X243908000Y-119781000I-175000J0D01*
G01*
X243558000Y-119781000D01*
G75*
G02*
X243383000Y-119606000I0J175000D01*
G01*
X243383000Y-117306000D01*
G75*
G02*
X243558000Y-117131000I175000J0D01*
G01*
G37*
G36*
G01*
X242288000Y-117131000D02*
X242638000Y-117131000D01*
G75*
G02*
X242813000Y-117306000I0J-175000D01*
G01*
X242813000Y-119606000D01*
G75*
G02*
X242638000Y-119781000I-175000J0D01*
G01*
X242288000Y-119781000D01*
G75*
G02*
X242113000Y-119606000I0J175000D01*
G01*
X242113000Y-117306000D01*
G75*
G02*
X242288000Y-117131000I175000J0D01*
G01*
G37*
G36*
G01*
X241018000Y-117131000D02*
X241368000Y-117131000D01*
G75*
G02*
X241543000Y-117306000I0J-175000D01*
G01*
X241543000Y-119606000D01*
G75*
G02*
X241368000Y-119781000I-175000J0D01*
G01*
X241018000Y-119781000D01*
G75*
G02*
X240843000Y-119606000I0J175000D01*
G01*
X240843000Y-117306000D01*
G75*
G02*
X241018000Y-117131000I175000J0D01*
G01*
G37*
G36*
G01*
X239748000Y-117131000D02*
X240098000Y-117131000D01*
G75*
G02*
X240273000Y-117306000I0J-175000D01*
G01*
X240273000Y-119606000D01*
G75*
G02*
X240098000Y-119781000I-175000J0D01*
G01*
X239748000Y-119781000D01*
G75*
G02*
X239573000Y-119606000I0J175000D01*
G01*
X239573000Y-117306000D01*
G75*
G02*
X239748000Y-117131000I175000J0D01*
G01*
G37*
G36*
G01*
X239748000Y-106931000D02*
X240098000Y-106931000D01*
G75*
G02*
X240273000Y-107106000I0J-175000D01*
G01*
X240273000Y-109406000D01*
G75*
G02*
X240098000Y-109581000I-175000J0D01*
G01*
X239748000Y-109581000D01*
G75*
G02*
X239573000Y-109406000I0J175000D01*
G01*
X239573000Y-107106000D01*
G75*
G02*
X239748000Y-106931000I175000J0D01*
G01*
G37*
G36*
G01*
X241018000Y-106931000D02*
X241368000Y-106931000D01*
G75*
G02*
X241543000Y-107106000I0J-175000D01*
G01*
X241543000Y-109406000D01*
G75*
G02*
X241368000Y-109581000I-175000J0D01*
G01*
X241018000Y-109581000D01*
G75*
G02*
X240843000Y-109406000I0J175000D01*
G01*
X240843000Y-107106000D01*
G75*
G02*
X241018000Y-106931000I175000J0D01*
G01*
G37*
G36*
G01*
X242288000Y-106931000D02*
X242638000Y-106931000D01*
G75*
G02*
X242813000Y-107106000I0J-175000D01*
G01*
X242813000Y-109406000D01*
G75*
G02*
X242638000Y-109581000I-175000J0D01*
G01*
X242288000Y-109581000D01*
G75*
G02*
X242113000Y-109406000I0J175000D01*
G01*
X242113000Y-107106000D01*
G75*
G02*
X242288000Y-106931000I175000J0D01*
G01*
G37*
G36*
G01*
X243558000Y-106931000D02*
X243908000Y-106931000D01*
G75*
G02*
X244083000Y-107106000I0J-175000D01*
G01*
X244083000Y-109406000D01*
G75*
G02*
X243908000Y-109581000I-175000J0D01*
G01*
X243558000Y-109581000D01*
G75*
G02*
X243383000Y-109406000I0J175000D01*
G01*
X243383000Y-107106000D01*
G75*
G02*
X243558000Y-106931000I175000J0D01*
G01*
G37*
G36*
G01*
X244828000Y-106931000D02*
X245178000Y-106931000D01*
G75*
G02*
X245353000Y-107106000I0J-175000D01*
G01*
X245353000Y-109406000D01*
G75*
G02*
X245178000Y-109581000I-175000J0D01*
G01*
X244828000Y-109581000D01*
G75*
G02*
X244653000Y-109406000I0J175000D01*
G01*
X244653000Y-107106000D01*
G75*
G02*
X244828000Y-106931000I175000J0D01*
G01*
G37*
G36*
G01*
X246098000Y-106931000D02*
X246448000Y-106931000D01*
G75*
G02*
X246623000Y-107106000I0J-175000D01*
G01*
X246623000Y-109406000D01*
G75*
G02*
X246448000Y-109581000I-175000J0D01*
G01*
X246098000Y-109581000D01*
G75*
G02*
X245923000Y-109406000I0J175000D01*
G01*
X245923000Y-107106000D01*
G75*
G02*
X246098000Y-106931000I175000J0D01*
G01*
G37*
G36*
G01*
X247368000Y-106931000D02*
X247718000Y-106931000D01*
G75*
G02*
X247893000Y-107106000I0J-175000D01*
G01*
X247893000Y-109406000D01*
G75*
G02*
X247718000Y-109581000I-175000J0D01*
G01*
X247368000Y-109581000D01*
G75*
G02*
X247193000Y-109406000I0J175000D01*
G01*
X247193000Y-107106000D01*
G75*
G02*
X247368000Y-106931000I175000J0D01*
G01*
G37*
G36*
G01*
X248638000Y-106931000D02*
X248988000Y-106931000D01*
G75*
G02*
X249163000Y-107106000I0J-175000D01*
G01*
X249163000Y-109406000D01*
G75*
G02*
X248988000Y-109581000I-175000J0D01*
G01*
X248638000Y-109581000D01*
G75*
G02*
X248463000Y-109406000I0J175000D01*
G01*
X248463000Y-107106000D01*
G75*
G02*
X248638000Y-106931000I175000J0D01*
G01*
G37*
G36*
G01*
X249908000Y-106931000D02*
X250258000Y-106931000D01*
G75*
G02*
X250433000Y-107106000I0J-175000D01*
G01*
X250433000Y-109406000D01*
G75*
G02*
X250258000Y-109581000I-175000J0D01*
G01*
X249908000Y-109581000D01*
G75*
G02*
X249733000Y-109406000I0J175000D01*
G01*
X249733000Y-107106000D01*
G75*
G02*
X249908000Y-106931000I175000J0D01*
G01*
G37*
G36*
G01*
X251178000Y-106931000D02*
X251528000Y-106931000D01*
G75*
G02*
X251703000Y-107106000I0J-175000D01*
G01*
X251703000Y-109406000D01*
G75*
G02*
X251528000Y-109581000I-175000J0D01*
G01*
X251178000Y-109581000D01*
G75*
G02*
X251003000Y-109406000I0J175000D01*
G01*
X251003000Y-107106000D01*
G75*
G02*
X251178000Y-106931000I175000J0D01*
G01*
G37*
G36*
G01*
X252448000Y-106931000D02*
X252798000Y-106931000D01*
G75*
G02*
X252973000Y-107106000I0J-175000D01*
G01*
X252973000Y-109406000D01*
G75*
G02*
X252798000Y-109581000I-175000J0D01*
G01*
X252448000Y-109581000D01*
G75*
G02*
X252273000Y-109406000I0J175000D01*
G01*
X252273000Y-107106000D01*
G75*
G02*
X252448000Y-106931000I175000J0D01*
G01*
G37*
G36*
G01*
X253718000Y-106931000D02*
X254068000Y-106931000D01*
G75*
G02*
X254243000Y-107106000I0J-175000D01*
G01*
X254243000Y-109406000D01*
G75*
G02*
X254068000Y-109581000I-175000J0D01*
G01*
X253718000Y-109581000D01*
G75*
G02*
X253543000Y-109406000I0J175000D01*
G01*
X253543000Y-107106000D01*
G75*
G02*
X253718000Y-106931000I175000J0D01*
G01*
G37*
G36*
G01*
X254988000Y-106931000D02*
X255338000Y-106931000D01*
G75*
G02*
X255513000Y-107106000I0J-175000D01*
G01*
X255513000Y-109406000D01*
G75*
G02*
X255338000Y-109581000I-175000J0D01*
G01*
X254988000Y-109581000D01*
G75*
G02*
X254813000Y-109406000I0J175000D01*
G01*
X254813000Y-107106000D01*
G75*
G02*
X254988000Y-106931000I175000J0D01*
G01*
G37*
G36*
G01*
X256258000Y-106931000D02*
X256608000Y-106931000D01*
G75*
G02*
X256783000Y-107106000I0J-175000D01*
G01*
X256783000Y-109406000D01*
G75*
G02*
X256608000Y-109581000I-175000J0D01*
G01*
X256258000Y-109581000D01*
G75*
G02*
X256083000Y-109406000I0J175000D01*
G01*
X256083000Y-107106000D01*
G75*
G02*
X256258000Y-106931000I175000J0D01*
G01*
G37*
G36*
G01*
X257528000Y-106931000D02*
X257878000Y-106931000D01*
G75*
G02*
X258053000Y-107106000I0J-175000D01*
G01*
X258053000Y-109406000D01*
G75*
G02*
X257878000Y-109581000I-175000J0D01*
G01*
X257528000Y-109581000D01*
G75*
G02*
X257353000Y-109406000I0J175000D01*
G01*
X257353000Y-107106000D01*
G75*
G02*
X257528000Y-106931000I175000J0D01*
G01*
G37*
G36*
G01*
X258798000Y-106931000D02*
X259148000Y-106931000D01*
G75*
G02*
X259323000Y-107106000I0J-175000D01*
G01*
X259323000Y-109406000D01*
G75*
G02*
X259148000Y-109581000I-175000J0D01*
G01*
X258798000Y-109581000D01*
G75*
G02*
X258623000Y-109406000I0J175000D01*
G01*
X258623000Y-107106000D01*
G75*
G02*
X258798000Y-106931000I175000J0D01*
G01*
G37*
G36*
G01*
X260068000Y-106931000D02*
X260418000Y-106931000D01*
G75*
G02*
X260593000Y-107106000I0J-175000D01*
G01*
X260593000Y-109406000D01*
G75*
G02*
X260418000Y-109581000I-175000J0D01*
G01*
X260068000Y-109581000D01*
G75*
G02*
X259893000Y-109406000I0J175000D01*
G01*
X259893000Y-107106000D01*
G75*
G02*
X260068000Y-106931000I175000J0D01*
G01*
G37*
G36*
G01*
X261338000Y-106931000D02*
X261688000Y-106931000D01*
G75*
G02*
X261863000Y-107106000I0J-175000D01*
G01*
X261863000Y-109406000D01*
G75*
G02*
X261688000Y-109581000I-175000J0D01*
G01*
X261338000Y-109581000D01*
G75*
G02*
X261163000Y-109406000I0J175000D01*
G01*
X261163000Y-107106000D01*
G75*
G02*
X261338000Y-106931000I175000J0D01*
G01*
G37*
%TD*%
%TO.C,U7*%
G36*
G01*
X233338000Y-134369000D02*
X233688000Y-134369000D01*
G75*
G02*
X233863000Y-134544000I0J-175000D01*
G01*
X233863000Y-136844000D01*
G75*
G02*
X233688000Y-137019000I-175000J0D01*
G01*
X233338000Y-137019000D01*
G75*
G02*
X233163000Y-136844000I0J175000D01*
G01*
X233163000Y-134544000D01*
G75*
G02*
X233338000Y-134369000I175000J0D01*
G01*
G37*
G36*
G01*
X232068000Y-134369000D02*
X232418000Y-134369000D01*
G75*
G02*
X232593000Y-134544000I0J-175000D01*
G01*
X232593000Y-136844000D01*
G75*
G02*
X232418000Y-137019000I-175000J0D01*
G01*
X232068000Y-137019000D01*
G75*
G02*
X231893000Y-136844000I0J175000D01*
G01*
X231893000Y-134544000D01*
G75*
G02*
X232068000Y-134369000I175000J0D01*
G01*
G37*
G36*
G01*
X230798000Y-134369000D02*
X231148000Y-134369000D01*
G75*
G02*
X231323000Y-134544000I0J-175000D01*
G01*
X231323000Y-136844000D01*
G75*
G02*
X231148000Y-137019000I-175000J0D01*
G01*
X230798000Y-137019000D01*
G75*
G02*
X230623000Y-136844000I0J175000D01*
G01*
X230623000Y-134544000D01*
G75*
G02*
X230798000Y-134369000I175000J0D01*
G01*
G37*
G36*
G01*
X229528000Y-134369000D02*
X229878000Y-134369000D01*
G75*
G02*
X230053000Y-134544000I0J-175000D01*
G01*
X230053000Y-136844000D01*
G75*
G02*
X229878000Y-137019000I-175000J0D01*
G01*
X229528000Y-137019000D01*
G75*
G02*
X229353000Y-136844000I0J175000D01*
G01*
X229353000Y-134544000D01*
G75*
G02*
X229528000Y-134369000I175000J0D01*
G01*
G37*
G36*
G01*
X228258000Y-134369000D02*
X228608000Y-134369000D01*
G75*
G02*
X228783000Y-134544000I0J-175000D01*
G01*
X228783000Y-136844000D01*
G75*
G02*
X228608000Y-137019000I-175000J0D01*
G01*
X228258000Y-137019000D01*
G75*
G02*
X228083000Y-136844000I0J175000D01*
G01*
X228083000Y-134544000D01*
G75*
G02*
X228258000Y-134369000I175000J0D01*
G01*
G37*
G36*
G01*
X226988000Y-134369000D02*
X227338000Y-134369000D01*
G75*
G02*
X227513000Y-134544000I0J-175000D01*
G01*
X227513000Y-136844000D01*
G75*
G02*
X227338000Y-137019000I-175000J0D01*
G01*
X226988000Y-137019000D01*
G75*
G02*
X226813000Y-136844000I0J175000D01*
G01*
X226813000Y-134544000D01*
G75*
G02*
X226988000Y-134369000I175000J0D01*
G01*
G37*
G36*
G01*
X225718000Y-134369000D02*
X226068000Y-134369000D01*
G75*
G02*
X226243000Y-134544000I0J-175000D01*
G01*
X226243000Y-136844000D01*
G75*
G02*
X226068000Y-137019000I-175000J0D01*
G01*
X225718000Y-137019000D01*
G75*
G02*
X225543000Y-136844000I0J175000D01*
G01*
X225543000Y-134544000D01*
G75*
G02*
X225718000Y-134369000I175000J0D01*
G01*
G37*
G36*
G01*
X224448000Y-134369000D02*
X224798000Y-134369000D01*
G75*
G02*
X224973000Y-134544000I0J-175000D01*
G01*
X224973000Y-136844000D01*
G75*
G02*
X224798000Y-137019000I-175000J0D01*
G01*
X224448000Y-137019000D01*
G75*
G02*
X224273000Y-136844000I0J175000D01*
G01*
X224273000Y-134544000D01*
G75*
G02*
X224448000Y-134369000I175000J0D01*
G01*
G37*
G36*
G01*
X223178000Y-134369000D02*
X223528000Y-134369000D01*
G75*
G02*
X223703000Y-134544000I0J-175000D01*
G01*
X223703000Y-136844000D01*
G75*
G02*
X223528000Y-137019000I-175000J0D01*
G01*
X223178000Y-137019000D01*
G75*
G02*
X223003000Y-136844000I0J175000D01*
G01*
X223003000Y-134544000D01*
G75*
G02*
X223178000Y-134369000I175000J0D01*
G01*
G37*
G36*
G01*
X221908000Y-134369000D02*
X222258000Y-134369000D01*
G75*
G02*
X222433000Y-134544000I0J-175000D01*
G01*
X222433000Y-136844000D01*
G75*
G02*
X222258000Y-137019000I-175000J0D01*
G01*
X221908000Y-137019000D01*
G75*
G02*
X221733000Y-136844000I0J175000D01*
G01*
X221733000Y-134544000D01*
G75*
G02*
X221908000Y-134369000I175000J0D01*
G01*
G37*
G36*
G01*
X220638000Y-134369000D02*
X220988000Y-134369000D01*
G75*
G02*
X221163000Y-134544000I0J-175000D01*
G01*
X221163000Y-136844000D01*
G75*
G02*
X220988000Y-137019000I-175000J0D01*
G01*
X220638000Y-137019000D01*
G75*
G02*
X220463000Y-136844000I0J175000D01*
G01*
X220463000Y-134544000D01*
G75*
G02*
X220638000Y-134369000I175000J0D01*
G01*
G37*
G36*
G01*
X219368000Y-134369000D02*
X219718000Y-134369000D01*
G75*
G02*
X219893000Y-134544000I0J-175000D01*
G01*
X219893000Y-136844000D01*
G75*
G02*
X219718000Y-137019000I-175000J0D01*
G01*
X219368000Y-137019000D01*
G75*
G02*
X219193000Y-136844000I0J175000D01*
G01*
X219193000Y-134544000D01*
G75*
G02*
X219368000Y-134369000I175000J0D01*
G01*
G37*
G36*
G01*
X218098000Y-134369000D02*
X218448000Y-134369000D01*
G75*
G02*
X218623000Y-134544000I0J-175000D01*
G01*
X218623000Y-136844000D01*
G75*
G02*
X218448000Y-137019000I-175000J0D01*
G01*
X218098000Y-137019000D01*
G75*
G02*
X217923000Y-136844000I0J175000D01*
G01*
X217923000Y-134544000D01*
G75*
G02*
X218098000Y-134369000I175000J0D01*
G01*
G37*
G36*
G01*
X216828000Y-134369000D02*
X217178000Y-134369000D01*
G75*
G02*
X217353000Y-134544000I0J-175000D01*
G01*
X217353000Y-136844000D01*
G75*
G02*
X217178000Y-137019000I-175000J0D01*
G01*
X216828000Y-137019000D01*
G75*
G02*
X216653000Y-136844000I0J175000D01*
G01*
X216653000Y-134544000D01*
G75*
G02*
X216828000Y-134369000I175000J0D01*
G01*
G37*
G36*
G01*
X215558000Y-134369000D02*
X215908000Y-134369000D01*
G75*
G02*
X216083000Y-134544000I0J-175000D01*
G01*
X216083000Y-136844000D01*
G75*
G02*
X215908000Y-137019000I-175000J0D01*
G01*
X215558000Y-137019000D01*
G75*
G02*
X215383000Y-136844000I0J175000D01*
G01*
X215383000Y-134544000D01*
G75*
G02*
X215558000Y-134369000I175000J0D01*
G01*
G37*
G36*
G01*
X214288000Y-134369000D02*
X214638000Y-134369000D01*
G75*
G02*
X214813000Y-134544000I0J-175000D01*
G01*
X214813000Y-136844000D01*
G75*
G02*
X214638000Y-137019000I-175000J0D01*
G01*
X214288000Y-137019000D01*
G75*
G02*
X214113000Y-136844000I0J175000D01*
G01*
X214113000Y-134544000D01*
G75*
G02*
X214288000Y-134369000I175000J0D01*
G01*
G37*
G36*
G01*
X213018000Y-134369000D02*
X213368000Y-134369000D01*
G75*
G02*
X213543000Y-134544000I0J-175000D01*
G01*
X213543000Y-136844000D01*
G75*
G02*
X213368000Y-137019000I-175000J0D01*
G01*
X213018000Y-137019000D01*
G75*
G02*
X212843000Y-136844000I0J175000D01*
G01*
X212843000Y-134544000D01*
G75*
G02*
X213018000Y-134369000I175000J0D01*
G01*
G37*
G36*
G01*
X211748000Y-134369000D02*
X212098000Y-134369000D01*
G75*
G02*
X212273000Y-134544000I0J-175000D01*
G01*
X212273000Y-136844000D01*
G75*
G02*
X212098000Y-137019000I-175000J0D01*
G01*
X211748000Y-137019000D01*
G75*
G02*
X211573000Y-136844000I0J175000D01*
G01*
X211573000Y-134544000D01*
G75*
G02*
X211748000Y-134369000I175000J0D01*
G01*
G37*
G36*
G01*
X211748000Y-124169000D02*
X212098000Y-124169000D01*
G75*
G02*
X212273000Y-124344000I0J-175000D01*
G01*
X212273000Y-126644000D01*
G75*
G02*
X212098000Y-126819000I-175000J0D01*
G01*
X211748000Y-126819000D01*
G75*
G02*
X211573000Y-126644000I0J175000D01*
G01*
X211573000Y-124344000D01*
G75*
G02*
X211748000Y-124169000I175000J0D01*
G01*
G37*
G36*
G01*
X213018000Y-124169000D02*
X213368000Y-124169000D01*
G75*
G02*
X213543000Y-124344000I0J-175000D01*
G01*
X213543000Y-126644000D01*
G75*
G02*
X213368000Y-126819000I-175000J0D01*
G01*
X213018000Y-126819000D01*
G75*
G02*
X212843000Y-126644000I0J175000D01*
G01*
X212843000Y-124344000D01*
G75*
G02*
X213018000Y-124169000I175000J0D01*
G01*
G37*
G36*
G01*
X214288000Y-124169000D02*
X214638000Y-124169000D01*
G75*
G02*
X214813000Y-124344000I0J-175000D01*
G01*
X214813000Y-126644000D01*
G75*
G02*
X214638000Y-126819000I-175000J0D01*
G01*
X214288000Y-126819000D01*
G75*
G02*
X214113000Y-126644000I0J175000D01*
G01*
X214113000Y-124344000D01*
G75*
G02*
X214288000Y-124169000I175000J0D01*
G01*
G37*
G36*
G01*
X215558000Y-124169000D02*
X215908000Y-124169000D01*
G75*
G02*
X216083000Y-124344000I0J-175000D01*
G01*
X216083000Y-126644000D01*
G75*
G02*
X215908000Y-126819000I-175000J0D01*
G01*
X215558000Y-126819000D01*
G75*
G02*
X215383000Y-126644000I0J175000D01*
G01*
X215383000Y-124344000D01*
G75*
G02*
X215558000Y-124169000I175000J0D01*
G01*
G37*
G36*
G01*
X216828000Y-124169000D02*
X217178000Y-124169000D01*
G75*
G02*
X217353000Y-124344000I0J-175000D01*
G01*
X217353000Y-126644000D01*
G75*
G02*
X217178000Y-126819000I-175000J0D01*
G01*
X216828000Y-126819000D01*
G75*
G02*
X216653000Y-126644000I0J175000D01*
G01*
X216653000Y-124344000D01*
G75*
G02*
X216828000Y-124169000I175000J0D01*
G01*
G37*
G36*
G01*
X218098000Y-124169000D02*
X218448000Y-124169000D01*
G75*
G02*
X218623000Y-124344000I0J-175000D01*
G01*
X218623000Y-126644000D01*
G75*
G02*
X218448000Y-126819000I-175000J0D01*
G01*
X218098000Y-126819000D01*
G75*
G02*
X217923000Y-126644000I0J175000D01*
G01*
X217923000Y-124344000D01*
G75*
G02*
X218098000Y-124169000I175000J0D01*
G01*
G37*
G36*
G01*
X219368000Y-124169000D02*
X219718000Y-124169000D01*
G75*
G02*
X219893000Y-124344000I0J-175000D01*
G01*
X219893000Y-126644000D01*
G75*
G02*
X219718000Y-126819000I-175000J0D01*
G01*
X219368000Y-126819000D01*
G75*
G02*
X219193000Y-126644000I0J175000D01*
G01*
X219193000Y-124344000D01*
G75*
G02*
X219368000Y-124169000I175000J0D01*
G01*
G37*
G36*
G01*
X220638000Y-124169000D02*
X220988000Y-124169000D01*
G75*
G02*
X221163000Y-124344000I0J-175000D01*
G01*
X221163000Y-126644000D01*
G75*
G02*
X220988000Y-126819000I-175000J0D01*
G01*
X220638000Y-126819000D01*
G75*
G02*
X220463000Y-126644000I0J175000D01*
G01*
X220463000Y-124344000D01*
G75*
G02*
X220638000Y-124169000I175000J0D01*
G01*
G37*
G36*
G01*
X221908000Y-124169000D02*
X222258000Y-124169000D01*
G75*
G02*
X222433000Y-124344000I0J-175000D01*
G01*
X222433000Y-126644000D01*
G75*
G02*
X222258000Y-126819000I-175000J0D01*
G01*
X221908000Y-126819000D01*
G75*
G02*
X221733000Y-126644000I0J175000D01*
G01*
X221733000Y-124344000D01*
G75*
G02*
X221908000Y-124169000I175000J0D01*
G01*
G37*
G36*
G01*
X223178000Y-124169000D02*
X223528000Y-124169000D01*
G75*
G02*
X223703000Y-124344000I0J-175000D01*
G01*
X223703000Y-126644000D01*
G75*
G02*
X223528000Y-126819000I-175000J0D01*
G01*
X223178000Y-126819000D01*
G75*
G02*
X223003000Y-126644000I0J175000D01*
G01*
X223003000Y-124344000D01*
G75*
G02*
X223178000Y-124169000I175000J0D01*
G01*
G37*
G36*
G01*
X224448000Y-124169000D02*
X224798000Y-124169000D01*
G75*
G02*
X224973000Y-124344000I0J-175000D01*
G01*
X224973000Y-126644000D01*
G75*
G02*
X224798000Y-126819000I-175000J0D01*
G01*
X224448000Y-126819000D01*
G75*
G02*
X224273000Y-126644000I0J175000D01*
G01*
X224273000Y-124344000D01*
G75*
G02*
X224448000Y-124169000I175000J0D01*
G01*
G37*
G36*
G01*
X225718000Y-124169000D02*
X226068000Y-124169000D01*
G75*
G02*
X226243000Y-124344000I0J-175000D01*
G01*
X226243000Y-126644000D01*
G75*
G02*
X226068000Y-126819000I-175000J0D01*
G01*
X225718000Y-126819000D01*
G75*
G02*
X225543000Y-126644000I0J175000D01*
G01*
X225543000Y-124344000D01*
G75*
G02*
X225718000Y-124169000I175000J0D01*
G01*
G37*
G36*
G01*
X226988000Y-124169000D02*
X227338000Y-124169000D01*
G75*
G02*
X227513000Y-124344000I0J-175000D01*
G01*
X227513000Y-126644000D01*
G75*
G02*
X227338000Y-126819000I-175000J0D01*
G01*
X226988000Y-126819000D01*
G75*
G02*
X226813000Y-126644000I0J175000D01*
G01*
X226813000Y-124344000D01*
G75*
G02*
X226988000Y-124169000I175000J0D01*
G01*
G37*
G36*
G01*
X228258000Y-124169000D02*
X228608000Y-124169000D01*
G75*
G02*
X228783000Y-124344000I0J-175000D01*
G01*
X228783000Y-126644000D01*
G75*
G02*
X228608000Y-126819000I-175000J0D01*
G01*
X228258000Y-126819000D01*
G75*
G02*
X228083000Y-126644000I0J175000D01*
G01*
X228083000Y-124344000D01*
G75*
G02*
X228258000Y-124169000I175000J0D01*
G01*
G37*
G36*
G01*
X229528000Y-124169000D02*
X229878000Y-124169000D01*
G75*
G02*
X230053000Y-124344000I0J-175000D01*
G01*
X230053000Y-126644000D01*
G75*
G02*
X229878000Y-126819000I-175000J0D01*
G01*
X229528000Y-126819000D01*
G75*
G02*
X229353000Y-126644000I0J175000D01*
G01*
X229353000Y-124344000D01*
G75*
G02*
X229528000Y-124169000I175000J0D01*
G01*
G37*
G36*
G01*
X230798000Y-124169000D02*
X231148000Y-124169000D01*
G75*
G02*
X231323000Y-124344000I0J-175000D01*
G01*
X231323000Y-126644000D01*
G75*
G02*
X231148000Y-126819000I-175000J0D01*
G01*
X230798000Y-126819000D01*
G75*
G02*
X230623000Y-126644000I0J175000D01*
G01*
X230623000Y-124344000D01*
G75*
G02*
X230798000Y-124169000I175000J0D01*
G01*
G37*
G36*
G01*
X232068000Y-124169000D02*
X232418000Y-124169000D01*
G75*
G02*
X232593000Y-124344000I0J-175000D01*
G01*
X232593000Y-126644000D01*
G75*
G02*
X232418000Y-126819000I-175000J0D01*
G01*
X232068000Y-126819000D01*
G75*
G02*
X231893000Y-126644000I0J175000D01*
G01*
X231893000Y-124344000D01*
G75*
G02*
X232068000Y-124169000I175000J0D01*
G01*
G37*
G36*
G01*
X233338000Y-124169000D02*
X233688000Y-124169000D01*
G75*
G02*
X233863000Y-124344000I0J-175000D01*
G01*
X233863000Y-126644000D01*
G75*
G02*
X233688000Y-126819000I-175000J0D01*
G01*
X233338000Y-126819000D01*
G75*
G02*
X233163000Y-126644000I0J175000D01*
G01*
X233163000Y-124344000D01*
G75*
G02*
X233338000Y-124169000I175000J0D01*
G01*
G37*
%TD*%
%TO.C,U6*%
G36*
G01*
X261338000Y-134369000D02*
X261688000Y-134369000D01*
G75*
G02*
X261863000Y-134544000I0J-175000D01*
G01*
X261863000Y-136844000D01*
G75*
G02*
X261688000Y-137019000I-175000J0D01*
G01*
X261338000Y-137019000D01*
G75*
G02*
X261163000Y-136844000I0J175000D01*
G01*
X261163000Y-134544000D01*
G75*
G02*
X261338000Y-134369000I175000J0D01*
G01*
G37*
G36*
G01*
X260068000Y-134369000D02*
X260418000Y-134369000D01*
G75*
G02*
X260593000Y-134544000I0J-175000D01*
G01*
X260593000Y-136844000D01*
G75*
G02*
X260418000Y-137019000I-175000J0D01*
G01*
X260068000Y-137019000D01*
G75*
G02*
X259893000Y-136844000I0J175000D01*
G01*
X259893000Y-134544000D01*
G75*
G02*
X260068000Y-134369000I175000J0D01*
G01*
G37*
G36*
G01*
X258798000Y-134369000D02*
X259148000Y-134369000D01*
G75*
G02*
X259323000Y-134544000I0J-175000D01*
G01*
X259323000Y-136844000D01*
G75*
G02*
X259148000Y-137019000I-175000J0D01*
G01*
X258798000Y-137019000D01*
G75*
G02*
X258623000Y-136844000I0J175000D01*
G01*
X258623000Y-134544000D01*
G75*
G02*
X258798000Y-134369000I175000J0D01*
G01*
G37*
G36*
G01*
X257528000Y-134369000D02*
X257878000Y-134369000D01*
G75*
G02*
X258053000Y-134544000I0J-175000D01*
G01*
X258053000Y-136844000D01*
G75*
G02*
X257878000Y-137019000I-175000J0D01*
G01*
X257528000Y-137019000D01*
G75*
G02*
X257353000Y-136844000I0J175000D01*
G01*
X257353000Y-134544000D01*
G75*
G02*
X257528000Y-134369000I175000J0D01*
G01*
G37*
G36*
G01*
X256258000Y-134369000D02*
X256608000Y-134369000D01*
G75*
G02*
X256783000Y-134544000I0J-175000D01*
G01*
X256783000Y-136844000D01*
G75*
G02*
X256608000Y-137019000I-175000J0D01*
G01*
X256258000Y-137019000D01*
G75*
G02*
X256083000Y-136844000I0J175000D01*
G01*
X256083000Y-134544000D01*
G75*
G02*
X256258000Y-134369000I175000J0D01*
G01*
G37*
G36*
G01*
X254988000Y-134369000D02*
X255338000Y-134369000D01*
G75*
G02*
X255513000Y-134544000I0J-175000D01*
G01*
X255513000Y-136844000D01*
G75*
G02*
X255338000Y-137019000I-175000J0D01*
G01*
X254988000Y-137019000D01*
G75*
G02*
X254813000Y-136844000I0J175000D01*
G01*
X254813000Y-134544000D01*
G75*
G02*
X254988000Y-134369000I175000J0D01*
G01*
G37*
G36*
G01*
X253718000Y-134369000D02*
X254068000Y-134369000D01*
G75*
G02*
X254243000Y-134544000I0J-175000D01*
G01*
X254243000Y-136844000D01*
G75*
G02*
X254068000Y-137019000I-175000J0D01*
G01*
X253718000Y-137019000D01*
G75*
G02*
X253543000Y-136844000I0J175000D01*
G01*
X253543000Y-134544000D01*
G75*
G02*
X253718000Y-134369000I175000J0D01*
G01*
G37*
G36*
G01*
X252448000Y-134369000D02*
X252798000Y-134369000D01*
G75*
G02*
X252973000Y-134544000I0J-175000D01*
G01*
X252973000Y-136844000D01*
G75*
G02*
X252798000Y-137019000I-175000J0D01*
G01*
X252448000Y-137019000D01*
G75*
G02*
X252273000Y-136844000I0J175000D01*
G01*
X252273000Y-134544000D01*
G75*
G02*
X252448000Y-134369000I175000J0D01*
G01*
G37*
G36*
G01*
X251178000Y-134369000D02*
X251528000Y-134369000D01*
G75*
G02*
X251703000Y-134544000I0J-175000D01*
G01*
X251703000Y-136844000D01*
G75*
G02*
X251528000Y-137019000I-175000J0D01*
G01*
X251178000Y-137019000D01*
G75*
G02*
X251003000Y-136844000I0J175000D01*
G01*
X251003000Y-134544000D01*
G75*
G02*
X251178000Y-134369000I175000J0D01*
G01*
G37*
G36*
G01*
X249908000Y-134369000D02*
X250258000Y-134369000D01*
G75*
G02*
X250433000Y-134544000I0J-175000D01*
G01*
X250433000Y-136844000D01*
G75*
G02*
X250258000Y-137019000I-175000J0D01*
G01*
X249908000Y-137019000D01*
G75*
G02*
X249733000Y-136844000I0J175000D01*
G01*
X249733000Y-134544000D01*
G75*
G02*
X249908000Y-134369000I175000J0D01*
G01*
G37*
G36*
G01*
X248638000Y-134369000D02*
X248988000Y-134369000D01*
G75*
G02*
X249163000Y-134544000I0J-175000D01*
G01*
X249163000Y-136844000D01*
G75*
G02*
X248988000Y-137019000I-175000J0D01*
G01*
X248638000Y-137019000D01*
G75*
G02*
X248463000Y-136844000I0J175000D01*
G01*
X248463000Y-134544000D01*
G75*
G02*
X248638000Y-134369000I175000J0D01*
G01*
G37*
G36*
G01*
X247368000Y-134369000D02*
X247718000Y-134369000D01*
G75*
G02*
X247893000Y-134544000I0J-175000D01*
G01*
X247893000Y-136844000D01*
G75*
G02*
X247718000Y-137019000I-175000J0D01*
G01*
X247368000Y-137019000D01*
G75*
G02*
X247193000Y-136844000I0J175000D01*
G01*
X247193000Y-134544000D01*
G75*
G02*
X247368000Y-134369000I175000J0D01*
G01*
G37*
G36*
G01*
X246098000Y-134369000D02*
X246448000Y-134369000D01*
G75*
G02*
X246623000Y-134544000I0J-175000D01*
G01*
X246623000Y-136844000D01*
G75*
G02*
X246448000Y-137019000I-175000J0D01*
G01*
X246098000Y-137019000D01*
G75*
G02*
X245923000Y-136844000I0J175000D01*
G01*
X245923000Y-134544000D01*
G75*
G02*
X246098000Y-134369000I175000J0D01*
G01*
G37*
G36*
G01*
X244828000Y-134369000D02*
X245178000Y-134369000D01*
G75*
G02*
X245353000Y-134544000I0J-175000D01*
G01*
X245353000Y-136844000D01*
G75*
G02*
X245178000Y-137019000I-175000J0D01*
G01*
X244828000Y-137019000D01*
G75*
G02*
X244653000Y-136844000I0J175000D01*
G01*
X244653000Y-134544000D01*
G75*
G02*
X244828000Y-134369000I175000J0D01*
G01*
G37*
G36*
G01*
X243558000Y-134369000D02*
X243908000Y-134369000D01*
G75*
G02*
X244083000Y-134544000I0J-175000D01*
G01*
X244083000Y-136844000D01*
G75*
G02*
X243908000Y-137019000I-175000J0D01*
G01*
X243558000Y-137019000D01*
G75*
G02*
X243383000Y-136844000I0J175000D01*
G01*
X243383000Y-134544000D01*
G75*
G02*
X243558000Y-134369000I175000J0D01*
G01*
G37*
G36*
G01*
X242288000Y-134369000D02*
X242638000Y-134369000D01*
G75*
G02*
X242813000Y-134544000I0J-175000D01*
G01*
X242813000Y-136844000D01*
G75*
G02*
X242638000Y-137019000I-175000J0D01*
G01*
X242288000Y-137019000D01*
G75*
G02*
X242113000Y-136844000I0J175000D01*
G01*
X242113000Y-134544000D01*
G75*
G02*
X242288000Y-134369000I175000J0D01*
G01*
G37*
G36*
G01*
X241018000Y-134369000D02*
X241368000Y-134369000D01*
G75*
G02*
X241543000Y-134544000I0J-175000D01*
G01*
X241543000Y-136844000D01*
G75*
G02*
X241368000Y-137019000I-175000J0D01*
G01*
X241018000Y-137019000D01*
G75*
G02*
X240843000Y-136844000I0J175000D01*
G01*
X240843000Y-134544000D01*
G75*
G02*
X241018000Y-134369000I175000J0D01*
G01*
G37*
G36*
G01*
X239748000Y-134369000D02*
X240098000Y-134369000D01*
G75*
G02*
X240273000Y-134544000I0J-175000D01*
G01*
X240273000Y-136844000D01*
G75*
G02*
X240098000Y-137019000I-175000J0D01*
G01*
X239748000Y-137019000D01*
G75*
G02*
X239573000Y-136844000I0J175000D01*
G01*
X239573000Y-134544000D01*
G75*
G02*
X239748000Y-134369000I175000J0D01*
G01*
G37*
G36*
G01*
X239748000Y-124169000D02*
X240098000Y-124169000D01*
G75*
G02*
X240273000Y-124344000I0J-175000D01*
G01*
X240273000Y-126644000D01*
G75*
G02*
X240098000Y-126819000I-175000J0D01*
G01*
X239748000Y-126819000D01*
G75*
G02*
X239573000Y-126644000I0J175000D01*
G01*
X239573000Y-124344000D01*
G75*
G02*
X239748000Y-124169000I175000J0D01*
G01*
G37*
G36*
G01*
X241018000Y-124169000D02*
X241368000Y-124169000D01*
G75*
G02*
X241543000Y-124344000I0J-175000D01*
G01*
X241543000Y-126644000D01*
G75*
G02*
X241368000Y-126819000I-175000J0D01*
G01*
X241018000Y-126819000D01*
G75*
G02*
X240843000Y-126644000I0J175000D01*
G01*
X240843000Y-124344000D01*
G75*
G02*
X241018000Y-124169000I175000J0D01*
G01*
G37*
G36*
G01*
X242288000Y-124169000D02*
X242638000Y-124169000D01*
G75*
G02*
X242813000Y-124344000I0J-175000D01*
G01*
X242813000Y-126644000D01*
G75*
G02*
X242638000Y-126819000I-175000J0D01*
G01*
X242288000Y-126819000D01*
G75*
G02*
X242113000Y-126644000I0J175000D01*
G01*
X242113000Y-124344000D01*
G75*
G02*
X242288000Y-124169000I175000J0D01*
G01*
G37*
G36*
G01*
X243558000Y-124169000D02*
X243908000Y-124169000D01*
G75*
G02*
X244083000Y-124344000I0J-175000D01*
G01*
X244083000Y-126644000D01*
G75*
G02*
X243908000Y-126819000I-175000J0D01*
G01*
X243558000Y-126819000D01*
G75*
G02*
X243383000Y-126644000I0J175000D01*
G01*
X243383000Y-124344000D01*
G75*
G02*
X243558000Y-124169000I175000J0D01*
G01*
G37*
G36*
G01*
X244828000Y-124169000D02*
X245178000Y-124169000D01*
G75*
G02*
X245353000Y-124344000I0J-175000D01*
G01*
X245353000Y-126644000D01*
G75*
G02*
X245178000Y-126819000I-175000J0D01*
G01*
X244828000Y-126819000D01*
G75*
G02*
X244653000Y-126644000I0J175000D01*
G01*
X244653000Y-124344000D01*
G75*
G02*
X244828000Y-124169000I175000J0D01*
G01*
G37*
G36*
G01*
X246098000Y-124169000D02*
X246448000Y-124169000D01*
G75*
G02*
X246623000Y-124344000I0J-175000D01*
G01*
X246623000Y-126644000D01*
G75*
G02*
X246448000Y-126819000I-175000J0D01*
G01*
X246098000Y-126819000D01*
G75*
G02*
X245923000Y-126644000I0J175000D01*
G01*
X245923000Y-124344000D01*
G75*
G02*
X246098000Y-124169000I175000J0D01*
G01*
G37*
G36*
G01*
X247368000Y-124169000D02*
X247718000Y-124169000D01*
G75*
G02*
X247893000Y-124344000I0J-175000D01*
G01*
X247893000Y-126644000D01*
G75*
G02*
X247718000Y-126819000I-175000J0D01*
G01*
X247368000Y-126819000D01*
G75*
G02*
X247193000Y-126644000I0J175000D01*
G01*
X247193000Y-124344000D01*
G75*
G02*
X247368000Y-124169000I175000J0D01*
G01*
G37*
G36*
G01*
X248638000Y-124169000D02*
X248988000Y-124169000D01*
G75*
G02*
X249163000Y-124344000I0J-175000D01*
G01*
X249163000Y-126644000D01*
G75*
G02*
X248988000Y-126819000I-175000J0D01*
G01*
X248638000Y-126819000D01*
G75*
G02*
X248463000Y-126644000I0J175000D01*
G01*
X248463000Y-124344000D01*
G75*
G02*
X248638000Y-124169000I175000J0D01*
G01*
G37*
G36*
G01*
X249908000Y-124169000D02*
X250258000Y-124169000D01*
G75*
G02*
X250433000Y-124344000I0J-175000D01*
G01*
X250433000Y-126644000D01*
G75*
G02*
X250258000Y-126819000I-175000J0D01*
G01*
X249908000Y-126819000D01*
G75*
G02*
X249733000Y-126644000I0J175000D01*
G01*
X249733000Y-124344000D01*
G75*
G02*
X249908000Y-124169000I175000J0D01*
G01*
G37*
G36*
G01*
X251178000Y-124169000D02*
X251528000Y-124169000D01*
G75*
G02*
X251703000Y-124344000I0J-175000D01*
G01*
X251703000Y-126644000D01*
G75*
G02*
X251528000Y-126819000I-175000J0D01*
G01*
X251178000Y-126819000D01*
G75*
G02*
X251003000Y-126644000I0J175000D01*
G01*
X251003000Y-124344000D01*
G75*
G02*
X251178000Y-124169000I175000J0D01*
G01*
G37*
G36*
G01*
X252448000Y-124169000D02*
X252798000Y-124169000D01*
G75*
G02*
X252973000Y-124344000I0J-175000D01*
G01*
X252973000Y-126644000D01*
G75*
G02*
X252798000Y-126819000I-175000J0D01*
G01*
X252448000Y-126819000D01*
G75*
G02*
X252273000Y-126644000I0J175000D01*
G01*
X252273000Y-124344000D01*
G75*
G02*
X252448000Y-124169000I175000J0D01*
G01*
G37*
G36*
G01*
X253718000Y-124169000D02*
X254068000Y-124169000D01*
G75*
G02*
X254243000Y-124344000I0J-175000D01*
G01*
X254243000Y-126644000D01*
G75*
G02*
X254068000Y-126819000I-175000J0D01*
G01*
X253718000Y-126819000D01*
G75*
G02*
X253543000Y-126644000I0J175000D01*
G01*
X253543000Y-124344000D01*
G75*
G02*
X253718000Y-124169000I175000J0D01*
G01*
G37*
G36*
G01*
X254988000Y-124169000D02*
X255338000Y-124169000D01*
G75*
G02*
X255513000Y-124344000I0J-175000D01*
G01*
X255513000Y-126644000D01*
G75*
G02*
X255338000Y-126819000I-175000J0D01*
G01*
X254988000Y-126819000D01*
G75*
G02*
X254813000Y-126644000I0J175000D01*
G01*
X254813000Y-124344000D01*
G75*
G02*
X254988000Y-124169000I175000J0D01*
G01*
G37*
G36*
G01*
X256258000Y-124169000D02*
X256608000Y-124169000D01*
G75*
G02*
X256783000Y-124344000I0J-175000D01*
G01*
X256783000Y-126644000D01*
G75*
G02*
X256608000Y-126819000I-175000J0D01*
G01*
X256258000Y-126819000D01*
G75*
G02*
X256083000Y-126644000I0J175000D01*
G01*
X256083000Y-124344000D01*
G75*
G02*
X256258000Y-124169000I175000J0D01*
G01*
G37*
G36*
G01*
X257528000Y-124169000D02*
X257878000Y-124169000D01*
G75*
G02*
X258053000Y-124344000I0J-175000D01*
G01*
X258053000Y-126644000D01*
G75*
G02*
X257878000Y-126819000I-175000J0D01*
G01*
X257528000Y-126819000D01*
G75*
G02*
X257353000Y-126644000I0J175000D01*
G01*
X257353000Y-124344000D01*
G75*
G02*
X257528000Y-124169000I175000J0D01*
G01*
G37*
G36*
G01*
X258798000Y-124169000D02*
X259148000Y-124169000D01*
G75*
G02*
X259323000Y-124344000I0J-175000D01*
G01*
X259323000Y-126644000D01*
G75*
G02*
X259148000Y-126819000I-175000J0D01*
G01*
X258798000Y-126819000D01*
G75*
G02*
X258623000Y-126644000I0J175000D01*
G01*
X258623000Y-124344000D01*
G75*
G02*
X258798000Y-124169000I175000J0D01*
G01*
G37*
G36*
G01*
X260068000Y-124169000D02*
X260418000Y-124169000D01*
G75*
G02*
X260593000Y-124344000I0J-175000D01*
G01*
X260593000Y-126644000D01*
G75*
G02*
X260418000Y-126819000I-175000J0D01*
G01*
X260068000Y-126819000D01*
G75*
G02*
X259893000Y-126644000I0J175000D01*
G01*
X259893000Y-124344000D01*
G75*
G02*
X260068000Y-124169000I175000J0D01*
G01*
G37*
G36*
G01*
X261338000Y-124169000D02*
X261688000Y-124169000D01*
G75*
G02*
X261863000Y-124344000I0J-175000D01*
G01*
X261863000Y-126644000D01*
G75*
G02*
X261688000Y-126819000I-175000J0D01*
G01*
X261338000Y-126819000D01*
G75*
G02*
X261163000Y-126644000I0J175000D01*
G01*
X261163000Y-124344000D01*
G75*
G02*
X261338000Y-124169000I175000J0D01*
G01*
G37*
%TD*%
%TO.C,D1*%
G36*
G01*
X120500000Y-14324250D02*
X120500000Y-13361750D01*
G75*
G02*
X120768750Y-13093000I268750J0D01*
G01*
X121306250Y-13093000D01*
G75*
G02*
X121575000Y-13361750I0J-268750D01*
G01*
X121575000Y-14324250D01*
G75*
G02*
X121306250Y-14593000I-268750J0D01*
G01*
X120768750Y-14593000D01*
G75*
G02*
X120500000Y-14324250I0J268750D01*
G01*
G37*
G36*
G01*
X118625000Y-14324250D02*
X118625000Y-13361750D01*
G75*
G02*
X118893750Y-13093000I268750J0D01*
G01*
X119431250Y-13093000D01*
G75*
G02*
X119700000Y-13361750I0J-268750D01*
G01*
X119700000Y-14324250D01*
G75*
G02*
X119431250Y-14593000I-268750J0D01*
G01*
X118893750Y-14593000D01*
G75*
G02*
X118625000Y-14324250I0J268750D01*
G01*
G37*
%TD*%
%TO.C,D2*%
G36*
G01*
X127273000Y-14324250D02*
X127273000Y-13361750D01*
G75*
G02*
X127541750Y-13093000I268750J0D01*
G01*
X128079250Y-13093000D01*
G75*
G02*
X128348000Y-13361750I0J-268750D01*
G01*
X128348000Y-14324250D01*
G75*
G02*
X128079250Y-14593000I-268750J0D01*
G01*
X127541750Y-14593000D01*
G75*
G02*
X127273000Y-14324250I0J268750D01*
G01*
G37*
G36*
G01*
X125398000Y-14324250D02*
X125398000Y-13361750D01*
G75*
G02*
X125666750Y-13093000I268750J0D01*
G01*
X126204250Y-13093000D01*
G75*
G02*
X126473000Y-13361750I0J-268750D01*
G01*
X126473000Y-14324250D01*
G75*
G02*
X126204250Y-14593000I-268750J0D01*
G01*
X125666750Y-14593000D01*
G75*
G02*
X125398000Y-14324250I0J268750D01*
G01*
G37*
%TD*%
%TO.C,D3*%
G36*
G01*
X158309000Y-14324250D02*
X158309000Y-13361750D01*
G75*
G02*
X158577750Y-13093000I268750J0D01*
G01*
X159115250Y-13093000D01*
G75*
G02*
X159384000Y-13361750I0J-268750D01*
G01*
X159384000Y-14324250D01*
G75*
G02*
X159115250Y-14593000I-268750J0D01*
G01*
X158577750Y-14593000D01*
G75*
G02*
X158309000Y-14324250I0J268750D01*
G01*
G37*
G36*
G01*
X156434000Y-14324250D02*
X156434000Y-13361750D01*
G75*
G02*
X156702750Y-13093000I268750J0D01*
G01*
X157240250Y-13093000D01*
G75*
G02*
X157509000Y-13361750I0J-268750D01*
G01*
X157509000Y-14324250D01*
G75*
G02*
X157240250Y-14593000I-268750J0D01*
G01*
X156702750Y-14593000D01*
G75*
G02*
X156434000Y-14324250I0J268750D01*
G01*
G37*
%TD*%
%TO.C,D4*%
G36*
G01*
X162247000Y-14324250D02*
X162247000Y-13361750D01*
G75*
G02*
X162515750Y-13093000I268750J0D01*
G01*
X163053250Y-13093000D01*
G75*
G02*
X163322000Y-13361750I0J-268750D01*
G01*
X163322000Y-14324250D01*
G75*
G02*
X163053250Y-14593000I-268750J0D01*
G01*
X162515750Y-14593000D01*
G75*
G02*
X162247000Y-14324250I0J268750D01*
G01*
G37*
G36*
G01*
X160372000Y-14324250D02*
X160372000Y-13361750D01*
G75*
G02*
X160640750Y-13093000I268750J0D01*
G01*
X161178250Y-13093000D01*
G75*
G02*
X161447000Y-13361750I0J-268750D01*
G01*
X161447000Y-14324250D01*
G75*
G02*
X161178250Y-14593000I-268750J0D01*
G01*
X160640750Y-14593000D01*
G75*
G02*
X160372000Y-14324250I0J268750D01*
G01*
G37*
%TD*%
%TO.C,D5*%
G36*
G01*
X166087000Y-14324250D02*
X166087000Y-13361750D01*
G75*
G02*
X166355750Y-13093000I268750J0D01*
G01*
X166893250Y-13093000D01*
G75*
G02*
X167162000Y-13361750I0J-268750D01*
G01*
X167162000Y-14324250D01*
G75*
G02*
X166893250Y-14593000I-268750J0D01*
G01*
X166355750Y-14593000D01*
G75*
G02*
X166087000Y-14324250I0J268750D01*
G01*
G37*
G36*
G01*
X164212000Y-14324250D02*
X164212000Y-13361750D01*
G75*
G02*
X164480750Y-13093000I268750J0D01*
G01*
X165018250Y-13093000D01*
G75*
G02*
X165287000Y-13361750I0J-268750D01*
G01*
X165287000Y-14324250D01*
G75*
G02*
X165018250Y-14593000I-268750J0D01*
G01*
X164480750Y-14593000D01*
G75*
G02*
X164212000Y-14324250I0J268750D01*
G01*
G37*
%TD*%
%TO.C,D6*%
G36*
G01*
X148277000Y-14324250D02*
X148277000Y-13361750D01*
G75*
G02*
X148545750Y-13093000I268750J0D01*
G01*
X149083250Y-13093000D01*
G75*
G02*
X149352000Y-13361750I0J-268750D01*
G01*
X149352000Y-14324250D01*
G75*
G02*
X149083250Y-14593000I-268750J0D01*
G01*
X148545750Y-14593000D01*
G75*
G02*
X148277000Y-14324250I0J268750D01*
G01*
G37*
G36*
G01*
X146402000Y-14324250D02*
X146402000Y-13361750D01*
G75*
G02*
X146670750Y-13093000I268750J0D01*
G01*
X147208250Y-13093000D01*
G75*
G02*
X147477000Y-13361750I0J-268750D01*
G01*
X147477000Y-14324250D01*
G75*
G02*
X147208250Y-14593000I-268750J0D01*
G01*
X146670750Y-14593000D01*
G75*
G02*
X146402000Y-14324250I0J268750D01*
G01*
G37*
%TD*%
D19*
%TO.C,J1*%
X196215000Y-14224000D03*
X198755000Y-14224000D03*
X201295000Y-14224000D03*
%TD*%
D20*
%TO.C,J2*%
X100203000Y-164338000D03*
X102743000Y-164338000D03*
X105283000Y-164338000D03*
X107823000Y-164338000D03*
X110363000Y-164338000D03*
X112903000Y-164338000D03*
X115443000Y-164338000D03*
X117983000Y-164338000D03*
X120523000Y-164338000D03*
X123063000Y-164338000D03*
X125603000Y-164338000D03*
X128143000Y-164338000D03*
X130683000Y-164338000D03*
X133223000Y-164338000D03*
X135763000Y-164338000D03*
X138303000Y-164338000D03*
X140843000Y-164338000D03*
X143383000Y-164338000D03*
X153543000Y-164338000D03*
X156083000Y-164338000D03*
X158623000Y-164338000D03*
X161163000Y-164338000D03*
X163703000Y-164338000D03*
X166243000Y-164338000D03*
X168783000Y-164338000D03*
X171323000Y-164338000D03*
X173863000Y-164338000D03*
X176403000Y-164338000D03*
X178943000Y-164338000D03*
X181483000Y-164338000D03*
X184023000Y-164338000D03*
X186563000Y-164338000D03*
X189103000Y-164338000D03*
X191643000Y-164338000D03*
X194183000Y-164338000D03*
X196723000Y-164338000D03*
X199263000Y-164338000D03*
X201803000Y-164338000D03*
X204343000Y-164338000D03*
X206883000Y-164338000D03*
X209423000Y-164338000D03*
X211963000Y-164338000D03*
X214503000Y-164338000D03*
X217043000Y-164338000D03*
X219583000Y-164338000D03*
X222123000Y-164338000D03*
X224663000Y-164338000D03*
X227203000Y-164338000D03*
X229743000Y-164338000D03*
%TD*%
%TO.C,J5*%
G36*
G01*
X89053000Y-147332000D02*
X89053000Y-145532000D01*
G75*
G02*
X89953000Y-144632000I900000J0D01*
G01*
X91753000Y-144632000D01*
G75*
G02*
X92653000Y-145532000I0J-900000D01*
G01*
X92653000Y-147332000D01*
G75*
G02*
X91753000Y-148232000I-900000J0D01*
G01*
X89953000Y-148232000D01*
G75*
G02*
X89053000Y-147332000I0J900000D01*
G01*
G37*
G36*
G01*
X86303000Y-142757000D02*
X86303000Y-140707000D01*
G75*
G02*
X87078000Y-139932000I775000J0D01*
G01*
X88628000Y-139932000D01*
G75*
G02*
X89403000Y-140707000I0J-775000D01*
G01*
X89403000Y-142757000D01*
G75*
G02*
X88628000Y-143532000I-775000J0D01*
G01*
X87078000Y-143532000D01*
G75*
G02*
X86303000Y-142757000I0J775000D01*
G01*
G37*
D21*
X93853000Y-141732000D03*
%TD*%
%TO.C,R1*%
G36*
G01*
X178916250Y-24541000D02*
X177953750Y-24541000D01*
G75*
G02*
X177685000Y-24272250I0J268750D01*
G01*
X177685000Y-23734750D01*
G75*
G02*
X177953750Y-23466000I268750J0D01*
G01*
X178916250Y-23466000D01*
G75*
G02*
X179185000Y-23734750I0J-268750D01*
G01*
X179185000Y-24272250D01*
G75*
G02*
X178916250Y-24541000I-268750J0D01*
G01*
G37*
G36*
G01*
X178916250Y-26416000D02*
X177953750Y-26416000D01*
G75*
G02*
X177685000Y-26147250I0J268750D01*
G01*
X177685000Y-25609750D01*
G75*
G02*
X177953750Y-25341000I268750J0D01*
G01*
X178916250Y-25341000D01*
G75*
G02*
X179185000Y-25609750I0J-268750D01*
G01*
X179185000Y-26147250D01*
G75*
G02*
X178916250Y-26416000I-268750J0D01*
G01*
G37*
%TD*%
%TO.C,R2*%
G36*
G01*
X180493750Y-25341000D02*
X181456250Y-25341000D01*
G75*
G02*
X181725000Y-25609750I0J-268750D01*
G01*
X181725000Y-26147250D01*
G75*
G02*
X181456250Y-26416000I-268750J0D01*
G01*
X180493750Y-26416000D01*
G75*
G02*
X180225000Y-26147250I0J268750D01*
G01*
X180225000Y-25609750D01*
G75*
G02*
X180493750Y-25341000I268750J0D01*
G01*
G37*
G36*
G01*
X180493750Y-23466000D02*
X181456250Y-23466000D01*
G75*
G02*
X181725000Y-23734750I0J-268750D01*
G01*
X181725000Y-24272250D01*
G75*
G02*
X181456250Y-24541000I-268750J0D01*
G01*
X180493750Y-24541000D01*
G75*
G02*
X180225000Y-24272250I0J268750D01*
G01*
X180225000Y-23734750D01*
G75*
G02*
X180493750Y-23466000I268750J0D01*
G01*
G37*
%TD*%
%TO.C,R3*%
G36*
G01*
X183996250Y-24541000D02*
X183033750Y-24541000D01*
G75*
G02*
X182765000Y-24272250I0J268750D01*
G01*
X182765000Y-23734750D01*
G75*
G02*
X183033750Y-23466000I268750J0D01*
G01*
X183996250Y-23466000D01*
G75*
G02*
X184265000Y-23734750I0J-268750D01*
G01*
X184265000Y-24272250D01*
G75*
G02*
X183996250Y-24541000I-268750J0D01*
G01*
G37*
G36*
G01*
X183996250Y-26416000D02*
X183033750Y-26416000D01*
G75*
G02*
X182765000Y-26147250I0J268750D01*
G01*
X182765000Y-25609750D01*
G75*
G02*
X183033750Y-25341000I268750J0D01*
G01*
X183996250Y-25341000D01*
G75*
G02*
X184265000Y-25609750I0J-268750D01*
G01*
X184265000Y-26147250D01*
G75*
G02*
X183996250Y-26416000I-268750J0D01*
G01*
G37*
%TD*%
%TO.C,R4*%
G36*
G01*
X185573750Y-25341000D02*
X186536250Y-25341000D01*
G75*
G02*
X186805000Y-25609750I0J-268750D01*
G01*
X186805000Y-26147250D01*
G75*
G02*
X186536250Y-26416000I-268750J0D01*
G01*
X185573750Y-26416000D01*
G75*
G02*
X185305000Y-26147250I0J268750D01*
G01*
X185305000Y-25609750D01*
G75*
G02*
X185573750Y-25341000I268750J0D01*
G01*
G37*
G36*
G01*
X185573750Y-23466000D02*
X186536250Y-23466000D01*
G75*
G02*
X186805000Y-23734750I0J-268750D01*
G01*
X186805000Y-24272250D01*
G75*
G02*
X186536250Y-24541000I-268750J0D01*
G01*
X185573750Y-24541000D01*
G75*
G02*
X185305000Y-24272250I0J268750D01*
G01*
X185305000Y-23734750D01*
G75*
G02*
X185573750Y-23466000I268750J0D01*
G01*
G37*
%TD*%
D22*
%TO.C,RN4*%
X143821000Y-19166000D03*
D23*
X143021000Y-19166000D03*
D22*
X141421000Y-19166000D03*
D23*
X142221000Y-19166000D03*
D22*
X143821000Y-20966000D03*
D23*
X142221000Y-20966000D03*
X143021000Y-20966000D03*
D22*
X141421000Y-20966000D03*
%TD*%
%TO.C,RN5*%
X149422000Y-20966000D03*
D23*
X150222000Y-20966000D03*
D22*
X151822000Y-20966000D03*
D23*
X151022000Y-20966000D03*
D22*
X149422000Y-19166000D03*
D23*
X151022000Y-19166000D03*
X150222000Y-19166000D03*
D22*
X151822000Y-19166000D03*
%TD*%
D24*
%TO.C,U5*%
X94005000Y-124065000D03*
X94005000Y-128665000D03*
X94005000Y-126365000D03*
D25*
X100305000Y-126365000D03*
%TD*%
D26*
%TO.C,U14*%
X117856000Y-70739000D03*
X133096000Y-22479000D03*
X117856000Y-68199000D03*
X133096000Y-25019000D03*
X117856000Y-65659000D03*
X133096000Y-27559000D03*
X117856000Y-63119000D03*
X133096000Y-30099000D03*
X117856000Y-60579000D03*
X133096000Y-32639000D03*
X117856000Y-58039000D03*
X133096000Y-35179000D03*
X117856000Y-55499000D03*
X133096000Y-37719000D03*
X117856000Y-52959000D03*
X133096000Y-40259000D03*
X117856000Y-50419000D03*
X133096000Y-42799000D03*
X117856000Y-47879000D03*
X133096000Y-45339000D03*
X117856000Y-45339000D03*
X133096000Y-47879000D03*
X117856000Y-42799000D03*
X133096000Y-50419000D03*
X117856000Y-40259000D03*
X133096000Y-52959000D03*
X117856000Y-37719000D03*
X133096000Y-55499000D03*
X117856000Y-35179000D03*
X133096000Y-58039000D03*
X117856000Y-32639000D03*
X133096000Y-60579000D03*
X117856000Y-30099000D03*
X133096000Y-63119000D03*
X117856000Y-27559000D03*
X133096000Y-65659000D03*
X117856000Y-25019000D03*
X133096000Y-68199000D03*
X117856000Y-22479000D03*
D27*
X133096000Y-70739000D03*
%TD*%
D28*
%TO.C,X2*%
X191516000Y-66421000D03*
X199136000Y-66421000D03*
X199136000Y-51181000D03*
D29*
X191516000Y-51181000D03*
%TD*%
D30*
%TO.C,IC1*%
X86360000Y-103632000D03*
G36*
G01*
X86872500Y-101667000D02*
X85847500Y-101667000D01*
G75*
G02*
X85560000Y-101379500I0J287500D01*
G01*
X85560000Y-100804500D01*
G75*
G02*
X85847500Y-100517000I287500J0D01*
G01*
X86872500Y-100517000D01*
G75*
G02*
X87160000Y-100804500I0J-287500D01*
G01*
X87160000Y-101379500D01*
G75*
G02*
X86872500Y-101667000I-287500J0D01*
G01*
G37*
G36*
G01*
X86872500Y-102937000D02*
X85847500Y-102937000D01*
G75*
G02*
X85560000Y-102649500I0J287500D01*
G01*
X85560000Y-102074500D01*
G75*
G02*
X85847500Y-101787000I287500J0D01*
G01*
X86872500Y-101787000D01*
G75*
G02*
X87160000Y-102074500I0J-287500D01*
G01*
X87160000Y-102649500D01*
G75*
G02*
X86872500Y-102937000I-287500J0D01*
G01*
G37*
%TD*%
D31*
%TO.C,U3*%
X177546000Y-40386000D03*
X177546000Y-42926000D03*
X177546000Y-45466000D03*
X177546000Y-48006000D03*
X177546000Y-50546000D03*
X177546000Y-53086000D03*
X177546000Y-55626000D03*
X177546000Y-58166000D03*
X177546000Y-60706000D03*
X177546000Y-63246000D03*
X175006000Y-40386000D03*
X175006000Y-42926000D03*
X175006000Y-45466000D03*
X175006000Y-48006000D03*
X175006000Y-50546000D03*
X175006000Y-53086000D03*
X175006000Y-55626000D03*
X175006000Y-58166000D03*
X175006000Y-60706000D03*
X175006000Y-63246000D03*
X175006000Y-65786000D03*
X172466000Y-65786000D03*
X169926000Y-65786000D03*
X167386000Y-65786000D03*
X164846000Y-65786000D03*
X162306000Y-65786000D03*
X159766000Y-65786000D03*
X157226000Y-65786000D03*
X154686000Y-65786000D03*
X152146000Y-65786000D03*
X149606000Y-65786000D03*
X172466000Y-63246000D03*
X169926000Y-63246000D03*
X167386000Y-63246000D03*
X164846000Y-63246000D03*
X162306000Y-63246000D03*
X159766000Y-63246000D03*
X157226000Y-63246000D03*
X154686000Y-63246000D03*
X152146000Y-63246000D03*
X149606000Y-63246000D03*
X147066000Y-63246000D03*
X147066000Y-60706000D03*
X147066000Y-58166000D03*
X147066000Y-55626000D03*
X147066000Y-53086000D03*
X147066000Y-50546000D03*
X147066000Y-48006000D03*
X147066000Y-45466000D03*
X147066000Y-42926000D03*
X147066000Y-40386000D03*
X147066000Y-37846000D03*
X149606000Y-60706000D03*
X149606000Y-58166000D03*
X149606000Y-55626000D03*
X149606000Y-53086000D03*
X149606000Y-50546000D03*
X149606000Y-48006000D03*
X149606000Y-45466000D03*
X149606000Y-42926000D03*
X149606000Y-40386000D03*
X149606000Y-37846000D03*
X175006000Y-35306000D03*
X172466000Y-35306000D03*
X169926000Y-35306000D03*
X167386000Y-35306000D03*
X164846000Y-35306000D03*
X149606000Y-35306000D03*
X152146000Y-35306000D03*
X154686000Y-35306000D03*
X157226000Y-35306000D03*
X159766000Y-35306000D03*
D32*
X162306000Y-35306000D03*
D31*
X177546000Y-37846000D03*
X175006000Y-37846000D03*
X172466000Y-37846000D03*
X169926000Y-37846000D03*
X167386000Y-37846000D03*
X164846000Y-37846000D03*
X152146000Y-37846000D03*
X154686000Y-37846000D03*
X157226000Y-37846000D03*
X159766000Y-37846000D03*
X162306000Y-37846000D03*
%TD*%
D15*
%TO.C,U2*%
X212852000Y-16891000D03*
X261112000Y-32131000D03*
X215392000Y-16891000D03*
X258572000Y-32131000D03*
X217932000Y-16891000D03*
X256032000Y-32131000D03*
X220472000Y-16891000D03*
X253492000Y-32131000D03*
X223012000Y-16891000D03*
X250952000Y-32131000D03*
X225552000Y-16891000D03*
X248412000Y-32131000D03*
X228092000Y-16891000D03*
X245872000Y-32131000D03*
X230632000Y-16891000D03*
X243332000Y-32131000D03*
X233172000Y-16891000D03*
X240792000Y-32131000D03*
X235712000Y-16891000D03*
X238252000Y-32131000D03*
X238252000Y-16891000D03*
X235712000Y-32131000D03*
X240792000Y-16891000D03*
X233172000Y-32131000D03*
X243332000Y-16891000D03*
X230632000Y-32131000D03*
X245872000Y-16891000D03*
X228092000Y-32131000D03*
X248412000Y-16891000D03*
X225552000Y-32131000D03*
X250952000Y-16891000D03*
X223012000Y-32131000D03*
X253492000Y-16891000D03*
X220472000Y-32131000D03*
X256032000Y-16891000D03*
X217932000Y-32131000D03*
X258572000Y-16891000D03*
X215392000Y-32131000D03*
X261112000Y-16891000D03*
D16*
X212852000Y-32131000D03*
%TD*%
D13*
%TO.C,J4*%
X177165000Y-16891000D03*
X177165000Y-14351000D03*
X179705000Y-16891000D03*
X179705000Y-14351000D03*
X182245000Y-16891000D03*
X182245000Y-14351000D03*
X184785000Y-16891000D03*
X184785000Y-14351000D03*
X187325000Y-16891000D03*
D14*
X187325000Y-14351000D03*
%TD*%
M02*
