%TF.GenerationSoftware,KiCad,Pcbnew,5.1.6-c6e7f7d~86~ubuntu18.04.1*%
%TF.CreationDate,2021-02-20T22:43:29+08:00*%
%TF.ProjectId,68k_dev,36386b5f-6465-4762-9e6b-696361645f70,rev?*%
%TF.SameCoordinates,Original*%
%TF.FileFunction,Soldermask,Bot*%
%TF.FilePolarity,Negative*%
%FSLAX46Y46*%
G04 Gerber Fmt 4.6, Leading zero omitted, Abs format (unit mm)*
G04 Created by KiCad (PCBNEW 5.1.6-c6e7f7d~86~ubuntu18.04.1) date 2021-02-20 22:43:29*
%MOMM*%
%LPD*%
G01*
G04 APERTURE LIST*
%TA.AperFunction,Profile*%
%ADD10C,0.050000*%
%TD*%
%ADD11C,1.500000*%
%ADD12O,1.800000X1.800000*%
%ADD13R,1.800000X1.800000*%
%ADD14O,1.700000X2.500000*%
%ADD15R,1.700000X2.500000*%
%ADD16C,2.300000*%
%ADD17R,2.300000X2.300000*%
%ADD18R,0.600000X0.900000*%
%ADD19R,0.500000X0.900000*%
%ADD20C,2.200000*%
%ADD21R,1.880000X7.720000*%
%ADD22R,3.600000X3.600000*%
%ADD23R,0.900000X0.600000*%
%ADD24R,0.900000X0.500000*%
%ADD25O,1.700000X1.700000*%
%ADD26R,1.700000X1.700000*%
%ADD27C,2.600000*%
%ADD28R,2.600000X2.600000*%
%ADD29R,1.600000X1.150000*%
%ADD30C,1.522400*%
%ADD31R,1.522400X1.522400*%
G04 APERTURE END LIST*
D10*
X97663000Y-159512000D02*
X79883000Y-159512000D01*
X97663000Y-168402000D02*
X97663000Y-159512000D01*
X145923000Y-168402000D02*
X97663000Y-168402000D01*
X145923000Y-160782000D02*
X145923000Y-168402000D01*
X151003000Y-160782000D02*
X145923000Y-160782000D01*
X151003000Y-168402000D02*
X151003000Y-160782000D01*
X232283000Y-168402000D02*
X151003000Y-168402000D01*
X232283000Y-159512000D02*
X232283000Y-168402000D01*
X233553000Y-159512000D02*
X232283000Y-159512000D01*
X79883000Y-10000000D02*
X79883000Y-159512000D01*
X270383000Y-10000000D02*
X79883000Y-10000000D01*
X270383000Y-159512000D02*
X270383000Y-10000000D01*
X233553000Y-159512000D02*
X270383000Y-159512000D01*
%TO.C,C30*%
G36*
G01*
X159620000Y-122965738D02*
X159620000Y-123922262D01*
G75*
G02*
X159348262Y-124194000I-271738J0D01*
G01*
X158641738Y-124194000D01*
G75*
G02*
X158370000Y-123922262I0J271738D01*
G01*
X158370000Y-122965738D01*
G75*
G02*
X158641738Y-122694000I271738J0D01*
G01*
X159348262Y-122694000D01*
G75*
G02*
X159620000Y-122965738I0J-271738D01*
G01*
G37*
G36*
G01*
X161670000Y-122965738D02*
X161670000Y-123922262D01*
G75*
G02*
X161398262Y-124194000I-271738J0D01*
G01*
X160691738Y-124194000D01*
G75*
G02*
X160420000Y-123922262I0J271738D01*
G01*
X160420000Y-122965738D01*
G75*
G02*
X160691738Y-122694000I271738J0D01*
G01*
X161398262Y-122694000D01*
G75*
G02*
X161670000Y-122965738I0J-271738D01*
G01*
G37*
%TD*%
%TO.C,U21*%
G36*
G01*
X136184000Y-125576000D02*
X136184000Y-125876000D01*
G75*
G02*
X136034000Y-126026000I-150000J0D01*
G01*
X134334000Y-126026000D01*
G75*
G02*
X134184000Y-125876000I0J150000D01*
G01*
X134184000Y-125576000D01*
G75*
G02*
X134334000Y-125426000I150000J0D01*
G01*
X136034000Y-125426000D01*
G75*
G02*
X136184000Y-125576000I0J-150000D01*
G01*
G37*
G36*
G01*
X136184000Y-126226000D02*
X136184000Y-126526000D01*
G75*
G02*
X136034000Y-126676000I-150000J0D01*
G01*
X134334000Y-126676000D01*
G75*
G02*
X134184000Y-126526000I0J150000D01*
G01*
X134184000Y-126226000D01*
G75*
G02*
X134334000Y-126076000I150000J0D01*
G01*
X136034000Y-126076000D01*
G75*
G02*
X136184000Y-126226000I0J-150000D01*
G01*
G37*
G36*
G01*
X136184000Y-126876000D02*
X136184000Y-127176000D01*
G75*
G02*
X136034000Y-127326000I-150000J0D01*
G01*
X134334000Y-127326000D01*
G75*
G02*
X134184000Y-127176000I0J150000D01*
G01*
X134184000Y-126876000D01*
G75*
G02*
X134334000Y-126726000I150000J0D01*
G01*
X136034000Y-126726000D01*
G75*
G02*
X136184000Y-126876000I0J-150000D01*
G01*
G37*
G36*
G01*
X136184000Y-127526000D02*
X136184000Y-127826000D01*
G75*
G02*
X136034000Y-127976000I-150000J0D01*
G01*
X134334000Y-127976000D01*
G75*
G02*
X134184000Y-127826000I0J150000D01*
G01*
X134184000Y-127526000D01*
G75*
G02*
X134334000Y-127376000I150000J0D01*
G01*
X136034000Y-127376000D01*
G75*
G02*
X136184000Y-127526000I0J-150000D01*
G01*
G37*
G36*
G01*
X136184000Y-128176000D02*
X136184000Y-128476000D01*
G75*
G02*
X136034000Y-128626000I-150000J0D01*
G01*
X134334000Y-128626000D01*
G75*
G02*
X134184000Y-128476000I0J150000D01*
G01*
X134184000Y-128176000D01*
G75*
G02*
X134334000Y-128026000I150000J0D01*
G01*
X136034000Y-128026000D01*
G75*
G02*
X136184000Y-128176000I0J-150000D01*
G01*
G37*
G36*
G01*
X136184000Y-128826000D02*
X136184000Y-129126000D01*
G75*
G02*
X136034000Y-129276000I-150000J0D01*
G01*
X134334000Y-129276000D01*
G75*
G02*
X134184000Y-129126000I0J150000D01*
G01*
X134184000Y-128826000D01*
G75*
G02*
X134334000Y-128676000I150000J0D01*
G01*
X136034000Y-128676000D01*
G75*
G02*
X136184000Y-128826000I0J-150000D01*
G01*
G37*
G36*
G01*
X136184000Y-129476000D02*
X136184000Y-129776000D01*
G75*
G02*
X136034000Y-129926000I-150000J0D01*
G01*
X134334000Y-129926000D01*
G75*
G02*
X134184000Y-129776000I0J150000D01*
G01*
X134184000Y-129476000D01*
G75*
G02*
X134334000Y-129326000I150000J0D01*
G01*
X136034000Y-129326000D01*
G75*
G02*
X136184000Y-129476000I0J-150000D01*
G01*
G37*
G36*
G01*
X136184000Y-130126000D02*
X136184000Y-130426000D01*
G75*
G02*
X136034000Y-130576000I-150000J0D01*
G01*
X134334000Y-130576000D01*
G75*
G02*
X134184000Y-130426000I0J150000D01*
G01*
X134184000Y-130126000D01*
G75*
G02*
X134334000Y-129976000I150000J0D01*
G01*
X136034000Y-129976000D01*
G75*
G02*
X136184000Y-130126000I0J-150000D01*
G01*
G37*
G36*
G01*
X136184000Y-130776000D02*
X136184000Y-131076000D01*
G75*
G02*
X136034000Y-131226000I-150000J0D01*
G01*
X134334000Y-131226000D01*
G75*
G02*
X134184000Y-131076000I0J150000D01*
G01*
X134184000Y-130776000D01*
G75*
G02*
X134334000Y-130626000I150000J0D01*
G01*
X136034000Y-130626000D01*
G75*
G02*
X136184000Y-130776000I0J-150000D01*
G01*
G37*
G36*
G01*
X136184000Y-131426000D02*
X136184000Y-131726000D01*
G75*
G02*
X136034000Y-131876000I-150000J0D01*
G01*
X134334000Y-131876000D01*
G75*
G02*
X134184000Y-131726000I0J150000D01*
G01*
X134184000Y-131426000D01*
G75*
G02*
X134334000Y-131276000I150000J0D01*
G01*
X136034000Y-131276000D01*
G75*
G02*
X136184000Y-131426000I0J-150000D01*
G01*
G37*
G36*
G01*
X143184000Y-131426000D02*
X143184000Y-131726000D01*
G75*
G02*
X143034000Y-131876000I-150000J0D01*
G01*
X141334000Y-131876000D01*
G75*
G02*
X141184000Y-131726000I0J150000D01*
G01*
X141184000Y-131426000D01*
G75*
G02*
X141334000Y-131276000I150000J0D01*
G01*
X143034000Y-131276000D01*
G75*
G02*
X143184000Y-131426000I0J-150000D01*
G01*
G37*
G36*
G01*
X143184000Y-130776000D02*
X143184000Y-131076000D01*
G75*
G02*
X143034000Y-131226000I-150000J0D01*
G01*
X141334000Y-131226000D01*
G75*
G02*
X141184000Y-131076000I0J150000D01*
G01*
X141184000Y-130776000D01*
G75*
G02*
X141334000Y-130626000I150000J0D01*
G01*
X143034000Y-130626000D01*
G75*
G02*
X143184000Y-130776000I0J-150000D01*
G01*
G37*
G36*
G01*
X143184000Y-130126000D02*
X143184000Y-130426000D01*
G75*
G02*
X143034000Y-130576000I-150000J0D01*
G01*
X141334000Y-130576000D01*
G75*
G02*
X141184000Y-130426000I0J150000D01*
G01*
X141184000Y-130126000D01*
G75*
G02*
X141334000Y-129976000I150000J0D01*
G01*
X143034000Y-129976000D01*
G75*
G02*
X143184000Y-130126000I0J-150000D01*
G01*
G37*
G36*
G01*
X143184000Y-129476000D02*
X143184000Y-129776000D01*
G75*
G02*
X143034000Y-129926000I-150000J0D01*
G01*
X141334000Y-129926000D01*
G75*
G02*
X141184000Y-129776000I0J150000D01*
G01*
X141184000Y-129476000D01*
G75*
G02*
X141334000Y-129326000I150000J0D01*
G01*
X143034000Y-129326000D01*
G75*
G02*
X143184000Y-129476000I0J-150000D01*
G01*
G37*
G36*
G01*
X143184000Y-128826000D02*
X143184000Y-129126000D01*
G75*
G02*
X143034000Y-129276000I-150000J0D01*
G01*
X141334000Y-129276000D01*
G75*
G02*
X141184000Y-129126000I0J150000D01*
G01*
X141184000Y-128826000D01*
G75*
G02*
X141334000Y-128676000I150000J0D01*
G01*
X143034000Y-128676000D01*
G75*
G02*
X143184000Y-128826000I0J-150000D01*
G01*
G37*
G36*
G01*
X143184000Y-128176000D02*
X143184000Y-128476000D01*
G75*
G02*
X143034000Y-128626000I-150000J0D01*
G01*
X141334000Y-128626000D01*
G75*
G02*
X141184000Y-128476000I0J150000D01*
G01*
X141184000Y-128176000D01*
G75*
G02*
X141334000Y-128026000I150000J0D01*
G01*
X143034000Y-128026000D01*
G75*
G02*
X143184000Y-128176000I0J-150000D01*
G01*
G37*
G36*
G01*
X143184000Y-127526000D02*
X143184000Y-127826000D01*
G75*
G02*
X143034000Y-127976000I-150000J0D01*
G01*
X141334000Y-127976000D01*
G75*
G02*
X141184000Y-127826000I0J150000D01*
G01*
X141184000Y-127526000D01*
G75*
G02*
X141334000Y-127376000I150000J0D01*
G01*
X143034000Y-127376000D01*
G75*
G02*
X143184000Y-127526000I0J-150000D01*
G01*
G37*
G36*
G01*
X143184000Y-126876000D02*
X143184000Y-127176000D01*
G75*
G02*
X143034000Y-127326000I-150000J0D01*
G01*
X141334000Y-127326000D01*
G75*
G02*
X141184000Y-127176000I0J150000D01*
G01*
X141184000Y-126876000D01*
G75*
G02*
X141334000Y-126726000I150000J0D01*
G01*
X143034000Y-126726000D01*
G75*
G02*
X143184000Y-126876000I0J-150000D01*
G01*
G37*
G36*
G01*
X143184000Y-126226000D02*
X143184000Y-126526000D01*
G75*
G02*
X143034000Y-126676000I-150000J0D01*
G01*
X141334000Y-126676000D01*
G75*
G02*
X141184000Y-126526000I0J150000D01*
G01*
X141184000Y-126226000D01*
G75*
G02*
X141334000Y-126076000I150000J0D01*
G01*
X143034000Y-126076000D01*
G75*
G02*
X143184000Y-126226000I0J-150000D01*
G01*
G37*
G36*
G01*
X143184000Y-125576000D02*
X143184000Y-125876000D01*
G75*
G02*
X143034000Y-126026000I-150000J0D01*
G01*
X141334000Y-126026000D01*
G75*
G02*
X141184000Y-125876000I0J150000D01*
G01*
X141184000Y-125576000D01*
G75*
G02*
X141334000Y-125426000I150000J0D01*
G01*
X143034000Y-125426000D01*
G75*
G02*
X143184000Y-125576000I0J-150000D01*
G01*
G37*
%TD*%
D11*
%TO.C,JP1*%
X96647000Y-101219000D03*
X96647000Y-103759000D03*
%TD*%
D12*
%TO.C,J3*%
X90805000Y-67945000D03*
X93345000Y-67945000D03*
X90805000Y-65405000D03*
X93345000Y-65405000D03*
X90805000Y-62865000D03*
X93345000Y-62865000D03*
X90805000Y-60325000D03*
X93345000Y-60325000D03*
X90805000Y-57785000D03*
X93345000Y-57785000D03*
X90805000Y-55245000D03*
X93345000Y-55245000D03*
X90805000Y-52705000D03*
X93345000Y-52705000D03*
X90805000Y-50165000D03*
X93345000Y-50165000D03*
X90805000Y-47625000D03*
X93345000Y-47625000D03*
X90805000Y-45085000D03*
X93345000Y-45085000D03*
X90805000Y-42545000D03*
X93345000Y-42545000D03*
X90805000Y-40005000D03*
X93345000Y-40005000D03*
X90805000Y-37465000D03*
X93345000Y-37465000D03*
X90805000Y-34925000D03*
X93345000Y-34925000D03*
X90805000Y-32385000D03*
X93345000Y-32385000D03*
X90805000Y-29845000D03*
X93345000Y-29845000D03*
X90805000Y-27305000D03*
X93345000Y-27305000D03*
X90805000Y-24765000D03*
X93345000Y-24765000D03*
X90805000Y-22225000D03*
X93345000Y-22225000D03*
X90805000Y-19685000D03*
D13*
X93345000Y-19685000D03*
%TD*%
%TO.C,C34*%
G36*
G01*
X100438000Y-13364738D02*
X100438000Y-14321262D01*
G75*
G02*
X100166262Y-14593000I-271738J0D01*
G01*
X99459738Y-14593000D01*
G75*
G02*
X99188000Y-14321262I0J271738D01*
G01*
X99188000Y-13364738D01*
G75*
G02*
X99459738Y-13093000I271738J0D01*
G01*
X100166262Y-13093000D01*
G75*
G02*
X100438000Y-13364738I0J-271738D01*
G01*
G37*
G36*
G01*
X102488000Y-13364738D02*
X102488000Y-14321262D01*
G75*
G02*
X102216262Y-14593000I-271738J0D01*
G01*
X101509738Y-14593000D01*
G75*
G02*
X101238000Y-14321262I0J271738D01*
G01*
X101238000Y-13364738D01*
G75*
G02*
X101509738Y-13093000I271738J0D01*
G01*
X102216262Y-13093000D01*
G75*
G02*
X102488000Y-13364738I0J-271738D01*
G01*
G37*
%TD*%
%TO.C,C33*%
G36*
G01*
X113430000Y-14321262D02*
X113430000Y-13364738D01*
G75*
G02*
X113701738Y-13093000I271738J0D01*
G01*
X114408262Y-13093000D01*
G75*
G02*
X114680000Y-13364738I0J-271738D01*
G01*
X114680000Y-14321262D01*
G75*
G02*
X114408262Y-14593000I-271738J0D01*
G01*
X113701738Y-14593000D01*
G75*
G02*
X113430000Y-14321262I0J271738D01*
G01*
G37*
G36*
G01*
X111380000Y-14321262D02*
X111380000Y-13364738D01*
G75*
G02*
X111651738Y-13093000I271738J0D01*
G01*
X112358262Y-13093000D01*
G75*
G02*
X112630000Y-13364738I0J-271738D01*
G01*
X112630000Y-14321262D01*
G75*
G02*
X112358262Y-14593000I-271738J0D01*
G01*
X111651738Y-14593000D01*
G75*
G02*
X111380000Y-14321262I0J271738D01*
G01*
G37*
%TD*%
%TO.C,C31*%
G36*
G01*
X195942000Y-123473738D02*
X195942000Y-124430262D01*
G75*
G02*
X195670262Y-124702000I-271738J0D01*
G01*
X194963738Y-124702000D01*
G75*
G02*
X194692000Y-124430262I0J271738D01*
G01*
X194692000Y-123473738D01*
G75*
G02*
X194963738Y-123202000I271738J0D01*
G01*
X195670262Y-123202000D01*
G75*
G02*
X195942000Y-123473738I0J-271738D01*
G01*
G37*
G36*
G01*
X197992000Y-123473738D02*
X197992000Y-124430262D01*
G75*
G02*
X197720262Y-124702000I-271738J0D01*
G01*
X197013738Y-124702000D01*
G75*
G02*
X196742000Y-124430262I0J271738D01*
G01*
X196742000Y-123473738D01*
G75*
G02*
X197013738Y-123202000I271738J0D01*
G01*
X197720262Y-123202000D01*
G75*
G02*
X197992000Y-123473738I0J-271738D01*
G01*
G37*
%TD*%
%TO.C,C29*%
G36*
G01*
X126462262Y-129022000D02*
X125505738Y-129022000D01*
G75*
G02*
X125234000Y-128750262I0J271738D01*
G01*
X125234000Y-128043738D01*
G75*
G02*
X125505738Y-127772000I271738J0D01*
G01*
X126462262Y-127772000D01*
G75*
G02*
X126734000Y-128043738I0J-271738D01*
G01*
X126734000Y-128750262D01*
G75*
G02*
X126462262Y-129022000I-271738J0D01*
G01*
G37*
G36*
G01*
X126462262Y-131072000D02*
X125505738Y-131072000D01*
G75*
G02*
X125234000Y-130800262I0J271738D01*
G01*
X125234000Y-130093738D01*
G75*
G02*
X125505738Y-129822000I271738J0D01*
G01*
X126462262Y-129822000D01*
G75*
G02*
X126734000Y-130093738I0J-271738D01*
G01*
X126734000Y-130800262D01*
G75*
G02*
X126462262Y-131072000I-271738J0D01*
G01*
G37*
%TD*%
%TO.C,C28*%
G36*
G01*
X227808262Y-146539000D02*
X226851738Y-146539000D01*
G75*
G02*
X226580000Y-146267262I0J271738D01*
G01*
X226580000Y-145560738D01*
G75*
G02*
X226851738Y-145289000I271738J0D01*
G01*
X227808262Y-145289000D01*
G75*
G02*
X228080000Y-145560738I0J-271738D01*
G01*
X228080000Y-146267262D01*
G75*
G02*
X227808262Y-146539000I-271738J0D01*
G01*
G37*
G36*
G01*
X227808262Y-148589000D02*
X226851738Y-148589000D01*
G75*
G02*
X226580000Y-148317262I0J271738D01*
G01*
X226580000Y-147610738D01*
G75*
G02*
X226851738Y-147339000I271738J0D01*
G01*
X227808262Y-147339000D01*
G75*
G02*
X228080000Y-147610738I0J-271738D01*
G01*
X228080000Y-148317262D01*
G75*
G02*
X227808262Y-148589000I-271738J0D01*
G01*
G37*
%TD*%
%TO.C,C23*%
G36*
G01*
X179813000Y-123346738D02*
X179813000Y-124303262D01*
G75*
G02*
X179541262Y-124575000I-271738J0D01*
G01*
X178834738Y-124575000D01*
G75*
G02*
X178563000Y-124303262I0J271738D01*
G01*
X178563000Y-123346738D01*
G75*
G02*
X178834738Y-123075000I271738J0D01*
G01*
X179541262Y-123075000D01*
G75*
G02*
X179813000Y-123346738I0J-271738D01*
G01*
G37*
G36*
G01*
X181863000Y-123346738D02*
X181863000Y-124303262D01*
G75*
G02*
X181591262Y-124575000I-271738J0D01*
G01*
X180884738Y-124575000D01*
G75*
G02*
X180613000Y-124303262I0J271738D01*
G01*
X180613000Y-123346738D01*
G75*
G02*
X180884738Y-123075000I271738J0D01*
G01*
X181591262Y-123075000D01*
G75*
G02*
X181863000Y-123346738I0J-271738D01*
G01*
G37*
%TD*%
D14*
%TO.C,U1*%
X115570000Y-81026000D03*
X194310000Y-103886000D03*
X118110000Y-81026000D03*
X191770000Y-103886000D03*
X120650000Y-81026000D03*
X189230000Y-103886000D03*
X123190000Y-81026000D03*
X186690000Y-103886000D03*
X125730000Y-81026000D03*
X184150000Y-103886000D03*
X128270000Y-81026000D03*
X181610000Y-103886000D03*
X130810000Y-81026000D03*
X179070000Y-103886000D03*
X133350000Y-81026000D03*
X176530000Y-103886000D03*
X135890000Y-81026000D03*
X173990000Y-103886000D03*
X138430000Y-81026000D03*
X171450000Y-103886000D03*
X140970000Y-81026000D03*
X168910000Y-103886000D03*
X143510000Y-81026000D03*
X166370000Y-103886000D03*
X146050000Y-81026000D03*
X163830000Y-103886000D03*
X148590000Y-81026000D03*
X161290000Y-103886000D03*
X151130000Y-81026000D03*
X158750000Y-103886000D03*
X153670000Y-81026000D03*
X156210000Y-103886000D03*
X156210000Y-81026000D03*
X153670000Y-103886000D03*
X158750000Y-81026000D03*
X151130000Y-103886000D03*
X161290000Y-81026000D03*
X148590000Y-103886000D03*
X163830000Y-81026000D03*
X146050000Y-103886000D03*
X166370000Y-81026000D03*
X143510000Y-103886000D03*
X168910000Y-81026000D03*
X140970000Y-103886000D03*
X171450000Y-81026000D03*
X138430000Y-103886000D03*
X173990000Y-81026000D03*
X135890000Y-103886000D03*
X176530000Y-81026000D03*
X133350000Y-103886000D03*
X179070000Y-81026000D03*
X130810000Y-103886000D03*
X181610000Y-81026000D03*
X128270000Y-103886000D03*
X184150000Y-81026000D03*
X125730000Y-103886000D03*
X186690000Y-81026000D03*
X123190000Y-103886000D03*
X189230000Y-81026000D03*
X120650000Y-103886000D03*
X191770000Y-81026000D03*
X118110000Y-103886000D03*
X194310000Y-81026000D03*
D15*
X115570000Y-103886000D03*
%TD*%
%TO.C,C27*%
G36*
G01*
X251098000Y-61946262D02*
X251098000Y-60989738D01*
G75*
G02*
X251369738Y-60718000I271738J0D01*
G01*
X252076262Y-60718000D01*
G75*
G02*
X252348000Y-60989738I0J-271738D01*
G01*
X252348000Y-61946262D01*
G75*
G02*
X252076262Y-62218000I-271738J0D01*
G01*
X251369738Y-62218000D01*
G75*
G02*
X251098000Y-61946262I0J271738D01*
G01*
G37*
G36*
G01*
X249048000Y-61946262D02*
X249048000Y-60989738D01*
G75*
G02*
X249319738Y-60718000I271738J0D01*
G01*
X250026262Y-60718000D01*
G75*
G02*
X250298000Y-60989738I0J-271738D01*
G01*
X250298000Y-61946262D01*
G75*
G02*
X250026262Y-62218000I-271738J0D01*
G01*
X249319738Y-62218000D01*
G75*
G02*
X249048000Y-61946262I0J271738D01*
G01*
G37*
%TD*%
%TO.C,C26*%
G36*
G01*
X223285000Y-44674262D02*
X223285000Y-43717738D01*
G75*
G02*
X223556738Y-43446000I271738J0D01*
G01*
X224263262Y-43446000D01*
G75*
G02*
X224535000Y-43717738I0J-271738D01*
G01*
X224535000Y-44674262D01*
G75*
G02*
X224263262Y-44946000I-271738J0D01*
G01*
X223556738Y-44946000D01*
G75*
G02*
X223285000Y-44674262I0J271738D01*
G01*
G37*
G36*
G01*
X221235000Y-44674262D02*
X221235000Y-43717738D01*
G75*
G02*
X221506738Y-43446000I271738J0D01*
G01*
X222213262Y-43446000D01*
G75*
G02*
X222485000Y-43717738I0J-271738D01*
G01*
X222485000Y-44674262D01*
G75*
G02*
X222213262Y-44946000I-271738J0D01*
G01*
X221506738Y-44946000D01*
G75*
G02*
X221235000Y-44674262I0J271738D01*
G01*
G37*
%TD*%
%TO.C,C25*%
G36*
G01*
X223158000Y-79472262D02*
X223158000Y-78515738D01*
G75*
G02*
X223429738Y-78244000I271738J0D01*
G01*
X224136262Y-78244000D01*
G75*
G02*
X224408000Y-78515738I0J-271738D01*
G01*
X224408000Y-79472262D01*
G75*
G02*
X224136262Y-79744000I-271738J0D01*
G01*
X223429738Y-79744000D01*
G75*
G02*
X223158000Y-79472262I0J271738D01*
G01*
G37*
G36*
G01*
X221108000Y-79472262D02*
X221108000Y-78515738D01*
G75*
G02*
X221379738Y-78244000I271738J0D01*
G01*
X222086262Y-78244000D01*
G75*
G02*
X222358000Y-78515738I0J-271738D01*
G01*
X222358000Y-79472262D01*
G75*
G02*
X222086262Y-79744000I-271738J0D01*
G01*
X221379738Y-79744000D01*
G75*
G02*
X221108000Y-79472262I0J271738D01*
G01*
G37*
%TD*%
%TO.C,C24*%
G36*
G01*
X223158000Y-62327262D02*
X223158000Y-61370738D01*
G75*
G02*
X223429738Y-61099000I271738J0D01*
G01*
X224136262Y-61099000D01*
G75*
G02*
X224408000Y-61370738I0J-271738D01*
G01*
X224408000Y-62327262D01*
G75*
G02*
X224136262Y-62599000I-271738J0D01*
G01*
X223429738Y-62599000D01*
G75*
G02*
X223158000Y-62327262I0J271738D01*
G01*
G37*
G36*
G01*
X221108000Y-62327262D02*
X221108000Y-61370738D01*
G75*
G02*
X221379738Y-61099000I271738J0D01*
G01*
X222086262Y-61099000D01*
G75*
G02*
X222358000Y-61370738I0J-271738D01*
G01*
X222358000Y-62327262D01*
G75*
G02*
X222086262Y-62599000I-271738J0D01*
G01*
X221379738Y-62599000D01*
G75*
G02*
X221108000Y-62327262I0J271738D01*
G01*
G37*
%TD*%
D16*
%TO.C,S1*%
X81915000Y-128579000D03*
X88415000Y-128579000D03*
X88415000Y-124079000D03*
D17*
X81915000Y-124079000D03*
%TD*%
D18*
%TO.C,RN8*%
X142945000Y-98287000D03*
D19*
X143745000Y-98287000D03*
D18*
X145345000Y-98287000D03*
D19*
X144545000Y-98287000D03*
D18*
X142945000Y-100087000D03*
D19*
X144545000Y-100087000D03*
X143745000Y-100087000D03*
D18*
X145345000Y-100087000D03*
%TD*%
%TO.C,C22*%
G36*
G01*
X122398262Y-68942000D02*
X121441738Y-68942000D01*
G75*
G02*
X121170000Y-68670262I0J271738D01*
G01*
X121170000Y-67963738D01*
G75*
G02*
X121441738Y-67692000I271738J0D01*
G01*
X122398262Y-67692000D01*
G75*
G02*
X122670000Y-67963738I0J-271738D01*
G01*
X122670000Y-68670262D01*
G75*
G02*
X122398262Y-68942000I-271738J0D01*
G01*
G37*
G36*
G01*
X122398262Y-70992000D02*
X121441738Y-70992000D01*
G75*
G02*
X121170000Y-70720262I0J271738D01*
G01*
X121170000Y-70013738D01*
G75*
G02*
X121441738Y-69742000I271738J0D01*
G01*
X122398262Y-69742000D01*
G75*
G02*
X122670000Y-70013738I0J-271738D01*
G01*
X122670000Y-70720262D01*
G75*
G02*
X122398262Y-70992000I-271738J0D01*
G01*
G37*
%TD*%
%TO.C,C21*%
G36*
G01*
X251225000Y-96490262D02*
X251225000Y-95533738D01*
G75*
G02*
X251496738Y-95262000I271738J0D01*
G01*
X252203262Y-95262000D01*
G75*
G02*
X252475000Y-95533738I0J-271738D01*
G01*
X252475000Y-96490262D01*
G75*
G02*
X252203262Y-96762000I-271738J0D01*
G01*
X251496738Y-96762000D01*
G75*
G02*
X251225000Y-96490262I0J271738D01*
G01*
G37*
G36*
G01*
X249175000Y-96490262D02*
X249175000Y-95533738D01*
G75*
G02*
X249446738Y-95262000I271738J0D01*
G01*
X250153262Y-95262000D01*
G75*
G02*
X250425000Y-95533738I0J-271738D01*
G01*
X250425000Y-96490262D01*
G75*
G02*
X250153262Y-96762000I-271738J0D01*
G01*
X249446738Y-96762000D01*
G75*
G02*
X249175000Y-96490262I0J271738D01*
G01*
G37*
%TD*%
%TO.C,C20*%
G36*
G01*
X223158000Y-96744262D02*
X223158000Y-95787738D01*
G75*
G02*
X223429738Y-95516000I271738J0D01*
G01*
X224136262Y-95516000D01*
G75*
G02*
X224408000Y-95787738I0J-271738D01*
G01*
X224408000Y-96744262D01*
G75*
G02*
X224136262Y-97016000I-271738J0D01*
G01*
X223429738Y-97016000D01*
G75*
G02*
X223158000Y-96744262I0J271738D01*
G01*
G37*
G36*
G01*
X221108000Y-96744262D02*
X221108000Y-95787738D01*
G75*
G02*
X221379738Y-95516000I271738J0D01*
G01*
X222086262Y-95516000D01*
G75*
G02*
X222358000Y-95787738I0J-271738D01*
G01*
X222358000Y-96744262D01*
G75*
G02*
X222086262Y-97016000I-271738J0D01*
G01*
X221379738Y-97016000D01*
G75*
G02*
X221108000Y-96744262I0J271738D01*
G01*
G37*
%TD*%
%TO.C,C19*%
G36*
G01*
X251098000Y-113762262D02*
X251098000Y-112805738D01*
G75*
G02*
X251369738Y-112534000I271738J0D01*
G01*
X252076262Y-112534000D01*
G75*
G02*
X252348000Y-112805738I0J-271738D01*
G01*
X252348000Y-113762262D01*
G75*
G02*
X252076262Y-114034000I-271738J0D01*
G01*
X251369738Y-114034000D01*
G75*
G02*
X251098000Y-113762262I0J271738D01*
G01*
G37*
G36*
G01*
X249048000Y-113762262D02*
X249048000Y-112805738D01*
G75*
G02*
X249319738Y-112534000I271738J0D01*
G01*
X250026262Y-112534000D01*
G75*
G02*
X250298000Y-112805738I0J-271738D01*
G01*
X250298000Y-113762262D01*
G75*
G02*
X250026262Y-114034000I-271738J0D01*
G01*
X249319738Y-114034000D01*
G75*
G02*
X249048000Y-113762262I0J271738D01*
G01*
G37*
%TD*%
%TO.C,C18*%
G36*
G01*
X223285000Y-113762262D02*
X223285000Y-112805738D01*
G75*
G02*
X223556738Y-112534000I271738J0D01*
G01*
X224263262Y-112534000D01*
G75*
G02*
X224535000Y-112805738I0J-271738D01*
G01*
X224535000Y-113762262D01*
G75*
G02*
X224263262Y-114034000I-271738J0D01*
G01*
X223556738Y-114034000D01*
G75*
G02*
X223285000Y-113762262I0J271738D01*
G01*
G37*
G36*
G01*
X221235000Y-113762262D02*
X221235000Y-112805738D01*
G75*
G02*
X221506738Y-112534000I271738J0D01*
G01*
X222213262Y-112534000D01*
G75*
G02*
X222485000Y-112805738I0J-271738D01*
G01*
X222485000Y-113762262D01*
G75*
G02*
X222213262Y-114034000I-271738J0D01*
G01*
X221506738Y-114034000D01*
G75*
G02*
X221235000Y-113762262I0J271738D01*
G01*
G37*
%TD*%
%TO.C,C17*%
G36*
G01*
X251098000Y-130907262D02*
X251098000Y-129950738D01*
G75*
G02*
X251369738Y-129679000I271738J0D01*
G01*
X252076262Y-129679000D01*
G75*
G02*
X252348000Y-129950738I0J-271738D01*
G01*
X252348000Y-130907262D01*
G75*
G02*
X252076262Y-131179000I-271738J0D01*
G01*
X251369738Y-131179000D01*
G75*
G02*
X251098000Y-130907262I0J271738D01*
G01*
G37*
G36*
G01*
X249048000Y-130907262D02*
X249048000Y-129950738D01*
G75*
G02*
X249319738Y-129679000I271738J0D01*
G01*
X250026262Y-129679000D01*
G75*
G02*
X250298000Y-129950738I0J-271738D01*
G01*
X250298000Y-130907262D01*
G75*
G02*
X250026262Y-131179000I-271738J0D01*
G01*
X249319738Y-131179000D01*
G75*
G02*
X249048000Y-130907262I0J271738D01*
G01*
G37*
%TD*%
%TO.C,C16*%
G36*
G01*
X223149000Y-131415262D02*
X223149000Y-130458738D01*
G75*
G02*
X223420738Y-130187000I271738J0D01*
G01*
X224127262Y-130187000D01*
G75*
G02*
X224399000Y-130458738I0J-271738D01*
G01*
X224399000Y-131415262D01*
G75*
G02*
X224127262Y-131687000I-271738J0D01*
G01*
X223420738Y-131687000D01*
G75*
G02*
X223149000Y-131415262I0J271738D01*
G01*
G37*
G36*
G01*
X221099000Y-131415262D02*
X221099000Y-130458738D01*
G75*
G02*
X221370738Y-130187000I271738J0D01*
G01*
X222077262Y-130187000D01*
G75*
G02*
X222349000Y-130458738I0J-271738D01*
G01*
X222349000Y-131415262D01*
G75*
G02*
X222077262Y-131687000I-271738J0D01*
G01*
X221370738Y-131687000D01*
G75*
G02*
X221099000Y-131415262I0J271738D01*
G01*
G37*
%TD*%
%TO.C,C15*%
G36*
G01*
X251098000Y-79218262D02*
X251098000Y-78261738D01*
G75*
G02*
X251369738Y-77990000I271738J0D01*
G01*
X252076262Y-77990000D01*
G75*
G02*
X252348000Y-78261738I0J-271738D01*
G01*
X252348000Y-79218262D01*
G75*
G02*
X252076262Y-79490000I-271738J0D01*
G01*
X251369738Y-79490000D01*
G75*
G02*
X251098000Y-79218262I0J271738D01*
G01*
G37*
G36*
G01*
X249048000Y-79218262D02*
X249048000Y-78261738D01*
G75*
G02*
X249319738Y-77990000I271738J0D01*
G01*
X250026262Y-77990000D01*
G75*
G02*
X250298000Y-78261738I0J-271738D01*
G01*
X250298000Y-79218262D01*
G75*
G02*
X250026262Y-79490000I-271738J0D01*
G01*
X249319738Y-79490000D01*
G75*
G02*
X249048000Y-79218262I0J271738D01*
G01*
G37*
%TD*%
%TO.C,C14*%
G36*
G01*
X251479000Y-44928262D02*
X251479000Y-43971738D01*
G75*
G02*
X251750738Y-43700000I271738J0D01*
G01*
X252457262Y-43700000D01*
G75*
G02*
X252729000Y-43971738I0J-271738D01*
G01*
X252729000Y-44928262D01*
G75*
G02*
X252457262Y-45200000I-271738J0D01*
G01*
X251750738Y-45200000D01*
G75*
G02*
X251479000Y-44928262I0J271738D01*
G01*
G37*
G36*
G01*
X249429000Y-44928262D02*
X249429000Y-43971738D01*
G75*
G02*
X249700738Y-43700000I271738J0D01*
G01*
X250407262Y-43700000D01*
G75*
G02*
X250679000Y-43971738I0J-271738D01*
G01*
X250679000Y-44928262D01*
G75*
G02*
X250407262Y-45200000I-271738J0D01*
G01*
X249700738Y-45200000D01*
G75*
G02*
X249429000Y-44928262I0J271738D01*
G01*
G37*
%TD*%
%TO.C,C10*%
G36*
G01*
X160665000Y-60041262D02*
X160665000Y-59084738D01*
G75*
G02*
X160936738Y-58813000I271738J0D01*
G01*
X161643262Y-58813000D01*
G75*
G02*
X161915000Y-59084738I0J-271738D01*
G01*
X161915000Y-60041262D01*
G75*
G02*
X161643262Y-60313000I-271738J0D01*
G01*
X160936738Y-60313000D01*
G75*
G02*
X160665000Y-60041262I0J271738D01*
G01*
G37*
G36*
G01*
X158615000Y-60041262D02*
X158615000Y-59084738D01*
G75*
G02*
X158886738Y-58813000I271738J0D01*
G01*
X159593262Y-58813000D01*
G75*
G02*
X159865000Y-59084738I0J-271738D01*
G01*
X159865000Y-60041262D01*
G75*
G02*
X159593262Y-60313000I-271738J0D01*
G01*
X158886738Y-60313000D01*
G75*
G02*
X158615000Y-60041262I0J271738D01*
G01*
G37*
%TD*%
%TO.C,C9*%
G36*
G01*
X152683738Y-42682000D02*
X153640262Y-42682000D01*
G75*
G02*
X153912000Y-42953738I0J-271738D01*
G01*
X153912000Y-43660262D01*
G75*
G02*
X153640262Y-43932000I-271738J0D01*
G01*
X152683738Y-43932000D01*
G75*
G02*
X152412000Y-43660262I0J271738D01*
G01*
X152412000Y-42953738D01*
G75*
G02*
X152683738Y-42682000I271738J0D01*
G01*
G37*
G36*
G01*
X152683738Y-40632000D02*
X153640262Y-40632000D01*
G75*
G02*
X153912000Y-40903738I0J-271738D01*
G01*
X153912000Y-41610262D01*
G75*
G02*
X153640262Y-41882000I-271738J0D01*
G01*
X152683738Y-41882000D01*
G75*
G02*
X152412000Y-41610262I0J271738D01*
G01*
X152412000Y-40903738D01*
G75*
G02*
X152683738Y-40632000I271738J0D01*
G01*
G37*
%TD*%
%TO.C,C8*%
G36*
G01*
X170317000Y-42007262D02*
X170317000Y-41050738D01*
G75*
G02*
X170588738Y-40779000I271738J0D01*
G01*
X171295262Y-40779000D01*
G75*
G02*
X171567000Y-41050738I0J-271738D01*
G01*
X171567000Y-42007262D01*
G75*
G02*
X171295262Y-42279000I-271738J0D01*
G01*
X170588738Y-42279000D01*
G75*
G02*
X170317000Y-42007262I0J271738D01*
G01*
G37*
G36*
G01*
X168267000Y-42007262D02*
X168267000Y-41050738D01*
G75*
G02*
X168538738Y-40779000I271738J0D01*
G01*
X169245262Y-40779000D01*
G75*
G02*
X169517000Y-41050738I0J-271738D01*
G01*
X169517000Y-42007262D01*
G75*
G02*
X169245262Y-42279000I-271738J0D01*
G01*
X168538738Y-42279000D01*
G75*
G02*
X168267000Y-42007262I0J271738D01*
G01*
G37*
%TD*%
%TO.C,C7*%
G36*
G01*
X172055262Y-51670000D02*
X171098738Y-51670000D01*
G75*
G02*
X170827000Y-51398262I0J271738D01*
G01*
X170827000Y-50691738D01*
G75*
G02*
X171098738Y-50420000I271738J0D01*
G01*
X172055262Y-50420000D01*
G75*
G02*
X172327000Y-50691738I0J-271738D01*
G01*
X172327000Y-51398262D01*
G75*
G02*
X172055262Y-51670000I-271738J0D01*
G01*
G37*
G36*
G01*
X172055262Y-53720000D02*
X171098738Y-53720000D01*
G75*
G02*
X170827000Y-53448262I0J271738D01*
G01*
X170827000Y-52741738D01*
G75*
G02*
X171098738Y-52470000I271738J0D01*
G01*
X172055262Y-52470000D01*
G75*
G02*
X172327000Y-52741738I0J-271738D01*
G01*
X172327000Y-53448262D01*
G75*
G02*
X172055262Y-53720000I-271738J0D01*
G01*
G37*
%TD*%
%TO.C,C6*%
G36*
G01*
X163205000Y-42007262D02*
X163205000Y-41050738D01*
G75*
G02*
X163476738Y-40779000I271738J0D01*
G01*
X164183262Y-40779000D01*
G75*
G02*
X164455000Y-41050738I0J-271738D01*
G01*
X164455000Y-42007262D01*
G75*
G02*
X164183262Y-42279000I-271738J0D01*
G01*
X163476738Y-42279000D01*
G75*
G02*
X163205000Y-42007262I0J271738D01*
G01*
G37*
G36*
G01*
X161155000Y-42007262D02*
X161155000Y-41050738D01*
G75*
G02*
X161426738Y-40779000I271738J0D01*
G01*
X162133262Y-40779000D01*
G75*
G02*
X162405000Y-41050738I0J-271738D01*
G01*
X162405000Y-42007262D01*
G75*
G02*
X162133262Y-42279000I-271738J0D01*
G01*
X161426738Y-42279000D01*
G75*
G02*
X161155000Y-42007262I0J271738D01*
G01*
G37*
%TD*%
%TO.C,C5*%
G36*
G01*
X152683738Y-58176000D02*
X153640262Y-58176000D01*
G75*
G02*
X153912000Y-58447738I0J-271738D01*
G01*
X153912000Y-59154262D01*
G75*
G02*
X153640262Y-59426000I-271738J0D01*
G01*
X152683738Y-59426000D01*
G75*
G02*
X152412000Y-59154262I0J271738D01*
G01*
X152412000Y-58447738D01*
G75*
G02*
X152683738Y-58176000I271738J0D01*
G01*
G37*
G36*
G01*
X152683738Y-56126000D02*
X153640262Y-56126000D01*
G75*
G02*
X153912000Y-56397738I0J-271738D01*
G01*
X153912000Y-57104262D01*
G75*
G02*
X153640262Y-57376000I-271738J0D01*
G01*
X152683738Y-57376000D01*
G75*
G02*
X152412000Y-57104262I0J271738D01*
G01*
X152412000Y-56397738D01*
G75*
G02*
X152683738Y-56126000I271738J0D01*
G01*
G37*
%TD*%
%TO.C,C4*%
G36*
G01*
X167414000Y-60168262D02*
X167414000Y-59211738D01*
G75*
G02*
X167685738Y-58940000I271738J0D01*
G01*
X168392262Y-58940000D01*
G75*
G02*
X168664000Y-59211738I0J-271738D01*
G01*
X168664000Y-60168262D01*
G75*
G02*
X168392262Y-60440000I-271738J0D01*
G01*
X167685738Y-60440000D01*
G75*
G02*
X167414000Y-60168262I0J271738D01*
G01*
G37*
G36*
G01*
X165364000Y-60168262D02*
X165364000Y-59211738D01*
G75*
G02*
X165635738Y-58940000I271738J0D01*
G01*
X166342262Y-58940000D01*
G75*
G02*
X166614000Y-59211738I0J-271738D01*
G01*
X166614000Y-60168262D01*
G75*
G02*
X166342262Y-60440000I-271738J0D01*
G01*
X165635738Y-60440000D01*
G75*
G02*
X165364000Y-60168262I0J271738D01*
G01*
G37*
%TD*%
%TO.C,C3*%
G36*
G01*
X209452738Y-19450000D02*
X210409262Y-19450000D01*
G75*
G02*
X210681000Y-19721738I0J-271738D01*
G01*
X210681000Y-20428262D01*
G75*
G02*
X210409262Y-20700000I-271738J0D01*
G01*
X209452738Y-20700000D01*
G75*
G02*
X209181000Y-20428262I0J271738D01*
G01*
X209181000Y-19721738D01*
G75*
G02*
X209452738Y-19450000I271738J0D01*
G01*
G37*
G36*
G01*
X209452738Y-17400000D02*
X210409262Y-17400000D01*
G75*
G02*
X210681000Y-17671738I0J-271738D01*
G01*
X210681000Y-18378262D01*
G75*
G02*
X210409262Y-18650000I-271738J0D01*
G01*
X209452738Y-18650000D01*
G75*
G02*
X209181000Y-18378262I0J271738D01*
G01*
X209181000Y-17671738D01*
G75*
G02*
X209452738Y-17400000I271738J0D01*
G01*
G37*
%TD*%
%TO.C,C2*%
G36*
G01*
X151657000Y-100300262D02*
X151657000Y-99343738D01*
G75*
G02*
X151928738Y-99072000I271738J0D01*
G01*
X152635262Y-99072000D01*
G75*
G02*
X152907000Y-99343738I0J-271738D01*
G01*
X152907000Y-100300262D01*
G75*
G02*
X152635262Y-100572000I-271738J0D01*
G01*
X151928738Y-100572000D01*
G75*
G02*
X151657000Y-100300262I0J271738D01*
G01*
G37*
G36*
G01*
X149607000Y-100300262D02*
X149607000Y-99343738D01*
G75*
G02*
X149878738Y-99072000I271738J0D01*
G01*
X150585262Y-99072000D01*
G75*
G02*
X150857000Y-99343738I0J-271738D01*
G01*
X150857000Y-100300262D01*
G75*
G02*
X150585262Y-100572000I-271738J0D01*
G01*
X149878738Y-100572000D01*
G75*
G02*
X149607000Y-100300262I0J271738D01*
G01*
G37*
%TD*%
%TO.C,C1*%
G36*
G01*
X148181000Y-84738738D02*
X148181000Y-85695262D01*
G75*
G02*
X147909262Y-85967000I-271738J0D01*
G01*
X147202738Y-85967000D01*
G75*
G02*
X146931000Y-85695262I0J271738D01*
G01*
X146931000Y-84738738D01*
G75*
G02*
X147202738Y-84467000I271738J0D01*
G01*
X147909262Y-84467000D01*
G75*
G02*
X148181000Y-84738738I0J-271738D01*
G01*
G37*
G36*
G01*
X150231000Y-84738738D02*
X150231000Y-85695262D01*
G75*
G02*
X149959262Y-85967000I-271738J0D01*
G01*
X149252738Y-85967000D01*
G75*
G02*
X148981000Y-85695262I0J271738D01*
G01*
X148981000Y-84738738D01*
G75*
G02*
X149252738Y-84467000I271738J0D01*
G01*
X149959262Y-84467000D01*
G75*
G02*
X150231000Y-84738738I0J-271738D01*
G01*
G37*
%TD*%
D20*
%TO.C,J1*%
X196215000Y-14224000D03*
X198755000Y-14224000D03*
X201295000Y-14224000D03*
%TD*%
D21*
%TO.C,J2*%
X100203000Y-164338000D03*
X102743000Y-164338000D03*
X105283000Y-164338000D03*
X107823000Y-164338000D03*
X110363000Y-164338000D03*
X112903000Y-164338000D03*
X115443000Y-164338000D03*
X117983000Y-164338000D03*
X120523000Y-164338000D03*
X123063000Y-164338000D03*
X125603000Y-164338000D03*
X128143000Y-164338000D03*
X130683000Y-164338000D03*
X133223000Y-164338000D03*
X135763000Y-164338000D03*
X138303000Y-164338000D03*
X140843000Y-164338000D03*
X143383000Y-164338000D03*
X153543000Y-164338000D03*
X156083000Y-164338000D03*
X158623000Y-164338000D03*
X161163000Y-164338000D03*
X163703000Y-164338000D03*
X166243000Y-164338000D03*
X168783000Y-164338000D03*
X171323000Y-164338000D03*
X173863000Y-164338000D03*
X176403000Y-164338000D03*
X178943000Y-164338000D03*
X181483000Y-164338000D03*
X184023000Y-164338000D03*
X186563000Y-164338000D03*
X189103000Y-164338000D03*
X191643000Y-164338000D03*
X194183000Y-164338000D03*
X196723000Y-164338000D03*
X199263000Y-164338000D03*
X201803000Y-164338000D03*
X204343000Y-164338000D03*
X206883000Y-164338000D03*
X209423000Y-164338000D03*
X211963000Y-164338000D03*
X214503000Y-164338000D03*
X217043000Y-164338000D03*
X219583000Y-164338000D03*
X222123000Y-164338000D03*
X224663000Y-164338000D03*
X227203000Y-164338000D03*
X229743000Y-164338000D03*
%TD*%
%TO.C,J5*%
G36*
G01*
X89053000Y-147332000D02*
X89053000Y-145532000D01*
G75*
G02*
X89953000Y-144632000I900000J0D01*
G01*
X91753000Y-144632000D01*
G75*
G02*
X92653000Y-145532000I0J-900000D01*
G01*
X92653000Y-147332000D01*
G75*
G02*
X91753000Y-148232000I-900000J0D01*
G01*
X89953000Y-148232000D01*
G75*
G02*
X89053000Y-147332000I0J900000D01*
G01*
G37*
G36*
G01*
X86303000Y-142757000D02*
X86303000Y-140707000D01*
G75*
G02*
X87078000Y-139932000I775000J0D01*
G01*
X88628000Y-139932000D01*
G75*
G02*
X89403000Y-140707000I0J-775000D01*
G01*
X89403000Y-142757000D01*
G75*
G02*
X88628000Y-143532000I-775000J0D01*
G01*
X87078000Y-143532000D01*
G75*
G02*
X86303000Y-142757000I0J775000D01*
G01*
G37*
D22*
X93853000Y-141732000D03*
%TD*%
D18*
%TO.C,RN1*%
X174936000Y-100468000D03*
D19*
X174136000Y-100468000D03*
D18*
X172536000Y-100468000D03*
D19*
X173336000Y-100468000D03*
D18*
X174936000Y-98668000D03*
D19*
X173336000Y-98668000D03*
X174136000Y-98668000D03*
D18*
X172536000Y-98668000D03*
%TD*%
%TO.C,RN2*%
X163646000Y-98668000D03*
D19*
X164446000Y-98668000D03*
D18*
X166046000Y-98668000D03*
D19*
X165246000Y-98668000D03*
D18*
X163646000Y-100468000D03*
D19*
X165246000Y-100468000D03*
X164446000Y-100468000D03*
D18*
X166046000Y-100468000D03*
%TD*%
D23*
%TO.C,RN3*%
X128259000Y-42221000D03*
D24*
X128259000Y-41421000D03*
D23*
X128259000Y-39821000D03*
D24*
X128259000Y-40621000D03*
D23*
X130059000Y-42221000D03*
D24*
X130059000Y-40621000D03*
X130059000Y-41421000D03*
D23*
X130059000Y-39821000D03*
%TD*%
D25*
%TO.C,U14*%
X117856000Y-70739000D03*
X133096000Y-22479000D03*
X117856000Y-68199000D03*
X133096000Y-25019000D03*
X117856000Y-65659000D03*
X133096000Y-27559000D03*
X117856000Y-63119000D03*
X133096000Y-30099000D03*
X117856000Y-60579000D03*
X133096000Y-32639000D03*
X117856000Y-58039000D03*
X133096000Y-35179000D03*
X117856000Y-55499000D03*
X133096000Y-37719000D03*
X117856000Y-52959000D03*
X133096000Y-40259000D03*
X117856000Y-50419000D03*
X133096000Y-42799000D03*
X117856000Y-47879000D03*
X133096000Y-45339000D03*
X117856000Y-45339000D03*
X133096000Y-47879000D03*
X117856000Y-42799000D03*
X133096000Y-50419000D03*
X117856000Y-40259000D03*
X133096000Y-52959000D03*
X117856000Y-37719000D03*
X133096000Y-55499000D03*
X117856000Y-35179000D03*
X133096000Y-58039000D03*
X117856000Y-32639000D03*
X133096000Y-60579000D03*
X117856000Y-30099000D03*
X133096000Y-63119000D03*
X117856000Y-27559000D03*
X133096000Y-65659000D03*
X117856000Y-25019000D03*
X133096000Y-68199000D03*
X117856000Y-22479000D03*
D26*
X133096000Y-70739000D03*
%TD*%
D27*
%TO.C,X2*%
X191516000Y-66421000D03*
X199136000Y-66421000D03*
X199136000Y-51181000D03*
D28*
X191516000Y-51181000D03*
%TD*%
D29*
%TO.C,IC1*%
X86360000Y-103632000D03*
G36*
G01*
X86872500Y-101667000D02*
X85847500Y-101667000D01*
G75*
G02*
X85560000Y-101379500I0J287500D01*
G01*
X85560000Y-100804500D01*
G75*
G02*
X85847500Y-100517000I287500J0D01*
G01*
X86872500Y-100517000D01*
G75*
G02*
X87160000Y-100804500I0J-287500D01*
G01*
X87160000Y-101379500D01*
G75*
G02*
X86872500Y-101667000I-287500J0D01*
G01*
G37*
G36*
G01*
X86872500Y-102937000D02*
X85847500Y-102937000D01*
G75*
G02*
X85560000Y-102649500I0J287500D01*
G01*
X85560000Y-102074500D01*
G75*
G02*
X85847500Y-101787000I287500J0D01*
G01*
X86872500Y-101787000D01*
G75*
G02*
X87160000Y-102074500I0J-287500D01*
G01*
X87160000Y-102649500D01*
G75*
G02*
X86872500Y-102937000I-287500J0D01*
G01*
G37*
%TD*%
D30*
%TO.C,U3*%
X177546000Y-40386000D03*
X177546000Y-42926000D03*
X177546000Y-45466000D03*
X177546000Y-48006000D03*
X177546000Y-50546000D03*
X177546000Y-53086000D03*
X177546000Y-55626000D03*
X177546000Y-58166000D03*
X177546000Y-60706000D03*
X177546000Y-63246000D03*
X175006000Y-40386000D03*
X175006000Y-42926000D03*
X175006000Y-45466000D03*
X175006000Y-48006000D03*
X175006000Y-50546000D03*
X175006000Y-53086000D03*
X175006000Y-55626000D03*
X175006000Y-58166000D03*
X175006000Y-60706000D03*
X175006000Y-63246000D03*
X175006000Y-65786000D03*
X172466000Y-65786000D03*
X169926000Y-65786000D03*
X167386000Y-65786000D03*
X164846000Y-65786000D03*
X162306000Y-65786000D03*
X159766000Y-65786000D03*
X157226000Y-65786000D03*
X154686000Y-65786000D03*
X152146000Y-65786000D03*
X149606000Y-65786000D03*
X172466000Y-63246000D03*
X169926000Y-63246000D03*
X167386000Y-63246000D03*
X164846000Y-63246000D03*
X162306000Y-63246000D03*
X159766000Y-63246000D03*
X157226000Y-63246000D03*
X154686000Y-63246000D03*
X152146000Y-63246000D03*
X149606000Y-63246000D03*
X147066000Y-63246000D03*
X147066000Y-60706000D03*
X147066000Y-58166000D03*
X147066000Y-55626000D03*
X147066000Y-53086000D03*
X147066000Y-50546000D03*
X147066000Y-48006000D03*
X147066000Y-45466000D03*
X147066000Y-42926000D03*
X147066000Y-40386000D03*
X147066000Y-37846000D03*
X149606000Y-60706000D03*
X149606000Y-58166000D03*
X149606000Y-55626000D03*
X149606000Y-53086000D03*
X149606000Y-50546000D03*
X149606000Y-48006000D03*
X149606000Y-45466000D03*
X149606000Y-42926000D03*
X149606000Y-40386000D03*
X149606000Y-37846000D03*
X175006000Y-35306000D03*
X172466000Y-35306000D03*
X169926000Y-35306000D03*
X167386000Y-35306000D03*
X164846000Y-35306000D03*
X149606000Y-35306000D03*
X152146000Y-35306000D03*
X154686000Y-35306000D03*
X157226000Y-35306000D03*
X159766000Y-35306000D03*
D31*
X162306000Y-35306000D03*
D30*
X177546000Y-37846000D03*
X175006000Y-37846000D03*
X172466000Y-37846000D03*
X169926000Y-37846000D03*
X167386000Y-37846000D03*
X164846000Y-37846000D03*
X152146000Y-37846000D03*
X154686000Y-37846000D03*
X157226000Y-37846000D03*
X159766000Y-37846000D03*
X162306000Y-37846000D03*
%TD*%
D14*
%TO.C,U2*%
X212852000Y-16891000D03*
X261112000Y-32131000D03*
X215392000Y-16891000D03*
X258572000Y-32131000D03*
X217932000Y-16891000D03*
X256032000Y-32131000D03*
X220472000Y-16891000D03*
X253492000Y-32131000D03*
X223012000Y-16891000D03*
X250952000Y-32131000D03*
X225552000Y-16891000D03*
X248412000Y-32131000D03*
X228092000Y-16891000D03*
X245872000Y-32131000D03*
X230632000Y-16891000D03*
X243332000Y-32131000D03*
X233172000Y-16891000D03*
X240792000Y-32131000D03*
X235712000Y-16891000D03*
X238252000Y-32131000D03*
X238252000Y-16891000D03*
X235712000Y-32131000D03*
X240792000Y-16891000D03*
X233172000Y-32131000D03*
X243332000Y-16891000D03*
X230632000Y-32131000D03*
X245872000Y-16891000D03*
X228092000Y-32131000D03*
X248412000Y-16891000D03*
X225552000Y-32131000D03*
X250952000Y-16891000D03*
X223012000Y-32131000D03*
X253492000Y-16891000D03*
X220472000Y-32131000D03*
X256032000Y-16891000D03*
X217932000Y-32131000D03*
X258572000Y-16891000D03*
X215392000Y-32131000D03*
X261112000Y-16891000D03*
D15*
X212852000Y-32131000D03*
%TD*%
D12*
%TO.C,J4*%
X177165000Y-16891000D03*
X177165000Y-14351000D03*
X179705000Y-16891000D03*
X179705000Y-14351000D03*
X182245000Y-16891000D03*
X182245000Y-14351000D03*
X184785000Y-16891000D03*
X184785000Y-14351000D03*
X187325000Y-16891000D03*
D13*
X187325000Y-14351000D03*
%TD*%
M02*
