%TF.GenerationSoftware,KiCad,Pcbnew,5.1.6-c6e7f7d~86~ubuntu18.04.1*%
%TF.CreationDate,2021-02-20T22:43:29+08:00*%
%TF.ProjectId,68k_dev,36386b5f-6465-4762-9e6b-696361645f70,rev?*%
%TF.SameCoordinates,Original*%
%TF.FileFunction,Legend,Bot*%
%TF.FilePolarity,Positive*%
%FSLAX46Y46*%
G04 Gerber Fmt 4.6, Leading zero omitted, Abs format (unit mm)*
G04 Created by KiCad (PCBNEW 5.1.6-c6e7f7d~86~ubuntu18.04.1) date 2021-02-20 22:43:29*
%MOMM*%
%LPD*%
G01*
G04 APERTURE LIST*
%ADD10C,0.150000*%
%TA.AperFunction,Profile*%
%ADD11C,0.050000*%
%TD*%
%ADD12C,0.120000*%
G04 APERTURE END LIST*
D10*
X222448380Y-155138619D02*
X221972190Y-154805285D01*
X222448380Y-154567190D02*
X221448380Y-154567190D01*
X221448380Y-154948142D01*
X221496000Y-155043380D01*
X221543619Y-155091000D01*
X221638857Y-155138619D01*
X221781714Y-155138619D01*
X221876952Y-155091000D01*
X221924571Y-155043380D01*
X221972190Y-154948142D01*
X221972190Y-154567190D01*
X222400761Y-155519571D02*
X222448380Y-155662428D01*
X222448380Y-155900523D01*
X222400761Y-155995761D01*
X222353142Y-156043380D01*
X222257904Y-156091000D01*
X222162666Y-156091000D01*
X222067428Y-156043380D01*
X222019809Y-155995761D01*
X221972190Y-155900523D01*
X221924571Y-155710047D01*
X221876952Y-155614809D01*
X221829333Y-155567190D01*
X221734095Y-155519571D01*
X221638857Y-155519571D01*
X221543619Y-155567190D01*
X221496000Y-155614809D01*
X221448380Y-155710047D01*
X221448380Y-155948142D01*
X221496000Y-156091000D01*
X221448380Y-156376714D02*
X221448380Y-156948142D01*
X222448380Y-156662428D02*
X221448380Y-156662428D01*
X222543619Y-157043380D02*
X222543619Y-157805285D01*
X222448380Y-158043380D02*
X221448380Y-158043380D01*
X221924571Y-158043380D02*
X221924571Y-158614809D01*
X222448380Y-158614809D02*
X221448380Y-158614809D01*
X223988380Y-155892666D02*
X224988380Y-156226000D01*
X223988380Y-156559333D01*
X224893142Y-157464095D02*
X224940761Y-157416476D01*
X224988380Y-157273619D01*
X224988380Y-157178380D01*
X224940761Y-157035523D01*
X224845523Y-156940285D01*
X224750285Y-156892666D01*
X224559809Y-156845047D01*
X224416952Y-156845047D01*
X224226476Y-156892666D01*
X224131238Y-156940285D01*
X224036000Y-157035523D01*
X223988380Y-157178380D01*
X223988380Y-157273619D01*
X224036000Y-157416476D01*
X224083619Y-157464095D01*
X224893142Y-158464095D02*
X224940761Y-158416476D01*
X224988380Y-158273619D01*
X224988380Y-158178380D01*
X224940761Y-158035523D01*
X224845523Y-157940285D01*
X224750285Y-157892666D01*
X224559809Y-157845047D01*
X224416952Y-157845047D01*
X224226476Y-157892666D01*
X224131238Y-157940285D01*
X224036000Y-158035523D01*
X223988380Y-158178380D01*
X223988380Y-158273619D01*
X224036000Y-158416476D01*
X224083619Y-158464095D01*
X227528380Y-156932380D02*
X227052190Y-156599047D01*
X227528380Y-156360952D02*
X226528380Y-156360952D01*
X226528380Y-156741904D01*
X226576000Y-156837142D01*
X226623619Y-156884761D01*
X226718857Y-156932380D01*
X226861714Y-156932380D01*
X226956952Y-156884761D01*
X227004571Y-156837142D01*
X227052190Y-156741904D01*
X227052190Y-156360952D01*
X227480761Y-157313333D02*
X227528380Y-157456190D01*
X227528380Y-157694285D01*
X227480761Y-157789523D01*
X227433142Y-157837142D01*
X227337904Y-157884761D01*
X227242666Y-157884761D01*
X227147428Y-157837142D01*
X227099809Y-157789523D01*
X227052190Y-157694285D01*
X227004571Y-157503809D01*
X226956952Y-157408571D01*
X226909333Y-157360952D01*
X226814095Y-157313333D01*
X226718857Y-157313333D01*
X226623619Y-157360952D01*
X226576000Y-157408571D01*
X226528380Y-157503809D01*
X226528380Y-157741904D01*
X226576000Y-157884761D01*
X226528380Y-158170476D02*
X226528380Y-158741904D01*
X227528380Y-158456190D02*
X226528380Y-158456190D01*
X229116000Y-156591095D02*
X229068380Y-156495857D01*
X229068380Y-156353000D01*
X229116000Y-156210142D01*
X229211238Y-156114904D01*
X229306476Y-156067285D01*
X229496952Y-156019666D01*
X229639809Y-156019666D01*
X229830285Y-156067285D01*
X229925523Y-156114904D01*
X230020761Y-156210142D01*
X230068380Y-156353000D01*
X230068380Y-156448238D01*
X230020761Y-156591095D01*
X229973142Y-156638714D01*
X229639809Y-156638714D01*
X229639809Y-156448238D01*
X230068380Y-157067285D02*
X229068380Y-157067285D01*
X230068380Y-157638714D01*
X229068380Y-157638714D01*
X230068380Y-158114904D02*
X229068380Y-158114904D01*
X229068380Y-158353000D01*
X229116000Y-158495857D01*
X229211238Y-158591095D01*
X229306476Y-158638714D01*
X229496952Y-158686333D01*
X229639809Y-158686333D01*
X229830285Y-158638714D01*
X229925523Y-158591095D01*
X230020761Y-158495857D01*
X230068380Y-158353000D01*
X230068380Y-158114904D01*
X219083000Y-156591095D02*
X219035380Y-156495857D01*
X219035380Y-156353000D01*
X219083000Y-156210142D01*
X219178238Y-156114904D01*
X219273476Y-156067285D01*
X219463952Y-156019666D01*
X219606809Y-156019666D01*
X219797285Y-156067285D01*
X219892523Y-156114904D01*
X219987761Y-156210142D01*
X220035380Y-156353000D01*
X220035380Y-156448238D01*
X219987761Y-156591095D01*
X219940142Y-156638714D01*
X219606809Y-156638714D01*
X219606809Y-156448238D01*
X220035380Y-157067285D02*
X219035380Y-157067285D01*
X220035380Y-157638714D01*
X219035380Y-157638714D01*
X220035380Y-158114904D02*
X219035380Y-158114904D01*
X219035380Y-158353000D01*
X219083000Y-158495857D01*
X219178238Y-158591095D01*
X219273476Y-158638714D01*
X219463952Y-158686333D01*
X219606809Y-158686333D01*
X219797285Y-158638714D01*
X219892523Y-158591095D01*
X219987761Y-158495857D01*
X220035380Y-158353000D01*
X220035380Y-158114904D01*
X214003000Y-156591095D02*
X213955380Y-156495857D01*
X213955380Y-156353000D01*
X214003000Y-156210142D01*
X214098238Y-156114904D01*
X214193476Y-156067285D01*
X214383952Y-156019666D01*
X214526809Y-156019666D01*
X214717285Y-156067285D01*
X214812523Y-156114904D01*
X214907761Y-156210142D01*
X214955380Y-156353000D01*
X214955380Y-156448238D01*
X214907761Y-156591095D01*
X214860142Y-156638714D01*
X214526809Y-156638714D01*
X214526809Y-156448238D01*
X214955380Y-157067285D02*
X213955380Y-157067285D01*
X214955380Y-157638714D01*
X213955380Y-157638714D01*
X214955380Y-158114904D02*
X213955380Y-158114904D01*
X213955380Y-158353000D01*
X214003000Y-158495857D01*
X214098238Y-158591095D01*
X214193476Y-158638714D01*
X214383952Y-158686333D01*
X214526809Y-158686333D01*
X214717285Y-158638714D01*
X214812523Y-158591095D01*
X214907761Y-158495857D01*
X214955380Y-158353000D01*
X214955380Y-158114904D01*
X208875380Y-156114904D02*
X208875380Y-156733952D01*
X209256333Y-156400619D01*
X209256333Y-156543476D01*
X209303952Y-156638714D01*
X209351571Y-156686333D01*
X209446809Y-156733952D01*
X209684904Y-156733952D01*
X209780142Y-156686333D01*
X209827761Y-156638714D01*
X209875380Y-156543476D01*
X209875380Y-156257761D01*
X209827761Y-156162523D01*
X209780142Y-156114904D01*
X208875380Y-157019666D02*
X209875380Y-157353000D01*
X208875380Y-157686333D01*
X208875380Y-157924428D02*
X208875380Y-158543476D01*
X209256333Y-158210142D01*
X209256333Y-158353000D01*
X209303952Y-158448238D01*
X209351571Y-158495857D01*
X209446809Y-158543476D01*
X209684904Y-158543476D01*
X209780142Y-158495857D01*
X209827761Y-158448238D01*
X209875380Y-158353000D01*
X209875380Y-158067285D01*
X209827761Y-157972047D01*
X209780142Y-157924428D01*
X206256000Y-156591095D02*
X206208380Y-156495857D01*
X206208380Y-156353000D01*
X206256000Y-156210142D01*
X206351238Y-156114904D01*
X206446476Y-156067285D01*
X206636952Y-156019666D01*
X206779809Y-156019666D01*
X206970285Y-156067285D01*
X207065523Y-156114904D01*
X207160761Y-156210142D01*
X207208380Y-156353000D01*
X207208380Y-156448238D01*
X207160761Y-156591095D01*
X207113142Y-156638714D01*
X206779809Y-156638714D01*
X206779809Y-156448238D01*
X207208380Y-157067285D02*
X206208380Y-157067285D01*
X207208380Y-157638714D01*
X206208380Y-157638714D01*
X207208380Y-158114904D02*
X206208380Y-158114904D01*
X206208380Y-158353000D01*
X206256000Y-158495857D01*
X206351238Y-158591095D01*
X206446476Y-158638714D01*
X206636952Y-158686333D01*
X206779809Y-158686333D01*
X206970285Y-158638714D01*
X207065523Y-158591095D01*
X207160761Y-158495857D01*
X207208380Y-158353000D01*
X207208380Y-158114904D01*
X181713142Y-153202000D02*
X181760761Y-153154380D01*
X181808380Y-153011523D01*
X181808380Y-152916285D01*
X181760761Y-152773428D01*
X181665523Y-152678190D01*
X181570285Y-152630571D01*
X181379809Y-152582952D01*
X181236952Y-152582952D01*
X181046476Y-152630571D01*
X180951238Y-152678190D01*
X180856000Y-152773428D01*
X180808380Y-152916285D01*
X180808380Y-153011523D01*
X180856000Y-153154380D01*
X180903619Y-153202000D01*
X181808380Y-153630571D02*
X180808380Y-153630571D01*
X180808380Y-154011523D01*
X180856000Y-154106761D01*
X180903619Y-154154380D01*
X180998857Y-154202000D01*
X181141714Y-154202000D01*
X181236952Y-154154380D01*
X181284571Y-154106761D01*
X181332190Y-154011523D01*
X181332190Y-153630571D01*
X180808380Y-154630571D02*
X181617904Y-154630571D01*
X181713142Y-154678190D01*
X181760761Y-154725809D01*
X181808380Y-154821047D01*
X181808380Y-155011523D01*
X181760761Y-155106761D01*
X181713142Y-155154380D01*
X181617904Y-155202000D01*
X180808380Y-155202000D01*
X181903619Y-155440095D02*
X181903619Y-156202000D01*
X181713142Y-157011523D02*
X181760761Y-156963904D01*
X181808380Y-156821047D01*
X181808380Y-156725809D01*
X181760761Y-156582952D01*
X181665523Y-156487714D01*
X181570285Y-156440095D01*
X181379809Y-156392476D01*
X181236952Y-156392476D01*
X181046476Y-156440095D01*
X180951238Y-156487714D01*
X180856000Y-156582952D01*
X180808380Y-156725809D01*
X180808380Y-156821047D01*
X180856000Y-156963904D01*
X180903619Y-157011523D01*
X181808380Y-157916285D02*
X181808380Y-157440095D01*
X180808380Y-157440095D01*
X181808380Y-158249619D02*
X180808380Y-158249619D01*
X181808380Y-158821047D02*
X181236952Y-158392476D01*
X180808380Y-158821047D02*
X181379809Y-158249619D01*
X173791571Y-156646666D02*
X173791571Y-156313333D01*
X174315380Y-156313333D02*
X173315380Y-156313333D01*
X173315380Y-156789523D01*
X174220142Y-157741904D02*
X174267761Y-157694285D01*
X174315380Y-157551428D01*
X174315380Y-157456190D01*
X174267761Y-157313333D01*
X174172523Y-157218095D01*
X174077285Y-157170476D01*
X173886809Y-157122857D01*
X173743952Y-157122857D01*
X173553476Y-157170476D01*
X173458238Y-157218095D01*
X173363000Y-157313333D01*
X173315380Y-157456190D01*
X173315380Y-157551428D01*
X173363000Y-157694285D01*
X173410619Y-157741904D01*
X173315380Y-158360952D02*
X173315380Y-158456190D01*
X173363000Y-158551428D01*
X173410619Y-158599047D01*
X173505857Y-158646666D01*
X173696333Y-158694285D01*
X173934428Y-158694285D01*
X174124904Y-158646666D01*
X174220142Y-158599047D01*
X174267761Y-158551428D01*
X174315380Y-158456190D01*
X174315380Y-158360952D01*
X174267761Y-158265714D01*
X174220142Y-158218095D01*
X174124904Y-158170476D01*
X173934428Y-158122857D01*
X173696333Y-158122857D01*
X173505857Y-158170476D01*
X173410619Y-158218095D01*
X173363000Y-158265714D01*
X173315380Y-158360952D01*
X171124571Y-156646666D02*
X171124571Y-156313333D01*
X171648380Y-156313333D02*
X170648380Y-156313333D01*
X170648380Y-156789523D01*
X171553142Y-157741904D02*
X171600761Y-157694285D01*
X171648380Y-157551428D01*
X171648380Y-157456190D01*
X171600761Y-157313333D01*
X171505523Y-157218095D01*
X171410285Y-157170476D01*
X171219809Y-157122857D01*
X171076952Y-157122857D01*
X170886476Y-157170476D01*
X170791238Y-157218095D01*
X170696000Y-157313333D01*
X170648380Y-157456190D01*
X170648380Y-157551428D01*
X170696000Y-157694285D01*
X170743619Y-157741904D01*
X171648380Y-158694285D02*
X171648380Y-158122857D01*
X171648380Y-158408571D02*
X170648380Y-158408571D01*
X170791238Y-158313333D01*
X170886476Y-158218095D01*
X170934095Y-158122857D01*
X168711571Y-156646666D02*
X168711571Y-156313333D01*
X169235380Y-156313333D02*
X168235380Y-156313333D01*
X168235380Y-156789523D01*
X169140142Y-157741904D02*
X169187761Y-157694285D01*
X169235380Y-157551428D01*
X169235380Y-157456190D01*
X169187761Y-157313333D01*
X169092523Y-157218095D01*
X168997285Y-157170476D01*
X168806809Y-157122857D01*
X168663952Y-157122857D01*
X168473476Y-157170476D01*
X168378238Y-157218095D01*
X168283000Y-157313333D01*
X168235380Y-157456190D01*
X168235380Y-157551428D01*
X168283000Y-157694285D01*
X168330619Y-157741904D01*
X168330619Y-158122857D02*
X168283000Y-158170476D01*
X168235380Y-158265714D01*
X168235380Y-158503809D01*
X168283000Y-158599047D01*
X168330619Y-158646666D01*
X168425857Y-158694285D01*
X168521095Y-158694285D01*
X168663952Y-158646666D01*
X169235380Y-158075238D01*
X169235380Y-158694285D01*
X166298571Y-154606857D02*
X166346190Y-154749714D01*
X166393809Y-154797333D01*
X166489047Y-154844952D01*
X166631904Y-154844952D01*
X166727142Y-154797333D01*
X166774761Y-154749714D01*
X166822380Y-154654476D01*
X166822380Y-154273523D01*
X165822380Y-154273523D01*
X165822380Y-154606857D01*
X165870000Y-154702095D01*
X165917619Y-154749714D01*
X166012857Y-154797333D01*
X166108095Y-154797333D01*
X166203333Y-154749714D01*
X166250952Y-154702095D01*
X166298571Y-154606857D01*
X166298571Y-154273523D01*
X165870000Y-155797333D02*
X165822380Y-155702095D01*
X165822380Y-155559238D01*
X165870000Y-155416380D01*
X165965238Y-155321142D01*
X166060476Y-155273523D01*
X166250952Y-155225904D01*
X166393809Y-155225904D01*
X166584285Y-155273523D01*
X166679523Y-155321142D01*
X166774761Y-155416380D01*
X166822380Y-155559238D01*
X166822380Y-155654476D01*
X166774761Y-155797333D01*
X166727142Y-155844952D01*
X166393809Y-155844952D01*
X166393809Y-155654476D01*
X166536666Y-156225904D02*
X166536666Y-156702095D01*
X166822380Y-156130666D02*
X165822380Y-156464000D01*
X166822380Y-156797333D01*
X166727142Y-157702095D02*
X166774761Y-157654476D01*
X166822380Y-157511619D01*
X166822380Y-157416380D01*
X166774761Y-157273523D01*
X166679523Y-157178285D01*
X166584285Y-157130666D01*
X166393809Y-157083047D01*
X166250952Y-157083047D01*
X166060476Y-157130666D01*
X165965238Y-157178285D01*
X165870000Y-157273523D01*
X165822380Y-157416380D01*
X165822380Y-157511619D01*
X165870000Y-157654476D01*
X165917619Y-157702095D01*
X166822380Y-158130666D02*
X165822380Y-158130666D01*
X166822380Y-158702095D02*
X166250952Y-158273523D01*
X165822380Y-158702095D02*
X166393809Y-158130666D01*
X163631571Y-157432428D02*
X163679190Y-157575285D01*
X163726809Y-157622904D01*
X163822047Y-157670523D01*
X163964904Y-157670523D01*
X164060142Y-157622904D01*
X164107761Y-157575285D01*
X164155380Y-157480047D01*
X164155380Y-157099095D01*
X163155380Y-157099095D01*
X163155380Y-157432428D01*
X163203000Y-157527666D01*
X163250619Y-157575285D01*
X163345857Y-157622904D01*
X163441095Y-157622904D01*
X163536333Y-157575285D01*
X163583952Y-157527666D01*
X163631571Y-157432428D01*
X163631571Y-157099095D01*
X163203000Y-158622904D02*
X163155380Y-158527666D01*
X163155380Y-158384809D01*
X163203000Y-158241952D01*
X163298238Y-158146714D01*
X163393476Y-158099095D01*
X163583952Y-158051476D01*
X163726809Y-158051476D01*
X163917285Y-158099095D01*
X164012523Y-158146714D01*
X164107761Y-158241952D01*
X164155380Y-158384809D01*
X164155380Y-158480047D01*
X164107761Y-158622904D01*
X164060142Y-158670523D01*
X163726809Y-158670523D01*
X163726809Y-158480047D01*
X161091571Y-157432428D02*
X161139190Y-157575285D01*
X161186809Y-157622904D01*
X161282047Y-157670523D01*
X161424904Y-157670523D01*
X161520142Y-157622904D01*
X161567761Y-157575285D01*
X161615380Y-157480047D01*
X161615380Y-157099095D01*
X160615380Y-157099095D01*
X160615380Y-157432428D01*
X160663000Y-157527666D01*
X160710619Y-157575285D01*
X160805857Y-157622904D01*
X160901095Y-157622904D01*
X160996333Y-157575285D01*
X161043952Y-157527666D01*
X161091571Y-157432428D01*
X161091571Y-157099095D01*
X161615380Y-158670523D02*
X161139190Y-158337190D01*
X161615380Y-158099095D02*
X160615380Y-158099095D01*
X160615380Y-158480047D01*
X160663000Y-158575285D01*
X160710619Y-158622904D01*
X160805857Y-158670523D01*
X160948714Y-158670523D01*
X161043952Y-158622904D01*
X161091571Y-158575285D01*
X161139190Y-158480047D01*
X161139190Y-158099095D01*
X158075380Y-156019666D02*
X159075380Y-156353000D01*
X158075380Y-156686333D01*
X158980142Y-157591095D02*
X159027761Y-157543476D01*
X159075380Y-157400619D01*
X159075380Y-157305380D01*
X159027761Y-157162523D01*
X158932523Y-157067285D01*
X158837285Y-157019666D01*
X158646809Y-156972047D01*
X158503952Y-156972047D01*
X158313476Y-157019666D01*
X158218238Y-157067285D01*
X158123000Y-157162523D01*
X158075380Y-157305380D01*
X158075380Y-157400619D01*
X158123000Y-157543476D01*
X158170619Y-157591095D01*
X158980142Y-158591095D02*
X159027761Y-158543476D01*
X159075380Y-158400619D01*
X159075380Y-158305380D01*
X159027761Y-158162523D01*
X158932523Y-158067285D01*
X158837285Y-158019666D01*
X158646809Y-157972047D01*
X158503952Y-157972047D01*
X158313476Y-158019666D01*
X158218238Y-158067285D01*
X158123000Y-158162523D01*
X158075380Y-158305380D01*
X158075380Y-158400619D01*
X158123000Y-158543476D01*
X158170619Y-158591095D01*
X153170000Y-156591095D02*
X153122380Y-156495857D01*
X153122380Y-156353000D01*
X153170000Y-156210142D01*
X153265238Y-156114904D01*
X153360476Y-156067285D01*
X153550952Y-156019666D01*
X153693809Y-156019666D01*
X153884285Y-156067285D01*
X153979523Y-156114904D01*
X154074761Y-156210142D01*
X154122380Y-156353000D01*
X154122380Y-156448238D01*
X154074761Y-156591095D01*
X154027142Y-156638714D01*
X153693809Y-156638714D01*
X153693809Y-156448238D01*
X154122380Y-157067285D02*
X153122380Y-157067285D01*
X154122380Y-157638714D01*
X153122380Y-157638714D01*
X154122380Y-158114904D02*
X153122380Y-158114904D01*
X153122380Y-158353000D01*
X153170000Y-158495857D01*
X153265238Y-158591095D01*
X153360476Y-158638714D01*
X153550952Y-158686333D01*
X153693809Y-158686333D01*
X153884285Y-158638714D01*
X153979523Y-158591095D01*
X154074761Y-158495857D01*
X154122380Y-158353000D01*
X154122380Y-158114904D01*
X140168380Y-156019666D02*
X141168380Y-156353000D01*
X140168380Y-156686333D01*
X141168380Y-157019666D02*
X140168380Y-157019666D01*
X140882666Y-157353000D01*
X140168380Y-157686333D01*
X141168380Y-157686333D01*
X140882666Y-158114904D02*
X140882666Y-158591095D01*
X141168380Y-158019666D02*
X140168380Y-158353000D01*
X141168380Y-158686333D01*
X138231571Y-158154714D02*
X138231571Y-158488047D01*
X138755380Y-158630904D02*
X138755380Y-158154714D01*
X137755380Y-158154714D01*
X137755380Y-158630904D01*
X135215380Y-156218095D02*
X136215380Y-156551428D01*
X135215380Y-156884761D01*
X136215380Y-157218095D02*
X135215380Y-157218095D01*
X135215380Y-157599047D01*
X135263000Y-157694285D01*
X135310619Y-157741904D01*
X135405857Y-157789523D01*
X135548714Y-157789523D01*
X135643952Y-157741904D01*
X135691571Y-157694285D01*
X135739190Y-157599047D01*
X135739190Y-157218095D01*
X135929666Y-158170476D02*
X135929666Y-158646666D01*
X136215380Y-158075238D02*
X135215380Y-158408571D01*
X136215380Y-158741904D01*
X133548380Y-155972047D02*
X132548380Y-155972047D01*
X133548380Y-156448238D02*
X132548380Y-156448238D01*
X132548380Y-156829190D01*
X132596000Y-156924428D01*
X132643619Y-156972047D01*
X132738857Y-157019666D01*
X132881714Y-157019666D01*
X132976952Y-156972047D01*
X133024571Y-156924428D01*
X133072190Y-156829190D01*
X133072190Y-156448238D01*
X133548380Y-157924428D02*
X133548380Y-157448238D01*
X132548380Y-157448238D01*
X132548380Y-158448238D02*
X132548380Y-158543476D01*
X132596000Y-158638714D01*
X132643619Y-158686333D01*
X132738857Y-158733952D01*
X132929333Y-158781571D01*
X133167428Y-158781571D01*
X133357904Y-158733952D01*
X133453142Y-158686333D01*
X133500761Y-158638714D01*
X133548380Y-158543476D01*
X133548380Y-158448238D01*
X133500761Y-158353000D01*
X133453142Y-158305380D01*
X133357904Y-158257761D01*
X133167428Y-158210142D01*
X132929333Y-158210142D01*
X132738857Y-158257761D01*
X132643619Y-158305380D01*
X132596000Y-158353000D01*
X132548380Y-158448238D01*
X131135380Y-155972047D02*
X130135380Y-155972047D01*
X131135380Y-156448238D02*
X130135380Y-156448238D01*
X130135380Y-156829190D01*
X130183000Y-156924428D01*
X130230619Y-156972047D01*
X130325857Y-157019666D01*
X130468714Y-157019666D01*
X130563952Y-156972047D01*
X130611571Y-156924428D01*
X130659190Y-156829190D01*
X130659190Y-156448238D01*
X131135380Y-157924428D02*
X131135380Y-157448238D01*
X130135380Y-157448238D01*
X131135380Y-158781571D02*
X131135380Y-158210142D01*
X131135380Y-158495857D02*
X130135380Y-158495857D01*
X130278238Y-158400619D01*
X130373476Y-158305380D01*
X130421095Y-158210142D01*
X128468380Y-155972047D02*
X127468380Y-155972047D01*
X128468380Y-156448238D02*
X127468380Y-156448238D01*
X127468380Y-156829190D01*
X127516000Y-156924428D01*
X127563619Y-156972047D01*
X127658857Y-157019666D01*
X127801714Y-157019666D01*
X127896952Y-156972047D01*
X127944571Y-156924428D01*
X127992190Y-156829190D01*
X127992190Y-156448238D01*
X128468380Y-157924428D02*
X128468380Y-157448238D01*
X127468380Y-157448238D01*
X127563619Y-158210142D02*
X127516000Y-158257761D01*
X127468380Y-158353000D01*
X127468380Y-158591095D01*
X127516000Y-158686333D01*
X127563619Y-158733952D01*
X127658857Y-158781571D01*
X127754095Y-158781571D01*
X127896952Y-158733952D01*
X128468380Y-158162523D01*
X128468380Y-158781571D01*
X126055380Y-154646571D02*
X125055380Y-154646571D01*
X125055380Y-154884666D01*
X125103000Y-155027523D01*
X125198238Y-155122761D01*
X125293476Y-155170380D01*
X125483952Y-155218000D01*
X125626809Y-155218000D01*
X125817285Y-155170380D01*
X125912523Y-155122761D01*
X126007761Y-155027523D01*
X126055380Y-154884666D01*
X126055380Y-154646571D01*
X125055380Y-155503714D02*
X125055380Y-156075142D01*
X126055380Y-155789428D02*
X125055380Y-155789428D01*
X125769666Y-156360857D02*
X125769666Y-156837047D01*
X126055380Y-156265619D02*
X125055380Y-156598952D01*
X126055380Y-156932285D01*
X125960142Y-157837047D02*
X126007761Y-157789428D01*
X126055380Y-157646571D01*
X126055380Y-157551333D01*
X126007761Y-157408476D01*
X125912523Y-157313238D01*
X125817285Y-157265619D01*
X125626809Y-157218000D01*
X125483952Y-157218000D01*
X125293476Y-157265619D01*
X125198238Y-157313238D01*
X125103000Y-157408476D01*
X125055380Y-157551333D01*
X125055380Y-157646571D01*
X125103000Y-157789428D01*
X125150619Y-157837047D01*
X126055380Y-158265619D02*
X125055380Y-158265619D01*
X126055380Y-158837047D02*
X125483952Y-158408476D01*
X125055380Y-158837047D02*
X125626809Y-158265619D01*
X123118571Y-155718047D02*
X123166190Y-155860904D01*
X123213809Y-155908523D01*
X123309047Y-155956142D01*
X123451904Y-155956142D01*
X123547142Y-155908523D01*
X123594761Y-155860904D01*
X123642380Y-155765666D01*
X123642380Y-155384714D01*
X122642380Y-155384714D01*
X122642380Y-155718047D01*
X122690000Y-155813285D01*
X122737619Y-155860904D01*
X122832857Y-155908523D01*
X122928095Y-155908523D01*
X123023333Y-155860904D01*
X123070952Y-155813285D01*
X123118571Y-155718047D01*
X123118571Y-155384714D01*
X123118571Y-156384714D02*
X123118571Y-156718047D01*
X123642380Y-156860904D02*
X123642380Y-156384714D01*
X122642380Y-156384714D01*
X122642380Y-156860904D01*
X123642380Y-157860904D02*
X123166190Y-157527571D01*
X123642380Y-157289476D02*
X122642380Y-157289476D01*
X122642380Y-157670428D01*
X122690000Y-157765666D01*
X122737619Y-157813285D01*
X122832857Y-157860904D01*
X122975714Y-157860904D01*
X123070952Y-157813285D01*
X123118571Y-157765666D01*
X123166190Y-157670428D01*
X123166190Y-157289476D01*
X123642380Y-158860904D02*
X123166190Y-158527571D01*
X123642380Y-158289476D02*
X122642380Y-158289476D01*
X122642380Y-158670428D01*
X122690000Y-158765666D01*
X122737619Y-158813285D01*
X122832857Y-158860904D01*
X122975714Y-158860904D01*
X123070952Y-158813285D01*
X123118571Y-158765666D01*
X123166190Y-158670428D01*
X123166190Y-158289476D01*
X121102380Y-156884761D02*
X120626190Y-156551428D01*
X121102380Y-156313333D02*
X120102380Y-156313333D01*
X120102380Y-156694285D01*
X120150000Y-156789523D01*
X120197619Y-156837142D01*
X120292857Y-156884761D01*
X120435714Y-156884761D01*
X120530952Y-156837142D01*
X120578571Y-156789523D01*
X120626190Y-156694285D01*
X120626190Y-156313333D01*
X121102380Y-157313333D02*
X120102380Y-157313333D01*
X120102380Y-157551428D01*
X120150000Y-157694285D01*
X120245238Y-157789523D01*
X120340476Y-157837142D01*
X120530952Y-157884761D01*
X120673809Y-157884761D01*
X120864285Y-157837142D01*
X120959523Y-157789523D01*
X121054761Y-157694285D01*
X121102380Y-157551428D01*
X121102380Y-157313333D01*
X121102380Y-158789523D02*
X121102380Y-158313333D01*
X120102380Y-158313333D01*
X118435380Y-156765714D02*
X117959190Y-156432380D01*
X118435380Y-156194285D02*
X117435380Y-156194285D01*
X117435380Y-156575238D01*
X117483000Y-156670476D01*
X117530619Y-156718095D01*
X117625857Y-156765714D01*
X117768714Y-156765714D01*
X117863952Y-156718095D01*
X117911571Y-156670476D01*
X117959190Y-156575238D01*
X117959190Y-156194285D01*
X118435380Y-157194285D02*
X117435380Y-157194285D01*
X117435380Y-157432380D01*
X117483000Y-157575238D01*
X117578238Y-157670476D01*
X117673476Y-157718095D01*
X117863952Y-157765714D01*
X118006809Y-157765714D01*
X118197285Y-157718095D01*
X118292523Y-157670476D01*
X118387761Y-157575238D01*
X118435380Y-157432380D01*
X118435380Y-157194285D01*
X117435380Y-158194285D02*
X118244904Y-158194285D01*
X118340142Y-158241904D01*
X118387761Y-158289523D01*
X118435380Y-158384761D01*
X118435380Y-158575238D01*
X118387761Y-158670476D01*
X118340142Y-158718095D01*
X118244904Y-158765714D01*
X117435380Y-158765714D01*
X114895380Y-156146666D02*
X115895380Y-156384761D01*
X115181095Y-156575238D01*
X115895380Y-156765714D01*
X114895380Y-157003809D01*
X115895380Y-157956190D02*
X115419190Y-157622857D01*
X115895380Y-157384761D02*
X114895380Y-157384761D01*
X114895380Y-157765714D01*
X114943000Y-157860952D01*
X114990619Y-157908571D01*
X115085857Y-157956190D01*
X115228714Y-157956190D01*
X115323952Y-157908571D01*
X115371571Y-157860952D01*
X115419190Y-157765714D01*
X115419190Y-157384761D01*
X115895380Y-158860952D02*
X115895380Y-158384761D01*
X114895380Y-158384761D01*
X112228380Y-156027619D02*
X113228380Y-156265714D01*
X112514095Y-156456190D01*
X113228380Y-156646666D01*
X112228380Y-156884761D01*
X113228380Y-157837142D02*
X112752190Y-157503809D01*
X113228380Y-157265714D02*
X112228380Y-157265714D01*
X112228380Y-157646666D01*
X112276000Y-157741904D01*
X112323619Y-157789523D01*
X112418857Y-157837142D01*
X112561714Y-157837142D01*
X112656952Y-157789523D01*
X112704571Y-157741904D01*
X112752190Y-157646666D01*
X112752190Y-157265714D01*
X112228380Y-158265714D02*
X113037904Y-158265714D01*
X113133142Y-158313333D01*
X113180761Y-158360952D01*
X113228380Y-158456190D01*
X113228380Y-158646666D01*
X113180761Y-158741904D01*
X113133142Y-158789523D01*
X113037904Y-158837142D01*
X112228380Y-158837142D01*
X110815380Y-155980000D02*
X109815380Y-155980000D01*
X110815380Y-157027619D02*
X110339190Y-156694285D01*
X110815380Y-156456190D02*
X109815380Y-156456190D01*
X109815380Y-156837142D01*
X109863000Y-156932380D01*
X109910619Y-156980000D01*
X110005857Y-157027619D01*
X110148714Y-157027619D01*
X110243952Y-156980000D01*
X110291571Y-156932380D01*
X110339190Y-156837142D01*
X110339190Y-156456190D01*
X110910619Y-158122857D02*
X110863000Y-158027619D01*
X110767761Y-157932380D01*
X110624904Y-157789523D01*
X110577285Y-157694285D01*
X110577285Y-157599047D01*
X110815380Y-157646666D02*
X110767761Y-157551428D01*
X110672523Y-157456190D01*
X110482047Y-157408571D01*
X110148714Y-157408571D01*
X109958238Y-157456190D01*
X109863000Y-157551428D01*
X109815380Y-157646666D01*
X109815380Y-157837142D01*
X109863000Y-157932380D01*
X109958238Y-158027619D01*
X110148714Y-158075238D01*
X110482047Y-158075238D01*
X110672523Y-158027619D01*
X110767761Y-157932380D01*
X110815380Y-157837142D01*
X110815380Y-157646666D01*
X110815380Y-159027619D02*
X110815380Y-158456190D01*
X110815380Y-158741904D02*
X109815380Y-158741904D01*
X109958238Y-158646666D01*
X110053476Y-158551428D01*
X110101095Y-158456190D01*
X108275380Y-155980000D02*
X107275380Y-155980000D01*
X108275380Y-157027619D02*
X107799190Y-156694285D01*
X108275380Y-156456190D02*
X107275380Y-156456190D01*
X107275380Y-156837142D01*
X107323000Y-156932380D01*
X107370619Y-156980000D01*
X107465857Y-157027619D01*
X107608714Y-157027619D01*
X107703952Y-156980000D01*
X107751571Y-156932380D01*
X107799190Y-156837142D01*
X107799190Y-156456190D01*
X108370619Y-158122857D02*
X108323000Y-158027619D01*
X108227761Y-157932380D01*
X108084904Y-157789523D01*
X108037285Y-157694285D01*
X108037285Y-157599047D01*
X108275380Y-157646666D02*
X108227761Y-157551428D01*
X108132523Y-157456190D01*
X107942047Y-157408571D01*
X107608714Y-157408571D01*
X107418238Y-157456190D01*
X107323000Y-157551428D01*
X107275380Y-157646666D01*
X107275380Y-157837142D01*
X107323000Y-157932380D01*
X107418238Y-158027619D01*
X107608714Y-158075238D01*
X107942047Y-158075238D01*
X108132523Y-158027619D01*
X108227761Y-157932380D01*
X108275380Y-157837142D01*
X108275380Y-157646666D01*
X107370619Y-158456190D02*
X107323000Y-158503809D01*
X107275380Y-158599047D01*
X107275380Y-158837142D01*
X107323000Y-158932380D01*
X107370619Y-158980000D01*
X107465857Y-159027619D01*
X107561095Y-159027619D01*
X107703952Y-158980000D01*
X108275380Y-158408571D01*
X108275380Y-159027619D01*
X104735380Y-156146666D02*
X105735380Y-156480000D01*
X104735380Y-156813333D01*
X105640142Y-157718095D02*
X105687761Y-157670476D01*
X105735380Y-157527619D01*
X105735380Y-157432380D01*
X105687761Y-157289523D01*
X105592523Y-157194285D01*
X105497285Y-157146666D01*
X105306809Y-157099047D01*
X105163952Y-157099047D01*
X104973476Y-157146666D01*
X104878238Y-157194285D01*
X104783000Y-157289523D01*
X104735380Y-157432380D01*
X104735380Y-157527619D01*
X104783000Y-157670476D01*
X104830619Y-157718095D01*
X105640142Y-158718095D02*
X105687761Y-158670476D01*
X105735380Y-158527619D01*
X105735380Y-158432380D01*
X105687761Y-158289523D01*
X105592523Y-158194285D01*
X105497285Y-158146666D01*
X105306809Y-158099047D01*
X105163952Y-158099047D01*
X104973476Y-158146666D01*
X104878238Y-158194285D01*
X104783000Y-158289523D01*
X104735380Y-158432380D01*
X104735380Y-158527619D01*
X104783000Y-158670476D01*
X104830619Y-158718095D01*
X99830000Y-156718095D02*
X99782380Y-156622857D01*
X99782380Y-156480000D01*
X99830000Y-156337142D01*
X99925238Y-156241904D01*
X100020476Y-156194285D01*
X100210952Y-156146666D01*
X100353809Y-156146666D01*
X100544285Y-156194285D01*
X100639523Y-156241904D01*
X100734761Y-156337142D01*
X100782380Y-156480000D01*
X100782380Y-156575238D01*
X100734761Y-156718095D01*
X100687142Y-156765714D01*
X100353809Y-156765714D01*
X100353809Y-156575238D01*
X100782380Y-157194285D02*
X99782380Y-157194285D01*
X100782380Y-157765714D01*
X99782380Y-157765714D01*
X100782380Y-158241904D02*
X99782380Y-158241904D01*
X99782380Y-158480000D01*
X99830000Y-158622857D01*
X99925238Y-158718095D01*
X100020476Y-158765714D01*
X100210952Y-158813333D01*
X100353809Y-158813333D01*
X100544285Y-158765714D01*
X100639523Y-158718095D01*
X100734761Y-158622857D01*
X100782380Y-158480000D01*
X100782380Y-158241904D01*
D11*
X97663000Y-159512000D02*
X79883000Y-159512000D01*
X97663000Y-168402000D02*
X97663000Y-159512000D01*
X145923000Y-168402000D02*
X97663000Y-168402000D01*
X145923000Y-160782000D02*
X145923000Y-168402000D01*
X151003000Y-160782000D02*
X145923000Y-160782000D01*
X151003000Y-168402000D02*
X151003000Y-160782000D01*
X232283000Y-168402000D02*
X151003000Y-168402000D01*
X232283000Y-159512000D02*
X232283000Y-168402000D01*
X233553000Y-159512000D02*
X232283000Y-159512000D01*
X79883000Y-10000000D02*
X79883000Y-159512000D01*
X270383000Y-10000000D02*
X79883000Y-10000000D01*
X270383000Y-159512000D02*
X270383000Y-10000000D01*
X233553000Y-159512000D02*
X270383000Y-159512000D01*
D12*
%TO.C,C30*%
X160281252Y-124154000D02*
X159758748Y-124154000D01*
X160281252Y-122734000D02*
X159758748Y-122734000D01*
%TO.C,U21*%
X141444000Y-125216000D02*
X143134000Y-125216000D01*
X141444000Y-124941000D02*
X141444000Y-125216000D01*
X138684000Y-124941000D02*
X141444000Y-124941000D01*
X135924000Y-124941000D02*
X135924000Y-125216000D01*
X138684000Y-124941000D02*
X135924000Y-124941000D01*
X141444000Y-132361000D02*
X141444000Y-132086000D01*
X138684000Y-132361000D02*
X141444000Y-132361000D01*
X135924000Y-132361000D02*
X135924000Y-132086000D01*
X138684000Y-132361000D02*
X135924000Y-132361000D01*
%TO.C,C34*%
X101099252Y-14553000D02*
X100576748Y-14553000D01*
X101099252Y-13133000D02*
X100576748Y-13133000D01*
%TO.C,C33*%
X112768748Y-13133000D02*
X113291252Y-13133000D01*
X112768748Y-14553000D02*
X113291252Y-14553000D01*
%TO.C,C31*%
X196603252Y-124662000D02*
X196080748Y-124662000D01*
X196603252Y-123242000D02*
X196080748Y-123242000D01*
%TO.C,C29*%
X125274000Y-129683252D02*
X125274000Y-129160748D01*
X126694000Y-129683252D02*
X126694000Y-129160748D01*
%TO.C,C28*%
X226620000Y-147200252D02*
X226620000Y-146677748D01*
X228040000Y-147200252D02*
X228040000Y-146677748D01*
%TO.C,C23*%
X180474252Y-124535000D02*
X179951748Y-124535000D01*
X180474252Y-123115000D02*
X179951748Y-123115000D01*
%TO.C,C27*%
X250436748Y-60758000D02*
X250959252Y-60758000D01*
X250436748Y-62178000D02*
X250959252Y-62178000D01*
%TO.C,C26*%
X222623748Y-43486000D02*
X223146252Y-43486000D01*
X222623748Y-44906000D02*
X223146252Y-44906000D01*
%TO.C,C25*%
X222496748Y-78284000D02*
X223019252Y-78284000D01*
X222496748Y-79704000D02*
X223019252Y-79704000D01*
%TO.C,C24*%
X222496748Y-61139000D02*
X223019252Y-61139000D01*
X222496748Y-62559000D02*
X223019252Y-62559000D01*
%TO.C,RN8*%
X145825000Y-98687000D02*
X145825000Y-99687000D01*
X142465000Y-98687000D02*
X142465000Y-99687000D01*
%TO.C,C22*%
X121210000Y-69603252D02*
X121210000Y-69080748D01*
X122630000Y-69603252D02*
X122630000Y-69080748D01*
%TO.C,C21*%
X250563748Y-95302000D02*
X251086252Y-95302000D01*
X250563748Y-96722000D02*
X251086252Y-96722000D01*
%TO.C,C20*%
X222496748Y-95556000D02*
X223019252Y-95556000D01*
X222496748Y-96976000D02*
X223019252Y-96976000D01*
%TO.C,C19*%
X250436748Y-112574000D02*
X250959252Y-112574000D01*
X250436748Y-113994000D02*
X250959252Y-113994000D01*
%TO.C,C18*%
X222623748Y-112574000D02*
X223146252Y-112574000D01*
X222623748Y-113994000D02*
X223146252Y-113994000D01*
%TO.C,C17*%
X250436748Y-129719000D02*
X250959252Y-129719000D01*
X250436748Y-131139000D02*
X250959252Y-131139000D01*
%TO.C,C16*%
X222487748Y-130227000D02*
X223010252Y-130227000D01*
X222487748Y-131647000D02*
X223010252Y-131647000D01*
%TO.C,C15*%
X250436748Y-78030000D02*
X250959252Y-78030000D01*
X250436748Y-79450000D02*
X250959252Y-79450000D01*
%TO.C,C14*%
X250817748Y-43740000D02*
X251340252Y-43740000D01*
X250817748Y-45160000D02*
X251340252Y-45160000D01*
%TO.C,C10*%
X160003748Y-58853000D02*
X160526252Y-58853000D01*
X160003748Y-60273000D02*
X160526252Y-60273000D01*
%TO.C,C9*%
X153872000Y-42020748D02*
X153872000Y-42543252D01*
X152452000Y-42020748D02*
X152452000Y-42543252D01*
%TO.C,C8*%
X169655748Y-40819000D02*
X170178252Y-40819000D01*
X169655748Y-42239000D02*
X170178252Y-42239000D01*
%TO.C,C7*%
X170867000Y-52331252D02*
X170867000Y-51808748D01*
X172287000Y-52331252D02*
X172287000Y-51808748D01*
%TO.C,C6*%
X162543748Y-40819000D02*
X163066252Y-40819000D01*
X162543748Y-42239000D02*
X163066252Y-42239000D01*
%TO.C,C5*%
X153872000Y-57514748D02*
X153872000Y-58037252D01*
X152452000Y-57514748D02*
X152452000Y-58037252D01*
%TO.C,C4*%
X166752748Y-58980000D02*
X167275252Y-58980000D01*
X166752748Y-60400000D02*
X167275252Y-60400000D01*
%TO.C,C3*%
X210641000Y-18788748D02*
X210641000Y-19311252D01*
X209221000Y-18788748D02*
X209221000Y-19311252D01*
%TO.C,C2*%
X150995748Y-99112000D02*
X151518252Y-99112000D01*
X150995748Y-100532000D02*
X151518252Y-100532000D01*
%TO.C,C1*%
X148842252Y-85927000D02*
X148319748Y-85927000D01*
X148842252Y-84507000D02*
X148319748Y-84507000D01*
%TO.C,RN1*%
X172056000Y-100068000D02*
X172056000Y-99068000D01*
X175416000Y-100068000D02*
X175416000Y-99068000D01*
%TO.C,RN2*%
X166526000Y-99068000D02*
X166526000Y-100068000D01*
X163166000Y-99068000D02*
X163166000Y-100068000D01*
%TO.C,RN3*%
X128659000Y-39341000D02*
X129659000Y-39341000D01*
X128659000Y-42701000D02*
X129659000Y-42701000D01*
%TD*%
%TO.C,C30*%
D10*
X160662857Y-122151142D02*
X160710476Y-122198761D01*
X160853333Y-122246380D01*
X160948571Y-122246380D01*
X161091428Y-122198761D01*
X161186666Y-122103523D01*
X161234285Y-122008285D01*
X161281904Y-121817809D01*
X161281904Y-121674952D01*
X161234285Y-121484476D01*
X161186666Y-121389238D01*
X161091428Y-121294000D01*
X160948571Y-121246380D01*
X160853333Y-121246380D01*
X160710476Y-121294000D01*
X160662857Y-121341619D01*
X160329523Y-121246380D02*
X159710476Y-121246380D01*
X160043809Y-121627333D01*
X159900952Y-121627333D01*
X159805714Y-121674952D01*
X159758095Y-121722571D01*
X159710476Y-121817809D01*
X159710476Y-122055904D01*
X159758095Y-122151142D01*
X159805714Y-122198761D01*
X159900952Y-122246380D01*
X160186666Y-122246380D01*
X160281904Y-122198761D01*
X160329523Y-122151142D01*
X159091428Y-121246380D02*
X158996190Y-121246380D01*
X158900952Y-121294000D01*
X158853333Y-121341619D01*
X158805714Y-121436857D01*
X158758095Y-121627333D01*
X158758095Y-121865428D01*
X158805714Y-122055904D01*
X158853333Y-122151142D01*
X158900952Y-122198761D01*
X158996190Y-122246380D01*
X159091428Y-122246380D01*
X159186666Y-122198761D01*
X159234285Y-122151142D01*
X159281904Y-122055904D01*
X159329523Y-121865428D01*
X159329523Y-121627333D01*
X159281904Y-121436857D01*
X159234285Y-121341619D01*
X159186666Y-121294000D01*
X159091428Y-121246380D01*
%TO.C,U21*%
X139922095Y-123553380D02*
X139922095Y-124362904D01*
X139874476Y-124458142D01*
X139826857Y-124505761D01*
X139731619Y-124553380D01*
X139541142Y-124553380D01*
X139445904Y-124505761D01*
X139398285Y-124458142D01*
X139350666Y-124362904D01*
X139350666Y-123553380D01*
X138922095Y-123648619D02*
X138874476Y-123601000D01*
X138779238Y-123553380D01*
X138541142Y-123553380D01*
X138445904Y-123601000D01*
X138398285Y-123648619D01*
X138350666Y-123743857D01*
X138350666Y-123839095D01*
X138398285Y-123981952D01*
X138969714Y-124553380D01*
X138350666Y-124553380D01*
X137398285Y-124553380D02*
X137969714Y-124553380D01*
X137684000Y-124553380D02*
X137684000Y-123553380D01*
X137779238Y-123696238D01*
X137874476Y-123791476D01*
X137969714Y-123839095D01*
%TO.C,C34*%
X101480857Y-12550142D02*
X101528476Y-12597761D01*
X101671333Y-12645380D01*
X101766571Y-12645380D01*
X101909428Y-12597761D01*
X102004666Y-12502523D01*
X102052285Y-12407285D01*
X102099904Y-12216809D01*
X102099904Y-12073952D01*
X102052285Y-11883476D01*
X102004666Y-11788238D01*
X101909428Y-11693000D01*
X101766571Y-11645380D01*
X101671333Y-11645380D01*
X101528476Y-11693000D01*
X101480857Y-11740619D01*
X101147523Y-11645380D02*
X100528476Y-11645380D01*
X100861809Y-12026333D01*
X100718952Y-12026333D01*
X100623714Y-12073952D01*
X100576095Y-12121571D01*
X100528476Y-12216809D01*
X100528476Y-12454904D01*
X100576095Y-12550142D01*
X100623714Y-12597761D01*
X100718952Y-12645380D01*
X101004666Y-12645380D01*
X101099904Y-12597761D01*
X101147523Y-12550142D01*
X99671333Y-11978714D02*
X99671333Y-12645380D01*
X99909428Y-11597761D02*
X100147523Y-12312047D01*
X99528476Y-12312047D01*
%TO.C,C33*%
X113672857Y-15850142D02*
X113720476Y-15897761D01*
X113863333Y-15945380D01*
X113958571Y-15945380D01*
X114101428Y-15897761D01*
X114196666Y-15802523D01*
X114244285Y-15707285D01*
X114291904Y-15516809D01*
X114291904Y-15373952D01*
X114244285Y-15183476D01*
X114196666Y-15088238D01*
X114101428Y-14993000D01*
X113958571Y-14945380D01*
X113863333Y-14945380D01*
X113720476Y-14993000D01*
X113672857Y-15040619D01*
X113339523Y-14945380D02*
X112720476Y-14945380D01*
X113053809Y-15326333D01*
X112910952Y-15326333D01*
X112815714Y-15373952D01*
X112768095Y-15421571D01*
X112720476Y-15516809D01*
X112720476Y-15754904D01*
X112768095Y-15850142D01*
X112815714Y-15897761D01*
X112910952Y-15945380D01*
X113196666Y-15945380D01*
X113291904Y-15897761D01*
X113339523Y-15850142D01*
X112387142Y-14945380D02*
X111768095Y-14945380D01*
X112101428Y-15326333D01*
X111958571Y-15326333D01*
X111863333Y-15373952D01*
X111815714Y-15421571D01*
X111768095Y-15516809D01*
X111768095Y-15754904D01*
X111815714Y-15850142D01*
X111863333Y-15897761D01*
X111958571Y-15945380D01*
X112244285Y-15945380D01*
X112339523Y-15897761D01*
X112387142Y-15850142D01*
%TO.C,C31*%
X196984857Y-122659142D02*
X197032476Y-122706761D01*
X197175333Y-122754380D01*
X197270571Y-122754380D01*
X197413428Y-122706761D01*
X197508666Y-122611523D01*
X197556285Y-122516285D01*
X197603904Y-122325809D01*
X197603904Y-122182952D01*
X197556285Y-121992476D01*
X197508666Y-121897238D01*
X197413428Y-121802000D01*
X197270571Y-121754380D01*
X197175333Y-121754380D01*
X197032476Y-121802000D01*
X196984857Y-121849619D01*
X196651523Y-121754380D02*
X196032476Y-121754380D01*
X196365809Y-122135333D01*
X196222952Y-122135333D01*
X196127714Y-122182952D01*
X196080095Y-122230571D01*
X196032476Y-122325809D01*
X196032476Y-122563904D01*
X196080095Y-122659142D01*
X196127714Y-122706761D01*
X196222952Y-122754380D01*
X196508666Y-122754380D01*
X196603904Y-122706761D01*
X196651523Y-122659142D01*
X195080095Y-122754380D02*
X195651523Y-122754380D01*
X195365809Y-122754380D02*
X195365809Y-121754380D01*
X195461047Y-121897238D01*
X195556285Y-121992476D01*
X195651523Y-122040095D01*
%TO.C,C29*%
X127991142Y-128779142D02*
X128038761Y-128731523D01*
X128086380Y-128588666D01*
X128086380Y-128493428D01*
X128038761Y-128350571D01*
X127943523Y-128255333D01*
X127848285Y-128207714D01*
X127657809Y-128160095D01*
X127514952Y-128160095D01*
X127324476Y-128207714D01*
X127229238Y-128255333D01*
X127134000Y-128350571D01*
X127086380Y-128493428D01*
X127086380Y-128588666D01*
X127134000Y-128731523D01*
X127181619Y-128779142D01*
X127181619Y-129160095D02*
X127134000Y-129207714D01*
X127086380Y-129302952D01*
X127086380Y-129541047D01*
X127134000Y-129636285D01*
X127181619Y-129683904D01*
X127276857Y-129731523D01*
X127372095Y-129731523D01*
X127514952Y-129683904D01*
X128086380Y-129112476D01*
X128086380Y-129731523D01*
X128086380Y-130207714D02*
X128086380Y-130398190D01*
X128038761Y-130493428D01*
X127991142Y-130541047D01*
X127848285Y-130636285D01*
X127657809Y-130683904D01*
X127276857Y-130683904D01*
X127181619Y-130636285D01*
X127134000Y-130588666D01*
X127086380Y-130493428D01*
X127086380Y-130302952D01*
X127134000Y-130207714D01*
X127181619Y-130160095D01*
X127276857Y-130112476D01*
X127514952Y-130112476D01*
X127610190Y-130160095D01*
X127657809Y-130207714D01*
X127705428Y-130302952D01*
X127705428Y-130493428D01*
X127657809Y-130588666D01*
X127610190Y-130636285D01*
X127514952Y-130683904D01*
%TO.C,C28*%
X229337142Y-146296142D02*
X229384761Y-146248523D01*
X229432380Y-146105666D01*
X229432380Y-146010428D01*
X229384761Y-145867571D01*
X229289523Y-145772333D01*
X229194285Y-145724714D01*
X229003809Y-145677095D01*
X228860952Y-145677095D01*
X228670476Y-145724714D01*
X228575238Y-145772333D01*
X228480000Y-145867571D01*
X228432380Y-146010428D01*
X228432380Y-146105666D01*
X228480000Y-146248523D01*
X228527619Y-146296142D01*
X228527619Y-146677095D02*
X228480000Y-146724714D01*
X228432380Y-146819952D01*
X228432380Y-147058047D01*
X228480000Y-147153285D01*
X228527619Y-147200904D01*
X228622857Y-147248523D01*
X228718095Y-147248523D01*
X228860952Y-147200904D01*
X229432380Y-146629476D01*
X229432380Y-147248523D01*
X228860952Y-147819952D02*
X228813333Y-147724714D01*
X228765714Y-147677095D01*
X228670476Y-147629476D01*
X228622857Y-147629476D01*
X228527619Y-147677095D01*
X228480000Y-147724714D01*
X228432380Y-147819952D01*
X228432380Y-148010428D01*
X228480000Y-148105666D01*
X228527619Y-148153285D01*
X228622857Y-148200904D01*
X228670476Y-148200904D01*
X228765714Y-148153285D01*
X228813333Y-148105666D01*
X228860952Y-148010428D01*
X228860952Y-147819952D01*
X228908571Y-147724714D01*
X228956190Y-147677095D01*
X229051428Y-147629476D01*
X229241904Y-147629476D01*
X229337142Y-147677095D01*
X229384761Y-147724714D01*
X229432380Y-147819952D01*
X229432380Y-148010428D01*
X229384761Y-148105666D01*
X229337142Y-148153285D01*
X229241904Y-148200904D01*
X229051428Y-148200904D01*
X228956190Y-148153285D01*
X228908571Y-148105666D01*
X228860952Y-148010428D01*
%TO.C,C23*%
X180855857Y-122532142D02*
X180903476Y-122579761D01*
X181046333Y-122627380D01*
X181141571Y-122627380D01*
X181284428Y-122579761D01*
X181379666Y-122484523D01*
X181427285Y-122389285D01*
X181474904Y-122198809D01*
X181474904Y-122055952D01*
X181427285Y-121865476D01*
X181379666Y-121770238D01*
X181284428Y-121675000D01*
X181141571Y-121627380D01*
X181046333Y-121627380D01*
X180903476Y-121675000D01*
X180855857Y-121722619D01*
X180474904Y-121722619D02*
X180427285Y-121675000D01*
X180332047Y-121627380D01*
X180093952Y-121627380D01*
X179998714Y-121675000D01*
X179951095Y-121722619D01*
X179903476Y-121817857D01*
X179903476Y-121913095D01*
X179951095Y-122055952D01*
X180522523Y-122627380D01*
X179903476Y-122627380D01*
X179570142Y-121627380D02*
X178951095Y-121627380D01*
X179284428Y-122008333D01*
X179141571Y-122008333D01*
X179046333Y-122055952D01*
X178998714Y-122103571D01*
X178951095Y-122198809D01*
X178951095Y-122436904D01*
X178998714Y-122532142D01*
X179046333Y-122579761D01*
X179141571Y-122627380D01*
X179427285Y-122627380D01*
X179522523Y-122579761D01*
X179570142Y-122532142D01*
%TO.C,C27*%
X251340857Y-63475142D02*
X251388476Y-63522761D01*
X251531333Y-63570380D01*
X251626571Y-63570380D01*
X251769428Y-63522761D01*
X251864666Y-63427523D01*
X251912285Y-63332285D01*
X251959904Y-63141809D01*
X251959904Y-62998952D01*
X251912285Y-62808476D01*
X251864666Y-62713238D01*
X251769428Y-62618000D01*
X251626571Y-62570380D01*
X251531333Y-62570380D01*
X251388476Y-62618000D01*
X251340857Y-62665619D01*
X250959904Y-62665619D02*
X250912285Y-62618000D01*
X250817047Y-62570380D01*
X250578952Y-62570380D01*
X250483714Y-62618000D01*
X250436095Y-62665619D01*
X250388476Y-62760857D01*
X250388476Y-62856095D01*
X250436095Y-62998952D01*
X251007523Y-63570380D01*
X250388476Y-63570380D01*
X250055142Y-62570380D02*
X249388476Y-62570380D01*
X249817047Y-63570380D01*
%TO.C,C26*%
X223527857Y-46203142D02*
X223575476Y-46250761D01*
X223718333Y-46298380D01*
X223813571Y-46298380D01*
X223956428Y-46250761D01*
X224051666Y-46155523D01*
X224099285Y-46060285D01*
X224146904Y-45869809D01*
X224146904Y-45726952D01*
X224099285Y-45536476D01*
X224051666Y-45441238D01*
X223956428Y-45346000D01*
X223813571Y-45298380D01*
X223718333Y-45298380D01*
X223575476Y-45346000D01*
X223527857Y-45393619D01*
X223146904Y-45393619D02*
X223099285Y-45346000D01*
X223004047Y-45298380D01*
X222765952Y-45298380D01*
X222670714Y-45346000D01*
X222623095Y-45393619D01*
X222575476Y-45488857D01*
X222575476Y-45584095D01*
X222623095Y-45726952D01*
X223194523Y-46298380D01*
X222575476Y-46298380D01*
X221718333Y-45298380D02*
X221908809Y-45298380D01*
X222004047Y-45346000D01*
X222051666Y-45393619D01*
X222146904Y-45536476D01*
X222194523Y-45726952D01*
X222194523Y-46107904D01*
X222146904Y-46203142D01*
X222099285Y-46250761D01*
X222004047Y-46298380D01*
X221813571Y-46298380D01*
X221718333Y-46250761D01*
X221670714Y-46203142D01*
X221623095Y-46107904D01*
X221623095Y-45869809D01*
X221670714Y-45774571D01*
X221718333Y-45726952D01*
X221813571Y-45679333D01*
X222004047Y-45679333D01*
X222099285Y-45726952D01*
X222146904Y-45774571D01*
X222194523Y-45869809D01*
%TO.C,C25*%
X223400857Y-81001142D02*
X223448476Y-81048761D01*
X223591333Y-81096380D01*
X223686571Y-81096380D01*
X223829428Y-81048761D01*
X223924666Y-80953523D01*
X223972285Y-80858285D01*
X224019904Y-80667809D01*
X224019904Y-80524952D01*
X223972285Y-80334476D01*
X223924666Y-80239238D01*
X223829428Y-80144000D01*
X223686571Y-80096380D01*
X223591333Y-80096380D01*
X223448476Y-80144000D01*
X223400857Y-80191619D01*
X223019904Y-80191619D02*
X222972285Y-80144000D01*
X222877047Y-80096380D01*
X222638952Y-80096380D01*
X222543714Y-80144000D01*
X222496095Y-80191619D01*
X222448476Y-80286857D01*
X222448476Y-80382095D01*
X222496095Y-80524952D01*
X223067523Y-81096380D01*
X222448476Y-81096380D01*
X221543714Y-80096380D02*
X222019904Y-80096380D01*
X222067523Y-80572571D01*
X222019904Y-80524952D01*
X221924666Y-80477333D01*
X221686571Y-80477333D01*
X221591333Y-80524952D01*
X221543714Y-80572571D01*
X221496095Y-80667809D01*
X221496095Y-80905904D01*
X221543714Y-81001142D01*
X221591333Y-81048761D01*
X221686571Y-81096380D01*
X221924666Y-81096380D01*
X222019904Y-81048761D01*
X222067523Y-81001142D01*
%TO.C,C24*%
X223400857Y-63856142D02*
X223448476Y-63903761D01*
X223591333Y-63951380D01*
X223686571Y-63951380D01*
X223829428Y-63903761D01*
X223924666Y-63808523D01*
X223972285Y-63713285D01*
X224019904Y-63522809D01*
X224019904Y-63379952D01*
X223972285Y-63189476D01*
X223924666Y-63094238D01*
X223829428Y-62999000D01*
X223686571Y-62951380D01*
X223591333Y-62951380D01*
X223448476Y-62999000D01*
X223400857Y-63046619D01*
X223019904Y-63046619D02*
X222972285Y-62999000D01*
X222877047Y-62951380D01*
X222638952Y-62951380D01*
X222543714Y-62999000D01*
X222496095Y-63046619D01*
X222448476Y-63141857D01*
X222448476Y-63237095D01*
X222496095Y-63379952D01*
X223067523Y-63951380D01*
X222448476Y-63951380D01*
X221591333Y-63284714D02*
X221591333Y-63951380D01*
X221829428Y-62903761D02*
X222067523Y-63618047D01*
X221448476Y-63618047D01*
%TO.C,RN8*%
X147397380Y-98496523D02*
X146921190Y-98163190D01*
X147397380Y-97925095D02*
X146397380Y-97925095D01*
X146397380Y-98306047D01*
X146445000Y-98401285D01*
X146492619Y-98448904D01*
X146587857Y-98496523D01*
X146730714Y-98496523D01*
X146825952Y-98448904D01*
X146873571Y-98401285D01*
X146921190Y-98306047D01*
X146921190Y-97925095D01*
X147397380Y-98925095D02*
X146397380Y-98925095D01*
X147397380Y-99496523D01*
X146397380Y-99496523D01*
X146825952Y-100115571D02*
X146778333Y-100020333D01*
X146730714Y-99972714D01*
X146635476Y-99925095D01*
X146587857Y-99925095D01*
X146492619Y-99972714D01*
X146445000Y-100020333D01*
X146397380Y-100115571D01*
X146397380Y-100306047D01*
X146445000Y-100401285D01*
X146492619Y-100448904D01*
X146587857Y-100496523D01*
X146635476Y-100496523D01*
X146730714Y-100448904D01*
X146778333Y-100401285D01*
X146825952Y-100306047D01*
X146825952Y-100115571D01*
X146873571Y-100020333D01*
X146921190Y-99972714D01*
X147016428Y-99925095D01*
X147206904Y-99925095D01*
X147302142Y-99972714D01*
X147349761Y-100020333D01*
X147397380Y-100115571D01*
X147397380Y-100306047D01*
X147349761Y-100401285D01*
X147302142Y-100448904D01*
X147206904Y-100496523D01*
X147016428Y-100496523D01*
X146921190Y-100448904D01*
X146873571Y-100401285D01*
X146825952Y-100306047D01*
%TO.C,C22*%
X123927142Y-68699142D02*
X123974761Y-68651523D01*
X124022380Y-68508666D01*
X124022380Y-68413428D01*
X123974761Y-68270571D01*
X123879523Y-68175333D01*
X123784285Y-68127714D01*
X123593809Y-68080095D01*
X123450952Y-68080095D01*
X123260476Y-68127714D01*
X123165238Y-68175333D01*
X123070000Y-68270571D01*
X123022380Y-68413428D01*
X123022380Y-68508666D01*
X123070000Y-68651523D01*
X123117619Y-68699142D01*
X123117619Y-69080095D02*
X123070000Y-69127714D01*
X123022380Y-69222952D01*
X123022380Y-69461047D01*
X123070000Y-69556285D01*
X123117619Y-69603904D01*
X123212857Y-69651523D01*
X123308095Y-69651523D01*
X123450952Y-69603904D01*
X124022380Y-69032476D01*
X124022380Y-69651523D01*
X123117619Y-70032476D02*
X123070000Y-70080095D01*
X123022380Y-70175333D01*
X123022380Y-70413428D01*
X123070000Y-70508666D01*
X123117619Y-70556285D01*
X123212857Y-70603904D01*
X123308095Y-70603904D01*
X123450952Y-70556285D01*
X124022380Y-69984857D01*
X124022380Y-70603904D01*
%TO.C,C21*%
X251467857Y-98019142D02*
X251515476Y-98066761D01*
X251658333Y-98114380D01*
X251753571Y-98114380D01*
X251896428Y-98066761D01*
X251991666Y-97971523D01*
X252039285Y-97876285D01*
X252086904Y-97685809D01*
X252086904Y-97542952D01*
X252039285Y-97352476D01*
X251991666Y-97257238D01*
X251896428Y-97162000D01*
X251753571Y-97114380D01*
X251658333Y-97114380D01*
X251515476Y-97162000D01*
X251467857Y-97209619D01*
X251086904Y-97209619D02*
X251039285Y-97162000D01*
X250944047Y-97114380D01*
X250705952Y-97114380D01*
X250610714Y-97162000D01*
X250563095Y-97209619D01*
X250515476Y-97304857D01*
X250515476Y-97400095D01*
X250563095Y-97542952D01*
X251134523Y-98114380D01*
X250515476Y-98114380D01*
X249563095Y-98114380D02*
X250134523Y-98114380D01*
X249848809Y-98114380D02*
X249848809Y-97114380D01*
X249944047Y-97257238D01*
X250039285Y-97352476D01*
X250134523Y-97400095D01*
%TO.C,C20*%
X223400857Y-98273142D02*
X223448476Y-98320761D01*
X223591333Y-98368380D01*
X223686571Y-98368380D01*
X223829428Y-98320761D01*
X223924666Y-98225523D01*
X223972285Y-98130285D01*
X224019904Y-97939809D01*
X224019904Y-97796952D01*
X223972285Y-97606476D01*
X223924666Y-97511238D01*
X223829428Y-97416000D01*
X223686571Y-97368380D01*
X223591333Y-97368380D01*
X223448476Y-97416000D01*
X223400857Y-97463619D01*
X223019904Y-97463619D02*
X222972285Y-97416000D01*
X222877047Y-97368380D01*
X222638952Y-97368380D01*
X222543714Y-97416000D01*
X222496095Y-97463619D01*
X222448476Y-97558857D01*
X222448476Y-97654095D01*
X222496095Y-97796952D01*
X223067523Y-98368380D01*
X222448476Y-98368380D01*
X221829428Y-97368380D02*
X221734190Y-97368380D01*
X221638952Y-97416000D01*
X221591333Y-97463619D01*
X221543714Y-97558857D01*
X221496095Y-97749333D01*
X221496095Y-97987428D01*
X221543714Y-98177904D01*
X221591333Y-98273142D01*
X221638952Y-98320761D01*
X221734190Y-98368380D01*
X221829428Y-98368380D01*
X221924666Y-98320761D01*
X221972285Y-98273142D01*
X222019904Y-98177904D01*
X222067523Y-97987428D01*
X222067523Y-97749333D01*
X222019904Y-97558857D01*
X221972285Y-97463619D01*
X221924666Y-97416000D01*
X221829428Y-97368380D01*
%TO.C,C19*%
X251340857Y-115291142D02*
X251388476Y-115338761D01*
X251531333Y-115386380D01*
X251626571Y-115386380D01*
X251769428Y-115338761D01*
X251864666Y-115243523D01*
X251912285Y-115148285D01*
X251959904Y-114957809D01*
X251959904Y-114814952D01*
X251912285Y-114624476D01*
X251864666Y-114529238D01*
X251769428Y-114434000D01*
X251626571Y-114386380D01*
X251531333Y-114386380D01*
X251388476Y-114434000D01*
X251340857Y-114481619D01*
X250388476Y-115386380D02*
X250959904Y-115386380D01*
X250674190Y-115386380D02*
X250674190Y-114386380D01*
X250769428Y-114529238D01*
X250864666Y-114624476D01*
X250959904Y-114672095D01*
X249912285Y-115386380D02*
X249721809Y-115386380D01*
X249626571Y-115338761D01*
X249578952Y-115291142D01*
X249483714Y-115148285D01*
X249436095Y-114957809D01*
X249436095Y-114576857D01*
X249483714Y-114481619D01*
X249531333Y-114434000D01*
X249626571Y-114386380D01*
X249817047Y-114386380D01*
X249912285Y-114434000D01*
X249959904Y-114481619D01*
X250007523Y-114576857D01*
X250007523Y-114814952D01*
X249959904Y-114910190D01*
X249912285Y-114957809D01*
X249817047Y-115005428D01*
X249626571Y-115005428D01*
X249531333Y-114957809D01*
X249483714Y-114910190D01*
X249436095Y-114814952D01*
%TO.C,C18*%
X223527857Y-115291142D02*
X223575476Y-115338761D01*
X223718333Y-115386380D01*
X223813571Y-115386380D01*
X223956428Y-115338761D01*
X224051666Y-115243523D01*
X224099285Y-115148285D01*
X224146904Y-114957809D01*
X224146904Y-114814952D01*
X224099285Y-114624476D01*
X224051666Y-114529238D01*
X223956428Y-114434000D01*
X223813571Y-114386380D01*
X223718333Y-114386380D01*
X223575476Y-114434000D01*
X223527857Y-114481619D01*
X222575476Y-115386380D02*
X223146904Y-115386380D01*
X222861190Y-115386380D02*
X222861190Y-114386380D01*
X222956428Y-114529238D01*
X223051666Y-114624476D01*
X223146904Y-114672095D01*
X222004047Y-114814952D02*
X222099285Y-114767333D01*
X222146904Y-114719714D01*
X222194523Y-114624476D01*
X222194523Y-114576857D01*
X222146904Y-114481619D01*
X222099285Y-114434000D01*
X222004047Y-114386380D01*
X221813571Y-114386380D01*
X221718333Y-114434000D01*
X221670714Y-114481619D01*
X221623095Y-114576857D01*
X221623095Y-114624476D01*
X221670714Y-114719714D01*
X221718333Y-114767333D01*
X221813571Y-114814952D01*
X222004047Y-114814952D01*
X222099285Y-114862571D01*
X222146904Y-114910190D01*
X222194523Y-115005428D01*
X222194523Y-115195904D01*
X222146904Y-115291142D01*
X222099285Y-115338761D01*
X222004047Y-115386380D01*
X221813571Y-115386380D01*
X221718333Y-115338761D01*
X221670714Y-115291142D01*
X221623095Y-115195904D01*
X221623095Y-115005428D01*
X221670714Y-114910190D01*
X221718333Y-114862571D01*
X221813571Y-114814952D01*
%TO.C,C17*%
X251340857Y-132436142D02*
X251388476Y-132483761D01*
X251531333Y-132531380D01*
X251626571Y-132531380D01*
X251769428Y-132483761D01*
X251864666Y-132388523D01*
X251912285Y-132293285D01*
X251959904Y-132102809D01*
X251959904Y-131959952D01*
X251912285Y-131769476D01*
X251864666Y-131674238D01*
X251769428Y-131579000D01*
X251626571Y-131531380D01*
X251531333Y-131531380D01*
X251388476Y-131579000D01*
X251340857Y-131626619D01*
X250388476Y-132531380D02*
X250959904Y-132531380D01*
X250674190Y-132531380D02*
X250674190Y-131531380D01*
X250769428Y-131674238D01*
X250864666Y-131769476D01*
X250959904Y-131817095D01*
X250055142Y-131531380D02*
X249388476Y-131531380D01*
X249817047Y-132531380D01*
%TO.C,C16*%
X223391857Y-132944142D02*
X223439476Y-132991761D01*
X223582333Y-133039380D01*
X223677571Y-133039380D01*
X223820428Y-132991761D01*
X223915666Y-132896523D01*
X223963285Y-132801285D01*
X224010904Y-132610809D01*
X224010904Y-132467952D01*
X223963285Y-132277476D01*
X223915666Y-132182238D01*
X223820428Y-132087000D01*
X223677571Y-132039380D01*
X223582333Y-132039380D01*
X223439476Y-132087000D01*
X223391857Y-132134619D01*
X222439476Y-133039380D02*
X223010904Y-133039380D01*
X222725190Y-133039380D02*
X222725190Y-132039380D01*
X222820428Y-132182238D01*
X222915666Y-132277476D01*
X223010904Y-132325095D01*
X221582333Y-132039380D02*
X221772809Y-132039380D01*
X221868047Y-132087000D01*
X221915666Y-132134619D01*
X222010904Y-132277476D01*
X222058523Y-132467952D01*
X222058523Y-132848904D01*
X222010904Y-132944142D01*
X221963285Y-132991761D01*
X221868047Y-133039380D01*
X221677571Y-133039380D01*
X221582333Y-132991761D01*
X221534714Y-132944142D01*
X221487095Y-132848904D01*
X221487095Y-132610809D01*
X221534714Y-132515571D01*
X221582333Y-132467952D01*
X221677571Y-132420333D01*
X221868047Y-132420333D01*
X221963285Y-132467952D01*
X222010904Y-132515571D01*
X222058523Y-132610809D01*
%TO.C,C15*%
X251340857Y-80747142D02*
X251388476Y-80794761D01*
X251531333Y-80842380D01*
X251626571Y-80842380D01*
X251769428Y-80794761D01*
X251864666Y-80699523D01*
X251912285Y-80604285D01*
X251959904Y-80413809D01*
X251959904Y-80270952D01*
X251912285Y-80080476D01*
X251864666Y-79985238D01*
X251769428Y-79890000D01*
X251626571Y-79842380D01*
X251531333Y-79842380D01*
X251388476Y-79890000D01*
X251340857Y-79937619D01*
X250388476Y-80842380D02*
X250959904Y-80842380D01*
X250674190Y-80842380D02*
X250674190Y-79842380D01*
X250769428Y-79985238D01*
X250864666Y-80080476D01*
X250959904Y-80128095D01*
X249483714Y-79842380D02*
X249959904Y-79842380D01*
X250007523Y-80318571D01*
X249959904Y-80270952D01*
X249864666Y-80223333D01*
X249626571Y-80223333D01*
X249531333Y-80270952D01*
X249483714Y-80318571D01*
X249436095Y-80413809D01*
X249436095Y-80651904D01*
X249483714Y-80747142D01*
X249531333Y-80794761D01*
X249626571Y-80842380D01*
X249864666Y-80842380D01*
X249959904Y-80794761D01*
X250007523Y-80747142D01*
%TO.C,C14*%
X251721857Y-46457142D02*
X251769476Y-46504761D01*
X251912333Y-46552380D01*
X252007571Y-46552380D01*
X252150428Y-46504761D01*
X252245666Y-46409523D01*
X252293285Y-46314285D01*
X252340904Y-46123809D01*
X252340904Y-45980952D01*
X252293285Y-45790476D01*
X252245666Y-45695238D01*
X252150428Y-45600000D01*
X252007571Y-45552380D01*
X251912333Y-45552380D01*
X251769476Y-45600000D01*
X251721857Y-45647619D01*
X250769476Y-46552380D02*
X251340904Y-46552380D01*
X251055190Y-46552380D02*
X251055190Y-45552380D01*
X251150428Y-45695238D01*
X251245666Y-45790476D01*
X251340904Y-45838095D01*
X249912333Y-45885714D02*
X249912333Y-46552380D01*
X250150428Y-45504761D02*
X250388523Y-46219047D01*
X249769476Y-46219047D01*
%TO.C,C10*%
X160907857Y-61570142D02*
X160955476Y-61617761D01*
X161098333Y-61665380D01*
X161193571Y-61665380D01*
X161336428Y-61617761D01*
X161431666Y-61522523D01*
X161479285Y-61427285D01*
X161526904Y-61236809D01*
X161526904Y-61093952D01*
X161479285Y-60903476D01*
X161431666Y-60808238D01*
X161336428Y-60713000D01*
X161193571Y-60665380D01*
X161098333Y-60665380D01*
X160955476Y-60713000D01*
X160907857Y-60760619D01*
X159955476Y-61665380D02*
X160526904Y-61665380D01*
X160241190Y-61665380D02*
X160241190Y-60665380D01*
X160336428Y-60808238D01*
X160431666Y-60903476D01*
X160526904Y-60951095D01*
X159336428Y-60665380D02*
X159241190Y-60665380D01*
X159145952Y-60713000D01*
X159098333Y-60760619D01*
X159050714Y-60855857D01*
X159003095Y-61046333D01*
X159003095Y-61284428D01*
X159050714Y-61474904D01*
X159098333Y-61570142D01*
X159145952Y-61617761D01*
X159241190Y-61665380D01*
X159336428Y-61665380D01*
X159431666Y-61617761D01*
X159479285Y-61570142D01*
X159526904Y-61474904D01*
X159574523Y-61284428D01*
X159574523Y-61046333D01*
X159526904Y-60855857D01*
X159479285Y-60760619D01*
X159431666Y-60713000D01*
X159336428Y-60665380D01*
%TO.C,C9*%
X151869142Y-42115333D02*
X151916761Y-42067714D01*
X151964380Y-41924857D01*
X151964380Y-41829619D01*
X151916761Y-41686761D01*
X151821523Y-41591523D01*
X151726285Y-41543904D01*
X151535809Y-41496285D01*
X151392952Y-41496285D01*
X151202476Y-41543904D01*
X151107238Y-41591523D01*
X151012000Y-41686761D01*
X150964380Y-41829619D01*
X150964380Y-41924857D01*
X151012000Y-42067714D01*
X151059619Y-42115333D01*
X151964380Y-42591523D02*
X151964380Y-42782000D01*
X151916761Y-42877238D01*
X151869142Y-42924857D01*
X151726285Y-43020095D01*
X151535809Y-43067714D01*
X151154857Y-43067714D01*
X151059619Y-43020095D01*
X151012000Y-42972476D01*
X150964380Y-42877238D01*
X150964380Y-42686761D01*
X151012000Y-42591523D01*
X151059619Y-42543904D01*
X151154857Y-42496285D01*
X151392952Y-42496285D01*
X151488190Y-42543904D01*
X151535809Y-42591523D01*
X151583428Y-42686761D01*
X151583428Y-42877238D01*
X151535809Y-42972476D01*
X151488190Y-43020095D01*
X151392952Y-43067714D01*
%TO.C,C8*%
X170083666Y-43536142D02*
X170131285Y-43583761D01*
X170274142Y-43631380D01*
X170369380Y-43631380D01*
X170512238Y-43583761D01*
X170607476Y-43488523D01*
X170655095Y-43393285D01*
X170702714Y-43202809D01*
X170702714Y-43059952D01*
X170655095Y-42869476D01*
X170607476Y-42774238D01*
X170512238Y-42679000D01*
X170369380Y-42631380D01*
X170274142Y-42631380D01*
X170131285Y-42679000D01*
X170083666Y-42726619D01*
X169512238Y-43059952D02*
X169607476Y-43012333D01*
X169655095Y-42964714D01*
X169702714Y-42869476D01*
X169702714Y-42821857D01*
X169655095Y-42726619D01*
X169607476Y-42679000D01*
X169512238Y-42631380D01*
X169321761Y-42631380D01*
X169226523Y-42679000D01*
X169178904Y-42726619D01*
X169131285Y-42821857D01*
X169131285Y-42869476D01*
X169178904Y-42964714D01*
X169226523Y-43012333D01*
X169321761Y-43059952D01*
X169512238Y-43059952D01*
X169607476Y-43107571D01*
X169655095Y-43155190D01*
X169702714Y-43250428D01*
X169702714Y-43440904D01*
X169655095Y-43536142D01*
X169607476Y-43583761D01*
X169512238Y-43631380D01*
X169321761Y-43631380D01*
X169226523Y-43583761D01*
X169178904Y-43536142D01*
X169131285Y-43440904D01*
X169131285Y-43250428D01*
X169178904Y-43155190D01*
X169226523Y-43107571D01*
X169321761Y-43059952D01*
%TO.C,C7*%
X173584142Y-51903333D02*
X173631761Y-51855714D01*
X173679380Y-51712857D01*
X173679380Y-51617619D01*
X173631761Y-51474761D01*
X173536523Y-51379523D01*
X173441285Y-51331904D01*
X173250809Y-51284285D01*
X173107952Y-51284285D01*
X172917476Y-51331904D01*
X172822238Y-51379523D01*
X172727000Y-51474761D01*
X172679380Y-51617619D01*
X172679380Y-51712857D01*
X172727000Y-51855714D01*
X172774619Y-51903333D01*
X172679380Y-52236666D02*
X172679380Y-52903333D01*
X173679380Y-52474761D01*
%TO.C,C6*%
X162971666Y-43536142D02*
X163019285Y-43583761D01*
X163162142Y-43631380D01*
X163257380Y-43631380D01*
X163400238Y-43583761D01*
X163495476Y-43488523D01*
X163543095Y-43393285D01*
X163590714Y-43202809D01*
X163590714Y-43059952D01*
X163543095Y-42869476D01*
X163495476Y-42774238D01*
X163400238Y-42679000D01*
X163257380Y-42631380D01*
X163162142Y-42631380D01*
X163019285Y-42679000D01*
X162971666Y-42726619D01*
X162114523Y-42631380D02*
X162305000Y-42631380D01*
X162400238Y-42679000D01*
X162447857Y-42726619D01*
X162543095Y-42869476D01*
X162590714Y-43059952D01*
X162590714Y-43440904D01*
X162543095Y-43536142D01*
X162495476Y-43583761D01*
X162400238Y-43631380D01*
X162209761Y-43631380D01*
X162114523Y-43583761D01*
X162066904Y-43536142D01*
X162019285Y-43440904D01*
X162019285Y-43202809D01*
X162066904Y-43107571D01*
X162114523Y-43059952D01*
X162209761Y-43012333D01*
X162400238Y-43012333D01*
X162495476Y-43059952D01*
X162543095Y-43107571D01*
X162590714Y-43202809D01*
%TO.C,C5*%
X151869142Y-57609333D02*
X151916761Y-57561714D01*
X151964380Y-57418857D01*
X151964380Y-57323619D01*
X151916761Y-57180761D01*
X151821523Y-57085523D01*
X151726285Y-57037904D01*
X151535809Y-56990285D01*
X151392952Y-56990285D01*
X151202476Y-57037904D01*
X151107238Y-57085523D01*
X151012000Y-57180761D01*
X150964380Y-57323619D01*
X150964380Y-57418857D01*
X151012000Y-57561714D01*
X151059619Y-57609333D01*
X150964380Y-58514095D02*
X150964380Y-58037904D01*
X151440571Y-57990285D01*
X151392952Y-58037904D01*
X151345333Y-58133142D01*
X151345333Y-58371238D01*
X151392952Y-58466476D01*
X151440571Y-58514095D01*
X151535809Y-58561714D01*
X151773904Y-58561714D01*
X151869142Y-58514095D01*
X151916761Y-58466476D01*
X151964380Y-58371238D01*
X151964380Y-58133142D01*
X151916761Y-58037904D01*
X151869142Y-57990285D01*
%TO.C,C4*%
X167180666Y-61697142D02*
X167228285Y-61744761D01*
X167371142Y-61792380D01*
X167466380Y-61792380D01*
X167609238Y-61744761D01*
X167704476Y-61649523D01*
X167752095Y-61554285D01*
X167799714Y-61363809D01*
X167799714Y-61220952D01*
X167752095Y-61030476D01*
X167704476Y-60935238D01*
X167609238Y-60840000D01*
X167466380Y-60792380D01*
X167371142Y-60792380D01*
X167228285Y-60840000D01*
X167180666Y-60887619D01*
X166323523Y-61125714D02*
X166323523Y-61792380D01*
X166561619Y-60744761D02*
X166799714Y-61459047D01*
X166180666Y-61459047D01*
%TO.C,C3*%
X208638142Y-18883333D02*
X208685761Y-18835714D01*
X208733380Y-18692857D01*
X208733380Y-18597619D01*
X208685761Y-18454761D01*
X208590523Y-18359523D01*
X208495285Y-18311904D01*
X208304809Y-18264285D01*
X208161952Y-18264285D01*
X207971476Y-18311904D01*
X207876238Y-18359523D01*
X207781000Y-18454761D01*
X207733380Y-18597619D01*
X207733380Y-18692857D01*
X207781000Y-18835714D01*
X207828619Y-18883333D01*
X207733380Y-19216666D02*
X207733380Y-19835714D01*
X208114333Y-19502380D01*
X208114333Y-19645238D01*
X208161952Y-19740476D01*
X208209571Y-19788095D01*
X208304809Y-19835714D01*
X208542904Y-19835714D01*
X208638142Y-19788095D01*
X208685761Y-19740476D01*
X208733380Y-19645238D01*
X208733380Y-19359523D01*
X208685761Y-19264285D01*
X208638142Y-19216666D01*
%TO.C,C2*%
X151423666Y-101829142D02*
X151471285Y-101876761D01*
X151614142Y-101924380D01*
X151709380Y-101924380D01*
X151852238Y-101876761D01*
X151947476Y-101781523D01*
X151995095Y-101686285D01*
X152042714Y-101495809D01*
X152042714Y-101352952D01*
X151995095Y-101162476D01*
X151947476Y-101067238D01*
X151852238Y-100972000D01*
X151709380Y-100924380D01*
X151614142Y-100924380D01*
X151471285Y-100972000D01*
X151423666Y-101019619D01*
X151042714Y-101019619D02*
X150995095Y-100972000D01*
X150899857Y-100924380D01*
X150661761Y-100924380D01*
X150566523Y-100972000D01*
X150518904Y-101019619D01*
X150471285Y-101114857D01*
X150471285Y-101210095D01*
X150518904Y-101352952D01*
X151090333Y-101924380D01*
X150471285Y-101924380D01*
%TO.C,C1*%
X148747666Y-83924142D02*
X148795285Y-83971761D01*
X148938142Y-84019380D01*
X149033380Y-84019380D01*
X149176238Y-83971761D01*
X149271476Y-83876523D01*
X149319095Y-83781285D01*
X149366714Y-83590809D01*
X149366714Y-83447952D01*
X149319095Y-83257476D01*
X149271476Y-83162238D01*
X149176238Y-83067000D01*
X149033380Y-83019380D01*
X148938142Y-83019380D01*
X148795285Y-83067000D01*
X148747666Y-83114619D01*
X147795285Y-84019380D02*
X148366714Y-84019380D01*
X148081000Y-84019380D02*
X148081000Y-83019380D01*
X148176238Y-83162238D01*
X148271476Y-83257476D01*
X148366714Y-83305095D01*
%TO.C,RN1*%
X171388380Y-98877523D02*
X170912190Y-98544190D01*
X171388380Y-98306095D02*
X170388380Y-98306095D01*
X170388380Y-98687047D01*
X170436000Y-98782285D01*
X170483619Y-98829904D01*
X170578857Y-98877523D01*
X170721714Y-98877523D01*
X170816952Y-98829904D01*
X170864571Y-98782285D01*
X170912190Y-98687047D01*
X170912190Y-98306095D01*
X171388380Y-99306095D02*
X170388380Y-99306095D01*
X171388380Y-99877523D01*
X170388380Y-99877523D01*
X171388380Y-100877523D02*
X171388380Y-100306095D01*
X171388380Y-100591809D02*
X170388380Y-100591809D01*
X170531238Y-100496571D01*
X170626476Y-100401333D01*
X170674095Y-100306095D01*
%TO.C,RN2*%
X168098380Y-98877523D02*
X167622190Y-98544190D01*
X168098380Y-98306095D02*
X167098380Y-98306095D01*
X167098380Y-98687047D01*
X167146000Y-98782285D01*
X167193619Y-98829904D01*
X167288857Y-98877523D01*
X167431714Y-98877523D01*
X167526952Y-98829904D01*
X167574571Y-98782285D01*
X167622190Y-98687047D01*
X167622190Y-98306095D01*
X168098380Y-99306095D02*
X167098380Y-99306095D01*
X168098380Y-99877523D01*
X167098380Y-99877523D01*
X167193619Y-100306095D02*
X167146000Y-100353714D01*
X167098380Y-100448952D01*
X167098380Y-100687047D01*
X167146000Y-100782285D01*
X167193619Y-100829904D01*
X167288857Y-100877523D01*
X167384095Y-100877523D01*
X167526952Y-100829904D01*
X168098380Y-100258476D01*
X168098380Y-100877523D01*
%TO.C,RN3*%
X129849476Y-38673380D02*
X130182809Y-38197190D01*
X130420904Y-38673380D02*
X130420904Y-37673380D01*
X130039952Y-37673380D01*
X129944714Y-37721000D01*
X129897095Y-37768619D01*
X129849476Y-37863857D01*
X129849476Y-38006714D01*
X129897095Y-38101952D01*
X129944714Y-38149571D01*
X130039952Y-38197190D01*
X130420904Y-38197190D01*
X129420904Y-38673380D02*
X129420904Y-37673380D01*
X128849476Y-38673380D01*
X128849476Y-37673380D01*
X128468523Y-37673380D02*
X127849476Y-37673380D01*
X128182809Y-38054333D01*
X128039952Y-38054333D01*
X127944714Y-38101952D01*
X127897095Y-38149571D01*
X127849476Y-38244809D01*
X127849476Y-38482904D01*
X127897095Y-38578142D01*
X127944714Y-38625761D01*
X128039952Y-38673380D01*
X128325666Y-38673380D01*
X128420904Y-38625761D01*
X128468523Y-38578142D01*
%TD*%
M02*
