%TF.GenerationSoftware,KiCad,Pcbnew,5.1.6-c6e7f7d~86~ubuntu18.04.1*%
%TF.CreationDate,2021-01-31T21:38:44+08:00*%
%TF.ProjectId,68k_dev,36386b5f-6465-4762-9e6b-696361645f70,rev?*%
%TF.SameCoordinates,Original*%
%TF.FileFunction,Soldermask,Top*%
%TF.FilePolarity,Negative*%
%FSLAX46Y46*%
G04 Gerber Fmt 4.6, Leading zero omitted, Abs format (unit mm)*
G04 Created by KiCad (PCBNEW 5.1.6-c6e7f7d~86~ubuntu18.04.1) date 2021-01-31 21:38:44*
%MOMM*%
%LPD*%
G01*
G04 APERTURE LIST*
%TA.AperFunction,Profile*%
%ADD10C,0.050000*%
%TD*%
%ADD11O,1.700000X2.500000*%
%ADD12R,1.700000X2.500000*%
%ADD13C,2.300000*%
%ADD14R,2.300000X2.300000*%
%ADD15C,2.200000*%
%ADD16R,1.880000X7.720000*%
%ADD17R,3.600000X3.600000*%
%ADD18C,1.500000*%
%ADD19R,0.600000X0.900000*%
%ADD20R,0.500000X0.900000*%
%ADD21R,0.900000X0.600000*%
%ADD22R,0.900000X0.500000*%
%ADD23R,2.100000X1.600000*%
%ADD24R,2.100000X3.900000*%
%ADD25R,1.700000X1.700000*%
%ADD26O,1.700000X1.700000*%
%ADD27R,2.600000X2.600000*%
%ADD28C,2.600000*%
%ADD29R,1.600000X1.150000*%
%ADD30C,1.522400*%
%ADD31R,1.522400X1.522400*%
%ADD32R,1.800000X1.800000*%
%ADD33O,1.800000X1.800000*%
G04 APERTURE END LIST*
D10*
X34163000Y-159512000D02*
X16383000Y-159512000D01*
X34163000Y-168402000D02*
X34163000Y-159512000D01*
X82423000Y-168402000D02*
X34163000Y-168402000D01*
X82423000Y-160782000D02*
X82423000Y-168402000D01*
X87503000Y-160782000D02*
X82423000Y-160782000D01*
X87503000Y-168402000D02*
X87503000Y-160782000D01*
X168783000Y-168402000D02*
X87503000Y-168402000D01*
X168783000Y-159512000D02*
X168783000Y-168402000D01*
X170053000Y-159512000D02*
X168783000Y-159512000D01*
X16383000Y-13000000D02*
X16383000Y-159512000D01*
X203073000Y-13000000D02*
X16383000Y-13000000D01*
X203073000Y-159512000D02*
X203073000Y-13000000D01*
X170053000Y-159512000D02*
X203073000Y-159512000D01*
D11*
%TO.C,U1*%
X48260000Y-99314000D03*
X127000000Y-122174000D03*
X50800000Y-99314000D03*
X124460000Y-122174000D03*
X53340000Y-99314000D03*
X121920000Y-122174000D03*
X55880000Y-99314000D03*
X119380000Y-122174000D03*
X58420000Y-99314000D03*
X116840000Y-122174000D03*
X60960000Y-99314000D03*
X114300000Y-122174000D03*
X63500000Y-99314000D03*
X111760000Y-122174000D03*
X66040000Y-99314000D03*
X109220000Y-122174000D03*
X68580000Y-99314000D03*
X106680000Y-122174000D03*
X71120000Y-99314000D03*
X104140000Y-122174000D03*
X73660000Y-99314000D03*
X101600000Y-122174000D03*
X76200000Y-99314000D03*
X99060000Y-122174000D03*
X78740000Y-99314000D03*
X96520000Y-122174000D03*
X81280000Y-99314000D03*
X93980000Y-122174000D03*
X83820000Y-99314000D03*
X91440000Y-122174000D03*
X86360000Y-99314000D03*
X88900000Y-122174000D03*
X88900000Y-99314000D03*
X86360000Y-122174000D03*
X91440000Y-99314000D03*
X83820000Y-122174000D03*
X93980000Y-99314000D03*
X81280000Y-122174000D03*
X96520000Y-99314000D03*
X78740000Y-122174000D03*
X99060000Y-99314000D03*
X76200000Y-122174000D03*
X101600000Y-99314000D03*
X73660000Y-122174000D03*
X104140000Y-99314000D03*
X71120000Y-122174000D03*
X106680000Y-99314000D03*
X68580000Y-122174000D03*
X109220000Y-99314000D03*
X66040000Y-122174000D03*
X111760000Y-99314000D03*
X63500000Y-122174000D03*
X114300000Y-99314000D03*
X60960000Y-122174000D03*
X116840000Y-99314000D03*
X58420000Y-122174000D03*
X119380000Y-99314000D03*
X55880000Y-122174000D03*
X121920000Y-99314000D03*
X53340000Y-122174000D03*
X124460000Y-99314000D03*
X50800000Y-122174000D03*
X127000000Y-99314000D03*
D12*
X48260000Y-122174000D03*
%TD*%
%TO.C,U18*%
G36*
G01*
X164123000Y-76339000D02*
X164473000Y-76339000D01*
G75*
G02*
X164648000Y-76514000I0J-175000D01*
G01*
X164648000Y-78814000D01*
G75*
G02*
X164473000Y-78989000I-175000J0D01*
G01*
X164123000Y-78989000D01*
G75*
G02*
X163948000Y-78814000I0J175000D01*
G01*
X163948000Y-76514000D01*
G75*
G02*
X164123000Y-76339000I175000J0D01*
G01*
G37*
G36*
G01*
X162853000Y-76339000D02*
X163203000Y-76339000D01*
G75*
G02*
X163378000Y-76514000I0J-175000D01*
G01*
X163378000Y-78814000D01*
G75*
G02*
X163203000Y-78989000I-175000J0D01*
G01*
X162853000Y-78989000D01*
G75*
G02*
X162678000Y-78814000I0J175000D01*
G01*
X162678000Y-76514000D01*
G75*
G02*
X162853000Y-76339000I175000J0D01*
G01*
G37*
G36*
G01*
X161583000Y-76339000D02*
X161933000Y-76339000D01*
G75*
G02*
X162108000Y-76514000I0J-175000D01*
G01*
X162108000Y-78814000D01*
G75*
G02*
X161933000Y-78989000I-175000J0D01*
G01*
X161583000Y-78989000D01*
G75*
G02*
X161408000Y-78814000I0J175000D01*
G01*
X161408000Y-76514000D01*
G75*
G02*
X161583000Y-76339000I175000J0D01*
G01*
G37*
G36*
G01*
X160313000Y-76339000D02*
X160663000Y-76339000D01*
G75*
G02*
X160838000Y-76514000I0J-175000D01*
G01*
X160838000Y-78814000D01*
G75*
G02*
X160663000Y-78989000I-175000J0D01*
G01*
X160313000Y-78989000D01*
G75*
G02*
X160138000Y-78814000I0J175000D01*
G01*
X160138000Y-76514000D01*
G75*
G02*
X160313000Y-76339000I175000J0D01*
G01*
G37*
G36*
G01*
X159043000Y-76339000D02*
X159393000Y-76339000D01*
G75*
G02*
X159568000Y-76514000I0J-175000D01*
G01*
X159568000Y-78814000D01*
G75*
G02*
X159393000Y-78989000I-175000J0D01*
G01*
X159043000Y-78989000D01*
G75*
G02*
X158868000Y-78814000I0J175000D01*
G01*
X158868000Y-76514000D01*
G75*
G02*
X159043000Y-76339000I175000J0D01*
G01*
G37*
G36*
G01*
X157773000Y-76339000D02*
X158123000Y-76339000D01*
G75*
G02*
X158298000Y-76514000I0J-175000D01*
G01*
X158298000Y-78814000D01*
G75*
G02*
X158123000Y-78989000I-175000J0D01*
G01*
X157773000Y-78989000D01*
G75*
G02*
X157598000Y-78814000I0J175000D01*
G01*
X157598000Y-76514000D01*
G75*
G02*
X157773000Y-76339000I175000J0D01*
G01*
G37*
G36*
G01*
X156503000Y-76339000D02*
X156853000Y-76339000D01*
G75*
G02*
X157028000Y-76514000I0J-175000D01*
G01*
X157028000Y-78814000D01*
G75*
G02*
X156853000Y-78989000I-175000J0D01*
G01*
X156503000Y-78989000D01*
G75*
G02*
X156328000Y-78814000I0J175000D01*
G01*
X156328000Y-76514000D01*
G75*
G02*
X156503000Y-76339000I175000J0D01*
G01*
G37*
G36*
G01*
X155233000Y-76339000D02*
X155583000Y-76339000D01*
G75*
G02*
X155758000Y-76514000I0J-175000D01*
G01*
X155758000Y-78814000D01*
G75*
G02*
X155583000Y-78989000I-175000J0D01*
G01*
X155233000Y-78989000D01*
G75*
G02*
X155058000Y-78814000I0J175000D01*
G01*
X155058000Y-76514000D01*
G75*
G02*
X155233000Y-76339000I175000J0D01*
G01*
G37*
G36*
G01*
X153963000Y-76339000D02*
X154313000Y-76339000D01*
G75*
G02*
X154488000Y-76514000I0J-175000D01*
G01*
X154488000Y-78814000D01*
G75*
G02*
X154313000Y-78989000I-175000J0D01*
G01*
X153963000Y-78989000D01*
G75*
G02*
X153788000Y-78814000I0J175000D01*
G01*
X153788000Y-76514000D01*
G75*
G02*
X153963000Y-76339000I175000J0D01*
G01*
G37*
G36*
G01*
X152693000Y-76339000D02*
X153043000Y-76339000D01*
G75*
G02*
X153218000Y-76514000I0J-175000D01*
G01*
X153218000Y-78814000D01*
G75*
G02*
X153043000Y-78989000I-175000J0D01*
G01*
X152693000Y-78989000D01*
G75*
G02*
X152518000Y-78814000I0J175000D01*
G01*
X152518000Y-76514000D01*
G75*
G02*
X152693000Y-76339000I175000J0D01*
G01*
G37*
G36*
G01*
X151423000Y-76339000D02*
X151773000Y-76339000D01*
G75*
G02*
X151948000Y-76514000I0J-175000D01*
G01*
X151948000Y-78814000D01*
G75*
G02*
X151773000Y-78989000I-175000J0D01*
G01*
X151423000Y-78989000D01*
G75*
G02*
X151248000Y-78814000I0J175000D01*
G01*
X151248000Y-76514000D01*
G75*
G02*
X151423000Y-76339000I175000J0D01*
G01*
G37*
G36*
G01*
X150153000Y-76339000D02*
X150503000Y-76339000D01*
G75*
G02*
X150678000Y-76514000I0J-175000D01*
G01*
X150678000Y-78814000D01*
G75*
G02*
X150503000Y-78989000I-175000J0D01*
G01*
X150153000Y-78989000D01*
G75*
G02*
X149978000Y-78814000I0J175000D01*
G01*
X149978000Y-76514000D01*
G75*
G02*
X150153000Y-76339000I175000J0D01*
G01*
G37*
G36*
G01*
X148883000Y-76339000D02*
X149233000Y-76339000D01*
G75*
G02*
X149408000Y-76514000I0J-175000D01*
G01*
X149408000Y-78814000D01*
G75*
G02*
X149233000Y-78989000I-175000J0D01*
G01*
X148883000Y-78989000D01*
G75*
G02*
X148708000Y-78814000I0J175000D01*
G01*
X148708000Y-76514000D01*
G75*
G02*
X148883000Y-76339000I175000J0D01*
G01*
G37*
G36*
G01*
X147613000Y-76339000D02*
X147963000Y-76339000D01*
G75*
G02*
X148138000Y-76514000I0J-175000D01*
G01*
X148138000Y-78814000D01*
G75*
G02*
X147963000Y-78989000I-175000J0D01*
G01*
X147613000Y-78989000D01*
G75*
G02*
X147438000Y-78814000I0J175000D01*
G01*
X147438000Y-76514000D01*
G75*
G02*
X147613000Y-76339000I175000J0D01*
G01*
G37*
G36*
G01*
X146343000Y-76339000D02*
X146693000Y-76339000D01*
G75*
G02*
X146868000Y-76514000I0J-175000D01*
G01*
X146868000Y-78814000D01*
G75*
G02*
X146693000Y-78989000I-175000J0D01*
G01*
X146343000Y-78989000D01*
G75*
G02*
X146168000Y-78814000I0J175000D01*
G01*
X146168000Y-76514000D01*
G75*
G02*
X146343000Y-76339000I175000J0D01*
G01*
G37*
G36*
G01*
X145073000Y-76339000D02*
X145423000Y-76339000D01*
G75*
G02*
X145598000Y-76514000I0J-175000D01*
G01*
X145598000Y-78814000D01*
G75*
G02*
X145423000Y-78989000I-175000J0D01*
G01*
X145073000Y-78989000D01*
G75*
G02*
X144898000Y-78814000I0J175000D01*
G01*
X144898000Y-76514000D01*
G75*
G02*
X145073000Y-76339000I175000J0D01*
G01*
G37*
G36*
G01*
X143803000Y-76339000D02*
X144153000Y-76339000D01*
G75*
G02*
X144328000Y-76514000I0J-175000D01*
G01*
X144328000Y-78814000D01*
G75*
G02*
X144153000Y-78989000I-175000J0D01*
G01*
X143803000Y-78989000D01*
G75*
G02*
X143628000Y-78814000I0J175000D01*
G01*
X143628000Y-76514000D01*
G75*
G02*
X143803000Y-76339000I175000J0D01*
G01*
G37*
G36*
G01*
X142533000Y-76339000D02*
X142883000Y-76339000D01*
G75*
G02*
X143058000Y-76514000I0J-175000D01*
G01*
X143058000Y-78814000D01*
G75*
G02*
X142883000Y-78989000I-175000J0D01*
G01*
X142533000Y-78989000D01*
G75*
G02*
X142358000Y-78814000I0J175000D01*
G01*
X142358000Y-76514000D01*
G75*
G02*
X142533000Y-76339000I175000J0D01*
G01*
G37*
G36*
G01*
X142533000Y-66139000D02*
X142883000Y-66139000D01*
G75*
G02*
X143058000Y-66314000I0J-175000D01*
G01*
X143058000Y-68614000D01*
G75*
G02*
X142883000Y-68789000I-175000J0D01*
G01*
X142533000Y-68789000D01*
G75*
G02*
X142358000Y-68614000I0J175000D01*
G01*
X142358000Y-66314000D01*
G75*
G02*
X142533000Y-66139000I175000J0D01*
G01*
G37*
G36*
G01*
X143803000Y-66139000D02*
X144153000Y-66139000D01*
G75*
G02*
X144328000Y-66314000I0J-175000D01*
G01*
X144328000Y-68614000D01*
G75*
G02*
X144153000Y-68789000I-175000J0D01*
G01*
X143803000Y-68789000D01*
G75*
G02*
X143628000Y-68614000I0J175000D01*
G01*
X143628000Y-66314000D01*
G75*
G02*
X143803000Y-66139000I175000J0D01*
G01*
G37*
G36*
G01*
X145073000Y-66139000D02*
X145423000Y-66139000D01*
G75*
G02*
X145598000Y-66314000I0J-175000D01*
G01*
X145598000Y-68614000D01*
G75*
G02*
X145423000Y-68789000I-175000J0D01*
G01*
X145073000Y-68789000D01*
G75*
G02*
X144898000Y-68614000I0J175000D01*
G01*
X144898000Y-66314000D01*
G75*
G02*
X145073000Y-66139000I175000J0D01*
G01*
G37*
G36*
G01*
X146343000Y-66139000D02*
X146693000Y-66139000D01*
G75*
G02*
X146868000Y-66314000I0J-175000D01*
G01*
X146868000Y-68614000D01*
G75*
G02*
X146693000Y-68789000I-175000J0D01*
G01*
X146343000Y-68789000D01*
G75*
G02*
X146168000Y-68614000I0J175000D01*
G01*
X146168000Y-66314000D01*
G75*
G02*
X146343000Y-66139000I175000J0D01*
G01*
G37*
G36*
G01*
X147613000Y-66139000D02*
X147963000Y-66139000D01*
G75*
G02*
X148138000Y-66314000I0J-175000D01*
G01*
X148138000Y-68614000D01*
G75*
G02*
X147963000Y-68789000I-175000J0D01*
G01*
X147613000Y-68789000D01*
G75*
G02*
X147438000Y-68614000I0J175000D01*
G01*
X147438000Y-66314000D01*
G75*
G02*
X147613000Y-66139000I175000J0D01*
G01*
G37*
G36*
G01*
X148883000Y-66139000D02*
X149233000Y-66139000D01*
G75*
G02*
X149408000Y-66314000I0J-175000D01*
G01*
X149408000Y-68614000D01*
G75*
G02*
X149233000Y-68789000I-175000J0D01*
G01*
X148883000Y-68789000D01*
G75*
G02*
X148708000Y-68614000I0J175000D01*
G01*
X148708000Y-66314000D01*
G75*
G02*
X148883000Y-66139000I175000J0D01*
G01*
G37*
G36*
G01*
X150153000Y-66139000D02*
X150503000Y-66139000D01*
G75*
G02*
X150678000Y-66314000I0J-175000D01*
G01*
X150678000Y-68614000D01*
G75*
G02*
X150503000Y-68789000I-175000J0D01*
G01*
X150153000Y-68789000D01*
G75*
G02*
X149978000Y-68614000I0J175000D01*
G01*
X149978000Y-66314000D01*
G75*
G02*
X150153000Y-66139000I175000J0D01*
G01*
G37*
G36*
G01*
X151423000Y-66139000D02*
X151773000Y-66139000D01*
G75*
G02*
X151948000Y-66314000I0J-175000D01*
G01*
X151948000Y-68614000D01*
G75*
G02*
X151773000Y-68789000I-175000J0D01*
G01*
X151423000Y-68789000D01*
G75*
G02*
X151248000Y-68614000I0J175000D01*
G01*
X151248000Y-66314000D01*
G75*
G02*
X151423000Y-66139000I175000J0D01*
G01*
G37*
G36*
G01*
X152693000Y-66139000D02*
X153043000Y-66139000D01*
G75*
G02*
X153218000Y-66314000I0J-175000D01*
G01*
X153218000Y-68614000D01*
G75*
G02*
X153043000Y-68789000I-175000J0D01*
G01*
X152693000Y-68789000D01*
G75*
G02*
X152518000Y-68614000I0J175000D01*
G01*
X152518000Y-66314000D01*
G75*
G02*
X152693000Y-66139000I175000J0D01*
G01*
G37*
G36*
G01*
X153963000Y-66139000D02*
X154313000Y-66139000D01*
G75*
G02*
X154488000Y-66314000I0J-175000D01*
G01*
X154488000Y-68614000D01*
G75*
G02*
X154313000Y-68789000I-175000J0D01*
G01*
X153963000Y-68789000D01*
G75*
G02*
X153788000Y-68614000I0J175000D01*
G01*
X153788000Y-66314000D01*
G75*
G02*
X153963000Y-66139000I175000J0D01*
G01*
G37*
G36*
G01*
X155233000Y-66139000D02*
X155583000Y-66139000D01*
G75*
G02*
X155758000Y-66314000I0J-175000D01*
G01*
X155758000Y-68614000D01*
G75*
G02*
X155583000Y-68789000I-175000J0D01*
G01*
X155233000Y-68789000D01*
G75*
G02*
X155058000Y-68614000I0J175000D01*
G01*
X155058000Y-66314000D01*
G75*
G02*
X155233000Y-66139000I175000J0D01*
G01*
G37*
G36*
G01*
X156503000Y-66139000D02*
X156853000Y-66139000D01*
G75*
G02*
X157028000Y-66314000I0J-175000D01*
G01*
X157028000Y-68614000D01*
G75*
G02*
X156853000Y-68789000I-175000J0D01*
G01*
X156503000Y-68789000D01*
G75*
G02*
X156328000Y-68614000I0J175000D01*
G01*
X156328000Y-66314000D01*
G75*
G02*
X156503000Y-66139000I175000J0D01*
G01*
G37*
G36*
G01*
X157773000Y-66139000D02*
X158123000Y-66139000D01*
G75*
G02*
X158298000Y-66314000I0J-175000D01*
G01*
X158298000Y-68614000D01*
G75*
G02*
X158123000Y-68789000I-175000J0D01*
G01*
X157773000Y-68789000D01*
G75*
G02*
X157598000Y-68614000I0J175000D01*
G01*
X157598000Y-66314000D01*
G75*
G02*
X157773000Y-66139000I175000J0D01*
G01*
G37*
G36*
G01*
X159043000Y-66139000D02*
X159393000Y-66139000D01*
G75*
G02*
X159568000Y-66314000I0J-175000D01*
G01*
X159568000Y-68614000D01*
G75*
G02*
X159393000Y-68789000I-175000J0D01*
G01*
X159043000Y-68789000D01*
G75*
G02*
X158868000Y-68614000I0J175000D01*
G01*
X158868000Y-66314000D01*
G75*
G02*
X159043000Y-66139000I175000J0D01*
G01*
G37*
G36*
G01*
X160313000Y-66139000D02*
X160663000Y-66139000D01*
G75*
G02*
X160838000Y-66314000I0J-175000D01*
G01*
X160838000Y-68614000D01*
G75*
G02*
X160663000Y-68789000I-175000J0D01*
G01*
X160313000Y-68789000D01*
G75*
G02*
X160138000Y-68614000I0J175000D01*
G01*
X160138000Y-66314000D01*
G75*
G02*
X160313000Y-66139000I175000J0D01*
G01*
G37*
G36*
G01*
X161583000Y-66139000D02*
X161933000Y-66139000D01*
G75*
G02*
X162108000Y-66314000I0J-175000D01*
G01*
X162108000Y-68614000D01*
G75*
G02*
X161933000Y-68789000I-175000J0D01*
G01*
X161583000Y-68789000D01*
G75*
G02*
X161408000Y-68614000I0J175000D01*
G01*
X161408000Y-66314000D01*
G75*
G02*
X161583000Y-66139000I175000J0D01*
G01*
G37*
G36*
G01*
X162853000Y-66139000D02*
X163203000Y-66139000D01*
G75*
G02*
X163378000Y-66314000I0J-175000D01*
G01*
X163378000Y-68614000D01*
G75*
G02*
X163203000Y-68789000I-175000J0D01*
G01*
X162853000Y-68789000D01*
G75*
G02*
X162678000Y-68614000I0J175000D01*
G01*
X162678000Y-66314000D01*
G75*
G02*
X162853000Y-66139000I175000J0D01*
G01*
G37*
G36*
G01*
X164123000Y-66139000D02*
X164473000Y-66139000D01*
G75*
G02*
X164648000Y-66314000I0J-175000D01*
G01*
X164648000Y-68614000D01*
G75*
G02*
X164473000Y-68789000I-175000J0D01*
G01*
X164123000Y-68789000D01*
G75*
G02*
X163948000Y-68614000I0J175000D01*
G01*
X163948000Y-66314000D01*
G75*
G02*
X164123000Y-66139000I175000J0D01*
G01*
G37*
%TD*%
%TO.C,U17*%
G36*
G01*
X192123000Y-76339000D02*
X192473000Y-76339000D01*
G75*
G02*
X192648000Y-76514000I0J-175000D01*
G01*
X192648000Y-78814000D01*
G75*
G02*
X192473000Y-78989000I-175000J0D01*
G01*
X192123000Y-78989000D01*
G75*
G02*
X191948000Y-78814000I0J175000D01*
G01*
X191948000Y-76514000D01*
G75*
G02*
X192123000Y-76339000I175000J0D01*
G01*
G37*
G36*
G01*
X190853000Y-76339000D02*
X191203000Y-76339000D01*
G75*
G02*
X191378000Y-76514000I0J-175000D01*
G01*
X191378000Y-78814000D01*
G75*
G02*
X191203000Y-78989000I-175000J0D01*
G01*
X190853000Y-78989000D01*
G75*
G02*
X190678000Y-78814000I0J175000D01*
G01*
X190678000Y-76514000D01*
G75*
G02*
X190853000Y-76339000I175000J0D01*
G01*
G37*
G36*
G01*
X189583000Y-76339000D02*
X189933000Y-76339000D01*
G75*
G02*
X190108000Y-76514000I0J-175000D01*
G01*
X190108000Y-78814000D01*
G75*
G02*
X189933000Y-78989000I-175000J0D01*
G01*
X189583000Y-78989000D01*
G75*
G02*
X189408000Y-78814000I0J175000D01*
G01*
X189408000Y-76514000D01*
G75*
G02*
X189583000Y-76339000I175000J0D01*
G01*
G37*
G36*
G01*
X188313000Y-76339000D02*
X188663000Y-76339000D01*
G75*
G02*
X188838000Y-76514000I0J-175000D01*
G01*
X188838000Y-78814000D01*
G75*
G02*
X188663000Y-78989000I-175000J0D01*
G01*
X188313000Y-78989000D01*
G75*
G02*
X188138000Y-78814000I0J175000D01*
G01*
X188138000Y-76514000D01*
G75*
G02*
X188313000Y-76339000I175000J0D01*
G01*
G37*
G36*
G01*
X187043000Y-76339000D02*
X187393000Y-76339000D01*
G75*
G02*
X187568000Y-76514000I0J-175000D01*
G01*
X187568000Y-78814000D01*
G75*
G02*
X187393000Y-78989000I-175000J0D01*
G01*
X187043000Y-78989000D01*
G75*
G02*
X186868000Y-78814000I0J175000D01*
G01*
X186868000Y-76514000D01*
G75*
G02*
X187043000Y-76339000I175000J0D01*
G01*
G37*
G36*
G01*
X185773000Y-76339000D02*
X186123000Y-76339000D01*
G75*
G02*
X186298000Y-76514000I0J-175000D01*
G01*
X186298000Y-78814000D01*
G75*
G02*
X186123000Y-78989000I-175000J0D01*
G01*
X185773000Y-78989000D01*
G75*
G02*
X185598000Y-78814000I0J175000D01*
G01*
X185598000Y-76514000D01*
G75*
G02*
X185773000Y-76339000I175000J0D01*
G01*
G37*
G36*
G01*
X184503000Y-76339000D02*
X184853000Y-76339000D01*
G75*
G02*
X185028000Y-76514000I0J-175000D01*
G01*
X185028000Y-78814000D01*
G75*
G02*
X184853000Y-78989000I-175000J0D01*
G01*
X184503000Y-78989000D01*
G75*
G02*
X184328000Y-78814000I0J175000D01*
G01*
X184328000Y-76514000D01*
G75*
G02*
X184503000Y-76339000I175000J0D01*
G01*
G37*
G36*
G01*
X183233000Y-76339000D02*
X183583000Y-76339000D01*
G75*
G02*
X183758000Y-76514000I0J-175000D01*
G01*
X183758000Y-78814000D01*
G75*
G02*
X183583000Y-78989000I-175000J0D01*
G01*
X183233000Y-78989000D01*
G75*
G02*
X183058000Y-78814000I0J175000D01*
G01*
X183058000Y-76514000D01*
G75*
G02*
X183233000Y-76339000I175000J0D01*
G01*
G37*
G36*
G01*
X181963000Y-76339000D02*
X182313000Y-76339000D01*
G75*
G02*
X182488000Y-76514000I0J-175000D01*
G01*
X182488000Y-78814000D01*
G75*
G02*
X182313000Y-78989000I-175000J0D01*
G01*
X181963000Y-78989000D01*
G75*
G02*
X181788000Y-78814000I0J175000D01*
G01*
X181788000Y-76514000D01*
G75*
G02*
X181963000Y-76339000I175000J0D01*
G01*
G37*
G36*
G01*
X180693000Y-76339000D02*
X181043000Y-76339000D01*
G75*
G02*
X181218000Y-76514000I0J-175000D01*
G01*
X181218000Y-78814000D01*
G75*
G02*
X181043000Y-78989000I-175000J0D01*
G01*
X180693000Y-78989000D01*
G75*
G02*
X180518000Y-78814000I0J175000D01*
G01*
X180518000Y-76514000D01*
G75*
G02*
X180693000Y-76339000I175000J0D01*
G01*
G37*
G36*
G01*
X179423000Y-76339000D02*
X179773000Y-76339000D01*
G75*
G02*
X179948000Y-76514000I0J-175000D01*
G01*
X179948000Y-78814000D01*
G75*
G02*
X179773000Y-78989000I-175000J0D01*
G01*
X179423000Y-78989000D01*
G75*
G02*
X179248000Y-78814000I0J175000D01*
G01*
X179248000Y-76514000D01*
G75*
G02*
X179423000Y-76339000I175000J0D01*
G01*
G37*
G36*
G01*
X178153000Y-76339000D02*
X178503000Y-76339000D01*
G75*
G02*
X178678000Y-76514000I0J-175000D01*
G01*
X178678000Y-78814000D01*
G75*
G02*
X178503000Y-78989000I-175000J0D01*
G01*
X178153000Y-78989000D01*
G75*
G02*
X177978000Y-78814000I0J175000D01*
G01*
X177978000Y-76514000D01*
G75*
G02*
X178153000Y-76339000I175000J0D01*
G01*
G37*
G36*
G01*
X176883000Y-76339000D02*
X177233000Y-76339000D01*
G75*
G02*
X177408000Y-76514000I0J-175000D01*
G01*
X177408000Y-78814000D01*
G75*
G02*
X177233000Y-78989000I-175000J0D01*
G01*
X176883000Y-78989000D01*
G75*
G02*
X176708000Y-78814000I0J175000D01*
G01*
X176708000Y-76514000D01*
G75*
G02*
X176883000Y-76339000I175000J0D01*
G01*
G37*
G36*
G01*
X175613000Y-76339000D02*
X175963000Y-76339000D01*
G75*
G02*
X176138000Y-76514000I0J-175000D01*
G01*
X176138000Y-78814000D01*
G75*
G02*
X175963000Y-78989000I-175000J0D01*
G01*
X175613000Y-78989000D01*
G75*
G02*
X175438000Y-78814000I0J175000D01*
G01*
X175438000Y-76514000D01*
G75*
G02*
X175613000Y-76339000I175000J0D01*
G01*
G37*
G36*
G01*
X174343000Y-76339000D02*
X174693000Y-76339000D01*
G75*
G02*
X174868000Y-76514000I0J-175000D01*
G01*
X174868000Y-78814000D01*
G75*
G02*
X174693000Y-78989000I-175000J0D01*
G01*
X174343000Y-78989000D01*
G75*
G02*
X174168000Y-78814000I0J175000D01*
G01*
X174168000Y-76514000D01*
G75*
G02*
X174343000Y-76339000I175000J0D01*
G01*
G37*
G36*
G01*
X173073000Y-76339000D02*
X173423000Y-76339000D01*
G75*
G02*
X173598000Y-76514000I0J-175000D01*
G01*
X173598000Y-78814000D01*
G75*
G02*
X173423000Y-78989000I-175000J0D01*
G01*
X173073000Y-78989000D01*
G75*
G02*
X172898000Y-78814000I0J175000D01*
G01*
X172898000Y-76514000D01*
G75*
G02*
X173073000Y-76339000I175000J0D01*
G01*
G37*
G36*
G01*
X171803000Y-76339000D02*
X172153000Y-76339000D01*
G75*
G02*
X172328000Y-76514000I0J-175000D01*
G01*
X172328000Y-78814000D01*
G75*
G02*
X172153000Y-78989000I-175000J0D01*
G01*
X171803000Y-78989000D01*
G75*
G02*
X171628000Y-78814000I0J175000D01*
G01*
X171628000Y-76514000D01*
G75*
G02*
X171803000Y-76339000I175000J0D01*
G01*
G37*
G36*
G01*
X170533000Y-76339000D02*
X170883000Y-76339000D01*
G75*
G02*
X171058000Y-76514000I0J-175000D01*
G01*
X171058000Y-78814000D01*
G75*
G02*
X170883000Y-78989000I-175000J0D01*
G01*
X170533000Y-78989000D01*
G75*
G02*
X170358000Y-78814000I0J175000D01*
G01*
X170358000Y-76514000D01*
G75*
G02*
X170533000Y-76339000I175000J0D01*
G01*
G37*
G36*
G01*
X170533000Y-66139000D02*
X170883000Y-66139000D01*
G75*
G02*
X171058000Y-66314000I0J-175000D01*
G01*
X171058000Y-68614000D01*
G75*
G02*
X170883000Y-68789000I-175000J0D01*
G01*
X170533000Y-68789000D01*
G75*
G02*
X170358000Y-68614000I0J175000D01*
G01*
X170358000Y-66314000D01*
G75*
G02*
X170533000Y-66139000I175000J0D01*
G01*
G37*
G36*
G01*
X171803000Y-66139000D02*
X172153000Y-66139000D01*
G75*
G02*
X172328000Y-66314000I0J-175000D01*
G01*
X172328000Y-68614000D01*
G75*
G02*
X172153000Y-68789000I-175000J0D01*
G01*
X171803000Y-68789000D01*
G75*
G02*
X171628000Y-68614000I0J175000D01*
G01*
X171628000Y-66314000D01*
G75*
G02*
X171803000Y-66139000I175000J0D01*
G01*
G37*
G36*
G01*
X173073000Y-66139000D02*
X173423000Y-66139000D01*
G75*
G02*
X173598000Y-66314000I0J-175000D01*
G01*
X173598000Y-68614000D01*
G75*
G02*
X173423000Y-68789000I-175000J0D01*
G01*
X173073000Y-68789000D01*
G75*
G02*
X172898000Y-68614000I0J175000D01*
G01*
X172898000Y-66314000D01*
G75*
G02*
X173073000Y-66139000I175000J0D01*
G01*
G37*
G36*
G01*
X174343000Y-66139000D02*
X174693000Y-66139000D01*
G75*
G02*
X174868000Y-66314000I0J-175000D01*
G01*
X174868000Y-68614000D01*
G75*
G02*
X174693000Y-68789000I-175000J0D01*
G01*
X174343000Y-68789000D01*
G75*
G02*
X174168000Y-68614000I0J175000D01*
G01*
X174168000Y-66314000D01*
G75*
G02*
X174343000Y-66139000I175000J0D01*
G01*
G37*
G36*
G01*
X175613000Y-66139000D02*
X175963000Y-66139000D01*
G75*
G02*
X176138000Y-66314000I0J-175000D01*
G01*
X176138000Y-68614000D01*
G75*
G02*
X175963000Y-68789000I-175000J0D01*
G01*
X175613000Y-68789000D01*
G75*
G02*
X175438000Y-68614000I0J175000D01*
G01*
X175438000Y-66314000D01*
G75*
G02*
X175613000Y-66139000I175000J0D01*
G01*
G37*
G36*
G01*
X176883000Y-66139000D02*
X177233000Y-66139000D01*
G75*
G02*
X177408000Y-66314000I0J-175000D01*
G01*
X177408000Y-68614000D01*
G75*
G02*
X177233000Y-68789000I-175000J0D01*
G01*
X176883000Y-68789000D01*
G75*
G02*
X176708000Y-68614000I0J175000D01*
G01*
X176708000Y-66314000D01*
G75*
G02*
X176883000Y-66139000I175000J0D01*
G01*
G37*
G36*
G01*
X178153000Y-66139000D02*
X178503000Y-66139000D01*
G75*
G02*
X178678000Y-66314000I0J-175000D01*
G01*
X178678000Y-68614000D01*
G75*
G02*
X178503000Y-68789000I-175000J0D01*
G01*
X178153000Y-68789000D01*
G75*
G02*
X177978000Y-68614000I0J175000D01*
G01*
X177978000Y-66314000D01*
G75*
G02*
X178153000Y-66139000I175000J0D01*
G01*
G37*
G36*
G01*
X179423000Y-66139000D02*
X179773000Y-66139000D01*
G75*
G02*
X179948000Y-66314000I0J-175000D01*
G01*
X179948000Y-68614000D01*
G75*
G02*
X179773000Y-68789000I-175000J0D01*
G01*
X179423000Y-68789000D01*
G75*
G02*
X179248000Y-68614000I0J175000D01*
G01*
X179248000Y-66314000D01*
G75*
G02*
X179423000Y-66139000I175000J0D01*
G01*
G37*
G36*
G01*
X180693000Y-66139000D02*
X181043000Y-66139000D01*
G75*
G02*
X181218000Y-66314000I0J-175000D01*
G01*
X181218000Y-68614000D01*
G75*
G02*
X181043000Y-68789000I-175000J0D01*
G01*
X180693000Y-68789000D01*
G75*
G02*
X180518000Y-68614000I0J175000D01*
G01*
X180518000Y-66314000D01*
G75*
G02*
X180693000Y-66139000I175000J0D01*
G01*
G37*
G36*
G01*
X181963000Y-66139000D02*
X182313000Y-66139000D01*
G75*
G02*
X182488000Y-66314000I0J-175000D01*
G01*
X182488000Y-68614000D01*
G75*
G02*
X182313000Y-68789000I-175000J0D01*
G01*
X181963000Y-68789000D01*
G75*
G02*
X181788000Y-68614000I0J175000D01*
G01*
X181788000Y-66314000D01*
G75*
G02*
X181963000Y-66139000I175000J0D01*
G01*
G37*
G36*
G01*
X183233000Y-66139000D02*
X183583000Y-66139000D01*
G75*
G02*
X183758000Y-66314000I0J-175000D01*
G01*
X183758000Y-68614000D01*
G75*
G02*
X183583000Y-68789000I-175000J0D01*
G01*
X183233000Y-68789000D01*
G75*
G02*
X183058000Y-68614000I0J175000D01*
G01*
X183058000Y-66314000D01*
G75*
G02*
X183233000Y-66139000I175000J0D01*
G01*
G37*
G36*
G01*
X184503000Y-66139000D02*
X184853000Y-66139000D01*
G75*
G02*
X185028000Y-66314000I0J-175000D01*
G01*
X185028000Y-68614000D01*
G75*
G02*
X184853000Y-68789000I-175000J0D01*
G01*
X184503000Y-68789000D01*
G75*
G02*
X184328000Y-68614000I0J175000D01*
G01*
X184328000Y-66314000D01*
G75*
G02*
X184503000Y-66139000I175000J0D01*
G01*
G37*
G36*
G01*
X185773000Y-66139000D02*
X186123000Y-66139000D01*
G75*
G02*
X186298000Y-66314000I0J-175000D01*
G01*
X186298000Y-68614000D01*
G75*
G02*
X186123000Y-68789000I-175000J0D01*
G01*
X185773000Y-68789000D01*
G75*
G02*
X185598000Y-68614000I0J175000D01*
G01*
X185598000Y-66314000D01*
G75*
G02*
X185773000Y-66139000I175000J0D01*
G01*
G37*
G36*
G01*
X187043000Y-66139000D02*
X187393000Y-66139000D01*
G75*
G02*
X187568000Y-66314000I0J-175000D01*
G01*
X187568000Y-68614000D01*
G75*
G02*
X187393000Y-68789000I-175000J0D01*
G01*
X187043000Y-68789000D01*
G75*
G02*
X186868000Y-68614000I0J175000D01*
G01*
X186868000Y-66314000D01*
G75*
G02*
X187043000Y-66139000I175000J0D01*
G01*
G37*
G36*
G01*
X188313000Y-66139000D02*
X188663000Y-66139000D01*
G75*
G02*
X188838000Y-66314000I0J-175000D01*
G01*
X188838000Y-68614000D01*
G75*
G02*
X188663000Y-68789000I-175000J0D01*
G01*
X188313000Y-68789000D01*
G75*
G02*
X188138000Y-68614000I0J175000D01*
G01*
X188138000Y-66314000D01*
G75*
G02*
X188313000Y-66139000I175000J0D01*
G01*
G37*
G36*
G01*
X189583000Y-66139000D02*
X189933000Y-66139000D01*
G75*
G02*
X190108000Y-66314000I0J-175000D01*
G01*
X190108000Y-68614000D01*
G75*
G02*
X189933000Y-68789000I-175000J0D01*
G01*
X189583000Y-68789000D01*
G75*
G02*
X189408000Y-68614000I0J175000D01*
G01*
X189408000Y-66314000D01*
G75*
G02*
X189583000Y-66139000I175000J0D01*
G01*
G37*
G36*
G01*
X190853000Y-66139000D02*
X191203000Y-66139000D01*
G75*
G02*
X191378000Y-66314000I0J-175000D01*
G01*
X191378000Y-68614000D01*
G75*
G02*
X191203000Y-68789000I-175000J0D01*
G01*
X190853000Y-68789000D01*
G75*
G02*
X190678000Y-68614000I0J175000D01*
G01*
X190678000Y-66314000D01*
G75*
G02*
X190853000Y-66139000I175000J0D01*
G01*
G37*
G36*
G01*
X192123000Y-66139000D02*
X192473000Y-66139000D01*
G75*
G02*
X192648000Y-66314000I0J-175000D01*
G01*
X192648000Y-68614000D01*
G75*
G02*
X192473000Y-68789000I-175000J0D01*
G01*
X192123000Y-68789000D01*
G75*
G02*
X191948000Y-68614000I0J175000D01*
G01*
X191948000Y-66314000D01*
G75*
G02*
X192123000Y-66139000I175000J0D01*
G01*
G37*
%TD*%
%TO.C,U16*%
G36*
G01*
X164250000Y-59101000D02*
X164600000Y-59101000D01*
G75*
G02*
X164775000Y-59276000I0J-175000D01*
G01*
X164775000Y-61576000D01*
G75*
G02*
X164600000Y-61751000I-175000J0D01*
G01*
X164250000Y-61751000D01*
G75*
G02*
X164075000Y-61576000I0J175000D01*
G01*
X164075000Y-59276000D01*
G75*
G02*
X164250000Y-59101000I175000J0D01*
G01*
G37*
G36*
G01*
X162980000Y-59101000D02*
X163330000Y-59101000D01*
G75*
G02*
X163505000Y-59276000I0J-175000D01*
G01*
X163505000Y-61576000D01*
G75*
G02*
X163330000Y-61751000I-175000J0D01*
G01*
X162980000Y-61751000D01*
G75*
G02*
X162805000Y-61576000I0J175000D01*
G01*
X162805000Y-59276000D01*
G75*
G02*
X162980000Y-59101000I175000J0D01*
G01*
G37*
G36*
G01*
X161710000Y-59101000D02*
X162060000Y-59101000D01*
G75*
G02*
X162235000Y-59276000I0J-175000D01*
G01*
X162235000Y-61576000D01*
G75*
G02*
X162060000Y-61751000I-175000J0D01*
G01*
X161710000Y-61751000D01*
G75*
G02*
X161535000Y-61576000I0J175000D01*
G01*
X161535000Y-59276000D01*
G75*
G02*
X161710000Y-59101000I175000J0D01*
G01*
G37*
G36*
G01*
X160440000Y-59101000D02*
X160790000Y-59101000D01*
G75*
G02*
X160965000Y-59276000I0J-175000D01*
G01*
X160965000Y-61576000D01*
G75*
G02*
X160790000Y-61751000I-175000J0D01*
G01*
X160440000Y-61751000D01*
G75*
G02*
X160265000Y-61576000I0J175000D01*
G01*
X160265000Y-59276000D01*
G75*
G02*
X160440000Y-59101000I175000J0D01*
G01*
G37*
G36*
G01*
X159170000Y-59101000D02*
X159520000Y-59101000D01*
G75*
G02*
X159695000Y-59276000I0J-175000D01*
G01*
X159695000Y-61576000D01*
G75*
G02*
X159520000Y-61751000I-175000J0D01*
G01*
X159170000Y-61751000D01*
G75*
G02*
X158995000Y-61576000I0J175000D01*
G01*
X158995000Y-59276000D01*
G75*
G02*
X159170000Y-59101000I175000J0D01*
G01*
G37*
G36*
G01*
X157900000Y-59101000D02*
X158250000Y-59101000D01*
G75*
G02*
X158425000Y-59276000I0J-175000D01*
G01*
X158425000Y-61576000D01*
G75*
G02*
X158250000Y-61751000I-175000J0D01*
G01*
X157900000Y-61751000D01*
G75*
G02*
X157725000Y-61576000I0J175000D01*
G01*
X157725000Y-59276000D01*
G75*
G02*
X157900000Y-59101000I175000J0D01*
G01*
G37*
G36*
G01*
X156630000Y-59101000D02*
X156980000Y-59101000D01*
G75*
G02*
X157155000Y-59276000I0J-175000D01*
G01*
X157155000Y-61576000D01*
G75*
G02*
X156980000Y-61751000I-175000J0D01*
G01*
X156630000Y-61751000D01*
G75*
G02*
X156455000Y-61576000I0J175000D01*
G01*
X156455000Y-59276000D01*
G75*
G02*
X156630000Y-59101000I175000J0D01*
G01*
G37*
G36*
G01*
X155360000Y-59101000D02*
X155710000Y-59101000D01*
G75*
G02*
X155885000Y-59276000I0J-175000D01*
G01*
X155885000Y-61576000D01*
G75*
G02*
X155710000Y-61751000I-175000J0D01*
G01*
X155360000Y-61751000D01*
G75*
G02*
X155185000Y-61576000I0J175000D01*
G01*
X155185000Y-59276000D01*
G75*
G02*
X155360000Y-59101000I175000J0D01*
G01*
G37*
G36*
G01*
X154090000Y-59101000D02*
X154440000Y-59101000D01*
G75*
G02*
X154615000Y-59276000I0J-175000D01*
G01*
X154615000Y-61576000D01*
G75*
G02*
X154440000Y-61751000I-175000J0D01*
G01*
X154090000Y-61751000D01*
G75*
G02*
X153915000Y-61576000I0J175000D01*
G01*
X153915000Y-59276000D01*
G75*
G02*
X154090000Y-59101000I175000J0D01*
G01*
G37*
G36*
G01*
X152820000Y-59101000D02*
X153170000Y-59101000D01*
G75*
G02*
X153345000Y-59276000I0J-175000D01*
G01*
X153345000Y-61576000D01*
G75*
G02*
X153170000Y-61751000I-175000J0D01*
G01*
X152820000Y-61751000D01*
G75*
G02*
X152645000Y-61576000I0J175000D01*
G01*
X152645000Y-59276000D01*
G75*
G02*
X152820000Y-59101000I175000J0D01*
G01*
G37*
G36*
G01*
X151550000Y-59101000D02*
X151900000Y-59101000D01*
G75*
G02*
X152075000Y-59276000I0J-175000D01*
G01*
X152075000Y-61576000D01*
G75*
G02*
X151900000Y-61751000I-175000J0D01*
G01*
X151550000Y-61751000D01*
G75*
G02*
X151375000Y-61576000I0J175000D01*
G01*
X151375000Y-59276000D01*
G75*
G02*
X151550000Y-59101000I175000J0D01*
G01*
G37*
G36*
G01*
X150280000Y-59101000D02*
X150630000Y-59101000D01*
G75*
G02*
X150805000Y-59276000I0J-175000D01*
G01*
X150805000Y-61576000D01*
G75*
G02*
X150630000Y-61751000I-175000J0D01*
G01*
X150280000Y-61751000D01*
G75*
G02*
X150105000Y-61576000I0J175000D01*
G01*
X150105000Y-59276000D01*
G75*
G02*
X150280000Y-59101000I175000J0D01*
G01*
G37*
G36*
G01*
X149010000Y-59101000D02*
X149360000Y-59101000D01*
G75*
G02*
X149535000Y-59276000I0J-175000D01*
G01*
X149535000Y-61576000D01*
G75*
G02*
X149360000Y-61751000I-175000J0D01*
G01*
X149010000Y-61751000D01*
G75*
G02*
X148835000Y-61576000I0J175000D01*
G01*
X148835000Y-59276000D01*
G75*
G02*
X149010000Y-59101000I175000J0D01*
G01*
G37*
G36*
G01*
X147740000Y-59101000D02*
X148090000Y-59101000D01*
G75*
G02*
X148265000Y-59276000I0J-175000D01*
G01*
X148265000Y-61576000D01*
G75*
G02*
X148090000Y-61751000I-175000J0D01*
G01*
X147740000Y-61751000D01*
G75*
G02*
X147565000Y-61576000I0J175000D01*
G01*
X147565000Y-59276000D01*
G75*
G02*
X147740000Y-59101000I175000J0D01*
G01*
G37*
G36*
G01*
X146470000Y-59101000D02*
X146820000Y-59101000D01*
G75*
G02*
X146995000Y-59276000I0J-175000D01*
G01*
X146995000Y-61576000D01*
G75*
G02*
X146820000Y-61751000I-175000J0D01*
G01*
X146470000Y-61751000D01*
G75*
G02*
X146295000Y-61576000I0J175000D01*
G01*
X146295000Y-59276000D01*
G75*
G02*
X146470000Y-59101000I175000J0D01*
G01*
G37*
G36*
G01*
X145200000Y-59101000D02*
X145550000Y-59101000D01*
G75*
G02*
X145725000Y-59276000I0J-175000D01*
G01*
X145725000Y-61576000D01*
G75*
G02*
X145550000Y-61751000I-175000J0D01*
G01*
X145200000Y-61751000D01*
G75*
G02*
X145025000Y-61576000I0J175000D01*
G01*
X145025000Y-59276000D01*
G75*
G02*
X145200000Y-59101000I175000J0D01*
G01*
G37*
G36*
G01*
X143930000Y-59101000D02*
X144280000Y-59101000D01*
G75*
G02*
X144455000Y-59276000I0J-175000D01*
G01*
X144455000Y-61576000D01*
G75*
G02*
X144280000Y-61751000I-175000J0D01*
G01*
X143930000Y-61751000D01*
G75*
G02*
X143755000Y-61576000I0J175000D01*
G01*
X143755000Y-59276000D01*
G75*
G02*
X143930000Y-59101000I175000J0D01*
G01*
G37*
G36*
G01*
X142660000Y-59101000D02*
X143010000Y-59101000D01*
G75*
G02*
X143185000Y-59276000I0J-175000D01*
G01*
X143185000Y-61576000D01*
G75*
G02*
X143010000Y-61751000I-175000J0D01*
G01*
X142660000Y-61751000D01*
G75*
G02*
X142485000Y-61576000I0J175000D01*
G01*
X142485000Y-59276000D01*
G75*
G02*
X142660000Y-59101000I175000J0D01*
G01*
G37*
G36*
G01*
X142660000Y-48901000D02*
X143010000Y-48901000D01*
G75*
G02*
X143185000Y-49076000I0J-175000D01*
G01*
X143185000Y-51376000D01*
G75*
G02*
X143010000Y-51551000I-175000J0D01*
G01*
X142660000Y-51551000D01*
G75*
G02*
X142485000Y-51376000I0J175000D01*
G01*
X142485000Y-49076000D01*
G75*
G02*
X142660000Y-48901000I175000J0D01*
G01*
G37*
G36*
G01*
X143930000Y-48901000D02*
X144280000Y-48901000D01*
G75*
G02*
X144455000Y-49076000I0J-175000D01*
G01*
X144455000Y-51376000D01*
G75*
G02*
X144280000Y-51551000I-175000J0D01*
G01*
X143930000Y-51551000D01*
G75*
G02*
X143755000Y-51376000I0J175000D01*
G01*
X143755000Y-49076000D01*
G75*
G02*
X143930000Y-48901000I175000J0D01*
G01*
G37*
G36*
G01*
X145200000Y-48901000D02*
X145550000Y-48901000D01*
G75*
G02*
X145725000Y-49076000I0J-175000D01*
G01*
X145725000Y-51376000D01*
G75*
G02*
X145550000Y-51551000I-175000J0D01*
G01*
X145200000Y-51551000D01*
G75*
G02*
X145025000Y-51376000I0J175000D01*
G01*
X145025000Y-49076000D01*
G75*
G02*
X145200000Y-48901000I175000J0D01*
G01*
G37*
G36*
G01*
X146470000Y-48901000D02*
X146820000Y-48901000D01*
G75*
G02*
X146995000Y-49076000I0J-175000D01*
G01*
X146995000Y-51376000D01*
G75*
G02*
X146820000Y-51551000I-175000J0D01*
G01*
X146470000Y-51551000D01*
G75*
G02*
X146295000Y-51376000I0J175000D01*
G01*
X146295000Y-49076000D01*
G75*
G02*
X146470000Y-48901000I175000J0D01*
G01*
G37*
G36*
G01*
X147740000Y-48901000D02*
X148090000Y-48901000D01*
G75*
G02*
X148265000Y-49076000I0J-175000D01*
G01*
X148265000Y-51376000D01*
G75*
G02*
X148090000Y-51551000I-175000J0D01*
G01*
X147740000Y-51551000D01*
G75*
G02*
X147565000Y-51376000I0J175000D01*
G01*
X147565000Y-49076000D01*
G75*
G02*
X147740000Y-48901000I175000J0D01*
G01*
G37*
G36*
G01*
X149010000Y-48901000D02*
X149360000Y-48901000D01*
G75*
G02*
X149535000Y-49076000I0J-175000D01*
G01*
X149535000Y-51376000D01*
G75*
G02*
X149360000Y-51551000I-175000J0D01*
G01*
X149010000Y-51551000D01*
G75*
G02*
X148835000Y-51376000I0J175000D01*
G01*
X148835000Y-49076000D01*
G75*
G02*
X149010000Y-48901000I175000J0D01*
G01*
G37*
G36*
G01*
X150280000Y-48901000D02*
X150630000Y-48901000D01*
G75*
G02*
X150805000Y-49076000I0J-175000D01*
G01*
X150805000Y-51376000D01*
G75*
G02*
X150630000Y-51551000I-175000J0D01*
G01*
X150280000Y-51551000D01*
G75*
G02*
X150105000Y-51376000I0J175000D01*
G01*
X150105000Y-49076000D01*
G75*
G02*
X150280000Y-48901000I175000J0D01*
G01*
G37*
G36*
G01*
X151550000Y-48901000D02*
X151900000Y-48901000D01*
G75*
G02*
X152075000Y-49076000I0J-175000D01*
G01*
X152075000Y-51376000D01*
G75*
G02*
X151900000Y-51551000I-175000J0D01*
G01*
X151550000Y-51551000D01*
G75*
G02*
X151375000Y-51376000I0J175000D01*
G01*
X151375000Y-49076000D01*
G75*
G02*
X151550000Y-48901000I175000J0D01*
G01*
G37*
G36*
G01*
X152820000Y-48901000D02*
X153170000Y-48901000D01*
G75*
G02*
X153345000Y-49076000I0J-175000D01*
G01*
X153345000Y-51376000D01*
G75*
G02*
X153170000Y-51551000I-175000J0D01*
G01*
X152820000Y-51551000D01*
G75*
G02*
X152645000Y-51376000I0J175000D01*
G01*
X152645000Y-49076000D01*
G75*
G02*
X152820000Y-48901000I175000J0D01*
G01*
G37*
G36*
G01*
X154090000Y-48901000D02*
X154440000Y-48901000D01*
G75*
G02*
X154615000Y-49076000I0J-175000D01*
G01*
X154615000Y-51376000D01*
G75*
G02*
X154440000Y-51551000I-175000J0D01*
G01*
X154090000Y-51551000D01*
G75*
G02*
X153915000Y-51376000I0J175000D01*
G01*
X153915000Y-49076000D01*
G75*
G02*
X154090000Y-48901000I175000J0D01*
G01*
G37*
G36*
G01*
X155360000Y-48901000D02*
X155710000Y-48901000D01*
G75*
G02*
X155885000Y-49076000I0J-175000D01*
G01*
X155885000Y-51376000D01*
G75*
G02*
X155710000Y-51551000I-175000J0D01*
G01*
X155360000Y-51551000D01*
G75*
G02*
X155185000Y-51376000I0J175000D01*
G01*
X155185000Y-49076000D01*
G75*
G02*
X155360000Y-48901000I175000J0D01*
G01*
G37*
G36*
G01*
X156630000Y-48901000D02*
X156980000Y-48901000D01*
G75*
G02*
X157155000Y-49076000I0J-175000D01*
G01*
X157155000Y-51376000D01*
G75*
G02*
X156980000Y-51551000I-175000J0D01*
G01*
X156630000Y-51551000D01*
G75*
G02*
X156455000Y-51376000I0J175000D01*
G01*
X156455000Y-49076000D01*
G75*
G02*
X156630000Y-48901000I175000J0D01*
G01*
G37*
G36*
G01*
X157900000Y-48901000D02*
X158250000Y-48901000D01*
G75*
G02*
X158425000Y-49076000I0J-175000D01*
G01*
X158425000Y-51376000D01*
G75*
G02*
X158250000Y-51551000I-175000J0D01*
G01*
X157900000Y-51551000D01*
G75*
G02*
X157725000Y-51376000I0J175000D01*
G01*
X157725000Y-49076000D01*
G75*
G02*
X157900000Y-48901000I175000J0D01*
G01*
G37*
G36*
G01*
X159170000Y-48901000D02*
X159520000Y-48901000D01*
G75*
G02*
X159695000Y-49076000I0J-175000D01*
G01*
X159695000Y-51376000D01*
G75*
G02*
X159520000Y-51551000I-175000J0D01*
G01*
X159170000Y-51551000D01*
G75*
G02*
X158995000Y-51376000I0J175000D01*
G01*
X158995000Y-49076000D01*
G75*
G02*
X159170000Y-48901000I175000J0D01*
G01*
G37*
G36*
G01*
X160440000Y-48901000D02*
X160790000Y-48901000D01*
G75*
G02*
X160965000Y-49076000I0J-175000D01*
G01*
X160965000Y-51376000D01*
G75*
G02*
X160790000Y-51551000I-175000J0D01*
G01*
X160440000Y-51551000D01*
G75*
G02*
X160265000Y-51376000I0J175000D01*
G01*
X160265000Y-49076000D01*
G75*
G02*
X160440000Y-48901000I175000J0D01*
G01*
G37*
G36*
G01*
X161710000Y-48901000D02*
X162060000Y-48901000D01*
G75*
G02*
X162235000Y-49076000I0J-175000D01*
G01*
X162235000Y-51376000D01*
G75*
G02*
X162060000Y-51551000I-175000J0D01*
G01*
X161710000Y-51551000D01*
G75*
G02*
X161535000Y-51376000I0J175000D01*
G01*
X161535000Y-49076000D01*
G75*
G02*
X161710000Y-48901000I175000J0D01*
G01*
G37*
G36*
G01*
X162980000Y-48901000D02*
X163330000Y-48901000D01*
G75*
G02*
X163505000Y-49076000I0J-175000D01*
G01*
X163505000Y-51376000D01*
G75*
G02*
X163330000Y-51551000I-175000J0D01*
G01*
X162980000Y-51551000D01*
G75*
G02*
X162805000Y-51376000I0J175000D01*
G01*
X162805000Y-49076000D01*
G75*
G02*
X162980000Y-48901000I175000J0D01*
G01*
G37*
G36*
G01*
X164250000Y-48901000D02*
X164600000Y-48901000D01*
G75*
G02*
X164775000Y-49076000I0J-175000D01*
G01*
X164775000Y-51376000D01*
G75*
G02*
X164600000Y-51551000I-175000J0D01*
G01*
X164250000Y-51551000D01*
G75*
G02*
X164075000Y-51376000I0J175000D01*
G01*
X164075000Y-49076000D01*
G75*
G02*
X164250000Y-48901000I175000J0D01*
G01*
G37*
%TD*%
%TO.C,U4*%
G36*
G01*
X192250000Y-59101000D02*
X192600000Y-59101000D01*
G75*
G02*
X192775000Y-59276000I0J-175000D01*
G01*
X192775000Y-61576000D01*
G75*
G02*
X192600000Y-61751000I-175000J0D01*
G01*
X192250000Y-61751000D01*
G75*
G02*
X192075000Y-61576000I0J175000D01*
G01*
X192075000Y-59276000D01*
G75*
G02*
X192250000Y-59101000I175000J0D01*
G01*
G37*
G36*
G01*
X190980000Y-59101000D02*
X191330000Y-59101000D01*
G75*
G02*
X191505000Y-59276000I0J-175000D01*
G01*
X191505000Y-61576000D01*
G75*
G02*
X191330000Y-61751000I-175000J0D01*
G01*
X190980000Y-61751000D01*
G75*
G02*
X190805000Y-61576000I0J175000D01*
G01*
X190805000Y-59276000D01*
G75*
G02*
X190980000Y-59101000I175000J0D01*
G01*
G37*
G36*
G01*
X189710000Y-59101000D02*
X190060000Y-59101000D01*
G75*
G02*
X190235000Y-59276000I0J-175000D01*
G01*
X190235000Y-61576000D01*
G75*
G02*
X190060000Y-61751000I-175000J0D01*
G01*
X189710000Y-61751000D01*
G75*
G02*
X189535000Y-61576000I0J175000D01*
G01*
X189535000Y-59276000D01*
G75*
G02*
X189710000Y-59101000I175000J0D01*
G01*
G37*
G36*
G01*
X188440000Y-59101000D02*
X188790000Y-59101000D01*
G75*
G02*
X188965000Y-59276000I0J-175000D01*
G01*
X188965000Y-61576000D01*
G75*
G02*
X188790000Y-61751000I-175000J0D01*
G01*
X188440000Y-61751000D01*
G75*
G02*
X188265000Y-61576000I0J175000D01*
G01*
X188265000Y-59276000D01*
G75*
G02*
X188440000Y-59101000I175000J0D01*
G01*
G37*
G36*
G01*
X187170000Y-59101000D02*
X187520000Y-59101000D01*
G75*
G02*
X187695000Y-59276000I0J-175000D01*
G01*
X187695000Y-61576000D01*
G75*
G02*
X187520000Y-61751000I-175000J0D01*
G01*
X187170000Y-61751000D01*
G75*
G02*
X186995000Y-61576000I0J175000D01*
G01*
X186995000Y-59276000D01*
G75*
G02*
X187170000Y-59101000I175000J0D01*
G01*
G37*
G36*
G01*
X185900000Y-59101000D02*
X186250000Y-59101000D01*
G75*
G02*
X186425000Y-59276000I0J-175000D01*
G01*
X186425000Y-61576000D01*
G75*
G02*
X186250000Y-61751000I-175000J0D01*
G01*
X185900000Y-61751000D01*
G75*
G02*
X185725000Y-61576000I0J175000D01*
G01*
X185725000Y-59276000D01*
G75*
G02*
X185900000Y-59101000I175000J0D01*
G01*
G37*
G36*
G01*
X184630000Y-59101000D02*
X184980000Y-59101000D01*
G75*
G02*
X185155000Y-59276000I0J-175000D01*
G01*
X185155000Y-61576000D01*
G75*
G02*
X184980000Y-61751000I-175000J0D01*
G01*
X184630000Y-61751000D01*
G75*
G02*
X184455000Y-61576000I0J175000D01*
G01*
X184455000Y-59276000D01*
G75*
G02*
X184630000Y-59101000I175000J0D01*
G01*
G37*
G36*
G01*
X183360000Y-59101000D02*
X183710000Y-59101000D01*
G75*
G02*
X183885000Y-59276000I0J-175000D01*
G01*
X183885000Y-61576000D01*
G75*
G02*
X183710000Y-61751000I-175000J0D01*
G01*
X183360000Y-61751000D01*
G75*
G02*
X183185000Y-61576000I0J175000D01*
G01*
X183185000Y-59276000D01*
G75*
G02*
X183360000Y-59101000I175000J0D01*
G01*
G37*
G36*
G01*
X182090000Y-59101000D02*
X182440000Y-59101000D01*
G75*
G02*
X182615000Y-59276000I0J-175000D01*
G01*
X182615000Y-61576000D01*
G75*
G02*
X182440000Y-61751000I-175000J0D01*
G01*
X182090000Y-61751000D01*
G75*
G02*
X181915000Y-61576000I0J175000D01*
G01*
X181915000Y-59276000D01*
G75*
G02*
X182090000Y-59101000I175000J0D01*
G01*
G37*
G36*
G01*
X180820000Y-59101000D02*
X181170000Y-59101000D01*
G75*
G02*
X181345000Y-59276000I0J-175000D01*
G01*
X181345000Y-61576000D01*
G75*
G02*
X181170000Y-61751000I-175000J0D01*
G01*
X180820000Y-61751000D01*
G75*
G02*
X180645000Y-61576000I0J175000D01*
G01*
X180645000Y-59276000D01*
G75*
G02*
X180820000Y-59101000I175000J0D01*
G01*
G37*
G36*
G01*
X179550000Y-59101000D02*
X179900000Y-59101000D01*
G75*
G02*
X180075000Y-59276000I0J-175000D01*
G01*
X180075000Y-61576000D01*
G75*
G02*
X179900000Y-61751000I-175000J0D01*
G01*
X179550000Y-61751000D01*
G75*
G02*
X179375000Y-61576000I0J175000D01*
G01*
X179375000Y-59276000D01*
G75*
G02*
X179550000Y-59101000I175000J0D01*
G01*
G37*
G36*
G01*
X178280000Y-59101000D02*
X178630000Y-59101000D01*
G75*
G02*
X178805000Y-59276000I0J-175000D01*
G01*
X178805000Y-61576000D01*
G75*
G02*
X178630000Y-61751000I-175000J0D01*
G01*
X178280000Y-61751000D01*
G75*
G02*
X178105000Y-61576000I0J175000D01*
G01*
X178105000Y-59276000D01*
G75*
G02*
X178280000Y-59101000I175000J0D01*
G01*
G37*
G36*
G01*
X177010000Y-59101000D02*
X177360000Y-59101000D01*
G75*
G02*
X177535000Y-59276000I0J-175000D01*
G01*
X177535000Y-61576000D01*
G75*
G02*
X177360000Y-61751000I-175000J0D01*
G01*
X177010000Y-61751000D01*
G75*
G02*
X176835000Y-61576000I0J175000D01*
G01*
X176835000Y-59276000D01*
G75*
G02*
X177010000Y-59101000I175000J0D01*
G01*
G37*
G36*
G01*
X175740000Y-59101000D02*
X176090000Y-59101000D01*
G75*
G02*
X176265000Y-59276000I0J-175000D01*
G01*
X176265000Y-61576000D01*
G75*
G02*
X176090000Y-61751000I-175000J0D01*
G01*
X175740000Y-61751000D01*
G75*
G02*
X175565000Y-61576000I0J175000D01*
G01*
X175565000Y-59276000D01*
G75*
G02*
X175740000Y-59101000I175000J0D01*
G01*
G37*
G36*
G01*
X174470000Y-59101000D02*
X174820000Y-59101000D01*
G75*
G02*
X174995000Y-59276000I0J-175000D01*
G01*
X174995000Y-61576000D01*
G75*
G02*
X174820000Y-61751000I-175000J0D01*
G01*
X174470000Y-61751000D01*
G75*
G02*
X174295000Y-61576000I0J175000D01*
G01*
X174295000Y-59276000D01*
G75*
G02*
X174470000Y-59101000I175000J0D01*
G01*
G37*
G36*
G01*
X173200000Y-59101000D02*
X173550000Y-59101000D01*
G75*
G02*
X173725000Y-59276000I0J-175000D01*
G01*
X173725000Y-61576000D01*
G75*
G02*
X173550000Y-61751000I-175000J0D01*
G01*
X173200000Y-61751000D01*
G75*
G02*
X173025000Y-61576000I0J175000D01*
G01*
X173025000Y-59276000D01*
G75*
G02*
X173200000Y-59101000I175000J0D01*
G01*
G37*
G36*
G01*
X171930000Y-59101000D02*
X172280000Y-59101000D01*
G75*
G02*
X172455000Y-59276000I0J-175000D01*
G01*
X172455000Y-61576000D01*
G75*
G02*
X172280000Y-61751000I-175000J0D01*
G01*
X171930000Y-61751000D01*
G75*
G02*
X171755000Y-61576000I0J175000D01*
G01*
X171755000Y-59276000D01*
G75*
G02*
X171930000Y-59101000I175000J0D01*
G01*
G37*
G36*
G01*
X170660000Y-59101000D02*
X171010000Y-59101000D01*
G75*
G02*
X171185000Y-59276000I0J-175000D01*
G01*
X171185000Y-61576000D01*
G75*
G02*
X171010000Y-61751000I-175000J0D01*
G01*
X170660000Y-61751000D01*
G75*
G02*
X170485000Y-61576000I0J175000D01*
G01*
X170485000Y-59276000D01*
G75*
G02*
X170660000Y-59101000I175000J0D01*
G01*
G37*
G36*
G01*
X170660000Y-48901000D02*
X171010000Y-48901000D01*
G75*
G02*
X171185000Y-49076000I0J-175000D01*
G01*
X171185000Y-51376000D01*
G75*
G02*
X171010000Y-51551000I-175000J0D01*
G01*
X170660000Y-51551000D01*
G75*
G02*
X170485000Y-51376000I0J175000D01*
G01*
X170485000Y-49076000D01*
G75*
G02*
X170660000Y-48901000I175000J0D01*
G01*
G37*
G36*
G01*
X171930000Y-48901000D02*
X172280000Y-48901000D01*
G75*
G02*
X172455000Y-49076000I0J-175000D01*
G01*
X172455000Y-51376000D01*
G75*
G02*
X172280000Y-51551000I-175000J0D01*
G01*
X171930000Y-51551000D01*
G75*
G02*
X171755000Y-51376000I0J175000D01*
G01*
X171755000Y-49076000D01*
G75*
G02*
X171930000Y-48901000I175000J0D01*
G01*
G37*
G36*
G01*
X173200000Y-48901000D02*
X173550000Y-48901000D01*
G75*
G02*
X173725000Y-49076000I0J-175000D01*
G01*
X173725000Y-51376000D01*
G75*
G02*
X173550000Y-51551000I-175000J0D01*
G01*
X173200000Y-51551000D01*
G75*
G02*
X173025000Y-51376000I0J175000D01*
G01*
X173025000Y-49076000D01*
G75*
G02*
X173200000Y-48901000I175000J0D01*
G01*
G37*
G36*
G01*
X174470000Y-48901000D02*
X174820000Y-48901000D01*
G75*
G02*
X174995000Y-49076000I0J-175000D01*
G01*
X174995000Y-51376000D01*
G75*
G02*
X174820000Y-51551000I-175000J0D01*
G01*
X174470000Y-51551000D01*
G75*
G02*
X174295000Y-51376000I0J175000D01*
G01*
X174295000Y-49076000D01*
G75*
G02*
X174470000Y-48901000I175000J0D01*
G01*
G37*
G36*
G01*
X175740000Y-48901000D02*
X176090000Y-48901000D01*
G75*
G02*
X176265000Y-49076000I0J-175000D01*
G01*
X176265000Y-51376000D01*
G75*
G02*
X176090000Y-51551000I-175000J0D01*
G01*
X175740000Y-51551000D01*
G75*
G02*
X175565000Y-51376000I0J175000D01*
G01*
X175565000Y-49076000D01*
G75*
G02*
X175740000Y-48901000I175000J0D01*
G01*
G37*
G36*
G01*
X177010000Y-48901000D02*
X177360000Y-48901000D01*
G75*
G02*
X177535000Y-49076000I0J-175000D01*
G01*
X177535000Y-51376000D01*
G75*
G02*
X177360000Y-51551000I-175000J0D01*
G01*
X177010000Y-51551000D01*
G75*
G02*
X176835000Y-51376000I0J175000D01*
G01*
X176835000Y-49076000D01*
G75*
G02*
X177010000Y-48901000I175000J0D01*
G01*
G37*
G36*
G01*
X178280000Y-48901000D02*
X178630000Y-48901000D01*
G75*
G02*
X178805000Y-49076000I0J-175000D01*
G01*
X178805000Y-51376000D01*
G75*
G02*
X178630000Y-51551000I-175000J0D01*
G01*
X178280000Y-51551000D01*
G75*
G02*
X178105000Y-51376000I0J175000D01*
G01*
X178105000Y-49076000D01*
G75*
G02*
X178280000Y-48901000I175000J0D01*
G01*
G37*
G36*
G01*
X179550000Y-48901000D02*
X179900000Y-48901000D01*
G75*
G02*
X180075000Y-49076000I0J-175000D01*
G01*
X180075000Y-51376000D01*
G75*
G02*
X179900000Y-51551000I-175000J0D01*
G01*
X179550000Y-51551000D01*
G75*
G02*
X179375000Y-51376000I0J175000D01*
G01*
X179375000Y-49076000D01*
G75*
G02*
X179550000Y-48901000I175000J0D01*
G01*
G37*
G36*
G01*
X180820000Y-48901000D02*
X181170000Y-48901000D01*
G75*
G02*
X181345000Y-49076000I0J-175000D01*
G01*
X181345000Y-51376000D01*
G75*
G02*
X181170000Y-51551000I-175000J0D01*
G01*
X180820000Y-51551000D01*
G75*
G02*
X180645000Y-51376000I0J175000D01*
G01*
X180645000Y-49076000D01*
G75*
G02*
X180820000Y-48901000I175000J0D01*
G01*
G37*
G36*
G01*
X182090000Y-48901000D02*
X182440000Y-48901000D01*
G75*
G02*
X182615000Y-49076000I0J-175000D01*
G01*
X182615000Y-51376000D01*
G75*
G02*
X182440000Y-51551000I-175000J0D01*
G01*
X182090000Y-51551000D01*
G75*
G02*
X181915000Y-51376000I0J175000D01*
G01*
X181915000Y-49076000D01*
G75*
G02*
X182090000Y-48901000I175000J0D01*
G01*
G37*
G36*
G01*
X183360000Y-48901000D02*
X183710000Y-48901000D01*
G75*
G02*
X183885000Y-49076000I0J-175000D01*
G01*
X183885000Y-51376000D01*
G75*
G02*
X183710000Y-51551000I-175000J0D01*
G01*
X183360000Y-51551000D01*
G75*
G02*
X183185000Y-51376000I0J175000D01*
G01*
X183185000Y-49076000D01*
G75*
G02*
X183360000Y-48901000I175000J0D01*
G01*
G37*
G36*
G01*
X184630000Y-48901000D02*
X184980000Y-48901000D01*
G75*
G02*
X185155000Y-49076000I0J-175000D01*
G01*
X185155000Y-51376000D01*
G75*
G02*
X184980000Y-51551000I-175000J0D01*
G01*
X184630000Y-51551000D01*
G75*
G02*
X184455000Y-51376000I0J175000D01*
G01*
X184455000Y-49076000D01*
G75*
G02*
X184630000Y-48901000I175000J0D01*
G01*
G37*
G36*
G01*
X185900000Y-48901000D02*
X186250000Y-48901000D01*
G75*
G02*
X186425000Y-49076000I0J-175000D01*
G01*
X186425000Y-51376000D01*
G75*
G02*
X186250000Y-51551000I-175000J0D01*
G01*
X185900000Y-51551000D01*
G75*
G02*
X185725000Y-51376000I0J175000D01*
G01*
X185725000Y-49076000D01*
G75*
G02*
X185900000Y-48901000I175000J0D01*
G01*
G37*
G36*
G01*
X187170000Y-48901000D02*
X187520000Y-48901000D01*
G75*
G02*
X187695000Y-49076000I0J-175000D01*
G01*
X187695000Y-51376000D01*
G75*
G02*
X187520000Y-51551000I-175000J0D01*
G01*
X187170000Y-51551000D01*
G75*
G02*
X186995000Y-51376000I0J175000D01*
G01*
X186995000Y-49076000D01*
G75*
G02*
X187170000Y-48901000I175000J0D01*
G01*
G37*
G36*
G01*
X188440000Y-48901000D02*
X188790000Y-48901000D01*
G75*
G02*
X188965000Y-49076000I0J-175000D01*
G01*
X188965000Y-51376000D01*
G75*
G02*
X188790000Y-51551000I-175000J0D01*
G01*
X188440000Y-51551000D01*
G75*
G02*
X188265000Y-51376000I0J175000D01*
G01*
X188265000Y-49076000D01*
G75*
G02*
X188440000Y-48901000I175000J0D01*
G01*
G37*
G36*
G01*
X189710000Y-48901000D02*
X190060000Y-48901000D01*
G75*
G02*
X190235000Y-49076000I0J-175000D01*
G01*
X190235000Y-51376000D01*
G75*
G02*
X190060000Y-51551000I-175000J0D01*
G01*
X189710000Y-51551000D01*
G75*
G02*
X189535000Y-51376000I0J175000D01*
G01*
X189535000Y-49076000D01*
G75*
G02*
X189710000Y-48901000I175000J0D01*
G01*
G37*
G36*
G01*
X190980000Y-48901000D02*
X191330000Y-48901000D01*
G75*
G02*
X191505000Y-49076000I0J-175000D01*
G01*
X191505000Y-51376000D01*
G75*
G02*
X191330000Y-51551000I-175000J0D01*
G01*
X190980000Y-51551000D01*
G75*
G02*
X190805000Y-51376000I0J175000D01*
G01*
X190805000Y-49076000D01*
G75*
G02*
X190980000Y-48901000I175000J0D01*
G01*
G37*
G36*
G01*
X192250000Y-48901000D02*
X192600000Y-48901000D01*
G75*
G02*
X192775000Y-49076000I0J-175000D01*
G01*
X192775000Y-51376000D01*
G75*
G02*
X192600000Y-51551000I-175000J0D01*
G01*
X192250000Y-51551000D01*
G75*
G02*
X192075000Y-51376000I0J175000D01*
G01*
X192075000Y-49076000D01*
G75*
G02*
X192250000Y-48901000I175000J0D01*
G01*
G37*
%TD*%
%TO.C,D7*%
G36*
G01*
X73425000Y-19150250D02*
X73425000Y-18187750D01*
G75*
G02*
X73693750Y-17919000I268750J0D01*
G01*
X74231250Y-17919000D01*
G75*
G02*
X74500000Y-18187750I0J-268750D01*
G01*
X74500000Y-19150250D01*
G75*
G02*
X74231250Y-19419000I-268750J0D01*
G01*
X73693750Y-19419000D01*
G75*
G02*
X73425000Y-19150250I0J268750D01*
G01*
G37*
G36*
G01*
X71550000Y-19150250D02*
X71550000Y-18187750D01*
G75*
G02*
X71818750Y-17919000I268750J0D01*
G01*
X72356250Y-17919000D01*
G75*
G02*
X72625000Y-18187750I0J-268750D01*
G01*
X72625000Y-19150250D01*
G75*
G02*
X72356250Y-19419000I-268750J0D01*
G01*
X71818750Y-19419000D01*
G75*
G02*
X71550000Y-19150250I0J268750D01*
G01*
G37*
%TD*%
D13*
%TO.C,S1*%
X18415000Y-128579000D03*
X24915000Y-128579000D03*
X24915000Y-124079000D03*
D14*
X18415000Y-124079000D03*
%TD*%
%TO.C,C13*%
G36*
G01*
X32882000Y-115366625D02*
X32882000Y-116535375D01*
G75*
G02*
X32616375Y-116801000I-265625J0D01*
G01*
X29547625Y-116801000D01*
G75*
G02*
X29282000Y-116535375I0J265625D01*
G01*
X29282000Y-115366625D01*
G75*
G02*
X29547625Y-115101000I265625J0D01*
G01*
X32616375Y-115101000D01*
G75*
G02*
X32882000Y-115366625I0J-265625D01*
G01*
G37*
G36*
G01*
X38282000Y-115366625D02*
X38282000Y-116535375D01*
G75*
G02*
X38016375Y-116801000I-265625J0D01*
G01*
X34947625Y-116801000D01*
G75*
G02*
X34682000Y-116535375I0J265625D01*
G01*
X34682000Y-115366625D01*
G75*
G02*
X34947625Y-115101000I265625J0D01*
G01*
X38016375Y-115101000D01*
G75*
G02*
X38282000Y-115366625I0J-265625D01*
G01*
G37*
%TD*%
%TO.C,C12*%
G36*
G01*
X38785625Y-143013000D02*
X39954375Y-143013000D01*
G75*
G02*
X40220000Y-143278625I0J-265625D01*
G01*
X40220000Y-146347375D01*
G75*
G02*
X39954375Y-146613000I-265625J0D01*
G01*
X38785625Y-146613000D01*
G75*
G02*
X38520000Y-146347375I0J265625D01*
G01*
X38520000Y-143278625D01*
G75*
G02*
X38785625Y-143013000I265625J0D01*
G01*
G37*
G36*
G01*
X38785625Y-137613000D02*
X39954375Y-137613000D01*
G75*
G02*
X40220000Y-137878625I0J-265625D01*
G01*
X40220000Y-140947375D01*
G75*
G02*
X39954375Y-141213000I-265625J0D01*
G01*
X38785625Y-141213000D01*
G75*
G02*
X38520000Y-140947375I0J265625D01*
G01*
X38520000Y-137878625D01*
G75*
G02*
X38785625Y-137613000I265625J0D01*
G01*
G37*
%TD*%
%TO.C,U15*%
G36*
G01*
X43985000Y-18536000D02*
X43985000Y-18286000D01*
G75*
G02*
X44110000Y-18161000I125000J0D01*
G01*
X45435000Y-18161000D01*
G75*
G02*
X45560000Y-18286000I0J-125000D01*
G01*
X45560000Y-18536000D01*
G75*
G02*
X45435000Y-18661000I-125000J0D01*
G01*
X44110000Y-18661000D01*
G75*
G02*
X43985000Y-18536000I0J125000D01*
G01*
G37*
G36*
G01*
X43985000Y-19186000D02*
X43985000Y-18936000D01*
G75*
G02*
X44110000Y-18811000I125000J0D01*
G01*
X45435000Y-18811000D01*
G75*
G02*
X45560000Y-18936000I0J-125000D01*
G01*
X45560000Y-19186000D01*
G75*
G02*
X45435000Y-19311000I-125000J0D01*
G01*
X44110000Y-19311000D01*
G75*
G02*
X43985000Y-19186000I0J125000D01*
G01*
G37*
G36*
G01*
X43985000Y-19836000D02*
X43985000Y-19586000D01*
G75*
G02*
X44110000Y-19461000I125000J0D01*
G01*
X45435000Y-19461000D01*
G75*
G02*
X45560000Y-19586000I0J-125000D01*
G01*
X45560000Y-19836000D01*
G75*
G02*
X45435000Y-19961000I-125000J0D01*
G01*
X44110000Y-19961000D01*
G75*
G02*
X43985000Y-19836000I0J125000D01*
G01*
G37*
G36*
G01*
X43985000Y-20486000D02*
X43985000Y-20236000D01*
G75*
G02*
X44110000Y-20111000I125000J0D01*
G01*
X45435000Y-20111000D01*
G75*
G02*
X45560000Y-20236000I0J-125000D01*
G01*
X45560000Y-20486000D01*
G75*
G02*
X45435000Y-20611000I-125000J0D01*
G01*
X44110000Y-20611000D01*
G75*
G02*
X43985000Y-20486000I0J125000D01*
G01*
G37*
G36*
G01*
X43985000Y-21136000D02*
X43985000Y-20886000D01*
G75*
G02*
X44110000Y-20761000I125000J0D01*
G01*
X45435000Y-20761000D01*
G75*
G02*
X45560000Y-20886000I0J-125000D01*
G01*
X45560000Y-21136000D01*
G75*
G02*
X45435000Y-21261000I-125000J0D01*
G01*
X44110000Y-21261000D01*
G75*
G02*
X43985000Y-21136000I0J125000D01*
G01*
G37*
G36*
G01*
X43985000Y-21786000D02*
X43985000Y-21536000D01*
G75*
G02*
X44110000Y-21411000I125000J0D01*
G01*
X45435000Y-21411000D01*
G75*
G02*
X45560000Y-21536000I0J-125000D01*
G01*
X45560000Y-21786000D01*
G75*
G02*
X45435000Y-21911000I-125000J0D01*
G01*
X44110000Y-21911000D01*
G75*
G02*
X43985000Y-21786000I0J125000D01*
G01*
G37*
G36*
G01*
X43985000Y-22436000D02*
X43985000Y-22186000D01*
G75*
G02*
X44110000Y-22061000I125000J0D01*
G01*
X45435000Y-22061000D01*
G75*
G02*
X45560000Y-22186000I0J-125000D01*
G01*
X45560000Y-22436000D01*
G75*
G02*
X45435000Y-22561000I-125000J0D01*
G01*
X44110000Y-22561000D01*
G75*
G02*
X43985000Y-22436000I0J125000D01*
G01*
G37*
G36*
G01*
X43985000Y-23086000D02*
X43985000Y-22836000D01*
G75*
G02*
X44110000Y-22711000I125000J0D01*
G01*
X45435000Y-22711000D01*
G75*
G02*
X45560000Y-22836000I0J-125000D01*
G01*
X45560000Y-23086000D01*
G75*
G02*
X45435000Y-23211000I-125000J0D01*
G01*
X44110000Y-23211000D01*
G75*
G02*
X43985000Y-23086000I0J125000D01*
G01*
G37*
G36*
G01*
X43985000Y-23736000D02*
X43985000Y-23486000D01*
G75*
G02*
X44110000Y-23361000I125000J0D01*
G01*
X45435000Y-23361000D01*
G75*
G02*
X45560000Y-23486000I0J-125000D01*
G01*
X45560000Y-23736000D01*
G75*
G02*
X45435000Y-23861000I-125000J0D01*
G01*
X44110000Y-23861000D01*
G75*
G02*
X43985000Y-23736000I0J125000D01*
G01*
G37*
G36*
G01*
X43985000Y-24386000D02*
X43985000Y-24136000D01*
G75*
G02*
X44110000Y-24011000I125000J0D01*
G01*
X45435000Y-24011000D01*
G75*
G02*
X45560000Y-24136000I0J-125000D01*
G01*
X45560000Y-24386000D01*
G75*
G02*
X45435000Y-24511000I-125000J0D01*
G01*
X44110000Y-24511000D01*
G75*
G02*
X43985000Y-24386000I0J125000D01*
G01*
G37*
G36*
G01*
X38260000Y-24386000D02*
X38260000Y-24136000D01*
G75*
G02*
X38385000Y-24011000I125000J0D01*
G01*
X39710000Y-24011000D01*
G75*
G02*
X39835000Y-24136000I0J-125000D01*
G01*
X39835000Y-24386000D01*
G75*
G02*
X39710000Y-24511000I-125000J0D01*
G01*
X38385000Y-24511000D01*
G75*
G02*
X38260000Y-24386000I0J125000D01*
G01*
G37*
G36*
G01*
X38260000Y-23736000D02*
X38260000Y-23486000D01*
G75*
G02*
X38385000Y-23361000I125000J0D01*
G01*
X39710000Y-23361000D01*
G75*
G02*
X39835000Y-23486000I0J-125000D01*
G01*
X39835000Y-23736000D01*
G75*
G02*
X39710000Y-23861000I-125000J0D01*
G01*
X38385000Y-23861000D01*
G75*
G02*
X38260000Y-23736000I0J125000D01*
G01*
G37*
G36*
G01*
X38260000Y-23086000D02*
X38260000Y-22836000D01*
G75*
G02*
X38385000Y-22711000I125000J0D01*
G01*
X39710000Y-22711000D01*
G75*
G02*
X39835000Y-22836000I0J-125000D01*
G01*
X39835000Y-23086000D01*
G75*
G02*
X39710000Y-23211000I-125000J0D01*
G01*
X38385000Y-23211000D01*
G75*
G02*
X38260000Y-23086000I0J125000D01*
G01*
G37*
G36*
G01*
X38260000Y-22436000D02*
X38260000Y-22186000D01*
G75*
G02*
X38385000Y-22061000I125000J0D01*
G01*
X39710000Y-22061000D01*
G75*
G02*
X39835000Y-22186000I0J-125000D01*
G01*
X39835000Y-22436000D01*
G75*
G02*
X39710000Y-22561000I-125000J0D01*
G01*
X38385000Y-22561000D01*
G75*
G02*
X38260000Y-22436000I0J125000D01*
G01*
G37*
G36*
G01*
X38260000Y-21786000D02*
X38260000Y-21536000D01*
G75*
G02*
X38385000Y-21411000I125000J0D01*
G01*
X39710000Y-21411000D01*
G75*
G02*
X39835000Y-21536000I0J-125000D01*
G01*
X39835000Y-21786000D01*
G75*
G02*
X39710000Y-21911000I-125000J0D01*
G01*
X38385000Y-21911000D01*
G75*
G02*
X38260000Y-21786000I0J125000D01*
G01*
G37*
G36*
G01*
X38260000Y-21136000D02*
X38260000Y-20886000D01*
G75*
G02*
X38385000Y-20761000I125000J0D01*
G01*
X39710000Y-20761000D01*
G75*
G02*
X39835000Y-20886000I0J-125000D01*
G01*
X39835000Y-21136000D01*
G75*
G02*
X39710000Y-21261000I-125000J0D01*
G01*
X38385000Y-21261000D01*
G75*
G02*
X38260000Y-21136000I0J125000D01*
G01*
G37*
G36*
G01*
X38260000Y-20486000D02*
X38260000Y-20236000D01*
G75*
G02*
X38385000Y-20111000I125000J0D01*
G01*
X39710000Y-20111000D01*
G75*
G02*
X39835000Y-20236000I0J-125000D01*
G01*
X39835000Y-20486000D01*
G75*
G02*
X39710000Y-20611000I-125000J0D01*
G01*
X38385000Y-20611000D01*
G75*
G02*
X38260000Y-20486000I0J125000D01*
G01*
G37*
G36*
G01*
X38260000Y-19836000D02*
X38260000Y-19586000D01*
G75*
G02*
X38385000Y-19461000I125000J0D01*
G01*
X39710000Y-19461000D01*
G75*
G02*
X39835000Y-19586000I0J-125000D01*
G01*
X39835000Y-19836000D01*
G75*
G02*
X39710000Y-19961000I-125000J0D01*
G01*
X38385000Y-19961000D01*
G75*
G02*
X38260000Y-19836000I0J125000D01*
G01*
G37*
G36*
G01*
X38260000Y-19186000D02*
X38260000Y-18936000D01*
G75*
G02*
X38385000Y-18811000I125000J0D01*
G01*
X39710000Y-18811000D01*
G75*
G02*
X39835000Y-18936000I0J-125000D01*
G01*
X39835000Y-19186000D01*
G75*
G02*
X39710000Y-19311000I-125000J0D01*
G01*
X38385000Y-19311000D01*
G75*
G02*
X38260000Y-19186000I0J125000D01*
G01*
G37*
G36*
G01*
X38260000Y-18536000D02*
X38260000Y-18286000D01*
G75*
G02*
X38385000Y-18161000I125000J0D01*
G01*
X39710000Y-18161000D01*
G75*
G02*
X39835000Y-18286000I0J-125000D01*
G01*
X39835000Y-18536000D01*
G75*
G02*
X39710000Y-18661000I-125000J0D01*
G01*
X38385000Y-18661000D01*
G75*
G02*
X38260000Y-18536000I0J125000D01*
G01*
G37*
%TD*%
%TO.C,U13*%
G36*
G01*
X164123000Y-93577000D02*
X164473000Y-93577000D01*
G75*
G02*
X164648000Y-93752000I0J-175000D01*
G01*
X164648000Y-96052000D01*
G75*
G02*
X164473000Y-96227000I-175000J0D01*
G01*
X164123000Y-96227000D01*
G75*
G02*
X163948000Y-96052000I0J175000D01*
G01*
X163948000Y-93752000D01*
G75*
G02*
X164123000Y-93577000I175000J0D01*
G01*
G37*
G36*
G01*
X162853000Y-93577000D02*
X163203000Y-93577000D01*
G75*
G02*
X163378000Y-93752000I0J-175000D01*
G01*
X163378000Y-96052000D01*
G75*
G02*
X163203000Y-96227000I-175000J0D01*
G01*
X162853000Y-96227000D01*
G75*
G02*
X162678000Y-96052000I0J175000D01*
G01*
X162678000Y-93752000D01*
G75*
G02*
X162853000Y-93577000I175000J0D01*
G01*
G37*
G36*
G01*
X161583000Y-93577000D02*
X161933000Y-93577000D01*
G75*
G02*
X162108000Y-93752000I0J-175000D01*
G01*
X162108000Y-96052000D01*
G75*
G02*
X161933000Y-96227000I-175000J0D01*
G01*
X161583000Y-96227000D01*
G75*
G02*
X161408000Y-96052000I0J175000D01*
G01*
X161408000Y-93752000D01*
G75*
G02*
X161583000Y-93577000I175000J0D01*
G01*
G37*
G36*
G01*
X160313000Y-93577000D02*
X160663000Y-93577000D01*
G75*
G02*
X160838000Y-93752000I0J-175000D01*
G01*
X160838000Y-96052000D01*
G75*
G02*
X160663000Y-96227000I-175000J0D01*
G01*
X160313000Y-96227000D01*
G75*
G02*
X160138000Y-96052000I0J175000D01*
G01*
X160138000Y-93752000D01*
G75*
G02*
X160313000Y-93577000I175000J0D01*
G01*
G37*
G36*
G01*
X159043000Y-93577000D02*
X159393000Y-93577000D01*
G75*
G02*
X159568000Y-93752000I0J-175000D01*
G01*
X159568000Y-96052000D01*
G75*
G02*
X159393000Y-96227000I-175000J0D01*
G01*
X159043000Y-96227000D01*
G75*
G02*
X158868000Y-96052000I0J175000D01*
G01*
X158868000Y-93752000D01*
G75*
G02*
X159043000Y-93577000I175000J0D01*
G01*
G37*
G36*
G01*
X157773000Y-93577000D02*
X158123000Y-93577000D01*
G75*
G02*
X158298000Y-93752000I0J-175000D01*
G01*
X158298000Y-96052000D01*
G75*
G02*
X158123000Y-96227000I-175000J0D01*
G01*
X157773000Y-96227000D01*
G75*
G02*
X157598000Y-96052000I0J175000D01*
G01*
X157598000Y-93752000D01*
G75*
G02*
X157773000Y-93577000I175000J0D01*
G01*
G37*
G36*
G01*
X156503000Y-93577000D02*
X156853000Y-93577000D01*
G75*
G02*
X157028000Y-93752000I0J-175000D01*
G01*
X157028000Y-96052000D01*
G75*
G02*
X156853000Y-96227000I-175000J0D01*
G01*
X156503000Y-96227000D01*
G75*
G02*
X156328000Y-96052000I0J175000D01*
G01*
X156328000Y-93752000D01*
G75*
G02*
X156503000Y-93577000I175000J0D01*
G01*
G37*
G36*
G01*
X155233000Y-93577000D02*
X155583000Y-93577000D01*
G75*
G02*
X155758000Y-93752000I0J-175000D01*
G01*
X155758000Y-96052000D01*
G75*
G02*
X155583000Y-96227000I-175000J0D01*
G01*
X155233000Y-96227000D01*
G75*
G02*
X155058000Y-96052000I0J175000D01*
G01*
X155058000Y-93752000D01*
G75*
G02*
X155233000Y-93577000I175000J0D01*
G01*
G37*
G36*
G01*
X153963000Y-93577000D02*
X154313000Y-93577000D01*
G75*
G02*
X154488000Y-93752000I0J-175000D01*
G01*
X154488000Y-96052000D01*
G75*
G02*
X154313000Y-96227000I-175000J0D01*
G01*
X153963000Y-96227000D01*
G75*
G02*
X153788000Y-96052000I0J175000D01*
G01*
X153788000Y-93752000D01*
G75*
G02*
X153963000Y-93577000I175000J0D01*
G01*
G37*
G36*
G01*
X152693000Y-93577000D02*
X153043000Y-93577000D01*
G75*
G02*
X153218000Y-93752000I0J-175000D01*
G01*
X153218000Y-96052000D01*
G75*
G02*
X153043000Y-96227000I-175000J0D01*
G01*
X152693000Y-96227000D01*
G75*
G02*
X152518000Y-96052000I0J175000D01*
G01*
X152518000Y-93752000D01*
G75*
G02*
X152693000Y-93577000I175000J0D01*
G01*
G37*
G36*
G01*
X151423000Y-93577000D02*
X151773000Y-93577000D01*
G75*
G02*
X151948000Y-93752000I0J-175000D01*
G01*
X151948000Y-96052000D01*
G75*
G02*
X151773000Y-96227000I-175000J0D01*
G01*
X151423000Y-96227000D01*
G75*
G02*
X151248000Y-96052000I0J175000D01*
G01*
X151248000Y-93752000D01*
G75*
G02*
X151423000Y-93577000I175000J0D01*
G01*
G37*
G36*
G01*
X150153000Y-93577000D02*
X150503000Y-93577000D01*
G75*
G02*
X150678000Y-93752000I0J-175000D01*
G01*
X150678000Y-96052000D01*
G75*
G02*
X150503000Y-96227000I-175000J0D01*
G01*
X150153000Y-96227000D01*
G75*
G02*
X149978000Y-96052000I0J175000D01*
G01*
X149978000Y-93752000D01*
G75*
G02*
X150153000Y-93577000I175000J0D01*
G01*
G37*
G36*
G01*
X148883000Y-93577000D02*
X149233000Y-93577000D01*
G75*
G02*
X149408000Y-93752000I0J-175000D01*
G01*
X149408000Y-96052000D01*
G75*
G02*
X149233000Y-96227000I-175000J0D01*
G01*
X148883000Y-96227000D01*
G75*
G02*
X148708000Y-96052000I0J175000D01*
G01*
X148708000Y-93752000D01*
G75*
G02*
X148883000Y-93577000I175000J0D01*
G01*
G37*
G36*
G01*
X147613000Y-93577000D02*
X147963000Y-93577000D01*
G75*
G02*
X148138000Y-93752000I0J-175000D01*
G01*
X148138000Y-96052000D01*
G75*
G02*
X147963000Y-96227000I-175000J0D01*
G01*
X147613000Y-96227000D01*
G75*
G02*
X147438000Y-96052000I0J175000D01*
G01*
X147438000Y-93752000D01*
G75*
G02*
X147613000Y-93577000I175000J0D01*
G01*
G37*
G36*
G01*
X146343000Y-93577000D02*
X146693000Y-93577000D01*
G75*
G02*
X146868000Y-93752000I0J-175000D01*
G01*
X146868000Y-96052000D01*
G75*
G02*
X146693000Y-96227000I-175000J0D01*
G01*
X146343000Y-96227000D01*
G75*
G02*
X146168000Y-96052000I0J175000D01*
G01*
X146168000Y-93752000D01*
G75*
G02*
X146343000Y-93577000I175000J0D01*
G01*
G37*
G36*
G01*
X145073000Y-93577000D02*
X145423000Y-93577000D01*
G75*
G02*
X145598000Y-93752000I0J-175000D01*
G01*
X145598000Y-96052000D01*
G75*
G02*
X145423000Y-96227000I-175000J0D01*
G01*
X145073000Y-96227000D01*
G75*
G02*
X144898000Y-96052000I0J175000D01*
G01*
X144898000Y-93752000D01*
G75*
G02*
X145073000Y-93577000I175000J0D01*
G01*
G37*
G36*
G01*
X143803000Y-93577000D02*
X144153000Y-93577000D01*
G75*
G02*
X144328000Y-93752000I0J-175000D01*
G01*
X144328000Y-96052000D01*
G75*
G02*
X144153000Y-96227000I-175000J0D01*
G01*
X143803000Y-96227000D01*
G75*
G02*
X143628000Y-96052000I0J175000D01*
G01*
X143628000Y-93752000D01*
G75*
G02*
X143803000Y-93577000I175000J0D01*
G01*
G37*
G36*
G01*
X142533000Y-93577000D02*
X142883000Y-93577000D01*
G75*
G02*
X143058000Y-93752000I0J-175000D01*
G01*
X143058000Y-96052000D01*
G75*
G02*
X142883000Y-96227000I-175000J0D01*
G01*
X142533000Y-96227000D01*
G75*
G02*
X142358000Y-96052000I0J175000D01*
G01*
X142358000Y-93752000D01*
G75*
G02*
X142533000Y-93577000I175000J0D01*
G01*
G37*
G36*
G01*
X142533000Y-83377000D02*
X142883000Y-83377000D01*
G75*
G02*
X143058000Y-83552000I0J-175000D01*
G01*
X143058000Y-85852000D01*
G75*
G02*
X142883000Y-86027000I-175000J0D01*
G01*
X142533000Y-86027000D01*
G75*
G02*
X142358000Y-85852000I0J175000D01*
G01*
X142358000Y-83552000D01*
G75*
G02*
X142533000Y-83377000I175000J0D01*
G01*
G37*
G36*
G01*
X143803000Y-83377000D02*
X144153000Y-83377000D01*
G75*
G02*
X144328000Y-83552000I0J-175000D01*
G01*
X144328000Y-85852000D01*
G75*
G02*
X144153000Y-86027000I-175000J0D01*
G01*
X143803000Y-86027000D01*
G75*
G02*
X143628000Y-85852000I0J175000D01*
G01*
X143628000Y-83552000D01*
G75*
G02*
X143803000Y-83377000I175000J0D01*
G01*
G37*
G36*
G01*
X145073000Y-83377000D02*
X145423000Y-83377000D01*
G75*
G02*
X145598000Y-83552000I0J-175000D01*
G01*
X145598000Y-85852000D01*
G75*
G02*
X145423000Y-86027000I-175000J0D01*
G01*
X145073000Y-86027000D01*
G75*
G02*
X144898000Y-85852000I0J175000D01*
G01*
X144898000Y-83552000D01*
G75*
G02*
X145073000Y-83377000I175000J0D01*
G01*
G37*
G36*
G01*
X146343000Y-83377000D02*
X146693000Y-83377000D01*
G75*
G02*
X146868000Y-83552000I0J-175000D01*
G01*
X146868000Y-85852000D01*
G75*
G02*
X146693000Y-86027000I-175000J0D01*
G01*
X146343000Y-86027000D01*
G75*
G02*
X146168000Y-85852000I0J175000D01*
G01*
X146168000Y-83552000D01*
G75*
G02*
X146343000Y-83377000I175000J0D01*
G01*
G37*
G36*
G01*
X147613000Y-83377000D02*
X147963000Y-83377000D01*
G75*
G02*
X148138000Y-83552000I0J-175000D01*
G01*
X148138000Y-85852000D01*
G75*
G02*
X147963000Y-86027000I-175000J0D01*
G01*
X147613000Y-86027000D01*
G75*
G02*
X147438000Y-85852000I0J175000D01*
G01*
X147438000Y-83552000D01*
G75*
G02*
X147613000Y-83377000I175000J0D01*
G01*
G37*
G36*
G01*
X148883000Y-83377000D02*
X149233000Y-83377000D01*
G75*
G02*
X149408000Y-83552000I0J-175000D01*
G01*
X149408000Y-85852000D01*
G75*
G02*
X149233000Y-86027000I-175000J0D01*
G01*
X148883000Y-86027000D01*
G75*
G02*
X148708000Y-85852000I0J175000D01*
G01*
X148708000Y-83552000D01*
G75*
G02*
X148883000Y-83377000I175000J0D01*
G01*
G37*
G36*
G01*
X150153000Y-83377000D02*
X150503000Y-83377000D01*
G75*
G02*
X150678000Y-83552000I0J-175000D01*
G01*
X150678000Y-85852000D01*
G75*
G02*
X150503000Y-86027000I-175000J0D01*
G01*
X150153000Y-86027000D01*
G75*
G02*
X149978000Y-85852000I0J175000D01*
G01*
X149978000Y-83552000D01*
G75*
G02*
X150153000Y-83377000I175000J0D01*
G01*
G37*
G36*
G01*
X151423000Y-83377000D02*
X151773000Y-83377000D01*
G75*
G02*
X151948000Y-83552000I0J-175000D01*
G01*
X151948000Y-85852000D01*
G75*
G02*
X151773000Y-86027000I-175000J0D01*
G01*
X151423000Y-86027000D01*
G75*
G02*
X151248000Y-85852000I0J175000D01*
G01*
X151248000Y-83552000D01*
G75*
G02*
X151423000Y-83377000I175000J0D01*
G01*
G37*
G36*
G01*
X152693000Y-83377000D02*
X153043000Y-83377000D01*
G75*
G02*
X153218000Y-83552000I0J-175000D01*
G01*
X153218000Y-85852000D01*
G75*
G02*
X153043000Y-86027000I-175000J0D01*
G01*
X152693000Y-86027000D01*
G75*
G02*
X152518000Y-85852000I0J175000D01*
G01*
X152518000Y-83552000D01*
G75*
G02*
X152693000Y-83377000I175000J0D01*
G01*
G37*
G36*
G01*
X153963000Y-83377000D02*
X154313000Y-83377000D01*
G75*
G02*
X154488000Y-83552000I0J-175000D01*
G01*
X154488000Y-85852000D01*
G75*
G02*
X154313000Y-86027000I-175000J0D01*
G01*
X153963000Y-86027000D01*
G75*
G02*
X153788000Y-85852000I0J175000D01*
G01*
X153788000Y-83552000D01*
G75*
G02*
X153963000Y-83377000I175000J0D01*
G01*
G37*
G36*
G01*
X155233000Y-83377000D02*
X155583000Y-83377000D01*
G75*
G02*
X155758000Y-83552000I0J-175000D01*
G01*
X155758000Y-85852000D01*
G75*
G02*
X155583000Y-86027000I-175000J0D01*
G01*
X155233000Y-86027000D01*
G75*
G02*
X155058000Y-85852000I0J175000D01*
G01*
X155058000Y-83552000D01*
G75*
G02*
X155233000Y-83377000I175000J0D01*
G01*
G37*
G36*
G01*
X156503000Y-83377000D02*
X156853000Y-83377000D01*
G75*
G02*
X157028000Y-83552000I0J-175000D01*
G01*
X157028000Y-85852000D01*
G75*
G02*
X156853000Y-86027000I-175000J0D01*
G01*
X156503000Y-86027000D01*
G75*
G02*
X156328000Y-85852000I0J175000D01*
G01*
X156328000Y-83552000D01*
G75*
G02*
X156503000Y-83377000I175000J0D01*
G01*
G37*
G36*
G01*
X157773000Y-83377000D02*
X158123000Y-83377000D01*
G75*
G02*
X158298000Y-83552000I0J-175000D01*
G01*
X158298000Y-85852000D01*
G75*
G02*
X158123000Y-86027000I-175000J0D01*
G01*
X157773000Y-86027000D01*
G75*
G02*
X157598000Y-85852000I0J175000D01*
G01*
X157598000Y-83552000D01*
G75*
G02*
X157773000Y-83377000I175000J0D01*
G01*
G37*
G36*
G01*
X159043000Y-83377000D02*
X159393000Y-83377000D01*
G75*
G02*
X159568000Y-83552000I0J-175000D01*
G01*
X159568000Y-85852000D01*
G75*
G02*
X159393000Y-86027000I-175000J0D01*
G01*
X159043000Y-86027000D01*
G75*
G02*
X158868000Y-85852000I0J175000D01*
G01*
X158868000Y-83552000D01*
G75*
G02*
X159043000Y-83377000I175000J0D01*
G01*
G37*
G36*
G01*
X160313000Y-83377000D02*
X160663000Y-83377000D01*
G75*
G02*
X160838000Y-83552000I0J-175000D01*
G01*
X160838000Y-85852000D01*
G75*
G02*
X160663000Y-86027000I-175000J0D01*
G01*
X160313000Y-86027000D01*
G75*
G02*
X160138000Y-85852000I0J175000D01*
G01*
X160138000Y-83552000D01*
G75*
G02*
X160313000Y-83377000I175000J0D01*
G01*
G37*
G36*
G01*
X161583000Y-83377000D02*
X161933000Y-83377000D01*
G75*
G02*
X162108000Y-83552000I0J-175000D01*
G01*
X162108000Y-85852000D01*
G75*
G02*
X161933000Y-86027000I-175000J0D01*
G01*
X161583000Y-86027000D01*
G75*
G02*
X161408000Y-85852000I0J175000D01*
G01*
X161408000Y-83552000D01*
G75*
G02*
X161583000Y-83377000I175000J0D01*
G01*
G37*
G36*
G01*
X162853000Y-83377000D02*
X163203000Y-83377000D01*
G75*
G02*
X163378000Y-83552000I0J-175000D01*
G01*
X163378000Y-85852000D01*
G75*
G02*
X163203000Y-86027000I-175000J0D01*
G01*
X162853000Y-86027000D01*
G75*
G02*
X162678000Y-85852000I0J175000D01*
G01*
X162678000Y-83552000D01*
G75*
G02*
X162853000Y-83377000I175000J0D01*
G01*
G37*
G36*
G01*
X164123000Y-83377000D02*
X164473000Y-83377000D01*
G75*
G02*
X164648000Y-83552000I0J-175000D01*
G01*
X164648000Y-85852000D01*
G75*
G02*
X164473000Y-86027000I-175000J0D01*
G01*
X164123000Y-86027000D01*
G75*
G02*
X163948000Y-85852000I0J175000D01*
G01*
X163948000Y-83552000D01*
G75*
G02*
X164123000Y-83377000I175000J0D01*
G01*
G37*
%TD*%
%TO.C,U12*%
G36*
G01*
X192123000Y-93577000D02*
X192473000Y-93577000D01*
G75*
G02*
X192648000Y-93752000I0J-175000D01*
G01*
X192648000Y-96052000D01*
G75*
G02*
X192473000Y-96227000I-175000J0D01*
G01*
X192123000Y-96227000D01*
G75*
G02*
X191948000Y-96052000I0J175000D01*
G01*
X191948000Y-93752000D01*
G75*
G02*
X192123000Y-93577000I175000J0D01*
G01*
G37*
G36*
G01*
X190853000Y-93577000D02*
X191203000Y-93577000D01*
G75*
G02*
X191378000Y-93752000I0J-175000D01*
G01*
X191378000Y-96052000D01*
G75*
G02*
X191203000Y-96227000I-175000J0D01*
G01*
X190853000Y-96227000D01*
G75*
G02*
X190678000Y-96052000I0J175000D01*
G01*
X190678000Y-93752000D01*
G75*
G02*
X190853000Y-93577000I175000J0D01*
G01*
G37*
G36*
G01*
X189583000Y-93577000D02*
X189933000Y-93577000D01*
G75*
G02*
X190108000Y-93752000I0J-175000D01*
G01*
X190108000Y-96052000D01*
G75*
G02*
X189933000Y-96227000I-175000J0D01*
G01*
X189583000Y-96227000D01*
G75*
G02*
X189408000Y-96052000I0J175000D01*
G01*
X189408000Y-93752000D01*
G75*
G02*
X189583000Y-93577000I175000J0D01*
G01*
G37*
G36*
G01*
X188313000Y-93577000D02*
X188663000Y-93577000D01*
G75*
G02*
X188838000Y-93752000I0J-175000D01*
G01*
X188838000Y-96052000D01*
G75*
G02*
X188663000Y-96227000I-175000J0D01*
G01*
X188313000Y-96227000D01*
G75*
G02*
X188138000Y-96052000I0J175000D01*
G01*
X188138000Y-93752000D01*
G75*
G02*
X188313000Y-93577000I175000J0D01*
G01*
G37*
G36*
G01*
X187043000Y-93577000D02*
X187393000Y-93577000D01*
G75*
G02*
X187568000Y-93752000I0J-175000D01*
G01*
X187568000Y-96052000D01*
G75*
G02*
X187393000Y-96227000I-175000J0D01*
G01*
X187043000Y-96227000D01*
G75*
G02*
X186868000Y-96052000I0J175000D01*
G01*
X186868000Y-93752000D01*
G75*
G02*
X187043000Y-93577000I175000J0D01*
G01*
G37*
G36*
G01*
X185773000Y-93577000D02*
X186123000Y-93577000D01*
G75*
G02*
X186298000Y-93752000I0J-175000D01*
G01*
X186298000Y-96052000D01*
G75*
G02*
X186123000Y-96227000I-175000J0D01*
G01*
X185773000Y-96227000D01*
G75*
G02*
X185598000Y-96052000I0J175000D01*
G01*
X185598000Y-93752000D01*
G75*
G02*
X185773000Y-93577000I175000J0D01*
G01*
G37*
G36*
G01*
X184503000Y-93577000D02*
X184853000Y-93577000D01*
G75*
G02*
X185028000Y-93752000I0J-175000D01*
G01*
X185028000Y-96052000D01*
G75*
G02*
X184853000Y-96227000I-175000J0D01*
G01*
X184503000Y-96227000D01*
G75*
G02*
X184328000Y-96052000I0J175000D01*
G01*
X184328000Y-93752000D01*
G75*
G02*
X184503000Y-93577000I175000J0D01*
G01*
G37*
G36*
G01*
X183233000Y-93577000D02*
X183583000Y-93577000D01*
G75*
G02*
X183758000Y-93752000I0J-175000D01*
G01*
X183758000Y-96052000D01*
G75*
G02*
X183583000Y-96227000I-175000J0D01*
G01*
X183233000Y-96227000D01*
G75*
G02*
X183058000Y-96052000I0J175000D01*
G01*
X183058000Y-93752000D01*
G75*
G02*
X183233000Y-93577000I175000J0D01*
G01*
G37*
G36*
G01*
X181963000Y-93577000D02*
X182313000Y-93577000D01*
G75*
G02*
X182488000Y-93752000I0J-175000D01*
G01*
X182488000Y-96052000D01*
G75*
G02*
X182313000Y-96227000I-175000J0D01*
G01*
X181963000Y-96227000D01*
G75*
G02*
X181788000Y-96052000I0J175000D01*
G01*
X181788000Y-93752000D01*
G75*
G02*
X181963000Y-93577000I175000J0D01*
G01*
G37*
G36*
G01*
X180693000Y-93577000D02*
X181043000Y-93577000D01*
G75*
G02*
X181218000Y-93752000I0J-175000D01*
G01*
X181218000Y-96052000D01*
G75*
G02*
X181043000Y-96227000I-175000J0D01*
G01*
X180693000Y-96227000D01*
G75*
G02*
X180518000Y-96052000I0J175000D01*
G01*
X180518000Y-93752000D01*
G75*
G02*
X180693000Y-93577000I175000J0D01*
G01*
G37*
G36*
G01*
X179423000Y-93577000D02*
X179773000Y-93577000D01*
G75*
G02*
X179948000Y-93752000I0J-175000D01*
G01*
X179948000Y-96052000D01*
G75*
G02*
X179773000Y-96227000I-175000J0D01*
G01*
X179423000Y-96227000D01*
G75*
G02*
X179248000Y-96052000I0J175000D01*
G01*
X179248000Y-93752000D01*
G75*
G02*
X179423000Y-93577000I175000J0D01*
G01*
G37*
G36*
G01*
X178153000Y-93577000D02*
X178503000Y-93577000D01*
G75*
G02*
X178678000Y-93752000I0J-175000D01*
G01*
X178678000Y-96052000D01*
G75*
G02*
X178503000Y-96227000I-175000J0D01*
G01*
X178153000Y-96227000D01*
G75*
G02*
X177978000Y-96052000I0J175000D01*
G01*
X177978000Y-93752000D01*
G75*
G02*
X178153000Y-93577000I175000J0D01*
G01*
G37*
G36*
G01*
X176883000Y-93577000D02*
X177233000Y-93577000D01*
G75*
G02*
X177408000Y-93752000I0J-175000D01*
G01*
X177408000Y-96052000D01*
G75*
G02*
X177233000Y-96227000I-175000J0D01*
G01*
X176883000Y-96227000D01*
G75*
G02*
X176708000Y-96052000I0J175000D01*
G01*
X176708000Y-93752000D01*
G75*
G02*
X176883000Y-93577000I175000J0D01*
G01*
G37*
G36*
G01*
X175613000Y-93577000D02*
X175963000Y-93577000D01*
G75*
G02*
X176138000Y-93752000I0J-175000D01*
G01*
X176138000Y-96052000D01*
G75*
G02*
X175963000Y-96227000I-175000J0D01*
G01*
X175613000Y-96227000D01*
G75*
G02*
X175438000Y-96052000I0J175000D01*
G01*
X175438000Y-93752000D01*
G75*
G02*
X175613000Y-93577000I175000J0D01*
G01*
G37*
G36*
G01*
X174343000Y-93577000D02*
X174693000Y-93577000D01*
G75*
G02*
X174868000Y-93752000I0J-175000D01*
G01*
X174868000Y-96052000D01*
G75*
G02*
X174693000Y-96227000I-175000J0D01*
G01*
X174343000Y-96227000D01*
G75*
G02*
X174168000Y-96052000I0J175000D01*
G01*
X174168000Y-93752000D01*
G75*
G02*
X174343000Y-93577000I175000J0D01*
G01*
G37*
G36*
G01*
X173073000Y-93577000D02*
X173423000Y-93577000D01*
G75*
G02*
X173598000Y-93752000I0J-175000D01*
G01*
X173598000Y-96052000D01*
G75*
G02*
X173423000Y-96227000I-175000J0D01*
G01*
X173073000Y-96227000D01*
G75*
G02*
X172898000Y-96052000I0J175000D01*
G01*
X172898000Y-93752000D01*
G75*
G02*
X173073000Y-93577000I175000J0D01*
G01*
G37*
G36*
G01*
X171803000Y-93577000D02*
X172153000Y-93577000D01*
G75*
G02*
X172328000Y-93752000I0J-175000D01*
G01*
X172328000Y-96052000D01*
G75*
G02*
X172153000Y-96227000I-175000J0D01*
G01*
X171803000Y-96227000D01*
G75*
G02*
X171628000Y-96052000I0J175000D01*
G01*
X171628000Y-93752000D01*
G75*
G02*
X171803000Y-93577000I175000J0D01*
G01*
G37*
G36*
G01*
X170533000Y-93577000D02*
X170883000Y-93577000D01*
G75*
G02*
X171058000Y-93752000I0J-175000D01*
G01*
X171058000Y-96052000D01*
G75*
G02*
X170883000Y-96227000I-175000J0D01*
G01*
X170533000Y-96227000D01*
G75*
G02*
X170358000Y-96052000I0J175000D01*
G01*
X170358000Y-93752000D01*
G75*
G02*
X170533000Y-93577000I175000J0D01*
G01*
G37*
G36*
G01*
X170533000Y-83377000D02*
X170883000Y-83377000D01*
G75*
G02*
X171058000Y-83552000I0J-175000D01*
G01*
X171058000Y-85852000D01*
G75*
G02*
X170883000Y-86027000I-175000J0D01*
G01*
X170533000Y-86027000D01*
G75*
G02*
X170358000Y-85852000I0J175000D01*
G01*
X170358000Y-83552000D01*
G75*
G02*
X170533000Y-83377000I175000J0D01*
G01*
G37*
G36*
G01*
X171803000Y-83377000D02*
X172153000Y-83377000D01*
G75*
G02*
X172328000Y-83552000I0J-175000D01*
G01*
X172328000Y-85852000D01*
G75*
G02*
X172153000Y-86027000I-175000J0D01*
G01*
X171803000Y-86027000D01*
G75*
G02*
X171628000Y-85852000I0J175000D01*
G01*
X171628000Y-83552000D01*
G75*
G02*
X171803000Y-83377000I175000J0D01*
G01*
G37*
G36*
G01*
X173073000Y-83377000D02*
X173423000Y-83377000D01*
G75*
G02*
X173598000Y-83552000I0J-175000D01*
G01*
X173598000Y-85852000D01*
G75*
G02*
X173423000Y-86027000I-175000J0D01*
G01*
X173073000Y-86027000D01*
G75*
G02*
X172898000Y-85852000I0J175000D01*
G01*
X172898000Y-83552000D01*
G75*
G02*
X173073000Y-83377000I175000J0D01*
G01*
G37*
G36*
G01*
X174343000Y-83377000D02*
X174693000Y-83377000D01*
G75*
G02*
X174868000Y-83552000I0J-175000D01*
G01*
X174868000Y-85852000D01*
G75*
G02*
X174693000Y-86027000I-175000J0D01*
G01*
X174343000Y-86027000D01*
G75*
G02*
X174168000Y-85852000I0J175000D01*
G01*
X174168000Y-83552000D01*
G75*
G02*
X174343000Y-83377000I175000J0D01*
G01*
G37*
G36*
G01*
X175613000Y-83377000D02*
X175963000Y-83377000D01*
G75*
G02*
X176138000Y-83552000I0J-175000D01*
G01*
X176138000Y-85852000D01*
G75*
G02*
X175963000Y-86027000I-175000J0D01*
G01*
X175613000Y-86027000D01*
G75*
G02*
X175438000Y-85852000I0J175000D01*
G01*
X175438000Y-83552000D01*
G75*
G02*
X175613000Y-83377000I175000J0D01*
G01*
G37*
G36*
G01*
X176883000Y-83377000D02*
X177233000Y-83377000D01*
G75*
G02*
X177408000Y-83552000I0J-175000D01*
G01*
X177408000Y-85852000D01*
G75*
G02*
X177233000Y-86027000I-175000J0D01*
G01*
X176883000Y-86027000D01*
G75*
G02*
X176708000Y-85852000I0J175000D01*
G01*
X176708000Y-83552000D01*
G75*
G02*
X176883000Y-83377000I175000J0D01*
G01*
G37*
G36*
G01*
X178153000Y-83377000D02*
X178503000Y-83377000D01*
G75*
G02*
X178678000Y-83552000I0J-175000D01*
G01*
X178678000Y-85852000D01*
G75*
G02*
X178503000Y-86027000I-175000J0D01*
G01*
X178153000Y-86027000D01*
G75*
G02*
X177978000Y-85852000I0J175000D01*
G01*
X177978000Y-83552000D01*
G75*
G02*
X178153000Y-83377000I175000J0D01*
G01*
G37*
G36*
G01*
X179423000Y-83377000D02*
X179773000Y-83377000D01*
G75*
G02*
X179948000Y-83552000I0J-175000D01*
G01*
X179948000Y-85852000D01*
G75*
G02*
X179773000Y-86027000I-175000J0D01*
G01*
X179423000Y-86027000D01*
G75*
G02*
X179248000Y-85852000I0J175000D01*
G01*
X179248000Y-83552000D01*
G75*
G02*
X179423000Y-83377000I175000J0D01*
G01*
G37*
G36*
G01*
X180693000Y-83377000D02*
X181043000Y-83377000D01*
G75*
G02*
X181218000Y-83552000I0J-175000D01*
G01*
X181218000Y-85852000D01*
G75*
G02*
X181043000Y-86027000I-175000J0D01*
G01*
X180693000Y-86027000D01*
G75*
G02*
X180518000Y-85852000I0J175000D01*
G01*
X180518000Y-83552000D01*
G75*
G02*
X180693000Y-83377000I175000J0D01*
G01*
G37*
G36*
G01*
X181963000Y-83377000D02*
X182313000Y-83377000D01*
G75*
G02*
X182488000Y-83552000I0J-175000D01*
G01*
X182488000Y-85852000D01*
G75*
G02*
X182313000Y-86027000I-175000J0D01*
G01*
X181963000Y-86027000D01*
G75*
G02*
X181788000Y-85852000I0J175000D01*
G01*
X181788000Y-83552000D01*
G75*
G02*
X181963000Y-83377000I175000J0D01*
G01*
G37*
G36*
G01*
X183233000Y-83377000D02*
X183583000Y-83377000D01*
G75*
G02*
X183758000Y-83552000I0J-175000D01*
G01*
X183758000Y-85852000D01*
G75*
G02*
X183583000Y-86027000I-175000J0D01*
G01*
X183233000Y-86027000D01*
G75*
G02*
X183058000Y-85852000I0J175000D01*
G01*
X183058000Y-83552000D01*
G75*
G02*
X183233000Y-83377000I175000J0D01*
G01*
G37*
G36*
G01*
X184503000Y-83377000D02*
X184853000Y-83377000D01*
G75*
G02*
X185028000Y-83552000I0J-175000D01*
G01*
X185028000Y-85852000D01*
G75*
G02*
X184853000Y-86027000I-175000J0D01*
G01*
X184503000Y-86027000D01*
G75*
G02*
X184328000Y-85852000I0J175000D01*
G01*
X184328000Y-83552000D01*
G75*
G02*
X184503000Y-83377000I175000J0D01*
G01*
G37*
G36*
G01*
X185773000Y-83377000D02*
X186123000Y-83377000D01*
G75*
G02*
X186298000Y-83552000I0J-175000D01*
G01*
X186298000Y-85852000D01*
G75*
G02*
X186123000Y-86027000I-175000J0D01*
G01*
X185773000Y-86027000D01*
G75*
G02*
X185598000Y-85852000I0J175000D01*
G01*
X185598000Y-83552000D01*
G75*
G02*
X185773000Y-83377000I175000J0D01*
G01*
G37*
G36*
G01*
X187043000Y-83377000D02*
X187393000Y-83377000D01*
G75*
G02*
X187568000Y-83552000I0J-175000D01*
G01*
X187568000Y-85852000D01*
G75*
G02*
X187393000Y-86027000I-175000J0D01*
G01*
X187043000Y-86027000D01*
G75*
G02*
X186868000Y-85852000I0J175000D01*
G01*
X186868000Y-83552000D01*
G75*
G02*
X187043000Y-83377000I175000J0D01*
G01*
G37*
G36*
G01*
X188313000Y-83377000D02*
X188663000Y-83377000D01*
G75*
G02*
X188838000Y-83552000I0J-175000D01*
G01*
X188838000Y-85852000D01*
G75*
G02*
X188663000Y-86027000I-175000J0D01*
G01*
X188313000Y-86027000D01*
G75*
G02*
X188138000Y-85852000I0J175000D01*
G01*
X188138000Y-83552000D01*
G75*
G02*
X188313000Y-83377000I175000J0D01*
G01*
G37*
G36*
G01*
X189583000Y-83377000D02*
X189933000Y-83377000D01*
G75*
G02*
X190108000Y-83552000I0J-175000D01*
G01*
X190108000Y-85852000D01*
G75*
G02*
X189933000Y-86027000I-175000J0D01*
G01*
X189583000Y-86027000D01*
G75*
G02*
X189408000Y-85852000I0J175000D01*
G01*
X189408000Y-83552000D01*
G75*
G02*
X189583000Y-83377000I175000J0D01*
G01*
G37*
G36*
G01*
X190853000Y-83377000D02*
X191203000Y-83377000D01*
G75*
G02*
X191378000Y-83552000I0J-175000D01*
G01*
X191378000Y-85852000D01*
G75*
G02*
X191203000Y-86027000I-175000J0D01*
G01*
X190853000Y-86027000D01*
G75*
G02*
X190678000Y-85852000I0J175000D01*
G01*
X190678000Y-83552000D01*
G75*
G02*
X190853000Y-83377000I175000J0D01*
G01*
G37*
G36*
G01*
X192123000Y-83377000D02*
X192473000Y-83377000D01*
G75*
G02*
X192648000Y-83552000I0J-175000D01*
G01*
X192648000Y-85852000D01*
G75*
G02*
X192473000Y-86027000I-175000J0D01*
G01*
X192123000Y-86027000D01*
G75*
G02*
X191948000Y-85852000I0J175000D01*
G01*
X191948000Y-83552000D01*
G75*
G02*
X192123000Y-83377000I175000J0D01*
G01*
G37*
%TD*%
%TO.C,U11*%
G36*
G01*
X164123000Y-110815000D02*
X164473000Y-110815000D01*
G75*
G02*
X164648000Y-110990000I0J-175000D01*
G01*
X164648000Y-113290000D01*
G75*
G02*
X164473000Y-113465000I-175000J0D01*
G01*
X164123000Y-113465000D01*
G75*
G02*
X163948000Y-113290000I0J175000D01*
G01*
X163948000Y-110990000D01*
G75*
G02*
X164123000Y-110815000I175000J0D01*
G01*
G37*
G36*
G01*
X162853000Y-110815000D02*
X163203000Y-110815000D01*
G75*
G02*
X163378000Y-110990000I0J-175000D01*
G01*
X163378000Y-113290000D01*
G75*
G02*
X163203000Y-113465000I-175000J0D01*
G01*
X162853000Y-113465000D01*
G75*
G02*
X162678000Y-113290000I0J175000D01*
G01*
X162678000Y-110990000D01*
G75*
G02*
X162853000Y-110815000I175000J0D01*
G01*
G37*
G36*
G01*
X161583000Y-110815000D02*
X161933000Y-110815000D01*
G75*
G02*
X162108000Y-110990000I0J-175000D01*
G01*
X162108000Y-113290000D01*
G75*
G02*
X161933000Y-113465000I-175000J0D01*
G01*
X161583000Y-113465000D01*
G75*
G02*
X161408000Y-113290000I0J175000D01*
G01*
X161408000Y-110990000D01*
G75*
G02*
X161583000Y-110815000I175000J0D01*
G01*
G37*
G36*
G01*
X160313000Y-110815000D02*
X160663000Y-110815000D01*
G75*
G02*
X160838000Y-110990000I0J-175000D01*
G01*
X160838000Y-113290000D01*
G75*
G02*
X160663000Y-113465000I-175000J0D01*
G01*
X160313000Y-113465000D01*
G75*
G02*
X160138000Y-113290000I0J175000D01*
G01*
X160138000Y-110990000D01*
G75*
G02*
X160313000Y-110815000I175000J0D01*
G01*
G37*
G36*
G01*
X159043000Y-110815000D02*
X159393000Y-110815000D01*
G75*
G02*
X159568000Y-110990000I0J-175000D01*
G01*
X159568000Y-113290000D01*
G75*
G02*
X159393000Y-113465000I-175000J0D01*
G01*
X159043000Y-113465000D01*
G75*
G02*
X158868000Y-113290000I0J175000D01*
G01*
X158868000Y-110990000D01*
G75*
G02*
X159043000Y-110815000I175000J0D01*
G01*
G37*
G36*
G01*
X157773000Y-110815000D02*
X158123000Y-110815000D01*
G75*
G02*
X158298000Y-110990000I0J-175000D01*
G01*
X158298000Y-113290000D01*
G75*
G02*
X158123000Y-113465000I-175000J0D01*
G01*
X157773000Y-113465000D01*
G75*
G02*
X157598000Y-113290000I0J175000D01*
G01*
X157598000Y-110990000D01*
G75*
G02*
X157773000Y-110815000I175000J0D01*
G01*
G37*
G36*
G01*
X156503000Y-110815000D02*
X156853000Y-110815000D01*
G75*
G02*
X157028000Y-110990000I0J-175000D01*
G01*
X157028000Y-113290000D01*
G75*
G02*
X156853000Y-113465000I-175000J0D01*
G01*
X156503000Y-113465000D01*
G75*
G02*
X156328000Y-113290000I0J175000D01*
G01*
X156328000Y-110990000D01*
G75*
G02*
X156503000Y-110815000I175000J0D01*
G01*
G37*
G36*
G01*
X155233000Y-110815000D02*
X155583000Y-110815000D01*
G75*
G02*
X155758000Y-110990000I0J-175000D01*
G01*
X155758000Y-113290000D01*
G75*
G02*
X155583000Y-113465000I-175000J0D01*
G01*
X155233000Y-113465000D01*
G75*
G02*
X155058000Y-113290000I0J175000D01*
G01*
X155058000Y-110990000D01*
G75*
G02*
X155233000Y-110815000I175000J0D01*
G01*
G37*
G36*
G01*
X153963000Y-110815000D02*
X154313000Y-110815000D01*
G75*
G02*
X154488000Y-110990000I0J-175000D01*
G01*
X154488000Y-113290000D01*
G75*
G02*
X154313000Y-113465000I-175000J0D01*
G01*
X153963000Y-113465000D01*
G75*
G02*
X153788000Y-113290000I0J175000D01*
G01*
X153788000Y-110990000D01*
G75*
G02*
X153963000Y-110815000I175000J0D01*
G01*
G37*
G36*
G01*
X152693000Y-110815000D02*
X153043000Y-110815000D01*
G75*
G02*
X153218000Y-110990000I0J-175000D01*
G01*
X153218000Y-113290000D01*
G75*
G02*
X153043000Y-113465000I-175000J0D01*
G01*
X152693000Y-113465000D01*
G75*
G02*
X152518000Y-113290000I0J175000D01*
G01*
X152518000Y-110990000D01*
G75*
G02*
X152693000Y-110815000I175000J0D01*
G01*
G37*
G36*
G01*
X151423000Y-110815000D02*
X151773000Y-110815000D01*
G75*
G02*
X151948000Y-110990000I0J-175000D01*
G01*
X151948000Y-113290000D01*
G75*
G02*
X151773000Y-113465000I-175000J0D01*
G01*
X151423000Y-113465000D01*
G75*
G02*
X151248000Y-113290000I0J175000D01*
G01*
X151248000Y-110990000D01*
G75*
G02*
X151423000Y-110815000I175000J0D01*
G01*
G37*
G36*
G01*
X150153000Y-110815000D02*
X150503000Y-110815000D01*
G75*
G02*
X150678000Y-110990000I0J-175000D01*
G01*
X150678000Y-113290000D01*
G75*
G02*
X150503000Y-113465000I-175000J0D01*
G01*
X150153000Y-113465000D01*
G75*
G02*
X149978000Y-113290000I0J175000D01*
G01*
X149978000Y-110990000D01*
G75*
G02*
X150153000Y-110815000I175000J0D01*
G01*
G37*
G36*
G01*
X148883000Y-110815000D02*
X149233000Y-110815000D01*
G75*
G02*
X149408000Y-110990000I0J-175000D01*
G01*
X149408000Y-113290000D01*
G75*
G02*
X149233000Y-113465000I-175000J0D01*
G01*
X148883000Y-113465000D01*
G75*
G02*
X148708000Y-113290000I0J175000D01*
G01*
X148708000Y-110990000D01*
G75*
G02*
X148883000Y-110815000I175000J0D01*
G01*
G37*
G36*
G01*
X147613000Y-110815000D02*
X147963000Y-110815000D01*
G75*
G02*
X148138000Y-110990000I0J-175000D01*
G01*
X148138000Y-113290000D01*
G75*
G02*
X147963000Y-113465000I-175000J0D01*
G01*
X147613000Y-113465000D01*
G75*
G02*
X147438000Y-113290000I0J175000D01*
G01*
X147438000Y-110990000D01*
G75*
G02*
X147613000Y-110815000I175000J0D01*
G01*
G37*
G36*
G01*
X146343000Y-110815000D02*
X146693000Y-110815000D01*
G75*
G02*
X146868000Y-110990000I0J-175000D01*
G01*
X146868000Y-113290000D01*
G75*
G02*
X146693000Y-113465000I-175000J0D01*
G01*
X146343000Y-113465000D01*
G75*
G02*
X146168000Y-113290000I0J175000D01*
G01*
X146168000Y-110990000D01*
G75*
G02*
X146343000Y-110815000I175000J0D01*
G01*
G37*
G36*
G01*
X145073000Y-110815000D02*
X145423000Y-110815000D01*
G75*
G02*
X145598000Y-110990000I0J-175000D01*
G01*
X145598000Y-113290000D01*
G75*
G02*
X145423000Y-113465000I-175000J0D01*
G01*
X145073000Y-113465000D01*
G75*
G02*
X144898000Y-113290000I0J175000D01*
G01*
X144898000Y-110990000D01*
G75*
G02*
X145073000Y-110815000I175000J0D01*
G01*
G37*
G36*
G01*
X143803000Y-110815000D02*
X144153000Y-110815000D01*
G75*
G02*
X144328000Y-110990000I0J-175000D01*
G01*
X144328000Y-113290000D01*
G75*
G02*
X144153000Y-113465000I-175000J0D01*
G01*
X143803000Y-113465000D01*
G75*
G02*
X143628000Y-113290000I0J175000D01*
G01*
X143628000Y-110990000D01*
G75*
G02*
X143803000Y-110815000I175000J0D01*
G01*
G37*
G36*
G01*
X142533000Y-110815000D02*
X142883000Y-110815000D01*
G75*
G02*
X143058000Y-110990000I0J-175000D01*
G01*
X143058000Y-113290000D01*
G75*
G02*
X142883000Y-113465000I-175000J0D01*
G01*
X142533000Y-113465000D01*
G75*
G02*
X142358000Y-113290000I0J175000D01*
G01*
X142358000Y-110990000D01*
G75*
G02*
X142533000Y-110815000I175000J0D01*
G01*
G37*
G36*
G01*
X142533000Y-100615000D02*
X142883000Y-100615000D01*
G75*
G02*
X143058000Y-100790000I0J-175000D01*
G01*
X143058000Y-103090000D01*
G75*
G02*
X142883000Y-103265000I-175000J0D01*
G01*
X142533000Y-103265000D01*
G75*
G02*
X142358000Y-103090000I0J175000D01*
G01*
X142358000Y-100790000D01*
G75*
G02*
X142533000Y-100615000I175000J0D01*
G01*
G37*
G36*
G01*
X143803000Y-100615000D02*
X144153000Y-100615000D01*
G75*
G02*
X144328000Y-100790000I0J-175000D01*
G01*
X144328000Y-103090000D01*
G75*
G02*
X144153000Y-103265000I-175000J0D01*
G01*
X143803000Y-103265000D01*
G75*
G02*
X143628000Y-103090000I0J175000D01*
G01*
X143628000Y-100790000D01*
G75*
G02*
X143803000Y-100615000I175000J0D01*
G01*
G37*
G36*
G01*
X145073000Y-100615000D02*
X145423000Y-100615000D01*
G75*
G02*
X145598000Y-100790000I0J-175000D01*
G01*
X145598000Y-103090000D01*
G75*
G02*
X145423000Y-103265000I-175000J0D01*
G01*
X145073000Y-103265000D01*
G75*
G02*
X144898000Y-103090000I0J175000D01*
G01*
X144898000Y-100790000D01*
G75*
G02*
X145073000Y-100615000I175000J0D01*
G01*
G37*
G36*
G01*
X146343000Y-100615000D02*
X146693000Y-100615000D01*
G75*
G02*
X146868000Y-100790000I0J-175000D01*
G01*
X146868000Y-103090000D01*
G75*
G02*
X146693000Y-103265000I-175000J0D01*
G01*
X146343000Y-103265000D01*
G75*
G02*
X146168000Y-103090000I0J175000D01*
G01*
X146168000Y-100790000D01*
G75*
G02*
X146343000Y-100615000I175000J0D01*
G01*
G37*
G36*
G01*
X147613000Y-100615000D02*
X147963000Y-100615000D01*
G75*
G02*
X148138000Y-100790000I0J-175000D01*
G01*
X148138000Y-103090000D01*
G75*
G02*
X147963000Y-103265000I-175000J0D01*
G01*
X147613000Y-103265000D01*
G75*
G02*
X147438000Y-103090000I0J175000D01*
G01*
X147438000Y-100790000D01*
G75*
G02*
X147613000Y-100615000I175000J0D01*
G01*
G37*
G36*
G01*
X148883000Y-100615000D02*
X149233000Y-100615000D01*
G75*
G02*
X149408000Y-100790000I0J-175000D01*
G01*
X149408000Y-103090000D01*
G75*
G02*
X149233000Y-103265000I-175000J0D01*
G01*
X148883000Y-103265000D01*
G75*
G02*
X148708000Y-103090000I0J175000D01*
G01*
X148708000Y-100790000D01*
G75*
G02*
X148883000Y-100615000I175000J0D01*
G01*
G37*
G36*
G01*
X150153000Y-100615000D02*
X150503000Y-100615000D01*
G75*
G02*
X150678000Y-100790000I0J-175000D01*
G01*
X150678000Y-103090000D01*
G75*
G02*
X150503000Y-103265000I-175000J0D01*
G01*
X150153000Y-103265000D01*
G75*
G02*
X149978000Y-103090000I0J175000D01*
G01*
X149978000Y-100790000D01*
G75*
G02*
X150153000Y-100615000I175000J0D01*
G01*
G37*
G36*
G01*
X151423000Y-100615000D02*
X151773000Y-100615000D01*
G75*
G02*
X151948000Y-100790000I0J-175000D01*
G01*
X151948000Y-103090000D01*
G75*
G02*
X151773000Y-103265000I-175000J0D01*
G01*
X151423000Y-103265000D01*
G75*
G02*
X151248000Y-103090000I0J175000D01*
G01*
X151248000Y-100790000D01*
G75*
G02*
X151423000Y-100615000I175000J0D01*
G01*
G37*
G36*
G01*
X152693000Y-100615000D02*
X153043000Y-100615000D01*
G75*
G02*
X153218000Y-100790000I0J-175000D01*
G01*
X153218000Y-103090000D01*
G75*
G02*
X153043000Y-103265000I-175000J0D01*
G01*
X152693000Y-103265000D01*
G75*
G02*
X152518000Y-103090000I0J175000D01*
G01*
X152518000Y-100790000D01*
G75*
G02*
X152693000Y-100615000I175000J0D01*
G01*
G37*
G36*
G01*
X153963000Y-100615000D02*
X154313000Y-100615000D01*
G75*
G02*
X154488000Y-100790000I0J-175000D01*
G01*
X154488000Y-103090000D01*
G75*
G02*
X154313000Y-103265000I-175000J0D01*
G01*
X153963000Y-103265000D01*
G75*
G02*
X153788000Y-103090000I0J175000D01*
G01*
X153788000Y-100790000D01*
G75*
G02*
X153963000Y-100615000I175000J0D01*
G01*
G37*
G36*
G01*
X155233000Y-100615000D02*
X155583000Y-100615000D01*
G75*
G02*
X155758000Y-100790000I0J-175000D01*
G01*
X155758000Y-103090000D01*
G75*
G02*
X155583000Y-103265000I-175000J0D01*
G01*
X155233000Y-103265000D01*
G75*
G02*
X155058000Y-103090000I0J175000D01*
G01*
X155058000Y-100790000D01*
G75*
G02*
X155233000Y-100615000I175000J0D01*
G01*
G37*
G36*
G01*
X156503000Y-100615000D02*
X156853000Y-100615000D01*
G75*
G02*
X157028000Y-100790000I0J-175000D01*
G01*
X157028000Y-103090000D01*
G75*
G02*
X156853000Y-103265000I-175000J0D01*
G01*
X156503000Y-103265000D01*
G75*
G02*
X156328000Y-103090000I0J175000D01*
G01*
X156328000Y-100790000D01*
G75*
G02*
X156503000Y-100615000I175000J0D01*
G01*
G37*
G36*
G01*
X157773000Y-100615000D02*
X158123000Y-100615000D01*
G75*
G02*
X158298000Y-100790000I0J-175000D01*
G01*
X158298000Y-103090000D01*
G75*
G02*
X158123000Y-103265000I-175000J0D01*
G01*
X157773000Y-103265000D01*
G75*
G02*
X157598000Y-103090000I0J175000D01*
G01*
X157598000Y-100790000D01*
G75*
G02*
X157773000Y-100615000I175000J0D01*
G01*
G37*
G36*
G01*
X159043000Y-100615000D02*
X159393000Y-100615000D01*
G75*
G02*
X159568000Y-100790000I0J-175000D01*
G01*
X159568000Y-103090000D01*
G75*
G02*
X159393000Y-103265000I-175000J0D01*
G01*
X159043000Y-103265000D01*
G75*
G02*
X158868000Y-103090000I0J175000D01*
G01*
X158868000Y-100790000D01*
G75*
G02*
X159043000Y-100615000I175000J0D01*
G01*
G37*
G36*
G01*
X160313000Y-100615000D02*
X160663000Y-100615000D01*
G75*
G02*
X160838000Y-100790000I0J-175000D01*
G01*
X160838000Y-103090000D01*
G75*
G02*
X160663000Y-103265000I-175000J0D01*
G01*
X160313000Y-103265000D01*
G75*
G02*
X160138000Y-103090000I0J175000D01*
G01*
X160138000Y-100790000D01*
G75*
G02*
X160313000Y-100615000I175000J0D01*
G01*
G37*
G36*
G01*
X161583000Y-100615000D02*
X161933000Y-100615000D01*
G75*
G02*
X162108000Y-100790000I0J-175000D01*
G01*
X162108000Y-103090000D01*
G75*
G02*
X161933000Y-103265000I-175000J0D01*
G01*
X161583000Y-103265000D01*
G75*
G02*
X161408000Y-103090000I0J175000D01*
G01*
X161408000Y-100790000D01*
G75*
G02*
X161583000Y-100615000I175000J0D01*
G01*
G37*
G36*
G01*
X162853000Y-100615000D02*
X163203000Y-100615000D01*
G75*
G02*
X163378000Y-100790000I0J-175000D01*
G01*
X163378000Y-103090000D01*
G75*
G02*
X163203000Y-103265000I-175000J0D01*
G01*
X162853000Y-103265000D01*
G75*
G02*
X162678000Y-103090000I0J175000D01*
G01*
X162678000Y-100790000D01*
G75*
G02*
X162853000Y-100615000I175000J0D01*
G01*
G37*
G36*
G01*
X164123000Y-100615000D02*
X164473000Y-100615000D01*
G75*
G02*
X164648000Y-100790000I0J-175000D01*
G01*
X164648000Y-103090000D01*
G75*
G02*
X164473000Y-103265000I-175000J0D01*
G01*
X164123000Y-103265000D01*
G75*
G02*
X163948000Y-103090000I0J175000D01*
G01*
X163948000Y-100790000D01*
G75*
G02*
X164123000Y-100615000I175000J0D01*
G01*
G37*
%TD*%
%TO.C,U10*%
G36*
G01*
X192123000Y-110815000D02*
X192473000Y-110815000D01*
G75*
G02*
X192648000Y-110990000I0J-175000D01*
G01*
X192648000Y-113290000D01*
G75*
G02*
X192473000Y-113465000I-175000J0D01*
G01*
X192123000Y-113465000D01*
G75*
G02*
X191948000Y-113290000I0J175000D01*
G01*
X191948000Y-110990000D01*
G75*
G02*
X192123000Y-110815000I175000J0D01*
G01*
G37*
G36*
G01*
X190853000Y-110815000D02*
X191203000Y-110815000D01*
G75*
G02*
X191378000Y-110990000I0J-175000D01*
G01*
X191378000Y-113290000D01*
G75*
G02*
X191203000Y-113465000I-175000J0D01*
G01*
X190853000Y-113465000D01*
G75*
G02*
X190678000Y-113290000I0J175000D01*
G01*
X190678000Y-110990000D01*
G75*
G02*
X190853000Y-110815000I175000J0D01*
G01*
G37*
G36*
G01*
X189583000Y-110815000D02*
X189933000Y-110815000D01*
G75*
G02*
X190108000Y-110990000I0J-175000D01*
G01*
X190108000Y-113290000D01*
G75*
G02*
X189933000Y-113465000I-175000J0D01*
G01*
X189583000Y-113465000D01*
G75*
G02*
X189408000Y-113290000I0J175000D01*
G01*
X189408000Y-110990000D01*
G75*
G02*
X189583000Y-110815000I175000J0D01*
G01*
G37*
G36*
G01*
X188313000Y-110815000D02*
X188663000Y-110815000D01*
G75*
G02*
X188838000Y-110990000I0J-175000D01*
G01*
X188838000Y-113290000D01*
G75*
G02*
X188663000Y-113465000I-175000J0D01*
G01*
X188313000Y-113465000D01*
G75*
G02*
X188138000Y-113290000I0J175000D01*
G01*
X188138000Y-110990000D01*
G75*
G02*
X188313000Y-110815000I175000J0D01*
G01*
G37*
G36*
G01*
X187043000Y-110815000D02*
X187393000Y-110815000D01*
G75*
G02*
X187568000Y-110990000I0J-175000D01*
G01*
X187568000Y-113290000D01*
G75*
G02*
X187393000Y-113465000I-175000J0D01*
G01*
X187043000Y-113465000D01*
G75*
G02*
X186868000Y-113290000I0J175000D01*
G01*
X186868000Y-110990000D01*
G75*
G02*
X187043000Y-110815000I175000J0D01*
G01*
G37*
G36*
G01*
X185773000Y-110815000D02*
X186123000Y-110815000D01*
G75*
G02*
X186298000Y-110990000I0J-175000D01*
G01*
X186298000Y-113290000D01*
G75*
G02*
X186123000Y-113465000I-175000J0D01*
G01*
X185773000Y-113465000D01*
G75*
G02*
X185598000Y-113290000I0J175000D01*
G01*
X185598000Y-110990000D01*
G75*
G02*
X185773000Y-110815000I175000J0D01*
G01*
G37*
G36*
G01*
X184503000Y-110815000D02*
X184853000Y-110815000D01*
G75*
G02*
X185028000Y-110990000I0J-175000D01*
G01*
X185028000Y-113290000D01*
G75*
G02*
X184853000Y-113465000I-175000J0D01*
G01*
X184503000Y-113465000D01*
G75*
G02*
X184328000Y-113290000I0J175000D01*
G01*
X184328000Y-110990000D01*
G75*
G02*
X184503000Y-110815000I175000J0D01*
G01*
G37*
G36*
G01*
X183233000Y-110815000D02*
X183583000Y-110815000D01*
G75*
G02*
X183758000Y-110990000I0J-175000D01*
G01*
X183758000Y-113290000D01*
G75*
G02*
X183583000Y-113465000I-175000J0D01*
G01*
X183233000Y-113465000D01*
G75*
G02*
X183058000Y-113290000I0J175000D01*
G01*
X183058000Y-110990000D01*
G75*
G02*
X183233000Y-110815000I175000J0D01*
G01*
G37*
G36*
G01*
X181963000Y-110815000D02*
X182313000Y-110815000D01*
G75*
G02*
X182488000Y-110990000I0J-175000D01*
G01*
X182488000Y-113290000D01*
G75*
G02*
X182313000Y-113465000I-175000J0D01*
G01*
X181963000Y-113465000D01*
G75*
G02*
X181788000Y-113290000I0J175000D01*
G01*
X181788000Y-110990000D01*
G75*
G02*
X181963000Y-110815000I175000J0D01*
G01*
G37*
G36*
G01*
X180693000Y-110815000D02*
X181043000Y-110815000D01*
G75*
G02*
X181218000Y-110990000I0J-175000D01*
G01*
X181218000Y-113290000D01*
G75*
G02*
X181043000Y-113465000I-175000J0D01*
G01*
X180693000Y-113465000D01*
G75*
G02*
X180518000Y-113290000I0J175000D01*
G01*
X180518000Y-110990000D01*
G75*
G02*
X180693000Y-110815000I175000J0D01*
G01*
G37*
G36*
G01*
X179423000Y-110815000D02*
X179773000Y-110815000D01*
G75*
G02*
X179948000Y-110990000I0J-175000D01*
G01*
X179948000Y-113290000D01*
G75*
G02*
X179773000Y-113465000I-175000J0D01*
G01*
X179423000Y-113465000D01*
G75*
G02*
X179248000Y-113290000I0J175000D01*
G01*
X179248000Y-110990000D01*
G75*
G02*
X179423000Y-110815000I175000J0D01*
G01*
G37*
G36*
G01*
X178153000Y-110815000D02*
X178503000Y-110815000D01*
G75*
G02*
X178678000Y-110990000I0J-175000D01*
G01*
X178678000Y-113290000D01*
G75*
G02*
X178503000Y-113465000I-175000J0D01*
G01*
X178153000Y-113465000D01*
G75*
G02*
X177978000Y-113290000I0J175000D01*
G01*
X177978000Y-110990000D01*
G75*
G02*
X178153000Y-110815000I175000J0D01*
G01*
G37*
G36*
G01*
X176883000Y-110815000D02*
X177233000Y-110815000D01*
G75*
G02*
X177408000Y-110990000I0J-175000D01*
G01*
X177408000Y-113290000D01*
G75*
G02*
X177233000Y-113465000I-175000J0D01*
G01*
X176883000Y-113465000D01*
G75*
G02*
X176708000Y-113290000I0J175000D01*
G01*
X176708000Y-110990000D01*
G75*
G02*
X176883000Y-110815000I175000J0D01*
G01*
G37*
G36*
G01*
X175613000Y-110815000D02*
X175963000Y-110815000D01*
G75*
G02*
X176138000Y-110990000I0J-175000D01*
G01*
X176138000Y-113290000D01*
G75*
G02*
X175963000Y-113465000I-175000J0D01*
G01*
X175613000Y-113465000D01*
G75*
G02*
X175438000Y-113290000I0J175000D01*
G01*
X175438000Y-110990000D01*
G75*
G02*
X175613000Y-110815000I175000J0D01*
G01*
G37*
G36*
G01*
X174343000Y-110815000D02*
X174693000Y-110815000D01*
G75*
G02*
X174868000Y-110990000I0J-175000D01*
G01*
X174868000Y-113290000D01*
G75*
G02*
X174693000Y-113465000I-175000J0D01*
G01*
X174343000Y-113465000D01*
G75*
G02*
X174168000Y-113290000I0J175000D01*
G01*
X174168000Y-110990000D01*
G75*
G02*
X174343000Y-110815000I175000J0D01*
G01*
G37*
G36*
G01*
X173073000Y-110815000D02*
X173423000Y-110815000D01*
G75*
G02*
X173598000Y-110990000I0J-175000D01*
G01*
X173598000Y-113290000D01*
G75*
G02*
X173423000Y-113465000I-175000J0D01*
G01*
X173073000Y-113465000D01*
G75*
G02*
X172898000Y-113290000I0J175000D01*
G01*
X172898000Y-110990000D01*
G75*
G02*
X173073000Y-110815000I175000J0D01*
G01*
G37*
G36*
G01*
X171803000Y-110815000D02*
X172153000Y-110815000D01*
G75*
G02*
X172328000Y-110990000I0J-175000D01*
G01*
X172328000Y-113290000D01*
G75*
G02*
X172153000Y-113465000I-175000J0D01*
G01*
X171803000Y-113465000D01*
G75*
G02*
X171628000Y-113290000I0J175000D01*
G01*
X171628000Y-110990000D01*
G75*
G02*
X171803000Y-110815000I175000J0D01*
G01*
G37*
G36*
G01*
X170533000Y-110815000D02*
X170883000Y-110815000D01*
G75*
G02*
X171058000Y-110990000I0J-175000D01*
G01*
X171058000Y-113290000D01*
G75*
G02*
X170883000Y-113465000I-175000J0D01*
G01*
X170533000Y-113465000D01*
G75*
G02*
X170358000Y-113290000I0J175000D01*
G01*
X170358000Y-110990000D01*
G75*
G02*
X170533000Y-110815000I175000J0D01*
G01*
G37*
G36*
G01*
X170533000Y-100615000D02*
X170883000Y-100615000D01*
G75*
G02*
X171058000Y-100790000I0J-175000D01*
G01*
X171058000Y-103090000D01*
G75*
G02*
X170883000Y-103265000I-175000J0D01*
G01*
X170533000Y-103265000D01*
G75*
G02*
X170358000Y-103090000I0J175000D01*
G01*
X170358000Y-100790000D01*
G75*
G02*
X170533000Y-100615000I175000J0D01*
G01*
G37*
G36*
G01*
X171803000Y-100615000D02*
X172153000Y-100615000D01*
G75*
G02*
X172328000Y-100790000I0J-175000D01*
G01*
X172328000Y-103090000D01*
G75*
G02*
X172153000Y-103265000I-175000J0D01*
G01*
X171803000Y-103265000D01*
G75*
G02*
X171628000Y-103090000I0J175000D01*
G01*
X171628000Y-100790000D01*
G75*
G02*
X171803000Y-100615000I175000J0D01*
G01*
G37*
G36*
G01*
X173073000Y-100615000D02*
X173423000Y-100615000D01*
G75*
G02*
X173598000Y-100790000I0J-175000D01*
G01*
X173598000Y-103090000D01*
G75*
G02*
X173423000Y-103265000I-175000J0D01*
G01*
X173073000Y-103265000D01*
G75*
G02*
X172898000Y-103090000I0J175000D01*
G01*
X172898000Y-100790000D01*
G75*
G02*
X173073000Y-100615000I175000J0D01*
G01*
G37*
G36*
G01*
X174343000Y-100615000D02*
X174693000Y-100615000D01*
G75*
G02*
X174868000Y-100790000I0J-175000D01*
G01*
X174868000Y-103090000D01*
G75*
G02*
X174693000Y-103265000I-175000J0D01*
G01*
X174343000Y-103265000D01*
G75*
G02*
X174168000Y-103090000I0J175000D01*
G01*
X174168000Y-100790000D01*
G75*
G02*
X174343000Y-100615000I175000J0D01*
G01*
G37*
G36*
G01*
X175613000Y-100615000D02*
X175963000Y-100615000D01*
G75*
G02*
X176138000Y-100790000I0J-175000D01*
G01*
X176138000Y-103090000D01*
G75*
G02*
X175963000Y-103265000I-175000J0D01*
G01*
X175613000Y-103265000D01*
G75*
G02*
X175438000Y-103090000I0J175000D01*
G01*
X175438000Y-100790000D01*
G75*
G02*
X175613000Y-100615000I175000J0D01*
G01*
G37*
G36*
G01*
X176883000Y-100615000D02*
X177233000Y-100615000D01*
G75*
G02*
X177408000Y-100790000I0J-175000D01*
G01*
X177408000Y-103090000D01*
G75*
G02*
X177233000Y-103265000I-175000J0D01*
G01*
X176883000Y-103265000D01*
G75*
G02*
X176708000Y-103090000I0J175000D01*
G01*
X176708000Y-100790000D01*
G75*
G02*
X176883000Y-100615000I175000J0D01*
G01*
G37*
G36*
G01*
X178153000Y-100615000D02*
X178503000Y-100615000D01*
G75*
G02*
X178678000Y-100790000I0J-175000D01*
G01*
X178678000Y-103090000D01*
G75*
G02*
X178503000Y-103265000I-175000J0D01*
G01*
X178153000Y-103265000D01*
G75*
G02*
X177978000Y-103090000I0J175000D01*
G01*
X177978000Y-100790000D01*
G75*
G02*
X178153000Y-100615000I175000J0D01*
G01*
G37*
G36*
G01*
X179423000Y-100615000D02*
X179773000Y-100615000D01*
G75*
G02*
X179948000Y-100790000I0J-175000D01*
G01*
X179948000Y-103090000D01*
G75*
G02*
X179773000Y-103265000I-175000J0D01*
G01*
X179423000Y-103265000D01*
G75*
G02*
X179248000Y-103090000I0J175000D01*
G01*
X179248000Y-100790000D01*
G75*
G02*
X179423000Y-100615000I175000J0D01*
G01*
G37*
G36*
G01*
X180693000Y-100615000D02*
X181043000Y-100615000D01*
G75*
G02*
X181218000Y-100790000I0J-175000D01*
G01*
X181218000Y-103090000D01*
G75*
G02*
X181043000Y-103265000I-175000J0D01*
G01*
X180693000Y-103265000D01*
G75*
G02*
X180518000Y-103090000I0J175000D01*
G01*
X180518000Y-100790000D01*
G75*
G02*
X180693000Y-100615000I175000J0D01*
G01*
G37*
G36*
G01*
X181963000Y-100615000D02*
X182313000Y-100615000D01*
G75*
G02*
X182488000Y-100790000I0J-175000D01*
G01*
X182488000Y-103090000D01*
G75*
G02*
X182313000Y-103265000I-175000J0D01*
G01*
X181963000Y-103265000D01*
G75*
G02*
X181788000Y-103090000I0J175000D01*
G01*
X181788000Y-100790000D01*
G75*
G02*
X181963000Y-100615000I175000J0D01*
G01*
G37*
G36*
G01*
X183233000Y-100615000D02*
X183583000Y-100615000D01*
G75*
G02*
X183758000Y-100790000I0J-175000D01*
G01*
X183758000Y-103090000D01*
G75*
G02*
X183583000Y-103265000I-175000J0D01*
G01*
X183233000Y-103265000D01*
G75*
G02*
X183058000Y-103090000I0J175000D01*
G01*
X183058000Y-100790000D01*
G75*
G02*
X183233000Y-100615000I175000J0D01*
G01*
G37*
G36*
G01*
X184503000Y-100615000D02*
X184853000Y-100615000D01*
G75*
G02*
X185028000Y-100790000I0J-175000D01*
G01*
X185028000Y-103090000D01*
G75*
G02*
X184853000Y-103265000I-175000J0D01*
G01*
X184503000Y-103265000D01*
G75*
G02*
X184328000Y-103090000I0J175000D01*
G01*
X184328000Y-100790000D01*
G75*
G02*
X184503000Y-100615000I175000J0D01*
G01*
G37*
G36*
G01*
X185773000Y-100615000D02*
X186123000Y-100615000D01*
G75*
G02*
X186298000Y-100790000I0J-175000D01*
G01*
X186298000Y-103090000D01*
G75*
G02*
X186123000Y-103265000I-175000J0D01*
G01*
X185773000Y-103265000D01*
G75*
G02*
X185598000Y-103090000I0J175000D01*
G01*
X185598000Y-100790000D01*
G75*
G02*
X185773000Y-100615000I175000J0D01*
G01*
G37*
G36*
G01*
X187043000Y-100615000D02*
X187393000Y-100615000D01*
G75*
G02*
X187568000Y-100790000I0J-175000D01*
G01*
X187568000Y-103090000D01*
G75*
G02*
X187393000Y-103265000I-175000J0D01*
G01*
X187043000Y-103265000D01*
G75*
G02*
X186868000Y-103090000I0J175000D01*
G01*
X186868000Y-100790000D01*
G75*
G02*
X187043000Y-100615000I175000J0D01*
G01*
G37*
G36*
G01*
X188313000Y-100615000D02*
X188663000Y-100615000D01*
G75*
G02*
X188838000Y-100790000I0J-175000D01*
G01*
X188838000Y-103090000D01*
G75*
G02*
X188663000Y-103265000I-175000J0D01*
G01*
X188313000Y-103265000D01*
G75*
G02*
X188138000Y-103090000I0J175000D01*
G01*
X188138000Y-100790000D01*
G75*
G02*
X188313000Y-100615000I175000J0D01*
G01*
G37*
G36*
G01*
X189583000Y-100615000D02*
X189933000Y-100615000D01*
G75*
G02*
X190108000Y-100790000I0J-175000D01*
G01*
X190108000Y-103090000D01*
G75*
G02*
X189933000Y-103265000I-175000J0D01*
G01*
X189583000Y-103265000D01*
G75*
G02*
X189408000Y-103090000I0J175000D01*
G01*
X189408000Y-100790000D01*
G75*
G02*
X189583000Y-100615000I175000J0D01*
G01*
G37*
G36*
G01*
X190853000Y-100615000D02*
X191203000Y-100615000D01*
G75*
G02*
X191378000Y-100790000I0J-175000D01*
G01*
X191378000Y-103090000D01*
G75*
G02*
X191203000Y-103265000I-175000J0D01*
G01*
X190853000Y-103265000D01*
G75*
G02*
X190678000Y-103090000I0J175000D01*
G01*
X190678000Y-100790000D01*
G75*
G02*
X190853000Y-100615000I175000J0D01*
G01*
G37*
G36*
G01*
X192123000Y-100615000D02*
X192473000Y-100615000D01*
G75*
G02*
X192648000Y-100790000I0J-175000D01*
G01*
X192648000Y-103090000D01*
G75*
G02*
X192473000Y-103265000I-175000J0D01*
G01*
X192123000Y-103265000D01*
G75*
G02*
X191948000Y-103090000I0J175000D01*
G01*
X191948000Y-100790000D01*
G75*
G02*
X192123000Y-100615000I175000J0D01*
G01*
G37*
%TD*%
%TO.C,U9*%
G36*
G01*
X164123000Y-128053000D02*
X164473000Y-128053000D01*
G75*
G02*
X164648000Y-128228000I0J-175000D01*
G01*
X164648000Y-130528000D01*
G75*
G02*
X164473000Y-130703000I-175000J0D01*
G01*
X164123000Y-130703000D01*
G75*
G02*
X163948000Y-130528000I0J175000D01*
G01*
X163948000Y-128228000D01*
G75*
G02*
X164123000Y-128053000I175000J0D01*
G01*
G37*
G36*
G01*
X162853000Y-128053000D02*
X163203000Y-128053000D01*
G75*
G02*
X163378000Y-128228000I0J-175000D01*
G01*
X163378000Y-130528000D01*
G75*
G02*
X163203000Y-130703000I-175000J0D01*
G01*
X162853000Y-130703000D01*
G75*
G02*
X162678000Y-130528000I0J175000D01*
G01*
X162678000Y-128228000D01*
G75*
G02*
X162853000Y-128053000I175000J0D01*
G01*
G37*
G36*
G01*
X161583000Y-128053000D02*
X161933000Y-128053000D01*
G75*
G02*
X162108000Y-128228000I0J-175000D01*
G01*
X162108000Y-130528000D01*
G75*
G02*
X161933000Y-130703000I-175000J0D01*
G01*
X161583000Y-130703000D01*
G75*
G02*
X161408000Y-130528000I0J175000D01*
G01*
X161408000Y-128228000D01*
G75*
G02*
X161583000Y-128053000I175000J0D01*
G01*
G37*
G36*
G01*
X160313000Y-128053000D02*
X160663000Y-128053000D01*
G75*
G02*
X160838000Y-128228000I0J-175000D01*
G01*
X160838000Y-130528000D01*
G75*
G02*
X160663000Y-130703000I-175000J0D01*
G01*
X160313000Y-130703000D01*
G75*
G02*
X160138000Y-130528000I0J175000D01*
G01*
X160138000Y-128228000D01*
G75*
G02*
X160313000Y-128053000I175000J0D01*
G01*
G37*
G36*
G01*
X159043000Y-128053000D02*
X159393000Y-128053000D01*
G75*
G02*
X159568000Y-128228000I0J-175000D01*
G01*
X159568000Y-130528000D01*
G75*
G02*
X159393000Y-130703000I-175000J0D01*
G01*
X159043000Y-130703000D01*
G75*
G02*
X158868000Y-130528000I0J175000D01*
G01*
X158868000Y-128228000D01*
G75*
G02*
X159043000Y-128053000I175000J0D01*
G01*
G37*
G36*
G01*
X157773000Y-128053000D02*
X158123000Y-128053000D01*
G75*
G02*
X158298000Y-128228000I0J-175000D01*
G01*
X158298000Y-130528000D01*
G75*
G02*
X158123000Y-130703000I-175000J0D01*
G01*
X157773000Y-130703000D01*
G75*
G02*
X157598000Y-130528000I0J175000D01*
G01*
X157598000Y-128228000D01*
G75*
G02*
X157773000Y-128053000I175000J0D01*
G01*
G37*
G36*
G01*
X156503000Y-128053000D02*
X156853000Y-128053000D01*
G75*
G02*
X157028000Y-128228000I0J-175000D01*
G01*
X157028000Y-130528000D01*
G75*
G02*
X156853000Y-130703000I-175000J0D01*
G01*
X156503000Y-130703000D01*
G75*
G02*
X156328000Y-130528000I0J175000D01*
G01*
X156328000Y-128228000D01*
G75*
G02*
X156503000Y-128053000I175000J0D01*
G01*
G37*
G36*
G01*
X155233000Y-128053000D02*
X155583000Y-128053000D01*
G75*
G02*
X155758000Y-128228000I0J-175000D01*
G01*
X155758000Y-130528000D01*
G75*
G02*
X155583000Y-130703000I-175000J0D01*
G01*
X155233000Y-130703000D01*
G75*
G02*
X155058000Y-130528000I0J175000D01*
G01*
X155058000Y-128228000D01*
G75*
G02*
X155233000Y-128053000I175000J0D01*
G01*
G37*
G36*
G01*
X153963000Y-128053000D02*
X154313000Y-128053000D01*
G75*
G02*
X154488000Y-128228000I0J-175000D01*
G01*
X154488000Y-130528000D01*
G75*
G02*
X154313000Y-130703000I-175000J0D01*
G01*
X153963000Y-130703000D01*
G75*
G02*
X153788000Y-130528000I0J175000D01*
G01*
X153788000Y-128228000D01*
G75*
G02*
X153963000Y-128053000I175000J0D01*
G01*
G37*
G36*
G01*
X152693000Y-128053000D02*
X153043000Y-128053000D01*
G75*
G02*
X153218000Y-128228000I0J-175000D01*
G01*
X153218000Y-130528000D01*
G75*
G02*
X153043000Y-130703000I-175000J0D01*
G01*
X152693000Y-130703000D01*
G75*
G02*
X152518000Y-130528000I0J175000D01*
G01*
X152518000Y-128228000D01*
G75*
G02*
X152693000Y-128053000I175000J0D01*
G01*
G37*
G36*
G01*
X151423000Y-128053000D02*
X151773000Y-128053000D01*
G75*
G02*
X151948000Y-128228000I0J-175000D01*
G01*
X151948000Y-130528000D01*
G75*
G02*
X151773000Y-130703000I-175000J0D01*
G01*
X151423000Y-130703000D01*
G75*
G02*
X151248000Y-130528000I0J175000D01*
G01*
X151248000Y-128228000D01*
G75*
G02*
X151423000Y-128053000I175000J0D01*
G01*
G37*
G36*
G01*
X150153000Y-128053000D02*
X150503000Y-128053000D01*
G75*
G02*
X150678000Y-128228000I0J-175000D01*
G01*
X150678000Y-130528000D01*
G75*
G02*
X150503000Y-130703000I-175000J0D01*
G01*
X150153000Y-130703000D01*
G75*
G02*
X149978000Y-130528000I0J175000D01*
G01*
X149978000Y-128228000D01*
G75*
G02*
X150153000Y-128053000I175000J0D01*
G01*
G37*
G36*
G01*
X148883000Y-128053000D02*
X149233000Y-128053000D01*
G75*
G02*
X149408000Y-128228000I0J-175000D01*
G01*
X149408000Y-130528000D01*
G75*
G02*
X149233000Y-130703000I-175000J0D01*
G01*
X148883000Y-130703000D01*
G75*
G02*
X148708000Y-130528000I0J175000D01*
G01*
X148708000Y-128228000D01*
G75*
G02*
X148883000Y-128053000I175000J0D01*
G01*
G37*
G36*
G01*
X147613000Y-128053000D02*
X147963000Y-128053000D01*
G75*
G02*
X148138000Y-128228000I0J-175000D01*
G01*
X148138000Y-130528000D01*
G75*
G02*
X147963000Y-130703000I-175000J0D01*
G01*
X147613000Y-130703000D01*
G75*
G02*
X147438000Y-130528000I0J175000D01*
G01*
X147438000Y-128228000D01*
G75*
G02*
X147613000Y-128053000I175000J0D01*
G01*
G37*
G36*
G01*
X146343000Y-128053000D02*
X146693000Y-128053000D01*
G75*
G02*
X146868000Y-128228000I0J-175000D01*
G01*
X146868000Y-130528000D01*
G75*
G02*
X146693000Y-130703000I-175000J0D01*
G01*
X146343000Y-130703000D01*
G75*
G02*
X146168000Y-130528000I0J175000D01*
G01*
X146168000Y-128228000D01*
G75*
G02*
X146343000Y-128053000I175000J0D01*
G01*
G37*
G36*
G01*
X145073000Y-128053000D02*
X145423000Y-128053000D01*
G75*
G02*
X145598000Y-128228000I0J-175000D01*
G01*
X145598000Y-130528000D01*
G75*
G02*
X145423000Y-130703000I-175000J0D01*
G01*
X145073000Y-130703000D01*
G75*
G02*
X144898000Y-130528000I0J175000D01*
G01*
X144898000Y-128228000D01*
G75*
G02*
X145073000Y-128053000I175000J0D01*
G01*
G37*
G36*
G01*
X143803000Y-128053000D02*
X144153000Y-128053000D01*
G75*
G02*
X144328000Y-128228000I0J-175000D01*
G01*
X144328000Y-130528000D01*
G75*
G02*
X144153000Y-130703000I-175000J0D01*
G01*
X143803000Y-130703000D01*
G75*
G02*
X143628000Y-130528000I0J175000D01*
G01*
X143628000Y-128228000D01*
G75*
G02*
X143803000Y-128053000I175000J0D01*
G01*
G37*
G36*
G01*
X142533000Y-128053000D02*
X142883000Y-128053000D01*
G75*
G02*
X143058000Y-128228000I0J-175000D01*
G01*
X143058000Y-130528000D01*
G75*
G02*
X142883000Y-130703000I-175000J0D01*
G01*
X142533000Y-130703000D01*
G75*
G02*
X142358000Y-130528000I0J175000D01*
G01*
X142358000Y-128228000D01*
G75*
G02*
X142533000Y-128053000I175000J0D01*
G01*
G37*
G36*
G01*
X142533000Y-117853000D02*
X142883000Y-117853000D01*
G75*
G02*
X143058000Y-118028000I0J-175000D01*
G01*
X143058000Y-120328000D01*
G75*
G02*
X142883000Y-120503000I-175000J0D01*
G01*
X142533000Y-120503000D01*
G75*
G02*
X142358000Y-120328000I0J175000D01*
G01*
X142358000Y-118028000D01*
G75*
G02*
X142533000Y-117853000I175000J0D01*
G01*
G37*
G36*
G01*
X143803000Y-117853000D02*
X144153000Y-117853000D01*
G75*
G02*
X144328000Y-118028000I0J-175000D01*
G01*
X144328000Y-120328000D01*
G75*
G02*
X144153000Y-120503000I-175000J0D01*
G01*
X143803000Y-120503000D01*
G75*
G02*
X143628000Y-120328000I0J175000D01*
G01*
X143628000Y-118028000D01*
G75*
G02*
X143803000Y-117853000I175000J0D01*
G01*
G37*
G36*
G01*
X145073000Y-117853000D02*
X145423000Y-117853000D01*
G75*
G02*
X145598000Y-118028000I0J-175000D01*
G01*
X145598000Y-120328000D01*
G75*
G02*
X145423000Y-120503000I-175000J0D01*
G01*
X145073000Y-120503000D01*
G75*
G02*
X144898000Y-120328000I0J175000D01*
G01*
X144898000Y-118028000D01*
G75*
G02*
X145073000Y-117853000I175000J0D01*
G01*
G37*
G36*
G01*
X146343000Y-117853000D02*
X146693000Y-117853000D01*
G75*
G02*
X146868000Y-118028000I0J-175000D01*
G01*
X146868000Y-120328000D01*
G75*
G02*
X146693000Y-120503000I-175000J0D01*
G01*
X146343000Y-120503000D01*
G75*
G02*
X146168000Y-120328000I0J175000D01*
G01*
X146168000Y-118028000D01*
G75*
G02*
X146343000Y-117853000I175000J0D01*
G01*
G37*
G36*
G01*
X147613000Y-117853000D02*
X147963000Y-117853000D01*
G75*
G02*
X148138000Y-118028000I0J-175000D01*
G01*
X148138000Y-120328000D01*
G75*
G02*
X147963000Y-120503000I-175000J0D01*
G01*
X147613000Y-120503000D01*
G75*
G02*
X147438000Y-120328000I0J175000D01*
G01*
X147438000Y-118028000D01*
G75*
G02*
X147613000Y-117853000I175000J0D01*
G01*
G37*
G36*
G01*
X148883000Y-117853000D02*
X149233000Y-117853000D01*
G75*
G02*
X149408000Y-118028000I0J-175000D01*
G01*
X149408000Y-120328000D01*
G75*
G02*
X149233000Y-120503000I-175000J0D01*
G01*
X148883000Y-120503000D01*
G75*
G02*
X148708000Y-120328000I0J175000D01*
G01*
X148708000Y-118028000D01*
G75*
G02*
X148883000Y-117853000I175000J0D01*
G01*
G37*
G36*
G01*
X150153000Y-117853000D02*
X150503000Y-117853000D01*
G75*
G02*
X150678000Y-118028000I0J-175000D01*
G01*
X150678000Y-120328000D01*
G75*
G02*
X150503000Y-120503000I-175000J0D01*
G01*
X150153000Y-120503000D01*
G75*
G02*
X149978000Y-120328000I0J175000D01*
G01*
X149978000Y-118028000D01*
G75*
G02*
X150153000Y-117853000I175000J0D01*
G01*
G37*
G36*
G01*
X151423000Y-117853000D02*
X151773000Y-117853000D01*
G75*
G02*
X151948000Y-118028000I0J-175000D01*
G01*
X151948000Y-120328000D01*
G75*
G02*
X151773000Y-120503000I-175000J0D01*
G01*
X151423000Y-120503000D01*
G75*
G02*
X151248000Y-120328000I0J175000D01*
G01*
X151248000Y-118028000D01*
G75*
G02*
X151423000Y-117853000I175000J0D01*
G01*
G37*
G36*
G01*
X152693000Y-117853000D02*
X153043000Y-117853000D01*
G75*
G02*
X153218000Y-118028000I0J-175000D01*
G01*
X153218000Y-120328000D01*
G75*
G02*
X153043000Y-120503000I-175000J0D01*
G01*
X152693000Y-120503000D01*
G75*
G02*
X152518000Y-120328000I0J175000D01*
G01*
X152518000Y-118028000D01*
G75*
G02*
X152693000Y-117853000I175000J0D01*
G01*
G37*
G36*
G01*
X153963000Y-117853000D02*
X154313000Y-117853000D01*
G75*
G02*
X154488000Y-118028000I0J-175000D01*
G01*
X154488000Y-120328000D01*
G75*
G02*
X154313000Y-120503000I-175000J0D01*
G01*
X153963000Y-120503000D01*
G75*
G02*
X153788000Y-120328000I0J175000D01*
G01*
X153788000Y-118028000D01*
G75*
G02*
X153963000Y-117853000I175000J0D01*
G01*
G37*
G36*
G01*
X155233000Y-117853000D02*
X155583000Y-117853000D01*
G75*
G02*
X155758000Y-118028000I0J-175000D01*
G01*
X155758000Y-120328000D01*
G75*
G02*
X155583000Y-120503000I-175000J0D01*
G01*
X155233000Y-120503000D01*
G75*
G02*
X155058000Y-120328000I0J175000D01*
G01*
X155058000Y-118028000D01*
G75*
G02*
X155233000Y-117853000I175000J0D01*
G01*
G37*
G36*
G01*
X156503000Y-117853000D02*
X156853000Y-117853000D01*
G75*
G02*
X157028000Y-118028000I0J-175000D01*
G01*
X157028000Y-120328000D01*
G75*
G02*
X156853000Y-120503000I-175000J0D01*
G01*
X156503000Y-120503000D01*
G75*
G02*
X156328000Y-120328000I0J175000D01*
G01*
X156328000Y-118028000D01*
G75*
G02*
X156503000Y-117853000I175000J0D01*
G01*
G37*
G36*
G01*
X157773000Y-117853000D02*
X158123000Y-117853000D01*
G75*
G02*
X158298000Y-118028000I0J-175000D01*
G01*
X158298000Y-120328000D01*
G75*
G02*
X158123000Y-120503000I-175000J0D01*
G01*
X157773000Y-120503000D01*
G75*
G02*
X157598000Y-120328000I0J175000D01*
G01*
X157598000Y-118028000D01*
G75*
G02*
X157773000Y-117853000I175000J0D01*
G01*
G37*
G36*
G01*
X159043000Y-117853000D02*
X159393000Y-117853000D01*
G75*
G02*
X159568000Y-118028000I0J-175000D01*
G01*
X159568000Y-120328000D01*
G75*
G02*
X159393000Y-120503000I-175000J0D01*
G01*
X159043000Y-120503000D01*
G75*
G02*
X158868000Y-120328000I0J175000D01*
G01*
X158868000Y-118028000D01*
G75*
G02*
X159043000Y-117853000I175000J0D01*
G01*
G37*
G36*
G01*
X160313000Y-117853000D02*
X160663000Y-117853000D01*
G75*
G02*
X160838000Y-118028000I0J-175000D01*
G01*
X160838000Y-120328000D01*
G75*
G02*
X160663000Y-120503000I-175000J0D01*
G01*
X160313000Y-120503000D01*
G75*
G02*
X160138000Y-120328000I0J175000D01*
G01*
X160138000Y-118028000D01*
G75*
G02*
X160313000Y-117853000I175000J0D01*
G01*
G37*
G36*
G01*
X161583000Y-117853000D02*
X161933000Y-117853000D01*
G75*
G02*
X162108000Y-118028000I0J-175000D01*
G01*
X162108000Y-120328000D01*
G75*
G02*
X161933000Y-120503000I-175000J0D01*
G01*
X161583000Y-120503000D01*
G75*
G02*
X161408000Y-120328000I0J175000D01*
G01*
X161408000Y-118028000D01*
G75*
G02*
X161583000Y-117853000I175000J0D01*
G01*
G37*
G36*
G01*
X162853000Y-117853000D02*
X163203000Y-117853000D01*
G75*
G02*
X163378000Y-118028000I0J-175000D01*
G01*
X163378000Y-120328000D01*
G75*
G02*
X163203000Y-120503000I-175000J0D01*
G01*
X162853000Y-120503000D01*
G75*
G02*
X162678000Y-120328000I0J175000D01*
G01*
X162678000Y-118028000D01*
G75*
G02*
X162853000Y-117853000I175000J0D01*
G01*
G37*
G36*
G01*
X164123000Y-117853000D02*
X164473000Y-117853000D01*
G75*
G02*
X164648000Y-118028000I0J-175000D01*
G01*
X164648000Y-120328000D01*
G75*
G02*
X164473000Y-120503000I-175000J0D01*
G01*
X164123000Y-120503000D01*
G75*
G02*
X163948000Y-120328000I0J175000D01*
G01*
X163948000Y-118028000D01*
G75*
G02*
X164123000Y-117853000I175000J0D01*
G01*
G37*
%TD*%
%TO.C,U8*%
G36*
G01*
X192123000Y-128053000D02*
X192473000Y-128053000D01*
G75*
G02*
X192648000Y-128228000I0J-175000D01*
G01*
X192648000Y-130528000D01*
G75*
G02*
X192473000Y-130703000I-175000J0D01*
G01*
X192123000Y-130703000D01*
G75*
G02*
X191948000Y-130528000I0J175000D01*
G01*
X191948000Y-128228000D01*
G75*
G02*
X192123000Y-128053000I175000J0D01*
G01*
G37*
G36*
G01*
X190853000Y-128053000D02*
X191203000Y-128053000D01*
G75*
G02*
X191378000Y-128228000I0J-175000D01*
G01*
X191378000Y-130528000D01*
G75*
G02*
X191203000Y-130703000I-175000J0D01*
G01*
X190853000Y-130703000D01*
G75*
G02*
X190678000Y-130528000I0J175000D01*
G01*
X190678000Y-128228000D01*
G75*
G02*
X190853000Y-128053000I175000J0D01*
G01*
G37*
G36*
G01*
X189583000Y-128053000D02*
X189933000Y-128053000D01*
G75*
G02*
X190108000Y-128228000I0J-175000D01*
G01*
X190108000Y-130528000D01*
G75*
G02*
X189933000Y-130703000I-175000J0D01*
G01*
X189583000Y-130703000D01*
G75*
G02*
X189408000Y-130528000I0J175000D01*
G01*
X189408000Y-128228000D01*
G75*
G02*
X189583000Y-128053000I175000J0D01*
G01*
G37*
G36*
G01*
X188313000Y-128053000D02*
X188663000Y-128053000D01*
G75*
G02*
X188838000Y-128228000I0J-175000D01*
G01*
X188838000Y-130528000D01*
G75*
G02*
X188663000Y-130703000I-175000J0D01*
G01*
X188313000Y-130703000D01*
G75*
G02*
X188138000Y-130528000I0J175000D01*
G01*
X188138000Y-128228000D01*
G75*
G02*
X188313000Y-128053000I175000J0D01*
G01*
G37*
G36*
G01*
X187043000Y-128053000D02*
X187393000Y-128053000D01*
G75*
G02*
X187568000Y-128228000I0J-175000D01*
G01*
X187568000Y-130528000D01*
G75*
G02*
X187393000Y-130703000I-175000J0D01*
G01*
X187043000Y-130703000D01*
G75*
G02*
X186868000Y-130528000I0J175000D01*
G01*
X186868000Y-128228000D01*
G75*
G02*
X187043000Y-128053000I175000J0D01*
G01*
G37*
G36*
G01*
X185773000Y-128053000D02*
X186123000Y-128053000D01*
G75*
G02*
X186298000Y-128228000I0J-175000D01*
G01*
X186298000Y-130528000D01*
G75*
G02*
X186123000Y-130703000I-175000J0D01*
G01*
X185773000Y-130703000D01*
G75*
G02*
X185598000Y-130528000I0J175000D01*
G01*
X185598000Y-128228000D01*
G75*
G02*
X185773000Y-128053000I175000J0D01*
G01*
G37*
G36*
G01*
X184503000Y-128053000D02*
X184853000Y-128053000D01*
G75*
G02*
X185028000Y-128228000I0J-175000D01*
G01*
X185028000Y-130528000D01*
G75*
G02*
X184853000Y-130703000I-175000J0D01*
G01*
X184503000Y-130703000D01*
G75*
G02*
X184328000Y-130528000I0J175000D01*
G01*
X184328000Y-128228000D01*
G75*
G02*
X184503000Y-128053000I175000J0D01*
G01*
G37*
G36*
G01*
X183233000Y-128053000D02*
X183583000Y-128053000D01*
G75*
G02*
X183758000Y-128228000I0J-175000D01*
G01*
X183758000Y-130528000D01*
G75*
G02*
X183583000Y-130703000I-175000J0D01*
G01*
X183233000Y-130703000D01*
G75*
G02*
X183058000Y-130528000I0J175000D01*
G01*
X183058000Y-128228000D01*
G75*
G02*
X183233000Y-128053000I175000J0D01*
G01*
G37*
G36*
G01*
X181963000Y-128053000D02*
X182313000Y-128053000D01*
G75*
G02*
X182488000Y-128228000I0J-175000D01*
G01*
X182488000Y-130528000D01*
G75*
G02*
X182313000Y-130703000I-175000J0D01*
G01*
X181963000Y-130703000D01*
G75*
G02*
X181788000Y-130528000I0J175000D01*
G01*
X181788000Y-128228000D01*
G75*
G02*
X181963000Y-128053000I175000J0D01*
G01*
G37*
G36*
G01*
X180693000Y-128053000D02*
X181043000Y-128053000D01*
G75*
G02*
X181218000Y-128228000I0J-175000D01*
G01*
X181218000Y-130528000D01*
G75*
G02*
X181043000Y-130703000I-175000J0D01*
G01*
X180693000Y-130703000D01*
G75*
G02*
X180518000Y-130528000I0J175000D01*
G01*
X180518000Y-128228000D01*
G75*
G02*
X180693000Y-128053000I175000J0D01*
G01*
G37*
G36*
G01*
X179423000Y-128053000D02*
X179773000Y-128053000D01*
G75*
G02*
X179948000Y-128228000I0J-175000D01*
G01*
X179948000Y-130528000D01*
G75*
G02*
X179773000Y-130703000I-175000J0D01*
G01*
X179423000Y-130703000D01*
G75*
G02*
X179248000Y-130528000I0J175000D01*
G01*
X179248000Y-128228000D01*
G75*
G02*
X179423000Y-128053000I175000J0D01*
G01*
G37*
G36*
G01*
X178153000Y-128053000D02*
X178503000Y-128053000D01*
G75*
G02*
X178678000Y-128228000I0J-175000D01*
G01*
X178678000Y-130528000D01*
G75*
G02*
X178503000Y-130703000I-175000J0D01*
G01*
X178153000Y-130703000D01*
G75*
G02*
X177978000Y-130528000I0J175000D01*
G01*
X177978000Y-128228000D01*
G75*
G02*
X178153000Y-128053000I175000J0D01*
G01*
G37*
G36*
G01*
X176883000Y-128053000D02*
X177233000Y-128053000D01*
G75*
G02*
X177408000Y-128228000I0J-175000D01*
G01*
X177408000Y-130528000D01*
G75*
G02*
X177233000Y-130703000I-175000J0D01*
G01*
X176883000Y-130703000D01*
G75*
G02*
X176708000Y-130528000I0J175000D01*
G01*
X176708000Y-128228000D01*
G75*
G02*
X176883000Y-128053000I175000J0D01*
G01*
G37*
G36*
G01*
X175613000Y-128053000D02*
X175963000Y-128053000D01*
G75*
G02*
X176138000Y-128228000I0J-175000D01*
G01*
X176138000Y-130528000D01*
G75*
G02*
X175963000Y-130703000I-175000J0D01*
G01*
X175613000Y-130703000D01*
G75*
G02*
X175438000Y-130528000I0J175000D01*
G01*
X175438000Y-128228000D01*
G75*
G02*
X175613000Y-128053000I175000J0D01*
G01*
G37*
G36*
G01*
X174343000Y-128053000D02*
X174693000Y-128053000D01*
G75*
G02*
X174868000Y-128228000I0J-175000D01*
G01*
X174868000Y-130528000D01*
G75*
G02*
X174693000Y-130703000I-175000J0D01*
G01*
X174343000Y-130703000D01*
G75*
G02*
X174168000Y-130528000I0J175000D01*
G01*
X174168000Y-128228000D01*
G75*
G02*
X174343000Y-128053000I175000J0D01*
G01*
G37*
G36*
G01*
X173073000Y-128053000D02*
X173423000Y-128053000D01*
G75*
G02*
X173598000Y-128228000I0J-175000D01*
G01*
X173598000Y-130528000D01*
G75*
G02*
X173423000Y-130703000I-175000J0D01*
G01*
X173073000Y-130703000D01*
G75*
G02*
X172898000Y-130528000I0J175000D01*
G01*
X172898000Y-128228000D01*
G75*
G02*
X173073000Y-128053000I175000J0D01*
G01*
G37*
G36*
G01*
X171803000Y-128053000D02*
X172153000Y-128053000D01*
G75*
G02*
X172328000Y-128228000I0J-175000D01*
G01*
X172328000Y-130528000D01*
G75*
G02*
X172153000Y-130703000I-175000J0D01*
G01*
X171803000Y-130703000D01*
G75*
G02*
X171628000Y-130528000I0J175000D01*
G01*
X171628000Y-128228000D01*
G75*
G02*
X171803000Y-128053000I175000J0D01*
G01*
G37*
G36*
G01*
X170533000Y-128053000D02*
X170883000Y-128053000D01*
G75*
G02*
X171058000Y-128228000I0J-175000D01*
G01*
X171058000Y-130528000D01*
G75*
G02*
X170883000Y-130703000I-175000J0D01*
G01*
X170533000Y-130703000D01*
G75*
G02*
X170358000Y-130528000I0J175000D01*
G01*
X170358000Y-128228000D01*
G75*
G02*
X170533000Y-128053000I175000J0D01*
G01*
G37*
G36*
G01*
X170533000Y-117853000D02*
X170883000Y-117853000D01*
G75*
G02*
X171058000Y-118028000I0J-175000D01*
G01*
X171058000Y-120328000D01*
G75*
G02*
X170883000Y-120503000I-175000J0D01*
G01*
X170533000Y-120503000D01*
G75*
G02*
X170358000Y-120328000I0J175000D01*
G01*
X170358000Y-118028000D01*
G75*
G02*
X170533000Y-117853000I175000J0D01*
G01*
G37*
G36*
G01*
X171803000Y-117853000D02*
X172153000Y-117853000D01*
G75*
G02*
X172328000Y-118028000I0J-175000D01*
G01*
X172328000Y-120328000D01*
G75*
G02*
X172153000Y-120503000I-175000J0D01*
G01*
X171803000Y-120503000D01*
G75*
G02*
X171628000Y-120328000I0J175000D01*
G01*
X171628000Y-118028000D01*
G75*
G02*
X171803000Y-117853000I175000J0D01*
G01*
G37*
G36*
G01*
X173073000Y-117853000D02*
X173423000Y-117853000D01*
G75*
G02*
X173598000Y-118028000I0J-175000D01*
G01*
X173598000Y-120328000D01*
G75*
G02*
X173423000Y-120503000I-175000J0D01*
G01*
X173073000Y-120503000D01*
G75*
G02*
X172898000Y-120328000I0J175000D01*
G01*
X172898000Y-118028000D01*
G75*
G02*
X173073000Y-117853000I175000J0D01*
G01*
G37*
G36*
G01*
X174343000Y-117853000D02*
X174693000Y-117853000D01*
G75*
G02*
X174868000Y-118028000I0J-175000D01*
G01*
X174868000Y-120328000D01*
G75*
G02*
X174693000Y-120503000I-175000J0D01*
G01*
X174343000Y-120503000D01*
G75*
G02*
X174168000Y-120328000I0J175000D01*
G01*
X174168000Y-118028000D01*
G75*
G02*
X174343000Y-117853000I175000J0D01*
G01*
G37*
G36*
G01*
X175613000Y-117853000D02*
X175963000Y-117853000D01*
G75*
G02*
X176138000Y-118028000I0J-175000D01*
G01*
X176138000Y-120328000D01*
G75*
G02*
X175963000Y-120503000I-175000J0D01*
G01*
X175613000Y-120503000D01*
G75*
G02*
X175438000Y-120328000I0J175000D01*
G01*
X175438000Y-118028000D01*
G75*
G02*
X175613000Y-117853000I175000J0D01*
G01*
G37*
G36*
G01*
X176883000Y-117853000D02*
X177233000Y-117853000D01*
G75*
G02*
X177408000Y-118028000I0J-175000D01*
G01*
X177408000Y-120328000D01*
G75*
G02*
X177233000Y-120503000I-175000J0D01*
G01*
X176883000Y-120503000D01*
G75*
G02*
X176708000Y-120328000I0J175000D01*
G01*
X176708000Y-118028000D01*
G75*
G02*
X176883000Y-117853000I175000J0D01*
G01*
G37*
G36*
G01*
X178153000Y-117853000D02*
X178503000Y-117853000D01*
G75*
G02*
X178678000Y-118028000I0J-175000D01*
G01*
X178678000Y-120328000D01*
G75*
G02*
X178503000Y-120503000I-175000J0D01*
G01*
X178153000Y-120503000D01*
G75*
G02*
X177978000Y-120328000I0J175000D01*
G01*
X177978000Y-118028000D01*
G75*
G02*
X178153000Y-117853000I175000J0D01*
G01*
G37*
G36*
G01*
X179423000Y-117853000D02*
X179773000Y-117853000D01*
G75*
G02*
X179948000Y-118028000I0J-175000D01*
G01*
X179948000Y-120328000D01*
G75*
G02*
X179773000Y-120503000I-175000J0D01*
G01*
X179423000Y-120503000D01*
G75*
G02*
X179248000Y-120328000I0J175000D01*
G01*
X179248000Y-118028000D01*
G75*
G02*
X179423000Y-117853000I175000J0D01*
G01*
G37*
G36*
G01*
X180693000Y-117853000D02*
X181043000Y-117853000D01*
G75*
G02*
X181218000Y-118028000I0J-175000D01*
G01*
X181218000Y-120328000D01*
G75*
G02*
X181043000Y-120503000I-175000J0D01*
G01*
X180693000Y-120503000D01*
G75*
G02*
X180518000Y-120328000I0J175000D01*
G01*
X180518000Y-118028000D01*
G75*
G02*
X180693000Y-117853000I175000J0D01*
G01*
G37*
G36*
G01*
X181963000Y-117853000D02*
X182313000Y-117853000D01*
G75*
G02*
X182488000Y-118028000I0J-175000D01*
G01*
X182488000Y-120328000D01*
G75*
G02*
X182313000Y-120503000I-175000J0D01*
G01*
X181963000Y-120503000D01*
G75*
G02*
X181788000Y-120328000I0J175000D01*
G01*
X181788000Y-118028000D01*
G75*
G02*
X181963000Y-117853000I175000J0D01*
G01*
G37*
G36*
G01*
X183233000Y-117853000D02*
X183583000Y-117853000D01*
G75*
G02*
X183758000Y-118028000I0J-175000D01*
G01*
X183758000Y-120328000D01*
G75*
G02*
X183583000Y-120503000I-175000J0D01*
G01*
X183233000Y-120503000D01*
G75*
G02*
X183058000Y-120328000I0J175000D01*
G01*
X183058000Y-118028000D01*
G75*
G02*
X183233000Y-117853000I175000J0D01*
G01*
G37*
G36*
G01*
X184503000Y-117853000D02*
X184853000Y-117853000D01*
G75*
G02*
X185028000Y-118028000I0J-175000D01*
G01*
X185028000Y-120328000D01*
G75*
G02*
X184853000Y-120503000I-175000J0D01*
G01*
X184503000Y-120503000D01*
G75*
G02*
X184328000Y-120328000I0J175000D01*
G01*
X184328000Y-118028000D01*
G75*
G02*
X184503000Y-117853000I175000J0D01*
G01*
G37*
G36*
G01*
X185773000Y-117853000D02*
X186123000Y-117853000D01*
G75*
G02*
X186298000Y-118028000I0J-175000D01*
G01*
X186298000Y-120328000D01*
G75*
G02*
X186123000Y-120503000I-175000J0D01*
G01*
X185773000Y-120503000D01*
G75*
G02*
X185598000Y-120328000I0J175000D01*
G01*
X185598000Y-118028000D01*
G75*
G02*
X185773000Y-117853000I175000J0D01*
G01*
G37*
G36*
G01*
X187043000Y-117853000D02*
X187393000Y-117853000D01*
G75*
G02*
X187568000Y-118028000I0J-175000D01*
G01*
X187568000Y-120328000D01*
G75*
G02*
X187393000Y-120503000I-175000J0D01*
G01*
X187043000Y-120503000D01*
G75*
G02*
X186868000Y-120328000I0J175000D01*
G01*
X186868000Y-118028000D01*
G75*
G02*
X187043000Y-117853000I175000J0D01*
G01*
G37*
G36*
G01*
X188313000Y-117853000D02*
X188663000Y-117853000D01*
G75*
G02*
X188838000Y-118028000I0J-175000D01*
G01*
X188838000Y-120328000D01*
G75*
G02*
X188663000Y-120503000I-175000J0D01*
G01*
X188313000Y-120503000D01*
G75*
G02*
X188138000Y-120328000I0J175000D01*
G01*
X188138000Y-118028000D01*
G75*
G02*
X188313000Y-117853000I175000J0D01*
G01*
G37*
G36*
G01*
X189583000Y-117853000D02*
X189933000Y-117853000D01*
G75*
G02*
X190108000Y-118028000I0J-175000D01*
G01*
X190108000Y-120328000D01*
G75*
G02*
X189933000Y-120503000I-175000J0D01*
G01*
X189583000Y-120503000D01*
G75*
G02*
X189408000Y-120328000I0J175000D01*
G01*
X189408000Y-118028000D01*
G75*
G02*
X189583000Y-117853000I175000J0D01*
G01*
G37*
G36*
G01*
X190853000Y-117853000D02*
X191203000Y-117853000D01*
G75*
G02*
X191378000Y-118028000I0J-175000D01*
G01*
X191378000Y-120328000D01*
G75*
G02*
X191203000Y-120503000I-175000J0D01*
G01*
X190853000Y-120503000D01*
G75*
G02*
X190678000Y-120328000I0J175000D01*
G01*
X190678000Y-118028000D01*
G75*
G02*
X190853000Y-117853000I175000J0D01*
G01*
G37*
G36*
G01*
X192123000Y-117853000D02*
X192473000Y-117853000D01*
G75*
G02*
X192648000Y-118028000I0J-175000D01*
G01*
X192648000Y-120328000D01*
G75*
G02*
X192473000Y-120503000I-175000J0D01*
G01*
X192123000Y-120503000D01*
G75*
G02*
X191948000Y-120328000I0J175000D01*
G01*
X191948000Y-118028000D01*
G75*
G02*
X192123000Y-117853000I175000J0D01*
G01*
G37*
%TD*%
%TO.C,U7*%
G36*
G01*
X164123000Y-145291000D02*
X164473000Y-145291000D01*
G75*
G02*
X164648000Y-145466000I0J-175000D01*
G01*
X164648000Y-147766000D01*
G75*
G02*
X164473000Y-147941000I-175000J0D01*
G01*
X164123000Y-147941000D01*
G75*
G02*
X163948000Y-147766000I0J175000D01*
G01*
X163948000Y-145466000D01*
G75*
G02*
X164123000Y-145291000I175000J0D01*
G01*
G37*
G36*
G01*
X162853000Y-145291000D02*
X163203000Y-145291000D01*
G75*
G02*
X163378000Y-145466000I0J-175000D01*
G01*
X163378000Y-147766000D01*
G75*
G02*
X163203000Y-147941000I-175000J0D01*
G01*
X162853000Y-147941000D01*
G75*
G02*
X162678000Y-147766000I0J175000D01*
G01*
X162678000Y-145466000D01*
G75*
G02*
X162853000Y-145291000I175000J0D01*
G01*
G37*
G36*
G01*
X161583000Y-145291000D02*
X161933000Y-145291000D01*
G75*
G02*
X162108000Y-145466000I0J-175000D01*
G01*
X162108000Y-147766000D01*
G75*
G02*
X161933000Y-147941000I-175000J0D01*
G01*
X161583000Y-147941000D01*
G75*
G02*
X161408000Y-147766000I0J175000D01*
G01*
X161408000Y-145466000D01*
G75*
G02*
X161583000Y-145291000I175000J0D01*
G01*
G37*
G36*
G01*
X160313000Y-145291000D02*
X160663000Y-145291000D01*
G75*
G02*
X160838000Y-145466000I0J-175000D01*
G01*
X160838000Y-147766000D01*
G75*
G02*
X160663000Y-147941000I-175000J0D01*
G01*
X160313000Y-147941000D01*
G75*
G02*
X160138000Y-147766000I0J175000D01*
G01*
X160138000Y-145466000D01*
G75*
G02*
X160313000Y-145291000I175000J0D01*
G01*
G37*
G36*
G01*
X159043000Y-145291000D02*
X159393000Y-145291000D01*
G75*
G02*
X159568000Y-145466000I0J-175000D01*
G01*
X159568000Y-147766000D01*
G75*
G02*
X159393000Y-147941000I-175000J0D01*
G01*
X159043000Y-147941000D01*
G75*
G02*
X158868000Y-147766000I0J175000D01*
G01*
X158868000Y-145466000D01*
G75*
G02*
X159043000Y-145291000I175000J0D01*
G01*
G37*
G36*
G01*
X157773000Y-145291000D02*
X158123000Y-145291000D01*
G75*
G02*
X158298000Y-145466000I0J-175000D01*
G01*
X158298000Y-147766000D01*
G75*
G02*
X158123000Y-147941000I-175000J0D01*
G01*
X157773000Y-147941000D01*
G75*
G02*
X157598000Y-147766000I0J175000D01*
G01*
X157598000Y-145466000D01*
G75*
G02*
X157773000Y-145291000I175000J0D01*
G01*
G37*
G36*
G01*
X156503000Y-145291000D02*
X156853000Y-145291000D01*
G75*
G02*
X157028000Y-145466000I0J-175000D01*
G01*
X157028000Y-147766000D01*
G75*
G02*
X156853000Y-147941000I-175000J0D01*
G01*
X156503000Y-147941000D01*
G75*
G02*
X156328000Y-147766000I0J175000D01*
G01*
X156328000Y-145466000D01*
G75*
G02*
X156503000Y-145291000I175000J0D01*
G01*
G37*
G36*
G01*
X155233000Y-145291000D02*
X155583000Y-145291000D01*
G75*
G02*
X155758000Y-145466000I0J-175000D01*
G01*
X155758000Y-147766000D01*
G75*
G02*
X155583000Y-147941000I-175000J0D01*
G01*
X155233000Y-147941000D01*
G75*
G02*
X155058000Y-147766000I0J175000D01*
G01*
X155058000Y-145466000D01*
G75*
G02*
X155233000Y-145291000I175000J0D01*
G01*
G37*
G36*
G01*
X153963000Y-145291000D02*
X154313000Y-145291000D01*
G75*
G02*
X154488000Y-145466000I0J-175000D01*
G01*
X154488000Y-147766000D01*
G75*
G02*
X154313000Y-147941000I-175000J0D01*
G01*
X153963000Y-147941000D01*
G75*
G02*
X153788000Y-147766000I0J175000D01*
G01*
X153788000Y-145466000D01*
G75*
G02*
X153963000Y-145291000I175000J0D01*
G01*
G37*
G36*
G01*
X152693000Y-145291000D02*
X153043000Y-145291000D01*
G75*
G02*
X153218000Y-145466000I0J-175000D01*
G01*
X153218000Y-147766000D01*
G75*
G02*
X153043000Y-147941000I-175000J0D01*
G01*
X152693000Y-147941000D01*
G75*
G02*
X152518000Y-147766000I0J175000D01*
G01*
X152518000Y-145466000D01*
G75*
G02*
X152693000Y-145291000I175000J0D01*
G01*
G37*
G36*
G01*
X151423000Y-145291000D02*
X151773000Y-145291000D01*
G75*
G02*
X151948000Y-145466000I0J-175000D01*
G01*
X151948000Y-147766000D01*
G75*
G02*
X151773000Y-147941000I-175000J0D01*
G01*
X151423000Y-147941000D01*
G75*
G02*
X151248000Y-147766000I0J175000D01*
G01*
X151248000Y-145466000D01*
G75*
G02*
X151423000Y-145291000I175000J0D01*
G01*
G37*
G36*
G01*
X150153000Y-145291000D02*
X150503000Y-145291000D01*
G75*
G02*
X150678000Y-145466000I0J-175000D01*
G01*
X150678000Y-147766000D01*
G75*
G02*
X150503000Y-147941000I-175000J0D01*
G01*
X150153000Y-147941000D01*
G75*
G02*
X149978000Y-147766000I0J175000D01*
G01*
X149978000Y-145466000D01*
G75*
G02*
X150153000Y-145291000I175000J0D01*
G01*
G37*
G36*
G01*
X148883000Y-145291000D02*
X149233000Y-145291000D01*
G75*
G02*
X149408000Y-145466000I0J-175000D01*
G01*
X149408000Y-147766000D01*
G75*
G02*
X149233000Y-147941000I-175000J0D01*
G01*
X148883000Y-147941000D01*
G75*
G02*
X148708000Y-147766000I0J175000D01*
G01*
X148708000Y-145466000D01*
G75*
G02*
X148883000Y-145291000I175000J0D01*
G01*
G37*
G36*
G01*
X147613000Y-145291000D02*
X147963000Y-145291000D01*
G75*
G02*
X148138000Y-145466000I0J-175000D01*
G01*
X148138000Y-147766000D01*
G75*
G02*
X147963000Y-147941000I-175000J0D01*
G01*
X147613000Y-147941000D01*
G75*
G02*
X147438000Y-147766000I0J175000D01*
G01*
X147438000Y-145466000D01*
G75*
G02*
X147613000Y-145291000I175000J0D01*
G01*
G37*
G36*
G01*
X146343000Y-145291000D02*
X146693000Y-145291000D01*
G75*
G02*
X146868000Y-145466000I0J-175000D01*
G01*
X146868000Y-147766000D01*
G75*
G02*
X146693000Y-147941000I-175000J0D01*
G01*
X146343000Y-147941000D01*
G75*
G02*
X146168000Y-147766000I0J175000D01*
G01*
X146168000Y-145466000D01*
G75*
G02*
X146343000Y-145291000I175000J0D01*
G01*
G37*
G36*
G01*
X145073000Y-145291000D02*
X145423000Y-145291000D01*
G75*
G02*
X145598000Y-145466000I0J-175000D01*
G01*
X145598000Y-147766000D01*
G75*
G02*
X145423000Y-147941000I-175000J0D01*
G01*
X145073000Y-147941000D01*
G75*
G02*
X144898000Y-147766000I0J175000D01*
G01*
X144898000Y-145466000D01*
G75*
G02*
X145073000Y-145291000I175000J0D01*
G01*
G37*
G36*
G01*
X143803000Y-145291000D02*
X144153000Y-145291000D01*
G75*
G02*
X144328000Y-145466000I0J-175000D01*
G01*
X144328000Y-147766000D01*
G75*
G02*
X144153000Y-147941000I-175000J0D01*
G01*
X143803000Y-147941000D01*
G75*
G02*
X143628000Y-147766000I0J175000D01*
G01*
X143628000Y-145466000D01*
G75*
G02*
X143803000Y-145291000I175000J0D01*
G01*
G37*
G36*
G01*
X142533000Y-145291000D02*
X142883000Y-145291000D01*
G75*
G02*
X143058000Y-145466000I0J-175000D01*
G01*
X143058000Y-147766000D01*
G75*
G02*
X142883000Y-147941000I-175000J0D01*
G01*
X142533000Y-147941000D01*
G75*
G02*
X142358000Y-147766000I0J175000D01*
G01*
X142358000Y-145466000D01*
G75*
G02*
X142533000Y-145291000I175000J0D01*
G01*
G37*
G36*
G01*
X142533000Y-135091000D02*
X142883000Y-135091000D01*
G75*
G02*
X143058000Y-135266000I0J-175000D01*
G01*
X143058000Y-137566000D01*
G75*
G02*
X142883000Y-137741000I-175000J0D01*
G01*
X142533000Y-137741000D01*
G75*
G02*
X142358000Y-137566000I0J175000D01*
G01*
X142358000Y-135266000D01*
G75*
G02*
X142533000Y-135091000I175000J0D01*
G01*
G37*
G36*
G01*
X143803000Y-135091000D02*
X144153000Y-135091000D01*
G75*
G02*
X144328000Y-135266000I0J-175000D01*
G01*
X144328000Y-137566000D01*
G75*
G02*
X144153000Y-137741000I-175000J0D01*
G01*
X143803000Y-137741000D01*
G75*
G02*
X143628000Y-137566000I0J175000D01*
G01*
X143628000Y-135266000D01*
G75*
G02*
X143803000Y-135091000I175000J0D01*
G01*
G37*
G36*
G01*
X145073000Y-135091000D02*
X145423000Y-135091000D01*
G75*
G02*
X145598000Y-135266000I0J-175000D01*
G01*
X145598000Y-137566000D01*
G75*
G02*
X145423000Y-137741000I-175000J0D01*
G01*
X145073000Y-137741000D01*
G75*
G02*
X144898000Y-137566000I0J175000D01*
G01*
X144898000Y-135266000D01*
G75*
G02*
X145073000Y-135091000I175000J0D01*
G01*
G37*
G36*
G01*
X146343000Y-135091000D02*
X146693000Y-135091000D01*
G75*
G02*
X146868000Y-135266000I0J-175000D01*
G01*
X146868000Y-137566000D01*
G75*
G02*
X146693000Y-137741000I-175000J0D01*
G01*
X146343000Y-137741000D01*
G75*
G02*
X146168000Y-137566000I0J175000D01*
G01*
X146168000Y-135266000D01*
G75*
G02*
X146343000Y-135091000I175000J0D01*
G01*
G37*
G36*
G01*
X147613000Y-135091000D02*
X147963000Y-135091000D01*
G75*
G02*
X148138000Y-135266000I0J-175000D01*
G01*
X148138000Y-137566000D01*
G75*
G02*
X147963000Y-137741000I-175000J0D01*
G01*
X147613000Y-137741000D01*
G75*
G02*
X147438000Y-137566000I0J175000D01*
G01*
X147438000Y-135266000D01*
G75*
G02*
X147613000Y-135091000I175000J0D01*
G01*
G37*
G36*
G01*
X148883000Y-135091000D02*
X149233000Y-135091000D01*
G75*
G02*
X149408000Y-135266000I0J-175000D01*
G01*
X149408000Y-137566000D01*
G75*
G02*
X149233000Y-137741000I-175000J0D01*
G01*
X148883000Y-137741000D01*
G75*
G02*
X148708000Y-137566000I0J175000D01*
G01*
X148708000Y-135266000D01*
G75*
G02*
X148883000Y-135091000I175000J0D01*
G01*
G37*
G36*
G01*
X150153000Y-135091000D02*
X150503000Y-135091000D01*
G75*
G02*
X150678000Y-135266000I0J-175000D01*
G01*
X150678000Y-137566000D01*
G75*
G02*
X150503000Y-137741000I-175000J0D01*
G01*
X150153000Y-137741000D01*
G75*
G02*
X149978000Y-137566000I0J175000D01*
G01*
X149978000Y-135266000D01*
G75*
G02*
X150153000Y-135091000I175000J0D01*
G01*
G37*
G36*
G01*
X151423000Y-135091000D02*
X151773000Y-135091000D01*
G75*
G02*
X151948000Y-135266000I0J-175000D01*
G01*
X151948000Y-137566000D01*
G75*
G02*
X151773000Y-137741000I-175000J0D01*
G01*
X151423000Y-137741000D01*
G75*
G02*
X151248000Y-137566000I0J175000D01*
G01*
X151248000Y-135266000D01*
G75*
G02*
X151423000Y-135091000I175000J0D01*
G01*
G37*
G36*
G01*
X152693000Y-135091000D02*
X153043000Y-135091000D01*
G75*
G02*
X153218000Y-135266000I0J-175000D01*
G01*
X153218000Y-137566000D01*
G75*
G02*
X153043000Y-137741000I-175000J0D01*
G01*
X152693000Y-137741000D01*
G75*
G02*
X152518000Y-137566000I0J175000D01*
G01*
X152518000Y-135266000D01*
G75*
G02*
X152693000Y-135091000I175000J0D01*
G01*
G37*
G36*
G01*
X153963000Y-135091000D02*
X154313000Y-135091000D01*
G75*
G02*
X154488000Y-135266000I0J-175000D01*
G01*
X154488000Y-137566000D01*
G75*
G02*
X154313000Y-137741000I-175000J0D01*
G01*
X153963000Y-137741000D01*
G75*
G02*
X153788000Y-137566000I0J175000D01*
G01*
X153788000Y-135266000D01*
G75*
G02*
X153963000Y-135091000I175000J0D01*
G01*
G37*
G36*
G01*
X155233000Y-135091000D02*
X155583000Y-135091000D01*
G75*
G02*
X155758000Y-135266000I0J-175000D01*
G01*
X155758000Y-137566000D01*
G75*
G02*
X155583000Y-137741000I-175000J0D01*
G01*
X155233000Y-137741000D01*
G75*
G02*
X155058000Y-137566000I0J175000D01*
G01*
X155058000Y-135266000D01*
G75*
G02*
X155233000Y-135091000I175000J0D01*
G01*
G37*
G36*
G01*
X156503000Y-135091000D02*
X156853000Y-135091000D01*
G75*
G02*
X157028000Y-135266000I0J-175000D01*
G01*
X157028000Y-137566000D01*
G75*
G02*
X156853000Y-137741000I-175000J0D01*
G01*
X156503000Y-137741000D01*
G75*
G02*
X156328000Y-137566000I0J175000D01*
G01*
X156328000Y-135266000D01*
G75*
G02*
X156503000Y-135091000I175000J0D01*
G01*
G37*
G36*
G01*
X157773000Y-135091000D02*
X158123000Y-135091000D01*
G75*
G02*
X158298000Y-135266000I0J-175000D01*
G01*
X158298000Y-137566000D01*
G75*
G02*
X158123000Y-137741000I-175000J0D01*
G01*
X157773000Y-137741000D01*
G75*
G02*
X157598000Y-137566000I0J175000D01*
G01*
X157598000Y-135266000D01*
G75*
G02*
X157773000Y-135091000I175000J0D01*
G01*
G37*
G36*
G01*
X159043000Y-135091000D02*
X159393000Y-135091000D01*
G75*
G02*
X159568000Y-135266000I0J-175000D01*
G01*
X159568000Y-137566000D01*
G75*
G02*
X159393000Y-137741000I-175000J0D01*
G01*
X159043000Y-137741000D01*
G75*
G02*
X158868000Y-137566000I0J175000D01*
G01*
X158868000Y-135266000D01*
G75*
G02*
X159043000Y-135091000I175000J0D01*
G01*
G37*
G36*
G01*
X160313000Y-135091000D02*
X160663000Y-135091000D01*
G75*
G02*
X160838000Y-135266000I0J-175000D01*
G01*
X160838000Y-137566000D01*
G75*
G02*
X160663000Y-137741000I-175000J0D01*
G01*
X160313000Y-137741000D01*
G75*
G02*
X160138000Y-137566000I0J175000D01*
G01*
X160138000Y-135266000D01*
G75*
G02*
X160313000Y-135091000I175000J0D01*
G01*
G37*
G36*
G01*
X161583000Y-135091000D02*
X161933000Y-135091000D01*
G75*
G02*
X162108000Y-135266000I0J-175000D01*
G01*
X162108000Y-137566000D01*
G75*
G02*
X161933000Y-137741000I-175000J0D01*
G01*
X161583000Y-137741000D01*
G75*
G02*
X161408000Y-137566000I0J175000D01*
G01*
X161408000Y-135266000D01*
G75*
G02*
X161583000Y-135091000I175000J0D01*
G01*
G37*
G36*
G01*
X162853000Y-135091000D02*
X163203000Y-135091000D01*
G75*
G02*
X163378000Y-135266000I0J-175000D01*
G01*
X163378000Y-137566000D01*
G75*
G02*
X163203000Y-137741000I-175000J0D01*
G01*
X162853000Y-137741000D01*
G75*
G02*
X162678000Y-137566000I0J175000D01*
G01*
X162678000Y-135266000D01*
G75*
G02*
X162853000Y-135091000I175000J0D01*
G01*
G37*
G36*
G01*
X164123000Y-135091000D02*
X164473000Y-135091000D01*
G75*
G02*
X164648000Y-135266000I0J-175000D01*
G01*
X164648000Y-137566000D01*
G75*
G02*
X164473000Y-137741000I-175000J0D01*
G01*
X164123000Y-137741000D01*
G75*
G02*
X163948000Y-137566000I0J175000D01*
G01*
X163948000Y-135266000D01*
G75*
G02*
X164123000Y-135091000I175000J0D01*
G01*
G37*
%TD*%
%TO.C,U6*%
G36*
G01*
X192123000Y-145291000D02*
X192473000Y-145291000D01*
G75*
G02*
X192648000Y-145466000I0J-175000D01*
G01*
X192648000Y-147766000D01*
G75*
G02*
X192473000Y-147941000I-175000J0D01*
G01*
X192123000Y-147941000D01*
G75*
G02*
X191948000Y-147766000I0J175000D01*
G01*
X191948000Y-145466000D01*
G75*
G02*
X192123000Y-145291000I175000J0D01*
G01*
G37*
G36*
G01*
X190853000Y-145291000D02*
X191203000Y-145291000D01*
G75*
G02*
X191378000Y-145466000I0J-175000D01*
G01*
X191378000Y-147766000D01*
G75*
G02*
X191203000Y-147941000I-175000J0D01*
G01*
X190853000Y-147941000D01*
G75*
G02*
X190678000Y-147766000I0J175000D01*
G01*
X190678000Y-145466000D01*
G75*
G02*
X190853000Y-145291000I175000J0D01*
G01*
G37*
G36*
G01*
X189583000Y-145291000D02*
X189933000Y-145291000D01*
G75*
G02*
X190108000Y-145466000I0J-175000D01*
G01*
X190108000Y-147766000D01*
G75*
G02*
X189933000Y-147941000I-175000J0D01*
G01*
X189583000Y-147941000D01*
G75*
G02*
X189408000Y-147766000I0J175000D01*
G01*
X189408000Y-145466000D01*
G75*
G02*
X189583000Y-145291000I175000J0D01*
G01*
G37*
G36*
G01*
X188313000Y-145291000D02*
X188663000Y-145291000D01*
G75*
G02*
X188838000Y-145466000I0J-175000D01*
G01*
X188838000Y-147766000D01*
G75*
G02*
X188663000Y-147941000I-175000J0D01*
G01*
X188313000Y-147941000D01*
G75*
G02*
X188138000Y-147766000I0J175000D01*
G01*
X188138000Y-145466000D01*
G75*
G02*
X188313000Y-145291000I175000J0D01*
G01*
G37*
G36*
G01*
X187043000Y-145291000D02*
X187393000Y-145291000D01*
G75*
G02*
X187568000Y-145466000I0J-175000D01*
G01*
X187568000Y-147766000D01*
G75*
G02*
X187393000Y-147941000I-175000J0D01*
G01*
X187043000Y-147941000D01*
G75*
G02*
X186868000Y-147766000I0J175000D01*
G01*
X186868000Y-145466000D01*
G75*
G02*
X187043000Y-145291000I175000J0D01*
G01*
G37*
G36*
G01*
X185773000Y-145291000D02*
X186123000Y-145291000D01*
G75*
G02*
X186298000Y-145466000I0J-175000D01*
G01*
X186298000Y-147766000D01*
G75*
G02*
X186123000Y-147941000I-175000J0D01*
G01*
X185773000Y-147941000D01*
G75*
G02*
X185598000Y-147766000I0J175000D01*
G01*
X185598000Y-145466000D01*
G75*
G02*
X185773000Y-145291000I175000J0D01*
G01*
G37*
G36*
G01*
X184503000Y-145291000D02*
X184853000Y-145291000D01*
G75*
G02*
X185028000Y-145466000I0J-175000D01*
G01*
X185028000Y-147766000D01*
G75*
G02*
X184853000Y-147941000I-175000J0D01*
G01*
X184503000Y-147941000D01*
G75*
G02*
X184328000Y-147766000I0J175000D01*
G01*
X184328000Y-145466000D01*
G75*
G02*
X184503000Y-145291000I175000J0D01*
G01*
G37*
G36*
G01*
X183233000Y-145291000D02*
X183583000Y-145291000D01*
G75*
G02*
X183758000Y-145466000I0J-175000D01*
G01*
X183758000Y-147766000D01*
G75*
G02*
X183583000Y-147941000I-175000J0D01*
G01*
X183233000Y-147941000D01*
G75*
G02*
X183058000Y-147766000I0J175000D01*
G01*
X183058000Y-145466000D01*
G75*
G02*
X183233000Y-145291000I175000J0D01*
G01*
G37*
G36*
G01*
X181963000Y-145291000D02*
X182313000Y-145291000D01*
G75*
G02*
X182488000Y-145466000I0J-175000D01*
G01*
X182488000Y-147766000D01*
G75*
G02*
X182313000Y-147941000I-175000J0D01*
G01*
X181963000Y-147941000D01*
G75*
G02*
X181788000Y-147766000I0J175000D01*
G01*
X181788000Y-145466000D01*
G75*
G02*
X181963000Y-145291000I175000J0D01*
G01*
G37*
G36*
G01*
X180693000Y-145291000D02*
X181043000Y-145291000D01*
G75*
G02*
X181218000Y-145466000I0J-175000D01*
G01*
X181218000Y-147766000D01*
G75*
G02*
X181043000Y-147941000I-175000J0D01*
G01*
X180693000Y-147941000D01*
G75*
G02*
X180518000Y-147766000I0J175000D01*
G01*
X180518000Y-145466000D01*
G75*
G02*
X180693000Y-145291000I175000J0D01*
G01*
G37*
G36*
G01*
X179423000Y-145291000D02*
X179773000Y-145291000D01*
G75*
G02*
X179948000Y-145466000I0J-175000D01*
G01*
X179948000Y-147766000D01*
G75*
G02*
X179773000Y-147941000I-175000J0D01*
G01*
X179423000Y-147941000D01*
G75*
G02*
X179248000Y-147766000I0J175000D01*
G01*
X179248000Y-145466000D01*
G75*
G02*
X179423000Y-145291000I175000J0D01*
G01*
G37*
G36*
G01*
X178153000Y-145291000D02*
X178503000Y-145291000D01*
G75*
G02*
X178678000Y-145466000I0J-175000D01*
G01*
X178678000Y-147766000D01*
G75*
G02*
X178503000Y-147941000I-175000J0D01*
G01*
X178153000Y-147941000D01*
G75*
G02*
X177978000Y-147766000I0J175000D01*
G01*
X177978000Y-145466000D01*
G75*
G02*
X178153000Y-145291000I175000J0D01*
G01*
G37*
G36*
G01*
X176883000Y-145291000D02*
X177233000Y-145291000D01*
G75*
G02*
X177408000Y-145466000I0J-175000D01*
G01*
X177408000Y-147766000D01*
G75*
G02*
X177233000Y-147941000I-175000J0D01*
G01*
X176883000Y-147941000D01*
G75*
G02*
X176708000Y-147766000I0J175000D01*
G01*
X176708000Y-145466000D01*
G75*
G02*
X176883000Y-145291000I175000J0D01*
G01*
G37*
G36*
G01*
X175613000Y-145291000D02*
X175963000Y-145291000D01*
G75*
G02*
X176138000Y-145466000I0J-175000D01*
G01*
X176138000Y-147766000D01*
G75*
G02*
X175963000Y-147941000I-175000J0D01*
G01*
X175613000Y-147941000D01*
G75*
G02*
X175438000Y-147766000I0J175000D01*
G01*
X175438000Y-145466000D01*
G75*
G02*
X175613000Y-145291000I175000J0D01*
G01*
G37*
G36*
G01*
X174343000Y-145291000D02*
X174693000Y-145291000D01*
G75*
G02*
X174868000Y-145466000I0J-175000D01*
G01*
X174868000Y-147766000D01*
G75*
G02*
X174693000Y-147941000I-175000J0D01*
G01*
X174343000Y-147941000D01*
G75*
G02*
X174168000Y-147766000I0J175000D01*
G01*
X174168000Y-145466000D01*
G75*
G02*
X174343000Y-145291000I175000J0D01*
G01*
G37*
G36*
G01*
X173073000Y-145291000D02*
X173423000Y-145291000D01*
G75*
G02*
X173598000Y-145466000I0J-175000D01*
G01*
X173598000Y-147766000D01*
G75*
G02*
X173423000Y-147941000I-175000J0D01*
G01*
X173073000Y-147941000D01*
G75*
G02*
X172898000Y-147766000I0J175000D01*
G01*
X172898000Y-145466000D01*
G75*
G02*
X173073000Y-145291000I175000J0D01*
G01*
G37*
G36*
G01*
X171803000Y-145291000D02*
X172153000Y-145291000D01*
G75*
G02*
X172328000Y-145466000I0J-175000D01*
G01*
X172328000Y-147766000D01*
G75*
G02*
X172153000Y-147941000I-175000J0D01*
G01*
X171803000Y-147941000D01*
G75*
G02*
X171628000Y-147766000I0J175000D01*
G01*
X171628000Y-145466000D01*
G75*
G02*
X171803000Y-145291000I175000J0D01*
G01*
G37*
G36*
G01*
X170533000Y-145291000D02*
X170883000Y-145291000D01*
G75*
G02*
X171058000Y-145466000I0J-175000D01*
G01*
X171058000Y-147766000D01*
G75*
G02*
X170883000Y-147941000I-175000J0D01*
G01*
X170533000Y-147941000D01*
G75*
G02*
X170358000Y-147766000I0J175000D01*
G01*
X170358000Y-145466000D01*
G75*
G02*
X170533000Y-145291000I175000J0D01*
G01*
G37*
G36*
G01*
X170533000Y-135091000D02*
X170883000Y-135091000D01*
G75*
G02*
X171058000Y-135266000I0J-175000D01*
G01*
X171058000Y-137566000D01*
G75*
G02*
X170883000Y-137741000I-175000J0D01*
G01*
X170533000Y-137741000D01*
G75*
G02*
X170358000Y-137566000I0J175000D01*
G01*
X170358000Y-135266000D01*
G75*
G02*
X170533000Y-135091000I175000J0D01*
G01*
G37*
G36*
G01*
X171803000Y-135091000D02*
X172153000Y-135091000D01*
G75*
G02*
X172328000Y-135266000I0J-175000D01*
G01*
X172328000Y-137566000D01*
G75*
G02*
X172153000Y-137741000I-175000J0D01*
G01*
X171803000Y-137741000D01*
G75*
G02*
X171628000Y-137566000I0J175000D01*
G01*
X171628000Y-135266000D01*
G75*
G02*
X171803000Y-135091000I175000J0D01*
G01*
G37*
G36*
G01*
X173073000Y-135091000D02*
X173423000Y-135091000D01*
G75*
G02*
X173598000Y-135266000I0J-175000D01*
G01*
X173598000Y-137566000D01*
G75*
G02*
X173423000Y-137741000I-175000J0D01*
G01*
X173073000Y-137741000D01*
G75*
G02*
X172898000Y-137566000I0J175000D01*
G01*
X172898000Y-135266000D01*
G75*
G02*
X173073000Y-135091000I175000J0D01*
G01*
G37*
G36*
G01*
X174343000Y-135091000D02*
X174693000Y-135091000D01*
G75*
G02*
X174868000Y-135266000I0J-175000D01*
G01*
X174868000Y-137566000D01*
G75*
G02*
X174693000Y-137741000I-175000J0D01*
G01*
X174343000Y-137741000D01*
G75*
G02*
X174168000Y-137566000I0J175000D01*
G01*
X174168000Y-135266000D01*
G75*
G02*
X174343000Y-135091000I175000J0D01*
G01*
G37*
G36*
G01*
X175613000Y-135091000D02*
X175963000Y-135091000D01*
G75*
G02*
X176138000Y-135266000I0J-175000D01*
G01*
X176138000Y-137566000D01*
G75*
G02*
X175963000Y-137741000I-175000J0D01*
G01*
X175613000Y-137741000D01*
G75*
G02*
X175438000Y-137566000I0J175000D01*
G01*
X175438000Y-135266000D01*
G75*
G02*
X175613000Y-135091000I175000J0D01*
G01*
G37*
G36*
G01*
X176883000Y-135091000D02*
X177233000Y-135091000D01*
G75*
G02*
X177408000Y-135266000I0J-175000D01*
G01*
X177408000Y-137566000D01*
G75*
G02*
X177233000Y-137741000I-175000J0D01*
G01*
X176883000Y-137741000D01*
G75*
G02*
X176708000Y-137566000I0J175000D01*
G01*
X176708000Y-135266000D01*
G75*
G02*
X176883000Y-135091000I175000J0D01*
G01*
G37*
G36*
G01*
X178153000Y-135091000D02*
X178503000Y-135091000D01*
G75*
G02*
X178678000Y-135266000I0J-175000D01*
G01*
X178678000Y-137566000D01*
G75*
G02*
X178503000Y-137741000I-175000J0D01*
G01*
X178153000Y-137741000D01*
G75*
G02*
X177978000Y-137566000I0J175000D01*
G01*
X177978000Y-135266000D01*
G75*
G02*
X178153000Y-135091000I175000J0D01*
G01*
G37*
G36*
G01*
X179423000Y-135091000D02*
X179773000Y-135091000D01*
G75*
G02*
X179948000Y-135266000I0J-175000D01*
G01*
X179948000Y-137566000D01*
G75*
G02*
X179773000Y-137741000I-175000J0D01*
G01*
X179423000Y-137741000D01*
G75*
G02*
X179248000Y-137566000I0J175000D01*
G01*
X179248000Y-135266000D01*
G75*
G02*
X179423000Y-135091000I175000J0D01*
G01*
G37*
G36*
G01*
X180693000Y-135091000D02*
X181043000Y-135091000D01*
G75*
G02*
X181218000Y-135266000I0J-175000D01*
G01*
X181218000Y-137566000D01*
G75*
G02*
X181043000Y-137741000I-175000J0D01*
G01*
X180693000Y-137741000D01*
G75*
G02*
X180518000Y-137566000I0J175000D01*
G01*
X180518000Y-135266000D01*
G75*
G02*
X180693000Y-135091000I175000J0D01*
G01*
G37*
G36*
G01*
X181963000Y-135091000D02*
X182313000Y-135091000D01*
G75*
G02*
X182488000Y-135266000I0J-175000D01*
G01*
X182488000Y-137566000D01*
G75*
G02*
X182313000Y-137741000I-175000J0D01*
G01*
X181963000Y-137741000D01*
G75*
G02*
X181788000Y-137566000I0J175000D01*
G01*
X181788000Y-135266000D01*
G75*
G02*
X181963000Y-135091000I175000J0D01*
G01*
G37*
G36*
G01*
X183233000Y-135091000D02*
X183583000Y-135091000D01*
G75*
G02*
X183758000Y-135266000I0J-175000D01*
G01*
X183758000Y-137566000D01*
G75*
G02*
X183583000Y-137741000I-175000J0D01*
G01*
X183233000Y-137741000D01*
G75*
G02*
X183058000Y-137566000I0J175000D01*
G01*
X183058000Y-135266000D01*
G75*
G02*
X183233000Y-135091000I175000J0D01*
G01*
G37*
G36*
G01*
X184503000Y-135091000D02*
X184853000Y-135091000D01*
G75*
G02*
X185028000Y-135266000I0J-175000D01*
G01*
X185028000Y-137566000D01*
G75*
G02*
X184853000Y-137741000I-175000J0D01*
G01*
X184503000Y-137741000D01*
G75*
G02*
X184328000Y-137566000I0J175000D01*
G01*
X184328000Y-135266000D01*
G75*
G02*
X184503000Y-135091000I175000J0D01*
G01*
G37*
G36*
G01*
X185773000Y-135091000D02*
X186123000Y-135091000D01*
G75*
G02*
X186298000Y-135266000I0J-175000D01*
G01*
X186298000Y-137566000D01*
G75*
G02*
X186123000Y-137741000I-175000J0D01*
G01*
X185773000Y-137741000D01*
G75*
G02*
X185598000Y-137566000I0J175000D01*
G01*
X185598000Y-135266000D01*
G75*
G02*
X185773000Y-135091000I175000J0D01*
G01*
G37*
G36*
G01*
X187043000Y-135091000D02*
X187393000Y-135091000D01*
G75*
G02*
X187568000Y-135266000I0J-175000D01*
G01*
X187568000Y-137566000D01*
G75*
G02*
X187393000Y-137741000I-175000J0D01*
G01*
X187043000Y-137741000D01*
G75*
G02*
X186868000Y-137566000I0J175000D01*
G01*
X186868000Y-135266000D01*
G75*
G02*
X187043000Y-135091000I175000J0D01*
G01*
G37*
G36*
G01*
X188313000Y-135091000D02*
X188663000Y-135091000D01*
G75*
G02*
X188838000Y-135266000I0J-175000D01*
G01*
X188838000Y-137566000D01*
G75*
G02*
X188663000Y-137741000I-175000J0D01*
G01*
X188313000Y-137741000D01*
G75*
G02*
X188138000Y-137566000I0J175000D01*
G01*
X188138000Y-135266000D01*
G75*
G02*
X188313000Y-135091000I175000J0D01*
G01*
G37*
G36*
G01*
X189583000Y-135091000D02*
X189933000Y-135091000D01*
G75*
G02*
X190108000Y-135266000I0J-175000D01*
G01*
X190108000Y-137566000D01*
G75*
G02*
X189933000Y-137741000I-175000J0D01*
G01*
X189583000Y-137741000D01*
G75*
G02*
X189408000Y-137566000I0J175000D01*
G01*
X189408000Y-135266000D01*
G75*
G02*
X189583000Y-135091000I175000J0D01*
G01*
G37*
G36*
G01*
X190853000Y-135091000D02*
X191203000Y-135091000D01*
G75*
G02*
X191378000Y-135266000I0J-175000D01*
G01*
X191378000Y-137566000D01*
G75*
G02*
X191203000Y-137741000I-175000J0D01*
G01*
X190853000Y-137741000D01*
G75*
G02*
X190678000Y-137566000I0J175000D01*
G01*
X190678000Y-135266000D01*
G75*
G02*
X190853000Y-135091000I175000J0D01*
G01*
G37*
G36*
G01*
X192123000Y-135091000D02*
X192473000Y-135091000D01*
G75*
G02*
X192648000Y-135266000I0J-175000D01*
G01*
X192648000Y-137566000D01*
G75*
G02*
X192473000Y-137741000I-175000J0D01*
G01*
X192123000Y-137741000D01*
G75*
G02*
X191948000Y-137566000I0J175000D01*
G01*
X191948000Y-135266000D01*
G75*
G02*
X192123000Y-135091000I175000J0D01*
G01*
G37*
%TD*%
%TO.C,D1*%
G36*
G01*
X55252000Y-19150250D02*
X55252000Y-18187750D01*
G75*
G02*
X55520750Y-17919000I268750J0D01*
G01*
X56058250Y-17919000D01*
G75*
G02*
X56327000Y-18187750I0J-268750D01*
G01*
X56327000Y-19150250D01*
G75*
G02*
X56058250Y-19419000I-268750J0D01*
G01*
X55520750Y-19419000D01*
G75*
G02*
X55252000Y-19150250I0J268750D01*
G01*
G37*
G36*
G01*
X57127000Y-19150250D02*
X57127000Y-18187750D01*
G75*
G02*
X57395750Y-17919000I268750J0D01*
G01*
X57933250Y-17919000D01*
G75*
G02*
X58202000Y-18187750I0J-268750D01*
G01*
X58202000Y-19150250D01*
G75*
G02*
X57933250Y-19419000I-268750J0D01*
G01*
X57395750Y-19419000D01*
G75*
G02*
X57127000Y-19150250I0J268750D01*
G01*
G37*
%TD*%
%TO.C,D2*%
G36*
G01*
X63900000Y-19150250D02*
X63900000Y-18187750D01*
G75*
G02*
X64168750Y-17919000I268750J0D01*
G01*
X64706250Y-17919000D01*
G75*
G02*
X64975000Y-18187750I0J-268750D01*
G01*
X64975000Y-19150250D01*
G75*
G02*
X64706250Y-19419000I-268750J0D01*
G01*
X64168750Y-19419000D01*
G75*
G02*
X63900000Y-19150250I0J268750D01*
G01*
G37*
G36*
G01*
X62025000Y-19150250D02*
X62025000Y-18187750D01*
G75*
G02*
X62293750Y-17919000I268750J0D01*
G01*
X62831250Y-17919000D01*
G75*
G02*
X63100000Y-18187750I0J-268750D01*
G01*
X63100000Y-19150250D01*
G75*
G02*
X62831250Y-19419000I-268750J0D01*
G01*
X62293750Y-19419000D01*
G75*
G02*
X62025000Y-19150250I0J268750D01*
G01*
G37*
%TD*%
%TO.C,D3*%
G36*
G01*
X93061000Y-19150250D02*
X93061000Y-18187750D01*
G75*
G02*
X93329750Y-17919000I268750J0D01*
G01*
X93867250Y-17919000D01*
G75*
G02*
X94136000Y-18187750I0J-268750D01*
G01*
X94136000Y-19150250D01*
G75*
G02*
X93867250Y-19419000I-268750J0D01*
G01*
X93329750Y-19419000D01*
G75*
G02*
X93061000Y-19150250I0J268750D01*
G01*
G37*
G36*
G01*
X94936000Y-19150250D02*
X94936000Y-18187750D01*
G75*
G02*
X95204750Y-17919000I268750J0D01*
G01*
X95742250Y-17919000D01*
G75*
G02*
X96011000Y-18187750I0J-268750D01*
G01*
X96011000Y-19150250D01*
G75*
G02*
X95742250Y-19419000I-268750J0D01*
G01*
X95204750Y-19419000D01*
G75*
G02*
X94936000Y-19150250I0J268750D01*
G01*
G37*
%TD*%
%TO.C,D4*%
G36*
G01*
X98874000Y-19150250D02*
X98874000Y-18187750D01*
G75*
G02*
X99142750Y-17919000I268750J0D01*
G01*
X99680250Y-17919000D01*
G75*
G02*
X99949000Y-18187750I0J-268750D01*
G01*
X99949000Y-19150250D01*
G75*
G02*
X99680250Y-19419000I-268750J0D01*
G01*
X99142750Y-19419000D01*
G75*
G02*
X98874000Y-19150250I0J268750D01*
G01*
G37*
G36*
G01*
X96999000Y-19150250D02*
X96999000Y-18187750D01*
G75*
G02*
X97267750Y-17919000I268750J0D01*
G01*
X97805250Y-17919000D01*
G75*
G02*
X98074000Y-18187750I0J-268750D01*
G01*
X98074000Y-19150250D01*
G75*
G02*
X97805250Y-19419000I-268750J0D01*
G01*
X97267750Y-19419000D01*
G75*
G02*
X96999000Y-19150250I0J268750D01*
G01*
G37*
%TD*%
%TO.C,D5*%
G36*
G01*
X100839000Y-19150250D02*
X100839000Y-18187750D01*
G75*
G02*
X101107750Y-17919000I268750J0D01*
G01*
X101645250Y-17919000D01*
G75*
G02*
X101914000Y-18187750I0J-268750D01*
G01*
X101914000Y-19150250D01*
G75*
G02*
X101645250Y-19419000I-268750J0D01*
G01*
X101107750Y-19419000D01*
G75*
G02*
X100839000Y-19150250I0J268750D01*
G01*
G37*
G36*
G01*
X102714000Y-19150250D02*
X102714000Y-18187750D01*
G75*
G02*
X102982750Y-17919000I268750J0D01*
G01*
X103520250Y-17919000D01*
G75*
G02*
X103789000Y-18187750I0J-268750D01*
G01*
X103789000Y-19150250D01*
G75*
G02*
X103520250Y-19419000I-268750J0D01*
G01*
X102982750Y-19419000D01*
G75*
G02*
X102714000Y-19150250I0J268750D01*
G01*
G37*
%TD*%
%TO.C,D6*%
G36*
G01*
X83029000Y-19150250D02*
X83029000Y-18187750D01*
G75*
G02*
X83297750Y-17919000I268750J0D01*
G01*
X83835250Y-17919000D01*
G75*
G02*
X84104000Y-18187750I0J-268750D01*
G01*
X84104000Y-19150250D01*
G75*
G02*
X83835250Y-19419000I-268750J0D01*
G01*
X83297750Y-19419000D01*
G75*
G02*
X83029000Y-19150250I0J268750D01*
G01*
G37*
G36*
G01*
X84904000Y-19150250D02*
X84904000Y-18187750D01*
G75*
G02*
X85172750Y-17919000I268750J0D01*
G01*
X85710250Y-17919000D01*
G75*
G02*
X85979000Y-18187750I0J-268750D01*
G01*
X85979000Y-19150250D01*
G75*
G02*
X85710250Y-19419000I-268750J0D01*
G01*
X85172750Y-19419000D01*
G75*
G02*
X84904000Y-19150250I0J268750D01*
G01*
G37*
%TD*%
D15*
%TO.C,J1*%
X137922000Y-19050000D03*
X135382000Y-19050000D03*
X132842000Y-19050000D03*
%TD*%
D16*
%TO.C,J2*%
X166243000Y-164338000D03*
X163703000Y-164338000D03*
X161163000Y-164338000D03*
X158623000Y-164338000D03*
X156083000Y-164338000D03*
X153543000Y-164338000D03*
X151003000Y-164338000D03*
X148463000Y-164338000D03*
X145923000Y-164338000D03*
X143383000Y-164338000D03*
X140843000Y-164338000D03*
X138303000Y-164338000D03*
X135763000Y-164338000D03*
X133223000Y-164338000D03*
X130683000Y-164338000D03*
X128143000Y-164338000D03*
X125603000Y-164338000D03*
X123063000Y-164338000D03*
X120523000Y-164338000D03*
X117983000Y-164338000D03*
X115443000Y-164338000D03*
X112903000Y-164338000D03*
X110363000Y-164338000D03*
X107823000Y-164338000D03*
X105283000Y-164338000D03*
X102743000Y-164338000D03*
X100203000Y-164338000D03*
X97663000Y-164338000D03*
X95123000Y-164338000D03*
X92583000Y-164338000D03*
X90043000Y-164338000D03*
X79883000Y-164338000D03*
X77343000Y-164338000D03*
X74803000Y-164338000D03*
X72263000Y-164338000D03*
X69723000Y-164338000D03*
X67183000Y-164338000D03*
X64643000Y-164338000D03*
X62103000Y-164338000D03*
X59563000Y-164338000D03*
X57023000Y-164338000D03*
X54483000Y-164338000D03*
X51943000Y-164338000D03*
X49403000Y-164338000D03*
X46863000Y-164338000D03*
X44323000Y-164338000D03*
X41783000Y-164338000D03*
X39243000Y-164338000D03*
X36703000Y-164338000D03*
%TD*%
D17*
%TO.C,J5*%
X30353000Y-141732000D03*
G36*
G01*
X22803000Y-142757000D02*
X22803000Y-140707000D01*
G75*
G02*
X23578000Y-139932000I775000J0D01*
G01*
X25128000Y-139932000D01*
G75*
G02*
X25903000Y-140707000I0J-775000D01*
G01*
X25903000Y-142757000D01*
G75*
G02*
X25128000Y-143532000I-775000J0D01*
G01*
X23578000Y-143532000D01*
G75*
G02*
X22803000Y-142757000I0J775000D01*
G01*
G37*
G36*
G01*
X25553000Y-147332000D02*
X25553000Y-145532000D01*
G75*
G02*
X26453000Y-144632000I900000J0D01*
G01*
X28253000Y-144632000D01*
G75*
G02*
X29153000Y-145532000I0J-900000D01*
G01*
X29153000Y-147332000D01*
G75*
G02*
X28253000Y-148232000I-900000J0D01*
G01*
X26453000Y-148232000D01*
G75*
G02*
X25553000Y-147332000I0J900000D01*
G01*
G37*
%TD*%
D18*
%TO.C,JP1*%
X32766000Y-101092000D03*
X32766000Y-103632000D03*
%TD*%
%TO.C,R1*%
G36*
G01*
X115543250Y-29367000D02*
X114580750Y-29367000D01*
G75*
G02*
X114312000Y-29098250I0J268750D01*
G01*
X114312000Y-28560750D01*
G75*
G02*
X114580750Y-28292000I268750J0D01*
G01*
X115543250Y-28292000D01*
G75*
G02*
X115812000Y-28560750I0J-268750D01*
G01*
X115812000Y-29098250D01*
G75*
G02*
X115543250Y-29367000I-268750J0D01*
G01*
G37*
G36*
G01*
X115543250Y-31242000D02*
X114580750Y-31242000D01*
G75*
G02*
X114312000Y-30973250I0J268750D01*
G01*
X114312000Y-30435750D01*
G75*
G02*
X114580750Y-30167000I268750J0D01*
G01*
X115543250Y-30167000D01*
G75*
G02*
X115812000Y-30435750I0J-268750D01*
G01*
X115812000Y-30973250D01*
G75*
G02*
X115543250Y-31242000I-268750J0D01*
G01*
G37*
%TD*%
%TO.C,R2*%
G36*
G01*
X117120750Y-28292000D02*
X118083250Y-28292000D01*
G75*
G02*
X118352000Y-28560750I0J-268750D01*
G01*
X118352000Y-29098250D01*
G75*
G02*
X118083250Y-29367000I-268750J0D01*
G01*
X117120750Y-29367000D01*
G75*
G02*
X116852000Y-29098250I0J268750D01*
G01*
X116852000Y-28560750D01*
G75*
G02*
X117120750Y-28292000I268750J0D01*
G01*
G37*
G36*
G01*
X117120750Y-30167000D02*
X118083250Y-30167000D01*
G75*
G02*
X118352000Y-30435750I0J-268750D01*
G01*
X118352000Y-30973250D01*
G75*
G02*
X118083250Y-31242000I-268750J0D01*
G01*
X117120750Y-31242000D01*
G75*
G02*
X116852000Y-30973250I0J268750D01*
G01*
X116852000Y-30435750D01*
G75*
G02*
X117120750Y-30167000I268750J0D01*
G01*
G37*
%TD*%
%TO.C,R3*%
G36*
G01*
X120623250Y-31242000D02*
X119660750Y-31242000D01*
G75*
G02*
X119392000Y-30973250I0J268750D01*
G01*
X119392000Y-30435750D01*
G75*
G02*
X119660750Y-30167000I268750J0D01*
G01*
X120623250Y-30167000D01*
G75*
G02*
X120892000Y-30435750I0J-268750D01*
G01*
X120892000Y-30973250D01*
G75*
G02*
X120623250Y-31242000I-268750J0D01*
G01*
G37*
G36*
G01*
X120623250Y-29367000D02*
X119660750Y-29367000D01*
G75*
G02*
X119392000Y-29098250I0J268750D01*
G01*
X119392000Y-28560750D01*
G75*
G02*
X119660750Y-28292000I268750J0D01*
G01*
X120623250Y-28292000D01*
G75*
G02*
X120892000Y-28560750I0J-268750D01*
G01*
X120892000Y-29098250D01*
G75*
G02*
X120623250Y-29367000I-268750J0D01*
G01*
G37*
%TD*%
%TO.C,R4*%
G36*
G01*
X122200750Y-30167000D02*
X123163250Y-30167000D01*
G75*
G02*
X123432000Y-30435750I0J-268750D01*
G01*
X123432000Y-30973250D01*
G75*
G02*
X123163250Y-31242000I-268750J0D01*
G01*
X122200750Y-31242000D01*
G75*
G02*
X121932000Y-30973250I0J268750D01*
G01*
X121932000Y-30435750D01*
G75*
G02*
X122200750Y-30167000I268750J0D01*
G01*
G37*
G36*
G01*
X122200750Y-28292000D02*
X123163250Y-28292000D01*
G75*
G02*
X123432000Y-28560750I0J-268750D01*
G01*
X123432000Y-29098250D01*
G75*
G02*
X123163250Y-29367000I-268750J0D01*
G01*
X122200750Y-29367000D01*
G75*
G02*
X121932000Y-29098250I0J268750D01*
G01*
X121932000Y-28560750D01*
G75*
G02*
X122200750Y-28292000I268750J0D01*
G01*
G37*
%TD*%
D19*
%TO.C,RN1*%
X105226000Y-118756000D03*
D20*
X106826000Y-118756000D03*
X106026000Y-118756000D03*
D19*
X107626000Y-118756000D03*
D20*
X106026000Y-116956000D03*
D19*
X105226000Y-116956000D03*
D20*
X106826000Y-116956000D03*
D19*
X107626000Y-116956000D03*
%TD*%
D21*
%TO.C,RN3*%
X69077000Y-60014000D03*
D22*
X69077000Y-61614000D03*
X69077000Y-60814000D03*
D21*
X69077000Y-62414000D03*
D22*
X70877000Y-60814000D03*
D21*
X70877000Y-60014000D03*
D22*
X70877000Y-61614000D03*
D21*
X70877000Y-62414000D03*
%TD*%
D19*
%TO.C,RN4*%
X68650000Y-25792000D03*
D20*
X70250000Y-25792000D03*
X69450000Y-25792000D03*
D19*
X71050000Y-25792000D03*
D20*
X69450000Y-23992000D03*
D19*
X68650000Y-23992000D03*
D20*
X70250000Y-23992000D03*
D19*
X71050000Y-23992000D03*
%TD*%
%TO.C,RN5*%
X86049000Y-25792000D03*
D20*
X86849000Y-25792000D03*
D19*
X88449000Y-25792000D03*
D20*
X87649000Y-25792000D03*
D19*
X86049000Y-23992000D03*
D20*
X87649000Y-23992000D03*
X86849000Y-23992000D03*
D19*
X88449000Y-23992000D03*
%TD*%
D23*
%TO.C,U5*%
X30505000Y-124065000D03*
X30505000Y-128665000D03*
X30505000Y-126365000D03*
D24*
X36805000Y-126365000D03*
%TD*%
D25*
%TO.C,U14*%
X63373000Y-91059000D03*
D26*
X48133000Y-42799000D03*
X63373000Y-88519000D03*
X48133000Y-45339000D03*
X63373000Y-85979000D03*
X48133000Y-47879000D03*
X63373000Y-83439000D03*
X48133000Y-50419000D03*
X63373000Y-80899000D03*
X48133000Y-52959000D03*
X63373000Y-78359000D03*
X48133000Y-55499000D03*
X63373000Y-75819000D03*
X48133000Y-58039000D03*
X63373000Y-73279000D03*
X48133000Y-60579000D03*
X63373000Y-70739000D03*
X48133000Y-63119000D03*
X63373000Y-68199000D03*
X48133000Y-65659000D03*
X63373000Y-65659000D03*
X48133000Y-68199000D03*
X63373000Y-63119000D03*
X48133000Y-70739000D03*
X63373000Y-60579000D03*
X48133000Y-73279000D03*
X63373000Y-58039000D03*
X48133000Y-75819000D03*
X63373000Y-55499000D03*
X48133000Y-78359000D03*
X63373000Y-52959000D03*
X48133000Y-80899000D03*
X63373000Y-50419000D03*
X48133000Y-83439000D03*
X63373000Y-47879000D03*
X48133000Y-85979000D03*
X63373000Y-45339000D03*
X48133000Y-88519000D03*
X63373000Y-42799000D03*
X48133000Y-91059000D03*
%TD*%
D27*
%TO.C,X1*%
X98552000Y-142621000D03*
D28*
X98552000Y-135001000D03*
X106172000Y-135001000D03*
X106172000Y-142621000D03*
%TD*%
D27*
%TO.C,X2*%
X114681000Y-142621000D03*
D28*
X114681000Y-135001000D03*
X129921000Y-135001000D03*
X129921000Y-142621000D03*
%TD*%
%TO.C,IC1*%
G36*
G01*
X23372500Y-102937000D02*
X22347500Y-102937000D01*
G75*
G02*
X22060000Y-102649500I0J287500D01*
G01*
X22060000Y-102074500D01*
G75*
G02*
X22347500Y-101787000I287500J0D01*
G01*
X23372500Y-101787000D01*
G75*
G02*
X23660000Y-102074500I0J-287500D01*
G01*
X23660000Y-102649500D01*
G75*
G02*
X23372500Y-102937000I-287500J0D01*
G01*
G37*
G36*
G01*
X23372500Y-101667000D02*
X22347500Y-101667000D01*
G75*
G02*
X22060000Y-101379500I0J287500D01*
G01*
X22060000Y-100804500D01*
G75*
G02*
X22347500Y-100517000I287500J0D01*
G01*
X23372500Y-100517000D01*
G75*
G02*
X23660000Y-100804500I0J-287500D01*
G01*
X23660000Y-101379500D01*
G75*
G02*
X23372500Y-101667000I-287500J0D01*
G01*
G37*
D29*
X22860000Y-103632000D03*
%TD*%
D30*
%TO.C,U3*%
X99060000Y-51943000D03*
X96520000Y-51943000D03*
X93980000Y-51943000D03*
X91440000Y-51943000D03*
X88900000Y-51943000D03*
X101600000Y-51943000D03*
X104140000Y-51943000D03*
X106680000Y-51943000D03*
X109220000Y-51943000D03*
X111760000Y-51943000D03*
X114300000Y-51943000D03*
D31*
X99060000Y-49403000D03*
D30*
X96520000Y-49403000D03*
X93980000Y-49403000D03*
X91440000Y-49403000D03*
X88900000Y-49403000D03*
X86360000Y-49403000D03*
X101600000Y-49403000D03*
X104140000Y-49403000D03*
X106680000Y-49403000D03*
X109220000Y-49403000D03*
X111760000Y-49403000D03*
X86360000Y-51943000D03*
X86360000Y-54483000D03*
X86360000Y-57023000D03*
X86360000Y-59563000D03*
X86360000Y-62103000D03*
X86360000Y-64643000D03*
X86360000Y-67183000D03*
X86360000Y-69723000D03*
X86360000Y-72263000D03*
X86360000Y-74803000D03*
X83820000Y-51943000D03*
X83820000Y-54483000D03*
X83820000Y-57023000D03*
X83820000Y-59563000D03*
X83820000Y-62103000D03*
X83820000Y-64643000D03*
X83820000Y-67183000D03*
X83820000Y-69723000D03*
X83820000Y-72263000D03*
X83820000Y-74803000D03*
X83820000Y-77343000D03*
X86360000Y-77343000D03*
X88900000Y-77343000D03*
X91440000Y-77343000D03*
X93980000Y-77343000D03*
X96520000Y-77343000D03*
X99060000Y-77343000D03*
X101600000Y-77343000D03*
X104140000Y-77343000D03*
X106680000Y-77343000D03*
X109220000Y-77343000D03*
X86360000Y-79883000D03*
X88900000Y-79883000D03*
X91440000Y-79883000D03*
X93980000Y-79883000D03*
X96520000Y-79883000D03*
X99060000Y-79883000D03*
X101600000Y-79883000D03*
X104140000Y-79883000D03*
X106680000Y-79883000D03*
X109220000Y-79883000D03*
X111760000Y-79883000D03*
X111760000Y-77343000D03*
X111760000Y-74803000D03*
X111760000Y-72263000D03*
X111760000Y-69723000D03*
X111760000Y-67183000D03*
X111760000Y-64643000D03*
X111760000Y-62103000D03*
X111760000Y-59563000D03*
X111760000Y-57023000D03*
X111760000Y-54483000D03*
X114300000Y-77343000D03*
X114300000Y-74803000D03*
X114300000Y-72263000D03*
X114300000Y-69723000D03*
X114300000Y-67183000D03*
X114300000Y-64643000D03*
X114300000Y-62103000D03*
X114300000Y-59563000D03*
X114300000Y-57023000D03*
X114300000Y-54483000D03*
%TD*%
D12*
%TO.C,U2*%
X144653000Y-38227000D03*
D11*
X192913000Y-22987000D03*
X147193000Y-38227000D03*
X190373000Y-22987000D03*
X149733000Y-38227000D03*
X187833000Y-22987000D03*
X152273000Y-38227000D03*
X185293000Y-22987000D03*
X154813000Y-38227000D03*
X182753000Y-22987000D03*
X157353000Y-38227000D03*
X180213000Y-22987000D03*
X159893000Y-38227000D03*
X177673000Y-22987000D03*
X162433000Y-38227000D03*
X175133000Y-22987000D03*
X164973000Y-38227000D03*
X172593000Y-22987000D03*
X167513000Y-38227000D03*
X170053000Y-22987000D03*
X170053000Y-38227000D03*
X167513000Y-22987000D03*
X172593000Y-38227000D03*
X164973000Y-22987000D03*
X175133000Y-38227000D03*
X162433000Y-22987000D03*
X177673000Y-38227000D03*
X159893000Y-22987000D03*
X180213000Y-38227000D03*
X157353000Y-22987000D03*
X182753000Y-38227000D03*
X154813000Y-22987000D03*
X185293000Y-38227000D03*
X152273000Y-22987000D03*
X187833000Y-38227000D03*
X149733000Y-22987000D03*
X190373000Y-38227000D03*
X147193000Y-22987000D03*
X192913000Y-38227000D03*
X144653000Y-22987000D03*
%TD*%
D32*
%TO.C,J4*%
X123952000Y-19177000D03*
D33*
X123952000Y-21717000D03*
X121412000Y-19177000D03*
X121412000Y-21717000D03*
X118872000Y-19177000D03*
X118872000Y-21717000D03*
X116332000Y-19177000D03*
X116332000Y-21717000D03*
X113792000Y-19177000D03*
X113792000Y-21717000D03*
%TD*%
D32*
%TO.C,J3*%
X29464000Y-19431000D03*
D33*
X26924000Y-19431000D03*
X29464000Y-21971000D03*
X26924000Y-21971000D03*
X29464000Y-24511000D03*
X26924000Y-24511000D03*
X29464000Y-27051000D03*
X26924000Y-27051000D03*
X29464000Y-29591000D03*
X26924000Y-29591000D03*
X29464000Y-32131000D03*
X26924000Y-32131000D03*
X29464000Y-34671000D03*
X26924000Y-34671000D03*
X29464000Y-37211000D03*
X26924000Y-37211000D03*
X29464000Y-39751000D03*
X26924000Y-39751000D03*
X29464000Y-42291000D03*
X26924000Y-42291000D03*
X29464000Y-44831000D03*
X26924000Y-44831000D03*
X29464000Y-47371000D03*
X26924000Y-47371000D03*
X29464000Y-49911000D03*
X26924000Y-49911000D03*
X29464000Y-52451000D03*
X26924000Y-52451000D03*
X29464000Y-54991000D03*
X26924000Y-54991000D03*
X29464000Y-57531000D03*
X26924000Y-57531000D03*
X29464000Y-60071000D03*
X26924000Y-60071000D03*
X29464000Y-62611000D03*
X26924000Y-62611000D03*
X29464000Y-65151000D03*
X26924000Y-65151000D03*
X29464000Y-67691000D03*
X26924000Y-67691000D03*
%TD*%
M02*
