M48
; DRILL file {KiCad 5.1.6-c6e7f7d~86~ubuntu18.04.1} date Sun Jan 31 21:38:51 2021
; FORMAT={-:-/ absolute / inch / decimal}
; #@! TF.CreationDate,2021-01-31T21:38:51+08:00
; #@! TF.GenerationSoftware,Kicad,Pcbnew,5.1.6-c6e7f7d~86~ubuntu18.04.1
; #@! TF.FileFunction,Plated,1,2,PTH
FMAT,2
INCH
T1C0.0157
T2C0.0295
T3C0.0315
T4C0.0394
T5C0.0433
T6C0.0472
%
G90
G05
T1
X1.7627Y-0.9882
X1.8162Y-0.7504
X2.1453Y-1.8393
X2.1737Y-4.9861
X2.1889Y-5.0295
X2.4084Y-4.0904
X2.4437Y-4.9004
X2.5442Y-4.4774
X2.545Y-6.1171
X2.5516Y-4.6454
X2.5551Y-2.0109
X2.6091Y-4.5685
X2.6113Y-1.9636
X2.6838Y-4.5512
X2.7083Y-4.4017
X2.7204Y-4.574
X2.742Y-4.4943
X2.7585Y-4.1624
X2.7711Y-4.3816
X2.7779Y-4.1994
X2.8Y-6.0299
X2.8345Y-4.256
X2.8494Y-2.5792
X2.9556Y-3.1747
X2.9557Y-0.7076
X2.98Y-6.1382
X2.9984Y-4.4021
X3.0Y-3.345
X3.0116Y-2.4971
X3.0155Y-4.3253
X3.0254Y-4.268
X3.0547Y-2.1708
X3.0553Y-4.2422
X3.0687Y-4.5031
X3.071Y-4.3257
X3.0867Y-4.0862
X3.1065Y-4.0487
X3.1237Y-2.6104
X3.1306Y-5.9876
X3.1358Y-6.0447
X3.1808Y-4.9667
X3.2001Y-4.0107
X3.25Y-4.7534
X3.25Y-5.0376
X3.2759Y-1.9016
X3.3559Y-4.1633
X3.4Y-3.4629
X3.454Y-2.3247
X3.4656Y-4.098
X3.4941Y-4.5778
X3.5865Y-4.0181
X3.5883Y-1.8817
X3.5916Y-2.7986
X3.6378Y-6.074
X3.6414Y-2.26
X3.6987Y-5.7734
X3.7032Y-6.0995
X3.7229Y-4.6892
X3.7273Y-3.2352
X3.7345Y-4.6313
X3.7376Y-6.221
X3.758Y-3.7143
X3.8271Y-3.8364
X3.8276Y-5.2087
X3.837Y-3.7922
X3.8701Y-3.487
X3.8783Y-1.3619
X3.8785Y-3.7917
X3.8828Y-2.2627
X3.9033Y-3.7234
X3.9104Y-4.7114
X3.9196Y-4.6321
X3.945Y-3.8582
X3.9572Y-3.4982
X3.9577Y-2.2793
X3.9588Y-2.9026
X4.0Y-3.2545
X4.0063Y-4.0384
X4.1211Y-3.3992
X4.1687Y-3.2011
X4.1767Y-2.7987
X4.2Y-3.4606
X4.2069Y-3.5179
X4.2145Y-2.4608
X4.2209Y-2.2416
X4.2409Y-1.858
X4.2586Y-2.2754
X4.3242Y-2.9012
X4.3338Y-3.2654
X4.3419Y-2.3145
X4.4451Y-4.4
X4.5024Y-4.1466
X4.5335Y-2.6858
X4.5684Y-2.9126
X4.5723Y-2.4356
X4.6Y-4.067
X4.6477Y-2.9722
X4.6682Y-1.0576
X4.73Y-0.6482
X4.85Y-5.0837
X4.8895Y-3.1845
X4.9722Y-2.4164
X5.0142Y-2.0162
X5.0251Y-1.875
X5.0423Y-4.5837
X5.0541Y-4.098
X5.0662Y-2.0159
X5.1504Y-6.2653
X5.2018Y-1.9038
X5.2335Y-2.658
X5.2347Y-5.1229
X5.3625Y-1.529
X5.3625Y-2.6473
X5.3767Y-4.2223
X5.3921Y-4.5233
X5.3924Y-2.5765
X5.3924Y-3.3337
X5.4279Y-4.2545
X5.4388Y-2.4358
X5.4388Y-2.5797
X5.4629Y-4.2191
X5.4689Y-1.6179
X5.4689Y-4.0514
X5.4736Y-4.2944
X5.5083Y-2.5207
X5.5119Y-4.3356
X5.5124Y-4.9341
X5.5165Y-3.2882
X5.5312Y-2.3285
X5.5323Y-4.9789
X5.5434Y-5.0318
X5.545Y-6.0207
X5.545Y-3.1554
X5.5498Y-3.7896
X5.5577Y-4.2078
X5.5697Y-3.3549
X5.5745Y-2.2461
X5.5745Y-3.2521
X5.6264Y-1.7844
X5.6438Y-3.9275
X5.6684Y-2.8362
X5.6715Y-3.4968
X5.6721Y-3.4095
X5.6959Y-5.2934
X5.6995Y-4.8994
X5.7057Y-3.8195
X5.7103Y-3.2521
X5.7232Y-2.2822
X5.7367Y-3.57
X5.7473Y-5.9409
X5.7512Y-3.2343
X5.7643Y-4.3389
X5.7693Y-2.2082
X5.7697Y-2.5499
X5.7778Y-4.8207
X5.7873Y-3.9292
X5.7895Y-5.2604
X5.7903Y-3.6453
X5.7909Y-1.2256
X5.7945Y-5.5784
X5.8229Y-5.5332
X5.8234Y-2.0942
X5.8284Y-3.8395
X5.8308Y-4.9291
X5.8386Y-1.4366
X5.845Y-6.1072
X5.8561Y-3.939
X5.8624Y-1.1526
X5.872Y-1.2253
X5.8721Y-4.2326
X5.8723Y-4.5095
X5.8784Y-1.3363
X5.8809Y-2.73
X5.8898Y-2.8991
X5.9084Y-2.5811
X5.9148Y-5.1991
X5.9151Y-4.23
X5.9179Y-5.9832
X5.925Y-2.2339
X5.9302Y-2.2966
X5.9414Y-5.5046
X5.9424Y-4.5305
X5.9556Y-3.8105
X5.9563Y-3.1554
X5.9647Y-4.2799
X5.9684Y-2.731
X5.9729Y-5.1912
X5.9734Y-1.6647
X5.9795Y-2.8137
X5.9825Y-2.0855
X5.9934Y-3.4885
X5.9938Y-4.614
X5.998Y-5.8786
X6.0207Y-3.4404
X6.0214Y-2.7684
X6.0245Y-2.4538
X6.0324Y-5.535
X6.0329Y-1.0208
X6.0348Y-2.5293
X6.0436Y-5.4391
X6.0486Y-4.9394
X6.0514Y-3.4752
X6.0571Y-4.8426
X6.061Y-5.5036
X6.0634Y-1.7669
X6.065Y-2.5565
X6.07Y-2.2911
X6.0705Y-4.2755
X6.0814Y-5.9381
X6.1061Y-2.7377
X6.1123Y-4.5554
X6.1144Y-3.4113
X6.123Y-2.0553
X6.1234Y-2.503
X6.1338Y-5.6793
X6.1356Y-4.2995
X6.1385Y-1.6936
X6.1484Y-5.8636
X6.1512Y-5.1863
X6.163Y-5.0195
X6.1724Y-3.652
X6.1728Y-1.8952
X6.1847Y-2.052
X6.1916Y-4.867
X6.1938Y-1.6356
X6.2066Y-2.4851
X6.2137Y-4.1875
X6.2143Y-4.5328
X6.2145Y-5.2472
X6.2196Y-2.0828
X6.2233Y-3.26
X6.2349Y-2.9153
X6.2481Y-3.16
X6.2564Y-2.3043
X6.2626Y-3.8463
X6.2665Y-4.6158
X6.2684Y-5.8477
X6.2758Y-3.507
X6.2758Y-3.6601
X6.3085Y-6.2777
X6.311Y-3.2304
X6.3171Y-4.3405
X6.3205Y-4.7798
X6.322Y-5.2165
X6.3227Y-1.8967
X6.3479Y-3.4064
X6.3524Y-1.7455
X6.3649Y-5.4765
X6.3697Y-2.8879
X6.3708Y-3.2514
X6.3801Y-4.8092
X6.382Y-4.3397
X6.3934Y-3.4103
X6.3934Y-3.935
X6.3972Y-3.1404
X6.4184Y-2.2957
X6.4184Y-2.4731
X6.4184Y-5.1772
X6.421Y-4.7661
X6.4264Y-5.0184
X6.4599Y-3.1692
X6.4714Y-4.6132
X6.5108Y-3.957
X6.5138Y-1.8751
X6.519Y-3.2401
X6.5328Y-1.2174
X6.5397Y-5.2165
X6.5397Y-4.4165
X6.5456Y-3.2095
X6.5674Y-5.7517
X6.5693Y-5.2472
X6.5695Y-3.6229
X6.5695Y-4.867
X6.5749Y-2.5028
X6.5754Y-3.2755
X6.5985Y-4.0535
X6.5997Y-3.4353
X6.6005Y-1.656
X6.6157Y-5.3598
X6.6168Y-4.3454
X6.6345Y-1.9728
X6.6707Y-4.0214
X6.7458Y-3.463
X6.7728Y-3.9272
X6.7758Y-2.9677
X6.777Y-4.089
X6.7833Y-3.5964
X6.7917Y-5.0128
X6.8173Y-4.9321
X6.8517Y-3.4344
X6.8548Y-1.6668
X6.8566Y-4.8044
X6.8804Y-3.6094
X6.9148Y-4.8957
X6.9203Y-3.8739
X6.922Y-4.6169
X6.9245Y-2.5779
X6.9249Y-5.4507
X6.9345Y-2.7679
X6.9352Y-4.3402
X6.937Y-2.2103
X6.9411Y-2.8694
X6.9458Y-3.6062
X6.9557Y-3.9193
X6.9654Y-4.1743
X6.9824Y-2.5701
X7.0068Y-4.7673
X7.0083Y-4.6169
X7.0085Y-1.8314
X7.0173Y-5.2786
X7.0243Y-1.8952
X7.0326Y-4.3193
X7.0368Y-4.5426
X7.0492Y-1.7808
X7.0509Y-3.449
X7.0645Y-1.2723
X7.0668Y-2.4578
X7.0675Y-4.0875
X7.0723Y-2.9677
X7.0754Y-3.1316
X7.0796Y-2.2838
X7.0808Y-1.8379
X7.0859Y-3.8997
X7.121Y-3.4772
X7.1258Y-2.2822
X7.128Y-5.4902
X7.1295Y-5.0198
X7.1402Y-1.3057
X7.1429Y-4.3447
X7.1445Y-2.5876
X7.1501Y-5.6301
X7.1538Y-4.2539
X7.1556Y-4.6169
X7.1613Y-3.4775
X7.1618Y-3.5816
X7.1666Y-4.9639
X7.1767Y-2.4625
X7.1961Y-3.857
X7.2245Y-4.8513
X7.2246Y-5.1782
X7.2247Y-3.9212
X7.2258Y-2.4534
X7.227Y-2.8889
X7.2337Y-3.5279
X7.249Y-1.9011
X7.2551Y-4.2994
X7.2667Y-4.6144
X7.271Y-4.0921
X7.2783Y-2.2909
X7.3158Y-2.7348
X7.3252Y-2.0531
X7.3255Y-3.9387
X7.3272Y-3.4094
X7.3486Y-3.4765
X7.3492Y-4.5171
X7.3507Y-2.1429
X7.3512Y-2.8303
X7.356Y-3.5877
X7.3654Y-5.2469
X7.3667Y-2.8894
X7.3674Y-5.446
X7.382Y-3.8905
X7.3968Y-2.4546
X7.3986Y-5.1911
X7.4038Y-2.7944
X7.4134Y-3.4354
X7.4238Y-2.8963
X7.4364Y-4.5521
X7.467Y-3.6618
X7.4706Y-5.2704
X7.4707Y-4.3212
X7.471Y-4.9844
X7.4786Y-3.163
X7.4969Y-3.2068
X7.5041Y-3.4133
X7.5174Y-3.1413
X7.5218Y-2.9663
X7.5226Y-4.6169
X7.5284Y-4.9717
T2
X0.9Y-3.98
X0.9Y-4.03
X0.9Y-4.08
T3
X5.695Y-0.905
X5.695Y-1.505
X5.795Y-0.905
X5.795Y-1.505
X5.895Y-0.905
X5.895Y-1.505
X5.995Y-0.905
X5.995Y-1.505
X6.095Y-0.905
X6.095Y-1.505
X6.195Y-0.905
X6.195Y-1.505
X6.295Y-0.905
X6.295Y-1.505
X6.395Y-0.905
X6.395Y-1.505
X6.495Y-0.905
X6.495Y-1.505
X6.595Y-0.905
X6.595Y-1.505
X6.695Y-0.905
X6.695Y-1.505
X6.795Y-0.905
X6.795Y-1.505
X6.895Y-0.905
X6.895Y-1.505
X6.995Y-0.905
X6.995Y-1.505
X7.095Y-0.905
X7.095Y-1.505
X7.195Y-0.905
X7.195Y-1.505
X7.295Y-0.905
X7.295Y-1.505
X7.395Y-0.905
X7.395Y-1.505
X7.495Y-0.905
X7.495Y-1.505
X7.595Y-0.905
X7.595Y-1.505
X1.29Y-3.98
X1.29Y-4.08
X3.3Y-2.045
X3.3Y-2.145
X3.3Y-2.245
X3.3Y-2.345
X3.3Y-2.445
X3.3Y-2.545
X3.3Y-2.645
X3.3Y-2.745
X3.3Y-2.845
X3.3Y-2.945
X3.3Y-3.045
X3.4Y-1.945
X3.4Y-2.045
X3.4Y-2.145
X3.4Y-2.245
X3.4Y-2.345
X3.4Y-2.445
X3.4Y-2.545
X3.4Y-2.645
X3.4Y-2.745
X3.4Y-2.845
X3.4Y-2.945
X3.4Y-3.045
X3.4Y-3.145
X3.5Y-1.945
X3.5Y-2.045
X3.5Y-3.045
X3.5Y-3.145
X3.6Y-1.945
X3.6Y-2.045
X3.6Y-3.045
X3.6Y-3.145
X3.7Y-1.945
X3.7Y-2.045
X3.7Y-3.045
X3.7Y-3.145
X3.8Y-1.945
X3.8Y-2.045
X3.8Y-3.045
X3.8Y-3.145
X3.9Y-1.945
X3.9Y-2.045
X3.9Y-3.045
X3.9Y-3.145
X4.0Y-1.945
X4.0Y-2.045
X4.0Y-3.045
X4.0Y-3.145
X4.1Y-1.945
X4.1Y-2.045
X4.1Y-3.045
X4.1Y-3.145
X4.2Y-1.945
X4.2Y-2.045
X4.2Y-3.045
X4.2Y-3.145
X4.3Y-1.945
X4.3Y-2.045
X4.3Y-3.045
X4.3Y-3.145
X4.4Y-1.945
X4.4Y-2.045
X4.4Y-2.145
X4.4Y-2.245
X4.4Y-2.345
X4.4Y-2.445
X4.4Y-2.545
X4.4Y-2.645
X4.4Y-2.745
X4.4Y-2.845
X4.4Y-2.945
X4.4Y-3.045
X4.4Y-3.145
X4.5Y-2.045
X4.5Y-2.145
X4.5Y-2.245
X4.5Y-2.345
X4.5Y-2.445
X4.5Y-2.545
X4.5Y-2.645
X4.5Y-2.745
X4.5Y-2.845
X4.5Y-2.945
X4.5Y-3.045
X1.895Y-1.685
X1.895Y-1.785
X1.895Y-1.885
X1.895Y-1.985
X1.895Y-2.085
X1.895Y-2.185
X1.895Y-2.285
X1.895Y-2.385
X1.895Y-2.485
X1.895Y-2.585
X1.895Y-2.685
X1.895Y-2.785
X1.895Y-2.885
X1.895Y-2.985
X1.895Y-3.085
X1.895Y-3.185
X1.895Y-3.285
X1.895Y-3.385
X1.895Y-3.485
X1.895Y-3.585
X2.495Y-1.685
X2.495Y-1.785
X2.495Y-1.885
X2.495Y-1.985
X2.495Y-2.085
X2.495Y-2.185
X2.495Y-2.285
X2.495Y-2.385
X2.495Y-2.485
X2.495Y-2.585
X2.495Y-2.685
X2.495Y-2.785
X2.495Y-2.885
X2.495Y-2.985
X2.495Y-3.085
X2.495Y-3.185
X2.495Y-3.285
X2.495Y-3.385
X2.495Y-3.485
X2.495Y-3.585
X1.9Y-3.91
X1.9Y-4.81
X2.0Y-3.91
X2.0Y-4.81
X2.1Y-3.91
X2.1Y-4.81
X2.2Y-3.91
X2.2Y-4.81
X2.3Y-3.91
X2.3Y-4.81
X2.4Y-3.91
X2.4Y-4.81
X2.5Y-3.91
X2.5Y-4.81
X2.6Y-3.91
X2.6Y-4.81
X2.7Y-3.91
X2.7Y-4.81
X2.8Y-3.91
X2.8Y-4.81
X2.9Y-3.91
X2.9Y-4.81
X3.0Y-3.91
X3.0Y-4.81
X3.1Y-3.91
X3.1Y-4.81
X3.2Y-3.91
X3.2Y-4.81
X3.3Y-3.91
X3.3Y-4.81
X3.4Y-3.91
X3.4Y-4.81
X3.5Y-3.91
X3.5Y-4.81
X3.6Y-3.91
X3.6Y-4.81
X3.7Y-3.91
X3.7Y-4.81
X3.8Y-3.91
X3.8Y-4.81
X3.9Y-3.91
X3.9Y-4.81
X4.0Y-3.91
X4.0Y-4.81
X4.1Y-3.91
X4.1Y-4.81
X4.2Y-3.91
X4.2Y-4.81
X4.3Y-3.91
X4.3Y-4.81
X4.4Y-3.91
X4.4Y-4.81
X4.5Y-3.91
X4.5Y-4.81
X4.6Y-3.91
X4.6Y-4.81
X4.7Y-3.91
X4.7Y-4.81
X4.8Y-3.91
X4.8Y-4.81
X4.9Y-3.91
X4.9Y-4.81
X5.0Y-3.91
X5.0Y-4.81
T4
X3.88Y-5.315
X3.88Y-5.615
X4.18Y-5.315
X4.18Y-5.615
X4.48Y-0.755
X4.48Y-0.855
X4.58Y-0.755
X4.58Y-0.855
X4.68Y-0.755
X4.68Y-0.855
X4.78Y-0.755
X4.78Y-0.855
X4.88Y-0.755
X4.88Y-0.855
X1.06Y-0.765
X1.06Y-0.865
X1.06Y-0.965
X1.06Y-1.065
X1.06Y-1.165
X1.06Y-1.265
X1.06Y-1.365
X1.06Y-1.465
X1.06Y-1.565
X1.06Y-1.665
X1.06Y-1.765
X1.06Y-1.865
X1.06Y-1.965
X1.06Y-2.065
X1.06Y-2.165
X1.06Y-2.265
X1.06Y-2.365
X1.06Y-2.465
X1.06Y-2.565
X1.06Y-2.665
X1.16Y-0.765
X1.16Y-0.865
X1.16Y-0.965
X1.16Y-1.065
X1.16Y-1.165
X1.16Y-1.265
X1.16Y-1.365
X1.16Y-1.465
X1.16Y-1.565
X1.16Y-1.665
X1.16Y-1.765
X1.16Y-1.865
X1.16Y-1.965
X1.16Y-2.065
X1.16Y-2.165
X1.16Y-2.265
X1.16Y-2.365
X1.16Y-2.465
X1.16Y-2.565
X1.16Y-2.665
X4.515Y-5.315
X4.515Y-5.615
X5.115Y-5.315
X5.115Y-5.615
T5
X5.23Y-0.75
X5.33Y-0.75
X5.43Y-0.75
T6
X0.725Y-4.885
X0.725Y-5.0622
X0.9809Y-4.885
X0.9809Y-5.0622
T4
G00X0.9588Y-5.5406
M15
G01X0.9588Y-5.6194
M16
G05
G00X1.0375Y-5.765
M15
G01X1.1163Y-5.765
M16
G05
G00X1.195Y-5.5406
M15
G01X1.195Y-5.6194
M16
G05
T0
M30
