%TF.GenerationSoftware,KiCad,Pcbnew,5.1.6-c6e7f7d~86~ubuntu18.04.1*%
%TF.CreationDate,2021-01-31T21:38:44+08:00*%
%TF.ProjectId,68k_dev,36386b5f-6465-4762-9e6b-696361645f70,rev?*%
%TF.SameCoordinates,Original*%
%TF.FileFunction,Legend,Bot*%
%TF.FilePolarity,Positive*%
%FSLAX46Y46*%
G04 Gerber Fmt 4.6, Leading zero omitted, Abs format (unit mm)*
G04 Created by KiCad (PCBNEW 5.1.6-c6e7f7d~86~ubuntu18.04.1) date 2021-01-31 21:38:44*
%MOMM*%
%LPD*%
G01*
G04 APERTURE LIST*
%ADD10C,0.150000*%
%TA.AperFunction,Profile*%
%ADD11C,0.050000*%
%TD*%
%ADD12C,0.120000*%
G04 APERTURE END LIST*
D10*
X158948380Y-155138619D02*
X158472190Y-154805285D01*
X158948380Y-154567190D02*
X157948380Y-154567190D01*
X157948380Y-154948142D01*
X157996000Y-155043380D01*
X158043619Y-155091000D01*
X158138857Y-155138619D01*
X158281714Y-155138619D01*
X158376952Y-155091000D01*
X158424571Y-155043380D01*
X158472190Y-154948142D01*
X158472190Y-154567190D01*
X158900761Y-155519571D02*
X158948380Y-155662428D01*
X158948380Y-155900523D01*
X158900761Y-155995761D01*
X158853142Y-156043380D01*
X158757904Y-156091000D01*
X158662666Y-156091000D01*
X158567428Y-156043380D01*
X158519809Y-155995761D01*
X158472190Y-155900523D01*
X158424571Y-155710047D01*
X158376952Y-155614809D01*
X158329333Y-155567190D01*
X158234095Y-155519571D01*
X158138857Y-155519571D01*
X158043619Y-155567190D01*
X157996000Y-155614809D01*
X157948380Y-155710047D01*
X157948380Y-155948142D01*
X157996000Y-156091000D01*
X157948380Y-156376714D02*
X157948380Y-156948142D01*
X158948380Y-156662428D02*
X157948380Y-156662428D01*
X159043619Y-157043380D02*
X159043619Y-157805285D01*
X158948380Y-158043380D02*
X157948380Y-158043380D01*
X158424571Y-158043380D02*
X158424571Y-158614809D01*
X158948380Y-158614809D02*
X157948380Y-158614809D01*
X160488380Y-155892666D02*
X161488380Y-156226000D01*
X160488380Y-156559333D01*
X161393142Y-157464095D02*
X161440761Y-157416476D01*
X161488380Y-157273619D01*
X161488380Y-157178380D01*
X161440761Y-157035523D01*
X161345523Y-156940285D01*
X161250285Y-156892666D01*
X161059809Y-156845047D01*
X160916952Y-156845047D01*
X160726476Y-156892666D01*
X160631238Y-156940285D01*
X160536000Y-157035523D01*
X160488380Y-157178380D01*
X160488380Y-157273619D01*
X160536000Y-157416476D01*
X160583619Y-157464095D01*
X161393142Y-158464095D02*
X161440761Y-158416476D01*
X161488380Y-158273619D01*
X161488380Y-158178380D01*
X161440761Y-158035523D01*
X161345523Y-157940285D01*
X161250285Y-157892666D01*
X161059809Y-157845047D01*
X160916952Y-157845047D01*
X160726476Y-157892666D01*
X160631238Y-157940285D01*
X160536000Y-158035523D01*
X160488380Y-158178380D01*
X160488380Y-158273619D01*
X160536000Y-158416476D01*
X160583619Y-158464095D01*
X164028380Y-156932380D02*
X163552190Y-156599047D01*
X164028380Y-156360952D02*
X163028380Y-156360952D01*
X163028380Y-156741904D01*
X163076000Y-156837142D01*
X163123619Y-156884761D01*
X163218857Y-156932380D01*
X163361714Y-156932380D01*
X163456952Y-156884761D01*
X163504571Y-156837142D01*
X163552190Y-156741904D01*
X163552190Y-156360952D01*
X163980761Y-157313333D02*
X164028380Y-157456190D01*
X164028380Y-157694285D01*
X163980761Y-157789523D01*
X163933142Y-157837142D01*
X163837904Y-157884761D01*
X163742666Y-157884761D01*
X163647428Y-157837142D01*
X163599809Y-157789523D01*
X163552190Y-157694285D01*
X163504571Y-157503809D01*
X163456952Y-157408571D01*
X163409333Y-157360952D01*
X163314095Y-157313333D01*
X163218857Y-157313333D01*
X163123619Y-157360952D01*
X163076000Y-157408571D01*
X163028380Y-157503809D01*
X163028380Y-157741904D01*
X163076000Y-157884761D01*
X163028380Y-158170476D02*
X163028380Y-158741904D01*
X164028380Y-158456190D02*
X163028380Y-158456190D01*
X165616000Y-156591095D02*
X165568380Y-156495857D01*
X165568380Y-156353000D01*
X165616000Y-156210142D01*
X165711238Y-156114904D01*
X165806476Y-156067285D01*
X165996952Y-156019666D01*
X166139809Y-156019666D01*
X166330285Y-156067285D01*
X166425523Y-156114904D01*
X166520761Y-156210142D01*
X166568380Y-156353000D01*
X166568380Y-156448238D01*
X166520761Y-156591095D01*
X166473142Y-156638714D01*
X166139809Y-156638714D01*
X166139809Y-156448238D01*
X166568380Y-157067285D02*
X165568380Y-157067285D01*
X166568380Y-157638714D01*
X165568380Y-157638714D01*
X166568380Y-158114904D02*
X165568380Y-158114904D01*
X165568380Y-158353000D01*
X165616000Y-158495857D01*
X165711238Y-158591095D01*
X165806476Y-158638714D01*
X165996952Y-158686333D01*
X166139809Y-158686333D01*
X166330285Y-158638714D01*
X166425523Y-158591095D01*
X166520761Y-158495857D01*
X166568380Y-158353000D01*
X166568380Y-158114904D01*
X155583000Y-156591095D02*
X155535380Y-156495857D01*
X155535380Y-156353000D01*
X155583000Y-156210142D01*
X155678238Y-156114904D01*
X155773476Y-156067285D01*
X155963952Y-156019666D01*
X156106809Y-156019666D01*
X156297285Y-156067285D01*
X156392523Y-156114904D01*
X156487761Y-156210142D01*
X156535380Y-156353000D01*
X156535380Y-156448238D01*
X156487761Y-156591095D01*
X156440142Y-156638714D01*
X156106809Y-156638714D01*
X156106809Y-156448238D01*
X156535380Y-157067285D02*
X155535380Y-157067285D01*
X156535380Y-157638714D01*
X155535380Y-157638714D01*
X156535380Y-158114904D02*
X155535380Y-158114904D01*
X155535380Y-158353000D01*
X155583000Y-158495857D01*
X155678238Y-158591095D01*
X155773476Y-158638714D01*
X155963952Y-158686333D01*
X156106809Y-158686333D01*
X156297285Y-158638714D01*
X156392523Y-158591095D01*
X156487761Y-158495857D01*
X156535380Y-158353000D01*
X156535380Y-158114904D01*
X150503000Y-156591095D02*
X150455380Y-156495857D01*
X150455380Y-156353000D01*
X150503000Y-156210142D01*
X150598238Y-156114904D01*
X150693476Y-156067285D01*
X150883952Y-156019666D01*
X151026809Y-156019666D01*
X151217285Y-156067285D01*
X151312523Y-156114904D01*
X151407761Y-156210142D01*
X151455380Y-156353000D01*
X151455380Y-156448238D01*
X151407761Y-156591095D01*
X151360142Y-156638714D01*
X151026809Y-156638714D01*
X151026809Y-156448238D01*
X151455380Y-157067285D02*
X150455380Y-157067285D01*
X151455380Y-157638714D01*
X150455380Y-157638714D01*
X151455380Y-158114904D02*
X150455380Y-158114904D01*
X150455380Y-158353000D01*
X150503000Y-158495857D01*
X150598238Y-158591095D01*
X150693476Y-158638714D01*
X150883952Y-158686333D01*
X151026809Y-158686333D01*
X151217285Y-158638714D01*
X151312523Y-158591095D01*
X151407761Y-158495857D01*
X151455380Y-158353000D01*
X151455380Y-158114904D01*
X145375380Y-156114904D02*
X145375380Y-156733952D01*
X145756333Y-156400619D01*
X145756333Y-156543476D01*
X145803952Y-156638714D01*
X145851571Y-156686333D01*
X145946809Y-156733952D01*
X146184904Y-156733952D01*
X146280142Y-156686333D01*
X146327761Y-156638714D01*
X146375380Y-156543476D01*
X146375380Y-156257761D01*
X146327761Y-156162523D01*
X146280142Y-156114904D01*
X145375380Y-157019666D02*
X146375380Y-157353000D01*
X145375380Y-157686333D01*
X145375380Y-157924428D02*
X145375380Y-158543476D01*
X145756333Y-158210142D01*
X145756333Y-158353000D01*
X145803952Y-158448238D01*
X145851571Y-158495857D01*
X145946809Y-158543476D01*
X146184904Y-158543476D01*
X146280142Y-158495857D01*
X146327761Y-158448238D01*
X146375380Y-158353000D01*
X146375380Y-158067285D01*
X146327761Y-157972047D01*
X146280142Y-157924428D01*
X142756000Y-156591095D02*
X142708380Y-156495857D01*
X142708380Y-156353000D01*
X142756000Y-156210142D01*
X142851238Y-156114904D01*
X142946476Y-156067285D01*
X143136952Y-156019666D01*
X143279809Y-156019666D01*
X143470285Y-156067285D01*
X143565523Y-156114904D01*
X143660761Y-156210142D01*
X143708380Y-156353000D01*
X143708380Y-156448238D01*
X143660761Y-156591095D01*
X143613142Y-156638714D01*
X143279809Y-156638714D01*
X143279809Y-156448238D01*
X143708380Y-157067285D02*
X142708380Y-157067285D01*
X143708380Y-157638714D01*
X142708380Y-157638714D01*
X143708380Y-158114904D02*
X142708380Y-158114904D01*
X142708380Y-158353000D01*
X142756000Y-158495857D01*
X142851238Y-158591095D01*
X142946476Y-158638714D01*
X143136952Y-158686333D01*
X143279809Y-158686333D01*
X143470285Y-158638714D01*
X143565523Y-158591095D01*
X143660761Y-158495857D01*
X143708380Y-158353000D01*
X143708380Y-158114904D01*
X118213142Y-153202000D02*
X118260761Y-153154380D01*
X118308380Y-153011523D01*
X118308380Y-152916285D01*
X118260761Y-152773428D01*
X118165523Y-152678190D01*
X118070285Y-152630571D01*
X117879809Y-152582952D01*
X117736952Y-152582952D01*
X117546476Y-152630571D01*
X117451238Y-152678190D01*
X117356000Y-152773428D01*
X117308380Y-152916285D01*
X117308380Y-153011523D01*
X117356000Y-153154380D01*
X117403619Y-153202000D01*
X118308380Y-153630571D02*
X117308380Y-153630571D01*
X117308380Y-154011523D01*
X117356000Y-154106761D01*
X117403619Y-154154380D01*
X117498857Y-154202000D01*
X117641714Y-154202000D01*
X117736952Y-154154380D01*
X117784571Y-154106761D01*
X117832190Y-154011523D01*
X117832190Y-153630571D01*
X117308380Y-154630571D02*
X118117904Y-154630571D01*
X118213142Y-154678190D01*
X118260761Y-154725809D01*
X118308380Y-154821047D01*
X118308380Y-155011523D01*
X118260761Y-155106761D01*
X118213142Y-155154380D01*
X118117904Y-155202000D01*
X117308380Y-155202000D01*
X118403619Y-155440095D02*
X118403619Y-156202000D01*
X118213142Y-157011523D02*
X118260761Y-156963904D01*
X118308380Y-156821047D01*
X118308380Y-156725809D01*
X118260761Y-156582952D01*
X118165523Y-156487714D01*
X118070285Y-156440095D01*
X117879809Y-156392476D01*
X117736952Y-156392476D01*
X117546476Y-156440095D01*
X117451238Y-156487714D01*
X117356000Y-156582952D01*
X117308380Y-156725809D01*
X117308380Y-156821047D01*
X117356000Y-156963904D01*
X117403619Y-157011523D01*
X118308380Y-157916285D02*
X118308380Y-157440095D01*
X117308380Y-157440095D01*
X118308380Y-158249619D02*
X117308380Y-158249619D01*
X118308380Y-158821047D02*
X117736952Y-158392476D01*
X117308380Y-158821047D02*
X117879809Y-158249619D01*
X110291571Y-156646666D02*
X110291571Y-156313333D01*
X110815380Y-156313333D02*
X109815380Y-156313333D01*
X109815380Y-156789523D01*
X110720142Y-157741904D02*
X110767761Y-157694285D01*
X110815380Y-157551428D01*
X110815380Y-157456190D01*
X110767761Y-157313333D01*
X110672523Y-157218095D01*
X110577285Y-157170476D01*
X110386809Y-157122857D01*
X110243952Y-157122857D01*
X110053476Y-157170476D01*
X109958238Y-157218095D01*
X109863000Y-157313333D01*
X109815380Y-157456190D01*
X109815380Y-157551428D01*
X109863000Y-157694285D01*
X109910619Y-157741904D01*
X109815380Y-158360952D02*
X109815380Y-158456190D01*
X109863000Y-158551428D01*
X109910619Y-158599047D01*
X110005857Y-158646666D01*
X110196333Y-158694285D01*
X110434428Y-158694285D01*
X110624904Y-158646666D01*
X110720142Y-158599047D01*
X110767761Y-158551428D01*
X110815380Y-158456190D01*
X110815380Y-158360952D01*
X110767761Y-158265714D01*
X110720142Y-158218095D01*
X110624904Y-158170476D01*
X110434428Y-158122857D01*
X110196333Y-158122857D01*
X110005857Y-158170476D01*
X109910619Y-158218095D01*
X109863000Y-158265714D01*
X109815380Y-158360952D01*
X107624571Y-156646666D02*
X107624571Y-156313333D01*
X108148380Y-156313333D02*
X107148380Y-156313333D01*
X107148380Y-156789523D01*
X108053142Y-157741904D02*
X108100761Y-157694285D01*
X108148380Y-157551428D01*
X108148380Y-157456190D01*
X108100761Y-157313333D01*
X108005523Y-157218095D01*
X107910285Y-157170476D01*
X107719809Y-157122857D01*
X107576952Y-157122857D01*
X107386476Y-157170476D01*
X107291238Y-157218095D01*
X107196000Y-157313333D01*
X107148380Y-157456190D01*
X107148380Y-157551428D01*
X107196000Y-157694285D01*
X107243619Y-157741904D01*
X108148380Y-158694285D02*
X108148380Y-158122857D01*
X108148380Y-158408571D02*
X107148380Y-158408571D01*
X107291238Y-158313333D01*
X107386476Y-158218095D01*
X107434095Y-158122857D01*
X105211571Y-156646666D02*
X105211571Y-156313333D01*
X105735380Y-156313333D02*
X104735380Y-156313333D01*
X104735380Y-156789523D01*
X105640142Y-157741904D02*
X105687761Y-157694285D01*
X105735380Y-157551428D01*
X105735380Y-157456190D01*
X105687761Y-157313333D01*
X105592523Y-157218095D01*
X105497285Y-157170476D01*
X105306809Y-157122857D01*
X105163952Y-157122857D01*
X104973476Y-157170476D01*
X104878238Y-157218095D01*
X104783000Y-157313333D01*
X104735380Y-157456190D01*
X104735380Y-157551428D01*
X104783000Y-157694285D01*
X104830619Y-157741904D01*
X104830619Y-158122857D02*
X104783000Y-158170476D01*
X104735380Y-158265714D01*
X104735380Y-158503809D01*
X104783000Y-158599047D01*
X104830619Y-158646666D01*
X104925857Y-158694285D01*
X105021095Y-158694285D01*
X105163952Y-158646666D01*
X105735380Y-158075238D01*
X105735380Y-158694285D01*
X102798571Y-154606857D02*
X102846190Y-154749714D01*
X102893809Y-154797333D01*
X102989047Y-154844952D01*
X103131904Y-154844952D01*
X103227142Y-154797333D01*
X103274761Y-154749714D01*
X103322380Y-154654476D01*
X103322380Y-154273523D01*
X102322380Y-154273523D01*
X102322380Y-154606857D01*
X102370000Y-154702095D01*
X102417619Y-154749714D01*
X102512857Y-154797333D01*
X102608095Y-154797333D01*
X102703333Y-154749714D01*
X102750952Y-154702095D01*
X102798571Y-154606857D01*
X102798571Y-154273523D01*
X102370000Y-155797333D02*
X102322380Y-155702095D01*
X102322380Y-155559238D01*
X102370000Y-155416380D01*
X102465238Y-155321142D01*
X102560476Y-155273523D01*
X102750952Y-155225904D01*
X102893809Y-155225904D01*
X103084285Y-155273523D01*
X103179523Y-155321142D01*
X103274761Y-155416380D01*
X103322380Y-155559238D01*
X103322380Y-155654476D01*
X103274761Y-155797333D01*
X103227142Y-155844952D01*
X102893809Y-155844952D01*
X102893809Y-155654476D01*
X103036666Y-156225904D02*
X103036666Y-156702095D01*
X103322380Y-156130666D02*
X102322380Y-156464000D01*
X103322380Y-156797333D01*
X103227142Y-157702095D02*
X103274761Y-157654476D01*
X103322380Y-157511619D01*
X103322380Y-157416380D01*
X103274761Y-157273523D01*
X103179523Y-157178285D01*
X103084285Y-157130666D01*
X102893809Y-157083047D01*
X102750952Y-157083047D01*
X102560476Y-157130666D01*
X102465238Y-157178285D01*
X102370000Y-157273523D01*
X102322380Y-157416380D01*
X102322380Y-157511619D01*
X102370000Y-157654476D01*
X102417619Y-157702095D01*
X103322380Y-158130666D02*
X102322380Y-158130666D01*
X103322380Y-158702095D02*
X102750952Y-158273523D01*
X102322380Y-158702095D02*
X102893809Y-158130666D01*
X100131571Y-157432428D02*
X100179190Y-157575285D01*
X100226809Y-157622904D01*
X100322047Y-157670523D01*
X100464904Y-157670523D01*
X100560142Y-157622904D01*
X100607761Y-157575285D01*
X100655380Y-157480047D01*
X100655380Y-157099095D01*
X99655380Y-157099095D01*
X99655380Y-157432428D01*
X99703000Y-157527666D01*
X99750619Y-157575285D01*
X99845857Y-157622904D01*
X99941095Y-157622904D01*
X100036333Y-157575285D01*
X100083952Y-157527666D01*
X100131571Y-157432428D01*
X100131571Y-157099095D01*
X99703000Y-158622904D02*
X99655380Y-158527666D01*
X99655380Y-158384809D01*
X99703000Y-158241952D01*
X99798238Y-158146714D01*
X99893476Y-158099095D01*
X100083952Y-158051476D01*
X100226809Y-158051476D01*
X100417285Y-158099095D01*
X100512523Y-158146714D01*
X100607761Y-158241952D01*
X100655380Y-158384809D01*
X100655380Y-158480047D01*
X100607761Y-158622904D01*
X100560142Y-158670523D01*
X100226809Y-158670523D01*
X100226809Y-158480047D01*
X97591571Y-157432428D02*
X97639190Y-157575285D01*
X97686809Y-157622904D01*
X97782047Y-157670523D01*
X97924904Y-157670523D01*
X98020142Y-157622904D01*
X98067761Y-157575285D01*
X98115380Y-157480047D01*
X98115380Y-157099095D01*
X97115380Y-157099095D01*
X97115380Y-157432428D01*
X97163000Y-157527666D01*
X97210619Y-157575285D01*
X97305857Y-157622904D01*
X97401095Y-157622904D01*
X97496333Y-157575285D01*
X97543952Y-157527666D01*
X97591571Y-157432428D01*
X97591571Y-157099095D01*
X98115380Y-158670523D02*
X97639190Y-158337190D01*
X98115380Y-158099095D02*
X97115380Y-158099095D01*
X97115380Y-158480047D01*
X97163000Y-158575285D01*
X97210619Y-158622904D01*
X97305857Y-158670523D01*
X97448714Y-158670523D01*
X97543952Y-158622904D01*
X97591571Y-158575285D01*
X97639190Y-158480047D01*
X97639190Y-158099095D01*
X94575380Y-156019666D02*
X95575380Y-156353000D01*
X94575380Y-156686333D01*
X95480142Y-157591095D02*
X95527761Y-157543476D01*
X95575380Y-157400619D01*
X95575380Y-157305380D01*
X95527761Y-157162523D01*
X95432523Y-157067285D01*
X95337285Y-157019666D01*
X95146809Y-156972047D01*
X95003952Y-156972047D01*
X94813476Y-157019666D01*
X94718238Y-157067285D01*
X94623000Y-157162523D01*
X94575380Y-157305380D01*
X94575380Y-157400619D01*
X94623000Y-157543476D01*
X94670619Y-157591095D01*
X95480142Y-158591095D02*
X95527761Y-158543476D01*
X95575380Y-158400619D01*
X95575380Y-158305380D01*
X95527761Y-158162523D01*
X95432523Y-158067285D01*
X95337285Y-158019666D01*
X95146809Y-157972047D01*
X95003952Y-157972047D01*
X94813476Y-158019666D01*
X94718238Y-158067285D01*
X94623000Y-158162523D01*
X94575380Y-158305380D01*
X94575380Y-158400619D01*
X94623000Y-158543476D01*
X94670619Y-158591095D01*
X89670000Y-156591095D02*
X89622380Y-156495857D01*
X89622380Y-156353000D01*
X89670000Y-156210142D01*
X89765238Y-156114904D01*
X89860476Y-156067285D01*
X90050952Y-156019666D01*
X90193809Y-156019666D01*
X90384285Y-156067285D01*
X90479523Y-156114904D01*
X90574761Y-156210142D01*
X90622380Y-156353000D01*
X90622380Y-156448238D01*
X90574761Y-156591095D01*
X90527142Y-156638714D01*
X90193809Y-156638714D01*
X90193809Y-156448238D01*
X90622380Y-157067285D02*
X89622380Y-157067285D01*
X90622380Y-157638714D01*
X89622380Y-157638714D01*
X90622380Y-158114904D02*
X89622380Y-158114904D01*
X89622380Y-158353000D01*
X89670000Y-158495857D01*
X89765238Y-158591095D01*
X89860476Y-158638714D01*
X90050952Y-158686333D01*
X90193809Y-158686333D01*
X90384285Y-158638714D01*
X90479523Y-158591095D01*
X90574761Y-158495857D01*
X90622380Y-158353000D01*
X90622380Y-158114904D01*
X76668380Y-156019666D02*
X77668380Y-156353000D01*
X76668380Y-156686333D01*
X77668380Y-157019666D02*
X76668380Y-157019666D01*
X77382666Y-157353000D01*
X76668380Y-157686333D01*
X77668380Y-157686333D01*
X77382666Y-158114904D02*
X77382666Y-158591095D01*
X77668380Y-158019666D02*
X76668380Y-158353000D01*
X77668380Y-158686333D01*
X74731571Y-158154714D02*
X74731571Y-158488047D01*
X75255380Y-158630904D02*
X75255380Y-158154714D01*
X74255380Y-158154714D01*
X74255380Y-158630904D01*
X71715380Y-156218095D02*
X72715380Y-156551428D01*
X71715380Y-156884761D01*
X72715380Y-157218095D02*
X71715380Y-157218095D01*
X71715380Y-157599047D01*
X71763000Y-157694285D01*
X71810619Y-157741904D01*
X71905857Y-157789523D01*
X72048714Y-157789523D01*
X72143952Y-157741904D01*
X72191571Y-157694285D01*
X72239190Y-157599047D01*
X72239190Y-157218095D01*
X72429666Y-158170476D02*
X72429666Y-158646666D01*
X72715380Y-158075238D02*
X71715380Y-158408571D01*
X72715380Y-158741904D01*
X70048380Y-155972047D02*
X69048380Y-155972047D01*
X70048380Y-156448238D02*
X69048380Y-156448238D01*
X69048380Y-156829190D01*
X69096000Y-156924428D01*
X69143619Y-156972047D01*
X69238857Y-157019666D01*
X69381714Y-157019666D01*
X69476952Y-156972047D01*
X69524571Y-156924428D01*
X69572190Y-156829190D01*
X69572190Y-156448238D01*
X70048380Y-157924428D02*
X70048380Y-157448238D01*
X69048380Y-157448238D01*
X69048380Y-158448238D02*
X69048380Y-158543476D01*
X69096000Y-158638714D01*
X69143619Y-158686333D01*
X69238857Y-158733952D01*
X69429333Y-158781571D01*
X69667428Y-158781571D01*
X69857904Y-158733952D01*
X69953142Y-158686333D01*
X70000761Y-158638714D01*
X70048380Y-158543476D01*
X70048380Y-158448238D01*
X70000761Y-158353000D01*
X69953142Y-158305380D01*
X69857904Y-158257761D01*
X69667428Y-158210142D01*
X69429333Y-158210142D01*
X69238857Y-158257761D01*
X69143619Y-158305380D01*
X69096000Y-158353000D01*
X69048380Y-158448238D01*
X67635380Y-155972047D02*
X66635380Y-155972047D01*
X67635380Y-156448238D02*
X66635380Y-156448238D01*
X66635380Y-156829190D01*
X66683000Y-156924428D01*
X66730619Y-156972047D01*
X66825857Y-157019666D01*
X66968714Y-157019666D01*
X67063952Y-156972047D01*
X67111571Y-156924428D01*
X67159190Y-156829190D01*
X67159190Y-156448238D01*
X67635380Y-157924428D02*
X67635380Y-157448238D01*
X66635380Y-157448238D01*
X67635380Y-158781571D02*
X67635380Y-158210142D01*
X67635380Y-158495857D02*
X66635380Y-158495857D01*
X66778238Y-158400619D01*
X66873476Y-158305380D01*
X66921095Y-158210142D01*
X64968380Y-155972047D02*
X63968380Y-155972047D01*
X64968380Y-156448238D02*
X63968380Y-156448238D01*
X63968380Y-156829190D01*
X64016000Y-156924428D01*
X64063619Y-156972047D01*
X64158857Y-157019666D01*
X64301714Y-157019666D01*
X64396952Y-156972047D01*
X64444571Y-156924428D01*
X64492190Y-156829190D01*
X64492190Y-156448238D01*
X64968380Y-157924428D02*
X64968380Y-157448238D01*
X63968380Y-157448238D01*
X64063619Y-158210142D02*
X64016000Y-158257761D01*
X63968380Y-158353000D01*
X63968380Y-158591095D01*
X64016000Y-158686333D01*
X64063619Y-158733952D01*
X64158857Y-158781571D01*
X64254095Y-158781571D01*
X64396952Y-158733952D01*
X64968380Y-158162523D01*
X64968380Y-158781571D01*
X62555380Y-154646571D02*
X61555380Y-154646571D01*
X61555380Y-154884666D01*
X61603000Y-155027523D01*
X61698238Y-155122761D01*
X61793476Y-155170380D01*
X61983952Y-155218000D01*
X62126809Y-155218000D01*
X62317285Y-155170380D01*
X62412523Y-155122761D01*
X62507761Y-155027523D01*
X62555380Y-154884666D01*
X62555380Y-154646571D01*
X61555380Y-155503714D02*
X61555380Y-156075142D01*
X62555380Y-155789428D02*
X61555380Y-155789428D01*
X62269666Y-156360857D02*
X62269666Y-156837047D01*
X62555380Y-156265619D02*
X61555380Y-156598952D01*
X62555380Y-156932285D01*
X62460142Y-157837047D02*
X62507761Y-157789428D01*
X62555380Y-157646571D01*
X62555380Y-157551333D01*
X62507761Y-157408476D01*
X62412523Y-157313238D01*
X62317285Y-157265619D01*
X62126809Y-157218000D01*
X61983952Y-157218000D01*
X61793476Y-157265619D01*
X61698238Y-157313238D01*
X61603000Y-157408476D01*
X61555380Y-157551333D01*
X61555380Y-157646571D01*
X61603000Y-157789428D01*
X61650619Y-157837047D01*
X62555380Y-158265619D02*
X61555380Y-158265619D01*
X62555380Y-158837047D02*
X61983952Y-158408476D01*
X61555380Y-158837047D02*
X62126809Y-158265619D01*
X59618571Y-155718047D02*
X59666190Y-155860904D01*
X59713809Y-155908523D01*
X59809047Y-155956142D01*
X59951904Y-155956142D01*
X60047142Y-155908523D01*
X60094761Y-155860904D01*
X60142380Y-155765666D01*
X60142380Y-155384714D01*
X59142380Y-155384714D01*
X59142380Y-155718047D01*
X59190000Y-155813285D01*
X59237619Y-155860904D01*
X59332857Y-155908523D01*
X59428095Y-155908523D01*
X59523333Y-155860904D01*
X59570952Y-155813285D01*
X59618571Y-155718047D01*
X59618571Y-155384714D01*
X59618571Y-156384714D02*
X59618571Y-156718047D01*
X60142380Y-156860904D02*
X60142380Y-156384714D01*
X59142380Y-156384714D01*
X59142380Y-156860904D01*
X60142380Y-157860904D02*
X59666190Y-157527571D01*
X60142380Y-157289476D02*
X59142380Y-157289476D01*
X59142380Y-157670428D01*
X59190000Y-157765666D01*
X59237619Y-157813285D01*
X59332857Y-157860904D01*
X59475714Y-157860904D01*
X59570952Y-157813285D01*
X59618571Y-157765666D01*
X59666190Y-157670428D01*
X59666190Y-157289476D01*
X60142380Y-158860904D02*
X59666190Y-158527571D01*
X60142380Y-158289476D02*
X59142380Y-158289476D01*
X59142380Y-158670428D01*
X59190000Y-158765666D01*
X59237619Y-158813285D01*
X59332857Y-158860904D01*
X59475714Y-158860904D01*
X59570952Y-158813285D01*
X59618571Y-158765666D01*
X59666190Y-158670428D01*
X59666190Y-158289476D01*
X57602380Y-156884761D02*
X57126190Y-156551428D01*
X57602380Y-156313333D02*
X56602380Y-156313333D01*
X56602380Y-156694285D01*
X56650000Y-156789523D01*
X56697619Y-156837142D01*
X56792857Y-156884761D01*
X56935714Y-156884761D01*
X57030952Y-156837142D01*
X57078571Y-156789523D01*
X57126190Y-156694285D01*
X57126190Y-156313333D01*
X57602380Y-157313333D02*
X56602380Y-157313333D01*
X56602380Y-157551428D01*
X56650000Y-157694285D01*
X56745238Y-157789523D01*
X56840476Y-157837142D01*
X57030952Y-157884761D01*
X57173809Y-157884761D01*
X57364285Y-157837142D01*
X57459523Y-157789523D01*
X57554761Y-157694285D01*
X57602380Y-157551428D01*
X57602380Y-157313333D01*
X57602380Y-158789523D02*
X57602380Y-158313333D01*
X56602380Y-158313333D01*
X54935380Y-156765714D02*
X54459190Y-156432380D01*
X54935380Y-156194285D02*
X53935380Y-156194285D01*
X53935380Y-156575238D01*
X53983000Y-156670476D01*
X54030619Y-156718095D01*
X54125857Y-156765714D01*
X54268714Y-156765714D01*
X54363952Y-156718095D01*
X54411571Y-156670476D01*
X54459190Y-156575238D01*
X54459190Y-156194285D01*
X54935380Y-157194285D02*
X53935380Y-157194285D01*
X53935380Y-157432380D01*
X53983000Y-157575238D01*
X54078238Y-157670476D01*
X54173476Y-157718095D01*
X54363952Y-157765714D01*
X54506809Y-157765714D01*
X54697285Y-157718095D01*
X54792523Y-157670476D01*
X54887761Y-157575238D01*
X54935380Y-157432380D01*
X54935380Y-157194285D01*
X53935380Y-158194285D02*
X54744904Y-158194285D01*
X54840142Y-158241904D01*
X54887761Y-158289523D01*
X54935380Y-158384761D01*
X54935380Y-158575238D01*
X54887761Y-158670476D01*
X54840142Y-158718095D01*
X54744904Y-158765714D01*
X53935380Y-158765714D01*
X51395380Y-156146666D02*
X52395380Y-156384761D01*
X51681095Y-156575238D01*
X52395380Y-156765714D01*
X51395380Y-157003809D01*
X52395380Y-157956190D02*
X51919190Y-157622857D01*
X52395380Y-157384761D02*
X51395380Y-157384761D01*
X51395380Y-157765714D01*
X51443000Y-157860952D01*
X51490619Y-157908571D01*
X51585857Y-157956190D01*
X51728714Y-157956190D01*
X51823952Y-157908571D01*
X51871571Y-157860952D01*
X51919190Y-157765714D01*
X51919190Y-157384761D01*
X52395380Y-158860952D02*
X52395380Y-158384761D01*
X51395380Y-158384761D01*
X48728380Y-156027619D02*
X49728380Y-156265714D01*
X49014095Y-156456190D01*
X49728380Y-156646666D01*
X48728380Y-156884761D01*
X49728380Y-157837142D02*
X49252190Y-157503809D01*
X49728380Y-157265714D02*
X48728380Y-157265714D01*
X48728380Y-157646666D01*
X48776000Y-157741904D01*
X48823619Y-157789523D01*
X48918857Y-157837142D01*
X49061714Y-157837142D01*
X49156952Y-157789523D01*
X49204571Y-157741904D01*
X49252190Y-157646666D01*
X49252190Y-157265714D01*
X48728380Y-158265714D02*
X49537904Y-158265714D01*
X49633142Y-158313333D01*
X49680761Y-158360952D01*
X49728380Y-158456190D01*
X49728380Y-158646666D01*
X49680761Y-158741904D01*
X49633142Y-158789523D01*
X49537904Y-158837142D01*
X48728380Y-158837142D01*
X47315380Y-155980000D02*
X46315380Y-155980000D01*
X47315380Y-157027619D02*
X46839190Y-156694285D01*
X47315380Y-156456190D02*
X46315380Y-156456190D01*
X46315380Y-156837142D01*
X46363000Y-156932380D01*
X46410619Y-156980000D01*
X46505857Y-157027619D01*
X46648714Y-157027619D01*
X46743952Y-156980000D01*
X46791571Y-156932380D01*
X46839190Y-156837142D01*
X46839190Y-156456190D01*
X47410619Y-158122857D02*
X47363000Y-158027619D01*
X47267761Y-157932380D01*
X47124904Y-157789523D01*
X47077285Y-157694285D01*
X47077285Y-157599047D01*
X47315380Y-157646666D02*
X47267761Y-157551428D01*
X47172523Y-157456190D01*
X46982047Y-157408571D01*
X46648714Y-157408571D01*
X46458238Y-157456190D01*
X46363000Y-157551428D01*
X46315380Y-157646666D01*
X46315380Y-157837142D01*
X46363000Y-157932380D01*
X46458238Y-158027619D01*
X46648714Y-158075238D01*
X46982047Y-158075238D01*
X47172523Y-158027619D01*
X47267761Y-157932380D01*
X47315380Y-157837142D01*
X47315380Y-157646666D01*
X47315380Y-159027619D02*
X47315380Y-158456190D01*
X47315380Y-158741904D02*
X46315380Y-158741904D01*
X46458238Y-158646666D01*
X46553476Y-158551428D01*
X46601095Y-158456190D01*
X44775380Y-155980000D02*
X43775380Y-155980000D01*
X44775380Y-157027619D02*
X44299190Y-156694285D01*
X44775380Y-156456190D02*
X43775380Y-156456190D01*
X43775380Y-156837142D01*
X43823000Y-156932380D01*
X43870619Y-156980000D01*
X43965857Y-157027619D01*
X44108714Y-157027619D01*
X44203952Y-156980000D01*
X44251571Y-156932380D01*
X44299190Y-156837142D01*
X44299190Y-156456190D01*
X44870619Y-158122857D02*
X44823000Y-158027619D01*
X44727761Y-157932380D01*
X44584904Y-157789523D01*
X44537285Y-157694285D01*
X44537285Y-157599047D01*
X44775380Y-157646666D02*
X44727761Y-157551428D01*
X44632523Y-157456190D01*
X44442047Y-157408571D01*
X44108714Y-157408571D01*
X43918238Y-157456190D01*
X43823000Y-157551428D01*
X43775380Y-157646666D01*
X43775380Y-157837142D01*
X43823000Y-157932380D01*
X43918238Y-158027619D01*
X44108714Y-158075238D01*
X44442047Y-158075238D01*
X44632523Y-158027619D01*
X44727761Y-157932380D01*
X44775380Y-157837142D01*
X44775380Y-157646666D01*
X43870619Y-158456190D02*
X43823000Y-158503809D01*
X43775380Y-158599047D01*
X43775380Y-158837142D01*
X43823000Y-158932380D01*
X43870619Y-158980000D01*
X43965857Y-159027619D01*
X44061095Y-159027619D01*
X44203952Y-158980000D01*
X44775380Y-158408571D01*
X44775380Y-159027619D01*
X41235380Y-156146666D02*
X42235380Y-156480000D01*
X41235380Y-156813333D01*
X42140142Y-157718095D02*
X42187761Y-157670476D01*
X42235380Y-157527619D01*
X42235380Y-157432380D01*
X42187761Y-157289523D01*
X42092523Y-157194285D01*
X41997285Y-157146666D01*
X41806809Y-157099047D01*
X41663952Y-157099047D01*
X41473476Y-157146666D01*
X41378238Y-157194285D01*
X41283000Y-157289523D01*
X41235380Y-157432380D01*
X41235380Y-157527619D01*
X41283000Y-157670476D01*
X41330619Y-157718095D01*
X42140142Y-158718095D02*
X42187761Y-158670476D01*
X42235380Y-158527619D01*
X42235380Y-158432380D01*
X42187761Y-158289523D01*
X42092523Y-158194285D01*
X41997285Y-158146666D01*
X41806809Y-158099047D01*
X41663952Y-158099047D01*
X41473476Y-158146666D01*
X41378238Y-158194285D01*
X41283000Y-158289523D01*
X41235380Y-158432380D01*
X41235380Y-158527619D01*
X41283000Y-158670476D01*
X41330619Y-158718095D01*
X36330000Y-156718095D02*
X36282380Y-156622857D01*
X36282380Y-156480000D01*
X36330000Y-156337142D01*
X36425238Y-156241904D01*
X36520476Y-156194285D01*
X36710952Y-156146666D01*
X36853809Y-156146666D01*
X37044285Y-156194285D01*
X37139523Y-156241904D01*
X37234761Y-156337142D01*
X37282380Y-156480000D01*
X37282380Y-156575238D01*
X37234761Y-156718095D01*
X37187142Y-156765714D01*
X36853809Y-156765714D01*
X36853809Y-156575238D01*
X37282380Y-157194285D02*
X36282380Y-157194285D01*
X37282380Y-157765714D01*
X36282380Y-157765714D01*
X37282380Y-158241904D02*
X36282380Y-158241904D01*
X36282380Y-158480000D01*
X36330000Y-158622857D01*
X36425238Y-158718095D01*
X36520476Y-158765714D01*
X36710952Y-158813333D01*
X36853809Y-158813333D01*
X37044285Y-158765714D01*
X37139523Y-158718095D01*
X37234761Y-158622857D01*
X37282380Y-158480000D01*
X37282380Y-158241904D01*
D11*
X34163000Y-159512000D02*
X16383000Y-159512000D01*
X34163000Y-168402000D02*
X34163000Y-159512000D01*
X82423000Y-168402000D02*
X34163000Y-168402000D01*
X82423000Y-160782000D02*
X82423000Y-168402000D01*
X87503000Y-160782000D02*
X82423000Y-160782000D01*
X87503000Y-168402000D02*
X87503000Y-160782000D01*
X168783000Y-168402000D02*
X87503000Y-168402000D01*
X168783000Y-159512000D02*
X168783000Y-168402000D01*
X170053000Y-159512000D02*
X168783000Y-159512000D01*
X16383000Y-13000000D02*
X16383000Y-159512000D01*
X203073000Y-13000000D02*
X16383000Y-13000000D01*
X203073000Y-159512000D02*
X203073000Y-13000000D01*
X170053000Y-159512000D02*
X203073000Y-159512000D01*
D12*
%TO.C,C27*%
X181221748Y-73100000D02*
X181744252Y-73100000D01*
X181221748Y-71680000D02*
X181744252Y-71680000D01*
%TO.C,C26*%
X153408748Y-55828000D02*
X153931252Y-55828000D01*
X153408748Y-54408000D02*
X153931252Y-54408000D01*
%TO.C,C25*%
X153281748Y-90626000D02*
X153804252Y-90626000D01*
X153281748Y-89206000D02*
X153804252Y-89206000D01*
%TO.C,C24*%
X153281748Y-73481000D02*
X153804252Y-73481000D01*
X153281748Y-72061000D02*
X153804252Y-72061000D01*
%TO.C,RN8*%
X78515000Y-116975000D02*
X78515000Y-117975000D01*
X75155000Y-116975000D02*
X75155000Y-117975000D01*
%TO.C,C23*%
X41902748Y-26722000D02*
X42425252Y-26722000D01*
X41902748Y-28142000D02*
X42425252Y-28142000D01*
%TO.C,C22*%
X51487000Y-89923252D02*
X51487000Y-89400748D01*
X52907000Y-89923252D02*
X52907000Y-89400748D01*
%TO.C,C21*%
X181348748Y-106224000D02*
X181871252Y-106224000D01*
X181348748Y-107644000D02*
X181871252Y-107644000D01*
%TO.C,C20*%
X153281748Y-106478000D02*
X153804252Y-106478000D01*
X153281748Y-107898000D02*
X153804252Y-107898000D01*
%TO.C,C19*%
X181221748Y-123496000D02*
X181744252Y-123496000D01*
X181221748Y-124916000D02*
X181744252Y-124916000D01*
%TO.C,C18*%
X153408748Y-123496000D02*
X153931252Y-123496000D01*
X153408748Y-124916000D02*
X153931252Y-124916000D01*
%TO.C,C17*%
X181221748Y-140641000D02*
X181744252Y-140641000D01*
X181221748Y-142061000D02*
X181744252Y-142061000D01*
%TO.C,C16*%
X153272748Y-141149000D02*
X153795252Y-141149000D01*
X153272748Y-142569000D02*
X153795252Y-142569000D01*
%TO.C,C15*%
X181221748Y-88952000D02*
X181744252Y-88952000D01*
X181221748Y-90372000D02*
X181744252Y-90372000D01*
%TO.C,C14*%
X182125252Y-56082000D02*
X181602748Y-56082000D01*
X182125252Y-54662000D02*
X181602748Y-54662000D01*
%TO.C,C11*%
X48208000Y-21074748D02*
X48208000Y-21597252D01*
X46788000Y-21074748D02*
X46788000Y-21597252D01*
%TO.C,C10*%
X96757748Y-72950000D02*
X97280252Y-72950000D01*
X96757748Y-74370000D02*
X97280252Y-74370000D01*
%TO.C,C9*%
X90626000Y-56117748D02*
X90626000Y-56640252D01*
X89206000Y-56117748D02*
X89206000Y-56640252D01*
%TO.C,C8*%
X106409748Y-54916000D02*
X106932252Y-54916000D01*
X106409748Y-56336000D02*
X106932252Y-56336000D01*
%TO.C,C7*%
X107621000Y-66428252D02*
X107621000Y-65905748D01*
X109041000Y-66428252D02*
X109041000Y-65905748D01*
%TO.C,C6*%
X99297748Y-54916000D02*
X99820252Y-54916000D01*
X99297748Y-56336000D02*
X99820252Y-56336000D01*
%TO.C,C5*%
X90626000Y-71611748D02*
X90626000Y-72134252D01*
X89206000Y-71611748D02*
X89206000Y-72134252D01*
%TO.C,C4*%
X103506748Y-73077000D02*
X104029252Y-73077000D01*
X103506748Y-74497000D02*
X104029252Y-74497000D01*
%TO.C,C3*%
X145363000Y-27288748D02*
X145363000Y-27811252D01*
X143943000Y-27288748D02*
X143943000Y-27811252D01*
%TO.C,C2*%
X83685748Y-117400000D02*
X84208252Y-117400000D01*
X83685748Y-118820000D02*
X84208252Y-118820000D01*
%TO.C,C1*%
X81532252Y-104215000D02*
X81009748Y-104215000D01*
X81532252Y-102795000D02*
X81009748Y-102795000D01*
%TO.C,RN2*%
X95856000Y-117356000D02*
X95856000Y-118356000D01*
X99216000Y-117356000D02*
X99216000Y-118356000D01*
%TD*%
%TO.C,C27*%
D10*
X182125857Y-74397142D02*
X182173476Y-74444761D01*
X182316333Y-74492380D01*
X182411571Y-74492380D01*
X182554428Y-74444761D01*
X182649666Y-74349523D01*
X182697285Y-74254285D01*
X182744904Y-74063809D01*
X182744904Y-73920952D01*
X182697285Y-73730476D01*
X182649666Y-73635238D01*
X182554428Y-73540000D01*
X182411571Y-73492380D01*
X182316333Y-73492380D01*
X182173476Y-73540000D01*
X182125857Y-73587619D01*
X181744904Y-73587619D02*
X181697285Y-73540000D01*
X181602047Y-73492380D01*
X181363952Y-73492380D01*
X181268714Y-73540000D01*
X181221095Y-73587619D01*
X181173476Y-73682857D01*
X181173476Y-73778095D01*
X181221095Y-73920952D01*
X181792523Y-74492380D01*
X181173476Y-74492380D01*
X180840142Y-73492380D02*
X180173476Y-73492380D01*
X180602047Y-74492380D01*
%TO.C,C26*%
X154312857Y-57125142D02*
X154360476Y-57172761D01*
X154503333Y-57220380D01*
X154598571Y-57220380D01*
X154741428Y-57172761D01*
X154836666Y-57077523D01*
X154884285Y-56982285D01*
X154931904Y-56791809D01*
X154931904Y-56648952D01*
X154884285Y-56458476D01*
X154836666Y-56363238D01*
X154741428Y-56268000D01*
X154598571Y-56220380D01*
X154503333Y-56220380D01*
X154360476Y-56268000D01*
X154312857Y-56315619D01*
X153931904Y-56315619D02*
X153884285Y-56268000D01*
X153789047Y-56220380D01*
X153550952Y-56220380D01*
X153455714Y-56268000D01*
X153408095Y-56315619D01*
X153360476Y-56410857D01*
X153360476Y-56506095D01*
X153408095Y-56648952D01*
X153979523Y-57220380D01*
X153360476Y-57220380D01*
X152503333Y-56220380D02*
X152693809Y-56220380D01*
X152789047Y-56268000D01*
X152836666Y-56315619D01*
X152931904Y-56458476D01*
X152979523Y-56648952D01*
X152979523Y-57029904D01*
X152931904Y-57125142D01*
X152884285Y-57172761D01*
X152789047Y-57220380D01*
X152598571Y-57220380D01*
X152503333Y-57172761D01*
X152455714Y-57125142D01*
X152408095Y-57029904D01*
X152408095Y-56791809D01*
X152455714Y-56696571D01*
X152503333Y-56648952D01*
X152598571Y-56601333D01*
X152789047Y-56601333D01*
X152884285Y-56648952D01*
X152931904Y-56696571D01*
X152979523Y-56791809D01*
%TO.C,C25*%
X154185857Y-91923142D02*
X154233476Y-91970761D01*
X154376333Y-92018380D01*
X154471571Y-92018380D01*
X154614428Y-91970761D01*
X154709666Y-91875523D01*
X154757285Y-91780285D01*
X154804904Y-91589809D01*
X154804904Y-91446952D01*
X154757285Y-91256476D01*
X154709666Y-91161238D01*
X154614428Y-91066000D01*
X154471571Y-91018380D01*
X154376333Y-91018380D01*
X154233476Y-91066000D01*
X154185857Y-91113619D01*
X153804904Y-91113619D02*
X153757285Y-91066000D01*
X153662047Y-91018380D01*
X153423952Y-91018380D01*
X153328714Y-91066000D01*
X153281095Y-91113619D01*
X153233476Y-91208857D01*
X153233476Y-91304095D01*
X153281095Y-91446952D01*
X153852523Y-92018380D01*
X153233476Y-92018380D01*
X152328714Y-91018380D02*
X152804904Y-91018380D01*
X152852523Y-91494571D01*
X152804904Y-91446952D01*
X152709666Y-91399333D01*
X152471571Y-91399333D01*
X152376333Y-91446952D01*
X152328714Y-91494571D01*
X152281095Y-91589809D01*
X152281095Y-91827904D01*
X152328714Y-91923142D01*
X152376333Y-91970761D01*
X152471571Y-92018380D01*
X152709666Y-92018380D01*
X152804904Y-91970761D01*
X152852523Y-91923142D01*
%TO.C,C24*%
X154185857Y-74778142D02*
X154233476Y-74825761D01*
X154376333Y-74873380D01*
X154471571Y-74873380D01*
X154614428Y-74825761D01*
X154709666Y-74730523D01*
X154757285Y-74635285D01*
X154804904Y-74444809D01*
X154804904Y-74301952D01*
X154757285Y-74111476D01*
X154709666Y-74016238D01*
X154614428Y-73921000D01*
X154471571Y-73873380D01*
X154376333Y-73873380D01*
X154233476Y-73921000D01*
X154185857Y-73968619D01*
X153804904Y-73968619D02*
X153757285Y-73921000D01*
X153662047Y-73873380D01*
X153423952Y-73873380D01*
X153328714Y-73921000D01*
X153281095Y-73968619D01*
X153233476Y-74063857D01*
X153233476Y-74159095D01*
X153281095Y-74301952D01*
X153852523Y-74873380D01*
X153233476Y-74873380D01*
X152376333Y-74206714D02*
X152376333Y-74873380D01*
X152614428Y-73825761D02*
X152852523Y-74540047D01*
X152233476Y-74540047D01*
%TO.C,RN8*%
X80087380Y-116784523D02*
X79611190Y-116451190D01*
X80087380Y-116213095D02*
X79087380Y-116213095D01*
X79087380Y-116594047D01*
X79135000Y-116689285D01*
X79182619Y-116736904D01*
X79277857Y-116784523D01*
X79420714Y-116784523D01*
X79515952Y-116736904D01*
X79563571Y-116689285D01*
X79611190Y-116594047D01*
X79611190Y-116213095D01*
X80087380Y-117213095D02*
X79087380Y-117213095D01*
X80087380Y-117784523D01*
X79087380Y-117784523D01*
X79515952Y-118403571D02*
X79468333Y-118308333D01*
X79420714Y-118260714D01*
X79325476Y-118213095D01*
X79277857Y-118213095D01*
X79182619Y-118260714D01*
X79135000Y-118308333D01*
X79087380Y-118403571D01*
X79087380Y-118594047D01*
X79135000Y-118689285D01*
X79182619Y-118736904D01*
X79277857Y-118784523D01*
X79325476Y-118784523D01*
X79420714Y-118736904D01*
X79468333Y-118689285D01*
X79515952Y-118594047D01*
X79515952Y-118403571D01*
X79563571Y-118308333D01*
X79611190Y-118260714D01*
X79706428Y-118213095D01*
X79896904Y-118213095D01*
X79992142Y-118260714D01*
X80039761Y-118308333D01*
X80087380Y-118403571D01*
X80087380Y-118594047D01*
X80039761Y-118689285D01*
X79992142Y-118736904D01*
X79896904Y-118784523D01*
X79706428Y-118784523D01*
X79611190Y-118736904D01*
X79563571Y-118689285D01*
X79515952Y-118594047D01*
%TO.C,C23*%
X42806857Y-29439142D02*
X42854476Y-29486761D01*
X42997333Y-29534380D01*
X43092571Y-29534380D01*
X43235428Y-29486761D01*
X43330666Y-29391523D01*
X43378285Y-29296285D01*
X43425904Y-29105809D01*
X43425904Y-28962952D01*
X43378285Y-28772476D01*
X43330666Y-28677238D01*
X43235428Y-28582000D01*
X43092571Y-28534380D01*
X42997333Y-28534380D01*
X42854476Y-28582000D01*
X42806857Y-28629619D01*
X42425904Y-28629619D02*
X42378285Y-28582000D01*
X42283047Y-28534380D01*
X42044952Y-28534380D01*
X41949714Y-28582000D01*
X41902095Y-28629619D01*
X41854476Y-28724857D01*
X41854476Y-28820095D01*
X41902095Y-28962952D01*
X42473523Y-29534380D01*
X41854476Y-29534380D01*
X41521142Y-28534380D02*
X40902095Y-28534380D01*
X41235428Y-28915333D01*
X41092571Y-28915333D01*
X40997333Y-28962952D01*
X40949714Y-29010571D01*
X40902095Y-29105809D01*
X40902095Y-29343904D01*
X40949714Y-29439142D01*
X40997333Y-29486761D01*
X41092571Y-29534380D01*
X41378285Y-29534380D01*
X41473523Y-29486761D01*
X41521142Y-29439142D01*
%TO.C,C22*%
X54204142Y-89019142D02*
X54251761Y-88971523D01*
X54299380Y-88828666D01*
X54299380Y-88733428D01*
X54251761Y-88590571D01*
X54156523Y-88495333D01*
X54061285Y-88447714D01*
X53870809Y-88400095D01*
X53727952Y-88400095D01*
X53537476Y-88447714D01*
X53442238Y-88495333D01*
X53347000Y-88590571D01*
X53299380Y-88733428D01*
X53299380Y-88828666D01*
X53347000Y-88971523D01*
X53394619Y-89019142D01*
X53394619Y-89400095D02*
X53347000Y-89447714D01*
X53299380Y-89542952D01*
X53299380Y-89781047D01*
X53347000Y-89876285D01*
X53394619Y-89923904D01*
X53489857Y-89971523D01*
X53585095Y-89971523D01*
X53727952Y-89923904D01*
X54299380Y-89352476D01*
X54299380Y-89971523D01*
X53394619Y-90352476D02*
X53347000Y-90400095D01*
X53299380Y-90495333D01*
X53299380Y-90733428D01*
X53347000Y-90828666D01*
X53394619Y-90876285D01*
X53489857Y-90923904D01*
X53585095Y-90923904D01*
X53727952Y-90876285D01*
X54299380Y-90304857D01*
X54299380Y-90923904D01*
%TO.C,C21*%
X182252857Y-108941142D02*
X182300476Y-108988761D01*
X182443333Y-109036380D01*
X182538571Y-109036380D01*
X182681428Y-108988761D01*
X182776666Y-108893523D01*
X182824285Y-108798285D01*
X182871904Y-108607809D01*
X182871904Y-108464952D01*
X182824285Y-108274476D01*
X182776666Y-108179238D01*
X182681428Y-108084000D01*
X182538571Y-108036380D01*
X182443333Y-108036380D01*
X182300476Y-108084000D01*
X182252857Y-108131619D01*
X181871904Y-108131619D02*
X181824285Y-108084000D01*
X181729047Y-108036380D01*
X181490952Y-108036380D01*
X181395714Y-108084000D01*
X181348095Y-108131619D01*
X181300476Y-108226857D01*
X181300476Y-108322095D01*
X181348095Y-108464952D01*
X181919523Y-109036380D01*
X181300476Y-109036380D01*
X180348095Y-109036380D02*
X180919523Y-109036380D01*
X180633809Y-109036380D02*
X180633809Y-108036380D01*
X180729047Y-108179238D01*
X180824285Y-108274476D01*
X180919523Y-108322095D01*
%TO.C,C20*%
X154185857Y-109195142D02*
X154233476Y-109242761D01*
X154376333Y-109290380D01*
X154471571Y-109290380D01*
X154614428Y-109242761D01*
X154709666Y-109147523D01*
X154757285Y-109052285D01*
X154804904Y-108861809D01*
X154804904Y-108718952D01*
X154757285Y-108528476D01*
X154709666Y-108433238D01*
X154614428Y-108338000D01*
X154471571Y-108290380D01*
X154376333Y-108290380D01*
X154233476Y-108338000D01*
X154185857Y-108385619D01*
X153804904Y-108385619D02*
X153757285Y-108338000D01*
X153662047Y-108290380D01*
X153423952Y-108290380D01*
X153328714Y-108338000D01*
X153281095Y-108385619D01*
X153233476Y-108480857D01*
X153233476Y-108576095D01*
X153281095Y-108718952D01*
X153852523Y-109290380D01*
X153233476Y-109290380D01*
X152614428Y-108290380D02*
X152519190Y-108290380D01*
X152423952Y-108338000D01*
X152376333Y-108385619D01*
X152328714Y-108480857D01*
X152281095Y-108671333D01*
X152281095Y-108909428D01*
X152328714Y-109099904D01*
X152376333Y-109195142D01*
X152423952Y-109242761D01*
X152519190Y-109290380D01*
X152614428Y-109290380D01*
X152709666Y-109242761D01*
X152757285Y-109195142D01*
X152804904Y-109099904D01*
X152852523Y-108909428D01*
X152852523Y-108671333D01*
X152804904Y-108480857D01*
X152757285Y-108385619D01*
X152709666Y-108338000D01*
X152614428Y-108290380D01*
%TO.C,C19*%
X182125857Y-126213142D02*
X182173476Y-126260761D01*
X182316333Y-126308380D01*
X182411571Y-126308380D01*
X182554428Y-126260761D01*
X182649666Y-126165523D01*
X182697285Y-126070285D01*
X182744904Y-125879809D01*
X182744904Y-125736952D01*
X182697285Y-125546476D01*
X182649666Y-125451238D01*
X182554428Y-125356000D01*
X182411571Y-125308380D01*
X182316333Y-125308380D01*
X182173476Y-125356000D01*
X182125857Y-125403619D01*
X181173476Y-126308380D02*
X181744904Y-126308380D01*
X181459190Y-126308380D02*
X181459190Y-125308380D01*
X181554428Y-125451238D01*
X181649666Y-125546476D01*
X181744904Y-125594095D01*
X180697285Y-126308380D02*
X180506809Y-126308380D01*
X180411571Y-126260761D01*
X180363952Y-126213142D01*
X180268714Y-126070285D01*
X180221095Y-125879809D01*
X180221095Y-125498857D01*
X180268714Y-125403619D01*
X180316333Y-125356000D01*
X180411571Y-125308380D01*
X180602047Y-125308380D01*
X180697285Y-125356000D01*
X180744904Y-125403619D01*
X180792523Y-125498857D01*
X180792523Y-125736952D01*
X180744904Y-125832190D01*
X180697285Y-125879809D01*
X180602047Y-125927428D01*
X180411571Y-125927428D01*
X180316333Y-125879809D01*
X180268714Y-125832190D01*
X180221095Y-125736952D01*
%TO.C,C18*%
X154312857Y-126213142D02*
X154360476Y-126260761D01*
X154503333Y-126308380D01*
X154598571Y-126308380D01*
X154741428Y-126260761D01*
X154836666Y-126165523D01*
X154884285Y-126070285D01*
X154931904Y-125879809D01*
X154931904Y-125736952D01*
X154884285Y-125546476D01*
X154836666Y-125451238D01*
X154741428Y-125356000D01*
X154598571Y-125308380D01*
X154503333Y-125308380D01*
X154360476Y-125356000D01*
X154312857Y-125403619D01*
X153360476Y-126308380D02*
X153931904Y-126308380D01*
X153646190Y-126308380D02*
X153646190Y-125308380D01*
X153741428Y-125451238D01*
X153836666Y-125546476D01*
X153931904Y-125594095D01*
X152789047Y-125736952D02*
X152884285Y-125689333D01*
X152931904Y-125641714D01*
X152979523Y-125546476D01*
X152979523Y-125498857D01*
X152931904Y-125403619D01*
X152884285Y-125356000D01*
X152789047Y-125308380D01*
X152598571Y-125308380D01*
X152503333Y-125356000D01*
X152455714Y-125403619D01*
X152408095Y-125498857D01*
X152408095Y-125546476D01*
X152455714Y-125641714D01*
X152503333Y-125689333D01*
X152598571Y-125736952D01*
X152789047Y-125736952D01*
X152884285Y-125784571D01*
X152931904Y-125832190D01*
X152979523Y-125927428D01*
X152979523Y-126117904D01*
X152931904Y-126213142D01*
X152884285Y-126260761D01*
X152789047Y-126308380D01*
X152598571Y-126308380D01*
X152503333Y-126260761D01*
X152455714Y-126213142D01*
X152408095Y-126117904D01*
X152408095Y-125927428D01*
X152455714Y-125832190D01*
X152503333Y-125784571D01*
X152598571Y-125736952D01*
%TO.C,C17*%
X182125857Y-143358142D02*
X182173476Y-143405761D01*
X182316333Y-143453380D01*
X182411571Y-143453380D01*
X182554428Y-143405761D01*
X182649666Y-143310523D01*
X182697285Y-143215285D01*
X182744904Y-143024809D01*
X182744904Y-142881952D01*
X182697285Y-142691476D01*
X182649666Y-142596238D01*
X182554428Y-142501000D01*
X182411571Y-142453380D01*
X182316333Y-142453380D01*
X182173476Y-142501000D01*
X182125857Y-142548619D01*
X181173476Y-143453380D02*
X181744904Y-143453380D01*
X181459190Y-143453380D02*
X181459190Y-142453380D01*
X181554428Y-142596238D01*
X181649666Y-142691476D01*
X181744904Y-142739095D01*
X180840142Y-142453380D02*
X180173476Y-142453380D01*
X180602047Y-143453380D01*
%TO.C,C16*%
X154176857Y-143866142D02*
X154224476Y-143913761D01*
X154367333Y-143961380D01*
X154462571Y-143961380D01*
X154605428Y-143913761D01*
X154700666Y-143818523D01*
X154748285Y-143723285D01*
X154795904Y-143532809D01*
X154795904Y-143389952D01*
X154748285Y-143199476D01*
X154700666Y-143104238D01*
X154605428Y-143009000D01*
X154462571Y-142961380D01*
X154367333Y-142961380D01*
X154224476Y-143009000D01*
X154176857Y-143056619D01*
X153224476Y-143961380D02*
X153795904Y-143961380D01*
X153510190Y-143961380D02*
X153510190Y-142961380D01*
X153605428Y-143104238D01*
X153700666Y-143199476D01*
X153795904Y-143247095D01*
X152367333Y-142961380D02*
X152557809Y-142961380D01*
X152653047Y-143009000D01*
X152700666Y-143056619D01*
X152795904Y-143199476D01*
X152843523Y-143389952D01*
X152843523Y-143770904D01*
X152795904Y-143866142D01*
X152748285Y-143913761D01*
X152653047Y-143961380D01*
X152462571Y-143961380D01*
X152367333Y-143913761D01*
X152319714Y-143866142D01*
X152272095Y-143770904D01*
X152272095Y-143532809D01*
X152319714Y-143437571D01*
X152367333Y-143389952D01*
X152462571Y-143342333D01*
X152653047Y-143342333D01*
X152748285Y-143389952D01*
X152795904Y-143437571D01*
X152843523Y-143532809D01*
%TO.C,C15*%
X182125857Y-91669142D02*
X182173476Y-91716761D01*
X182316333Y-91764380D01*
X182411571Y-91764380D01*
X182554428Y-91716761D01*
X182649666Y-91621523D01*
X182697285Y-91526285D01*
X182744904Y-91335809D01*
X182744904Y-91192952D01*
X182697285Y-91002476D01*
X182649666Y-90907238D01*
X182554428Y-90812000D01*
X182411571Y-90764380D01*
X182316333Y-90764380D01*
X182173476Y-90812000D01*
X182125857Y-90859619D01*
X181173476Y-91764380D02*
X181744904Y-91764380D01*
X181459190Y-91764380D02*
X181459190Y-90764380D01*
X181554428Y-90907238D01*
X181649666Y-91002476D01*
X181744904Y-91050095D01*
X180268714Y-90764380D02*
X180744904Y-90764380D01*
X180792523Y-91240571D01*
X180744904Y-91192952D01*
X180649666Y-91145333D01*
X180411571Y-91145333D01*
X180316333Y-91192952D01*
X180268714Y-91240571D01*
X180221095Y-91335809D01*
X180221095Y-91573904D01*
X180268714Y-91669142D01*
X180316333Y-91716761D01*
X180411571Y-91764380D01*
X180649666Y-91764380D01*
X180744904Y-91716761D01*
X180792523Y-91669142D01*
%TO.C,C14*%
X182506857Y-54079142D02*
X182554476Y-54126761D01*
X182697333Y-54174380D01*
X182792571Y-54174380D01*
X182935428Y-54126761D01*
X183030666Y-54031523D01*
X183078285Y-53936285D01*
X183125904Y-53745809D01*
X183125904Y-53602952D01*
X183078285Y-53412476D01*
X183030666Y-53317238D01*
X182935428Y-53222000D01*
X182792571Y-53174380D01*
X182697333Y-53174380D01*
X182554476Y-53222000D01*
X182506857Y-53269619D01*
X181554476Y-54174380D02*
X182125904Y-54174380D01*
X181840190Y-54174380D02*
X181840190Y-53174380D01*
X181935428Y-53317238D01*
X182030666Y-53412476D01*
X182125904Y-53460095D01*
X180697333Y-53507714D02*
X180697333Y-54174380D01*
X180935428Y-53126761D02*
X181173523Y-53841047D01*
X180554476Y-53841047D01*
%TO.C,C11*%
X46205142Y-20693142D02*
X46252761Y-20645523D01*
X46300380Y-20502666D01*
X46300380Y-20407428D01*
X46252761Y-20264571D01*
X46157523Y-20169333D01*
X46062285Y-20121714D01*
X45871809Y-20074095D01*
X45728952Y-20074095D01*
X45538476Y-20121714D01*
X45443238Y-20169333D01*
X45348000Y-20264571D01*
X45300380Y-20407428D01*
X45300380Y-20502666D01*
X45348000Y-20645523D01*
X45395619Y-20693142D01*
X46300380Y-21645523D02*
X46300380Y-21074095D01*
X46300380Y-21359809D02*
X45300380Y-21359809D01*
X45443238Y-21264571D01*
X45538476Y-21169333D01*
X45586095Y-21074095D01*
X46300380Y-22597904D02*
X46300380Y-22026476D01*
X46300380Y-22312190D02*
X45300380Y-22312190D01*
X45443238Y-22216952D01*
X45538476Y-22121714D01*
X45586095Y-22026476D01*
%TO.C,C10*%
X97661857Y-75667142D02*
X97709476Y-75714761D01*
X97852333Y-75762380D01*
X97947571Y-75762380D01*
X98090428Y-75714761D01*
X98185666Y-75619523D01*
X98233285Y-75524285D01*
X98280904Y-75333809D01*
X98280904Y-75190952D01*
X98233285Y-75000476D01*
X98185666Y-74905238D01*
X98090428Y-74810000D01*
X97947571Y-74762380D01*
X97852333Y-74762380D01*
X97709476Y-74810000D01*
X97661857Y-74857619D01*
X96709476Y-75762380D02*
X97280904Y-75762380D01*
X96995190Y-75762380D02*
X96995190Y-74762380D01*
X97090428Y-74905238D01*
X97185666Y-75000476D01*
X97280904Y-75048095D01*
X96090428Y-74762380D02*
X95995190Y-74762380D01*
X95899952Y-74810000D01*
X95852333Y-74857619D01*
X95804714Y-74952857D01*
X95757095Y-75143333D01*
X95757095Y-75381428D01*
X95804714Y-75571904D01*
X95852333Y-75667142D01*
X95899952Y-75714761D01*
X95995190Y-75762380D01*
X96090428Y-75762380D01*
X96185666Y-75714761D01*
X96233285Y-75667142D01*
X96280904Y-75571904D01*
X96328523Y-75381428D01*
X96328523Y-75143333D01*
X96280904Y-74952857D01*
X96233285Y-74857619D01*
X96185666Y-74810000D01*
X96090428Y-74762380D01*
%TO.C,C9*%
X88623142Y-56212333D02*
X88670761Y-56164714D01*
X88718380Y-56021857D01*
X88718380Y-55926619D01*
X88670761Y-55783761D01*
X88575523Y-55688523D01*
X88480285Y-55640904D01*
X88289809Y-55593285D01*
X88146952Y-55593285D01*
X87956476Y-55640904D01*
X87861238Y-55688523D01*
X87766000Y-55783761D01*
X87718380Y-55926619D01*
X87718380Y-56021857D01*
X87766000Y-56164714D01*
X87813619Y-56212333D01*
X88718380Y-56688523D02*
X88718380Y-56879000D01*
X88670761Y-56974238D01*
X88623142Y-57021857D01*
X88480285Y-57117095D01*
X88289809Y-57164714D01*
X87908857Y-57164714D01*
X87813619Y-57117095D01*
X87766000Y-57069476D01*
X87718380Y-56974238D01*
X87718380Y-56783761D01*
X87766000Y-56688523D01*
X87813619Y-56640904D01*
X87908857Y-56593285D01*
X88146952Y-56593285D01*
X88242190Y-56640904D01*
X88289809Y-56688523D01*
X88337428Y-56783761D01*
X88337428Y-56974238D01*
X88289809Y-57069476D01*
X88242190Y-57117095D01*
X88146952Y-57164714D01*
%TO.C,C8*%
X106837666Y-57633142D02*
X106885285Y-57680761D01*
X107028142Y-57728380D01*
X107123380Y-57728380D01*
X107266238Y-57680761D01*
X107361476Y-57585523D01*
X107409095Y-57490285D01*
X107456714Y-57299809D01*
X107456714Y-57156952D01*
X107409095Y-56966476D01*
X107361476Y-56871238D01*
X107266238Y-56776000D01*
X107123380Y-56728380D01*
X107028142Y-56728380D01*
X106885285Y-56776000D01*
X106837666Y-56823619D01*
X106266238Y-57156952D02*
X106361476Y-57109333D01*
X106409095Y-57061714D01*
X106456714Y-56966476D01*
X106456714Y-56918857D01*
X106409095Y-56823619D01*
X106361476Y-56776000D01*
X106266238Y-56728380D01*
X106075761Y-56728380D01*
X105980523Y-56776000D01*
X105932904Y-56823619D01*
X105885285Y-56918857D01*
X105885285Y-56966476D01*
X105932904Y-57061714D01*
X105980523Y-57109333D01*
X106075761Y-57156952D01*
X106266238Y-57156952D01*
X106361476Y-57204571D01*
X106409095Y-57252190D01*
X106456714Y-57347428D01*
X106456714Y-57537904D01*
X106409095Y-57633142D01*
X106361476Y-57680761D01*
X106266238Y-57728380D01*
X106075761Y-57728380D01*
X105980523Y-57680761D01*
X105932904Y-57633142D01*
X105885285Y-57537904D01*
X105885285Y-57347428D01*
X105932904Y-57252190D01*
X105980523Y-57204571D01*
X106075761Y-57156952D01*
%TO.C,C7*%
X110338142Y-66000333D02*
X110385761Y-65952714D01*
X110433380Y-65809857D01*
X110433380Y-65714619D01*
X110385761Y-65571761D01*
X110290523Y-65476523D01*
X110195285Y-65428904D01*
X110004809Y-65381285D01*
X109861952Y-65381285D01*
X109671476Y-65428904D01*
X109576238Y-65476523D01*
X109481000Y-65571761D01*
X109433380Y-65714619D01*
X109433380Y-65809857D01*
X109481000Y-65952714D01*
X109528619Y-66000333D01*
X109433380Y-66333666D02*
X109433380Y-67000333D01*
X110433380Y-66571761D01*
%TO.C,C6*%
X99725666Y-57633142D02*
X99773285Y-57680761D01*
X99916142Y-57728380D01*
X100011380Y-57728380D01*
X100154238Y-57680761D01*
X100249476Y-57585523D01*
X100297095Y-57490285D01*
X100344714Y-57299809D01*
X100344714Y-57156952D01*
X100297095Y-56966476D01*
X100249476Y-56871238D01*
X100154238Y-56776000D01*
X100011380Y-56728380D01*
X99916142Y-56728380D01*
X99773285Y-56776000D01*
X99725666Y-56823619D01*
X98868523Y-56728380D02*
X99059000Y-56728380D01*
X99154238Y-56776000D01*
X99201857Y-56823619D01*
X99297095Y-56966476D01*
X99344714Y-57156952D01*
X99344714Y-57537904D01*
X99297095Y-57633142D01*
X99249476Y-57680761D01*
X99154238Y-57728380D01*
X98963761Y-57728380D01*
X98868523Y-57680761D01*
X98820904Y-57633142D01*
X98773285Y-57537904D01*
X98773285Y-57299809D01*
X98820904Y-57204571D01*
X98868523Y-57156952D01*
X98963761Y-57109333D01*
X99154238Y-57109333D01*
X99249476Y-57156952D01*
X99297095Y-57204571D01*
X99344714Y-57299809D01*
%TO.C,C5*%
X88623142Y-71706333D02*
X88670761Y-71658714D01*
X88718380Y-71515857D01*
X88718380Y-71420619D01*
X88670761Y-71277761D01*
X88575523Y-71182523D01*
X88480285Y-71134904D01*
X88289809Y-71087285D01*
X88146952Y-71087285D01*
X87956476Y-71134904D01*
X87861238Y-71182523D01*
X87766000Y-71277761D01*
X87718380Y-71420619D01*
X87718380Y-71515857D01*
X87766000Y-71658714D01*
X87813619Y-71706333D01*
X87718380Y-72611095D02*
X87718380Y-72134904D01*
X88194571Y-72087285D01*
X88146952Y-72134904D01*
X88099333Y-72230142D01*
X88099333Y-72468238D01*
X88146952Y-72563476D01*
X88194571Y-72611095D01*
X88289809Y-72658714D01*
X88527904Y-72658714D01*
X88623142Y-72611095D01*
X88670761Y-72563476D01*
X88718380Y-72468238D01*
X88718380Y-72230142D01*
X88670761Y-72134904D01*
X88623142Y-72087285D01*
%TO.C,C4*%
X103934666Y-75794142D02*
X103982285Y-75841761D01*
X104125142Y-75889380D01*
X104220380Y-75889380D01*
X104363238Y-75841761D01*
X104458476Y-75746523D01*
X104506095Y-75651285D01*
X104553714Y-75460809D01*
X104553714Y-75317952D01*
X104506095Y-75127476D01*
X104458476Y-75032238D01*
X104363238Y-74937000D01*
X104220380Y-74889380D01*
X104125142Y-74889380D01*
X103982285Y-74937000D01*
X103934666Y-74984619D01*
X103077523Y-75222714D02*
X103077523Y-75889380D01*
X103315619Y-74841761D02*
X103553714Y-75556047D01*
X102934666Y-75556047D01*
%TO.C,C3*%
X143360142Y-27383333D02*
X143407761Y-27335714D01*
X143455380Y-27192857D01*
X143455380Y-27097619D01*
X143407761Y-26954761D01*
X143312523Y-26859523D01*
X143217285Y-26811904D01*
X143026809Y-26764285D01*
X142883952Y-26764285D01*
X142693476Y-26811904D01*
X142598238Y-26859523D01*
X142503000Y-26954761D01*
X142455380Y-27097619D01*
X142455380Y-27192857D01*
X142503000Y-27335714D01*
X142550619Y-27383333D01*
X142455380Y-27716666D02*
X142455380Y-28335714D01*
X142836333Y-28002380D01*
X142836333Y-28145238D01*
X142883952Y-28240476D01*
X142931571Y-28288095D01*
X143026809Y-28335714D01*
X143264904Y-28335714D01*
X143360142Y-28288095D01*
X143407761Y-28240476D01*
X143455380Y-28145238D01*
X143455380Y-27859523D01*
X143407761Y-27764285D01*
X143360142Y-27716666D01*
%TO.C,C2*%
X84113666Y-120117142D02*
X84161285Y-120164761D01*
X84304142Y-120212380D01*
X84399380Y-120212380D01*
X84542238Y-120164761D01*
X84637476Y-120069523D01*
X84685095Y-119974285D01*
X84732714Y-119783809D01*
X84732714Y-119640952D01*
X84685095Y-119450476D01*
X84637476Y-119355238D01*
X84542238Y-119260000D01*
X84399380Y-119212380D01*
X84304142Y-119212380D01*
X84161285Y-119260000D01*
X84113666Y-119307619D01*
X83732714Y-119307619D02*
X83685095Y-119260000D01*
X83589857Y-119212380D01*
X83351761Y-119212380D01*
X83256523Y-119260000D01*
X83208904Y-119307619D01*
X83161285Y-119402857D01*
X83161285Y-119498095D01*
X83208904Y-119640952D01*
X83780333Y-120212380D01*
X83161285Y-120212380D01*
%TO.C,C1*%
X81437666Y-102212142D02*
X81485285Y-102259761D01*
X81628142Y-102307380D01*
X81723380Y-102307380D01*
X81866238Y-102259761D01*
X81961476Y-102164523D01*
X82009095Y-102069285D01*
X82056714Y-101878809D01*
X82056714Y-101735952D01*
X82009095Y-101545476D01*
X81961476Y-101450238D01*
X81866238Y-101355000D01*
X81723380Y-101307380D01*
X81628142Y-101307380D01*
X81485285Y-101355000D01*
X81437666Y-101402619D01*
X80485285Y-102307380D02*
X81056714Y-102307380D01*
X80771000Y-102307380D02*
X80771000Y-101307380D01*
X80866238Y-101450238D01*
X80961476Y-101545476D01*
X81056714Y-101593095D01*
%TO.C,RN2*%
X100788380Y-117165523D02*
X100312190Y-116832190D01*
X100788380Y-116594095D02*
X99788380Y-116594095D01*
X99788380Y-116975047D01*
X99836000Y-117070285D01*
X99883619Y-117117904D01*
X99978857Y-117165523D01*
X100121714Y-117165523D01*
X100216952Y-117117904D01*
X100264571Y-117070285D01*
X100312190Y-116975047D01*
X100312190Y-116594095D01*
X100788380Y-117594095D02*
X99788380Y-117594095D01*
X100788380Y-118165523D01*
X99788380Y-118165523D01*
X99883619Y-118594095D02*
X99836000Y-118641714D01*
X99788380Y-118736952D01*
X99788380Y-118975047D01*
X99836000Y-119070285D01*
X99883619Y-119117904D01*
X99978857Y-119165523D01*
X100074095Y-119165523D01*
X100216952Y-119117904D01*
X100788380Y-118546476D01*
X100788380Y-119165523D01*
%TD*%
M02*
