M48
; DRILL file {KiCad 5.1.6-c6e7f7d~86~ubuntu18.04.1} date Sat Dec 12 09:12:05 2020
; FORMAT={-:-/ absolute / inch / decimal}
; #@! TF.CreationDate,2020-12-12T09:12:05+08:00
; #@! TF.GenerationSoftware,Kicad,Pcbnew,5.1.6-c6e7f7d~86~ubuntu18.04.1
; #@! TF.FileFunction,Plated,1,2,PTH
FMAT,2
INCH
T1C0.0157
T2C0.0295
T3C0.0315
T4C0.0394
T5C0.0433
T6C0.0472
%
G90
G05
T1
X1.1053Y-0.9727
X1.1094Y-0.919
X1.2156Y-0.8157
X1.2467Y-1.3614
X1.2553Y-0.9053
X1.3957Y-4.1238
X1.5025Y-0.805
X1.6153Y-1.1932
X1.6855Y-5.7133
X1.7094Y-5.2613
X1.711Y-2.6638
X1.7338Y-2.4541
X1.8274Y-5.7683
X1.8477Y-5.7298
X1.8931Y-5.6128
X1.9269Y-5.8412
X1.9373Y-5.8914
X1.9833Y-5.7938
X2.1337Y-4.8884
X2.1607Y-5.5597
X2.2323Y-4.5735
X2.235Y-5.714
X2.2636Y-3.3799
X2.3265Y-5.1154
X2.3365Y-4.0048
X2.37Y-0.7517
X2.3717Y-3.8353
X2.3879Y-3.7082
X2.4187Y-3.7706
X2.4857Y-2.4905
X2.5452Y-4.6447
X2.555Y-4.8249
X2.5758Y-3.1601
X2.6452Y-4.5811
X2.6582Y-4.3373
X2.6619Y-0.7513
X2.7567Y-4.9042
X2.805Y-4.2318
X2.8219Y-5.1433
X2.8247Y-3.4641
X2.8604Y-4.7745
X2.8899Y-4.227
X2.9101Y-5.8902
X2.9353Y-4.3564
X2.95Y-5.2009
X2.9506Y-5.7467
X2.969Y-1.8488
X2.9734Y-5.9038
X2.974Y-4.1685
X2.9796Y-5.8568
X3.0805Y-4.8828
X3.1607Y-5.7064
X3.2632Y-3.5609
X3.3286Y-3.83
X3.366Y-5.5049
X3.4396Y-1.4081
X3.5158Y-5.6172
X3.5517Y-5.4049
X3.5797Y-5.4577
X3.5808Y-1.3729
X3.5808Y-1.5092
X3.5828Y-3.559
X3.6004Y-5.4226
X3.605Y-4.5678
X3.639Y-5.5154
X3.6575Y-5.4049
X3.6724Y-1.3122
X3.6817Y-5.5579
X3.706Y-1.2191
X3.7156Y-3.4914
X3.7314Y-5.4542
X3.7721Y-3.2114
X3.8184Y-2.6462
X3.8342Y-5.2559
X3.8433Y-5.3476
X3.8656Y-3.1248
X3.8874Y-5.373
X3.8879Y-3.898
X3.945Y-1.6145
X3.9515Y-2.4
X3.955Y-4.678
X3.9677Y-2.2704
X3.972Y-2.6896
X3.9781Y-3.4571
X3.991Y-2.1323
X4.005Y-5.2519
X4.0114Y-2.6854
X4.0129Y-5.3907
X4.0234Y-4.6447
X4.0357Y-2.162
X4.0392Y-3.1643
X4.0558Y-2.6941
X4.0637Y-2.3
X4.105Y-5.4653
X4.1125Y-5.9155
X4.1239Y-3.3497
X4.1316Y-1.6995
X4.1538Y-3.3209
X4.1783Y-4.4799
X4.1963Y-5.8244
X4.2034Y-3.1901
X4.2163Y-3.014
X4.2227Y-3.3373
X4.2553Y-3.3633
X4.2675Y-5.7768
X4.301Y-5.9201
X4.3142Y-5.7825
X4.3167Y-2.2477
X4.3186Y-2.6757
X4.3187Y-5.8276
X4.3262Y-4.2673
X4.331Y-3.2924
X4.3376Y-1.2625
X4.3548Y-4.7717
X4.3597Y-2.9758
X4.3785Y-2.7592
X4.3841Y-1.9429
X4.3848Y-3.7627
X4.4228Y-4.7443
X4.4236Y-3.3722
X4.4329Y-5.8135
X4.4501Y-2.0626
X4.4537Y-2.9813
X4.4581Y-4.2273
X4.4773Y-3.3429
X4.4848Y-3.0569
X4.4969Y-4.8425
X4.5063Y-2.0317
X4.5097Y-4.9113
X4.5342Y-5.9152
X4.6159Y-5.1252
X4.6408Y-5.5667
X4.6421Y-1.8675
X4.6574Y-2.4
X4.6724Y-4.3833
X4.6729Y-1.9185
X4.6803Y-5.5675
X4.6894Y-1.8305
X4.7029Y-3.3633
X4.7173Y-1.3003
X4.7339Y-1.5804
X4.7352Y-2.7389
X4.7396Y-4.9368
X4.744Y-1.5339
X4.7557Y-3.661
X4.7798Y-5.613
X4.7888Y-2.5282
X4.8011Y-3.5696
X4.8014Y-4.7262
X4.8216Y-1.4616
X4.888Y-5.0859
X4.9032Y-5.6978
X4.9045Y-3.7627
X4.919Y-5.5847
X4.9898Y-5.5871
X4.9905Y-4.2846
X5.0042Y-2.3076
X5.0794Y-5.9073
X5.1198Y-4.2711
X5.1814Y-5.8134
X5.1818Y-4.0506
X5.1837Y-3.3586
X5.2011Y-2.4562
X5.2029Y-1.4518
X5.206Y-5.7756
X5.2134Y-3.9553
X5.2333Y-3.6946
X5.2468Y-4.3592
X5.2909Y-4.1316
X5.295Y-2.45
X5.3084Y-4.1887
X5.3098Y-1.7079
X5.3121Y-3.6212
X5.3304Y-3.4472
X5.3305Y-3.3994
X5.3659Y-1.7401
X5.3887Y-5.7715
X5.3962Y-2.1689
X5.4159Y-2.6709
X5.4193Y-1.7636
X5.428Y-2.2677
X5.4359Y-5.9162
X5.4533Y-2.1697
X5.4539Y-1.9953
X5.4887Y-2.0162
X5.4887Y-2.091
X5.4908Y-1.3632
X5.5995Y-4.5678
X5.6029Y-3.3275
X5.6031Y-3.4187
X5.6382Y-1.2999
X5.6687Y-2.3897
X5.67Y-2.1081
X5.6757Y-4.4799
X5.6927Y-5.8031
X5.6942Y-4.2419
X5.6955Y-2.45
X5.7013Y-2.3119
X5.7287Y-1.9395
X5.7419Y-1.6793
X5.7549Y-1.2218
X5.7572Y-3.0914
X5.785Y-2.3858
X5.7958Y-3.3626
X5.8238Y-4.4086
X5.8249Y-3.3892
X5.8307Y-2.4507
X5.8335Y-1.7932
X5.8347Y-3.1384
X5.8392Y-3.5501
X5.8561Y-3.8102
X5.8589Y-0.8796
X5.8593Y-2.5318
X5.8607Y-3.5843
X5.8705Y-2.885
X5.8785Y-3.5417
X5.8912Y-3.5023
X5.8951Y-3.1812
X5.8972Y-1.9137
X5.9068Y-4.4853
X5.9075Y-3.8424
X5.9282Y-4.1011
X5.9351Y-2.4609
X5.9365Y-1.9102
X5.9454Y-2.5902
X5.9723Y-2.0832
X5.9754Y-3.8385
X5.9818Y-4.4851
X5.9928Y-3.438
X5.9928Y-1.8197
X5.9989Y-4.5272
X6.0171Y-0.7575
X6.0263Y-3.6613
X6.041Y-3.1458
X6.041Y-4.3176
X6.0416Y-2.5121
X6.0502Y-4.1409
X6.07Y-2.7405
X6.0942Y-3.2369
X6.1018Y-2.4938
X6.1067Y-3.6537
X6.124Y-3.1373
X6.1314Y-3.8685
X6.1439Y-4.2718
X6.1449Y-2.3185
X6.1455Y-5.8113
X6.164Y-2.9805
X6.1674Y-4.4851
X6.172Y-3.8185
X6.1765Y-2.059
X6.1925Y-2.3158
X6.1934Y-2.7332
X6.1945Y-5.3975
X6.2002Y-2.5207
X6.2028Y-4.2867
X6.2068Y-4.485
X6.22Y-3.1401
X6.2333Y-4.3182
X6.2471Y-4.1519
X6.2616Y-5.0241
X6.27Y-2.773
X6.2791Y-2.3095
X6.2878Y-2.485
X6.3029Y-4.0868
X6.3137Y-5.7771
X6.3163Y-4.3353
X6.3217Y-4.2456
X6.325Y-3.8263
X6.3444Y-2.7427
X6.3614Y-4.2426
X6.3651Y-2.7808
X6.3711Y-3.8972
X6.3737Y-5.8161
X6.375Y-4.5345
X6.3812Y-1.4952
X6.3812Y-1.8791
X6.3855Y-2.1702
X6.3931Y-3.264
X6.4027Y-4.3327
X6.4154Y-3.1354
X6.4169Y-2.4938
X6.4249Y-3.6413
X6.4283Y-4.5772
X6.4393Y-3.8325
X6.4469Y-5.8434
X6.4577Y-2.5595
X6.4654Y-5.7663
X6.4658Y-5.8057
X6.4693Y-3.2268
X6.5006Y-2.9859
X6.5042Y-2.5185
X6.5081Y-1.8125
X6.511Y-4.9327
X6.5192Y-3.6461
X6.5201Y-4.3132
X6.5271Y-3.5539
X6.5293Y-2.7332
X6.5316Y-4.0996
X6.5328Y-3.8841
X6.5416Y-2.0564
X6.57Y-4.2846
X6.5726Y-2.9353
X6.5792Y-3.8332
X6.5901Y-4.522
X6.5919Y-2.5387
X6.6031Y-3.1395
X6.6085Y-2.741
X6.6177Y-3.4083
X6.62Y-3.6292
X6.6264Y-3.935
X6.6575Y-3.863
X6.6637Y-1.6454
X6.67Y-2.5803
X6.7083Y-4.4869
X6.7336Y-1.398
X6.7617Y-4.4108
X6.7622Y-3.7838
X6.8009Y-3.5509
X6.82Y-2.5656
X6.8647Y-4.006
X6.8663Y-3.5327
X6.8738Y-3.2464
X6.8743Y-1.901
X6.9273Y-2.176
X6.9612Y-3.5038
X6.9639Y-2.585
X6.9732Y-3.1352
X7.0165Y-3.8128
X7.0206Y-2.918
X7.0228Y-3.2563
X7.0571Y-4.0916
X7.0807Y-3.4369
X7.12Y-3.5882
X7.1212Y-1.6941
X7.1242Y-2.2881
X7.1698Y-3.6527
X7.1841Y-2.7444
X7.2093Y-4.144
X7.2239Y-2.3013
X7.2239Y-3.4308
X7.2412Y-2.7481
X7.2599Y-3.5899
X7.2624Y-2.4939
X7.2676Y-1.29
X7.27Y-2.206
X7.27Y-4.0989
X7.2878Y-2.2718
X7.3098Y-3.4281
X7.3324Y-1.808
X7.3385Y-4.1742
X7.3448Y-1.9033
X7.37Y-4.4865
X7.3801Y-2.1139
X7.4234Y-4.0832
X7.4247Y-3.5913
X7.4358Y-3.6471
X7.4571Y-2.8957
X7.4595Y-2.9365
X7.4649Y-2.1321
X7.4706Y-2.5721
X7.482Y-3.9345
X7.4969Y-3.5365
X7.5168Y-4.3359
X7.5193Y-2.2704
X7.5193Y-4.533
X7.5196Y-1.545
X7.5208Y-3.8284
X7.5402Y-2.0726
X7.5403Y-3.5554
X7.5431Y-2.9131
X7.5742Y-2.964
X7.5798Y-3.4776
X7.5805Y-3.9303
X7.6005Y-2.4966
X7.6379Y-2.2823
X7.6392Y-4.325
X7.6428Y-2.8952
X7.6599Y-3.1936
X7.6646Y-3.6619
X7.6703Y-3.9341
X7.6829Y-3.2463
X7.6863Y-2.9341
X7.7138Y-2.4713
T2
X0.905Y-3.6
X0.905Y-3.65
X0.905Y-3.7
T3
X1.77Y-1.145
X1.77Y-1.745
X1.87Y-1.145
X1.87Y-1.745
X1.97Y-1.145
X1.97Y-1.745
X2.07Y-1.145
X2.07Y-1.745
X2.17Y-1.145
X2.17Y-1.745
X2.27Y-1.145
X2.27Y-1.745
X2.37Y-1.145
X2.37Y-1.745
X2.47Y-1.145
X2.47Y-1.745
X2.57Y-1.145
X2.57Y-1.745
X2.67Y-1.145
X2.67Y-1.745
X2.77Y-1.145
X2.77Y-1.745
X2.87Y-1.145
X2.87Y-1.745
X2.97Y-1.145
X2.97Y-1.745
X3.07Y-1.145
X3.07Y-1.745
X3.17Y-1.145
X3.17Y-1.745
X3.27Y-1.145
X3.27Y-1.745
X3.37Y-1.145
X3.37Y-1.745
X3.47Y-1.145
X3.47Y-1.745
X3.57Y-1.145
X3.57Y-1.745
X3.67Y-1.145
X3.67Y-1.745
X4.145Y-1.8
X4.145Y-1.9
X4.145Y-2.0
X4.145Y-2.1
X4.145Y-2.2
X4.145Y-2.3
X4.145Y-2.4
X4.145Y-2.5
X4.145Y-2.6
X4.145Y-2.7
X4.145Y-2.8
X4.245Y-1.7
X4.245Y-1.8
X4.245Y-1.9
X4.245Y-2.0
X4.245Y-2.1
X4.245Y-2.2
X4.245Y-2.3
X4.245Y-2.4
X4.245Y-2.5
X4.245Y-2.6
X4.245Y-2.7
X4.245Y-2.8
X4.245Y-2.9
X4.345Y-1.7
X4.345Y-1.8
X4.345Y-2.8
X4.345Y-2.9
X4.445Y-1.7
X4.445Y-1.8
X4.445Y-2.8
X4.445Y-2.9
X4.545Y-1.7
X4.545Y-1.8
X4.545Y-2.8
X4.545Y-2.9
X4.645Y-1.7
X4.645Y-1.8
X4.645Y-2.8
X4.645Y-2.9
X4.745Y-1.7
X4.745Y-1.8
X4.745Y-2.8
X4.745Y-2.9
X4.845Y-1.7
X4.845Y-1.8
X4.845Y-2.8
X4.845Y-2.9
X4.945Y-1.7
X4.945Y-1.8
X4.945Y-2.8
X4.945Y-2.9
X5.045Y-1.7
X5.045Y-1.8
X5.045Y-2.8
X5.045Y-2.9
X5.145Y-1.7
X5.145Y-1.8
X5.145Y-2.8
X5.145Y-2.9
X5.245Y-1.7
X5.245Y-1.8
X5.245Y-1.9
X5.245Y-2.0
X5.245Y-2.1
X5.245Y-2.2
X5.245Y-2.3
X5.245Y-2.4
X5.245Y-2.5
X5.245Y-2.6
X5.245Y-2.7
X5.245Y-2.8
X5.245Y-2.9
X5.345Y-1.8
X5.345Y-1.9
X5.345Y-2.0
X5.345Y-2.1
X5.345Y-2.2
X5.345Y-2.3
X5.345Y-2.4
X5.345Y-2.5
X5.345Y-2.6
X5.345Y-2.7
X5.345Y-2.8
X1.295Y-3.6
X1.295Y-3.7
X1.905Y-4.1
X1.905Y-5.0
X2.005Y-4.1
X2.005Y-5.0
X2.105Y-4.1
X2.105Y-5.0
X2.205Y-4.1
X2.205Y-5.0
X2.305Y-4.1
X2.305Y-5.0
X2.405Y-4.1
X2.405Y-5.0
X2.505Y-4.1
X2.505Y-5.0
X2.605Y-4.1
X2.605Y-5.0
X2.705Y-4.1
X2.705Y-5.0
X2.805Y-4.1
X2.805Y-5.0
X2.905Y-4.1
X2.905Y-5.0
X3.005Y-4.1
X3.005Y-5.0
X3.105Y-4.1
X3.105Y-5.0
X3.205Y-4.1
X3.205Y-5.0
X3.305Y-4.1
X3.305Y-5.0
X3.405Y-4.1
X3.405Y-5.0
X3.505Y-4.1
X3.505Y-5.0
X3.605Y-4.1
X3.605Y-5.0
X3.705Y-4.1
X3.705Y-5.0
X3.805Y-4.1
X3.805Y-5.0
X3.905Y-4.1
X3.905Y-5.0
X4.005Y-4.1
X4.005Y-5.0
X4.105Y-4.1
X4.105Y-5.0
X4.205Y-4.1
X4.205Y-5.0
X4.305Y-4.1
X4.305Y-5.0
X4.405Y-4.1
X4.405Y-5.0
X4.505Y-4.1
X4.505Y-5.0
X4.605Y-4.1
X4.605Y-5.0
X4.705Y-4.1
X4.705Y-5.0
X4.805Y-4.1
X4.805Y-5.0
X4.905Y-4.1
X4.905Y-5.0
X5.005Y-4.1
X5.005Y-5.0
X1.77Y-2.395
X1.77Y-2.995
X1.87Y-2.395
X1.87Y-2.995
X1.97Y-2.395
X1.97Y-2.995
X2.07Y-2.395
X2.07Y-2.995
X2.17Y-2.395
X2.17Y-2.995
X2.27Y-2.395
X2.27Y-2.995
X2.37Y-2.395
X2.37Y-2.995
X2.47Y-2.395
X2.47Y-2.995
X2.57Y-2.395
X2.57Y-2.995
X2.67Y-2.395
X2.67Y-2.995
X2.77Y-2.395
X2.77Y-2.995
X2.87Y-2.395
X2.87Y-2.995
X2.97Y-2.395
X2.97Y-2.995
X3.07Y-2.395
X3.07Y-2.995
X3.17Y-2.395
X3.17Y-2.995
X3.27Y-2.395
X3.27Y-2.995
X3.37Y-2.395
X3.37Y-2.995
X3.47Y-2.395
X3.47Y-2.995
X3.57Y-2.395
X3.57Y-2.995
X3.67Y-2.395
X3.67Y-2.995
T4
X6.86Y-4.99
X6.86Y-5.29
X7.46Y-4.99
X7.46Y-5.29
X7.63Y-1.05
X7.63Y-1.15
X7.63Y-1.25
X7.63Y-1.35
X7.63Y-1.45
X7.73Y-1.05
X7.73Y-1.15
X7.73Y-1.25
X7.73Y-1.35
X7.73Y-1.45
X6.115Y-4.99
X6.115Y-5.29
X6.415Y-4.99
X6.415Y-5.29
X1.07Y-1.31
X1.07Y-1.41
X1.07Y-1.51
X1.07Y-1.61
X1.07Y-1.71
X1.07Y-1.81
X1.07Y-1.91
X1.07Y-2.01
X1.07Y-2.11
X1.07Y-2.21
X1.07Y-2.31
X1.07Y-2.41
X1.07Y-2.51
X1.07Y-2.61
X1.07Y-2.71
X1.07Y-2.81
X1.07Y-2.91
X1.07Y-3.01
X1.07Y-3.11
X1.07Y-3.21
X1.17Y-1.31
X1.17Y-1.41
X1.17Y-1.51
X1.17Y-1.61
X1.17Y-1.71
X1.17Y-1.81
X1.17Y-1.91
X1.17Y-2.01
X1.17Y-2.11
X1.17Y-2.21
X1.17Y-2.31
X1.17Y-2.41
X1.17Y-2.51
X1.17Y-2.61
X1.17Y-2.71
X1.17Y-2.81
X1.17Y-2.91
X1.17Y-3.01
X1.17Y-3.11
X1.17Y-3.21
T5
X1.77Y-2.145
X1.87Y-2.145
X1.97Y-2.145
T6
X0.71Y-4.5
X0.71Y-4.6772
X0.9659Y-4.5
X0.9659Y-4.6772
T4
G00X0.9638Y-5.1606
M15
G01X0.9638Y-5.2394
M16
G05
G00X1.0425Y-5.385
M15
G01X1.1213Y-5.385
M16
G05
G00X1.2Y-5.1606
M15
G01X1.2Y-5.2394
M16
G05
T0
M30
