%TF.GenerationSoftware,KiCad,Pcbnew,5.1.6-c6e7f7d~86~ubuntu18.04.1*%
%TF.CreationDate,2020-12-12T09:12:09+08:00*%
%TF.ProjectId,68k_dev,36386b5f-6465-4762-9e6b-696361645f70,rev?*%
%TF.SameCoordinates,Original*%
%TF.FileFunction,Soldermask,Top*%
%TF.FilePolarity,Negative*%
%FSLAX46Y46*%
G04 Gerber Fmt 4.6, Leading zero omitted, Abs format (unit mm)*
G04 Created by KiCad (PCBNEW 5.1.6-c6e7f7d~86~ubuntu18.04.1) date 2020-12-12 09:12:09*
%MOMM*%
%LPD*%
G01*
G04 APERTURE LIST*
%TA.AperFunction,Profile*%
%ADD10C,0.050000*%
%TD*%
%ADD11O,1.700000X2.500000*%
%ADD12R,1.700000X2.500000*%
%ADD13C,2.200000*%
%ADD14R,1.880000X7.720000*%
%ADD15R,3.600000X3.600000*%
%ADD16C,1.500000*%
%ADD17R,0.600000X0.900000*%
%ADD18R,0.500000X0.900000*%
%ADD19R,2.100000X1.600000*%
%ADD20R,2.100000X3.900000*%
%ADD21R,1.700000X1.700000*%
%ADD22O,1.700000X1.700000*%
%ADD23R,2.600000X2.600000*%
%ADD24C,2.600000*%
%ADD25R,1.600000X1.150000*%
%ADD26C,1.522400*%
%ADD27R,1.522400X1.522400*%
%ADD28R,1.800000X1.800000*%
%ADD29O,1.800000X1.800000*%
%ADD30R,2.300000X2.300000*%
%ADD31C,2.300000*%
G04 APERTURE END LIST*
D10*
X34290000Y-149860000D02*
X16510000Y-149860000D01*
X34290000Y-158750000D02*
X34290000Y-149860000D01*
X82550000Y-158750000D02*
X34290000Y-158750000D01*
X82550000Y-151130000D02*
X82550000Y-158750000D01*
X87630000Y-151130000D02*
X82550000Y-151130000D01*
X87630000Y-158750000D02*
X87630000Y-151130000D01*
X168910000Y-158750000D02*
X87630000Y-158750000D01*
X168910000Y-149860000D02*
X168910000Y-158750000D01*
X170180000Y-149860000D02*
X168910000Y-149860000D01*
X16510000Y-13970000D02*
X16510000Y-149860000D01*
X203200000Y-13970000D02*
X16510000Y-13970000D01*
X203200000Y-149860000D02*
X203200000Y-13970000D01*
X170180000Y-149860000D02*
X203200000Y-149860000D01*
%TO.C,C23*%
G36*
G01*
X24657000Y-21055250D02*
X24657000Y-20092750D01*
G75*
G02*
X24925750Y-19824000I268750J0D01*
G01*
X25463250Y-19824000D01*
G75*
G02*
X25732000Y-20092750I0J-268750D01*
G01*
X25732000Y-21055250D01*
G75*
G02*
X25463250Y-21324000I-268750J0D01*
G01*
X24925750Y-21324000D01*
G75*
G02*
X24657000Y-21055250I0J268750D01*
G01*
G37*
G36*
G01*
X22782000Y-21055250D02*
X22782000Y-20092750D01*
G75*
G02*
X23050750Y-19824000I268750J0D01*
G01*
X23588250Y-19824000D01*
G75*
G02*
X23857000Y-20092750I0J-268750D01*
G01*
X23857000Y-21055250D01*
G75*
G02*
X23588250Y-21324000I-268750J0D01*
G01*
X23050750Y-21324000D01*
G75*
G02*
X22782000Y-21055250I0J268750D01*
G01*
G37*
%TD*%
%TO.C,C11*%
G36*
G01*
X40659000Y-20928250D02*
X40659000Y-19965750D01*
G75*
G02*
X40927750Y-19697000I268750J0D01*
G01*
X41465250Y-19697000D01*
G75*
G02*
X41734000Y-19965750I0J-268750D01*
G01*
X41734000Y-20928250D01*
G75*
G02*
X41465250Y-21197000I-268750J0D01*
G01*
X40927750Y-21197000D01*
G75*
G02*
X40659000Y-20928250I0J268750D01*
G01*
G37*
G36*
G01*
X38784000Y-20928250D02*
X38784000Y-19965750D01*
G75*
G02*
X39052750Y-19697000I268750J0D01*
G01*
X39590250Y-19697000D01*
G75*
G02*
X39859000Y-19965750I0J-268750D01*
G01*
X39859000Y-20928250D01*
G75*
G02*
X39590250Y-21197000I-268750J0D01*
G01*
X39052750Y-21197000D01*
G75*
G02*
X38784000Y-20928250I0J268750D01*
G01*
G37*
%TD*%
%TO.C,U15*%
G36*
G01*
X34460000Y-20187000D02*
X34460000Y-19937000D01*
G75*
G02*
X34585000Y-19812000I125000J0D01*
G01*
X35910000Y-19812000D01*
G75*
G02*
X36035000Y-19937000I0J-125000D01*
G01*
X36035000Y-20187000D01*
G75*
G02*
X35910000Y-20312000I-125000J0D01*
G01*
X34585000Y-20312000D01*
G75*
G02*
X34460000Y-20187000I0J125000D01*
G01*
G37*
G36*
G01*
X34460000Y-20837000D02*
X34460000Y-20587000D01*
G75*
G02*
X34585000Y-20462000I125000J0D01*
G01*
X35910000Y-20462000D01*
G75*
G02*
X36035000Y-20587000I0J-125000D01*
G01*
X36035000Y-20837000D01*
G75*
G02*
X35910000Y-20962000I-125000J0D01*
G01*
X34585000Y-20962000D01*
G75*
G02*
X34460000Y-20837000I0J125000D01*
G01*
G37*
G36*
G01*
X34460000Y-21487000D02*
X34460000Y-21237000D01*
G75*
G02*
X34585000Y-21112000I125000J0D01*
G01*
X35910000Y-21112000D01*
G75*
G02*
X36035000Y-21237000I0J-125000D01*
G01*
X36035000Y-21487000D01*
G75*
G02*
X35910000Y-21612000I-125000J0D01*
G01*
X34585000Y-21612000D01*
G75*
G02*
X34460000Y-21487000I0J125000D01*
G01*
G37*
G36*
G01*
X34460000Y-22137000D02*
X34460000Y-21887000D01*
G75*
G02*
X34585000Y-21762000I125000J0D01*
G01*
X35910000Y-21762000D01*
G75*
G02*
X36035000Y-21887000I0J-125000D01*
G01*
X36035000Y-22137000D01*
G75*
G02*
X35910000Y-22262000I-125000J0D01*
G01*
X34585000Y-22262000D01*
G75*
G02*
X34460000Y-22137000I0J125000D01*
G01*
G37*
G36*
G01*
X34460000Y-22787000D02*
X34460000Y-22537000D01*
G75*
G02*
X34585000Y-22412000I125000J0D01*
G01*
X35910000Y-22412000D01*
G75*
G02*
X36035000Y-22537000I0J-125000D01*
G01*
X36035000Y-22787000D01*
G75*
G02*
X35910000Y-22912000I-125000J0D01*
G01*
X34585000Y-22912000D01*
G75*
G02*
X34460000Y-22787000I0J125000D01*
G01*
G37*
G36*
G01*
X34460000Y-23437000D02*
X34460000Y-23187000D01*
G75*
G02*
X34585000Y-23062000I125000J0D01*
G01*
X35910000Y-23062000D01*
G75*
G02*
X36035000Y-23187000I0J-125000D01*
G01*
X36035000Y-23437000D01*
G75*
G02*
X35910000Y-23562000I-125000J0D01*
G01*
X34585000Y-23562000D01*
G75*
G02*
X34460000Y-23437000I0J125000D01*
G01*
G37*
G36*
G01*
X34460000Y-24087000D02*
X34460000Y-23837000D01*
G75*
G02*
X34585000Y-23712000I125000J0D01*
G01*
X35910000Y-23712000D01*
G75*
G02*
X36035000Y-23837000I0J-125000D01*
G01*
X36035000Y-24087000D01*
G75*
G02*
X35910000Y-24212000I-125000J0D01*
G01*
X34585000Y-24212000D01*
G75*
G02*
X34460000Y-24087000I0J125000D01*
G01*
G37*
G36*
G01*
X34460000Y-24737000D02*
X34460000Y-24487000D01*
G75*
G02*
X34585000Y-24362000I125000J0D01*
G01*
X35910000Y-24362000D01*
G75*
G02*
X36035000Y-24487000I0J-125000D01*
G01*
X36035000Y-24737000D01*
G75*
G02*
X35910000Y-24862000I-125000J0D01*
G01*
X34585000Y-24862000D01*
G75*
G02*
X34460000Y-24737000I0J125000D01*
G01*
G37*
G36*
G01*
X34460000Y-25387000D02*
X34460000Y-25137000D01*
G75*
G02*
X34585000Y-25012000I125000J0D01*
G01*
X35910000Y-25012000D01*
G75*
G02*
X36035000Y-25137000I0J-125000D01*
G01*
X36035000Y-25387000D01*
G75*
G02*
X35910000Y-25512000I-125000J0D01*
G01*
X34585000Y-25512000D01*
G75*
G02*
X34460000Y-25387000I0J125000D01*
G01*
G37*
G36*
G01*
X34460000Y-26037000D02*
X34460000Y-25787000D01*
G75*
G02*
X34585000Y-25662000I125000J0D01*
G01*
X35910000Y-25662000D01*
G75*
G02*
X36035000Y-25787000I0J-125000D01*
G01*
X36035000Y-26037000D01*
G75*
G02*
X35910000Y-26162000I-125000J0D01*
G01*
X34585000Y-26162000D01*
G75*
G02*
X34460000Y-26037000I0J125000D01*
G01*
G37*
G36*
G01*
X28735000Y-26037000D02*
X28735000Y-25787000D01*
G75*
G02*
X28860000Y-25662000I125000J0D01*
G01*
X30185000Y-25662000D01*
G75*
G02*
X30310000Y-25787000I0J-125000D01*
G01*
X30310000Y-26037000D01*
G75*
G02*
X30185000Y-26162000I-125000J0D01*
G01*
X28860000Y-26162000D01*
G75*
G02*
X28735000Y-26037000I0J125000D01*
G01*
G37*
G36*
G01*
X28735000Y-25387000D02*
X28735000Y-25137000D01*
G75*
G02*
X28860000Y-25012000I125000J0D01*
G01*
X30185000Y-25012000D01*
G75*
G02*
X30310000Y-25137000I0J-125000D01*
G01*
X30310000Y-25387000D01*
G75*
G02*
X30185000Y-25512000I-125000J0D01*
G01*
X28860000Y-25512000D01*
G75*
G02*
X28735000Y-25387000I0J125000D01*
G01*
G37*
G36*
G01*
X28735000Y-24737000D02*
X28735000Y-24487000D01*
G75*
G02*
X28860000Y-24362000I125000J0D01*
G01*
X30185000Y-24362000D01*
G75*
G02*
X30310000Y-24487000I0J-125000D01*
G01*
X30310000Y-24737000D01*
G75*
G02*
X30185000Y-24862000I-125000J0D01*
G01*
X28860000Y-24862000D01*
G75*
G02*
X28735000Y-24737000I0J125000D01*
G01*
G37*
G36*
G01*
X28735000Y-24087000D02*
X28735000Y-23837000D01*
G75*
G02*
X28860000Y-23712000I125000J0D01*
G01*
X30185000Y-23712000D01*
G75*
G02*
X30310000Y-23837000I0J-125000D01*
G01*
X30310000Y-24087000D01*
G75*
G02*
X30185000Y-24212000I-125000J0D01*
G01*
X28860000Y-24212000D01*
G75*
G02*
X28735000Y-24087000I0J125000D01*
G01*
G37*
G36*
G01*
X28735000Y-23437000D02*
X28735000Y-23187000D01*
G75*
G02*
X28860000Y-23062000I125000J0D01*
G01*
X30185000Y-23062000D01*
G75*
G02*
X30310000Y-23187000I0J-125000D01*
G01*
X30310000Y-23437000D01*
G75*
G02*
X30185000Y-23562000I-125000J0D01*
G01*
X28860000Y-23562000D01*
G75*
G02*
X28735000Y-23437000I0J125000D01*
G01*
G37*
G36*
G01*
X28735000Y-22787000D02*
X28735000Y-22537000D01*
G75*
G02*
X28860000Y-22412000I125000J0D01*
G01*
X30185000Y-22412000D01*
G75*
G02*
X30310000Y-22537000I0J-125000D01*
G01*
X30310000Y-22787000D01*
G75*
G02*
X30185000Y-22912000I-125000J0D01*
G01*
X28860000Y-22912000D01*
G75*
G02*
X28735000Y-22787000I0J125000D01*
G01*
G37*
G36*
G01*
X28735000Y-22137000D02*
X28735000Y-21887000D01*
G75*
G02*
X28860000Y-21762000I125000J0D01*
G01*
X30185000Y-21762000D01*
G75*
G02*
X30310000Y-21887000I0J-125000D01*
G01*
X30310000Y-22137000D01*
G75*
G02*
X30185000Y-22262000I-125000J0D01*
G01*
X28860000Y-22262000D01*
G75*
G02*
X28735000Y-22137000I0J125000D01*
G01*
G37*
G36*
G01*
X28735000Y-21487000D02*
X28735000Y-21237000D01*
G75*
G02*
X28860000Y-21112000I125000J0D01*
G01*
X30185000Y-21112000D01*
G75*
G02*
X30310000Y-21237000I0J-125000D01*
G01*
X30310000Y-21487000D01*
G75*
G02*
X30185000Y-21612000I-125000J0D01*
G01*
X28860000Y-21612000D01*
G75*
G02*
X28735000Y-21487000I0J125000D01*
G01*
G37*
G36*
G01*
X28735000Y-20837000D02*
X28735000Y-20587000D01*
G75*
G02*
X28860000Y-20462000I125000J0D01*
G01*
X30185000Y-20462000D01*
G75*
G02*
X30310000Y-20587000I0J-125000D01*
G01*
X30310000Y-20837000D01*
G75*
G02*
X30185000Y-20962000I-125000J0D01*
G01*
X28860000Y-20962000D01*
G75*
G02*
X28735000Y-20837000I0J125000D01*
G01*
G37*
G36*
G01*
X28735000Y-20187000D02*
X28735000Y-19937000D01*
G75*
G02*
X28860000Y-19812000I125000J0D01*
G01*
X30185000Y-19812000D01*
G75*
G02*
X30310000Y-19937000I0J-125000D01*
G01*
X30310000Y-20187000D01*
G75*
G02*
X30185000Y-20312000I-125000J0D01*
G01*
X28860000Y-20312000D01*
G75*
G02*
X28735000Y-20187000I0J125000D01*
G01*
G37*
%TD*%
%TO.C,U13*%
G36*
G01*
X175943000Y-103159000D02*
X175593000Y-103159000D01*
G75*
G02*
X175418000Y-102984000I0J175000D01*
G01*
X175418000Y-100684000D01*
G75*
G02*
X175593000Y-100509000I175000J0D01*
G01*
X175943000Y-100509000D01*
G75*
G02*
X176118000Y-100684000I0J-175000D01*
G01*
X176118000Y-102984000D01*
G75*
G02*
X175943000Y-103159000I-175000J0D01*
G01*
G37*
G36*
G01*
X177213000Y-103159000D02*
X176863000Y-103159000D01*
G75*
G02*
X176688000Y-102984000I0J175000D01*
G01*
X176688000Y-100684000D01*
G75*
G02*
X176863000Y-100509000I175000J0D01*
G01*
X177213000Y-100509000D01*
G75*
G02*
X177388000Y-100684000I0J-175000D01*
G01*
X177388000Y-102984000D01*
G75*
G02*
X177213000Y-103159000I-175000J0D01*
G01*
G37*
G36*
G01*
X178483000Y-103159000D02*
X178133000Y-103159000D01*
G75*
G02*
X177958000Y-102984000I0J175000D01*
G01*
X177958000Y-100684000D01*
G75*
G02*
X178133000Y-100509000I175000J0D01*
G01*
X178483000Y-100509000D01*
G75*
G02*
X178658000Y-100684000I0J-175000D01*
G01*
X178658000Y-102984000D01*
G75*
G02*
X178483000Y-103159000I-175000J0D01*
G01*
G37*
G36*
G01*
X179753000Y-103159000D02*
X179403000Y-103159000D01*
G75*
G02*
X179228000Y-102984000I0J175000D01*
G01*
X179228000Y-100684000D01*
G75*
G02*
X179403000Y-100509000I175000J0D01*
G01*
X179753000Y-100509000D01*
G75*
G02*
X179928000Y-100684000I0J-175000D01*
G01*
X179928000Y-102984000D01*
G75*
G02*
X179753000Y-103159000I-175000J0D01*
G01*
G37*
G36*
G01*
X181023000Y-103159000D02*
X180673000Y-103159000D01*
G75*
G02*
X180498000Y-102984000I0J175000D01*
G01*
X180498000Y-100684000D01*
G75*
G02*
X180673000Y-100509000I175000J0D01*
G01*
X181023000Y-100509000D01*
G75*
G02*
X181198000Y-100684000I0J-175000D01*
G01*
X181198000Y-102984000D01*
G75*
G02*
X181023000Y-103159000I-175000J0D01*
G01*
G37*
G36*
G01*
X182293000Y-103159000D02*
X181943000Y-103159000D01*
G75*
G02*
X181768000Y-102984000I0J175000D01*
G01*
X181768000Y-100684000D01*
G75*
G02*
X181943000Y-100509000I175000J0D01*
G01*
X182293000Y-100509000D01*
G75*
G02*
X182468000Y-100684000I0J-175000D01*
G01*
X182468000Y-102984000D01*
G75*
G02*
X182293000Y-103159000I-175000J0D01*
G01*
G37*
G36*
G01*
X183563000Y-103159000D02*
X183213000Y-103159000D01*
G75*
G02*
X183038000Y-102984000I0J175000D01*
G01*
X183038000Y-100684000D01*
G75*
G02*
X183213000Y-100509000I175000J0D01*
G01*
X183563000Y-100509000D01*
G75*
G02*
X183738000Y-100684000I0J-175000D01*
G01*
X183738000Y-102984000D01*
G75*
G02*
X183563000Y-103159000I-175000J0D01*
G01*
G37*
G36*
G01*
X184833000Y-103159000D02*
X184483000Y-103159000D01*
G75*
G02*
X184308000Y-102984000I0J175000D01*
G01*
X184308000Y-100684000D01*
G75*
G02*
X184483000Y-100509000I175000J0D01*
G01*
X184833000Y-100509000D01*
G75*
G02*
X185008000Y-100684000I0J-175000D01*
G01*
X185008000Y-102984000D01*
G75*
G02*
X184833000Y-103159000I-175000J0D01*
G01*
G37*
G36*
G01*
X186103000Y-103159000D02*
X185753000Y-103159000D01*
G75*
G02*
X185578000Y-102984000I0J175000D01*
G01*
X185578000Y-100684000D01*
G75*
G02*
X185753000Y-100509000I175000J0D01*
G01*
X186103000Y-100509000D01*
G75*
G02*
X186278000Y-100684000I0J-175000D01*
G01*
X186278000Y-102984000D01*
G75*
G02*
X186103000Y-103159000I-175000J0D01*
G01*
G37*
G36*
G01*
X187373000Y-103159000D02*
X187023000Y-103159000D01*
G75*
G02*
X186848000Y-102984000I0J175000D01*
G01*
X186848000Y-100684000D01*
G75*
G02*
X187023000Y-100509000I175000J0D01*
G01*
X187373000Y-100509000D01*
G75*
G02*
X187548000Y-100684000I0J-175000D01*
G01*
X187548000Y-102984000D01*
G75*
G02*
X187373000Y-103159000I-175000J0D01*
G01*
G37*
G36*
G01*
X188643000Y-103159000D02*
X188293000Y-103159000D01*
G75*
G02*
X188118000Y-102984000I0J175000D01*
G01*
X188118000Y-100684000D01*
G75*
G02*
X188293000Y-100509000I175000J0D01*
G01*
X188643000Y-100509000D01*
G75*
G02*
X188818000Y-100684000I0J-175000D01*
G01*
X188818000Y-102984000D01*
G75*
G02*
X188643000Y-103159000I-175000J0D01*
G01*
G37*
G36*
G01*
X189913000Y-103159000D02*
X189563000Y-103159000D01*
G75*
G02*
X189388000Y-102984000I0J175000D01*
G01*
X189388000Y-100684000D01*
G75*
G02*
X189563000Y-100509000I175000J0D01*
G01*
X189913000Y-100509000D01*
G75*
G02*
X190088000Y-100684000I0J-175000D01*
G01*
X190088000Y-102984000D01*
G75*
G02*
X189913000Y-103159000I-175000J0D01*
G01*
G37*
G36*
G01*
X191183000Y-103159000D02*
X190833000Y-103159000D01*
G75*
G02*
X190658000Y-102984000I0J175000D01*
G01*
X190658000Y-100684000D01*
G75*
G02*
X190833000Y-100509000I175000J0D01*
G01*
X191183000Y-100509000D01*
G75*
G02*
X191358000Y-100684000I0J-175000D01*
G01*
X191358000Y-102984000D01*
G75*
G02*
X191183000Y-103159000I-175000J0D01*
G01*
G37*
G36*
G01*
X192453000Y-103159000D02*
X192103000Y-103159000D01*
G75*
G02*
X191928000Y-102984000I0J175000D01*
G01*
X191928000Y-100684000D01*
G75*
G02*
X192103000Y-100509000I175000J0D01*
G01*
X192453000Y-100509000D01*
G75*
G02*
X192628000Y-100684000I0J-175000D01*
G01*
X192628000Y-102984000D01*
G75*
G02*
X192453000Y-103159000I-175000J0D01*
G01*
G37*
G36*
G01*
X193723000Y-103159000D02*
X193373000Y-103159000D01*
G75*
G02*
X193198000Y-102984000I0J175000D01*
G01*
X193198000Y-100684000D01*
G75*
G02*
X193373000Y-100509000I175000J0D01*
G01*
X193723000Y-100509000D01*
G75*
G02*
X193898000Y-100684000I0J-175000D01*
G01*
X193898000Y-102984000D01*
G75*
G02*
X193723000Y-103159000I-175000J0D01*
G01*
G37*
G36*
G01*
X194993000Y-103159000D02*
X194643000Y-103159000D01*
G75*
G02*
X194468000Y-102984000I0J175000D01*
G01*
X194468000Y-100684000D01*
G75*
G02*
X194643000Y-100509000I175000J0D01*
G01*
X194993000Y-100509000D01*
G75*
G02*
X195168000Y-100684000I0J-175000D01*
G01*
X195168000Y-102984000D01*
G75*
G02*
X194993000Y-103159000I-175000J0D01*
G01*
G37*
G36*
G01*
X196263000Y-103159000D02*
X195913000Y-103159000D01*
G75*
G02*
X195738000Y-102984000I0J175000D01*
G01*
X195738000Y-100684000D01*
G75*
G02*
X195913000Y-100509000I175000J0D01*
G01*
X196263000Y-100509000D01*
G75*
G02*
X196438000Y-100684000I0J-175000D01*
G01*
X196438000Y-102984000D01*
G75*
G02*
X196263000Y-103159000I-175000J0D01*
G01*
G37*
G36*
G01*
X197533000Y-103159000D02*
X197183000Y-103159000D01*
G75*
G02*
X197008000Y-102984000I0J175000D01*
G01*
X197008000Y-100684000D01*
G75*
G02*
X197183000Y-100509000I175000J0D01*
G01*
X197533000Y-100509000D01*
G75*
G02*
X197708000Y-100684000I0J-175000D01*
G01*
X197708000Y-102984000D01*
G75*
G02*
X197533000Y-103159000I-175000J0D01*
G01*
G37*
G36*
G01*
X197533000Y-113359000D02*
X197183000Y-113359000D01*
G75*
G02*
X197008000Y-113184000I0J175000D01*
G01*
X197008000Y-110884000D01*
G75*
G02*
X197183000Y-110709000I175000J0D01*
G01*
X197533000Y-110709000D01*
G75*
G02*
X197708000Y-110884000I0J-175000D01*
G01*
X197708000Y-113184000D01*
G75*
G02*
X197533000Y-113359000I-175000J0D01*
G01*
G37*
G36*
G01*
X196263000Y-113359000D02*
X195913000Y-113359000D01*
G75*
G02*
X195738000Y-113184000I0J175000D01*
G01*
X195738000Y-110884000D01*
G75*
G02*
X195913000Y-110709000I175000J0D01*
G01*
X196263000Y-110709000D01*
G75*
G02*
X196438000Y-110884000I0J-175000D01*
G01*
X196438000Y-113184000D01*
G75*
G02*
X196263000Y-113359000I-175000J0D01*
G01*
G37*
G36*
G01*
X194993000Y-113359000D02*
X194643000Y-113359000D01*
G75*
G02*
X194468000Y-113184000I0J175000D01*
G01*
X194468000Y-110884000D01*
G75*
G02*
X194643000Y-110709000I175000J0D01*
G01*
X194993000Y-110709000D01*
G75*
G02*
X195168000Y-110884000I0J-175000D01*
G01*
X195168000Y-113184000D01*
G75*
G02*
X194993000Y-113359000I-175000J0D01*
G01*
G37*
G36*
G01*
X193723000Y-113359000D02*
X193373000Y-113359000D01*
G75*
G02*
X193198000Y-113184000I0J175000D01*
G01*
X193198000Y-110884000D01*
G75*
G02*
X193373000Y-110709000I175000J0D01*
G01*
X193723000Y-110709000D01*
G75*
G02*
X193898000Y-110884000I0J-175000D01*
G01*
X193898000Y-113184000D01*
G75*
G02*
X193723000Y-113359000I-175000J0D01*
G01*
G37*
G36*
G01*
X192453000Y-113359000D02*
X192103000Y-113359000D01*
G75*
G02*
X191928000Y-113184000I0J175000D01*
G01*
X191928000Y-110884000D01*
G75*
G02*
X192103000Y-110709000I175000J0D01*
G01*
X192453000Y-110709000D01*
G75*
G02*
X192628000Y-110884000I0J-175000D01*
G01*
X192628000Y-113184000D01*
G75*
G02*
X192453000Y-113359000I-175000J0D01*
G01*
G37*
G36*
G01*
X191183000Y-113359000D02*
X190833000Y-113359000D01*
G75*
G02*
X190658000Y-113184000I0J175000D01*
G01*
X190658000Y-110884000D01*
G75*
G02*
X190833000Y-110709000I175000J0D01*
G01*
X191183000Y-110709000D01*
G75*
G02*
X191358000Y-110884000I0J-175000D01*
G01*
X191358000Y-113184000D01*
G75*
G02*
X191183000Y-113359000I-175000J0D01*
G01*
G37*
G36*
G01*
X189913000Y-113359000D02*
X189563000Y-113359000D01*
G75*
G02*
X189388000Y-113184000I0J175000D01*
G01*
X189388000Y-110884000D01*
G75*
G02*
X189563000Y-110709000I175000J0D01*
G01*
X189913000Y-110709000D01*
G75*
G02*
X190088000Y-110884000I0J-175000D01*
G01*
X190088000Y-113184000D01*
G75*
G02*
X189913000Y-113359000I-175000J0D01*
G01*
G37*
G36*
G01*
X188643000Y-113359000D02*
X188293000Y-113359000D01*
G75*
G02*
X188118000Y-113184000I0J175000D01*
G01*
X188118000Y-110884000D01*
G75*
G02*
X188293000Y-110709000I175000J0D01*
G01*
X188643000Y-110709000D01*
G75*
G02*
X188818000Y-110884000I0J-175000D01*
G01*
X188818000Y-113184000D01*
G75*
G02*
X188643000Y-113359000I-175000J0D01*
G01*
G37*
G36*
G01*
X187373000Y-113359000D02*
X187023000Y-113359000D01*
G75*
G02*
X186848000Y-113184000I0J175000D01*
G01*
X186848000Y-110884000D01*
G75*
G02*
X187023000Y-110709000I175000J0D01*
G01*
X187373000Y-110709000D01*
G75*
G02*
X187548000Y-110884000I0J-175000D01*
G01*
X187548000Y-113184000D01*
G75*
G02*
X187373000Y-113359000I-175000J0D01*
G01*
G37*
G36*
G01*
X186103000Y-113359000D02*
X185753000Y-113359000D01*
G75*
G02*
X185578000Y-113184000I0J175000D01*
G01*
X185578000Y-110884000D01*
G75*
G02*
X185753000Y-110709000I175000J0D01*
G01*
X186103000Y-110709000D01*
G75*
G02*
X186278000Y-110884000I0J-175000D01*
G01*
X186278000Y-113184000D01*
G75*
G02*
X186103000Y-113359000I-175000J0D01*
G01*
G37*
G36*
G01*
X184833000Y-113359000D02*
X184483000Y-113359000D01*
G75*
G02*
X184308000Y-113184000I0J175000D01*
G01*
X184308000Y-110884000D01*
G75*
G02*
X184483000Y-110709000I175000J0D01*
G01*
X184833000Y-110709000D01*
G75*
G02*
X185008000Y-110884000I0J-175000D01*
G01*
X185008000Y-113184000D01*
G75*
G02*
X184833000Y-113359000I-175000J0D01*
G01*
G37*
G36*
G01*
X183563000Y-113359000D02*
X183213000Y-113359000D01*
G75*
G02*
X183038000Y-113184000I0J175000D01*
G01*
X183038000Y-110884000D01*
G75*
G02*
X183213000Y-110709000I175000J0D01*
G01*
X183563000Y-110709000D01*
G75*
G02*
X183738000Y-110884000I0J-175000D01*
G01*
X183738000Y-113184000D01*
G75*
G02*
X183563000Y-113359000I-175000J0D01*
G01*
G37*
G36*
G01*
X182293000Y-113359000D02*
X181943000Y-113359000D01*
G75*
G02*
X181768000Y-113184000I0J175000D01*
G01*
X181768000Y-110884000D01*
G75*
G02*
X181943000Y-110709000I175000J0D01*
G01*
X182293000Y-110709000D01*
G75*
G02*
X182468000Y-110884000I0J-175000D01*
G01*
X182468000Y-113184000D01*
G75*
G02*
X182293000Y-113359000I-175000J0D01*
G01*
G37*
G36*
G01*
X181023000Y-113359000D02*
X180673000Y-113359000D01*
G75*
G02*
X180498000Y-113184000I0J175000D01*
G01*
X180498000Y-110884000D01*
G75*
G02*
X180673000Y-110709000I175000J0D01*
G01*
X181023000Y-110709000D01*
G75*
G02*
X181198000Y-110884000I0J-175000D01*
G01*
X181198000Y-113184000D01*
G75*
G02*
X181023000Y-113359000I-175000J0D01*
G01*
G37*
G36*
G01*
X179753000Y-113359000D02*
X179403000Y-113359000D01*
G75*
G02*
X179228000Y-113184000I0J175000D01*
G01*
X179228000Y-110884000D01*
G75*
G02*
X179403000Y-110709000I175000J0D01*
G01*
X179753000Y-110709000D01*
G75*
G02*
X179928000Y-110884000I0J-175000D01*
G01*
X179928000Y-113184000D01*
G75*
G02*
X179753000Y-113359000I-175000J0D01*
G01*
G37*
G36*
G01*
X178483000Y-113359000D02*
X178133000Y-113359000D01*
G75*
G02*
X177958000Y-113184000I0J175000D01*
G01*
X177958000Y-110884000D01*
G75*
G02*
X178133000Y-110709000I175000J0D01*
G01*
X178483000Y-110709000D01*
G75*
G02*
X178658000Y-110884000I0J-175000D01*
G01*
X178658000Y-113184000D01*
G75*
G02*
X178483000Y-113359000I-175000J0D01*
G01*
G37*
G36*
G01*
X177213000Y-113359000D02*
X176863000Y-113359000D01*
G75*
G02*
X176688000Y-113184000I0J175000D01*
G01*
X176688000Y-110884000D01*
G75*
G02*
X176863000Y-110709000I175000J0D01*
G01*
X177213000Y-110709000D01*
G75*
G02*
X177388000Y-110884000I0J-175000D01*
G01*
X177388000Y-113184000D01*
G75*
G02*
X177213000Y-113359000I-175000J0D01*
G01*
G37*
G36*
G01*
X175943000Y-113359000D02*
X175593000Y-113359000D01*
G75*
G02*
X175418000Y-113184000I0J175000D01*
G01*
X175418000Y-110884000D01*
G75*
G02*
X175593000Y-110709000I175000J0D01*
G01*
X175943000Y-110709000D01*
G75*
G02*
X176118000Y-110884000I0J-175000D01*
G01*
X176118000Y-113184000D01*
G75*
G02*
X175943000Y-113359000I-175000J0D01*
G01*
G37*
%TD*%
%TO.C,U12*%
G36*
G01*
X149273000Y-103159000D02*
X148923000Y-103159000D01*
G75*
G02*
X148748000Y-102984000I0J175000D01*
G01*
X148748000Y-100684000D01*
G75*
G02*
X148923000Y-100509000I175000J0D01*
G01*
X149273000Y-100509000D01*
G75*
G02*
X149448000Y-100684000I0J-175000D01*
G01*
X149448000Y-102984000D01*
G75*
G02*
X149273000Y-103159000I-175000J0D01*
G01*
G37*
G36*
G01*
X150543000Y-103159000D02*
X150193000Y-103159000D01*
G75*
G02*
X150018000Y-102984000I0J175000D01*
G01*
X150018000Y-100684000D01*
G75*
G02*
X150193000Y-100509000I175000J0D01*
G01*
X150543000Y-100509000D01*
G75*
G02*
X150718000Y-100684000I0J-175000D01*
G01*
X150718000Y-102984000D01*
G75*
G02*
X150543000Y-103159000I-175000J0D01*
G01*
G37*
G36*
G01*
X151813000Y-103159000D02*
X151463000Y-103159000D01*
G75*
G02*
X151288000Y-102984000I0J175000D01*
G01*
X151288000Y-100684000D01*
G75*
G02*
X151463000Y-100509000I175000J0D01*
G01*
X151813000Y-100509000D01*
G75*
G02*
X151988000Y-100684000I0J-175000D01*
G01*
X151988000Y-102984000D01*
G75*
G02*
X151813000Y-103159000I-175000J0D01*
G01*
G37*
G36*
G01*
X153083000Y-103159000D02*
X152733000Y-103159000D01*
G75*
G02*
X152558000Y-102984000I0J175000D01*
G01*
X152558000Y-100684000D01*
G75*
G02*
X152733000Y-100509000I175000J0D01*
G01*
X153083000Y-100509000D01*
G75*
G02*
X153258000Y-100684000I0J-175000D01*
G01*
X153258000Y-102984000D01*
G75*
G02*
X153083000Y-103159000I-175000J0D01*
G01*
G37*
G36*
G01*
X154353000Y-103159000D02*
X154003000Y-103159000D01*
G75*
G02*
X153828000Y-102984000I0J175000D01*
G01*
X153828000Y-100684000D01*
G75*
G02*
X154003000Y-100509000I175000J0D01*
G01*
X154353000Y-100509000D01*
G75*
G02*
X154528000Y-100684000I0J-175000D01*
G01*
X154528000Y-102984000D01*
G75*
G02*
X154353000Y-103159000I-175000J0D01*
G01*
G37*
G36*
G01*
X155623000Y-103159000D02*
X155273000Y-103159000D01*
G75*
G02*
X155098000Y-102984000I0J175000D01*
G01*
X155098000Y-100684000D01*
G75*
G02*
X155273000Y-100509000I175000J0D01*
G01*
X155623000Y-100509000D01*
G75*
G02*
X155798000Y-100684000I0J-175000D01*
G01*
X155798000Y-102984000D01*
G75*
G02*
X155623000Y-103159000I-175000J0D01*
G01*
G37*
G36*
G01*
X156893000Y-103159000D02*
X156543000Y-103159000D01*
G75*
G02*
X156368000Y-102984000I0J175000D01*
G01*
X156368000Y-100684000D01*
G75*
G02*
X156543000Y-100509000I175000J0D01*
G01*
X156893000Y-100509000D01*
G75*
G02*
X157068000Y-100684000I0J-175000D01*
G01*
X157068000Y-102984000D01*
G75*
G02*
X156893000Y-103159000I-175000J0D01*
G01*
G37*
G36*
G01*
X158163000Y-103159000D02*
X157813000Y-103159000D01*
G75*
G02*
X157638000Y-102984000I0J175000D01*
G01*
X157638000Y-100684000D01*
G75*
G02*
X157813000Y-100509000I175000J0D01*
G01*
X158163000Y-100509000D01*
G75*
G02*
X158338000Y-100684000I0J-175000D01*
G01*
X158338000Y-102984000D01*
G75*
G02*
X158163000Y-103159000I-175000J0D01*
G01*
G37*
G36*
G01*
X159433000Y-103159000D02*
X159083000Y-103159000D01*
G75*
G02*
X158908000Y-102984000I0J175000D01*
G01*
X158908000Y-100684000D01*
G75*
G02*
X159083000Y-100509000I175000J0D01*
G01*
X159433000Y-100509000D01*
G75*
G02*
X159608000Y-100684000I0J-175000D01*
G01*
X159608000Y-102984000D01*
G75*
G02*
X159433000Y-103159000I-175000J0D01*
G01*
G37*
G36*
G01*
X160703000Y-103159000D02*
X160353000Y-103159000D01*
G75*
G02*
X160178000Y-102984000I0J175000D01*
G01*
X160178000Y-100684000D01*
G75*
G02*
X160353000Y-100509000I175000J0D01*
G01*
X160703000Y-100509000D01*
G75*
G02*
X160878000Y-100684000I0J-175000D01*
G01*
X160878000Y-102984000D01*
G75*
G02*
X160703000Y-103159000I-175000J0D01*
G01*
G37*
G36*
G01*
X161973000Y-103159000D02*
X161623000Y-103159000D01*
G75*
G02*
X161448000Y-102984000I0J175000D01*
G01*
X161448000Y-100684000D01*
G75*
G02*
X161623000Y-100509000I175000J0D01*
G01*
X161973000Y-100509000D01*
G75*
G02*
X162148000Y-100684000I0J-175000D01*
G01*
X162148000Y-102984000D01*
G75*
G02*
X161973000Y-103159000I-175000J0D01*
G01*
G37*
G36*
G01*
X163243000Y-103159000D02*
X162893000Y-103159000D01*
G75*
G02*
X162718000Y-102984000I0J175000D01*
G01*
X162718000Y-100684000D01*
G75*
G02*
X162893000Y-100509000I175000J0D01*
G01*
X163243000Y-100509000D01*
G75*
G02*
X163418000Y-100684000I0J-175000D01*
G01*
X163418000Y-102984000D01*
G75*
G02*
X163243000Y-103159000I-175000J0D01*
G01*
G37*
G36*
G01*
X164513000Y-103159000D02*
X164163000Y-103159000D01*
G75*
G02*
X163988000Y-102984000I0J175000D01*
G01*
X163988000Y-100684000D01*
G75*
G02*
X164163000Y-100509000I175000J0D01*
G01*
X164513000Y-100509000D01*
G75*
G02*
X164688000Y-100684000I0J-175000D01*
G01*
X164688000Y-102984000D01*
G75*
G02*
X164513000Y-103159000I-175000J0D01*
G01*
G37*
G36*
G01*
X165783000Y-103159000D02*
X165433000Y-103159000D01*
G75*
G02*
X165258000Y-102984000I0J175000D01*
G01*
X165258000Y-100684000D01*
G75*
G02*
X165433000Y-100509000I175000J0D01*
G01*
X165783000Y-100509000D01*
G75*
G02*
X165958000Y-100684000I0J-175000D01*
G01*
X165958000Y-102984000D01*
G75*
G02*
X165783000Y-103159000I-175000J0D01*
G01*
G37*
G36*
G01*
X167053000Y-103159000D02*
X166703000Y-103159000D01*
G75*
G02*
X166528000Y-102984000I0J175000D01*
G01*
X166528000Y-100684000D01*
G75*
G02*
X166703000Y-100509000I175000J0D01*
G01*
X167053000Y-100509000D01*
G75*
G02*
X167228000Y-100684000I0J-175000D01*
G01*
X167228000Y-102984000D01*
G75*
G02*
X167053000Y-103159000I-175000J0D01*
G01*
G37*
G36*
G01*
X168323000Y-103159000D02*
X167973000Y-103159000D01*
G75*
G02*
X167798000Y-102984000I0J175000D01*
G01*
X167798000Y-100684000D01*
G75*
G02*
X167973000Y-100509000I175000J0D01*
G01*
X168323000Y-100509000D01*
G75*
G02*
X168498000Y-100684000I0J-175000D01*
G01*
X168498000Y-102984000D01*
G75*
G02*
X168323000Y-103159000I-175000J0D01*
G01*
G37*
G36*
G01*
X169593000Y-103159000D02*
X169243000Y-103159000D01*
G75*
G02*
X169068000Y-102984000I0J175000D01*
G01*
X169068000Y-100684000D01*
G75*
G02*
X169243000Y-100509000I175000J0D01*
G01*
X169593000Y-100509000D01*
G75*
G02*
X169768000Y-100684000I0J-175000D01*
G01*
X169768000Y-102984000D01*
G75*
G02*
X169593000Y-103159000I-175000J0D01*
G01*
G37*
G36*
G01*
X170863000Y-103159000D02*
X170513000Y-103159000D01*
G75*
G02*
X170338000Y-102984000I0J175000D01*
G01*
X170338000Y-100684000D01*
G75*
G02*
X170513000Y-100509000I175000J0D01*
G01*
X170863000Y-100509000D01*
G75*
G02*
X171038000Y-100684000I0J-175000D01*
G01*
X171038000Y-102984000D01*
G75*
G02*
X170863000Y-103159000I-175000J0D01*
G01*
G37*
G36*
G01*
X170863000Y-113359000D02*
X170513000Y-113359000D01*
G75*
G02*
X170338000Y-113184000I0J175000D01*
G01*
X170338000Y-110884000D01*
G75*
G02*
X170513000Y-110709000I175000J0D01*
G01*
X170863000Y-110709000D01*
G75*
G02*
X171038000Y-110884000I0J-175000D01*
G01*
X171038000Y-113184000D01*
G75*
G02*
X170863000Y-113359000I-175000J0D01*
G01*
G37*
G36*
G01*
X169593000Y-113359000D02*
X169243000Y-113359000D01*
G75*
G02*
X169068000Y-113184000I0J175000D01*
G01*
X169068000Y-110884000D01*
G75*
G02*
X169243000Y-110709000I175000J0D01*
G01*
X169593000Y-110709000D01*
G75*
G02*
X169768000Y-110884000I0J-175000D01*
G01*
X169768000Y-113184000D01*
G75*
G02*
X169593000Y-113359000I-175000J0D01*
G01*
G37*
G36*
G01*
X168323000Y-113359000D02*
X167973000Y-113359000D01*
G75*
G02*
X167798000Y-113184000I0J175000D01*
G01*
X167798000Y-110884000D01*
G75*
G02*
X167973000Y-110709000I175000J0D01*
G01*
X168323000Y-110709000D01*
G75*
G02*
X168498000Y-110884000I0J-175000D01*
G01*
X168498000Y-113184000D01*
G75*
G02*
X168323000Y-113359000I-175000J0D01*
G01*
G37*
G36*
G01*
X167053000Y-113359000D02*
X166703000Y-113359000D01*
G75*
G02*
X166528000Y-113184000I0J175000D01*
G01*
X166528000Y-110884000D01*
G75*
G02*
X166703000Y-110709000I175000J0D01*
G01*
X167053000Y-110709000D01*
G75*
G02*
X167228000Y-110884000I0J-175000D01*
G01*
X167228000Y-113184000D01*
G75*
G02*
X167053000Y-113359000I-175000J0D01*
G01*
G37*
G36*
G01*
X165783000Y-113359000D02*
X165433000Y-113359000D01*
G75*
G02*
X165258000Y-113184000I0J175000D01*
G01*
X165258000Y-110884000D01*
G75*
G02*
X165433000Y-110709000I175000J0D01*
G01*
X165783000Y-110709000D01*
G75*
G02*
X165958000Y-110884000I0J-175000D01*
G01*
X165958000Y-113184000D01*
G75*
G02*
X165783000Y-113359000I-175000J0D01*
G01*
G37*
G36*
G01*
X164513000Y-113359000D02*
X164163000Y-113359000D01*
G75*
G02*
X163988000Y-113184000I0J175000D01*
G01*
X163988000Y-110884000D01*
G75*
G02*
X164163000Y-110709000I175000J0D01*
G01*
X164513000Y-110709000D01*
G75*
G02*
X164688000Y-110884000I0J-175000D01*
G01*
X164688000Y-113184000D01*
G75*
G02*
X164513000Y-113359000I-175000J0D01*
G01*
G37*
G36*
G01*
X163243000Y-113359000D02*
X162893000Y-113359000D01*
G75*
G02*
X162718000Y-113184000I0J175000D01*
G01*
X162718000Y-110884000D01*
G75*
G02*
X162893000Y-110709000I175000J0D01*
G01*
X163243000Y-110709000D01*
G75*
G02*
X163418000Y-110884000I0J-175000D01*
G01*
X163418000Y-113184000D01*
G75*
G02*
X163243000Y-113359000I-175000J0D01*
G01*
G37*
G36*
G01*
X161973000Y-113359000D02*
X161623000Y-113359000D01*
G75*
G02*
X161448000Y-113184000I0J175000D01*
G01*
X161448000Y-110884000D01*
G75*
G02*
X161623000Y-110709000I175000J0D01*
G01*
X161973000Y-110709000D01*
G75*
G02*
X162148000Y-110884000I0J-175000D01*
G01*
X162148000Y-113184000D01*
G75*
G02*
X161973000Y-113359000I-175000J0D01*
G01*
G37*
G36*
G01*
X160703000Y-113359000D02*
X160353000Y-113359000D01*
G75*
G02*
X160178000Y-113184000I0J175000D01*
G01*
X160178000Y-110884000D01*
G75*
G02*
X160353000Y-110709000I175000J0D01*
G01*
X160703000Y-110709000D01*
G75*
G02*
X160878000Y-110884000I0J-175000D01*
G01*
X160878000Y-113184000D01*
G75*
G02*
X160703000Y-113359000I-175000J0D01*
G01*
G37*
G36*
G01*
X159433000Y-113359000D02*
X159083000Y-113359000D01*
G75*
G02*
X158908000Y-113184000I0J175000D01*
G01*
X158908000Y-110884000D01*
G75*
G02*
X159083000Y-110709000I175000J0D01*
G01*
X159433000Y-110709000D01*
G75*
G02*
X159608000Y-110884000I0J-175000D01*
G01*
X159608000Y-113184000D01*
G75*
G02*
X159433000Y-113359000I-175000J0D01*
G01*
G37*
G36*
G01*
X158163000Y-113359000D02*
X157813000Y-113359000D01*
G75*
G02*
X157638000Y-113184000I0J175000D01*
G01*
X157638000Y-110884000D01*
G75*
G02*
X157813000Y-110709000I175000J0D01*
G01*
X158163000Y-110709000D01*
G75*
G02*
X158338000Y-110884000I0J-175000D01*
G01*
X158338000Y-113184000D01*
G75*
G02*
X158163000Y-113359000I-175000J0D01*
G01*
G37*
G36*
G01*
X156893000Y-113359000D02*
X156543000Y-113359000D01*
G75*
G02*
X156368000Y-113184000I0J175000D01*
G01*
X156368000Y-110884000D01*
G75*
G02*
X156543000Y-110709000I175000J0D01*
G01*
X156893000Y-110709000D01*
G75*
G02*
X157068000Y-110884000I0J-175000D01*
G01*
X157068000Y-113184000D01*
G75*
G02*
X156893000Y-113359000I-175000J0D01*
G01*
G37*
G36*
G01*
X155623000Y-113359000D02*
X155273000Y-113359000D01*
G75*
G02*
X155098000Y-113184000I0J175000D01*
G01*
X155098000Y-110884000D01*
G75*
G02*
X155273000Y-110709000I175000J0D01*
G01*
X155623000Y-110709000D01*
G75*
G02*
X155798000Y-110884000I0J-175000D01*
G01*
X155798000Y-113184000D01*
G75*
G02*
X155623000Y-113359000I-175000J0D01*
G01*
G37*
G36*
G01*
X154353000Y-113359000D02*
X154003000Y-113359000D01*
G75*
G02*
X153828000Y-113184000I0J175000D01*
G01*
X153828000Y-110884000D01*
G75*
G02*
X154003000Y-110709000I175000J0D01*
G01*
X154353000Y-110709000D01*
G75*
G02*
X154528000Y-110884000I0J-175000D01*
G01*
X154528000Y-113184000D01*
G75*
G02*
X154353000Y-113359000I-175000J0D01*
G01*
G37*
G36*
G01*
X153083000Y-113359000D02*
X152733000Y-113359000D01*
G75*
G02*
X152558000Y-113184000I0J175000D01*
G01*
X152558000Y-110884000D01*
G75*
G02*
X152733000Y-110709000I175000J0D01*
G01*
X153083000Y-110709000D01*
G75*
G02*
X153258000Y-110884000I0J-175000D01*
G01*
X153258000Y-113184000D01*
G75*
G02*
X153083000Y-113359000I-175000J0D01*
G01*
G37*
G36*
G01*
X151813000Y-113359000D02*
X151463000Y-113359000D01*
G75*
G02*
X151288000Y-113184000I0J175000D01*
G01*
X151288000Y-110884000D01*
G75*
G02*
X151463000Y-110709000I175000J0D01*
G01*
X151813000Y-110709000D01*
G75*
G02*
X151988000Y-110884000I0J-175000D01*
G01*
X151988000Y-113184000D01*
G75*
G02*
X151813000Y-113359000I-175000J0D01*
G01*
G37*
G36*
G01*
X150543000Y-113359000D02*
X150193000Y-113359000D01*
G75*
G02*
X150018000Y-113184000I0J175000D01*
G01*
X150018000Y-110884000D01*
G75*
G02*
X150193000Y-110709000I175000J0D01*
G01*
X150543000Y-110709000D01*
G75*
G02*
X150718000Y-110884000I0J-175000D01*
G01*
X150718000Y-113184000D01*
G75*
G02*
X150543000Y-113359000I-175000J0D01*
G01*
G37*
G36*
G01*
X149273000Y-113359000D02*
X148923000Y-113359000D01*
G75*
G02*
X148748000Y-113184000I0J175000D01*
G01*
X148748000Y-110884000D01*
G75*
G02*
X148923000Y-110709000I175000J0D01*
G01*
X149273000Y-110709000D01*
G75*
G02*
X149448000Y-110884000I0J-175000D01*
G01*
X149448000Y-113184000D01*
G75*
G02*
X149273000Y-113359000I-175000J0D01*
G01*
G37*
%TD*%
%TO.C,U11*%
G36*
G01*
X175943000Y-86014000D02*
X175593000Y-86014000D01*
G75*
G02*
X175418000Y-85839000I0J175000D01*
G01*
X175418000Y-83539000D01*
G75*
G02*
X175593000Y-83364000I175000J0D01*
G01*
X175943000Y-83364000D01*
G75*
G02*
X176118000Y-83539000I0J-175000D01*
G01*
X176118000Y-85839000D01*
G75*
G02*
X175943000Y-86014000I-175000J0D01*
G01*
G37*
G36*
G01*
X177213000Y-86014000D02*
X176863000Y-86014000D01*
G75*
G02*
X176688000Y-85839000I0J175000D01*
G01*
X176688000Y-83539000D01*
G75*
G02*
X176863000Y-83364000I175000J0D01*
G01*
X177213000Y-83364000D01*
G75*
G02*
X177388000Y-83539000I0J-175000D01*
G01*
X177388000Y-85839000D01*
G75*
G02*
X177213000Y-86014000I-175000J0D01*
G01*
G37*
G36*
G01*
X178483000Y-86014000D02*
X178133000Y-86014000D01*
G75*
G02*
X177958000Y-85839000I0J175000D01*
G01*
X177958000Y-83539000D01*
G75*
G02*
X178133000Y-83364000I175000J0D01*
G01*
X178483000Y-83364000D01*
G75*
G02*
X178658000Y-83539000I0J-175000D01*
G01*
X178658000Y-85839000D01*
G75*
G02*
X178483000Y-86014000I-175000J0D01*
G01*
G37*
G36*
G01*
X179753000Y-86014000D02*
X179403000Y-86014000D01*
G75*
G02*
X179228000Y-85839000I0J175000D01*
G01*
X179228000Y-83539000D01*
G75*
G02*
X179403000Y-83364000I175000J0D01*
G01*
X179753000Y-83364000D01*
G75*
G02*
X179928000Y-83539000I0J-175000D01*
G01*
X179928000Y-85839000D01*
G75*
G02*
X179753000Y-86014000I-175000J0D01*
G01*
G37*
G36*
G01*
X181023000Y-86014000D02*
X180673000Y-86014000D01*
G75*
G02*
X180498000Y-85839000I0J175000D01*
G01*
X180498000Y-83539000D01*
G75*
G02*
X180673000Y-83364000I175000J0D01*
G01*
X181023000Y-83364000D01*
G75*
G02*
X181198000Y-83539000I0J-175000D01*
G01*
X181198000Y-85839000D01*
G75*
G02*
X181023000Y-86014000I-175000J0D01*
G01*
G37*
G36*
G01*
X182293000Y-86014000D02*
X181943000Y-86014000D01*
G75*
G02*
X181768000Y-85839000I0J175000D01*
G01*
X181768000Y-83539000D01*
G75*
G02*
X181943000Y-83364000I175000J0D01*
G01*
X182293000Y-83364000D01*
G75*
G02*
X182468000Y-83539000I0J-175000D01*
G01*
X182468000Y-85839000D01*
G75*
G02*
X182293000Y-86014000I-175000J0D01*
G01*
G37*
G36*
G01*
X183563000Y-86014000D02*
X183213000Y-86014000D01*
G75*
G02*
X183038000Y-85839000I0J175000D01*
G01*
X183038000Y-83539000D01*
G75*
G02*
X183213000Y-83364000I175000J0D01*
G01*
X183563000Y-83364000D01*
G75*
G02*
X183738000Y-83539000I0J-175000D01*
G01*
X183738000Y-85839000D01*
G75*
G02*
X183563000Y-86014000I-175000J0D01*
G01*
G37*
G36*
G01*
X184833000Y-86014000D02*
X184483000Y-86014000D01*
G75*
G02*
X184308000Y-85839000I0J175000D01*
G01*
X184308000Y-83539000D01*
G75*
G02*
X184483000Y-83364000I175000J0D01*
G01*
X184833000Y-83364000D01*
G75*
G02*
X185008000Y-83539000I0J-175000D01*
G01*
X185008000Y-85839000D01*
G75*
G02*
X184833000Y-86014000I-175000J0D01*
G01*
G37*
G36*
G01*
X186103000Y-86014000D02*
X185753000Y-86014000D01*
G75*
G02*
X185578000Y-85839000I0J175000D01*
G01*
X185578000Y-83539000D01*
G75*
G02*
X185753000Y-83364000I175000J0D01*
G01*
X186103000Y-83364000D01*
G75*
G02*
X186278000Y-83539000I0J-175000D01*
G01*
X186278000Y-85839000D01*
G75*
G02*
X186103000Y-86014000I-175000J0D01*
G01*
G37*
G36*
G01*
X187373000Y-86014000D02*
X187023000Y-86014000D01*
G75*
G02*
X186848000Y-85839000I0J175000D01*
G01*
X186848000Y-83539000D01*
G75*
G02*
X187023000Y-83364000I175000J0D01*
G01*
X187373000Y-83364000D01*
G75*
G02*
X187548000Y-83539000I0J-175000D01*
G01*
X187548000Y-85839000D01*
G75*
G02*
X187373000Y-86014000I-175000J0D01*
G01*
G37*
G36*
G01*
X188643000Y-86014000D02*
X188293000Y-86014000D01*
G75*
G02*
X188118000Y-85839000I0J175000D01*
G01*
X188118000Y-83539000D01*
G75*
G02*
X188293000Y-83364000I175000J0D01*
G01*
X188643000Y-83364000D01*
G75*
G02*
X188818000Y-83539000I0J-175000D01*
G01*
X188818000Y-85839000D01*
G75*
G02*
X188643000Y-86014000I-175000J0D01*
G01*
G37*
G36*
G01*
X189913000Y-86014000D02*
X189563000Y-86014000D01*
G75*
G02*
X189388000Y-85839000I0J175000D01*
G01*
X189388000Y-83539000D01*
G75*
G02*
X189563000Y-83364000I175000J0D01*
G01*
X189913000Y-83364000D01*
G75*
G02*
X190088000Y-83539000I0J-175000D01*
G01*
X190088000Y-85839000D01*
G75*
G02*
X189913000Y-86014000I-175000J0D01*
G01*
G37*
G36*
G01*
X191183000Y-86014000D02*
X190833000Y-86014000D01*
G75*
G02*
X190658000Y-85839000I0J175000D01*
G01*
X190658000Y-83539000D01*
G75*
G02*
X190833000Y-83364000I175000J0D01*
G01*
X191183000Y-83364000D01*
G75*
G02*
X191358000Y-83539000I0J-175000D01*
G01*
X191358000Y-85839000D01*
G75*
G02*
X191183000Y-86014000I-175000J0D01*
G01*
G37*
G36*
G01*
X192453000Y-86014000D02*
X192103000Y-86014000D01*
G75*
G02*
X191928000Y-85839000I0J175000D01*
G01*
X191928000Y-83539000D01*
G75*
G02*
X192103000Y-83364000I175000J0D01*
G01*
X192453000Y-83364000D01*
G75*
G02*
X192628000Y-83539000I0J-175000D01*
G01*
X192628000Y-85839000D01*
G75*
G02*
X192453000Y-86014000I-175000J0D01*
G01*
G37*
G36*
G01*
X193723000Y-86014000D02*
X193373000Y-86014000D01*
G75*
G02*
X193198000Y-85839000I0J175000D01*
G01*
X193198000Y-83539000D01*
G75*
G02*
X193373000Y-83364000I175000J0D01*
G01*
X193723000Y-83364000D01*
G75*
G02*
X193898000Y-83539000I0J-175000D01*
G01*
X193898000Y-85839000D01*
G75*
G02*
X193723000Y-86014000I-175000J0D01*
G01*
G37*
G36*
G01*
X194993000Y-86014000D02*
X194643000Y-86014000D01*
G75*
G02*
X194468000Y-85839000I0J175000D01*
G01*
X194468000Y-83539000D01*
G75*
G02*
X194643000Y-83364000I175000J0D01*
G01*
X194993000Y-83364000D01*
G75*
G02*
X195168000Y-83539000I0J-175000D01*
G01*
X195168000Y-85839000D01*
G75*
G02*
X194993000Y-86014000I-175000J0D01*
G01*
G37*
G36*
G01*
X196263000Y-86014000D02*
X195913000Y-86014000D01*
G75*
G02*
X195738000Y-85839000I0J175000D01*
G01*
X195738000Y-83539000D01*
G75*
G02*
X195913000Y-83364000I175000J0D01*
G01*
X196263000Y-83364000D01*
G75*
G02*
X196438000Y-83539000I0J-175000D01*
G01*
X196438000Y-85839000D01*
G75*
G02*
X196263000Y-86014000I-175000J0D01*
G01*
G37*
G36*
G01*
X197533000Y-86014000D02*
X197183000Y-86014000D01*
G75*
G02*
X197008000Y-85839000I0J175000D01*
G01*
X197008000Y-83539000D01*
G75*
G02*
X197183000Y-83364000I175000J0D01*
G01*
X197533000Y-83364000D01*
G75*
G02*
X197708000Y-83539000I0J-175000D01*
G01*
X197708000Y-85839000D01*
G75*
G02*
X197533000Y-86014000I-175000J0D01*
G01*
G37*
G36*
G01*
X197533000Y-96214000D02*
X197183000Y-96214000D01*
G75*
G02*
X197008000Y-96039000I0J175000D01*
G01*
X197008000Y-93739000D01*
G75*
G02*
X197183000Y-93564000I175000J0D01*
G01*
X197533000Y-93564000D01*
G75*
G02*
X197708000Y-93739000I0J-175000D01*
G01*
X197708000Y-96039000D01*
G75*
G02*
X197533000Y-96214000I-175000J0D01*
G01*
G37*
G36*
G01*
X196263000Y-96214000D02*
X195913000Y-96214000D01*
G75*
G02*
X195738000Y-96039000I0J175000D01*
G01*
X195738000Y-93739000D01*
G75*
G02*
X195913000Y-93564000I175000J0D01*
G01*
X196263000Y-93564000D01*
G75*
G02*
X196438000Y-93739000I0J-175000D01*
G01*
X196438000Y-96039000D01*
G75*
G02*
X196263000Y-96214000I-175000J0D01*
G01*
G37*
G36*
G01*
X194993000Y-96214000D02*
X194643000Y-96214000D01*
G75*
G02*
X194468000Y-96039000I0J175000D01*
G01*
X194468000Y-93739000D01*
G75*
G02*
X194643000Y-93564000I175000J0D01*
G01*
X194993000Y-93564000D01*
G75*
G02*
X195168000Y-93739000I0J-175000D01*
G01*
X195168000Y-96039000D01*
G75*
G02*
X194993000Y-96214000I-175000J0D01*
G01*
G37*
G36*
G01*
X193723000Y-96214000D02*
X193373000Y-96214000D01*
G75*
G02*
X193198000Y-96039000I0J175000D01*
G01*
X193198000Y-93739000D01*
G75*
G02*
X193373000Y-93564000I175000J0D01*
G01*
X193723000Y-93564000D01*
G75*
G02*
X193898000Y-93739000I0J-175000D01*
G01*
X193898000Y-96039000D01*
G75*
G02*
X193723000Y-96214000I-175000J0D01*
G01*
G37*
G36*
G01*
X192453000Y-96214000D02*
X192103000Y-96214000D01*
G75*
G02*
X191928000Y-96039000I0J175000D01*
G01*
X191928000Y-93739000D01*
G75*
G02*
X192103000Y-93564000I175000J0D01*
G01*
X192453000Y-93564000D01*
G75*
G02*
X192628000Y-93739000I0J-175000D01*
G01*
X192628000Y-96039000D01*
G75*
G02*
X192453000Y-96214000I-175000J0D01*
G01*
G37*
G36*
G01*
X191183000Y-96214000D02*
X190833000Y-96214000D01*
G75*
G02*
X190658000Y-96039000I0J175000D01*
G01*
X190658000Y-93739000D01*
G75*
G02*
X190833000Y-93564000I175000J0D01*
G01*
X191183000Y-93564000D01*
G75*
G02*
X191358000Y-93739000I0J-175000D01*
G01*
X191358000Y-96039000D01*
G75*
G02*
X191183000Y-96214000I-175000J0D01*
G01*
G37*
G36*
G01*
X189913000Y-96214000D02*
X189563000Y-96214000D01*
G75*
G02*
X189388000Y-96039000I0J175000D01*
G01*
X189388000Y-93739000D01*
G75*
G02*
X189563000Y-93564000I175000J0D01*
G01*
X189913000Y-93564000D01*
G75*
G02*
X190088000Y-93739000I0J-175000D01*
G01*
X190088000Y-96039000D01*
G75*
G02*
X189913000Y-96214000I-175000J0D01*
G01*
G37*
G36*
G01*
X188643000Y-96214000D02*
X188293000Y-96214000D01*
G75*
G02*
X188118000Y-96039000I0J175000D01*
G01*
X188118000Y-93739000D01*
G75*
G02*
X188293000Y-93564000I175000J0D01*
G01*
X188643000Y-93564000D01*
G75*
G02*
X188818000Y-93739000I0J-175000D01*
G01*
X188818000Y-96039000D01*
G75*
G02*
X188643000Y-96214000I-175000J0D01*
G01*
G37*
G36*
G01*
X187373000Y-96214000D02*
X187023000Y-96214000D01*
G75*
G02*
X186848000Y-96039000I0J175000D01*
G01*
X186848000Y-93739000D01*
G75*
G02*
X187023000Y-93564000I175000J0D01*
G01*
X187373000Y-93564000D01*
G75*
G02*
X187548000Y-93739000I0J-175000D01*
G01*
X187548000Y-96039000D01*
G75*
G02*
X187373000Y-96214000I-175000J0D01*
G01*
G37*
G36*
G01*
X186103000Y-96214000D02*
X185753000Y-96214000D01*
G75*
G02*
X185578000Y-96039000I0J175000D01*
G01*
X185578000Y-93739000D01*
G75*
G02*
X185753000Y-93564000I175000J0D01*
G01*
X186103000Y-93564000D01*
G75*
G02*
X186278000Y-93739000I0J-175000D01*
G01*
X186278000Y-96039000D01*
G75*
G02*
X186103000Y-96214000I-175000J0D01*
G01*
G37*
G36*
G01*
X184833000Y-96214000D02*
X184483000Y-96214000D01*
G75*
G02*
X184308000Y-96039000I0J175000D01*
G01*
X184308000Y-93739000D01*
G75*
G02*
X184483000Y-93564000I175000J0D01*
G01*
X184833000Y-93564000D01*
G75*
G02*
X185008000Y-93739000I0J-175000D01*
G01*
X185008000Y-96039000D01*
G75*
G02*
X184833000Y-96214000I-175000J0D01*
G01*
G37*
G36*
G01*
X183563000Y-96214000D02*
X183213000Y-96214000D01*
G75*
G02*
X183038000Y-96039000I0J175000D01*
G01*
X183038000Y-93739000D01*
G75*
G02*
X183213000Y-93564000I175000J0D01*
G01*
X183563000Y-93564000D01*
G75*
G02*
X183738000Y-93739000I0J-175000D01*
G01*
X183738000Y-96039000D01*
G75*
G02*
X183563000Y-96214000I-175000J0D01*
G01*
G37*
G36*
G01*
X182293000Y-96214000D02*
X181943000Y-96214000D01*
G75*
G02*
X181768000Y-96039000I0J175000D01*
G01*
X181768000Y-93739000D01*
G75*
G02*
X181943000Y-93564000I175000J0D01*
G01*
X182293000Y-93564000D01*
G75*
G02*
X182468000Y-93739000I0J-175000D01*
G01*
X182468000Y-96039000D01*
G75*
G02*
X182293000Y-96214000I-175000J0D01*
G01*
G37*
G36*
G01*
X181023000Y-96214000D02*
X180673000Y-96214000D01*
G75*
G02*
X180498000Y-96039000I0J175000D01*
G01*
X180498000Y-93739000D01*
G75*
G02*
X180673000Y-93564000I175000J0D01*
G01*
X181023000Y-93564000D01*
G75*
G02*
X181198000Y-93739000I0J-175000D01*
G01*
X181198000Y-96039000D01*
G75*
G02*
X181023000Y-96214000I-175000J0D01*
G01*
G37*
G36*
G01*
X179753000Y-96214000D02*
X179403000Y-96214000D01*
G75*
G02*
X179228000Y-96039000I0J175000D01*
G01*
X179228000Y-93739000D01*
G75*
G02*
X179403000Y-93564000I175000J0D01*
G01*
X179753000Y-93564000D01*
G75*
G02*
X179928000Y-93739000I0J-175000D01*
G01*
X179928000Y-96039000D01*
G75*
G02*
X179753000Y-96214000I-175000J0D01*
G01*
G37*
G36*
G01*
X178483000Y-96214000D02*
X178133000Y-96214000D01*
G75*
G02*
X177958000Y-96039000I0J175000D01*
G01*
X177958000Y-93739000D01*
G75*
G02*
X178133000Y-93564000I175000J0D01*
G01*
X178483000Y-93564000D01*
G75*
G02*
X178658000Y-93739000I0J-175000D01*
G01*
X178658000Y-96039000D01*
G75*
G02*
X178483000Y-96214000I-175000J0D01*
G01*
G37*
G36*
G01*
X177213000Y-96214000D02*
X176863000Y-96214000D01*
G75*
G02*
X176688000Y-96039000I0J175000D01*
G01*
X176688000Y-93739000D01*
G75*
G02*
X176863000Y-93564000I175000J0D01*
G01*
X177213000Y-93564000D01*
G75*
G02*
X177388000Y-93739000I0J-175000D01*
G01*
X177388000Y-96039000D01*
G75*
G02*
X177213000Y-96214000I-175000J0D01*
G01*
G37*
G36*
G01*
X175943000Y-96214000D02*
X175593000Y-96214000D01*
G75*
G02*
X175418000Y-96039000I0J175000D01*
G01*
X175418000Y-93739000D01*
G75*
G02*
X175593000Y-93564000I175000J0D01*
G01*
X175943000Y-93564000D01*
G75*
G02*
X176118000Y-93739000I0J-175000D01*
G01*
X176118000Y-96039000D01*
G75*
G02*
X175943000Y-96214000I-175000J0D01*
G01*
G37*
%TD*%
%TO.C,U10*%
G36*
G01*
X149273000Y-86014000D02*
X148923000Y-86014000D01*
G75*
G02*
X148748000Y-85839000I0J175000D01*
G01*
X148748000Y-83539000D01*
G75*
G02*
X148923000Y-83364000I175000J0D01*
G01*
X149273000Y-83364000D01*
G75*
G02*
X149448000Y-83539000I0J-175000D01*
G01*
X149448000Y-85839000D01*
G75*
G02*
X149273000Y-86014000I-175000J0D01*
G01*
G37*
G36*
G01*
X150543000Y-86014000D02*
X150193000Y-86014000D01*
G75*
G02*
X150018000Y-85839000I0J175000D01*
G01*
X150018000Y-83539000D01*
G75*
G02*
X150193000Y-83364000I175000J0D01*
G01*
X150543000Y-83364000D01*
G75*
G02*
X150718000Y-83539000I0J-175000D01*
G01*
X150718000Y-85839000D01*
G75*
G02*
X150543000Y-86014000I-175000J0D01*
G01*
G37*
G36*
G01*
X151813000Y-86014000D02*
X151463000Y-86014000D01*
G75*
G02*
X151288000Y-85839000I0J175000D01*
G01*
X151288000Y-83539000D01*
G75*
G02*
X151463000Y-83364000I175000J0D01*
G01*
X151813000Y-83364000D01*
G75*
G02*
X151988000Y-83539000I0J-175000D01*
G01*
X151988000Y-85839000D01*
G75*
G02*
X151813000Y-86014000I-175000J0D01*
G01*
G37*
G36*
G01*
X153083000Y-86014000D02*
X152733000Y-86014000D01*
G75*
G02*
X152558000Y-85839000I0J175000D01*
G01*
X152558000Y-83539000D01*
G75*
G02*
X152733000Y-83364000I175000J0D01*
G01*
X153083000Y-83364000D01*
G75*
G02*
X153258000Y-83539000I0J-175000D01*
G01*
X153258000Y-85839000D01*
G75*
G02*
X153083000Y-86014000I-175000J0D01*
G01*
G37*
G36*
G01*
X154353000Y-86014000D02*
X154003000Y-86014000D01*
G75*
G02*
X153828000Y-85839000I0J175000D01*
G01*
X153828000Y-83539000D01*
G75*
G02*
X154003000Y-83364000I175000J0D01*
G01*
X154353000Y-83364000D01*
G75*
G02*
X154528000Y-83539000I0J-175000D01*
G01*
X154528000Y-85839000D01*
G75*
G02*
X154353000Y-86014000I-175000J0D01*
G01*
G37*
G36*
G01*
X155623000Y-86014000D02*
X155273000Y-86014000D01*
G75*
G02*
X155098000Y-85839000I0J175000D01*
G01*
X155098000Y-83539000D01*
G75*
G02*
X155273000Y-83364000I175000J0D01*
G01*
X155623000Y-83364000D01*
G75*
G02*
X155798000Y-83539000I0J-175000D01*
G01*
X155798000Y-85839000D01*
G75*
G02*
X155623000Y-86014000I-175000J0D01*
G01*
G37*
G36*
G01*
X156893000Y-86014000D02*
X156543000Y-86014000D01*
G75*
G02*
X156368000Y-85839000I0J175000D01*
G01*
X156368000Y-83539000D01*
G75*
G02*
X156543000Y-83364000I175000J0D01*
G01*
X156893000Y-83364000D01*
G75*
G02*
X157068000Y-83539000I0J-175000D01*
G01*
X157068000Y-85839000D01*
G75*
G02*
X156893000Y-86014000I-175000J0D01*
G01*
G37*
G36*
G01*
X158163000Y-86014000D02*
X157813000Y-86014000D01*
G75*
G02*
X157638000Y-85839000I0J175000D01*
G01*
X157638000Y-83539000D01*
G75*
G02*
X157813000Y-83364000I175000J0D01*
G01*
X158163000Y-83364000D01*
G75*
G02*
X158338000Y-83539000I0J-175000D01*
G01*
X158338000Y-85839000D01*
G75*
G02*
X158163000Y-86014000I-175000J0D01*
G01*
G37*
G36*
G01*
X159433000Y-86014000D02*
X159083000Y-86014000D01*
G75*
G02*
X158908000Y-85839000I0J175000D01*
G01*
X158908000Y-83539000D01*
G75*
G02*
X159083000Y-83364000I175000J0D01*
G01*
X159433000Y-83364000D01*
G75*
G02*
X159608000Y-83539000I0J-175000D01*
G01*
X159608000Y-85839000D01*
G75*
G02*
X159433000Y-86014000I-175000J0D01*
G01*
G37*
G36*
G01*
X160703000Y-86014000D02*
X160353000Y-86014000D01*
G75*
G02*
X160178000Y-85839000I0J175000D01*
G01*
X160178000Y-83539000D01*
G75*
G02*
X160353000Y-83364000I175000J0D01*
G01*
X160703000Y-83364000D01*
G75*
G02*
X160878000Y-83539000I0J-175000D01*
G01*
X160878000Y-85839000D01*
G75*
G02*
X160703000Y-86014000I-175000J0D01*
G01*
G37*
G36*
G01*
X161973000Y-86014000D02*
X161623000Y-86014000D01*
G75*
G02*
X161448000Y-85839000I0J175000D01*
G01*
X161448000Y-83539000D01*
G75*
G02*
X161623000Y-83364000I175000J0D01*
G01*
X161973000Y-83364000D01*
G75*
G02*
X162148000Y-83539000I0J-175000D01*
G01*
X162148000Y-85839000D01*
G75*
G02*
X161973000Y-86014000I-175000J0D01*
G01*
G37*
G36*
G01*
X163243000Y-86014000D02*
X162893000Y-86014000D01*
G75*
G02*
X162718000Y-85839000I0J175000D01*
G01*
X162718000Y-83539000D01*
G75*
G02*
X162893000Y-83364000I175000J0D01*
G01*
X163243000Y-83364000D01*
G75*
G02*
X163418000Y-83539000I0J-175000D01*
G01*
X163418000Y-85839000D01*
G75*
G02*
X163243000Y-86014000I-175000J0D01*
G01*
G37*
G36*
G01*
X164513000Y-86014000D02*
X164163000Y-86014000D01*
G75*
G02*
X163988000Y-85839000I0J175000D01*
G01*
X163988000Y-83539000D01*
G75*
G02*
X164163000Y-83364000I175000J0D01*
G01*
X164513000Y-83364000D01*
G75*
G02*
X164688000Y-83539000I0J-175000D01*
G01*
X164688000Y-85839000D01*
G75*
G02*
X164513000Y-86014000I-175000J0D01*
G01*
G37*
G36*
G01*
X165783000Y-86014000D02*
X165433000Y-86014000D01*
G75*
G02*
X165258000Y-85839000I0J175000D01*
G01*
X165258000Y-83539000D01*
G75*
G02*
X165433000Y-83364000I175000J0D01*
G01*
X165783000Y-83364000D01*
G75*
G02*
X165958000Y-83539000I0J-175000D01*
G01*
X165958000Y-85839000D01*
G75*
G02*
X165783000Y-86014000I-175000J0D01*
G01*
G37*
G36*
G01*
X167053000Y-86014000D02*
X166703000Y-86014000D01*
G75*
G02*
X166528000Y-85839000I0J175000D01*
G01*
X166528000Y-83539000D01*
G75*
G02*
X166703000Y-83364000I175000J0D01*
G01*
X167053000Y-83364000D01*
G75*
G02*
X167228000Y-83539000I0J-175000D01*
G01*
X167228000Y-85839000D01*
G75*
G02*
X167053000Y-86014000I-175000J0D01*
G01*
G37*
G36*
G01*
X168323000Y-86014000D02*
X167973000Y-86014000D01*
G75*
G02*
X167798000Y-85839000I0J175000D01*
G01*
X167798000Y-83539000D01*
G75*
G02*
X167973000Y-83364000I175000J0D01*
G01*
X168323000Y-83364000D01*
G75*
G02*
X168498000Y-83539000I0J-175000D01*
G01*
X168498000Y-85839000D01*
G75*
G02*
X168323000Y-86014000I-175000J0D01*
G01*
G37*
G36*
G01*
X169593000Y-86014000D02*
X169243000Y-86014000D01*
G75*
G02*
X169068000Y-85839000I0J175000D01*
G01*
X169068000Y-83539000D01*
G75*
G02*
X169243000Y-83364000I175000J0D01*
G01*
X169593000Y-83364000D01*
G75*
G02*
X169768000Y-83539000I0J-175000D01*
G01*
X169768000Y-85839000D01*
G75*
G02*
X169593000Y-86014000I-175000J0D01*
G01*
G37*
G36*
G01*
X170863000Y-86014000D02*
X170513000Y-86014000D01*
G75*
G02*
X170338000Y-85839000I0J175000D01*
G01*
X170338000Y-83539000D01*
G75*
G02*
X170513000Y-83364000I175000J0D01*
G01*
X170863000Y-83364000D01*
G75*
G02*
X171038000Y-83539000I0J-175000D01*
G01*
X171038000Y-85839000D01*
G75*
G02*
X170863000Y-86014000I-175000J0D01*
G01*
G37*
G36*
G01*
X170863000Y-96214000D02*
X170513000Y-96214000D01*
G75*
G02*
X170338000Y-96039000I0J175000D01*
G01*
X170338000Y-93739000D01*
G75*
G02*
X170513000Y-93564000I175000J0D01*
G01*
X170863000Y-93564000D01*
G75*
G02*
X171038000Y-93739000I0J-175000D01*
G01*
X171038000Y-96039000D01*
G75*
G02*
X170863000Y-96214000I-175000J0D01*
G01*
G37*
G36*
G01*
X169593000Y-96214000D02*
X169243000Y-96214000D01*
G75*
G02*
X169068000Y-96039000I0J175000D01*
G01*
X169068000Y-93739000D01*
G75*
G02*
X169243000Y-93564000I175000J0D01*
G01*
X169593000Y-93564000D01*
G75*
G02*
X169768000Y-93739000I0J-175000D01*
G01*
X169768000Y-96039000D01*
G75*
G02*
X169593000Y-96214000I-175000J0D01*
G01*
G37*
G36*
G01*
X168323000Y-96214000D02*
X167973000Y-96214000D01*
G75*
G02*
X167798000Y-96039000I0J175000D01*
G01*
X167798000Y-93739000D01*
G75*
G02*
X167973000Y-93564000I175000J0D01*
G01*
X168323000Y-93564000D01*
G75*
G02*
X168498000Y-93739000I0J-175000D01*
G01*
X168498000Y-96039000D01*
G75*
G02*
X168323000Y-96214000I-175000J0D01*
G01*
G37*
G36*
G01*
X167053000Y-96214000D02*
X166703000Y-96214000D01*
G75*
G02*
X166528000Y-96039000I0J175000D01*
G01*
X166528000Y-93739000D01*
G75*
G02*
X166703000Y-93564000I175000J0D01*
G01*
X167053000Y-93564000D01*
G75*
G02*
X167228000Y-93739000I0J-175000D01*
G01*
X167228000Y-96039000D01*
G75*
G02*
X167053000Y-96214000I-175000J0D01*
G01*
G37*
G36*
G01*
X165783000Y-96214000D02*
X165433000Y-96214000D01*
G75*
G02*
X165258000Y-96039000I0J175000D01*
G01*
X165258000Y-93739000D01*
G75*
G02*
X165433000Y-93564000I175000J0D01*
G01*
X165783000Y-93564000D01*
G75*
G02*
X165958000Y-93739000I0J-175000D01*
G01*
X165958000Y-96039000D01*
G75*
G02*
X165783000Y-96214000I-175000J0D01*
G01*
G37*
G36*
G01*
X164513000Y-96214000D02*
X164163000Y-96214000D01*
G75*
G02*
X163988000Y-96039000I0J175000D01*
G01*
X163988000Y-93739000D01*
G75*
G02*
X164163000Y-93564000I175000J0D01*
G01*
X164513000Y-93564000D01*
G75*
G02*
X164688000Y-93739000I0J-175000D01*
G01*
X164688000Y-96039000D01*
G75*
G02*
X164513000Y-96214000I-175000J0D01*
G01*
G37*
G36*
G01*
X163243000Y-96214000D02*
X162893000Y-96214000D01*
G75*
G02*
X162718000Y-96039000I0J175000D01*
G01*
X162718000Y-93739000D01*
G75*
G02*
X162893000Y-93564000I175000J0D01*
G01*
X163243000Y-93564000D01*
G75*
G02*
X163418000Y-93739000I0J-175000D01*
G01*
X163418000Y-96039000D01*
G75*
G02*
X163243000Y-96214000I-175000J0D01*
G01*
G37*
G36*
G01*
X161973000Y-96214000D02*
X161623000Y-96214000D01*
G75*
G02*
X161448000Y-96039000I0J175000D01*
G01*
X161448000Y-93739000D01*
G75*
G02*
X161623000Y-93564000I175000J0D01*
G01*
X161973000Y-93564000D01*
G75*
G02*
X162148000Y-93739000I0J-175000D01*
G01*
X162148000Y-96039000D01*
G75*
G02*
X161973000Y-96214000I-175000J0D01*
G01*
G37*
G36*
G01*
X160703000Y-96214000D02*
X160353000Y-96214000D01*
G75*
G02*
X160178000Y-96039000I0J175000D01*
G01*
X160178000Y-93739000D01*
G75*
G02*
X160353000Y-93564000I175000J0D01*
G01*
X160703000Y-93564000D01*
G75*
G02*
X160878000Y-93739000I0J-175000D01*
G01*
X160878000Y-96039000D01*
G75*
G02*
X160703000Y-96214000I-175000J0D01*
G01*
G37*
G36*
G01*
X159433000Y-96214000D02*
X159083000Y-96214000D01*
G75*
G02*
X158908000Y-96039000I0J175000D01*
G01*
X158908000Y-93739000D01*
G75*
G02*
X159083000Y-93564000I175000J0D01*
G01*
X159433000Y-93564000D01*
G75*
G02*
X159608000Y-93739000I0J-175000D01*
G01*
X159608000Y-96039000D01*
G75*
G02*
X159433000Y-96214000I-175000J0D01*
G01*
G37*
G36*
G01*
X158163000Y-96214000D02*
X157813000Y-96214000D01*
G75*
G02*
X157638000Y-96039000I0J175000D01*
G01*
X157638000Y-93739000D01*
G75*
G02*
X157813000Y-93564000I175000J0D01*
G01*
X158163000Y-93564000D01*
G75*
G02*
X158338000Y-93739000I0J-175000D01*
G01*
X158338000Y-96039000D01*
G75*
G02*
X158163000Y-96214000I-175000J0D01*
G01*
G37*
G36*
G01*
X156893000Y-96214000D02*
X156543000Y-96214000D01*
G75*
G02*
X156368000Y-96039000I0J175000D01*
G01*
X156368000Y-93739000D01*
G75*
G02*
X156543000Y-93564000I175000J0D01*
G01*
X156893000Y-93564000D01*
G75*
G02*
X157068000Y-93739000I0J-175000D01*
G01*
X157068000Y-96039000D01*
G75*
G02*
X156893000Y-96214000I-175000J0D01*
G01*
G37*
G36*
G01*
X155623000Y-96214000D02*
X155273000Y-96214000D01*
G75*
G02*
X155098000Y-96039000I0J175000D01*
G01*
X155098000Y-93739000D01*
G75*
G02*
X155273000Y-93564000I175000J0D01*
G01*
X155623000Y-93564000D01*
G75*
G02*
X155798000Y-93739000I0J-175000D01*
G01*
X155798000Y-96039000D01*
G75*
G02*
X155623000Y-96214000I-175000J0D01*
G01*
G37*
G36*
G01*
X154353000Y-96214000D02*
X154003000Y-96214000D01*
G75*
G02*
X153828000Y-96039000I0J175000D01*
G01*
X153828000Y-93739000D01*
G75*
G02*
X154003000Y-93564000I175000J0D01*
G01*
X154353000Y-93564000D01*
G75*
G02*
X154528000Y-93739000I0J-175000D01*
G01*
X154528000Y-96039000D01*
G75*
G02*
X154353000Y-96214000I-175000J0D01*
G01*
G37*
G36*
G01*
X153083000Y-96214000D02*
X152733000Y-96214000D01*
G75*
G02*
X152558000Y-96039000I0J175000D01*
G01*
X152558000Y-93739000D01*
G75*
G02*
X152733000Y-93564000I175000J0D01*
G01*
X153083000Y-93564000D01*
G75*
G02*
X153258000Y-93739000I0J-175000D01*
G01*
X153258000Y-96039000D01*
G75*
G02*
X153083000Y-96214000I-175000J0D01*
G01*
G37*
G36*
G01*
X151813000Y-96214000D02*
X151463000Y-96214000D01*
G75*
G02*
X151288000Y-96039000I0J175000D01*
G01*
X151288000Y-93739000D01*
G75*
G02*
X151463000Y-93564000I175000J0D01*
G01*
X151813000Y-93564000D01*
G75*
G02*
X151988000Y-93739000I0J-175000D01*
G01*
X151988000Y-96039000D01*
G75*
G02*
X151813000Y-96214000I-175000J0D01*
G01*
G37*
G36*
G01*
X150543000Y-96214000D02*
X150193000Y-96214000D01*
G75*
G02*
X150018000Y-96039000I0J175000D01*
G01*
X150018000Y-93739000D01*
G75*
G02*
X150193000Y-93564000I175000J0D01*
G01*
X150543000Y-93564000D01*
G75*
G02*
X150718000Y-93739000I0J-175000D01*
G01*
X150718000Y-96039000D01*
G75*
G02*
X150543000Y-96214000I-175000J0D01*
G01*
G37*
G36*
G01*
X149273000Y-96214000D02*
X148923000Y-96214000D01*
G75*
G02*
X148748000Y-96039000I0J175000D01*
G01*
X148748000Y-93739000D01*
G75*
G02*
X148923000Y-93564000I175000J0D01*
G01*
X149273000Y-93564000D01*
G75*
G02*
X149448000Y-93739000I0J-175000D01*
G01*
X149448000Y-96039000D01*
G75*
G02*
X149273000Y-96214000I-175000J0D01*
G01*
G37*
%TD*%
%TO.C,U9*%
G36*
G01*
X175943000Y-68869000D02*
X175593000Y-68869000D01*
G75*
G02*
X175418000Y-68694000I0J175000D01*
G01*
X175418000Y-66394000D01*
G75*
G02*
X175593000Y-66219000I175000J0D01*
G01*
X175943000Y-66219000D01*
G75*
G02*
X176118000Y-66394000I0J-175000D01*
G01*
X176118000Y-68694000D01*
G75*
G02*
X175943000Y-68869000I-175000J0D01*
G01*
G37*
G36*
G01*
X177213000Y-68869000D02*
X176863000Y-68869000D01*
G75*
G02*
X176688000Y-68694000I0J175000D01*
G01*
X176688000Y-66394000D01*
G75*
G02*
X176863000Y-66219000I175000J0D01*
G01*
X177213000Y-66219000D01*
G75*
G02*
X177388000Y-66394000I0J-175000D01*
G01*
X177388000Y-68694000D01*
G75*
G02*
X177213000Y-68869000I-175000J0D01*
G01*
G37*
G36*
G01*
X178483000Y-68869000D02*
X178133000Y-68869000D01*
G75*
G02*
X177958000Y-68694000I0J175000D01*
G01*
X177958000Y-66394000D01*
G75*
G02*
X178133000Y-66219000I175000J0D01*
G01*
X178483000Y-66219000D01*
G75*
G02*
X178658000Y-66394000I0J-175000D01*
G01*
X178658000Y-68694000D01*
G75*
G02*
X178483000Y-68869000I-175000J0D01*
G01*
G37*
G36*
G01*
X179753000Y-68869000D02*
X179403000Y-68869000D01*
G75*
G02*
X179228000Y-68694000I0J175000D01*
G01*
X179228000Y-66394000D01*
G75*
G02*
X179403000Y-66219000I175000J0D01*
G01*
X179753000Y-66219000D01*
G75*
G02*
X179928000Y-66394000I0J-175000D01*
G01*
X179928000Y-68694000D01*
G75*
G02*
X179753000Y-68869000I-175000J0D01*
G01*
G37*
G36*
G01*
X181023000Y-68869000D02*
X180673000Y-68869000D01*
G75*
G02*
X180498000Y-68694000I0J175000D01*
G01*
X180498000Y-66394000D01*
G75*
G02*
X180673000Y-66219000I175000J0D01*
G01*
X181023000Y-66219000D01*
G75*
G02*
X181198000Y-66394000I0J-175000D01*
G01*
X181198000Y-68694000D01*
G75*
G02*
X181023000Y-68869000I-175000J0D01*
G01*
G37*
G36*
G01*
X182293000Y-68869000D02*
X181943000Y-68869000D01*
G75*
G02*
X181768000Y-68694000I0J175000D01*
G01*
X181768000Y-66394000D01*
G75*
G02*
X181943000Y-66219000I175000J0D01*
G01*
X182293000Y-66219000D01*
G75*
G02*
X182468000Y-66394000I0J-175000D01*
G01*
X182468000Y-68694000D01*
G75*
G02*
X182293000Y-68869000I-175000J0D01*
G01*
G37*
G36*
G01*
X183563000Y-68869000D02*
X183213000Y-68869000D01*
G75*
G02*
X183038000Y-68694000I0J175000D01*
G01*
X183038000Y-66394000D01*
G75*
G02*
X183213000Y-66219000I175000J0D01*
G01*
X183563000Y-66219000D01*
G75*
G02*
X183738000Y-66394000I0J-175000D01*
G01*
X183738000Y-68694000D01*
G75*
G02*
X183563000Y-68869000I-175000J0D01*
G01*
G37*
G36*
G01*
X184833000Y-68869000D02*
X184483000Y-68869000D01*
G75*
G02*
X184308000Y-68694000I0J175000D01*
G01*
X184308000Y-66394000D01*
G75*
G02*
X184483000Y-66219000I175000J0D01*
G01*
X184833000Y-66219000D01*
G75*
G02*
X185008000Y-66394000I0J-175000D01*
G01*
X185008000Y-68694000D01*
G75*
G02*
X184833000Y-68869000I-175000J0D01*
G01*
G37*
G36*
G01*
X186103000Y-68869000D02*
X185753000Y-68869000D01*
G75*
G02*
X185578000Y-68694000I0J175000D01*
G01*
X185578000Y-66394000D01*
G75*
G02*
X185753000Y-66219000I175000J0D01*
G01*
X186103000Y-66219000D01*
G75*
G02*
X186278000Y-66394000I0J-175000D01*
G01*
X186278000Y-68694000D01*
G75*
G02*
X186103000Y-68869000I-175000J0D01*
G01*
G37*
G36*
G01*
X187373000Y-68869000D02*
X187023000Y-68869000D01*
G75*
G02*
X186848000Y-68694000I0J175000D01*
G01*
X186848000Y-66394000D01*
G75*
G02*
X187023000Y-66219000I175000J0D01*
G01*
X187373000Y-66219000D01*
G75*
G02*
X187548000Y-66394000I0J-175000D01*
G01*
X187548000Y-68694000D01*
G75*
G02*
X187373000Y-68869000I-175000J0D01*
G01*
G37*
G36*
G01*
X188643000Y-68869000D02*
X188293000Y-68869000D01*
G75*
G02*
X188118000Y-68694000I0J175000D01*
G01*
X188118000Y-66394000D01*
G75*
G02*
X188293000Y-66219000I175000J0D01*
G01*
X188643000Y-66219000D01*
G75*
G02*
X188818000Y-66394000I0J-175000D01*
G01*
X188818000Y-68694000D01*
G75*
G02*
X188643000Y-68869000I-175000J0D01*
G01*
G37*
G36*
G01*
X189913000Y-68869000D02*
X189563000Y-68869000D01*
G75*
G02*
X189388000Y-68694000I0J175000D01*
G01*
X189388000Y-66394000D01*
G75*
G02*
X189563000Y-66219000I175000J0D01*
G01*
X189913000Y-66219000D01*
G75*
G02*
X190088000Y-66394000I0J-175000D01*
G01*
X190088000Y-68694000D01*
G75*
G02*
X189913000Y-68869000I-175000J0D01*
G01*
G37*
G36*
G01*
X191183000Y-68869000D02*
X190833000Y-68869000D01*
G75*
G02*
X190658000Y-68694000I0J175000D01*
G01*
X190658000Y-66394000D01*
G75*
G02*
X190833000Y-66219000I175000J0D01*
G01*
X191183000Y-66219000D01*
G75*
G02*
X191358000Y-66394000I0J-175000D01*
G01*
X191358000Y-68694000D01*
G75*
G02*
X191183000Y-68869000I-175000J0D01*
G01*
G37*
G36*
G01*
X192453000Y-68869000D02*
X192103000Y-68869000D01*
G75*
G02*
X191928000Y-68694000I0J175000D01*
G01*
X191928000Y-66394000D01*
G75*
G02*
X192103000Y-66219000I175000J0D01*
G01*
X192453000Y-66219000D01*
G75*
G02*
X192628000Y-66394000I0J-175000D01*
G01*
X192628000Y-68694000D01*
G75*
G02*
X192453000Y-68869000I-175000J0D01*
G01*
G37*
G36*
G01*
X193723000Y-68869000D02*
X193373000Y-68869000D01*
G75*
G02*
X193198000Y-68694000I0J175000D01*
G01*
X193198000Y-66394000D01*
G75*
G02*
X193373000Y-66219000I175000J0D01*
G01*
X193723000Y-66219000D01*
G75*
G02*
X193898000Y-66394000I0J-175000D01*
G01*
X193898000Y-68694000D01*
G75*
G02*
X193723000Y-68869000I-175000J0D01*
G01*
G37*
G36*
G01*
X194993000Y-68869000D02*
X194643000Y-68869000D01*
G75*
G02*
X194468000Y-68694000I0J175000D01*
G01*
X194468000Y-66394000D01*
G75*
G02*
X194643000Y-66219000I175000J0D01*
G01*
X194993000Y-66219000D01*
G75*
G02*
X195168000Y-66394000I0J-175000D01*
G01*
X195168000Y-68694000D01*
G75*
G02*
X194993000Y-68869000I-175000J0D01*
G01*
G37*
G36*
G01*
X196263000Y-68869000D02*
X195913000Y-68869000D01*
G75*
G02*
X195738000Y-68694000I0J175000D01*
G01*
X195738000Y-66394000D01*
G75*
G02*
X195913000Y-66219000I175000J0D01*
G01*
X196263000Y-66219000D01*
G75*
G02*
X196438000Y-66394000I0J-175000D01*
G01*
X196438000Y-68694000D01*
G75*
G02*
X196263000Y-68869000I-175000J0D01*
G01*
G37*
G36*
G01*
X197533000Y-68869000D02*
X197183000Y-68869000D01*
G75*
G02*
X197008000Y-68694000I0J175000D01*
G01*
X197008000Y-66394000D01*
G75*
G02*
X197183000Y-66219000I175000J0D01*
G01*
X197533000Y-66219000D01*
G75*
G02*
X197708000Y-66394000I0J-175000D01*
G01*
X197708000Y-68694000D01*
G75*
G02*
X197533000Y-68869000I-175000J0D01*
G01*
G37*
G36*
G01*
X197533000Y-79069000D02*
X197183000Y-79069000D01*
G75*
G02*
X197008000Y-78894000I0J175000D01*
G01*
X197008000Y-76594000D01*
G75*
G02*
X197183000Y-76419000I175000J0D01*
G01*
X197533000Y-76419000D01*
G75*
G02*
X197708000Y-76594000I0J-175000D01*
G01*
X197708000Y-78894000D01*
G75*
G02*
X197533000Y-79069000I-175000J0D01*
G01*
G37*
G36*
G01*
X196263000Y-79069000D02*
X195913000Y-79069000D01*
G75*
G02*
X195738000Y-78894000I0J175000D01*
G01*
X195738000Y-76594000D01*
G75*
G02*
X195913000Y-76419000I175000J0D01*
G01*
X196263000Y-76419000D01*
G75*
G02*
X196438000Y-76594000I0J-175000D01*
G01*
X196438000Y-78894000D01*
G75*
G02*
X196263000Y-79069000I-175000J0D01*
G01*
G37*
G36*
G01*
X194993000Y-79069000D02*
X194643000Y-79069000D01*
G75*
G02*
X194468000Y-78894000I0J175000D01*
G01*
X194468000Y-76594000D01*
G75*
G02*
X194643000Y-76419000I175000J0D01*
G01*
X194993000Y-76419000D01*
G75*
G02*
X195168000Y-76594000I0J-175000D01*
G01*
X195168000Y-78894000D01*
G75*
G02*
X194993000Y-79069000I-175000J0D01*
G01*
G37*
G36*
G01*
X193723000Y-79069000D02*
X193373000Y-79069000D01*
G75*
G02*
X193198000Y-78894000I0J175000D01*
G01*
X193198000Y-76594000D01*
G75*
G02*
X193373000Y-76419000I175000J0D01*
G01*
X193723000Y-76419000D01*
G75*
G02*
X193898000Y-76594000I0J-175000D01*
G01*
X193898000Y-78894000D01*
G75*
G02*
X193723000Y-79069000I-175000J0D01*
G01*
G37*
G36*
G01*
X192453000Y-79069000D02*
X192103000Y-79069000D01*
G75*
G02*
X191928000Y-78894000I0J175000D01*
G01*
X191928000Y-76594000D01*
G75*
G02*
X192103000Y-76419000I175000J0D01*
G01*
X192453000Y-76419000D01*
G75*
G02*
X192628000Y-76594000I0J-175000D01*
G01*
X192628000Y-78894000D01*
G75*
G02*
X192453000Y-79069000I-175000J0D01*
G01*
G37*
G36*
G01*
X191183000Y-79069000D02*
X190833000Y-79069000D01*
G75*
G02*
X190658000Y-78894000I0J175000D01*
G01*
X190658000Y-76594000D01*
G75*
G02*
X190833000Y-76419000I175000J0D01*
G01*
X191183000Y-76419000D01*
G75*
G02*
X191358000Y-76594000I0J-175000D01*
G01*
X191358000Y-78894000D01*
G75*
G02*
X191183000Y-79069000I-175000J0D01*
G01*
G37*
G36*
G01*
X189913000Y-79069000D02*
X189563000Y-79069000D01*
G75*
G02*
X189388000Y-78894000I0J175000D01*
G01*
X189388000Y-76594000D01*
G75*
G02*
X189563000Y-76419000I175000J0D01*
G01*
X189913000Y-76419000D01*
G75*
G02*
X190088000Y-76594000I0J-175000D01*
G01*
X190088000Y-78894000D01*
G75*
G02*
X189913000Y-79069000I-175000J0D01*
G01*
G37*
G36*
G01*
X188643000Y-79069000D02*
X188293000Y-79069000D01*
G75*
G02*
X188118000Y-78894000I0J175000D01*
G01*
X188118000Y-76594000D01*
G75*
G02*
X188293000Y-76419000I175000J0D01*
G01*
X188643000Y-76419000D01*
G75*
G02*
X188818000Y-76594000I0J-175000D01*
G01*
X188818000Y-78894000D01*
G75*
G02*
X188643000Y-79069000I-175000J0D01*
G01*
G37*
G36*
G01*
X187373000Y-79069000D02*
X187023000Y-79069000D01*
G75*
G02*
X186848000Y-78894000I0J175000D01*
G01*
X186848000Y-76594000D01*
G75*
G02*
X187023000Y-76419000I175000J0D01*
G01*
X187373000Y-76419000D01*
G75*
G02*
X187548000Y-76594000I0J-175000D01*
G01*
X187548000Y-78894000D01*
G75*
G02*
X187373000Y-79069000I-175000J0D01*
G01*
G37*
G36*
G01*
X186103000Y-79069000D02*
X185753000Y-79069000D01*
G75*
G02*
X185578000Y-78894000I0J175000D01*
G01*
X185578000Y-76594000D01*
G75*
G02*
X185753000Y-76419000I175000J0D01*
G01*
X186103000Y-76419000D01*
G75*
G02*
X186278000Y-76594000I0J-175000D01*
G01*
X186278000Y-78894000D01*
G75*
G02*
X186103000Y-79069000I-175000J0D01*
G01*
G37*
G36*
G01*
X184833000Y-79069000D02*
X184483000Y-79069000D01*
G75*
G02*
X184308000Y-78894000I0J175000D01*
G01*
X184308000Y-76594000D01*
G75*
G02*
X184483000Y-76419000I175000J0D01*
G01*
X184833000Y-76419000D01*
G75*
G02*
X185008000Y-76594000I0J-175000D01*
G01*
X185008000Y-78894000D01*
G75*
G02*
X184833000Y-79069000I-175000J0D01*
G01*
G37*
G36*
G01*
X183563000Y-79069000D02*
X183213000Y-79069000D01*
G75*
G02*
X183038000Y-78894000I0J175000D01*
G01*
X183038000Y-76594000D01*
G75*
G02*
X183213000Y-76419000I175000J0D01*
G01*
X183563000Y-76419000D01*
G75*
G02*
X183738000Y-76594000I0J-175000D01*
G01*
X183738000Y-78894000D01*
G75*
G02*
X183563000Y-79069000I-175000J0D01*
G01*
G37*
G36*
G01*
X182293000Y-79069000D02*
X181943000Y-79069000D01*
G75*
G02*
X181768000Y-78894000I0J175000D01*
G01*
X181768000Y-76594000D01*
G75*
G02*
X181943000Y-76419000I175000J0D01*
G01*
X182293000Y-76419000D01*
G75*
G02*
X182468000Y-76594000I0J-175000D01*
G01*
X182468000Y-78894000D01*
G75*
G02*
X182293000Y-79069000I-175000J0D01*
G01*
G37*
G36*
G01*
X181023000Y-79069000D02*
X180673000Y-79069000D01*
G75*
G02*
X180498000Y-78894000I0J175000D01*
G01*
X180498000Y-76594000D01*
G75*
G02*
X180673000Y-76419000I175000J0D01*
G01*
X181023000Y-76419000D01*
G75*
G02*
X181198000Y-76594000I0J-175000D01*
G01*
X181198000Y-78894000D01*
G75*
G02*
X181023000Y-79069000I-175000J0D01*
G01*
G37*
G36*
G01*
X179753000Y-79069000D02*
X179403000Y-79069000D01*
G75*
G02*
X179228000Y-78894000I0J175000D01*
G01*
X179228000Y-76594000D01*
G75*
G02*
X179403000Y-76419000I175000J0D01*
G01*
X179753000Y-76419000D01*
G75*
G02*
X179928000Y-76594000I0J-175000D01*
G01*
X179928000Y-78894000D01*
G75*
G02*
X179753000Y-79069000I-175000J0D01*
G01*
G37*
G36*
G01*
X178483000Y-79069000D02*
X178133000Y-79069000D01*
G75*
G02*
X177958000Y-78894000I0J175000D01*
G01*
X177958000Y-76594000D01*
G75*
G02*
X178133000Y-76419000I175000J0D01*
G01*
X178483000Y-76419000D01*
G75*
G02*
X178658000Y-76594000I0J-175000D01*
G01*
X178658000Y-78894000D01*
G75*
G02*
X178483000Y-79069000I-175000J0D01*
G01*
G37*
G36*
G01*
X177213000Y-79069000D02*
X176863000Y-79069000D01*
G75*
G02*
X176688000Y-78894000I0J175000D01*
G01*
X176688000Y-76594000D01*
G75*
G02*
X176863000Y-76419000I175000J0D01*
G01*
X177213000Y-76419000D01*
G75*
G02*
X177388000Y-76594000I0J-175000D01*
G01*
X177388000Y-78894000D01*
G75*
G02*
X177213000Y-79069000I-175000J0D01*
G01*
G37*
G36*
G01*
X175943000Y-79069000D02*
X175593000Y-79069000D01*
G75*
G02*
X175418000Y-78894000I0J175000D01*
G01*
X175418000Y-76594000D01*
G75*
G02*
X175593000Y-76419000I175000J0D01*
G01*
X175943000Y-76419000D01*
G75*
G02*
X176118000Y-76594000I0J-175000D01*
G01*
X176118000Y-78894000D01*
G75*
G02*
X175943000Y-79069000I-175000J0D01*
G01*
G37*
%TD*%
%TO.C,U8*%
G36*
G01*
X149273000Y-68869000D02*
X148923000Y-68869000D01*
G75*
G02*
X148748000Y-68694000I0J175000D01*
G01*
X148748000Y-66394000D01*
G75*
G02*
X148923000Y-66219000I175000J0D01*
G01*
X149273000Y-66219000D01*
G75*
G02*
X149448000Y-66394000I0J-175000D01*
G01*
X149448000Y-68694000D01*
G75*
G02*
X149273000Y-68869000I-175000J0D01*
G01*
G37*
G36*
G01*
X150543000Y-68869000D02*
X150193000Y-68869000D01*
G75*
G02*
X150018000Y-68694000I0J175000D01*
G01*
X150018000Y-66394000D01*
G75*
G02*
X150193000Y-66219000I175000J0D01*
G01*
X150543000Y-66219000D01*
G75*
G02*
X150718000Y-66394000I0J-175000D01*
G01*
X150718000Y-68694000D01*
G75*
G02*
X150543000Y-68869000I-175000J0D01*
G01*
G37*
G36*
G01*
X151813000Y-68869000D02*
X151463000Y-68869000D01*
G75*
G02*
X151288000Y-68694000I0J175000D01*
G01*
X151288000Y-66394000D01*
G75*
G02*
X151463000Y-66219000I175000J0D01*
G01*
X151813000Y-66219000D01*
G75*
G02*
X151988000Y-66394000I0J-175000D01*
G01*
X151988000Y-68694000D01*
G75*
G02*
X151813000Y-68869000I-175000J0D01*
G01*
G37*
G36*
G01*
X153083000Y-68869000D02*
X152733000Y-68869000D01*
G75*
G02*
X152558000Y-68694000I0J175000D01*
G01*
X152558000Y-66394000D01*
G75*
G02*
X152733000Y-66219000I175000J0D01*
G01*
X153083000Y-66219000D01*
G75*
G02*
X153258000Y-66394000I0J-175000D01*
G01*
X153258000Y-68694000D01*
G75*
G02*
X153083000Y-68869000I-175000J0D01*
G01*
G37*
G36*
G01*
X154353000Y-68869000D02*
X154003000Y-68869000D01*
G75*
G02*
X153828000Y-68694000I0J175000D01*
G01*
X153828000Y-66394000D01*
G75*
G02*
X154003000Y-66219000I175000J0D01*
G01*
X154353000Y-66219000D01*
G75*
G02*
X154528000Y-66394000I0J-175000D01*
G01*
X154528000Y-68694000D01*
G75*
G02*
X154353000Y-68869000I-175000J0D01*
G01*
G37*
G36*
G01*
X155623000Y-68869000D02*
X155273000Y-68869000D01*
G75*
G02*
X155098000Y-68694000I0J175000D01*
G01*
X155098000Y-66394000D01*
G75*
G02*
X155273000Y-66219000I175000J0D01*
G01*
X155623000Y-66219000D01*
G75*
G02*
X155798000Y-66394000I0J-175000D01*
G01*
X155798000Y-68694000D01*
G75*
G02*
X155623000Y-68869000I-175000J0D01*
G01*
G37*
G36*
G01*
X156893000Y-68869000D02*
X156543000Y-68869000D01*
G75*
G02*
X156368000Y-68694000I0J175000D01*
G01*
X156368000Y-66394000D01*
G75*
G02*
X156543000Y-66219000I175000J0D01*
G01*
X156893000Y-66219000D01*
G75*
G02*
X157068000Y-66394000I0J-175000D01*
G01*
X157068000Y-68694000D01*
G75*
G02*
X156893000Y-68869000I-175000J0D01*
G01*
G37*
G36*
G01*
X158163000Y-68869000D02*
X157813000Y-68869000D01*
G75*
G02*
X157638000Y-68694000I0J175000D01*
G01*
X157638000Y-66394000D01*
G75*
G02*
X157813000Y-66219000I175000J0D01*
G01*
X158163000Y-66219000D01*
G75*
G02*
X158338000Y-66394000I0J-175000D01*
G01*
X158338000Y-68694000D01*
G75*
G02*
X158163000Y-68869000I-175000J0D01*
G01*
G37*
G36*
G01*
X159433000Y-68869000D02*
X159083000Y-68869000D01*
G75*
G02*
X158908000Y-68694000I0J175000D01*
G01*
X158908000Y-66394000D01*
G75*
G02*
X159083000Y-66219000I175000J0D01*
G01*
X159433000Y-66219000D01*
G75*
G02*
X159608000Y-66394000I0J-175000D01*
G01*
X159608000Y-68694000D01*
G75*
G02*
X159433000Y-68869000I-175000J0D01*
G01*
G37*
G36*
G01*
X160703000Y-68869000D02*
X160353000Y-68869000D01*
G75*
G02*
X160178000Y-68694000I0J175000D01*
G01*
X160178000Y-66394000D01*
G75*
G02*
X160353000Y-66219000I175000J0D01*
G01*
X160703000Y-66219000D01*
G75*
G02*
X160878000Y-66394000I0J-175000D01*
G01*
X160878000Y-68694000D01*
G75*
G02*
X160703000Y-68869000I-175000J0D01*
G01*
G37*
G36*
G01*
X161973000Y-68869000D02*
X161623000Y-68869000D01*
G75*
G02*
X161448000Y-68694000I0J175000D01*
G01*
X161448000Y-66394000D01*
G75*
G02*
X161623000Y-66219000I175000J0D01*
G01*
X161973000Y-66219000D01*
G75*
G02*
X162148000Y-66394000I0J-175000D01*
G01*
X162148000Y-68694000D01*
G75*
G02*
X161973000Y-68869000I-175000J0D01*
G01*
G37*
G36*
G01*
X163243000Y-68869000D02*
X162893000Y-68869000D01*
G75*
G02*
X162718000Y-68694000I0J175000D01*
G01*
X162718000Y-66394000D01*
G75*
G02*
X162893000Y-66219000I175000J0D01*
G01*
X163243000Y-66219000D01*
G75*
G02*
X163418000Y-66394000I0J-175000D01*
G01*
X163418000Y-68694000D01*
G75*
G02*
X163243000Y-68869000I-175000J0D01*
G01*
G37*
G36*
G01*
X164513000Y-68869000D02*
X164163000Y-68869000D01*
G75*
G02*
X163988000Y-68694000I0J175000D01*
G01*
X163988000Y-66394000D01*
G75*
G02*
X164163000Y-66219000I175000J0D01*
G01*
X164513000Y-66219000D01*
G75*
G02*
X164688000Y-66394000I0J-175000D01*
G01*
X164688000Y-68694000D01*
G75*
G02*
X164513000Y-68869000I-175000J0D01*
G01*
G37*
G36*
G01*
X165783000Y-68869000D02*
X165433000Y-68869000D01*
G75*
G02*
X165258000Y-68694000I0J175000D01*
G01*
X165258000Y-66394000D01*
G75*
G02*
X165433000Y-66219000I175000J0D01*
G01*
X165783000Y-66219000D01*
G75*
G02*
X165958000Y-66394000I0J-175000D01*
G01*
X165958000Y-68694000D01*
G75*
G02*
X165783000Y-68869000I-175000J0D01*
G01*
G37*
G36*
G01*
X167053000Y-68869000D02*
X166703000Y-68869000D01*
G75*
G02*
X166528000Y-68694000I0J175000D01*
G01*
X166528000Y-66394000D01*
G75*
G02*
X166703000Y-66219000I175000J0D01*
G01*
X167053000Y-66219000D01*
G75*
G02*
X167228000Y-66394000I0J-175000D01*
G01*
X167228000Y-68694000D01*
G75*
G02*
X167053000Y-68869000I-175000J0D01*
G01*
G37*
G36*
G01*
X168323000Y-68869000D02*
X167973000Y-68869000D01*
G75*
G02*
X167798000Y-68694000I0J175000D01*
G01*
X167798000Y-66394000D01*
G75*
G02*
X167973000Y-66219000I175000J0D01*
G01*
X168323000Y-66219000D01*
G75*
G02*
X168498000Y-66394000I0J-175000D01*
G01*
X168498000Y-68694000D01*
G75*
G02*
X168323000Y-68869000I-175000J0D01*
G01*
G37*
G36*
G01*
X169593000Y-68869000D02*
X169243000Y-68869000D01*
G75*
G02*
X169068000Y-68694000I0J175000D01*
G01*
X169068000Y-66394000D01*
G75*
G02*
X169243000Y-66219000I175000J0D01*
G01*
X169593000Y-66219000D01*
G75*
G02*
X169768000Y-66394000I0J-175000D01*
G01*
X169768000Y-68694000D01*
G75*
G02*
X169593000Y-68869000I-175000J0D01*
G01*
G37*
G36*
G01*
X170863000Y-68869000D02*
X170513000Y-68869000D01*
G75*
G02*
X170338000Y-68694000I0J175000D01*
G01*
X170338000Y-66394000D01*
G75*
G02*
X170513000Y-66219000I175000J0D01*
G01*
X170863000Y-66219000D01*
G75*
G02*
X171038000Y-66394000I0J-175000D01*
G01*
X171038000Y-68694000D01*
G75*
G02*
X170863000Y-68869000I-175000J0D01*
G01*
G37*
G36*
G01*
X170863000Y-79069000D02*
X170513000Y-79069000D01*
G75*
G02*
X170338000Y-78894000I0J175000D01*
G01*
X170338000Y-76594000D01*
G75*
G02*
X170513000Y-76419000I175000J0D01*
G01*
X170863000Y-76419000D01*
G75*
G02*
X171038000Y-76594000I0J-175000D01*
G01*
X171038000Y-78894000D01*
G75*
G02*
X170863000Y-79069000I-175000J0D01*
G01*
G37*
G36*
G01*
X169593000Y-79069000D02*
X169243000Y-79069000D01*
G75*
G02*
X169068000Y-78894000I0J175000D01*
G01*
X169068000Y-76594000D01*
G75*
G02*
X169243000Y-76419000I175000J0D01*
G01*
X169593000Y-76419000D01*
G75*
G02*
X169768000Y-76594000I0J-175000D01*
G01*
X169768000Y-78894000D01*
G75*
G02*
X169593000Y-79069000I-175000J0D01*
G01*
G37*
G36*
G01*
X168323000Y-79069000D02*
X167973000Y-79069000D01*
G75*
G02*
X167798000Y-78894000I0J175000D01*
G01*
X167798000Y-76594000D01*
G75*
G02*
X167973000Y-76419000I175000J0D01*
G01*
X168323000Y-76419000D01*
G75*
G02*
X168498000Y-76594000I0J-175000D01*
G01*
X168498000Y-78894000D01*
G75*
G02*
X168323000Y-79069000I-175000J0D01*
G01*
G37*
G36*
G01*
X167053000Y-79069000D02*
X166703000Y-79069000D01*
G75*
G02*
X166528000Y-78894000I0J175000D01*
G01*
X166528000Y-76594000D01*
G75*
G02*
X166703000Y-76419000I175000J0D01*
G01*
X167053000Y-76419000D01*
G75*
G02*
X167228000Y-76594000I0J-175000D01*
G01*
X167228000Y-78894000D01*
G75*
G02*
X167053000Y-79069000I-175000J0D01*
G01*
G37*
G36*
G01*
X165783000Y-79069000D02*
X165433000Y-79069000D01*
G75*
G02*
X165258000Y-78894000I0J175000D01*
G01*
X165258000Y-76594000D01*
G75*
G02*
X165433000Y-76419000I175000J0D01*
G01*
X165783000Y-76419000D01*
G75*
G02*
X165958000Y-76594000I0J-175000D01*
G01*
X165958000Y-78894000D01*
G75*
G02*
X165783000Y-79069000I-175000J0D01*
G01*
G37*
G36*
G01*
X164513000Y-79069000D02*
X164163000Y-79069000D01*
G75*
G02*
X163988000Y-78894000I0J175000D01*
G01*
X163988000Y-76594000D01*
G75*
G02*
X164163000Y-76419000I175000J0D01*
G01*
X164513000Y-76419000D01*
G75*
G02*
X164688000Y-76594000I0J-175000D01*
G01*
X164688000Y-78894000D01*
G75*
G02*
X164513000Y-79069000I-175000J0D01*
G01*
G37*
G36*
G01*
X163243000Y-79069000D02*
X162893000Y-79069000D01*
G75*
G02*
X162718000Y-78894000I0J175000D01*
G01*
X162718000Y-76594000D01*
G75*
G02*
X162893000Y-76419000I175000J0D01*
G01*
X163243000Y-76419000D01*
G75*
G02*
X163418000Y-76594000I0J-175000D01*
G01*
X163418000Y-78894000D01*
G75*
G02*
X163243000Y-79069000I-175000J0D01*
G01*
G37*
G36*
G01*
X161973000Y-79069000D02*
X161623000Y-79069000D01*
G75*
G02*
X161448000Y-78894000I0J175000D01*
G01*
X161448000Y-76594000D01*
G75*
G02*
X161623000Y-76419000I175000J0D01*
G01*
X161973000Y-76419000D01*
G75*
G02*
X162148000Y-76594000I0J-175000D01*
G01*
X162148000Y-78894000D01*
G75*
G02*
X161973000Y-79069000I-175000J0D01*
G01*
G37*
G36*
G01*
X160703000Y-79069000D02*
X160353000Y-79069000D01*
G75*
G02*
X160178000Y-78894000I0J175000D01*
G01*
X160178000Y-76594000D01*
G75*
G02*
X160353000Y-76419000I175000J0D01*
G01*
X160703000Y-76419000D01*
G75*
G02*
X160878000Y-76594000I0J-175000D01*
G01*
X160878000Y-78894000D01*
G75*
G02*
X160703000Y-79069000I-175000J0D01*
G01*
G37*
G36*
G01*
X159433000Y-79069000D02*
X159083000Y-79069000D01*
G75*
G02*
X158908000Y-78894000I0J175000D01*
G01*
X158908000Y-76594000D01*
G75*
G02*
X159083000Y-76419000I175000J0D01*
G01*
X159433000Y-76419000D01*
G75*
G02*
X159608000Y-76594000I0J-175000D01*
G01*
X159608000Y-78894000D01*
G75*
G02*
X159433000Y-79069000I-175000J0D01*
G01*
G37*
G36*
G01*
X158163000Y-79069000D02*
X157813000Y-79069000D01*
G75*
G02*
X157638000Y-78894000I0J175000D01*
G01*
X157638000Y-76594000D01*
G75*
G02*
X157813000Y-76419000I175000J0D01*
G01*
X158163000Y-76419000D01*
G75*
G02*
X158338000Y-76594000I0J-175000D01*
G01*
X158338000Y-78894000D01*
G75*
G02*
X158163000Y-79069000I-175000J0D01*
G01*
G37*
G36*
G01*
X156893000Y-79069000D02*
X156543000Y-79069000D01*
G75*
G02*
X156368000Y-78894000I0J175000D01*
G01*
X156368000Y-76594000D01*
G75*
G02*
X156543000Y-76419000I175000J0D01*
G01*
X156893000Y-76419000D01*
G75*
G02*
X157068000Y-76594000I0J-175000D01*
G01*
X157068000Y-78894000D01*
G75*
G02*
X156893000Y-79069000I-175000J0D01*
G01*
G37*
G36*
G01*
X155623000Y-79069000D02*
X155273000Y-79069000D01*
G75*
G02*
X155098000Y-78894000I0J175000D01*
G01*
X155098000Y-76594000D01*
G75*
G02*
X155273000Y-76419000I175000J0D01*
G01*
X155623000Y-76419000D01*
G75*
G02*
X155798000Y-76594000I0J-175000D01*
G01*
X155798000Y-78894000D01*
G75*
G02*
X155623000Y-79069000I-175000J0D01*
G01*
G37*
G36*
G01*
X154353000Y-79069000D02*
X154003000Y-79069000D01*
G75*
G02*
X153828000Y-78894000I0J175000D01*
G01*
X153828000Y-76594000D01*
G75*
G02*
X154003000Y-76419000I175000J0D01*
G01*
X154353000Y-76419000D01*
G75*
G02*
X154528000Y-76594000I0J-175000D01*
G01*
X154528000Y-78894000D01*
G75*
G02*
X154353000Y-79069000I-175000J0D01*
G01*
G37*
G36*
G01*
X153083000Y-79069000D02*
X152733000Y-79069000D01*
G75*
G02*
X152558000Y-78894000I0J175000D01*
G01*
X152558000Y-76594000D01*
G75*
G02*
X152733000Y-76419000I175000J0D01*
G01*
X153083000Y-76419000D01*
G75*
G02*
X153258000Y-76594000I0J-175000D01*
G01*
X153258000Y-78894000D01*
G75*
G02*
X153083000Y-79069000I-175000J0D01*
G01*
G37*
G36*
G01*
X151813000Y-79069000D02*
X151463000Y-79069000D01*
G75*
G02*
X151288000Y-78894000I0J175000D01*
G01*
X151288000Y-76594000D01*
G75*
G02*
X151463000Y-76419000I175000J0D01*
G01*
X151813000Y-76419000D01*
G75*
G02*
X151988000Y-76594000I0J-175000D01*
G01*
X151988000Y-78894000D01*
G75*
G02*
X151813000Y-79069000I-175000J0D01*
G01*
G37*
G36*
G01*
X150543000Y-79069000D02*
X150193000Y-79069000D01*
G75*
G02*
X150018000Y-78894000I0J175000D01*
G01*
X150018000Y-76594000D01*
G75*
G02*
X150193000Y-76419000I175000J0D01*
G01*
X150543000Y-76419000D01*
G75*
G02*
X150718000Y-76594000I0J-175000D01*
G01*
X150718000Y-78894000D01*
G75*
G02*
X150543000Y-79069000I-175000J0D01*
G01*
G37*
G36*
G01*
X149273000Y-79069000D02*
X148923000Y-79069000D01*
G75*
G02*
X148748000Y-78894000I0J175000D01*
G01*
X148748000Y-76594000D01*
G75*
G02*
X148923000Y-76419000I175000J0D01*
G01*
X149273000Y-76419000D01*
G75*
G02*
X149448000Y-76594000I0J-175000D01*
G01*
X149448000Y-78894000D01*
G75*
G02*
X149273000Y-79069000I-175000J0D01*
G01*
G37*
%TD*%
%TO.C,U7*%
G36*
G01*
X175943000Y-51724000D02*
X175593000Y-51724000D01*
G75*
G02*
X175418000Y-51549000I0J175000D01*
G01*
X175418000Y-49249000D01*
G75*
G02*
X175593000Y-49074000I175000J0D01*
G01*
X175943000Y-49074000D01*
G75*
G02*
X176118000Y-49249000I0J-175000D01*
G01*
X176118000Y-51549000D01*
G75*
G02*
X175943000Y-51724000I-175000J0D01*
G01*
G37*
G36*
G01*
X177213000Y-51724000D02*
X176863000Y-51724000D01*
G75*
G02*
X176688000Y-51549000I0J175000D01*
G01*
X176688000Y-49249000D01*
G75*
G02*
X176863000Y-49074000I175000J0D01*
G01*
X177213000Y-49074000D01*
G75*
G02*
X177388000Y-49249000I0J-175000D01*
G01*
X177388000Y-51549000D01*
G75*
G02*
X177213000Y-51724000I-175000J0D01*
G01*
G37*
G36*
G01*
X178483000Y-51724000D02*
X178133000Y-51724000D01*
G75*
G02*
X177958000Y-51549000I0J175000D01*
G01*
X177958000Y-49249000D01*
G75*
G02*
X178133000Y-49074000I175000J0D01*
G01*
X178483000Y-49074000D01*
G75*
G02*
X178658000Y-49249000I0J-175000D01*
G01*
X178658000Y-51549000D01*
G75*
G02*
X178483000Y-51724000I-175000J0D01*
G01*
G37*
G36*
G01*
X179753000Y-51724000D02*
X179403000Y-51724000D01*
G75*
G02*
X179228000Y-51549000I0J175000D01*
G01*
X179228000Y-49249000D01*
G75*
G02*
X179403000Y-49074000I175000J0D01*
G01*
X179753000Y-49074000D01*
G75*
G02*
X179928000Y-49249000I0J-175000D01*
G01*
X179928000Y-51549000D01*
G75*
G02*
X179753000Y-51724000I-175000J0D01*
G01*
G37*
G36*
G01*
X181023000Y-51724000D02*
X180673000Y-51724000D01*
G75*
G02*
X180498000Y-51549000I0J175000D01*
G01*
X180498000Y-49249000D01*
G75*
G02*
X180673000Y-49074000I175000J0D01*
G01*
X181023000Y-49074000D01*
G75*
G02*
X181198000Y-49249000I0J-175000D01*
G01*
X181198000Y-51549000D01*
G75*
G02*
X181023000Y-51724000I-175000J0D01*
G01*
G37*
G36*
G01*
X182293000Y-51724000D02*
X181943000Y-51724000D01*
G75*
G02*
X181768000Y-51549000I0J175000D01*
G01*
X181768000Y-49249000D01*
G75*
G02*
X181943000Y-49074000I175000J0D01*
G01*
X182293000Y-49074000D01*
G75*
G02*
X182468000Y-49249000I0J-175000D01*
G01*
X182468000Y-51549000D01*
G75*
G02*
X182293000Y-51724000I-175000J0D01*
G01*
G37*
G36*
G01*
X183563000Y-51724000D02*
X183213000Y-51724000D01*
G75*
G02*
X183038000Y-51549000I0J175000D01*
G01*
X183038000Y-49249000D01*
G75*
G02*
X183213000Y-49074000I175000J0D01*
G01*
X183563000Y-49074000D01*
G75*
G02*
X183738000Y-49249000I0J-175000D01*
G01*
X183738000Y-51549000D01*
G75*
G02*
X183563000Y-51724000I-175000J0D01*
G01*
G37*
G36*
G01*
X184833000Y-51724000D02*
X184483000Y-51724000D01*
G75*
G02*
X184308000Y-51549000I0J175000D01*
G01*
X184308000Y-49249000D01*
G75*
G02*
X184483000Y-49074000I175000J0D01*
G01*
X184833000Y-49074000D01*
G75*
G02*
X185008000Y-49249000I0J-175000D01*
G01*
X185008000Y-51549000D01*
G75*
G02*
X184833000Y-51724000I-175000J0D01*
G01*
G37*
G36*
G01*
X186103000Y-51724000D02*
X185753000Y-51724000D01*
G75*
G02*
X185578000Y-51549000I0J175000D01*
G01*
X185578000Y-49249000D01*
G75*
G02*
X185753000Y-49074000I175000J0D01*
G01*
X186103000Y-49074000D01*
G75*
G02*
X186278000Y-49249000I0J-175000D01*
G01*
X186278000Y-51549000D01*
G75*
G02*
X186103000Y-51724000I-175000J0D01*
G01*
G37*
G36*
G01*
X187373000Y-51724000D02*
X187023000Y-51724000D01*
G75*
G02*
X186848000Y-51549000I0J175000D01*
G01*
X186848000Y-49249000D01*
G75*
G02*
X187023000Y-49074000I175000J0D01*
G01*
X187373000Y-49074000D01*
G75*
G02*
X187548000Y-49249000I0J-175000D01*
G01*
X187548000Y-51549000D01*
G75*
G02*
X187373000Y-51724000I-175000J0D01*
G01*
G37*
G36*
G01*
X188643000Y-51724000D02*
X188293000Y-51724000D01*
G75*
G02*
X188118000Y-51549000I0J175000D01*
G01*
X188118000Y-49249000D01*
G75*
G02*
X188293000Y-49074000I175000J0D01*
G01*
X188643000Y-49074000D01*
G75*
G02*
X188818000Y-49249000I0J-175000D01*
G01*
X188818000Y-51549000D01*
G75*
G02*
X188643000Y-51724000I-175000J0D01*
G01*
G37*
G36*
G01*
X189913000Y-51724000D02*
X189563000Y-51724000D01*
G75*
G02*
X189388000Y-51549000I0J175000D01*
G01*
X189388000Y-49249000D01*
G75*
G02*
X189563000Y-49074000I175000J0D01*
G01*
X189913000Y-49074000D01*
G75*
G02*
X190088000Y-49249000I0J-175000D01*
G01*
X190088000Y-51549000D01*
G75*
G02*
X189913000Y-51724000I-175000J0D01*
G01*
G37*
G36*
G01*
X191183000Y-51724000D02*
X190833000Y-51724000D01*
G75*
G02*
X190658000Y-51549000I0J175000D01*
G01*
X190658000Y-49249000D01*
G75*
G02*
X190833000Y-49074000I175000J0D01*
G01*
X191183000Y-49074000D01*
G75*
G02*
X191358000Y-49249000I0J-175000D01*
G01*
X191358000Y-51549000D01*
G75*
G02*
X191183000Y-51724000I-175000J0D01*
G01*
G37*
G36*
G01*
X192453000Y-51724000D02*
X192103000Y-51724000D01*
G75*
G02*
X191928000Y-51549000I0J175000D01*
G01*
X191928000Y-49249000D01*
G75*
G02*
X192103000Y-49074000I175000J0D01*
G01*
X192453000Y-49074000D01*
G75*
G02*
X192628000Y-49249000I0J-175000D01*
G01*
X192628000Y-51549000D01*
G75*
G02*
X192453000Y-51724000I-175000J0D01*
G01*
G37*
G36*
G01*
X193723000Y-51724000D02*
X193373000Y-51724000D01*
G75*
G02*
X193198000Y-51549000I0J175000D01*
G01*
X193198000Y-49249000D01*
G75*
G02*
X193373000Y-49074000I175000J0D01*
G01*
X193723000Y-49074000D01*
G75*
G02*
X193898000Y-49249000I0J-175000D01*
G01*
X193898000Y-51549000D01*
G75*
G02*
X193723000Y-51724000I-175000J0D01*
G01*
G37*
G36*
G01*
X194993000Y-51724000D02*
X194643000Y-51724000D01*
G75*
G02*
X194468000Y-51549000I0J175000D01*
G01*
X194468000Y-49249000D01*
G75*
G02*
X194643000Y-49074000I175000J0D01*
G01*
X194993000Y-49074000D01*
G75*
G02*
X195168000Y-49249000I0J-175000D01*
G01*
X195168000Y-51549000D01*
G75*
G02*
X194993000Y-51724000I-175000J0D01*
G01*
G37*
G36*
G01*
X196263000Y-51724000D02*
X195913000Y-51724000D01*
G75*
G02*
X195738000Y-51549000I0J175000D01*
G01*
X195738000Y-49249000D01*
G75*
G02*
X195913000Y-49074000I175000J0D01*
G01*
X196263000Y-49074000D01*
G75*
G02*
X196438000Y-49249000I0J-175000D01*
G01*
X196438000Y-51549000D01*
G75*
G02*
X196263000Y-51724000I-175000J0D01*
G01*
G37*
G36*
G01*
X197533000Y-51724000D02*
X197183000Y-51724000D01*
G75*
G02*
X197008000Y-51549000I0J175000D01*
G01*
X197008000Y-49249000D01*
G75*
G02*
X197183000Y-49074000I175000J0D01*
G01*
X197533000Y-49074000D01*
G75*
G02*
X197708000Y-49249000I0J-175000D01*
G01*
X197708000Y-51549000D01*
G75*
G02*
X197533000Y-51724000I-175000J0D01*
G01*
G37*
G36*
G01*
X197533000Y-61924000D02*
X197183000Y-61924000D01*
G75*
G02*
X197008000Y-61749000I0J175000D01*
G01*
X197008000Y-59449000D01*
G75*
G02*
X197183000Y-59274000I175000J0D01*
G01*
X197533000Y-59274000D01*
G75*
G02*
X197708000Y-59449000I0J-175000D01*
G01*
X197708000Y-61749000D01*
G75*
G02*
X197533000Y-61924000I-175000J0D01*
G01*
G37*
G36*
G01*
X196263000Y-61924000D02*
X195913000Y-61924000D01*
G75*
G02*
X195738000Y-61749000I0J175000D01*
G01*
X195738000Y-59449000D01*
G75*
G02*
X195913000Y-59274000I175000J0D01*
G01*
X196263000Y-59274000D01*
G75*
G02*
X196438000Y-59449000I0J-175000D01*
G01*
X196438000Y-61749000D01*
G75*
G02*
X196263000Y-61924000I-175000J0D01*
G01*
G37*
G36*
G01*
X194993000Y-61924000D02*
X194643000Y-61924000D01*
G75*
G02*
X194468000Y-61749000I0J175000D01*
G01*
X194468000Y-59449000D01*
G75*
G02*
X194643000Y-59274000I175000J0D01*
G01*
X194993000Y-59274000D01*
G75*
G02*
X195168000Y-59449000I0J-175000D01*
G01*
X195168000Y-61749000D01*
G75*
G02*
X194993000Y-61924000I-175000J0D01*
G01*
G37*
G36*
G01*
X193723000Y-61924000D02*
X193373000Y-61924000D01*
G75*
G02*
X193198000Y-61749000I0J175000D01*
G01*
X193198000Y-59449000D01*
G75*
G02*
X193373000Y-59274000I175000J0D01*
G01*
X193723000Y-59274000D01*
G75*
G02*
X193898000Y-59449000I0J-175000D01*
G01*
X193898000Y-61749000D01*
G75*
G02*
X193723000Y-61924000I-175000J0D01*
G01*
G37*
G36*
G01*
X192453000Y-61924000D02*
X192103000Y-61924000D01*
G75*
G02*
X191928000Y-61749000I0J175000D01*
G01*
X191928000Y-59449000D01*
G75*
G02*
X192103000Y-59274000I175000J0D01*
G01*
X192453000Y-59274000D01*
G75*
G02*
X192628000Y-59449000I0J-175000D01*
G01*
X192628000Y-61749000D01*
G75*
G02*
X192453000Y-61924000I-175000J0D01*
G01*
G37*
G36*
G01*
X191183000Y-61924000D02*
X190833000Y-61924000D01*
G75*
G02*
X190658000Y-61749000I0J175000D01*
G01*
X190658000Y-59449000D01*
G75*
G02*
X190833000Y-59274000I175000J0D01*
G01*
X191183000Y-59274000D01*
G75*
G02*
X191358000Y-59449000I0J-175000D01*
G01*
X191358000Y-61749000D01*
G75*
G02*
X191183000Y-61924000I-175000J0D01*
G01*
G37*
G36*
G01*
X189913000Y-61924000D02*
X189563000Y-61924000D01*
G75*
G02*
X189388000Y-61749000I0J175000D01*
G01*
X189388000Y-59449000D01*
G75*
G02*
X189563000Y-59274000I175000J0D01*
G01*
X189913000Y-59274000D01*
G75*
G02*
X190088000Y-59449000I0J-175000D01*
G01*
X190088000Y-61749000D01*
G75*
G02*
X189913000Y-61924000I-175000J0D01*
G01*
G37*
G36*
G01*
X188643000Y-61924000D02*
X188293000Y-61924000D01*
G75*
G02*
X188118000Y-61749000I0J175000D01*
G01*
X188118000Y-59449000D01*
G75*
G02*
X188293000Y-59274000I175000J0D01*
G01*
X188643000Y-59274000D01*
G75*
G02*
X188818000Y-59449000I0J-175000D01*
G01*
X188818000Y-61749000D01*
G75*
G02*
X188643000Y-61924000I-175000J0D01*
G01*
G37*
G36*
G01*
X187373000Y-61924000D02*
X187023000Y-61924000D01*
G75*
G02*
X186848000Y-61749000I0J175000D01*
G01*
X186848000Y-59449000D01*
G75*
G02*
X187023000Y-59274000I175000J0D01*
G01*
X187373000Y-59274000D01*
G75*
G02*
X187548000Y-59449000I0J-175000D01*
G01*
X187548000Y-61749000D01*
G75*
G02*
X187373000Y-61924000I-175000J0D01*
G01*
G37*
G36*
G01*
X186103000Y-61924000D02*
X185753000Y-61924000D01*
G75*
G02*
X185578000Y-61749000I0J175000D01*
G01*
X185578000Y-59449000D01*
G75*
G02*
X185753000Y-59274000I175000J0D01*
G01*
X186103000Y-59274000D01*
G75*
G02*
X186278000Y-59449000I0J-175000D01*
G01*
X186278000Y-61749000D01*
G75*
G02*
X186103000Y-61924000I-175000J0D01*
G01*
G37*
G36*
G01*
X184833000Y-61924000D02*
X184483000Y-61924000D01*
G75*
G02*
X184308000Y-61749000I0J175000D01*
G01*
X184308000Y-59449000D01*
G75*
G02*
X184483000Y-59274000I175000J0D01*
G01*
X184833000Y-59274000D01*
G75*
G02*
X185008000Y-59449000I0J-175000D01*
G01*
X185008000Y-61749000D01*
G75*
G02*
X184833000Y-61924000I-175000J0D01*
G01*
G37*
G36*
G01*
X183563000Y-61924000D02*
X183213000Y-61924000D01*
G75*
G02*
X183038000Y-61749000I0J175000D01*
G01*
X183038000Y-59449000D01*
G75*
G02*
X183213000Y-59274000I175000J0D01*
G01*
X183563000Y-59274000D01*
G75*
G02*
X183738000Y-59449000I0J-175000D01*
G01*
X183738000Y-61749000D01*
G75*
G02*
X183563000Y-61924000I-175000J0D01*
G01*
G37*
G36*
G01*
X182293000Y-61924000D02*
X181943000Y-61924000D01*
G75*
G02*
X181768000Y-61749000I0J175000D01*
G01*
X181768000Y-59449000D01*
G75*
G02*
X181943000Y-59274000I175000J0D01*
G01*
X182293000Y-59274000D01*
G75*
G02*
X182468000Y-59449000I0J-175000D01*
G01*
X182468000Y-61749000D01*
G75*
G02*
X182293000Y-61924000I-175000J0D01*
G01*
G37*
G36*
G01*
X181023000Y-61924000D02*
X180673000Y-61924000D01*
G75*
G02*
X180498000Y-61749000I0J175000D01*
G01*
X180498000Y-59449000D01*
G75*
G02*
X180673000Y-59274000I175000J0D01*
G01*
X181023000Y-59274000D01*
G75*
G02*
X181198000Y-59449000I0J-175000D01*
G01*
X181198000Y-61749000D01*
G75*
G02*
X181023000Y-61924000I-175000J0D01*
G01*
G37*
G36*
G01*
X179753000Y-61924000D02*
X179403000Y-61924000D01*
G75*
G02*
X179228000Y-61749000I0J175000D01*
G01*
X179228000Y-59449000D01*
G75*
G02*
X179403000Y-59274000I175000J0D01*
G01*
X179753000Y-59274000D01*
G75*
G02*
X179928000Y-59449000I0J-175000D01*
G01*
X179928000Y-61749000D01*
G75*
G02*
X179753000Y-61924000I-175000J0D01*
G01*
G37*
G36*
G01*
X178483000Y-61924000D02*
X178133000Y-61924000D01*
G75*
G02*
X177958000Y-61749000I0J175000D01*
G01*
X177958000Y-59449000D01*
G75*
G02*
X178133000Y-59274000I175000J0D01*
G01*
X178483000Y-59274000D01*
G75*
G02*
X178658000Y-59449000I0J-175000D01*
G01*
X178658000Y-61749000D01*
G75*
G02*
X178483000Y-61924000I-175000J0D01*
G01*
G37*
G36*
G01*
X177213000Y-61924000D02*
X176863000Y-61924000D01*
G75*
G02*
X176688000Y-61749000I0J175000D01*
G01*
X176688000Y-59449000D01*
G75*
G02*
X176863000Y-59274000I175000J0D01*
G01*
X177213000Y-59274000D01*
G75*
G02*
X177388000Y-59449000I0J-175000D01*
G01*
X177388000Y-61749000D01*
G75*
G02*
X177213000Y-61924000I-175000J0D01*
G01*
G37*
G36*
G01*
X175943000Y-61924000D02*
X175593000Y-61924000D01*
G75*
G02*
X175418000Y-61749000I0J175000D01*
G01*
X175418000Y-59449000D01*
G75*
G02*
X175593000Y-59274000I175000J0D01*
G01*
X175943000Y-59274000D01*
G75*
G02*
X176118000Y-59449000I0J-175000D01*
G01*
X176118000Y-61749000D01*
G75*
G02*
X175943000Y-61924000I-175000J0D01*
G01*
G37*
%TD*%
%TO.C,U6*%
G36*
G01*
X149273000Y-51724000D02*
X148923000Y-51724000D01*
G75*
G02*
X148748000Y-51549000I0J175000D01*
G01*
X148748000Y-49249000D01*
G75*
G02*
X148923000Y-49074000I175000J0D01*
G01*
X149273000Y-49074000D01*
G75*
G02*
X149448000Y-49249000I0J-175000D01*
G01*
X149448000Y-51549000D01*
G75*
G02*
X149273000Y-51724000I-175000J0D01*
G01*
G37*
G36*
G01*
X150543000Y-51724000D02*
X150193000Y-51724000D01*
G75*
G02*
X150018000Y-51549000I0J175000D01*
G01*
X150018000Y-49249000D01*
G75*
G02*
X150193000Y-49074000I175000J0D01*
G01*
X150543000Y-49074000D01*
G75*
G02*
X150718000Y-49249000I0J-175000D01*
G01*
X150718000Y-51549000D01*
G75*
G02*
X150543000Y-51724000I-175000J0D01*
G01*
G37*
G36*
G01*
X151813000Y-51724000D02*
X151463000Y-51724000D01*
G75*
G02*
X151288000Y-51549000I0J175000D01*
G01*
X151288000Y-49249000D01*
G75*
G02*
X151463000Y-49074000I175000J0D01*
G01*
X151813000Y-49074000D01*
G75*
G02*
X151988000Y-49249000I0J-175000D01*
G01*
X151988000Y-51549000D01*
G75*
G02*
X151813000Y-51724000I-175000J0D01*
G01*
G37*
G36*
G01*
X153083000Y-51724000D02*
X152733000Y-51724000D01*
G75*
G02*
X152558000Y-51549000I0J175000D01*
G01*
X152558000Y-49249000D01*
G75*
G02*
X152733000Y-49074000I175000J0D01*
G01*
X153083000Y-49074000D01*
G75*
G02*
X153258000Y-49249000I0J-175000D01*
G01*
X153258000Y-51549000D01*
G75*
G02*
X153083000Y-51724000I-175000J0D01*
G01*
G37*
G36*
G01*
X154353000Y-51724000D02*
X154003000Y-51724000D01*
G75*
G02*
X153828000Y-51549000I0J175000D01*
G01*
X153828000Y-49249000D01*
G75*
G02*
X154003000Y-49074000I175000J0D01*
G01*
X154353000Y-49074000D01*
G75*
G02*
X154528000Y-49249000I0J-175000D01*
G01*
X154528000Y-51549000D01*
G75*
G02*
X154353000Y-51724000I-175000J0D01*
G01*
G37*
G36*
G01*
X155623000Y-51724000D02*
X155273000Y-51724000D01*
G75*
G02*
X155098000Y-51549000I0J175000D01*
G01*
X155098000Y-49249000D01*
G75*
G02*
X155273000Y-49074000I175000J0D01*
G01*
X155623000Y-49074000D01*
G75*
G02*
X155798000Y-49249000I0J-175000D01*
G01*
X155798000Y-51549000D01*
G75*
G02*
X155623000Y-51724000I-175000J0D01*
G01*
G37*
G36*
G01*
X156893000Y-51724000D02*
X156543000Y-51724000D01*
G75*
G02*
X156368000Y-51549000I0J175000D01*
G01*
X156368000Y-49249000D01*
G75*
G02*
X156543000Y-49074000I175000J0D01*
G01*
X156893000Y-49074000D01*
G75*
G02*
X157068000Y-49249000I0J-175000D01*
G01*
X157068000Y-51549000D01*
G75*
G02*
X156893000Y-51724000I-175000J0D01*
G01*
G37*
G36*
G01*
X158163000Y-51724000D02*
X157813000Y-51724000D01*
G75*
G02*
X157638000Y-51549000I0J175000D01*
G01*
X157638000Y-49249000D01*
G75*
G02*
X157813000Y-49074000I175000J0D01*
G01*
X158163000Y-49074000D01*
G75*
G02*
X158338000Y-49249000I0J-175000D01*
G01*
X158338000Y-51549000D01*
G75*
G02*
X158163000Y-51724000I-175000J0D01*
G01*
G37*
G36*
G01*
X159433000Y-51724000D02*
X159083000Y-51724000D01*
G75*
G02*
X158908000Y-51549000I0J175000D01*
G01*
X158908000Y-49249000D01*
G75*
G02*
X159083000Y-49074000I175000J0D01*
G01*
X159433000Y-49074000D01*
G75*
G02*
X159608000Y-49249000I0J-175000D01*
G01*
X159608000Y-51549000D01*
G75*
G02*
X159433000Y-51724000I-175000J0D01*
G01*
G37*
G36*
G01*
X160703000Y-51724000D02*
X160353000Y-51724000D01*
G75*
G02*
X160178000Y-51549000I0J175000D01*
G01*
X160178000Y-49249000D01*
G75*
G02*
X160353000Y-49074000I175000J0D01*
G01*
X160703000Y-49074000D01*
G75*
G02*
X160878000Y-49249000I0J-175000D01*
G01*
X160878000Y-51549000D01*
G75*
G02*
X160703000Y-51724000I-175000J0D01*
G01*
G37*
G36*
G01*
X161973000Y-51724000D02*
X161623000Y-51724000D01*
G75*
G02*
X161448000Y-51549000I0J175000D01*
G01*
X161448000Y-49249000D01*
G75*
G02*
X161623000Y-49074000I175000J0D01*
G01*
X161973000Y-49074000D01*
G75*
G02*
X162148000Y-49249000I0J-175000D01*
G01*
X162148000Y-51549000D01*
G75*
G02*
X161973000Y-51724000I-175000J0D01*
G01*
G37*
G36*
G01*
X163243000Y-51724000D02*
X162893000Y-51724000D01*
G75*
G02*
X162718000Y-51549000I0J175000D01*
G01*
X162718000Y-49249000D01*
G75*
G02*
X162893000Y-49074000I175000J0D01*
G01*
X163243000Y-49074000D01*
G75*
G02*
X163418000Y-49249000I0J-175000D01*
G01*
X163418000Y-51549000D01*
G75*
G02*
X163243000Y-51724000I-175000J0D01*
G01*
G37*
G36*
G01*
X164513000Y-51724000D02*
X164163000Y-51724000D01*
G75*
G02*
X163988000Y-51549000I0J175000D01*
G01*
X163988000Y-49249000D01*
G75*
G02*
X164163000Y-49074000I175000J0D01*
G01*
X164513000Y-49074000D01*
G75*
G02*
X164688000Y-49249000I0J-175000D01*
G01*
X164688000Y-51549000D01*
G75*
G02*
X164513000Y-51724000I-175000J0D01*
G01*
G37*
G36*
G01*
X165783000Y-51724000D02*
X165433000Y-51724000D01*
G75*
G02*
X165258000Y-51549000I0J175000D01*
G01*
X165258000Y-49249000D01*
G75*
G02*
X165433000Y-49074000I175000J0D01*
G01*
X165783000Y-49074000D01*
G75*
G02*
X165958000Y-49249000I0J-175000D01*
G01*
X165958000Y-51549000D01*
G75*
G02*
X165783000Y-51724000I-175000J0D01*
G01*
G37*
G36*
G01*
X167053000Y-51724000D02*
X166703000Y-51724000D01*
G75*
G02*
X166528000Y-51549000I0J175000D01*
G01*
X166528000Y-49249000D01*
G75*
G02*
X166703000Y-49074000I175000J0D01*
G01*
X167053000Y-49074000D01*
G75*
G02*
X167228000Y-49249000I0J-175000D01*
G01*
X167228000Y-51549000D01*
G75*
G02*
X167053000Y-51724000I-175000J0D01*
G01*
G37*
G36*
G01*
X168323000Y-51724000D02*
X167973000Y-51724000D01*
G75*
G02*
X167798000Y-51549000I0J175000D01*
G01*
X167798000Y-49249000D01*
G75*
G02*
X167973000Y-49074000I175000J0D01*
G01*
X168323000Y-49074000D01*
G75*
G02*
X168498000Y-49249000I0J-175000D01*
G01*
X168498000Y-51549000D01*
G75*
G02*
X168323000Y-51724000I-175000J0D01*
G01*
G37*
G36*
G01*
X169593000Y-51724000D02*
X169243000Y-51724000D01*
G75*
G02*
X169068000Y-51549000I0J175000D01*
G01*
X169068000Y-49249000D01*
G75*
G02*
X169243000Y-49074000I175000J0D01*
G01*
X169593000Y-49074000D01*
G75*
G02*
X169768000Y-49249000I0J-175000D01*
G01*
X169768000Y-51549000D01*
G75*
G02*
X169593000Y-51724000I-175000J0D01*
G01*
G37*
G36*
G01*
X170863000Y-51724000D02*
X170513000Y-51724000D01*
G75*
G02*
X170338000Y-51549000I0J175000D01*
G01*
X170338000Y-49249000D01*
G75*
G02*
X170513000Y-49074000I175000J0D01*
G01*
X170863000Y-49074000D01*
G75*
G02*
X171038000Y-49249000I0J-175000D01*
G01*
X171038000Y-51549000D01*
G75*
G02*
X170863000Y-51724000I-175000J0D01*
G01*
G37*
G36*
G01*
X170863000Y-61924000D02*
X170513000Y-61924000D01*
G75*
G02*
X170338000Y-61749000I0J175000D01*
G01*
X170338000Y-59449000D01*
G75*
G02*
X170513000Y-59274000I175000J0D01*
G01*
X170863000Y-59274000D01*
G75*
G02*
X171038000Y-59449000I0J-175000D01*
G01*
X171038000Y-61749000D01*
G75*
G02*
X170863000Y-61924000I-175000J0D01*
G01*
G37*
G36*
G01*
X169593000Y-61924000D02*
X169243000Y-61924000D01*
G75*
G02*
X169068000Y-61749000I0J175000D01*
G01*
X169068000Y-59449000D01*
G75*
G02*
X169243000Y-59274000I175000J0D01*
G01*
X169593000Y-59274000D01*
G75*
G02*
X169768000Y-59449000I0J-175000D01*
G01*
X169768000Y-61749000D01*
G75*
G02*
X169593000Y-61924000I-175000J0D01*
G01*
G37*
G36*
G01*
X168323000Y-61924000D02*
X167973000Y-61924000D01*
G75*
G02*
X167798000Y-61749000I0J175000D01*
G01*
X167798000Y-59449000D01*
G75*
G02*
X167973000Y-59274000I175000J0D01*
G01*
X168323000Y-59274000D01*
G75*
G02*
X168498000Y-59449000I0J-175000D01*
G01*
X168498000Y-61749000D01*
G75*
G02*
X168323000Y-61924000I-175000J0D01*
G01*
G37*
G36*
G01*
X167053000Y-61924000D02*
X166703000Y-61924000D01*
G75*
G02*
X166528000Y-61749000I0J175000D01*
G01*
X166528000Y-59449000D01*
G75*
G02*
X166703000Y-59274000I175000J0D01*
G01*
X167053000Y-59274000D01*
G75*
G02*
X167228000Y-59449000I0J-175000D01*
G01*
X167228000Y-61749000D01*
G75*
G02*
X167053000Y-61924000I-175000J0D01*
G01*
G37*
G36*
G01*
X165783000Y-61924000D02*
X165433000Y-61924000D01*
G75*
G02*
X165258000Y-61749000I0J175000D01*
G01*
X165258000Y-59449000D01*
G75*
G02*
X165433000Y-59274000I175000J0D01*
G01*
X165783000Y-59274000D01*
G75*
G02*
X165958000Y-59449000I0J-175000D01*
G01*
X165958000Y-61749000D01*
G75*
G02*
X165783000Y-61924000I-175000J0D01*
G01*
G37*
G36*
G01*
X164513000Y-61924000D02*
X164163000Y-61924000D01*
G75*
G02*
X163988000Y-61749000I0J175000D01*
G01*
X163988000Y-59449000D01*
G75*
G02*
X164163000Y-59274000I175000J0D01*
G01*
X164513000Y-59274000D01*
G75*
G02*
X164688000Y-59449000I0J-175000D01*
G01*
X164688000Y-61749000D01*
G75*
G02*
X164513000Y-61924000I-175000J0D01*
G01*
G37*
G36*
G01*
X163243000Y-61924000D02*
X162893000Y-61924000D01*
G75*
G02*
X162718000Y-61749000I0J175000D01*
G01*
X162718000Y-59449000D01*
G75*
G02*
X162893000Y-59274000I175000J0D01*
G01*
X163243000Y-59274000D01*
G75*
G02*
X163418000Y-59449000I0J-175000D01*
G01*
X163418000Y-61749000D01*
G75*
G02*
X163243000Y-61924000I-175000J0D01*
G01*
G37*
G36*
G01*
X161973000Y-61924000D02*
X161623000Y-61924000D01*
G75*
G02*
X161448000Y-61749000I0J175000D01*
G01*
X161448000Y-59449000D01*
G75*
G02*
X161623000Y-59274000I175000J0D01*
G01*
X161973000Y-59274000D01*
G75*
G02*
X162148000Y-59449000I0J-175000D01*
G01*
X162148000Y-61749000D01*
G75*
G02*
X161973000Y-61924000I-175000J0D01*
G01*
G37*
G36*
G01*
X160703000Y-61924000D02*
X160353000Y-61924000D01*
G75*
G02*
X160178000Y-61749000I0J175000D01*
G01*
X160178000Y-59449000D01*
G75*
G02*
X160353000Y-59274000I175000J0D01*
G01*
X160703000Y-59274000D01*
G75*
G02*
X160878000Y-59449000I0J-175000D01*
G01*
X160878000Y-61749000D01*
G75*
G02*
X160703000Y-61924000I-175000J0D01*
G01*
G37*
G36*
G01*
X159433000Y-61924000D02*
X159083000Y-61924000D01*
G75*
G02*
X158908000Y-61749000I0J175000D01*
G01*
X158908000Y-59449000D01*
G75*
G02*
X159083000Y-59274000I175000J0D01*
G01*
X159433000Y-59274000D01*
G75*
G02*
X159608000Y-59449000I0J-175000D01*
G01*
X159608000Y-61749000D01*
G75*
G02*
X159433000Y-61924000I-175000J0D01*
G01*
G37*
G36*
G01*
X158163000Y-61924000D02*
X157813000Y-61924000D01*
G75*
G02*
X157638000Y-61749000I0J175000D01*
G01*
X157638000Y-59449000D01*
G75*
G02*
X157813000Y-59274000I175000J0D01*
G01*
X158163000Y-59274000D01*
G75*
G02*
X158338000Y-59449000I0J-175000D01*
G01*
X158338000Y-61749000D01*
G75*
G02*
X158163000Y-61924000I-175000J0D01*
G01*
G37*
G36*
G01*
X156893000Y-61924000D02*
X156543000Y-61924000D01*
G75*
G02*
X156368000Y-61749000I0J175000D01*
G01*
X156368000Y-59449000D01*
G75*
G02*
X156543000Y-59274000I175000J0D01*
G01*
X156893000Y-59274000D01*
G75*
G02*
X157068000Y-59449000I0J-175000D01*
G01*
X157068000Y-61749000D01*
G75*
G02*
X156893000Y-61924000I-175000J0D01*
G01*
G37*
G36*
G01*
X155623000Y-61924000D02*
X155273000Y-61924000D01*
G75*
G02*
X155098000Y-61749000I0J175000D01*
G01*
X155098000Y-59449000D01*
G75*
G02*
X155273000Y-59274000I175000J0D01*
G01*
X155623000Y-59274000D01*
G75*
G02*
X155798000Y-59449000I0J-175000D01*
G01*
X155798000Y-61749000D01*
G75*
G02*
X155623000Y-61924000I-175000J0D01*
G01*
G37*
G36*
G01*
X154353000Y-61924000D02*
X154003000Y-61924000D01*
G75*
G02*
X153828000Y-61749000I0J175000D01*
G01*
X153828000Y-59449000D01*
G75*
G02*
X154003000Y-59274000I175000J0D01*
G01*
X154353000Y-59274000D01*
G75*
G02*
X154528000Y-59449000I0J-175000D01*
G01*
X154528000Y-61749000D01*
G75*
G02*
X154353000Y-61924000I-175000J0D01*
G01*
G37*
G36*
G01*
X153083000Y-61924000D02*
X152733000Y-61924000D01*
G75*
G02*
X152558000Y-61749000I0J175000D01*
G01*
X152558000Y-59449000D01*
G75*
G02*
X152733000Y-59274000I175000J0D01*
G01*
X153083000Y-59274000D01*
G75*
G02*
X153258000Y-59449000I0J-175000D01*
G01*
X153258000Y-61749000D01*
G75*
G02*
X153083000Y-61924000I-175000J0D01*
G01*
G37*
G36*
G01*
X151813000Y-61924000D02*
X151463000Y-61924000D01*
G75*
G02*
X151288000Y-61749000I0J175000D01*
G01*
X151288000Y-59449000D01*
G75*
G02*
X151463000Y-59274000I175000J0D01*
G01*
X151813000Y-59274000D01*
G75*
G02*
X151988000Y-59449000I0J-175000D01*
G01*
X151988000Y-61749000D01*
G75*
G02*
X151813000Y-61924000I-175000J0D01*
G01*
G37*
G36*
G01*
X150543000Y-61924000D02*
X150193000Y-61924000D01*
G75*
G02*
X150018000Y-61749000I0J175000D01*
G01*
X150018000Y-59449000D01*
G75*
G02*
X150193000Y-59274000I175000J0D01*
G01*
X150543000Y-59274000D01*
G75*
G02*
X150718000Y-59449000I0J-175000D01*
G01*
X150718000Y-61749000D01*
G75*
G02*
X150543000Y-61924000I-175000J0D01*
G01*
G37*
G36*
G01*
X149273000Y-61924000D02*
X148923000Y-61924000D01*
G75*
G02*
X148748000Y-61749000I0J175000D01*
G01*
X148748000Y-59449000D01*
G75*
G02*
X148923000Y-59274000I175000J0D01*
G01*
X149273000Y-59274000D01*
G75*
G02*
X149448000Y-59449000I0J-175000D01*
G01*
X149448000Y-61749000D01*
G75*
G02*
X149273000Y-61924000I-175000J0D01*
G01*
G37*
%TD*%
D11*
%TO.C,U1*%
X48387000Y-104140000D03*
X127127000Y-127000000D03*
X50927000Y-104140000D03*
X124587000Y-127000000D03*
X53467000Y-104140000D03*
X122047000Y-127000000D03*
X56007000Y-104140000D03*
X119507000Y-127000000D03*
X58547000Y-104140000D03*
X116967000Y-127000000D03*
X61087000Y-104140000D03*
X114427000Y-127000000D03*
X63627000Y-104140000D03*
X111887000Y-127000000D03*
X66167000Y-104140000D03*
X109347000Y-127000000D03*
X68707000Y-104140000D03*
X106807000Y-127000000D03*
X71247000Y-104140000D03*
X104267000Y-127000000D03*
X73787000Y-104140000D03*
X101727000Y-127000000D03*
X76327000Y-104140000D03*
X99187000Y-127000000D03*
X78867000Y-104140000D03*
X96647000Y-127000000D03*
X81407000Y-104140000D03*
X94107000Y-127000000D03*
X83947000Y-104140000D03*
X91567000Y-127000000D03*
X86487000Y-104140000D03*
X89027000Y-127000000D03*
X89027000Y-104140000D03*
X86487000Y-127000000D03*
X91567000Y-104140000D03*
X83947000Y-127000000D03*
X94107000Y-104140000D03*
X81407000Y-127000000D03*
X96647000Y-104140000D03*
X78867000Y-127000000D03*
X99187000Y-104140000D03*
X76327000Y-127000000D03*
X101727000Y-104140000D03*
X73787000Y-127000000D03*
X104267000Y-104140000D03*
X71247000Y-127000000D03*
X106807000Y-104140000D03*
X68707000Y-127000000D03*
X109347000Y-104140000D03*
X66167000Y-127000000D03*
X111887000Y-104140000D03*
X63627000Y-127000000D03*
X114427000Y-104140000D03*
X61087000Y-127000000D03*
X116967000Y-104140000D03*
X58547000Y-127000000D03*
X119507000Y-104140000D03*
X56007000Y-127000000D03*
X122047000Y-104140000D03*
X53467000Y-127000000D03*
X124587000Y-104140000D03*
X50927000Y-127000000D03*
X127127000Y-104140000D03*
D12*
X48387000Y-127000000D03*
%TD*%
%TO.C,C1*%
G36*
G01*
X87903000Y-97763250D02*
X87903000Y-96800750D01*
G75*
G02*
X88171750Y-96532000I268750J0D01*
G01*
X88709250Y-96532000D01*
G75*
G02*
X88978000Y-96800750I0J-268750D01*
G01*
X88978000Y-97763250D01*
G75*
G02*
X88709250Y-98032000I-268750J0D01*
G01*
X88171750Y-98032000D01*
G75*
G02*
X87903000Y-97763250I0J268750D01*
G01*
G37*
G36*
G01*
X86028000Y-97763250D02*
X86028000Y-96800750D01*
G75*
G02*
X86296750Y-96532000I268750J0D01*
G01*
X86834250Y-96532000D01*
G75*
G02*
X87103000Y-96800750I0J-268750D01*
G01*
X87103000Y-97763250D01*
G75*
G02*
X86834250Y-98032000I-268750J0D01*
G01*
X86296750Y-98032000D01*
G75*
G02*
X86028000Y-97763250I0J268750D01*
G01*
G37*
%TD*%
%TO.C,C2*%
G36*
G01*
X86409000Y-131799250D02*
X86409000Y-130836750D01*
G75*
G02*
X86677750Y-130568000I268750J0D01*
G01*
X87215250Y-130568000D01*
G75*
G02*
X87484000Y-130836750I0J-268750D01*
G01*
X87484000Y-131799250D01*
G75*
G02*
X87215250Y-132068000I-268750J0D01*
G01*
X86677750Y-132068000D01*
G75*
G02*
X86409000Y-131799250I0J268750D01*
G01*
G37*
G36*
G01*
X88284000Y-131799250D02*
X88284000Y-130836750D01*
G75*
G02*
X88552750Y-130568000I268750J0D01*
G01*
X89090250Y-130568000D01*
G75*
G02*
X89359000Y-130836750I0J-268750D01*
G01*
X89359000Y-131799250D01*
G75*
G02*
X89090250Y-132068000I-268750J0D01*
G01*
X88552750Y-132068000D01*
G75*
G02*
X88284000Y-131799250I0J268750D01*
G01*
G37*
%TD*%
%TO.C,C3*%
G36*
G01*
X40359250Y-70182000D02*
X39396750Y-70182000D01*
G75*
G02*
X39128000Y-69913250I0J268750D01*
G01*
X39128000Y-69375750D01*
G75*
G02*
X39396750Y-69107000I268750J0D01*
G01*
X40359250Y-69107000D01*
G75*
G02*
X40628000Y-69375750I0J-268750D01*
G01*
X40628000Y-69913250D01*
G75*
G02*
X40359250Y-70182000I-268750J0D01*
G01*
G37*
G36*
G01*
X40359250Y-68307000D02*
X39396750Y-68307000D01*
G75*
G02*
X39128000Y-68038250I0J268750D01*
G01*
X39128000Y-67500750D01*
G75*
G02*
X39396750Y-67232000I268750J0D01*
G01*
X40359250Y-67232000D01*
G75*
G02*
X40628000Y-67500750I0J-268750D01*
G01*
X40628000Y-68038250D01*
G75*
G02*
X40359250Y-68307000I-268750J0D01*
G01*
G37*
%TD*%
%TO.C,C4*%
G36*
G01*
X130146000Y-81761250D02*
X130146000Y-80798750D01*
G75*
G02*
X130414750Y-80530000I268750J0D01*
G01*
X130952250Y-80530000D01*
G75*
G02*
X131221000Y-80798750I0J-268750D01*
G01*
X131221000Y-81761250D01*
G75*
G02*
X130952250Y-82030000I-268750J0D01*
G01*
X130414750Y-82030000D01*
G75*
G02*
X130146000Y-81761250I0J268750D01*
G01*
G37*
G36*
G01*
X128271000Y-81761250D02*
X128271000Y-80798750D01*
G75*
G02*
X128539750Y-80530000I268750J0D01*
G01*
X129077250Y-80530000D01*
G75*
G02*
X129346000Y-80798750I0J-268750D01*
G01*
X129346000Y-81761250D01*
G75*
G02*
X129077250Y-82030000I-268750J0D01*
G01*
X128539750Y-82030000D01*
G75*
G02*
X128271000Y-81761250I0J268750D01*
G01*
G37*
%TD*%
%TO.C,C5*%
G36*
G01*
X98652250Y-51083000D02*
X97689750Y-51083000D01*
G75*
G02*
X97421000Y-50814250I0J268750D01*
G01*
X97421000Y-50276750D01*
G75*
G02*
X97689750Y-50008000I268750J0D01*
G01*
X98652250Y-50008000D01*
G75*
G02*
X98921000Y-50276750I0J-268750D01*
G01*
X98921000Y-50814250D01*
G75*
G02*
X98652250Y-51083000I-268750J0D01*
G01*
G37*
G36*
G01*
X98652250Y-49208000D02*
X97689750Y-49208000D01*
G75*
G02*
X97421000Y-48939250I0J268750D01*
G01*
X97421000Y-48401750D01*
G75*
G02*
X97689750Y-48133000I268750J0D01*
G01*
X98652250Y-48133000D01*
G75*
G02*
X98921000Y-48401750I0J-268750D01*
G01*
X98921000Y-48939250D01*
G75*
G02*
X98652250Y-49208000I-268750J0D01*
G01*
G37*
%TD*%
%TO.C,C6*%
G36*
G01*
X114905000Y-36041250D02*
X114905000Y-35078750D01*
G75*
G02*
X115173750Y-34810000I268750J0D01*
G01*
X115711250Y-34810000D01*
G75*
G02*
X115980000Y-35078750I0J-268750D01*
G01*
X115980000Y-36041250D01*
G75*
G02*
X115711250Y-36310000I-268750J0D01*
G01*
X115173750Y-36310000D01*
G75*
G02*
X114905000Y-36041250I0J268750D01*
G01*
G37*
G36*
G01*
X116780000Y-36041250D02*
X116780000Y-35078750D01*
G75*
G02*
X117048750Y-34810000I268750J0D01*
G01*
X117586250Y-34810000D01*
G75*
G02*
X117855000Y-35078750I0J-268750D01*
G01*
X117855000Y-36041250D01*
G75*
G02*
X117586250Y-36310000I-268750J0D01*
G01*
X117048750Y-36310000D01*
G75*
G02*
X116780000Y-36041250I0J268750D01*
G01*
G37*
%TD*%
%TO.C,C7*%
G36*
G01*
X141631750Y-49325000D02*
X142594250Y-49325000D01*
G75*
G02*
X142863000Y-49593750I0J-268750D01*
G01*
X142863000Y-50131250D01*
G75*
G02*
X142594250Y-50400000I-268750J0D01*
G01*
X141631750Y-50400000D01*
G75*
G02*
X141363000Y-50131250I0J268750D01*
G01*
X141363000Y-49593750D01*
G75*
G02*
X141631750Y-49325000I268750J0D01*
G01*
G37*
G36*
G01*
X141631750Y-51200000D02*
X142594250Y-51200000D01*
G75*
G02*
X142863000Y-51468750I0J-268750D01*
G01*
X142863000Y-52006250D01*
G75*
G02*
X142594250Y-52275000I-268750J0D01*
G01*
X141631750Y-52275000D01*
G75*
G02*
X141363000Y-52006250I0J268750D01*
G01*
X141363000Y-51468750D01*
G75*
G02*
X141631750Y-51200000I268750J0D01*
G01*
G37*
%TD*%
%TO.C,C8*%
G36*
G01*
X121256000Y-36041250D02*
X121256000Y-35078750D01*
G75*
G02*
X121524750Y-34810000I268750J0D01*
G01*
X122062250Y-34810000D01*
G75*
G02*
X122331000Y-35078750I0J-268750D01*
G01*
X122331000Y-36041250D01*
G75*
G02*
X122062250Y-36310000I-268750J0D01*
G01*
X121524750Y-36310000D01*
G75*
G02*
X121256000Y-36041250I0J268750D01*
G01*
G37*
G36*
G01*
X119381000Y-36041250D02*
X119381000Y-35078750D01*
G75*
G02*
X119649750Y-34810000I268750J0D01*
G01*
X120187250Y-34810000D01*
G75*
G02*
X120456000Y-35078750I0J-268750D01*
G01*
X120456000Y-36041250D01*
G75*
G02*
X120187250Y-36310000I-268750J0D01*
G01*
X119649750Y-36310000D01*
G75*
G02*
X119381000Y-36041250I0J268750D01*
G01*
G37*
%TD*%
%TO.C,C9*%
G36*
G01*
X98652250Y-56163000D02*
X97689750Y-56163000D01*
G75*
G02*
X97421000Y-55894250I0J268750D01*
G01*
X97421000Y-55356750D01*
G75*
G02*
X97689750Y-55088000I268750J0D01*
G01*
X98652250Y-55088000D01*
G75*
G02*
X98921000Y-55356750I0J-268750D01*
G01*
X98921000Y-55894250D01*
G75*
G02*
X98652250Y-56163000I-268750J0D01*
G01*
G37*
G36*
G01*
X98652250Y-54288000D02*
X97689750Y-54288000D01*
G75*
G02*
X97421000Y-54019250I0J268750D01*
G01*
X97421000Y-53481750D01*
G75*
G02*
X97689750Y-53213000I268750J0D01*
G01*
X98652250Y-53213000D01*
G75*
G02*
X98921000Y-53481750I0J-268750D01*
G01*
X98921000Y-54019250D01*
G75*
G02*
X98652250Y-54288000I-268750J0D01*
G01*
G37*
%TD*%
%TO.C,C10*%
G36*
G01*
X121921000Y-81761250D02*
X121921000Y-80798750D01*
G75*
G02*
X122189750Y-80530000I268750J0D01*
G01*
X122727250Y-80530000D01*
G75*
G02*
X122996000Y-80798750I0J-268750D01*
G01*
X122996000Y-81761250D01*
G75*
G02*
X122727250Y-82030000I-268750J0D01*
G01*
X122189750Y-82030000D01*
G75*
G02*
X121921000Y-81761250I0J268750D01*
G01*
G37*
G36*
G01*
X123796000Y-81761250D02*
X123796000Y-80798750D01*
G75*
G02*
X124064750Y-80530000I268750J0D01*
G01*
X124602250Y-80530000D01*
G75*
G02*
X124871000Y-80798750I0J-268750D01*
G01*
X124871000Y-81761250D01*
G75*
G02*
X124602250Y-82030000I-268750J0D01*
G01*
X124064750Y-82030000D01*
G75*
G02*
X123796000Y-81761250I0J268750D01*
G01*
G37*
%TD*%
%TO.C,C14*%
G36*
G01*
X159493000Y-46762750D02*
X159493000Y-47725250D01*
G75*
G02*
X159224250Y-47994000I-268750J0D01*
G01*
X158686750Y-47994000D01*
G75*
G02*
X158418000Y-47725250I0J268750D01*
G01*
X158418000Y-46762750D01*
G75*
G02*
X158686750Y-46494000I268750J0D01*
G01*
X159224250Y-46494000D01*
G75*
G02*
X159493000Y-46762750I0J-268750D01*
G01*
G37*
G36*
G01*
X161368000Y-46762750D02*
X161368000Y-47725250D01*
G75*
G02*
X161099250Y-47994000I-268750J0D01*
G01*
X160561750Y-47994000D01*
G75*
G02*
X160293000Y-47725250I0J268750D01*
G01*
X160293000Y-46762750D01*
G75*
G02*
X160561750Y-46494000I268750J0D01*
G01*
X161099250Y-46494000D01*
G75*
G02*
X161368000Y-46762750I0J-268750D01*
G01*
G37*
%TD*%
%TO.C,C15*%
G36*
G01*
X188038000Y-46762750D02*
X188038000Y-47725250D01*
G75*
G02*
X187769250Y-47994000I-268750J0D01*
G01*
X187231750Y-47994000D01*
G75*
G02*
X186963000Y-47725250I0J268750D01*
G01*
X186963000Y-46762750D01*
G75*
G02*
X187231750Y-46494000I268750J0D01*
G01*
X187769250Y-46494000D01*
G75*
G02*
X188038000Y-46762750I0J-268750D01*
G01*
G37*
G36*
G01*
X186163000Y-46762750D02*
X186163000Y-47725250D01*
G75*
G02*
X185894250Y-47994000I-268750J0D01*
G01*
X185356750Y-47994000D01*
G75*
G02*
X185088000Y-47725250I0J268750D01*
G01*
X185088000Y-46762750D01*
G75*
G02*
X185356750Y-46494000I268750J0D01*
G01*
X185894250Y-46494000D01*
G75*
G02*
X186163000Y-46762750I0J-268750D01*
G01*
G37*
%TD*%
%TO.C,C16*%
G36*
G01*
X159161000Y-63907750D02*
X159161000Y-64870250D01*
G75*
G02*
X158892250Y-65139000I-268750J0D01*
G01*
X158354750Y-65139000D01*
G75*
G02*
X158086000Y-64870250I0J268750D01*
G01*
X158086000Y-63907750D01*
G75*
G02*
X158354750Y-63639000I268750J0D01*
G01*
X158892250Y-63639000D01*
G75*
G02*
X159161000Y-63907750I0J-268750D01*
G01*
G37*
G36*
G01*
X161036000Y-63907750D02*
X161036000Y-64870250D01*
G75*
G02*
X160767250Y-65139000I-268750J0D01*
G01*
X160229750Y-65139000D01*
G75*
G02*
X159961000Y-64870250I0J268750D01*
G01*
X159961000Y-63907750D01*
G75*
G02*
X160229750Y-63639000I268750J0D01*
G01*
X160767250Y-63639000D01*
G75*
G02*
X161036000Y-63907750I0J-268750D01*
G01*
G37*
%TD*%
%TO.C,C17*%
G36*
G01*
X186163000Y-63907750D02*
X186163000Y-64870250D01*
G75*
G02*
X185894250Y-65139000I-268750J0D01*
G01*
X185356750Y-65139000D01*
G75*
G02*
X185088000Y-64870250I0J268750D01*
G01*
X185088000Y-63907750D01*
G75*
G02*
X185356750Y-63639000I268750J0D01*
G01*
X185894250Y-63639000D01*
G75*
G02*
X186163000Y-63907750I0J-268750D01*
G01*
G37*
G36*
G01*
X188038000Y-63907750D02*
X188038000Y-64870250D01*
G75*
G02*
X187769250Y-65139000I-268750J0D01*
G01*
X187231750Y-65139000D01*
G75*
G02*
X186963000Y-64870250I0J268750D01*
G01*
X186963000Y-63907750D01*
G75*
G02*
X187231750Y-63639000I268750J0D01*
G01*
X187769250Y-63639000D01*
G75*
G02*
X188038000Y-63907750I0J-268750D01*
G01*
G37*
%TD*%
%TO.C,C18*%
G36*
G01*
X159161000Y-81052750D02*
X159161000Y-82015250D01*
G75*
G02*
X158892250Y-82284000I-268750J0D01*
G01*
X158354750Y-82284000D01*
G75*
G02*
X158086000Y-82015250I0J268750D01*
G01*
X158086000Y-81052750D01*
G75*
G02*
X158354750Y-80784000I268750J0D01*
G01*
X158892250Y-80784000D01*
G75*
G02*
X159161000Y-81052750I0J-268750D01*
G01*
G37*
G36*
G01*
X161036000Y-81052750D02*
X161036000Y-82015250D01*
G75*
G02*
X160767250Y-82284000I-268750J0D01*
G01*
X160229750Y-82284000D01*
G75*
G02*
X159961000Y-82015250I0J268750D01*
G01*
X159961000Y-81052750D01*
G75*
G02*
X160229750Y-80784000I268750J0D01*
G01*
X160767250Y-80784000D01*
G75*
G02*
X161036000Y-81052750I0J-268750D01*
G01*
G37*
%TD*%
%TO.C,C19*%
G36*
G01*
X187706000Y-81052750D02*
X187706000Y-82015250D01*
G75*
G02*
X187437250Y-82284000I-268750J0D01*
G01*
X186899750Y-82284000D01*
G75*
G02*
X186631000Y-82015250I0J268750D01*
G01*
X186631000Y-81052750D01*
G75*
G02*
X186899750Y-80784000I268750J0D01*
G01*
X187437250Y-80784000D01*
G75*
G02*
X187706000Y-81052750I0J-268750D01*
G01*
G37*
G36*
G01*
X185831000Y-81052750D02*
X185831000Y-82015250D01*
G75*
G02*
X185562250Y-82284000I-268750J0D01*
G01*
X185024750Y-82284000D01*
G75*
G02*
X184756000Y-82015250I0J268750D01*
G01*
X184756000Y-81052750D01*
G75*
G02*
X185024750Y-80784000I268750J0D01*
G01*
X185562250Y-80784000D01*
G75*
G02*
X185831000Y-81052750I0J-268750D01*
G01*
G37*
%TD*%
%TO.C,C20*%
G36*
G01*
X159161000Y-98197750D02*
X159161000Y-99160250D01*
G75*
G02*
X158892250Y-99429000I-268750J0D01*
G01*
X158354750Y-99429000D01*
G75*
G02*
X158086000Y-99160250I0J268750D01*
G01*
X158086000Y-98197750D01*
G75*
G02*
X158354750Y-97929000I268750J0D01*
G01*
X158892250Y-97929000D01*
G75*
G02*
X159161000Y-98197750I0J-268750D01*
G01*
G37*
G36*
G01*
X161036000Y-98197750D02*
X161036000Y-99160250D01*
G75*
G02*
X160767250Y-99429000I-268750J0D01*
G01*
X160229750Y-99429000D01*
G75*
G02*
X159961000Y-99160250I0J268750D01*
G01*
X159961000Y-98197750D01*
G75*
G02*
X160229750Y-97929000I268750J0D01*
G01*
X160767250Y-97929000D01*
G75*
G02*
X161036000Y-98197750I0J-268750D01*
G01*
G37*
%TD*%
%TO.C,C21*%
G36*
G01*
X187706000Y-98197750D02*
X187706000Y-99160250D01*
G75*
G02*
X187437250Y-99429000I-268750J0D01*
G01*
X186899750Y-99429000D01*
G75*
G02*
X186631000Y-99160250I0J268750D01*
G01*
X186631000Y-98197750D01*
G75*
G02*
X186899750Y-97929000I268750J0D01*
G01*
X187437250Y-97929000D01*
G75*
G02*
X187706000Y-98197750I0J-268750D01*
G01*
G37*
G36*
G01*
X185831000Y-98197750D02*
X185831000Y-99160250D01*
G75*
G02*
X185562250Y-99429000I-268750J0D01*
G01*
X185024750Y-99429000D01*
G75*
G02*
X184756000Y-99160250I0J268750D01*
G01*
X184756000Y-98197750D01*
G75*
G02*
X185024750Y-97929000I268750J0D01*
G01*
X185562250Y-97929000D01*
G75*
G02*
X185831000Y-98197750I0J-268750D01*
G01*
G37*
%TD*%
%TO.C,C22*%
G36*
G01*
X40740250Y-36303000D02*
X39777750Y-36303000D01*
G75*
G02*
X39509000Y-36034250I0J268750D01*
G01*
X39509000Y-35496750D01*
G75*
G02*
X39777750Y-35228000I268750J0D01*
G01*
X40740250Y-35228000D01*
G75*
G02*
X41009000Y-35496750I0J-268750D01*
G01*
X41009000Y-36034250D01*
G75*
G02*
X40740250Y-36303000I-268750J0D01*
G01*
G37*
G36*
G01*
X40740250Y-38178000D02*
X39777750Y-38178000D01*
G75*
G02*
X39509000Y-37909250I0J268750D01*
G01*
X39509000Y-37371750D01*
G75*
G02*
X39777750Y-37103000I268750J0D01*
G01*
X40740250Y-37103000D01*
G75*
G02*
X41009000Y-37371750I0J-268750D01*
G01*
X41009000Y-37909250D01*
G75*
G02*
X40740250Y-38178000I-268750J0D01*
G01*
G37*
%TD*%
%TO.C,D1*%
G36*
G01*
X58427000Y-18265250D02*
X58427000Y-17302750D01*
G75*
G02*
X58695750Y-17034000I268750J0D01*
G01*
X59233250Y-17034000D01*
G75*
G02*
X59502000Y-17302750I0J-268750D01*
G01*
X59502000Y-18265250D01*
G75*
G02*
X59233250Y-18534000I-268750J0D01*
G01*
X58695750Y-18534000D01*
G75*
G02*
X58427000Y-18265250I0J268750D01*
G01*
G37*
G36*
G01*
X60302000Y-18265250D02*
X60302000Y-17302750D01*
G75*
G02*
X60570750Y-17034000I268750J0D01*
G01*
X61108250Y-17034000D01*
G75*
G02*
X61377000Y-17302750I0J-268750D01*
G01*
X61377000Y-18265250D01*
G75*
G02*
X61108250Y-18534000I-268750J0D01*
G01*
X60570750Y-18534000D01*
G75*
G02*
X60302000Y-18265250I0J268750D01*
G01*
G37*
%TD*%
%TO.C,D2*%
G36*
G01*
X67075000Y-18261250D02*
X67075000Y-17298750D01*
G75*
G02*
X67343750Y-17030000I268750J0D01*
G01*
X67881250Y-17030000D01*
G75*
G02*
X68150000Y-17298750I0J-268750D01*
G01*
X68150000Y-18261250D01*
G75*
G02*
X67881250Y-18530000I-268750J0D01*
G01*
X67343750Y-18530000D01*
G75*
G02*
X67075000Y-18261250I0J268750D01*
G01*
G37*
G36*
G01*
X65200000Y-18261250D02*
X65200000Y-17298750D01*
G75*
G02*
X65468750Y-17030000I268750J0D01*
G01*
X66006250Y-17030000D01*
G75*
G02*
X66275000Y-17298750I0J-268750D01*
G01*
X66275000Y-18261250D01*
G75*
G02*
X66006250Y-18530000I-268750J0D01*
G01*
X65468750Y-18530000D01*
G75*
G02*
X65200000Y-18261250I0J268750D01*
G01*
G37*
%TD*%
%TO.C,D3*%
G36*
G01*
X115413000Y-18134250D02*
X115413000Y-17171750D01*
G75*
G02*
X115681750Y-16903000I268750J0D01*
G01*
X116219250Y-16903000D01*
G75*
G02*
X116488000Y-17171750I0J-268750D01*
G01*
X116488000Y-18134250D01*
G75*
G02*
X116219250Y-18403000I-268750J0D01*
G01*
X115681750Y-18403000D01*
G75*
G02*
X115413000Y-18134250I0J268750D01*
G01*
G37*
G36*
G01*
X117288000Y-18134250D02*
X117288000Y-17171750D01*
G75*
G02*
X117556750Y-16903000I268750J0D01*
G01*
X118094250Y-16903000D01*
G75*
G02*
X118363000Y-17171750I0J-268750D01*
G01*
X118363000Y-18134250D01*
G75*
G02*
X118094250Y-18403000I-268750J0D01*
G01*
X117556750Y-18403000D01*
G75*
G02*
X117288000Y-18134250I0J268750D01*
G01*
G37*
%TD*%
%TO.C,D4*%
G36*
G01*
X121226000Y-18134250D02*
X121226000Y-17171750D01*
G75*
G02*
X121494750Y-16903000I268750J0D01*
G01*
X122032250Y-16903000D01*
G75*
G02*
X122301000Y-17171750I0J-268750D01*
G01*
X122301000Y-18134250D01*
G75*
G02*
X122032250Y-18403000I-268750J0D01*
G01*
X121494750Y-18403000D01*
G75*
G02*
X121226000Y-18134250I0J268750D01*
G01*
G37*
G36*
G01*
X119351000Y-18134250D02*
X119351000Y-17171750D01*
G75*
G02*
X119619750Y-16903000I268750J0D01*
G01*
X120157250Y-16903000D01*
G75*
G02*
X120426000Y-17171750I0J-268750D01*
G01*
X120426000Y-18134250D01*
G75*
G02*
X120157250Y-18403000I-268750J0D01*
G01*
X119619750Y-18403000D01*
G75*
G02*
X119351000Y-18134250I0J268750D01*
G01*
G37*
%TD*%
%TO.C,D5*%
G36*
G01*
X123191000Y-18134250D02*
X123191000Y-17171750D01*
G75*
G02*
X123459750Y-16903000I268750J0D01*
G01*
X123997250Y-16903000D01*
G75*
G02*
X124266000Y-17171750I0J-268750D01*
G01*
X124266000Y-18134250D01*
G75*
G02*
X123997250Y-18403000I-268750J0D01*
G01*
X123459750Y-18403000D01*
G75*
G02*
X123191000Y-18134250I0J268750D01*
G01*
G37*
G36*
G01*
X125066000Y-18134250D02*
X125066000Y-17171750D01*
G75*
G02*
X125334750Y-16903000I268750J0D01*
G01*
X125872250Y-16903000D01*
G75*
G02*
X126141000Y-17171750I0J-268750D01*
G01*
X126141000Y-18134250D01*
G75*
G02*
X125872250Y-18403000I-268750J0D01*
G01*
X125334750Y-18403000D01*
G75*
G02*
X125066000Y-18134250I0J268750D01*
G01*
G37*
%TD*%
%TO.C,D6*%
G36*
G01*
X105381000Y-18134250D02*
X105381000Y-17171750D01*
G75*
G02*
X105649750Y-16903000I268750J0D01*
G01*
X106187250Y-16903000D01*
G75*
G02*
X106456000Y-17171750I0J-268750D01*
G01*
X106456000Y-18134250D01*
G75*
G02*
X106187250Y-18403000I-268750J0D01*
G01*
X105649750Y-18403000D01*
G75*
G02*
X105381000Y-18134250I0J268750D01*
G01*
G37*
G36*
G01*
X107256000Y-18134250D02*
X107256000Y-17171750D01*
G75*
G02*
X107524750Y-16903000I268750J0D01*
G01*
X108062250Y-16903000D01*
G75*
G02*
X108331000Y-17171750I0J-268750D01*
G01*
X108331000Y-18134250D01*
G75*
G02*
X108062250Y-18403000I-268750J0D01*
G01*
X107524750Y-18403000D01*
G75*
G02*
X107256000Y-18134250I0J268750D01*
G01*
G37*
%TD*%
%TO.C,D7*%
G36*
G01*
X147926000Y-18515250D02*
X147926000Y-17552750D01*
G75*
G02*
X148194750Y-17284000I268750J0D01*
G01*
X148732250Y-17284000D01*
G75*
G02*
X149001000Y-17552750I0J-268750D01*
G01*
X149001000Y-18515250D01*
G75*
G02*
X148732250Y-18784000I-268750J0D01*
G01*
X148194750Y-18784000D01*
G75*
G02*
X147926000Y-18515250I0J268750D01*
G01*
G37*
G36*
G01*
X146051000Y-18515250D02*
X146051000Y-17552750D01*
G75*
G02*
X146319750Y-17284000I268750J0D01*
G01*
X146857250Y-17284000D01*
G75*
G02*
X147126000Y-17552750I0J-268750D01*
G01*
X147126000Y-18515250D01*
G75*
G02*
X146857250Y-18784000I-268750J0D01*
G01*
X146319750Y-18784000D01*
G75*
G02*
X146051000Y-18515250I0J268750D01*
G01*
G37*
%TD*%
%TO.C,D8*%
G36*
G01*
X167737000Y-18515250D02*
X167737000Y-17552750D01*
G75*
G02*
X168005750Y-17284000I268750J0D01*
G01*
X168543250Y-17284000D01*
G75*
G02*
X168812000Y-17552750I0J-268750D01*
G01*
X168812000Y-18515250D01*
G75*
G02*
X168543250Y-18784000I-268750J0D01*
G01*
X168005750Y-18784000D01*
G75*
G02*
X167737000Y-18515250I0J268750D01*
G01*
G37*
G36*
G01*
X169612000Y-18515250D02*
X169612000Y-17552750D01*
G75*
G02*
X169880750Y-17284000I268750J0D01*
G01*
X170418250Y-17284000D01*
G75*
G02*
X170687000Y-17552750I0J-268750D01*
G01*
X170687000Y-18515250D01*
G75*
G02*
X170418250Y-18784000I-268750J0D01*
G01*
X169880750Y-18784000D01*
G75*
G02*
X169612000Y-18515250I0J268750D01*
G01*
G37*
%TD*%
%TO.C,D9*%
G36*
G01*
X164436000Y-18515250D02*
X164436000Y-17552750D01*
G75*
G02*
X164704750Y-17284000I268750J0D01*
G01*
X165242250Y-17284000D01*
G75*
G02*
X165511000Y-17552750I0J-268750D01*
G01*
X165511000Y-18515250D01*
G75*
G02*
X165242250Y-18784000I-268750J0D01*
G01*
X164704750Y-18784000D01*
G75*
G02*
X164436000Y-18515250I0J268750D01*
G01*
G37*
G36*
G01*
X162561000Y-18515250D02*
X162561000Y-17552750D01*
G75*
G02*
X162829750Y-17284000I268750J0D01*
G01*
X163367250Y-17284000D01*
G75*
G02*
X163636000Y-17552750I0J-268750D01*
G01*
X163636000Y-18515250D01*
G75*
G02*
X163367250Y-18784000I-268750J0D01*
G01*
X162829750Y-18784000D01*
G75*
G02*
X162561000Y-18515250I0J268750D01*
G01*
G37*
%TD*%
%TO.C,D10*%
G36*
G01*
X157989000Y-18515250D02*
X157989000Y-17552750D01*
G75*
G02*
X158257750Y-17284000I268750J0D01*
G01*
X158795250Y-17284000D01*
G75*
G02*
X159064000Y-17552750I0J-268750D01*
G01*
X159064000Y-18515250D01*
G75*
G02*
X158795250Y-18784000I-268750J0D01*
G01*
X158257750Y-18784000D01*
G75*
G02*
X157989000Y-18515250I0J268750D01*
G01*
G37*
G36*
G01*
X159864000Y-18515250D02*
X159864000Y-17552750D01*
G75*
G02*
X160132750Y-17284000I268750J0D01*
G01*
X160670250Y-17284000D01*
G75*
G02*
X160939000Y-17552750I0J-268750D01*
G01*
X160939000Y-18515250D01*
G75*
G02*
X160670250Y-18784000I-268750J0D01*
G01*
X160132750Y-18784000D01*
G75*
G02*
X159864000Y-18515250I0J268750D01*
G01*
G37*
%TD*%
%TO.C,D11*%
G36*
G01*
X155388000Y-18515250D02*
X155388000Y-17552750D01*
G75*
G02*
X155656750Y-17284000I268750J0D01*
G01*
X156194250Y-17284000D01*
G75*
G02*
X156463000Y-17552750I0J-268750D01*
G01*
X156463000Y-18515250D01*
G75*
G02*
X156194250Y-18784000I-268750J0D01*
G01*
X155656750Y-18784000D01*
G75*
G02*
X155388000Y-18515250I0J268750D01*
G01*
G37*
G36*
G01*
X153513000Y-18515250D02*
X153513000Y-17552750D01*
G75*
G02*
X153781750Y-17284000I268750J0D01*
G01*
X154319250Y-17284000D01*
G75*
G02*
X154588000Y-17552750I0J-268750D01*
G01*
X154588000Y-18515250D01*
G75*
G02*
X154319250Y-18784000I-268750J0D01*
G01*
X153781750Y-18784000D01*
G75*
G02*
X153513000Y-18515250I0J268750D01*
G01*
G37*
%TD*%
%TO.C,D12*%
G36*
G01*
X178279000Y-18388250D02*
X178279000Y-17425750D01*
G75*
G02*
X178547750Y-17157000I268750J0D01*
G01*
X179085250Y-17157000D01*
G75*
G02*
X179354000Y-17425750I0J-268750D01*
G01*
X179354000Y-18388250D01*
G75*
G02*
X179085250Y-18657000I-268750J0D01*
G01*
X178547750Y-18657000D01*
G75*
G02*
X178279000Y-18388250I0J268750D01*
G01*
G37*
G36*
G01*
X180154000Y-18388250D02*
X180154000Y-17425750D01*
G75*
G02*
X180422750Y-17157000I268750J0D01*
G01*
X180960250Y-17157000D01*
G75*
G02*
X181229000Y-17425750I0J-268750D01*
G01*
X181229000Y-18388250D01*
G75*
G02*
X180960250Y-18657000I-268750J0D01*
G01*
X180422750Y-18657000D01*
G75*
G02*
X180154000Y-18388250I0J268750D01*
G01*
G37*
%TD*%
%TO.C,D13*%
G36*
G01*
X176090000Y-18515250D02*
X176090000Y-17552750D01*
G75*
G02*
X176358750Y-17284000I268750J0D01*
G01*
X176896250Y-17284000D01*
G75*
G02*
X177165000Y-17552750I0J-268750D01*
G01*
X177165000Y-18515250D01*
G75*
G02*
X176896250Y-18784000I-268750J0D01*
G01*
X176358750Y-18784000D01*
G75*
G02*
X176090000Y-18515250I0J268750D01*
G01*
G37*
G36*
G01*
X174215000Y-18515250D02*
X174215000Y-17552750D01*
G75*
G02*
X174483750Y-17284000I268750J0D01*
G01*
X175021250Y-17284000D01*
G75*
G02*
X175290000Y-17552750I0J-268750D01*
G01*
X175290000Y-18515250D01*
G75*
G02*
X175021250Y-18784000I-268750J0D01*
G01*
X174483750Y-18784000D01*
G75*
G02*
X174215000Y-18515250I0J268750D01*
G01*
G37*
%TD*%
D13*
%TO.C,J1*%
X50038000Y-54483000D03*
X47498000Y-54483000D03*
X44958000Y-54483000D03*
%TD*%
D14*
%TO.C,J2*%
X166370000Y-154686000D03*
X163830000Y-154686000D03*
X161290000Y-154686000D03*
X158750000Y-154686000D03*
X156210000Y-154686000D03*
X153670000Y-154686000D03*
X151130000Y-154686000D03*
X148590000Y-154686000D03*
X146050000Y-154686000D03*
X143510000Y-154686000D03*
X140970000Y-154686000D03*
X138430000Y-154686000D03*
X135890000Y-154686000D03*
X133350000Y-154686000D03*
X130810000Y-154686000D03*
X128270000Y-154686000D03*
X125730000Y-154686000D03*
X123190000Y-154686000D03*
X120650000Y-154686000D03*
X118110000Y-154686000D03*
X115570000Y-154686000D03*
X113030000Y-154686000D03*
X110490000Y-154686000D03*
X107950000Y-154686000D03*
X105410000Y-154686000D03*
X102870000Y-154686000D03*
X100330000Y-154686000D03*
X97790000Y-154686000D03*
X95250000Y-154686000D03*
X92710000Y-154686000D03*
X90170000Y-154686000D03*
X80010000Y-154686000D03*
X77470000Y-154686000D03*
X74930000Y-154686000D03*
X72390000Y-154686000D03*
X69850000Y-154686000D03*
X67310000Y-154686000D03*
X64770000Y-154686000D03*
X62230000Y-154686000D03*
X59690000Y-154686000D03*
X57150000Y-154686000D03*
X54610000Y-154686000D03*
X52070000Y-154686000D03*
X49530000Y-154686000D03*
X46990000Y-154686000D03*
X44450000Y-154686000D03*
X41910000Y-154686000D03*
X39370000Y-154686000D03*
X36830000Y-154686000D03*
%TD*%
D15*
%TO.C,J5*%
X30480000Y-132080000D03*
G36*
G01*
X22930000Y-133105000D02*
X22930000Y-131055000D01*
G75*
G02*
X23705000Y-130280000I775000J0D01*
G01*
X25255000Y-130280000D01*
G75*
G02*
X26030000Y-131055000I0J-775000D01*
G01*
X26030000Y-133105000D01*
G75*
G02*
X25255000Y-133880000I-775000J0D01*
G01*
X23705000Y-133880000D01*
G75*
G02*
X22930000Y-133105000I0J775000D01*
G01*
G37*
G36*
G01*
X25680000Y-137680000D02*
X25680000Y-135880000D01*
G75*
G02*
X26580000Y-134980000I900000J0D01*
G01*
X28380000Y-134980000D01*
G75*
G02*
X29280000Y-135880000I0J-900000D01*
G01*
X29280000Y-137680000D01*
G75*
G02*
X28380000Y-138580000I-900000J0D01*
G01*
X26580000Y-138580000D01*
G75*
G02*
X25680000Y-137680000I0J900000D01*
G01*
G37*
%TD*%
D16*
%TO.C,JP1*%
X32893000Y-91440000D03*
X32893000Y-93980000D03*
%TD*%
%TO.C,R1*%
G36*
G01*
X182342000Y-28548250D02*
X182342000Y-27585750D01*
G75*
G02*
X182610750Y-27317000I268750J0D01*
G01*
X183148250Y-27317000D01*
G75*
G02*
X183417000Y-27585750I0J-268750D01*
G01*
X183417000Y-28548250D01*
G75*
G02*
X183148250Y-28817000I-268750J0D01*
G01*
X182610750Y-28817000D01*
G75*
G02*
X182342000Y-28548250I0J268750D01*
G01*
G37*
G36*
G01*
X180467000Y-28548250D02*
X180467000Y-27585750D01*
G75*
G02*
X180735750Y-27317000I268750J0D01*
G01*
X181273250Y-27317000D01*
G75*
G02*
X181542000Y-27585750I0J-268750D01*
G01*
X181542000Y-28548250D01*
G75*
G02*
X181273250Y-28817000I-268750J0D01*
G01*
X180735750Y-28817000D01*
G75*
G02*
X180467000Y-28548250I0J268750D01*
G01*
G37*
%TD*%
%TO.C,R2*%
G36*
G01*
X183417000Y-30125750D02*
X183417000Y-31088250D01*
G75*
G02*
X183148250Y-31357000I-268750J0D01*
G01*
X182610750Y-31357000D01*
G75*
G02*
X182342000Y-31088250I0J268750D01*
G01*
X182342000Y-30125750D01*
G75*
G02*
X182610750Y-29857000I268750J0D01*
G01*
X183148250Y-29857000D01*
G75*
G02*
X183417000Y-30125750I0J-268750D01*
G01*
G37*
G36*
G01*
X181542000Y-30125750D02*
X181542000Y-31088250D01*
G75*
G02*
X181273250Y-31357000I-268750J0D01*
G01*
X180735750Y-31357000D01*
G75*
G02*
X180467000Y-31088250I0J268750D01*
G01*
X180467000Y-30125750D01*
G75*
G02*
X180735750Y-29857000I268750J0D01*
G01*
X181273250Y-29857000D01*
G75*
G02*
X181542000Y-30125750I0J-268750D01*
G01*
G37*
%TD*%
%TO.C,R3*%
G36*
G01*
X180467000Y-33628250D02*
X180467000Y-32665750D01*
G75*
G02*
X180735750Y-32397000I268750J0D01*
G01*
X181273250Y-32397000D01*
G75*
G02*
X181542000Y-32665750I0J-268750D01*
G01*
X181542000Y-33628250D01*
G75*
G02*
X181273250Y-33897000I-268750J0D01*
G01*
X180735750Y-33897000D01*
G75*
G02*
X180467000Y-33628250I0J268750D01*
G01*
G37*
G36*
G01*
X182342000Y-33628250D02*
X182342000Y-32665750D01*
G75*
G02*
X182610750Y-32397000I268750J0D01*
G01*
X183148250Y-32397000D01*
G75*
G02*
X183417000Y-32665750I0J-268750D01*
G01*
X183417000Y-33628250D01*
G75*
G02*
X183148250Y-33897000I-268750J0D01*
G01*
X182610750Y-33897000D01*
G75*
G02*
X182342000Y-33628250I0J268750D01*
G01*
G37*
%TD*%
%TO.C,R4*%
G36*
G01*
X181542000Y-35205750D02*
X181542000Y-36168250D01*
G75*
G02*
X181273250Y-36437000I-268750J0D01*
G01*
X180735750Y-36437000D01*
G75*
G02*
X180467000Y-36168250I0J268750D01*
G01*
X180467000Y-35205750D01*
G75*
G02*
X180735750Y-34937000I268750J0D01*
G01*
X181273250Y-34937000D01*
G75*
G02*
X181542000Y-35205750I0J-268750D01*
G01*
G37*
G36*
G01*
X183417000Y-35205750D02*
X183417000Y-36168250D01*
G75*
G02*
X183148250Y-36437000I-268750J0D01*
G01*
X182610750Y-36437000D01*
G75*
G02*
X182342000Y-36168250I0J268750D01*
G01*
X182342000Y-35205750D01*
G75*
G02*
X182610750Y-34937000I268750J0D01*
G01*
X183148250Y-34937000D01*
G75*
G02*
X183417000Y-35205750I0J-268750D01*
G01*
G37*
%TD*%
D17*
%TO.C,RN1*%
X108896000Y-132577000D03*
D18*
X107296000Y-132577000D03*
X108096000Y-132577000D03*
D17*
X106496000Y-132577000D03*
D18*
X108096000Y-134377000D03*
D17*
X108896000Y-134377000D03*
D18*
X107296000Y-134377000D03*
D17*
X106496000Y-134377000D03*
%TD*%
%TO.C,RN2*%
X101022000Y-132450000D03*
D18*
X100222000Y-132450000D03*
D17*
X98622000Y-132450000D03*
D18*
X99422000Y-132450000D03*
D17*
X101022000Y-134250000D03*
D18*
X99422000Y-134250000D03*
X100222000Y-134250000D03*
D17*
X98622000Y-134250000D03*
%TD*%
%TO.C,RN3*%
X76003000Y-48884000D03*
D18*
X74403000Y-48884000D03*
X75203000Y-48884000D03*
D17*
X73603000Y-48884000D03*
D18*
X75203000Y-50684000D03*
D17*
X76003000Y-50684000D03*
D18*
X74403000Y-50684000D03*
D17*
X73603000Y-50684000D03*
%TD*%
%TO.C,RN4*%
X61665000Y-24776000D03*
D18*
X63265000Y-24776000D03*
X62465000Y-24776000D03*
D17*
X64065000Y-24776000D03*
D18*
X62465000Y-22976000D03*
D17*
X61665000Y-22976000D03*
D18*
X63265000Y-22976000D03*
D17*
X64065000Y-22976000D03*
%TD*%
%TO.C,RN5*%
X118815000Y-23633000D03*
D18*
X119615000Y-23633000D03*
D17*
X121215000Y-23633000D03*
D18*
X120415000Y-23633000D03*
D17*
X118815000Y-21833000D03*
D18*
X120415000Y-21833000D03*
X119615000Y-21833000D03*
D17*
X121215000Y-21833000D03*
%TD*%
%TO.C,RN6*%
X152076000Y-22341000D03*
D18*
X150476000Y-22341000D03*
X151276000Y-22341000D03*
D17*
X149676000Y-22341000D03*
D18*
X151276000Y-24141000D03*
D17*
X152076000Y-24141000D03*
D18*
X150476000Y-24141000D03*
D17*
X149676000Y-24141000D03*
%TD*%
%TO.C,RN7*%
X168021000Y-24152000D03*
D18*
X168821000Y-24152000D03*
D17*
X170421000Y-24152000D03*
D18*
X169621000Y-24152000D03*
D17*
X168021000Y-22352000D03*
D18*
X169621000Y-22352000D03*
X168821000Y-22352000D03*
D17*
X170421000Y-22352000D03*
%TD*%
D19*
%TO.C,U5*%
X30632000Y-114413000D03*
X30632000Y-119013000D03*
X30632000Y-116713000D03*
D20*
X36932000Y-116713000D03*
%TD*%
D21*
%TO.C,U14*%
X44958000Y-44323000D03*
D22*
X93218000Y-29083000D03*
X47498000Y-44323000D03*
X90678000Y-29083000D03*
X50038000Y-44323000D03*
X88138000Y-29083000D03*
X52578000Y-44323000D03*
X85598000Y-29083000D03*
X55118000Y-44323000D03*
X83058000Y-29083000D03*
X57658000Y-44323000D03*
X80518000Y-29083000D03*
X60198000Y-44323000D03*
X77978000Y-29083000D03*
X62738000Y-44323000D03*
X75438000Y-29083000D03*
X65278000Y-44323000D03*
X72898000Y-29083000D03*
X67818000Y-44323000D03*
X70358000Y-29083000D03*
X70358000Y-44323000D03*
X67818000Y-29083000D03*
X72898000Y-44323000D03*
X65278000Y-29083000D03*
X75438000Y-44323000D03*
X62738000Y-29083000D03*
X77978000Y-44323000D03*
X60198000Y-29083000D03*
X80518000Y-44323000D03*
X57658000Y-29083000D03*
X83058000Y-44323000D03*
X55118000Y-29083000D03*
X85598000Y-44323000D03*
X52578000Y-29083000D03*
X88138000Y-44323000D03*
X50038000Y-29083000D03*
X90678000Y-44323000D03*
X47498000Y-29083000D03*
X93218000Y-44323000D03*
X44958000Y-29083000D03*
%TD*%
D23*
%TO.C,X1*%
X155321000Y-134366000D03*
D24*
X155321000Y-126746000D03*
X162941000Y-126746000D03*
X162941000Y-134366000D03*
%TD*%
D23*
%TO.C,X2*%
X174244000Y-134366000D03*
D24*
X174244000Y-126746000D03*
X189484000Y-126746000D03*
X189484000Y-134366000D03*
%TD*%
%TO.C,IC1*%
G36*
G01*
X23499500Y-93285000D02*
X22474500Y-93285000D01*
G75*
G02*
X22187000Y-92997500I0J287500D01*
G01*
X22187000Y-92422500D01*
G75*
G02*
X22474500Y-92135000I287500J0D01*
G01*
X23499500Y-92135000D01*
G75*
G02*
X23787000Y-92422500I0J-287500D01*
G01*
X23787000Y-92997500D01*
G75*
G02*
X23499500Y-93285000I-287500J0D01*
G01*
G37*
G36*
G01*
X23499500Y-92015000D02*
X22474500Y-92015000D01*
G75*
G02*
X22187000Y-91727500I0J287500D01*
G01*
X22187000Y-91152500D01*
G75*
G02*
X22474500Y-90865000I287500J0D01*
G01*
X23499500Y-90865000D01*
G75*
G02*
X23787000Y-91152500I0J-287500D01*
G01*
X23787000Y-91727500D01*
G75*
G02*
X23499500Y-92015000I-287500J0D01*
G01*
G37*
D25*
X22987000Y-93980000D03*
%TD*%
D26*
%TO.C,U3*%
X120523000Y-45720000D03*
X117983000Y-45720000D03*
X115443000Y-45720000D03*
X112903000Y-45720000D03*
X110363000Y-45720000D03*
X123063000Y-45720000D03*
X125603000Y-45720000D03*
X128143000Y-45720000D03*
X130683000Y-45720000D03*
X133223000Y-45720000D03*
X135763000Y-45720000D03*
D27*
X120523000Y-43180000D03*
D26*
X117983000Y-43180000D03*
X115443000Y-43180000D03*
X112903000Y-43180000D03*
X110363000Y-43180000D03*
X107823000Y-43180000D03*
X123063000Y-43180000D03*
X125603000Y-43180000D03*
X128143000Y-43180000D03*
X130683000Y-43180000D03*
X133223000Y-43180000D03*
X107823000Y-45720000D03*
X107823000Y-48260000D03*
X107823000Y-50800000D03*
X107823000Y-53340000D03*
X107823000Y-55880000D03*
X107823000Y-58420000D03*
X107823000Y-60960000D03*
X107823000Y-63500000D03*
X107823000Y-66040000D03*
X107823000Y-68580000D03*
X105283000Y-45720000D03*
X105283000Y-48260000D03*
X105283000Y-50800000D03*
X105283000Y-53340000D03*
X105283000Y-55880000D03*
X105283000Y-58420000D03*
X105283000Y-60960000D03*
X105283000Y-63500000D03*
X105283000Y-66040000D03*
X105283000Y-68580000D03*
X105283000Y-71120000D03*
X107823000Y-71120000D03*
X110363000Y-71120000D03*
X112903000Y-71120000D03*
X115443000Y-71120000D03*
X117983000Y-71120000D03*
X120523000Y-71120000D03*
X123063000Y-71120000D03*
X125603000Y-71120000D03*
X128143000Y-71120000D03*
X130683000Y-71120000D03*
X107823000Y-73660000D03*
X110363000Y-73660000D03*
X112903000Y-73660000D03*
X115443000Y-73660000D03*
X117983000Y-73660000D03*
X120523000Y-73660000D03*
X123063000Y-73660000D03*
X125603000Y-73660000D03*
X128143000Y-73660000D03*
X130683000Y-73660000D03*
X133223000Y-73660000D03*
X133223000Y-71120000D03*
X133223000Y-68580000D03*
X133223000Y-66040000D03*
X133223000Y-63500000D03*
X133223000Y-60960000D03*
X133223000Y-58420000D03*
X133223000Y-55880000D03*
X133223000Y-53340000D03*
X133223000Y-50800000D03*
X133223000Y-48260000D03*
X135763000Y-71120000D03*
X135763000Y-68580000D03*
X135763000Y-66040000D03*
X135763000Y-63500000D03*
X135763000Y-60960000D03*
X135763000Y-58420000D03*
X135763000Y-55880000D03*
X135763000Y-53340000D03*
X135763000Y-50800000D03*
X135763000Y-48260000D03*
%TD*%
D12*
%TO.C,U2*%
X44958000Y-76073000D03*
D11*
X93218000Y-60833000D03*
X47498000Y-76073000D03*
X90678000Y-60833000D03*
X50038000Y-76073000D03*
X88138000Y-60833000D03*
X52578000Y-76073000D03*
X85598000Y-60833000D03*
X55118000Y-76073000D03*
X83058000Y-60833000D03*
X57658000Y-76073000D03*
X80518000Y-60833000D03*
X60198000Y-76073000D03*
X77978000Y-60833000D03*
X62738000Y-76073000D03*
X75438000Y-60833000D03*
X65278000Y-76073000D03*
X72898000Y-60833000D03*
X67818000Y-76073000D03*
X70358000Y-60833000D03*
X70358000Y-76073000D03*
X67818000Y-60833000D03*
X72898000Y-76073000D03*
X65278000Y-60833000D03*
X75438000Y-76073000D03*
X62738000Y-60833000D03*
X77978000Y-76073000D03*
X60198000Y-60833000D03*
X80518000Y-76073000D03*
X57658000Y-60833000D03*
X83058000Y-76073000D03*
X55118000Y-60833000D03*
X85598000Y-76073000D03*
X52578000Y-60833000D03*
X88138000Y-76073000D03*
X50038000Y-60833000D03*
X90678000Y-76073000D03*
X47498000Y-60833000D03*
X93218000Y-76073000D03*
X44958000Y-60833000D03*
%TD*%
D28*
%TO.C,J4*%
X196342000Y-36830000D03*
D29*
X193802000Y-36830000D03*
X196342000Y-34290000D03*
X193802000Y-34290000D03*
X196342000Y-31750000D03*
X193802000Y-31750000D03*
X196342000Y-29210000D03*
X193802000Y-29210000D03*
X196342000Y-26670000D03*
X193802000Y-26670000D03*
%TD*%
%TO.C,C12*%
G36*
G01*
X38912625Y-128711000D02*
X40081375Y-128711000D01*
G75*
G02*
X40347000Y-128976625I0J-265625D01*
G01*
X40347000Y-131545375D01*
G75*
G02*
X40081375Y-131811000I-265625J0D01*
G01*
X38912625Y-131811000D01*
G75*
G02*
X38647000Y-131545375I0J265625D01*
G01*
X38647000Y-128976625D01*
G75*
G02*
X38912625Y-128711000I265625J0D01*
G01*
G37*
G36*
G01*
X38912625Y-133111000D02*
X40081375Y-133111000D01*
G75*
G02*
X40347000Y-133376625I0J-265625D01*
G01*
X40347000Y-135945375D01*
G75*
G02*
X40081375Y-136211000I-265625J0D01*
G01*
X38912625Y-136211000D01*
G75*
G02*
X38647000Y-135945375I0J265625D01*
G01*
X38647000Y-133376625D01*
G75*
G02*
X38912625Y-133111000I265625J0D01*
G01*
G37*
%TD*%
%TO.C,C13*%
G36*
G01*
X33259000Y-105714625D02*
X33259000Y-106883375D01*
G75*
G02*
X32993375Y-107149000I-265625J0D01*
G01*
X30424625Y-107149000D01*
G75*
G02*
X30159000Y-106883375I0J265625D01*
G01*
X30159000Y-105714625D01*
G75*
G02*
X30424625Y-105449000I265625J0D01*
G01*
X32993375Y-105449000D01*
G75*
G02*
X33259000Y-105714625I0J-265625D01*
G01*
G37*
G36*
G01*
X37659000Y-105714625D02*
X37659000Y-106883375D01*
G75*
G02*
X37393375Y-107149000I-265625J0D01*
G01*
X34824625Y-107149000D01*
G75*
G02*
X34559000Y-106883375I0J265625D01*
G01*
X34559000Y-105714625D01*
G75*
G02*
X34824625Y-105449000I265625J0D01*
G01*
X37393375Y-105449000D01*
G75*
G02*
X37659000Y-105714625I0J-265625D01*
G01*
G37*
%TD*%
D28*
%TO.C,J3*%
X29718000Y-33274000D03*
D29*
X27178000Y-33274000D03*
X29718000Y-35814000D03*
X27178000Y-35814000D03*
X29718000Y-38354000D03*
X27178000Y-38354000D03*
X29718000Y-40894000D03*
X27178000Y-40894000D03*
X29718000Y-43434000D03*
X27178000Y-43434000D03*
X29718000Y-45974000D03*
X27178000Y-45974000D03*
X29718000Y-48514000D03*
X27178000Y-48514000D03*
X29718000Y-51054000D03*
X27178000Y-51054000D03*
X29718000Y-53594000D03*
X27178000Y-53594000D03*
X29718000Y-56134000D03*
X27178000Y-56134000D03*
X29718000Y-58674000D03*
X27178000Y-58674000D03*
X29718000Y-61214000D03*
X27178000Y-61214000D03*
X29718000Y-63754000D03*
X27178000Y-63754000D03*
X29718000Y-66294000D03*
X27178000Y-66294000D03*
X29718000Y-68834000D03*
X27178000Y-68834000D03*
X29718000Y-71374000D03*
X27178000Y-71374000D03*
X29718000Y-73914000D03*
X27178000Y-73914000D03*
X29718000Y-76454000D03*
X27178000Y-76454000D03*
X29718000Y-78994000D03*
X27178000Y-78994000D03*
X29718000Y-81534000D03*
X27178000Y-81534000D03*
%TD*%
D30*
%TO.C,SW1*%
X18034000Y-114300000D03*
D31*
X24534000Y-114300000D03*
X24534000Y-118800000D03*
X18034000Y-118800000D03*
%TD*%
M02*
