%TF.GenerationSoftware,KiCad,Pcbnew,5.1.6-c6e7f7d~86~ubuntu18.04.1*%
%TF.CreationDate,2020-11-16T08:08:37+08:00*%
%TF.ProjectId,68k_dev,36386b5f-6465-4762-9e6b-696361645f70,rev?*%
%TF.SameCoordinates,Original*%
%TF.FileFunction,Soldermask,Bot*%
%TF.FilePolarity,Negative*%
%FSLAX46Y46*%
G04 Gerber Fmt 4.6, Leading zero omitted, Abs format (unit mm)*
G04 Created by KiCad (PCBNEW 5.1.6-c6e7f7d~86~ubuntu18.04.1) date 2020-11-16 08:08:37*
%MOMM*%
%LPD*%
G01*
G04 APERTURE LIST*
%ADD10C,2.200000*%
%ADD11R,1.880000X7.720000*%
%ADD12R,3.600000X3.600000*%
%ADD13C,1.500000*%
%ADD14R,1.700000X2.500000*%
%ADD15O,1.700000X2.500000*%
%ADD16R,1.700000X1.700000*%
%ADD17O,1.700000X1.700000*%
%ADD18R,2.600000X2.600000*%
%ADD19C,2.600000*%
%ADD20R,1.600000X1.150000*%
%ADD21C,1.522400*%
%ADD22R,1.522400X1.522400*%
%ADD23R,1.800000X1.800000*%
%ADD24O,1.800000X1.800000*%
%ADD25R,2.300000X2.300000*%
%ADD26C,2.300000*%
G04 APERTURE END LIST*
D10*
%TO.C,J1*%
X50038000Y-52451000D03*
X47498000Y-52451000D03*
X44958000Y-52451000D03*
%TD*%
D11*
%TO.C,J2*%
X166370000Y-154940000D03*
X163830000Y-154940000D03*
X161290000Y-154940000D03*
X158750000Y-154940000D03*
X156210000Y-154940000D03*
X153670000Y-154940000D03*
X151130000Y-154940000D03*
X148590000Y-154940000D03*
X146050000Y-154940000D03*
X143510000Y-154940000D03*
X140970000Y-154940000D03*
X138430000Y-154940000D03*
X135890000Y-154940000D03*
X133350000Y-154940000D03*
X130810000Y-154940000D03*
X128270000Y-154940000D03*
X125730000Y-154940000D03*
X123190000Y-154940000D03*
X120650000Y-154940000D03*
X118110000Y-154940000D03*
X115570000Y-154940000D03*
X113030000Y-154940000D03*
X110490000Y-154940000D03*
X107950000Y-154940000D03*
X105410000Y-154940000D03*
X102870000Y-154940000D03*
X100330000Y-154940000D03*
X97790000Y-154940000D03*
X95250000Y-154940000D03*
X92710000Y-154940000D03*
X90170000Y-154940000D03*
X80010000Y-154940000D03*
X77470000Y-154940000D03*
X74930000Y-154940000D03*
X72390000Y-154940000D03*
X69850000Y-154940000D03*
X67310000Y-154940000D03*
X64770000Y-154940000D03*
X62230000Y-154940000D03*
X59690000Y-154940000D03*
X57150000Y-154940000D03*
X54610000Y-154940000D03*
X52070000Y-154940000D03*
X49530000Y-154940000D03*
X46990000Y-154940000D03*
X44450000Y-154940000D03*
X41910000Y-154940000D03*
X39370000Y-154940000D03*
X36830000Y-154940000D03*
%TD*%
D12*
%TO.C,J5*%
X30480000Y-132080000D03*
G36*
G01*
X22930000Y-133105000D02*
X22930000Y-131055000D01*
G75*
G02*
X23705000Y-130280000I775000J0D01*
G01*
X25255000Y-130280000D01*
G75*
G02*
X26030000Y-131055000I0J-775000D01*
G01*
X26030000Y-133105000D01*
G75*
G02*
X25255000Y-133880000I-775000J0D01*
G01*
X23705000Y-133880000D01*
G75*
G02*
X22930000Y-133105000I0J775000D01*
G01*
G37*
G36*
G01*
X25680000Y-137680000D02*
X25680000Y-135880000D01*
G75*
G02*
X26580000Y-134980000I900000J0D01*
G01*
X28380000Y-134980000D01*
G75*
G02*
X29280000Y-135880000I0J-900000D01*
G01*
X29280000Y-137680000D01*
G75*
G02*
X28380000Y-138580000I-900000J0D01*
G01*
X26580000Y-138580000D01*
G75*
G02*
X25680000Y-137680000I0J900000D01*
G01*
G37*
%TD*%
D13*
%TO.C,JP1*%
X30480000Y-119380000D03*
X27940000Y-119380000D03*
%TD*%
%TO.C,JP2*%
X106807000Y-73279000D03*
X109347000Y-73279000D03*
%TD*%
D14*
%TO.C,U1*%
X45466000Y-123698000D03*
D15*
X124206000Y-98298000D03*
X48006000Y-123698000D03*
X121666000Y-98298000D03*
X50546000Y-123698000D03*
X119126000Y-98298000D03*
X53086000Y-123698000D03*
X116586000Y-98298000D03*
X55626000Y-123698000D03*
X114046000Y-98298000D03*
X58166000Y-123698000D03*
X111506000Y-98298000D03*
X60706000Y-123698000D03*
X108966000Y-98298000D03*
X63246000Y-123698000D03*
X106426000Y-98298000D03*
X65786000Y-123698000D03*
X103886000Y-98298000D03*
X68326000Y-123698000D03*
X101346000Y-98298000D03*
X70866000Y-123698000D03*
X98806000Y-98298000D03*
X73406000Y-123698000D03*
X96266000Y-98298000D03*
X75946000Y-123698000D03*
X93726000Y-98298000D03*
X78486000Y-123698000D03*
X91186000Y-98298000D03*
X81026000Y-123698000D03*
X88646000Y-98298000D03*
X83566000Y-123698000D03*
X86106000Y-98298000D03*
X86106000Y-123698000D03*
X83566000Y-98298000D03*
X88646000Y-123698000D03*
X81026000Y-98298000D03*
X91186000Y-123698000D03*
X78486000Y-98298000D03*
X93726000Y-123698000D03*
X75946000Y-98298000D03*
X96266000Y-123698000D03*
X73406000Y-98298000D03*
X98806000Y-123698000D03*
X70866000Y-98298000D03*
X101346000Y-123698000D03*
X68326000Y-98298000D03*
X103886000Y-123698000D03*
X65786000Y-98298000D03*
X106426000Y-123698000D03*
X63246000Y-98298000D03*
X108966000Y-123698000D03*
X60706000Y-98298000D03*
X111506000Y-123698000D03*
X58166000Y-98298000D03*
X114046000Y-123698000D03*
X55626000Y-98298000D03*
X116586000Y-123698000D03*
X53086000Y-98298000D03*
X119126000Y-123698000D03*
X50546000Y-98298000D03*
X121666000Y-123698000D03*
X48006000Y-98298000D03*
X124206000Y-123698000D03*
X45466000Y-98298000D03*
%TD*%
D16*
%TO.C,U14*%
X44958000Y-42037000D03*
D17*
X93218000Y-26797000D03*
X47498000Y-42037000D03*
X90678000Y-26797000D03*
X50038000Y-42037000D03*
X88138000Y-26797000D03*
X52578000Y-42037000D03*
X85598000Y-26797000D03*
X55118000Y-42037000D03*
X83058000Y-26797000D03*
X57658000Y-42037000D03*
X80518000Y-26797000D03*
X60198000Y-42037000D03*
X77978000Y-26797000D03*
X62738000Y-42037000D03*
X75438000Y-26797000D03*
X65278000Y-42037000D03*
X72898000Y-26797000D03*
X67818000Y-42037000D03*
X70358000Y-26797000D03*
X70358000Y-42037000D03*
X67818000Y-26797000D03*
X72898000Y-42037000D03*
X65278000Y-26797000D03*
X75438000Y-42037000D03*
X62738000Y-26797000D03*
X77978000Y-42037000D03*
X60198000Y-26797000D03*
X80518000Y-42037000D03*
X57658000Y-26797000D03*
X83058000Y-42037000D03*
X55118000Y-26797000D03*
X85598000Y-42037000D03*
X52578000Y-26797000D03*
X88138000Y-42037000D03*
X50038000Y-26797000D03*
X90678000Y-42037000D03*
X47498000Y-26797000D03*
X93218000Y-42037000D03*
X44958000Y-26797000D03*
%TD*%
D18*
%TO.C,X1*%
X109220000Y-52832000D03*
D19*
X109220000Y-45212000D03*
X116840000Y-45212000D03*
X116840000Y-52832000D03*
%TD*%
D18*
%TO.C,X2*%
X109347000Y-66929000D03*
D19*
X109347000Y-59309000D03*
X124587000Y-59309000D03*
X124587000Y-66929000D03*
%TD*%
%TO.C,IC1*%
G36*
G01*
X28706500Y-92904000D02*
X27681500Y-92904000D01*
G75*
G02*
X27394000Y-92616500I0J287500D01*
G01*
X27394000Y-92041500D01*
G75*
G02*
X27681500Y-91754000I287500J0D01*
G01*
X28706500Y-91754000D01*
G75*
G02*
X28994000Y-92041500I0J-287500D01*
G01*
X28994000Y-92616500D01*
G75*
G02*
X28706500Y-92904000I-287500J0D01*
G01*
G37*
G36*
G01*
X28706500Y-91634000D02*
X27681500Y-91634000D01*
G75*
G02*
X27394000Y-91346500I0J287500D01*
G01*
X27394000Y-90771500D01*
G75*
G02*
X27681500Y-90484000I287500J0D01*
G01*
X28706500Y-90484000D01*
G75*
G02*
X28994000Y-90771500I0J-287500D01*
G01*
X28994000Y-91346500D01*
G75*
G02*
X28706500Y-91634000I-287500J0D01*
G01*
G37*
D20*
X28194000Y-93599000D03*
%TD*%
D21*
%TO.C,U3*%
X162941000Y-102616000D03*
X160401000Y-102616000D03*
X157861000Y-102616000D03*
X155321000Y-102616000D03*
X152781000Y-102616000D03*
X165481000Y-102616000D03*
X168021000Y-102616000D03*
X170561000Y-102616000D03*
X173101000Y-102616000D03*
X175641000Y-102616000D03*
X178181000Y-102616000D03*
D22*
X162941000Y-100076000D03*
D21*
X160401000Y-100076000D03*
X157861000Y-100076000D03*
X155321000Y-100076000D03*
X152781000Y-100076000D03*
X150241000Y-100076000D03*
X165481000Y-100076000D03*
X168021000Y-100076000D03*
X170561000Y-100076000D03*
X173101000Y-100076000D03*
X175641000Y-100076000D03*
X150241000Y-102616000D03*
X150241000Y-105156000D03*
X150241000Y-107696000D03*
X150241000Y-110236000D03*
X150241000Y-112776000D03*
X150241000Y-115316000D03*
X150241000Y-117856000D03*
X150241000Y-120396000D03*
X150241000Y-122936000D03*
X150241000Y-125476000D03*
X147701000Y-102616000D03*
X147701000Y-105156000D03*
X147701000Y-107696000D03*
X147701000Y-110236000D03*
X147701000Y-112776000D03*
X147701000Y-115316000D03*
X147701000Y-117856000D03*
X147701000Y-120396000D03*
X147701000Y-122936000D03*
X147701000Y-125476000D03*
X147701000Y-128016000D03*
X150241000Y-128016000D03*
X152781000Y-128016000D03*
X155321000Y-128016000D03*
X157861000Y-128016000D03*
X160401000Y-128016000D03*
X162941000Y-128016000D03*
X165481000Y-128016000D03*
X168021000Y-128016000D03*
X170561000Y-128016000D03*
X173101000Y-128016000D03*
X150241000Y-130556000D03*
X152781000Y-130556000D03*
X155321000Y-130556000D03*
X157861000Y-130556000D03*
X160401000Y-130556000D03*
X162941000Y-130556000D03*
X165481000Y-130556000D03*
X168021000Y-130556000D03*
X170561000Y-130556000D03*
X173101000Y-130556000D03*
X175641000Y-130556000D03*
X175641000Y-128016000D03*
X175641000Y-125476000D03*
X175641000Y-122936000D03*
X175641000Y-120396000D03*
X175641000Y-117856000D03*
X175641000Y-115316000D03*
X175641000Y-112776000D03*
X175641000Y-110236000D03*
X175641000Y-107696000D03*
X175641000Y-105156000D03*
X178181000Y-128016000D03*
X178181000Y-125476000D03*
X178181000Y-122936000D03*
X178181000Y-120396000D03*
X178181000Y-117856000D03*
X178181000Y-115316000D03*
X178181000Y-112776000D03*
X178181000Y-110236000D03*
X178181000Y-107696000D03*
X178181000Y-105156000D03*
%TD*%
D14*
%TO.C,U2*%
X44958000Y-73533000D03*
D15*
X93218000Y-58293000D03*
X47498000Y-73533000D03*
X90678000Y-58293000D03*
X50038000Y-73533000D03*
X88138000Y-58293000D03*
X52578000Y-73533000D03*
X85598000Y-58293000D03*
X55118000Y-73533000D03*
X83058000Y-58293000D03*
X57658000Y-73533000D03*
X80518000Y-58293000D03*
X60198000Y-73533000D03*
X77978000Y-58293000D03*
X62738000Y-73533000D03*
X75438000Y-58293000D03*
X65278000Y-73533000D03*
X72898000Y-58293000D03*
X67818000Y-73533000D03*
X70358000Y-58293000D03*
X70358000Y-73533000D03*
X67818000Y-58293000D03*
X72898000Y-73533000D03*
X65278000Y-58293000D03*
X75438000Y-73533000D03*
X62738000Y-58293000D03*
X77978000Y-73533000D03*
X60198000Y-58293000D03*
X80518000Y-73533000D03*
X57658000Y-58293000D03*
X83058000Y-73533000D03*
X55118000Y-58293000D03*
X85598000Y-73533000D03*
X52578000Y-58293000D03*
X88138000Y-73533000D03*
X50038000Y-58293000D03*
X90678000Y-73533000D03*
X47498000Y-58293000D03*
X93218000Y-73533000D03*
X44958000Y-58293000D03*
%TD*%
D23*
%TO.C,J4*%
X198120000Y-116840000D03*
D24*
X195580000Y-116840000D03*
X198120000Y-114300000D03*
X195580000Y-114300000D03*
X198120000Y-111760000D03*
X195580000Y-111760000D03*
X198120000Y-109220000D03*
X195580000Y-109220000D03*
X198120000Y-106680000D03*
X195580000Y-106680000D03*
%TD*%
D23*
%TO.C,J3*%
X29718000Y-27813000D03*
D24*
X27178000Y-27813000D03*
X29718000Y-30353000D03*
X27178000Y-30353000D03*
X29718000Y-32893000D03*
X27178000Y-32893000D03*
X29718000Y-35433000D03*
X27178000Y-35433000D03*
X29718000Y-37973000D03*
X27178000Y-37973000D03*
X29718000Y-40513000D03*
X27178000Y-40513000D03*
X29718000Y-43053000D03*
X27178000Y-43053000D03*
X29718000Y-45593000D03*
X27178000Y-45593000D03*
X29718000Y-48133000D03*
X27178000Y-48133000D03*
X29718000Y-50673000D03*
X27178000Y-50673000D03*
X29718000Y-53213000D03*
X27178000Y-53213000D03*
X29718000Y-55753000D03*
X27178000Y-55753000D03*
X29718000Y-58293000D03*
X27178000Y-58293000D03*
X29718000Y-60833000D03*
X27178000Y-60833000D03*
X29718000Y-63373000D03*
X27178000Y-63373000D03*
X29718000Y-65913000D03*
X27178000Y-65913000D03*
X29718000Y-68453000D03*
X27178000Y-68453000D03*
X29718000Y-70993000D03*
X27178000Y-70993000D03*
X29718000Y-73533000D03*
X27178000Y-73533000D03*
X29718000Y-76073000D03*
X27178000Y-76073000D03*
%TD*%
D25*
%TO.C,SW1*%
X17780000Y-106680000D03*
D26*
X24280000Y-106680000D03*
X24280000Y-111180000D03*
X17780000Y-111180000D03*
%TD*%
M02*
