M48
; DRILL file {KiCad 5.1.6-c6e7f7d~86~ubuntu18.04.1} date Mon Nov 16 08:09:24 2020
; FORMAT={-:-/ absolute / inch / decimal}
; #@! TF.CreationDate,2020-11-16T08:09:24+08:00
; #@! TF.GenerationSoftware,Kicad,Pcbnew,5.1.6-c6e7f7d~86~ubuntu18.04.1
; #@! TF.FileFunction,Plated,1,2,PTH
FMAT,2
INCH
T1C0.0157
T2C0.0295
T3C0.0315
T4C0.0394
T5C0.0433
T6C0.0472
%
G90
G05
T1
X1.0703Y-4.3749
X1.0963Y-4.1998
X1.0973Y-4.0437
X1.126Y-4.1724
X1.1583Y-4.3714
X1.2749Y-3.526
X1.6138Y-5.5659
X1.6209Y-5.4696
X1.6905Y-5.8121
X1.7006Y-5.8809
X1.7194Y-5.8435
X1.7381Y-5.7323
X1.7694Y-5.8771
X1.9549Y-2.2237
X1.9872Y-5.9259
X2.0543Y-5.6329
X2.0896Y-5.3499
X2.1648Y-2.4328
X2.1951Y-4.4464
X2.2036Y-5.7425
X2.2383Y-2.3751
X2.2747Y-2.4438
X2.2882Y-5.8039
X2.2893Y-5.7435
X2.2894Y-5.6981
X2.2982Y-5.9297
X2.2992Y-4.4765
X2.3283Y-2.0573
X2.3375Y-2.2215
X2.3715Y-4.5761
X2.3991Y-2.6988
X2.4206Y-5.831
X2.4985Y-5.9285
X2.505Y-2.9858
X2.5507Y-5.7415
X2.5656Y-5.8907
X2.5832Y-5.7707
X2.6344Y-4.6422
X2.6344Y-4.9445
X2.6378Y-5.8297
X2.6584Y-5.5627
X2.6671Y-5.8004
X2.74Y-3.9942
X2.84Y-3.1009
X2.8499Y-2.7822
X2.94Y-3.4021
X2.94Y-4.7382
X3.0457Y-3.2675
X3.2064Y-1.0999
X3.2068Y-5.9372
X3.3409Y-4.6675
X3.3409Y-4.798
X3.4033Y-5.2819
X3.4275Y-4.9384
X3.4773Y-2.7239
X3.4819Y-5.0638
X3.5376Y-5.0136
X3.546Y-2.7504
X3.5932Y-0.9815
X3.5989Y-5.035
X3.6332Y-5.1138
X3.6827Y-5.1514
X3.736Y-5.184
X3.7426Y-5.1189
X3.7688Y-5.2438
X3.8355Y-5.2286
X3.8977Y-5.6729
X3.9838Y-5.2564
X4.0049Y-5.1798
X4.0172Y-5.234
X4.1126Y-5.9253
X4.1648Y-4.4417
X4.1762Y-3.6721
X4.2092Y-5.1181
X4.2106Y-5.9249
X4.2645Y-5.7951
X4.2736Y-5.9181
X4.3064Y-4.106
X4.3176Y-4.7691
X4.4446Y-3.8155
X4.515Y-5.1293
X4.5174Y-4.7691
X4.5409Y-5.7438
X4.5768Y-4.9658
X4.6055Y-5.6773
X4.6652Y-5.6805
X4.6653Y-5.7723
X4.6677Y-5.7268
X4.6686Y-0.8195
X4.6721Y-5.8509
X4.7007Y-5.8168
X4.7143Y-0.8201
X4.7395Y-5.6024
X4.7932Y-5.9259
X4.7977Y-0.7832
X4.7979Y-0.8238
X4.8347Y-4.0065
X4.8505Y-4.6993
X4.8568Y-5.8885
X4.8592Y-3.7174
X4.918Y-4.4998
X4.9376Y-3.9698
X4.9459Y-4.6101
X4.9813Y-4.1523
X4.9991Y-5.9147
X5.0125Y-3.9711
X5.0129Y-3.3835
X5.0188Y-5.8544
X5.1023Y-3.6203
X5.1028Y-5.9272
X5.1095Y-3.384
X5.1204Y-5.6266
X5.1972Y-5.6266
X5.211Y-4.58
X5.2143Y-5.3479
X5.2275Y-5.7358
X5.2514Y-4.5461
X5.2562Y-5.6551
X5.2625Y-5.3458
X5.3485Y-4.4943
X5.4198Y-3.4741
X5.4523Y-1.8515
X5.5204Y-1.3788
X5.5417Y-4.2874
X5.5609Y-5.0589
X5.5641Y-3.84
X5.5879Y-4.0599
X5.6065Y-5.0374
X5.6093Y-4.8161
X5.6371Y-4.8981
X5.6531Y-5.5278
X5.6641Y-3.2986
X5.6891Y-2.4421
X5.6892Y-3.0558
X5.7017Y-4.1271
X5.7059Y-2.9217
X5.727Y-1.8423
X5.7274Y-2.3271
X5.7297Y-5.5812
X5.7316Y-1.3954
X5.7369Y-3.1296
X5.7424Y-4.7813
X5.744Y-4.203
X5.7454Y-4.534
X5.7469Y-3.2566
X5.7597Y-2.8491
X5.7601Y-2.8067
X5.7678Y-5.4315
X5.7678Y-4.8693
X5.7735Y-3.2972
X5.7867Y-2.213
X5.7887Y-1.6122
X5.7973Y-3.1811
X5.803Y-1.1273
X5.8122Y-5.4099
X5.8251Y-3.4808
X5.8271Y-2.8852
X5.8286Y-3.2848
X5.8385Y-2.3222
X5.8471Y-3.0656
X5.8475Y-1.6933
X5.8504Y-5.3924
X5.8635Y-2.9301
X5.8653Y-0.9135
X5.8783Y-1.34
X5.8907Y-2.9003
X5.8973Y-2.8317
X5.8975Y-3.6179
X5.9048Y-3.6579
X5.9087Y-5.3751
X5.9093Y-3.7747
X5.9128Y-0.8399
X5.9276Y-1.6294
X5.9339Y-2.2135
X5.9368Y-3.7459
X5.9386Y-2.6928
X5.9408Y-3.6869
X5.9571Y-3.3015
X5.9578Y-1.4795
X5.9617Y-3.4083
X5.9798Y-1.9862
X5.9825Y-5.689
X5.988Y-2.8136
X5.9887Y-2.0969
X5.9933Y-4.4429
X6.0065Y-3.4114
X6.0351Y-1.4974
X6.0525Y-5.6855
X6.0581Y-0.9504
X6.0648Y-4.2676
X6.0785Y-3.2761
X6.0799Y-1.3119
X6.0986Y-0.9561
X6.1033Y-3.596
X6.107Y-3.4112
X6.1096Y-2.7033
X6.1237Y-4.4562
X6.1317Y-2.0745
X6.1356Y-3.2969
X6.1384Y-1.4978
X6.14Y-1.0598
X6.1407Y-1.0996
X6.1432Y-5.844
X6.1587Y-2.9237
X6.1649Y-2.8265
X6.172Y-1.1269
X6.1852Y-2.2156
X6.1935Y-2.4421
X6.198Y-2.925
X6.2008Y-4.618
X6.2034Y-3.7325
X6.2175Y-2.8888
X6.2282Y-3.2979
X6.2327Y-5.82
X6.2349Y-2.813
X6.2406Y-5.7062
X6.2436Y-1.6128
X6.2436Y-2.2128
X6.2459Y-3.4534
X6.2654Y-3.7207
X6.2757Y-5.5588
X6.2807Y-1.4966
X6.2807Y-1.7099
X6.2808Y-2.3194
X6.2966Y-4.9794
X6.3089Y-2.8064
X6.3101Y-2.9249
X6.3264Y-5.596
X6.3287Y-2.6681
X6.3377Y-2.213
X6.3384Y-1.613
X6.353Y-2.4844
X6.3567Y-5.44
X6.3581Y-4.618
X6.3582Y-3.1697
X6.3667Y-1.6901
X6.3738Y-5.2951
X6.3819Y-3.2017
X6.3872Y-2.9083
X6.4308Y-5.2671
X6.4345Y-1.8446
X6.4347Y-2.0383
X6.4349Y-2.585
X6.4417Y-3.4135
X6.4509Y-1.6183
X6.455Y-0.9288
X6.4633Y-2.0696
X6.4635Y-2.811
X6.4717Y-5.7743
X6.4806Y-1.2451
X6.4811Y-3.5583
X6.4859Y-1.7253
X6.4866Y-4.6868
X6.4919Y-4.94
X6.5Y-5.9127
X6.5115Y-3.4478
X6.5115Y-1.0266
X6.5193Y-2.8926
X6.5221Y-3.3717
X6.5349Y-2.9588
X6.5349Y-3.248
X6.5373Y-4.4352
X6.5801Y-1.555
X6.5828Y-1.9853
X6.5849Y-1.1127
X6.5882Y-4.6869
X6.615Y-3.4494
X6.6323Y-5.6143
X6.6388Y-1.1509
X6.6437Y-3.1697
X6.6446Y-3.5046
X6.6566Y-4.3328
X6.6587Y-3.0604
X6.6608Y-5.2062
X6.6682Y-4.1728
X6.6784Y-1.7276
X6.6786Y-5.2456
X6.6791Y-1.2451
X6.6801Y-5.7705
X6.6854Y-4.3848
X6.699Y-1.0785
X6.705Y-3.0662
X6.7066Y-5.2733
X6.7094Y-4.5848
X6.7131Y-2.5295
X6.7167Y-1.8717
X6.74Y-3.1412
X6.7472Y-2.8123
X6.757Y-5.2717
X6.7716Y-2.4486
X6.7762Y-1.9447
X6.7796Y-1.1088
X6.7949Y-3.4419
X6.8037Y-4.515
X6.8047Y-2.8776
X6.8074Y-4.3845
X6.8077Y-3.8881
X6.812Y-2.217
X6.8151Y-2.6994
X6.8301Y-4.1119
X6.835Y-1.9089
X6.835Y-2.4431
X6.8419Y-5.6395
X6.86Y-3.0354
X6.8624Y-4.49
X6.8826Y-3.5477
X6.9166Y-3.5046
X6.9316Y-2.0975
X6.935Y-2.8143
X6.9424Y-1.6256
X6.9567Y-3.4891
X6.9633Y-2.4417
X6.9638Y-2.9246
X6.9664Y-1.8431
X6.9707Y-3.0866
X6.9796Y-2.0033
X6.9805Y-1.421
X6.9819Y-3.9038
X6.9939Y-1.6752
X7.0045Y-3.4413
X7.0259Y-2.0457
X7.0328Y-3.413
X7.0646Y-4.3094
X7.0656Y-2.2163
X7.0964Y-2.3191
X7.1021Y-1.4978
X7.118Y-2.6936
X7.1247Y-2.0925
X7.1254Y-2.2126
X7.1342Y-1.7237
X7.1514Y-3.4412
X7.1844Y-1.1078
X7.185Y-2.4772
X7.1851Y-3.2487
X7.1886Y-3.0426
X7.1887Y-3.2008
X7.1924Y-1.6134
X7.1924Y-2.2129
X7.1995Y-3.107
X7.2063Y-2.6992
X7.2465Y-2.4427
X7.2728Y-1.6516
X7.2854Y-2.2123
X7.2889Y-2.6968
X7.2889Y-3.4123
X7.2932Y-1.244
X7.2995Y-4.9531
X7.3184Y-1.9843
X7.33Y-1.634
X7.3315Y-1.8422
X7.3342Y-1.4883
X7.3393Y-2.925
X7.3476Y-2.3263
X7.3588Y-1.2679
X7.3727Y-1.4387
X7.3916Y-1.6676
X7.3916Y-2.6972
X7.4336Y-2.2142
X7.435Y-1.4582
X7.44Y-1.2943
X7.4475Y-3.2451
X7.4481Y-1.8444
X7.4607Y-2.3235
X7.5324Y-2.4926
X7.5582Y-2.2482
X7.6424Y-4.4258
T2
X1.11Y-3.585
X1.11Y-3.635
X1.11Y-3.685
T3
X1.1Y-4.7
X1.2Y-4.7
X4.205Y-2.885
X4.305Y-2.885
X1.77Y-2.295
X1.77Y-2.895
X1.87Y-2.295
X1.87Y-2.895
X1.97Y-2.295
X1.97Y-2.895
X2.07Y-2.295
X2.07Y-2.895
X2.17Y-2.295
X2.17Y-2.895
X2.27Y-2.295
X2.27Y-2.895
X2.37Y-2.295
X2.37Y-2.895
X2.47Y-2.295
X2.47Y-2.895
X2.57Y-2.295
X2.57Y-2.895
X2.67Y-2.295
X2.67Y-2.895
X2.77Y-2.295
X2.77Y-2.895
X2.87Y-2.295
X2.87Y-2.895
X2.97Y-2.295
X2.97Y-2.895
X3.07Y-2.295
X3.07Y-2.895
X3.17Y-2.295
X3.17Y-2.895
X3.27Y-2.295
X3.27Y-2.895
X3.37Y-2.295
X3.37Y-2.895
X3.47Y-2.295
X3.47Y-2.895
X3.57Y-2.295
X3.57Y-2.895
X3.67Y-2.295
X3.67Y-2.895
X1.79Y-3.87
X1.79Y-4.87
X1.89Y-3.87
X1.89Y-4.87
X1.99Y-3.87
X1.99Y-4.87
X2.09Y-3.87
X2.09Y-4.87
X2.19Y-3.87
X2.19Y-4.87
X2.29Y-3.87
X2.29Y-4.87
X2.39Y-3.87
X2.39Y-4.87
X2.49Y-3.87
X2.49Y-4.87
X2.59Y-3.87
X2.59Y-4.87
X2.69Y-3.87
X2.69Y-4.87
X2.79Y-3.87
X2.79Y-4.87
X2.89Y-3.87
X2.89Y-4.87
X2.99Y-3.87
X2.99Y-4.87
X3.09Y-3.87
X3.09Y-4.87
X3.19Y-3.87
X3.19Y-4.87
X3.29Y-3.87
X3.29Y-4.87
X3.39Y-3.87
X3.39Y-4.87
X3.49Y-3.87
X3.49Y-4.87
X3.59Y-3.87
X3.59Y-4.87
X3.69Y-3.87
X3.69Y-4.87
X3.79Y-3.87
X3.79Y-4.87
X3.89Y-3.87
X3.89Y-4.87
X3.99Y-3.87
X3.99Y-4.87
X4.09Y-3.87
X4.09Y-4.87
X4.19Y-3.87
X4.19Y-4.87
X4.29Y-3.87
X4.29Y-4.87
X4.39Y-3.87
X4.39Y-4.87
X4.49Y-3.87
X4.49Y-4.87
X4.59Y-3.87
X4.59Y-4.87
X4.69Y-3.87
X4.69Y-4.87
X4.79Y-3.87
X4.79Y-4.87
X4.89Y-3.87
X4.89Y-4.87
X5.815Y-4.04
X5.815Y-4.14
X5.815Y-4.24
X5.815Y-4.34
X5.815Y-4.44
X5.815Y-4.54
X5.815Y-4.64
X5.815Y-4.74
X5.815Y-4.84
X5.815Y-4.94
X5.815Y-5.04
X5.915Y-3.94
X5.915Y-4.04
X5.915Y-4.14
X5.915Y-4.24
X5.915Y-4.34
X5.915Y-4.44
X5.915Y-4.54
X5.915Y-4.64
X5.915Y-4.74
X5.915Y-4.84
X5.915Y-4.94
X5.915Y-5.04
X5.915Y-5.14
X6.015Y-3.94
X6.015Y-4.04
X6.015Y-5.04
X6.015Y-5.14
X6.115Y-3.94
X6.115Y-4.04
X6.115Y-5.04
X6.115Y-5.14
X6.215Y-3.94
X6.215Y-4.04
X6.215Y-5.04
X6.215Y-5.14
X6.315Y-3.94
X6.315Y-4.04
X6.315Y-5.04
X6.315Y-5.14
X6.415Y-3.94
X6.415Y-4.04
X6.415Y-5.04
X6.415Y-5.14
X6.515Y-3.94
X6.515Y-4.04
X6.515Y-5.04
X6.515Y-5.14
X6.615Y-3.94
X6.615Y-4.04
X6.615Y-5.04
X6.615Y-5.14
X6.715Y-3.94
X6.715Y-4.04
X6.715Y-5.04
X6.715Y-5.14
X6.815Y-3.94
X6.815Y-4.04
X6.815Y-5.04
X6.815Y-5.14
X6.915Y-3.94
X6.915Y-4.04
X6.915Y-4.14
X6.915Y-4.24
X6.915Y-4.34
X6.915Y-4.44
X6.915Y-4.54
X6.915Y-4.64
X6.915Y-4.74
X6.915Y-4.84
X6.915Y-4.94
X6.915Y-5.04
X6.915Y-5.14
X7.015Y-4.04
X7.015Y-4.14
X7.015Y-4.24
X7.015Y-4.34
X7.015Y-4.44
X7.015Y-4.54
X7.015Y-4.64
X7.015Y-4.74
X7.015Y-4.84
X7.015Y-4.94
X7.015Y-5.04
X1.77Y-1.055
X1.77Y-1.655
X1.87Y-1.055
X1.87Y-1.655
X1.97Y-1.055
X1.97Y-1.655
X2.07Y-1.055
X2.07Y-1.655
X2.17Y-1.055
X2.17Y-1.655
X2.27Y-1.055
X2.27Y-1.655
X2.37Y-1.055
X2.37Y-1.655
X2.47Y-1.055
X2.47Y-1.655
X2.57Y-1.055
X2.57Y-1.655
X2.67Y-1.055
X2.67Y-1.655
X2.77Y-1.055
X2.77Y-1.655
X2.87Y-1.055
X2.87Y-1.655
X2.97Y-1.055
X2.97Y-1.655
X3.07Y-1.055
X3.07Y-1.655
X3.17Y-1.055
X3.17Y-1.655
X3.27Y-1.055
X3.27Y-1.655
X3.37Y-1.055
X3.37Y-1.655
X3.47Y-1.055
X3.47Y-1.655
X3.57Y-1.055
X3.57Y-1.655
X3.67Y-1.055
X3.67Y-1.655
T4
X1.07Y-1.095
X1.07Y-1.195
X1.07Y-1.295
X1.07Y-1.395
X1.07Y-1.495
X1.07Y-1.595
X1.07Y-1.695
X1.07Y-1.795
X1.07Y-1.895
X1.07Y-1.995
X1.07Y-2.095
X1.07Y-2.195
X1.07Y-2.295
X1.07Y-2.395
X1.07Y-2.495
X1.07Y-2.595
X1.07Y-2.695
X1.07Y-2.795
X1.07Y-2.895
X1.07Y-2.995
X1.17Y-1.095
X1.17Y-1.195
X1.17Y-1.295
X1.17Y-1.395
X1.17Y-1.495
X1.17Y-1.595
X1.17Y-1.695
X1.17Y-1.795
X1.17Y-1.895
X1.17Y-1.995
X1.17Y-2.095
X1.17Y-2.195
X1.17Y-2.295
X1.17Y-2.395
X1.17Y-2.495
X1.17Y-2.595
X1.17Y-2.695
X1.17Y-2.795
X1.17Y-2.895
X1.17Y-2.995
X4.305Y-2.335
X4.305Y-2.635
X4.905Y-2.335
X4.905Y-2.635
X7.7Y-4.2
X7.7Y-4.3
X7.7Y-4.4
X7.7Y-4.5
X7.7Y-4.6
X7.8Y-4.2
X7.8Y-4.3
X7.8Y-4.4
X7.8Y-4.5
X7.8Y-4.6
X4.3Y-1.78
X4.3Y-2.08
X4.6Y-1.78
X4.6Y-2.08
T5
X1.77Y-2.065
X1.87Y-2.065
X1.97Y-2.065
T6
X0.7Y-4.2
X0.7Y-4.3772
X0.9559Y-4.2
X0.9559Y-4.3772
T4
G00X0.9638Y-5.1606
M15
G01X0.9638Y-5.2394
M16
G05
G00X1.0425Y-5.385
M15
G01X1.1213Y-5.385
M16
G05
G00X1.2Y-5.1606
M15
G01X1.2Y-5.2394
M16
G05
T0
M30
